<?xml version="1.0" encoding="UTF-8" standalone="no"?>
<!DOCTYPE svg PUBLIC "-//W3C//DTD SVG 1.1//EN"
 "http://www.w3.org/Graphics/SVG/1.1/DTD/svg11.dtd">
<!-- Generated by graphviz version 2.47.1 (20210417.1919)
 -->
<!-- Title: UIHandler.InitialiseTurn Pages: 1 -->
<svg width="832pt" height="230pt"
 viewBox="0.00 0.00 832.00 230.00" xmlns="http://www.w3.org/2000/svg" xmlns:xlink="http://www.w3.org/1999/xlink">
<g id="graph0" class="graph" transform="scale(1 1) rotate(0) translate(4 226)">
<title>UIHandler.InitialiseTurn</title>
<polygon fill="white" stroke="transparent" points="-4,4 -4,-226 828,-226 828,4 -4,4"/>
<!-- Node1 -->
<g id="node1" class="node">
<title>Node1</title>
<g id="a_node1"><a xlink:title="Resets UI for the next player">
<polygon fill="#bfbfbf" stroke="black" points="0,-100.5 0,-121.5 135,-121.5 135,-100.5 0,-100.5"/>
<text text-anchor="middle" x="67.5" y="-107.9" font-family="Helvetica,sans-Serif" font-size="12.00">UIHandler.InitialiseTurn</text>
</a>
</g>
</g>
<!-- Node2 -->
<g id="node2" class="node">
<title>Node2</title>
<g id="a_node2"><a xlink:href="class_u_i_handler.html#abe1c78d110b0a4374daed98df71fcff1" target="_top" xlink:title="Displays the notepad">
<polygon fill="white" stroke="black" points="197.5,-200.5 197.5,-221.5 353.5,-221.5 353.5,-200.5 197.5,-200.5"/>
<text text-anchor="middle" x="275.5" y="-207.9" font-family="Helvetica,sans-Serif" font-size="12.00">UIHandler.DisplayNotePad</text>
</a>
</g>
</g>
<!-- Node1&#45;&gt;Node2 -->
<g id="edge1" class="edge">
<title>Node1&#45;&gt;Node2</title>
<path fill="none" stroke="midnightblue" d="M78.73,-121.77C95.99,-139.26 132.78,-173.62 171,-191 176.44,-193.48 182.18,-195.64 188.05,-197.55"/>
<polygon fill="midnightblue" stroke="midnightblue" points="187.45,-201.02 198.03,-200.5 189.44,-194.3 187.45,-201.02"/>
</g>
<!-- Node3 -->
<g id="node3" class="node">
<title>Node3</title>
<g id="a_node3"><a xlink:href="class_u_i_handler.html#a2db6b92acd51a72b431b3eacb3884ddd" target="_top" xlink:title="Displays a screen when a player is eliminated">
<polygon fill="white" stroke="black" points="176.5,-160.5 176.5,-181.5 374.5,-181.5 374.5,-160.5 176.5,-160.5"/>
<text text-anchor="middle" x="275.5" y="-167.9" font-family="Helvetica,sans-Serif" font-size="12.00">UIHandler.DisplayPlayerEliminated</text>
</a>
</g>
</g>
<!-- Node1&#45;&gt;Node3 -->
<g id="edge2" class="edge">
<title>Node1&#45;&gt;Node3</title>
<path fill="none" stroke="midnightblue" d="M92.1,-121.62C112.61,-130.51 143.29,-142.99 171,-151 180.43,-153.73 190.45,-156.19 200.4,-158.38"/>
<polygon fill="midnightblue" stroke="midnightblue" points="199.79,-161.83 210.3,-160.47 201.24,-154.98 199.79,-161.83"/>
</g>
<!-- Node4 -->
<g id="node4" class="node">
<title>Node4</title>
<g id="a_node4"><a xlink:href="class_player_master_controller.html#a12c91851433777ae557a71d9f9a855f0" target="_top" xlink:title=" ">
<polygon fill="white" stroke="black" points="171,-120.5 171,-141.5 380,-141.5 380,-120.5 171,-120.5"/>
<text text-anchor="middle" x="275.5" y="-127.9" font-family="Helvetica,sans-Serif" font-size="12.00">PlayerMasterController.GetCharacter</text>
</a>
</g>
</g>
<!-- Node1&#45;&gt;Node4 -->
<g id="edge3" class="edge">
<title>Node1&#45;&gt;Node4</title>
<path fill="none" stroke="midnightblue" d="M135.1,-117.47C143.29,-118.26 151.84,-119.09 160.49,-119.93"/>
<polygon fill="midnightblue" stroke="midnightblue" points="160.39,-123.44 170.69,-120.92 161.07,-116.47 160.39,-123.44"/>
</g>
<!-- Node5 -->
<g id="node5" class="node">
<title>Node5</title>
<g id="a_node5"><a xlink:href="class_user_controller.html#a587c55687141d18f375e0504ea4649fa" target="_top" xlink:title="Gets the player controller for the current player">
<polygon fill="white" stroke="black" points="183,-80.5 183,-101.5 368,-101.5 368,-80.5 183,-80.5"/>
<text text-anchor="middle" x="275.5" y="-87.9" font-family="Helvetica,sans-Serif" font-size="12.00">UserController.GetCurrentPlayer</text>
</a>
</g>
</g>
<!-- Node1&#45;&gt;Node5 -->
<g id="edge4" class="edge">
<title>Node1&#45;&gt;Node5</title>
<path fill="none" stroke="midnightblue" d="M135.1,-104.53C147.06,-103.37 159.78,-102.14 172.48,-100.91"/>
<polygon fill="midnightblue" stroke="midnightblue" points="173.03,-104.37 182.64,-99.92 172.35,-97.4 173.03,-104.37"/>
</g>
<!-- Node8 -->
<g id="node8" class="node">
<title>Node8</title>
<g id="a_node8"><a xlink:href="class_enum_to_string.html#a078a1fb16a0030544fac1b96a90b6b83" target="_top" xlink:title="Get a string value from a valid enum">
<polygon fill="white" stroke="black" points="175,-40.5 175,-61.5 376,-61.5 376,-40.5 175,-40.5"/>
<text text-anchor="middle" x="275.5" y="-47.9" font-family="Helvetica,sans-Serif" font-size="12.00">EnumToString.GetStringFromEnum</text>
</a>
</g>
</g>
<!-- Node1&#45;&gt;Node8 -->
<g id="edge7" class="edge">
<title>Node1&#45;&gt;Node8</title>
<path fill="none" stroke="midnightblue" d="M92.1,-100.38C112.61,-91.49 143.29,-79.01 171,-71 180.43,-68.27 190.45,-65.81 200.4,-63.62"/>
<polygon fill="midnightblue" stroke="midnightblue" points="201.24,-67.02 210.3,-61.53 199.79,-60.17 201.24,-67.02"/>
</g>
<!-- Node9 -->
<g id="node9" class="node">
<title>Node9</title>
<g id="a_node9"><a xlink:href="class_u_i_handler.html#a33d33813339ed163ad4ab8708226f911" target="_top" xlink:title="Updates the current turn text">
<polygon fill="white" stroke="black" points="180,-0.5 180,-21.5 371,-21.5 371,-0.5 180,-0.5"/>
<text text-anchor="middle" x="275.5" y="-7.9" font-family="Helvetica,sans-Serif" font-size="12.00">UIHandler.UpdateCurrentTurnText</text>
</a>
</g>
</g>
<!-- Node1&#45;&gt;Node9 -->
<g id="edge8" class="edge">
<title>Node1&#45;&gt;Node9</title>
<path fill="none" stroke="midnightblue" d="M78.73,-100.23C95.99,-82.74 132.78,-48.38 171,-31 176.44,-28.52 182.18,-26.36 188.05,-24.45"/>
<polygon fill="midnightblue" stroke="midnightblue" points="189.44,-27.7 198.03,-21.5 187.45,-20.98 189.44,-27.7"/>
</g>
<!-- Node6 -->
<g id="node6" class="node">
<title>Node6</title>
<g id="a_node6"><a xlink:href="class_round_manager.html#aab3f49a5e05508a8e023a497e763c1c8" target="_top" xlink:title="Gets the player controller for the current player">
<polygon fill="white" stroke="black" points="416,-80.5 416,-101.5 606,-101.5 606,-80.5 416,-80.5"/>
<text text-anchor="middle" x="511" y="-87.9" font-family="Helvetica,sans-Serif" font-size="12.00">RoundManager.GetCurrentPlayer</text>
</a>
</g>
</g>
<!-- Node5&#45;&gt;Node6 -->
<g id="edge5" class="edge">
<title>Node5&#45;&gt;Node6</title>
<path fill="none" stroke="midnightblue" d="M368.12,-91C380.52,-91 393.31,-91 405.91,-91"/>
<polygon fill="midnightblue" stroke="midnightblue" points="405.96,-94.5 415.96,-91 405.96,-87.5 405.96,-94.5"/>
</g>
<!-- Node7 -->
<g id="node7" class="node">
<title>Node7</title>
<g id="a_node7"><a xlink:href="class_turn_controller.html#af16e42b7e61c5a999291327e2e556caa" target="_top" xlink:title=" ">
<polygon fill="white" stroke="black" points="642,-80.5 642,-101.5 824,-101.5 824,-80.5 642,-80.5"/>
<text text-anchor="middle" x="733" y="-87.9" font-family="Helvetica,sans-Serif" font-size="12.00">TurnController.GetCurrentPlayer</text>
</a>
</g>
</g>
<!-- Node6&#45;&gt;Node7 -->
<g id="edge6" class="edge">
<title>Node6&#45;&gt;Node7</title>
<path fill="none" stroke="midnightblue" d="M606.26,-91C614.63,-91 623.13,-91 631.55,-91"/>
<polygon fill="midnightblue" stroke="midnightblue" points="631.78,-94.5 641.78,-91 631.78,-87.5 631.78,-94.5"/>
</g>
</g>
</svg>
