<?xml version="1.0" encoding="UTF-8" standalone="no"?>
<!DOCTYPE svg PUBLIC "-//W3C//DTD SVG 1.1//EN"
 "http://www.w3.org/Graphics/SVG/1.1/DTD/svg11.dtd">
<!-- Generated by graphviz version 2.47.1 (20210417.1919)
 -->
<!-- Title: Die.RollAgain Pages: 1 -->
<svg width="334pt" height="49pt"
 viewBox="0.00 0.00 334.00 49.00" xmlns="http://www.w3.org/2000/svg" xmlns:xlink="http://www.w3.org/1999/xlink">
<g id="graph0" class="graph" transform="scale(1 1) rotate(0) translate(4 45)">
<title>Die.RollAgain</title>
<polygon fill="white" stroke="transparent" points="-4,4 -4,-45 330,-45 330,4 -4,4"/>
<!-- Node1 -->
<g id="node1" class="node">
<title>Node1</title>
<g id="a_node1"><a xlink:title="Roll again in event of die getting stuck on edge">
<polygon fill="#bfbfbf" stroke="black" points="0,-19.5 0,-40.5 89,-40.5 89,-19.5 0,-19.5"/>
<text text-anchor="middle" x="44.5" y="-26.9" font-family="Helvetica,sans-Serif" font-size="12.00">Die.RollAgain</text>
</a>
</g>
</g>
<!-- Node2 -->
<g id="node2" class="node">
<title>Node2</title>
<g id="a_node2"><a xlink:href="class_die.html#abc11c3d2bf0c0fba1555093eb5a8469e" target="_top" xlink:title="Reset Die to original position">
<polygon fill="white" stroke="black" points="238,-19.5 238,-40.5 326,-40.5 326,-19.5 238,-19.5"/>
<text text-anchor="middle" x="282" y="-26.9" font-family="Helvetica,sans-Serif" font-size="12.00">Die.ResetDie</text>
</a>
</g>
</g>
<!-- Node1&#45;&gt;Node2 -->
<g id="edge1" class="edge">
<title>Node1&#45;&gt;Node2</title>
<path fill="none" stroke="midnightblue" d="M89.24,-30.65C100.86,-30.79 113.41,-30.93 125,-31 159.22,-31.22 167.78,-31.22 202,-31 210.38,-30.95 219.26,-30.86 227.92,-30.76"/>
<polygon fill="midnightblue" stroke="midnightblue" points="227.99,-34.26 237.95,-30.64 227.91,-27.26 227.99,-34.26"/>
</g>
<!-- Node3 -->
<g id="node3" class="node">
<title>Node3</title>
<g id="a_node3"><a xlink:href="class_die.html#a4995ecb1a88aa7f1043ae71ba8aa3ef5" target="_top" xlink:title="Roll the die">
<polygon fill="white" stroke="black" points="125,-0.5 125,-21.5 202,-21.5 202,-0.5 125,-0.5"/>
<text text-anchor="middle" x="163.5" y="-7.9" font-family="Helvetica,sans-Serif" font-size="12.00">Die.RollDie</text>
</a>
</g>
</g>
<!-- Node1&#45;&gt;Node3 -->
<g id="edge2" class="edge">
<title>Node1&#45;&gt;Node3</title>
<path fill="none" stroke="midnightblue" d="M89.07,-22.93C97.38,-21.57 106.13,-20.15 114.57,-18.78"/>
<polygon fill="midnightblue" stroke="midnightblue" points="115.36,-22.2 124.66,-17.14 114.23,-15.29 115.36,-22.2"/>
</g>
<!-- Node3&#45;&gt;Node2 -->
<g id="edge3" class="edge">
<title>Node3&#45;&gt;Node2</title>
<path fill="none" stroke="midnightblue" d="M202,-17.12C210.23,-18.46 219.08,-19.9 227.79,-21.32"/>
<polygon fill="midnightblue" stroke="midnightblue" points="227.46,-24.81 237.89,-22.97 228.59,-17.91 227.46,-24.81"/>
</g>
</g>
</svg>
