<?xml version="1.0" encoding="UTF-8" standalone="no"?>
<!DOCTYPE svg PUBLIC "-//W3C//DTD SVG 1.1//EN"
 "http://www.w3.org/Graphics/SVG/1.1/DTD/svg11.dtd">
<!-- Generated by graphviz version 2.47.1 (20210417.1919)
 -->
<!-- Title: BoardManager.ShowMovable Pages: 1 -->
<svg width="698pt" height="230pt"
 viewBox="0.00 0.00 698.00 230.00" xmlns="http://www.w3.org/2000/svg" xmlns:xlink="http://www.w3.org/1999/xlink">
<g id="graph0" class="graph" transform="scale(1 1) rotate(0) translate(4 226)">
<title>BoardManager.ShowMovable</title>
<polygon fill="white" stroke="transparent" points="-4,4 -4,-226 694,-226 694,4 -4,4"/>
<!-- Node1 -->
<g id="node1" class="node">
<title>Node1</title>
<g id="a_node1"><a xlink:title="Mark and show which tile the player can move to">
<polygon fill="#bfbfbf" stroke="black" points="518,-100.5 518,-121.5 690,-121.5 690,-100.5 518,-100.5"/>
<text text-anchor="middle" x="604" y="-107.9" font-family="Helvetica,sans-Serif" font-size="12.00">BoardManager.ShowMovable</text>
</a>
</g>
</g>
<!-- Node2 -->
<g id="node2" class="node">
<title>Node2</title>
<g id="a_node2"><a xlink:href="class_round_manager.html#acf674cdec523de9a0f91ab8a7bfcc2ef" target="_top" xlink:title="for waiting the dice to be rolled, get it&#39;s results and display where the player can move to">
<polygon fill="white" stroke="black" points="254,-200.5 254,-221.5 431,-221.5 431,-200.5 254,-200.5"/>
<text text-anchor="middle" x="342.5" y="-207.9" font-family="Helvetica,sans-Serif" font-size="12.00">RoundManager.DiceBehaviour</text>
</a>
</g>
</g>
<!-- Node1&#45;&gt;Node2 -->
<g id="edge1" class="edge">
<title>Node1&#45;&gt;Node2</title>
<path fill="none" stroke="midnightblue" d="M583.06,-128.26C560.26,-146.97 521.02,-176.14 482,-191 465.99,-197.09 448.3,-201.35 431.06,-204.31"/>
<polygon fill="midnightblue" stroke="midnightblue" points="585.53,-130.75 590.96,-121.65 581.04,-125.38 585.53,-130.75"/>
</g>
<!-- Node4 -->
<g id="node4" class="node">
<title>Node4</title>
<g id="a_node4"><a xlink:href="class_player_master_controller.html#ac150dd296b7ff1b7b5a856cbdf5af8bf" target="_top" xlink:title="calls the boardManager to display all the tiles that it can move to according to the range of it&#39;s mo...">
<polygon fill="white" stroke="black" points="203,-160.5 203,-181.5 482,-181.5 482,-160.5 203,-160.5"/>
<text text-anchor="middle" x="342.5" y="-167.9" font-family="Helvetica,sans-Serif" font-size="12.00">PlayerMasterController.DisplayBoardMovableTiles</text>
</a>
</g>
</g>
<!-- Node1&#45;&gt;Node4 -->
<g id="edge3" class="edge">
<title>Node1&#45;&gt;Node4</title>
<path fill="none" stroke="midnightblue" d="M565.88,-125.16C542.18,-133.72 510.64,-144.25 482,-151 466.16,-154.73 449.12,-157.88 432.6,-160.5"/>
<polygon fill="midnightblue" stroke="midnightblue" points="567.34,-128.35 575.52,-121.62 564.93,-121.78 567.34,-128.35"/>
</g>
<!-- Node5 -->
<g id="node5" class="node">
<title>Node5</title>
<g id="a_node5"><a xlink:href="class_anson_test_script.html#a445d27a921ade2f0e76054a3b7cc4245" target="_top" xlink:title=" ">
<polygon fill="white" stroke="black" points="256,-120.5 256,-141.5 429,-141.5 429,-120.5 256,-120.5"/>
<text text-anchor="middle" x="342.5" y="-127.9" font-family="Helvetica,sans-Serif" font-size="12.00">AnsonTestScript.FixedUpdate</text>
</a>
</g>
</g>
<!-- Node1&#45;&gt;Node5 -->
<g id="edge4" class="edge">
<title>Node1&#45;&gt;Node5</title>
<path fill="none" stroke="midnightblue" d="M507.58,-118.35C481.95,-120.33 454.4,-122.45 429.32,-124.39"/>
<polygon fill="midnightblue" stroke="midnightblue" points="507.97,-121.83 517.67,-117.58 507.43,-114.86 507.97,-121.83"/>
</g>
<!-- Node6 -->
<g id="node6" class="node">
<title>Node6</title>
<g id="a_node6"><a xlink:href="class_player_movement_test_script.html#a1c247cfdee35d3a1c1d3a81fd579b426" target="_top" xlink:title=" ">
<polygon fill="white" stroke="black" points="229,-80.5 229,-101.5 456,-101.5 456,-80.5 229,-80.5"/>
<text text-anchor="middle" x="342.5" y="-87.9" font-family="Helvetica,sans-Serif" font-size="12.00">PlayerMovementTestScript.FixedUpdate</text>
</a>
</g>
</g>
<!-- Node1&#45;&gt;Node6 -->
<g id="edge5" class="edge">
<title>Node1&#45;&gt;Node6</title>
<path fill="none" stroke="midnightblue" d="M507.41,-103.63C490.76,-102.35 473.29,-101 456.22,-99.69"/>
<polygon fill="midnightblue" stroke="midnightblue" points="507.43,-107.14 517.67,-104.42 507.97,-100.17 507.43,-107.14"/>
</g>
<!-- Node7 -->
<g id="node7" class="node">
<title>Node7</title>
<g id="a_node7"><a xlink:href="class_testing___movement_script.html#a8bd90f3857ba3610ef23e0a5d7e4879a" target="_top" xlink:title="give a select value for the player roll">
<polygon fill="white" stroke="black" points="246,-40.5 246,-61.5 439,-61.5 439,-40.5 246,-40.5"/>
<text text-anchor="middle" x="342.5" y="-47.9" font-family="Helvetica,sans-Serif" font-size="12.00">Testing_MovementScript.GiveRoll</text>
</a>
</g>
</g>
<!-- Node1&#45;&gt;Node7 -->
<g id="edge6" class="edge">
<title>Node1&#45;&gt;Node7</title>
<path fill="none" stroke="midnightblue" d="M565.88,-96.84C542.18,-88.28 510.64,-77.75 482,-71 466.16,-67.27 449.12,-64.12 432.6,-61.5"/>
<polygon fill="midnightblue" stroke="midnightblue" points="564.93,-100.22 575.52,-100.38 567.34,-93.65 564.93,-100.22"/>
</g>
<!-- Node8 -->
<g id="node8" class="node">
<title>Node8</title>
<g id="a_node8"><a xlink:href="class_board_manager.html#a7607382dac3371733cee2f30a8ba6f25" target="_top" xlink:title="Show movable tiles">
<polygon fill="white" stroke="black" points="256.5,-0.5 256.5,-21.5 428.5,-21.5 428.5,-0.5 256.5,-0.5"/>
<text text-anchor="middle" x="342.5" y="-7.9" font-family="Helvetica,sans-Serif" font-size="12.00">BoardManager.ShowMovable</text>
</a>
</g>
</g>
<!-- Node1&#45;&gt;Node8 -->
<g id="edge7" class="edge">
<title>Node1&#45;&gt;Node8</title>
<path fill="none" stroke="midnightblue" d="M583.06,-93.74C560.26,-75.03 521.02,-45.86 482,-31 465.31,-24.65 446.79,-20.29 428.86,-17.31"/>
<polygon fill="midnightblue" stroke="midnightblue" points="581.04,-96.62 590.96,-100.35 585.53,-91.25 581.04,-96.62"/>
</g>
<!-- Node3 -->
<g id="node3" class="node">
<title>Node3</title>
<g id="a_node3"><a xlink:href="class_round_manager.html#abb654bc0114fc67d455ed6449d5bda22" target="_top" xlink:title=" ">
<polygon fill="white" stroke="black" points="0,-200.5 0,-221.5 167,-221.5 167,-200.5 0,-200.5"/>
<text text-anchor="middle" x="83.5" y="-207.9" font-family="Helvetica,sans-Serif" font-size="12.00">RoundManager.FixedUpdate</text>
</a>
</g>
</g>
<!-- Node2&#45;&gt;Node3 -->
<g id="edge2" class="edge">
<title>Node2&#45;&gt;Node3</title>
<path fill="none" stroke="midnightblue" d="M243.46,-211C218.26,-211 191.4,-211 167.07,-211"/>
<polygon fill="midnightblue" stroke="midnightblue" points="243.77,-214.5 253.77,-211 243.77,-207.5 243.77,-214.5"/>
</g>
</g>
</svg>
