<?xml version="1.0" encoding="UTF-8" standalone="no"?>
<!DOCTYPE svg PUBLIC "-//W3C//DTD SVG 1.1//EN"
 "http://www.w3.org/Graphics/SVG/1.1/DTD/svg11.dtd">
<!-- Generated by graphviz version 2.47.1 (20210417.1919)
 -->
<!-- Title: UserInputControlScript Pages: 1 -->
<svg width="160pt" height="432pt"
 viewBox="0.00 0.00 160.00 432.00" xmlns="http://www.w3.org/2000/svg" xmlns:xlink="http://www.w3.org/1999/xlink">
<g id="graph0" class="graph" transform="scale(1 1) rotate(0) translate(4 428)">
<title>UserInputControlScript</title>
<polygon fill="white" stroke="transparent" points="-4,4 -4,-428 156,-428 156,4 -4,4"/>
<!-- Node1 -->
<g id="node1" class="node">
<title>Node1</title>
<g id="a_node1"><a xlink:title="this is for handling the cursor controls">
<polygon fill="#bfbfbf" stroke="black" points="0,-0.5 0,-323.5 152,-323.5 152,-0.5 0,-0.5"/>
<text text-anchor="middle" x="76" y="-309.9" font-family="Helvetica,sans-Serif" font-size="12.00">UserInputControlScript</text>
<polyline fill="none" stroke="black" points="0,-302.5 152,-302.5 "/>
<text text-anchor="start" x="8" y="-288.9" font-family="Helvetica,sans-Serif" font-size="12.00">+ Cursor</text>
<text text-anchor="start" x="8" y="-275.9" font-family="Helvetica,sans-Serif" font-size="12.00">+ UserController</text>
<text text-anchor="start" x="8" y="-262.9" font-family="Helvetica,sans-Serif" font-size="12.00">&#45; mouse</text>
<text text-anchor="start" x="8" y="-249.9" font-family="Helvetica,sans-Serif" font-size="12.00">&#45; cursor</text>
<text text-anchor="start" x="8" y="-236.9" font-family="Helvetica,sans-Serif" font-size="12.00">&#45; yOffset</text>
<text text-anchor="start" x="8" y="-223.9" font-family="Helvetica,sans-Serif" font-size="12.00">&#45; isMouse</text>
<text text-anchor="start" x="8" y="-210.9" font-family="Helvetica,sans-Serif" font-size="12.00">&#45; isController</text>
<text text-anchor="start" x="8" y="-197.9" font-family="Helvetica,sans-Serif" font-size="12.00">&#45; cameraObject</text>
<text text-anchor="start" x="8" y="-184.9" font-family="Helvetica,sans-Serif" font-size="12.00">&#45; layerMask</text>
<text text-anchor="start" x="8" y="-171.9" font-family="Helvetica,sans-Serif" font-size="12.00">&#45; targetPos</text>
<text text-anchor="start" x="8" y="-158.9" font-family="Helvetica,sans-Serif" font-size="12.00">&#45; refereshRate</text>
<text text-anchor="start" x="8" y="-145.9" font-family="Helvetica,sans-Serif" font-size="12.00">&#45; timeNow_refereshRate</text>
<text text-anchor="start" x="8" y="-132.9" font-family="Helvetica,sans-Serif" font-size="12.00">&#45; userController</text>
<text text-anchor="start" x="8" y="-119.9" font-family="Helvetica,sans-Serif" font-size="12.00">&#45; userSelectionScript</text>
<text text-anchor="start" x="8" y="-106.9" font-family="Helvetica,sans-Serif" font-size="12.00">&#45; turnController</text>
<polyline fill="none" stroke="black" points="0,-99.5 152,-99.5 "/>
<text text-anchor="start" x="8" y="-85.9" font-family="Helvetica,sans-Serif" font-size="12.00">+ MoveWithMouse()</text>
<text text-anchor="start" x="8" y="-72.9" font-family="Helvetica,sans-Serif" font-size="12.00">+ MoveWithAxis()</text>
<text text-anchor="start" x="8" y="-59.9" font-family="Helvetica,sans-Serif" font-size="12.00">+ MovePlayerToken()</text>
<text text-anchor="start" x="8" y="-46.9" font-family="Helvetica,sans-Serif" font-size="12.00">&#45; Awake()</text>
<text text-anchor="start" x="8" y="-33.9" font-family="Helvetica,sans-Serif" font-size="12.00">&#45; FixedUpdate()</text>
<text text-anchor="start" x="8" y="-20.9" font-family="Helvetica,sans-Serif" font-size="12.00">&#45; CastUpdateWithMouse()</text>
<text text-anchor="start" x="8" y="-7.9" font-family="Helvetica,sans-Serif" font-size="12.00">&#45; UpdateCursor()</text>
</a>
</g>
</g>
<!-- Node2 -->
<g id="node2" class="node">
<title>Node2</title>
<g id="a_node2"><a xlink:title=" ">
<polygon fill="white" stroke="#bfbfbf" points="27,-360.5 27,-423.5 125,-423.5 125,-360.5 27,-360.5"/>
<text text-anchor="middle" x="76" y="-409.9" font-family="Helvetica,sans-Serif" font-size="12.00">MonoBehaviour</text>
<polyline fill="none" stroke="#bfbfbf" points="27,-402.5 125,-402.5 "/>
<text text-anchor="middle" x="76" y="-388.9" font-family="Helvetica,sans-Serif" font-size="12.00"> </text>
<polyline fill="none" stroke="#bfbfbf" points="27,-381.5 125,-381.5 "/>
<text text-anchor="middle" x="76" y="-367.9" font-family="Helvetica,sans-Serif" font-size="12.00"> </text>
</a>
</g>
</g>
<!-- Node2&#45;&gt;Node1 -->
<g id="edge1" class="edge">
<title>Node2&#45;&gt;Node1</title>
<path fill="none" stroke="midnightblue" d="M76,-350.15C76,-342.08 76,-333.15 76,-323.72"/>
<polygon fill="none" stroke="midnightblue" points="72.5,-350.25 76,-360.25 79.5,-350.25 72.5,-350.25"/>
</g>
</g>
</svg>
