<?xml version="1.0" encoding="UTF-8" standalone="no"?>
<!DOCTYPE svg PUBLIC "-//W3C//DTD SVG 1.1//EN"
 "http://www.w3.org/Graphics/SVG/1.1/DTD/svg11.dtd">
<!-- Generated by graphviz version 2.47.1 (20210417.1919)
 -->
<!-- Title: PlayerStatsScript Pages: 1 -->
<svg width="153pt" height="393pt"
 viewBox="0.00 0.00 153.00 393.00" xmlns="http://www.w3.org/2000/svg" xmlns:xlink="http://www.w3.org/1999/xlink">
<g id="graph0" class="graph" transform="scale(1 1) rotate(0) translate(4 389)">
<title>PlayerStatsScript</title>
<polygon fill="white" stroke="transparent" points="-4,4 -4,-389 149,-389 149,4 -4,4"/>
<!-- Node1 -->
<g id="node1" class="node">
<title>Node1</title>
<g id="a_node1"><a xlink:title="saves the character the player is and the deck it has">
<polygon fill="#bfbfbf" stroke="black" points="0,-0.5 0,-284.5 145,-284.5 145,-0.5 0,-0.5"/>
<text text-anchor="middle" x="72.5" y="-270.9" font-family="Helvetica,sans-Serif" font-size="12.00">PlayerStatsScript</text>
<polyline fill="none" stroke="black" points="0,-263.5 145,-263.5 "/>
<text text-anchor="start" x="8" y="-249.9" font-family="Helvetica,sans-Serif" font-size="12.00">+ Character</text>
<text text-anchor="start" x="8" y="-236.9" font-family="Helvetica,sans-Serif" font-size="12.00">+ IsEliminated</text>
<text text-anchor="start" x="8" y="-223.9" font-family="Helvetica,sans-Serif" font-size="12.00">+ Deck</text>
<text text-anchor="start" x="8" y="-210.9" font-family="Helvetica,sans-Serif" font-size="12.00">+ ToGuessList</text>
<text text-anchor="start" x="8" y="-197.9" font-family="Helvetica,sans-Serif" font-size="12.00">&#45; character</text>
<text text-anchor="start" x="8" y="-184.9" font-family="Helvetica,sans-Serif" font-size="12.00">&#45; deck</text>
<text text-anchor="start" x="8" y="-171.9" font-family="Helvetica,sans-Serif" font-size="12.00">&#45; isEliminated</text>
<text text-anchor="start" x="8" y="-158.9" font-family="Helvetica,sans-Serif" font-size="12.00">&#45; toGuessList</text>
<text text-anchor="start" x="8" y="-145.9" font-family="Helvetica,sans-Serif" font-size="12.00">&#45; notebook</text>
<polyline fill="none" stroke="black" points="0,-138.5 145,-138.5 "/>
<text text-anchor="start" x="8" y="-124.9" font-family="Helvetica,sans-Serif" font-size="12.00">+ InitializeNotebook()</text>
<text text-anchor="start" x="8" y="-111.9" font-family="Helvetica,sans-Serif" font-size="12.00">+ GetNotebookValue()</text>
<text text-anchor="start" x="8" y="-98.9" font-family="Helvetica,sans-Serif" font-size="12.00">+ SetNotebookValue()</text>
<text text-anchor="start" x="8" y="-85.9" font-family="Helvetica,sans-Serif" font-size="12.00">+ SetCharacter()</text>
<text text-anchor="start" x="8" y="-72.9" font-family="Helvetica,sans-Serif" font-size="12.00">+ AddCard()</text>
<text text-anchor="start" x="8" y="-59.9" font-family="Helvetica,sans-Serif" font-size="12.00">+ AddCard()</text>
<text text-anchor="start" x="8" y="-46.9" font-family="Helvetica,sans-Serif" font-size="12.00">+ FindCard()</text>
<text text-anchor="start" x="8" y="-33.9" font-family="Helvetica,sans-Serif" font-size="12.00">+ FindCard()</text>
<text text-anchor="start" x="8" y="-20.9" font-family="Helvetica,sans-Serif" font-size="12.00">+ InititaliseToGuessList()</text>
<text text-anchor="start" x="8" y="-7.9" font-family="Helvetica,sans-Serif" font-size="12.00">+ RemoveToGessCard()</text>
</a>
</g>
</g>
<!-- Node2 -->
<g id="node2" class="node">
<title>Node2</title>
<g id="a_node2"><a xlink:title=" ">
<polygon fill="white" stroke="#bfbfbf" points="23.5,-321.5 23.5,-384.5 121.5,-384.5 121.5,-321.5 23.5,-321.5"/>
<text text-anchor="middle" x="72.5" y="-370.9" font-family="Helvetica,sans-Serif" font-size="12.00">MonoBehaviour</text>
<polyline fill="none" stroke="#bfbfbf" points="23.5,-363.5 121.5,-363.5 "/>
<text text-anchor="middle" x="72.5" y="-349.9" font-family="Helvetica,sans-Serif" font-size="12.00"> </text>
<polyline fill="none" stroke="#bfbfbf" points="23.5,-342.5 121.5,-342.5 "/>
<text text-anchor="middle" x="72.5" y="-328.9" font-family="Helvetica,sans-Serif" font-size="12.00"> </text>
</a>
</g>
</g>
<!-- Node2&#45;&gt;Node1 -->
<g id="edge1" class="edge">
<title>Node2&#45;&gt;Node1</title>
<path fill="none" stroke="midnightblue" d="M72.5,-311.07C72.5,-302.95 72.5,-294.01 72.5,-284.61"/>
<polygon fill="none" stroke="midnightblue" points="69,-311.24 72.5,-321.24 76,-311.24 69,-311.24"/>
</g>
</g>
</svg>
