<?xml version="1.0" encoding="UTF-8" standalone="no"?>
<!DOCTYPE svg PUBLIC "-//W3C//DTD SVG 1.1//EN"
 "http://www.w3.org/Graphics/SVG/1.1/DTD/svg11.dtd">
<!-- Generated by graphviz version 2.47.1 (20210417.1919)
 -->
<!-- Title: RoundManager.MakeAccusation Pages: 1 -->
<svg width="670pt" height="190pt"
 viewBox="0.00 0.00 670.00 190.00" xmlns="http://www.w3.org/2000/svg" xmlns:xlink="http://www.w3.org/1999/xlink">
<g id="graph0" class="graph" transform="scale(1 1) rotate(0) translate(4 186)">
<title>RoundManager.MakeAccusation</title>
<polygon fill="white" stroke="transparent" points="-4,4 -4,-186 666,-186 666,4 -4,4"/>
<!-- Node1 -->
<g id="node1" class="node">
<title>Node1</title>
<g id="a_node1"><a xlink:title="to have the current player to make an accusation eliminates the player if it is wrong wins the game i...">
<polygon fill="#bfbfbf" stroke="black" points="0,-80.5 0,-101.5 187,-101.5 187,-80.5 0,-80.5"/>
<text text-anchor="middle" x="93.5" y="-87.9" font-family="Helvetica,sans-Serif" font-size="12.00">RoundManager.MakeAccusation</text>
</a>
</g>
</g>
<!-- Node2 -->
<g id="node2" class="node">
<title>Node2</title>
<g id="a_node2"><a xlink:href="class_u_i_handler.html#a2db6b92acd51a72b431b3eacb3884ddd" target="_top" xlink:title="Displays a screen when a player is eliminated">
<polygon fill="white" stroke="black" points="234.5,-160.5 234.5,-181.5 432.5,-181.5 432.5,-160.5 234.5,-160.5"/>
<text text-anchor="middle" x="333.5" y="-167.9" font-family="Helvetica,sans-Serif" font-size="12.00">UIHandler.DisplayPlayerEliminated</text>
</a>
</g>
</g>
<!-- Node1&#45;&gt;Node2 -->
<g id="edge1" class="edge">
<title>Node1&#45;&gt;Node2</title>
<path fill="none" stroke="midnightblue" d="M113.04,-101.52C137.49,-114.94 182.18,-137.98 223,-151 231.65,-153.76 240.82,-156.18 250.02,-158.29"/>
<polygon fill="midnightblue" stroke="midnightblue" points="249.48,-161.76 259.99,-160.47 250.97,-154.92 249.48,-161.76"/>
</g>
<!-- Node3 -->
<g id="node3" class="node">
<title>Node3</title>
<g id="a_node3"><a xlink:href="class_player_master_controller.html#a0dae7cbe3c8b1c8bcb5ca694d9815836" target="_top" xlink:title="eliminate player">
<polygon fill="white" stroke="black" points="223,-120.5 223,-141.5 444,-141.5 444,-120.5 223,-120.5"/>
<text text-anchor="middle" x="333.5" y="-127.9" font-family="Helvetica,sans-Serif" font-size="12.00">PlayerMasterController.EliminatePlayer</text>
</a>
</g>
</g>
<!-- Node1&#45;&gt;Node3 -->
<g id="edge2" class="edge">
<title>Node1&#45;&gt;Node3</title>
<path fill="none" stroke="midnightblue" d="M157.03,-101.51C188.61,-106.82 227.09,-113.28 259.97,-118.81"/>
<polygon fill="midnightblue" stroke="midnightblue" points="259.53,-122.29 269.97,-120.49 260.69,-115.38 259.53,-122.29"/>
</g>
<!-- Node4 -->
<g id="node4" class="node">
<title>Node4</title>
<g id="a_node4"><a xlink:href="class_round_manager.html#aab3f49a5e05508a8e023a497e763c1c8" target="_top" xlink:title="Gets the player controller for the current player">
<polygon fill="white" stroke="black" points="238.5,-80.5 238.5,-101.5 428.5,-101.5 428.5,-80.5 238.5,-80.5"/>
<text text-anchor="middle" x="333.5" y="-87.9" font-family="Helvetica,sans-Serif" font-size="12.00">RoundManager.GetCurrentPlayer</text>
</a>
</g>
</g>
<!-- Node1&#45;&gt;Node4 -->
<g id="edge3" class="edge">
<title>Node1&#45;&gt;Node4</title>
<path fill="none" stroke="midnightblue" d="M187.2,-91C200.62,-91 214.5,-91 228.13,-91"/>
<polygon fill="midnightblue" stroke="midnightblue" points="228.49,-94.5 238.49,-91 228.49,-87.5 228.49,-94.5"/>
</g>
<!-- Node6 -->
<g id="node6" class="node">
<title>Node6</title>
<g id="a_node6"><a xlink:href="class_enum_to_string.html#a078a1fb16a0030544fac1b96a90b6b83" target="_top" xlink:title="Get a string value from a valid enum">
<polygon fill="white" stroke="black" points="233,-40.5 233,-61.5 434,-61.5 434,-40.5 233,-40.5"/>
<text text-anchor="middle" x="333.5" y="-47.9" font-family="Helvetica,sans-Serif" font-size="12.00">EnumToString.GetStringFromEnum</text>
</a>
</g>
</g>
<!-- Node1&#45;&gt;Node6 -->
<g id="edge5" class="edge">
<title>Node1&#45;&gt;Node6</title>
<path fill="none" stroke="midnightblue" d="M157.03,-80.49C188.61,-75.18 227.09,-68.72 259.97,-63.19"/>
<polygon fill="midnightblue" stroke="midnightblue" points="260.69,-66.62 269.97,-61.51 259.53,-59.71 260.69,-66.62"/>
</g>
<!-- Node7 -->
<g id="node7" class="node">
<title>Node7</title>
<g id="a_node7"><a xlink:href="class_card_manager.html#a3aa02d8bc476530b2e8e18019aa8a00e" target="_top" xlink:title="Check if the cards passed matches the answer">
<polygon fill="white" stroke="black" points="248,-0.5 248,-21.5 419,-21.5 419,-0.5 248,-0.5"/>
<text text-anchor="middle" x="333.5" y="-7.9" font-family="Helvetica,sans-Serif" font-size="12.00">CardManager.IsMatchAnswer</text>
</a>
</g>
</g>
<!-- Node1&#45;&gt;Node7 -->
<g id="edge6" class="edge">
<title>Node1&#45;&gt;Node7</title>
<path fill="none" stroke="midnightblue" d="M113.04,-80.48C137.49,-67.06 182.18,-44.02 223,-31 231.65,-28.24 240.82,-25.82 250.02,-23.71"/>
<polygon fill="midnightblue" stroke="midnightblue" points="250.97,-27.08 259.99,-21.53 249.48,-20.24 250.97,-27.08"/>
</g>
<!-- Node5 -->
<g id="node5" class="node">
<title>Node5</title>
<g id="a_node5"><a xlink:href="class_turn_controller.html#af16e42b7e61c5a999291327e2e556caa" target="_top" xlink:title=" ">
<polygon fill="white" stroke="black" points="480,-80.5 480,-101.5 662,-101.5 662,-80.5 480,-80.5"/>
<text text-anchor="middle" x="571" y="-87.9" font-family="Helvetica,sans-Serif" font-size="12.00">TurnController.GetCurrentPlayer</text>
</a>
</g>
</g>
<!-- Node4&#45;&gt;Node5 -->
<g id="edge4" class="edge">
<title>Node4&#45;&gt;Node5</title>
<path fill="none" stroke="midnightblue" d="M428.59,-91C442.07,-91 455.97,-91 469.57,-91"/>
<polygon fill="midnightblue" stroke="midnightblue" points="469.89,-94.5 479.89,-91 469.89,-87.5 469.89,-94.5"/>
</g>
<!-- Node8 -->
<g id="node8" class="node">
<title>Node8</title>
<g id="a_node8"><a xlink:href="class_card.html#a094a5e7ea98cc156ac64e578a987be85" target="_top" xlink:title=" ">
<polygon fill="white" stroke="black" points="513,-0.5 513,-21.5 629,-21.5 629,-0.5 513,-0.5"/>
<text text-anchor="middle" x="571" y="-7.9" font-family="Helvetica,sans-Serif" font-size="12.00">Card.GetCardType</text>
</a>
</g>
</g>
<!-- Node7&#45;&gt;Node8 -->
<g id="edge7" class="edge">
<title>Node7&#45;&gt;Node8</title>
<path fill="none" stroke="midnightblue" d="M419.19,-11C446.66,-11 476.75,-11 502.77,-11"/>
<polygon fill="midnightblue" stroke="midnightblue" points="502.91,-14.5 512.91,-11 502.91,-7.5 502.91,-14.5"/>
</g>
</g>
</svg>
