<?xml version="1.0" encoding="UTF-8" standalone="no"?>
<!DOCTYPE svg PUBLIC "-//W3C//DTD SVG 1.1//EN"
 "http://www.w3.org/Graphics/SVG/1.1/DTD/svg11.dtd">
<!-- Generated by graphviz version 2.47.1 (20210417.1919)
 -->
<!-- Title: PlayerMasterController.IsMoving Pages: 1 -->
<svg width="843pt" height="30pt"
 viewBox="0.00 0.00 843.00 30.00" xmlns="http://www.w3.org/2000/svg" xmlns:xlink="http://www.w3.org/1999/xlink">
<g id="graph0" class="graph" transform="scale(1 1) rotate(0) translate(4 26)">
<title>PlayerMasterController.IsMoving</title>
<polygon fill="white" stroke="transparent" points="-4,4 -4,-26 839,-26 839,4 -4,4"/>
<!-- Node1 -->
<g id="node1" class="node">
<title>Node1</title>
<g id="a_node1"><a xlink:title="check if the player token is still moving. returns true if the token is moving to a new tile or if th...">
<polygon fill="#bfbfbf" stroke="black" points="650,-0.5 650,-21.5 835,-21.5 835,-0.5 650,-0.5"/>
<text text-anchor="middle" x="742.5" y="-7.9" font-family="Helvetica,sans-Serif" font-size="12.00">PlayerMasterController.IsMoving</text>
</a>
</g>
</g>
<!-- Node2 -->
<g id="node2" class="node">
<title>Node2</title>
<g id="a_node2"><a xlink:href="class_a_i_controller_script.html#a8b57daca04e528b57a612de3b285b4c2" target="_top" xlink:title="check if the player token is still moving">
<polygon fill="white" stroke="black" points="425,-0.5 425,-21.5 614,-21.5 614,-0.5 425,-0.5"/>
<text text-anchor="middle" x="519.5" y="-7.9" font-family="Helvetica,sans-Serif" font-size="12.00">AIControllerScript.IsTokenMoving</text>
</a>
</g>
</g>
<!-- Node1&#45;&gt;Node2 -->
<g id="edge1" class="edge">
<title>Node1&#45;&gt;Node2</title>
<path fill="none" stroke="midnightblue" d="M639.46,-11C631.02,-11 622.52,-11 614.16,-11"/>
<polygon fill="midnightblue" stroke="midnightblue" points="639.7,-14.5 649.7,-11 639.7,-7.5 639.7,-14.5"/>
</g>
<!-- Node3 -->
<g id="node3" class="node">
<title>Node3</title>
<g id="a_node3"><a xlink:href="class_a_i_controller_script.html#ac31d9b8dbb75696b181eff1fbef41b97" target="_top" xlink:title="dictates what the AI will do depending on what mode it is in">
<polygon fill="white" stroke="black" points="215,-0.5 215,-21.5 389,-21.5 389,-0.5 215,-0.5"/>
<text text-anchor="middle" x="302" y="-7.9" font-family="Helvetica,sans-Serif" font-size="12.00">AIControllerScript.AIBehaviour</text>
</a>
</g>
</g>
<!-- Node2&#45;&gt;Node3 -->
<g id="edge2" class="edge">
<title>Node2&#45;&gt;Node3</title>
<path fill="none" stroke="midnightblue" d="M414.81,-11C406.18,-11 397.51,-11 389.03,-11"/>
<polygon fill="midnightblue" stroke="midnightblue" points="414.92,-14.5 424.92,-11 414.92,-7.5 414.92,-14.5"/>
</g>
<!-- Node4 -->
<g id="node4" class="node">
<title>Node4</title>
<g id="a_node4"><a xlink:href="class_a_i_controller_script.html#a74dc0e720fafceb873d3b19c12f68d58" target="_top" xlink:title=" ">
<polygon fill="white" stroke="black" points="0,-0.5 0,-21.5 179,-21.5 179,-0.5 0,-0.5"/>
<text text-anchor="middle" x="89.5" y="-7.9" font-family="Helvetica,sans-Serif" font-size="12.00">AIControllerScript.FixedUpdate</text>
</a>
</g>
</g>
<!-- Node3&#45;&gt;Node4 -->
<g id="edge3" class="edge">
<title>Node3&#45;&gt;Node4</title>
<path fill="none" stroke="midnightblue" d="M204.57,-11C196.15,-11 187.67,-11 179.32,-11"/>
<polygon fill="midnightblue" stroke="midnightblue" points="204.77,-14.5 214.77,-11 204.77,-7.5 204.77,-14.5"/>
</g>
</g>
</svg>
