<?xml version="1.0" encoding="UTF-8" standalone="no"?>
<!DOCTYPE svg PUBLIC "-//W3C//DTD SVG 1.1//EN"
 "http://www.w3.org/Graphics/SVG/1.1/DTD/svg11.dtd">
<!-- Generated by graphviz version 2.47.1 (20210417.1919)
 -->
<!-- Title: Dice.RollDice Pages: 1 -->
<!--zoomable 150 -->
<svg id="main" version="1.1" xmlns="http://www.w3.org/2000/svg" xmlns:xlink="http://www.w3.org/1999/xlink" xml:space="preserve" onload="init(evt)">
<style type="text/css"><![CDATA[
.edge:hover path { stroke: red; }
.edge:hover polygon { stroke: red; fill: red; }
]]></style>
<script type="text/javascript"><![CDATA[
var edges = document.getElementsByTagName('g');
if (edges && edges.length) {
  for (var i=0;i<edges.length;i++) {
    if (edges[i].id.substr(0,4)=='edge') {
      edges[i].setAttribute('class','edge');
    }
  }
}
]]></script>
        <defs>
                <circle id="rim" cx="0" cy="0" r="7"/>
                <circle id="rim2" cx="0" cy="0" r="3.5"/>
                <g id="zoomPlus">
                        <use xlink:href="#rim" fill="#404040">
                                <set attributeName="fill" to="#808080" begin="zoomplus.mouseover" end="zoomplus.mouseout"/>
                        </use>
                        <path d="M-4,0h8M0,-4v8" fill="none" stroke="white" stroke-width="1.5" pointer-events="none"/>
                </g>
                <g id="zoomMin">
                        <use xlink:href="#rim" fill="#404040">
                                <set attributeName="fill" to="#808080" begin="zoomminus.mouseover" end="zoomminus.mouseout"/>
                        </use>
                        <path d="M-4,0h8" fill="none" stroke="white" stroke-width="1.5" pointer-events="none"/>
                </g>
                <g id="dirArrow">
                        <path fill="none" stroke="white" stroke-width="1.5" d="M0,-3.0v7 M-2.5,-0.5L0,-3.0L2.5,-0.5"/>
                </g>
               <g id="resetDef">
                       <use xlink:href="#rim2" fill="#404040">
                               <set attributeName="fill" to="#808080" begin="reset.mouseover" end="reset.mouseout"/>
                       </use>
               </g>
        </defs>

<script type="text/javascript">
var viewWidth = 1656;
var viewHeight = 150;
var sectionId = 'dynsection-14';
</script>
<script xlink:href="svgpan.js"/>
<svg id="graph" class="graph">
<g id="viewport">
<title>Dice.RollDice</title>
<polygon fill="white" stroke="transparent" points="-4,4 -4,-146 1652,-146 1652,4 -4,4"/>
<!-- Node1 -->
<g id="node1" class="node">
<title>Node1</title>
<g id="a_node1"><a xlink:title="Roll the Dice">
<polygon fill="#bfbfbf" stroke="black" points="1559,-70.5 1559,-91.5 1648,-91.5 1648,-70.5 1559,-70.5"/>
<text text-anchor="middle" x="1603.5" y="-77.9" font-family="Helvetica,sans-Serif" font-size="12.00">Dice.RollDice</text>
</a>
</g>
</g>
<!-- Node2 -->
<g id="node2" class="node">
<title>Node2</title>
<g id="a_node2"><a xlink:href="class_player_movement_test_script.html#aaa8efc18953ff0b4e286c66962221a8f" target="_top" xlink:title=" ">
<polygon fill="white" stroke="black" points="1319,-115.5 1319,-136.5 1523,-136.5 1523,-115.5 1319,-115.5"/>
<text text-anchor="middle" x="1421" y="-122.9" font-family="Helvetica,sans-Serif" font-size="12.00">PlayerMovementTestScript.RollDice</text>
</a>
</g>
</g>
<!-- Node1&#45;&gt;Node2 -->
<g id="edge1" class="edge">
<title>Node1&#45;&gt;Node2</title>
<path fill="none" stroke="midnightblue" d="M1550.92,-94.01C1541.62,-96.34 1532.03,-98.75 1523,-101 1503.9,-105.77 1482.75,-111.01 1464.76,-115.45"/>
<polygon fill="midnightblue" stroke="midnightblue" points="1551.99,-97.35 1560.83,-91.51 1550.28,-90.56 1551.99,-97.35"/>
</g>
<!-- Node4 -->
<g id="node4" class="node">
<title>Node4</title>
<g id="a_node4"><a xlink:href="class_round_manager.html#ab795c17242b95ab2cef508da5daa2593" target="_top" xlink:title="Rolls dice, will not roll if the player has rolled aready. Pass true to forcfully roll it">
<polygon fill="white" stroke="black" points="1349,-70.5 1349,-91.5 1493,-91.5 1493,-70.5 1349,-70.5"/>
<text text-anchor="middle" x="1421" y="-77.9" font-family="Helvetica,sans-Serif" font-size="12.00">RoundManager.RollDice</text>
</a>
</g>
</g>
<!-- Node1&#45;&gt;Node4 -->
<g id="edge3" class="edge">
<title>Node1&#45;&gt;Node4</title>
<path fill="none" stroke="midnightblue" d="M1548.8,-81C1531.32,-81 1511.64,-81 1493.1,-81"/>
<polygon fill="midnightblue" stroke="midnightblue" points="1548.81,-84.5 1558.81,-81 1548.81,-77.5 1548.81,-84.5"/>
</g>
<!-- Node15 -->
<g id="node15" class="node">
<title>Node15</title>
<g id="a_node15"><a xlink:href="class_anson_test_script.html#a88d84c041cb91d2f739270581d59d7e9" target="_top" xlink:title=" ">
<polygon fill="white" stroke="black" points="1349,-20.5 1349,-41.5 1493,-41.5 1493,-20.5 1349,-20.5"/>
<text text-anchor="middle" x="1421" y="-27.9" font-family="Helvetica,sans-Serif" font-size="12.00">AnsonTestScript.RollDie</text>
</a>
</g>
</g>
<!-- Node1&#45;&gt;Node15 -->
<g id="edge15" class="edge">
<title>Node1&#45;&gt;Node15</title>
<path fill="none" stroke="midnightblue" d="M1554.5,-67.7C1524.89,-59.5 1487.44,-49.13 1459.91,-41.5"/>
<polygon fill="midnightblue" stroke="midnightblue" points="1553.65,-71.1 1564.22,-70.4 1555.52,-64.35 1553.65,-71.1"/>
</g>
<!-- Node3 -->
<g id="node3" class="node">
<title>Node3</title>
<g id="a_node3"><a xlink:href="class_player_movement_test_script.html#a36e775e38982d88a818317723d2a04c2" target="_top" xlink:title=" ">
<polygon fill="white" stroke="black" points="1079,-120.5 1079,-141.5 1283,-141.5 1283,-120.5 1079,-120.5"/>
<text text-anchor="middle" x="1181" y="-127.9" font-family="Helvetica,sans-Serif" font-size="12.00">PlayerMovementTestScript.RollDice</text>
</a>
</g>
</g>
<!-- Node2&#45;&gt;Node3 -->
<g id="edge2" class="edge">
<title>Node2&#45;&gt;Node3</title>
<path fill="none" stroke="midnightblue" d="M1308.47,-128.34C1300.04,-128.52 1291.55,-128.7 1283.19,-128.87"/>
<polygon fill="midnightblue" stroke="midnightblue" points="1308.8,-131.84 1318.72,-128.13 1308.65,-124.84 1308.8,-131.84"/>
</g>
<!-- Node5 -->
<g id="node5" class="node">
<title>Node5</title>
<g id="a_node5"><a xlink:href="class_round_manager.html#a8d52738f26bc5b5eea98f8e3dd213744" target="_top" xlink:title="roll dice after a delay time, used for free roll tile">
<polygon fill="white" stroke="black" points="1106.5,-80.5 1106.5,-101.5 1255.5,-101.5 1255.5,-80.5 1106.5,-80.5"/>
<text text-anchor="middle" x="1181" y="-87.9" font-family="Helvetica,sans-Serif" font-size="12.00">RoundManager.DelayRoll</text>
</a>
</g>
</g>
<!-- Node4&#45;&gt;Node5 -->
<g id="edge4" class="edge">
<title>Node4&#45;&gt;Node5</title>
<path fill="none" stroke="midnightblue" d="M1338.74,-84.41C1311.79,-85.55 1281.95,-86.8 1255.61,-87.91"/>
<polygon fill="midnightblue" stroke="midnightblue" points="1339.07,-87.9 1348.91,-83.99 1338.78,-80.91 1339.07,-87.9"/>
</g>
<!-- Node12 -->
<g id="node12" class="node">
<title>Node12</title>
<g id="a_node12"><a xlink:href="class_user_controller.html#aee97f82bdda647a5e3761666a3d46552" target="_top" xlink:title="Rolls the dice">
<polygon fill="white" stroke="black" points="1111.5,-40.5 1111.5,-61.5 1250.5,-61.5 1250.5,-40.5 1111.5,-40.5"/>
<text text-anchor="middle" x="1181" y="-47.9" font-family="Helvetica,sans-Serif" font-size="12.00">UserController.RollDice</text>
</a>
</g>
</g>
<!-- Node4&#45;&gt;Node12 -->
<g id="edge11" class="edge">
<title>Node4&#45;&gt;Node12</title>
<path fill="none" stroke="midnightblue" d="M1338.91,-70.78C1310.22,-67.16 1278.24,-63.13 1250.68,-59.66"/>
<polygon fill="midnightblue" stroke="midnightblue" points="1338.56,-74.26 1348.91,-72.04 1339.43,-67.32 1338.56,-74.26"/>
</g>
<!-- Node6 -->
<g id="node6" class="node">
<title>Node6</title>
<g id="a_node6"><a xlink:href="class_round_manager.html#adfd4f66436e06c12a25c9236b629f369" target="_top" xlink:title="moving the current player to the selected tile">
<polygon fill="white" stroke="black" points="882,-80.5 882,-101.5 1043,-101.5 1043,-80.5 882,-80.5"/>
<text text-anchor="middle" x="962.5" y="-87.9" font-family="Helvetica,sans-Serif" font-size="12.00">RoundManager.MovePlayer</text>
</a>
</g>
</g>
<!-- Node5&#45;&gt;Node6 -->
<g id="edge5" class="edge">
<title>Node5&#45;&gt;Node6</title>
<path fill="none" stroke="midnightblue" d="M1096.25,-91C1078.82,-91 1060.48,-91 1043.2,-91"/>
<polygon fill="midnightblue" stroke="midnightblue" points="1096.4,-94.5 1106.4,-91 1096.4,-87.5 1096.4,-94.5"/>
</g>
<!-- Node7 -->
<g id="node7" class="node">
<title>Node7</title>
<g id="a_node7"><a xlink:href="class_user_controller.html#af896aefe0262e0d8f07fa5f18592877d" target="_top" xlink:title="Selects a tile for player movement">
<polygon fill="white" stroke="black" points="695.5,-80.5 695.5,-101.5 841.5,-101.5 841.5,-80.5 695.5,-80.5"/>
<text text-anchor="middle" x="768.5" y="-87.9" font-family="Helvetica,sans-Serif" font-size="12.00">UserController.SelectTile</text>
</a>
</g>
</g>
<!-- Node6&#45;&gt;Node7 -->
<g id="edge6" class="edge">
<title>Node6&#45;&gt;Node7</title>
<path fill="none" stroke="midnightblue" d="M871.71,-91C861.63,-91 851.46,-91 841.65,-91"/>
<polygon fill="midnightblue" stroke="midnightblue" points="871.74,-94.5 881.74,-91 871.74,-87.5 871.74,-94.5"/>
</g>
<!-- Node8 -->
<g id="node8" class="node">
<title>Node8</title>
<g id="a_node8"><a xlink:href="class_a_i_controller_script.html#af04897fa0ae4ed5e472dea79bce8d7df" target="_top" xlink:title="Decides where the AI should move to this should match the flow chart of the AI">
<polygon fill="white" stroke="black" points="435,-119.5 435,-140.5 645,-140.5 645,-119.5 435,-119.5"/>
<text text-anchor="middle" x="540" y="-126.9" font-family="Helvetica,sans-Serif" font-size="12.00">AIControllerScript.Decide_Movement</text>
</a>
</g>
</g>
<!-- Node7&#45;&gt;Node8 -->
<g id="edge7" class="edge">
<title>Node7&#45;&gt;Node8</title>
<path fill="none" stroke="midnightblue" d="M696.43,-103.24C666.16,-108.45 631.2,-114.47 602.1,-119.48"/>
<polygon fill="midnightblue" stroke="midnightblue" points="697.24,-106.65 706.5,-101.5 696.06,-99.75 697.24,-106.65"/>
</g>
<!-- Node11 -->
<g id="node11" class="node">
<title>Node11</title>
<g id="a_node11"><a xlink:href="class_user_input_control_script.html#a13be570929e27dad6d3d452ccd5f52eb" target="_top" xlink:title="move player token to the tile the cursor is on">
<polygon fill="white" stroke="black" points="425,-79.5 425,-100.5 655,-100.5 655,-79.5 425,-79.5"/>
<text text-anchor="middle" x="540" y="-86.9" font-family="Helvetica,sans-Serif" font-size="12.00">UserInputControlScript.MovePlayerToken</text>
</a>
</g>
</g>
<!-- Node7&#45;&gt;Node11 -->
<g id="edge10" class="edge">
<title>Node7&#45;&gt;Node11</title>
<path fill="none" stroke="midnightblue" d="M685.15,-90.64C675.37,-90.59 665.25,-90.55 655.12,-90.5"/>
<polygon fill="midnightblue" stroke="midnightblue" points="685.2,-94.14 695.21,-90.68 685.23,-87.14 685.2,-94.14"/>
</g>
<!-- Node9 -->
<g id="node9" class="node">
<title>Node9</title>
<g id="a_node9"><a xlink:href="class_a_i_controller_script.html#ac31d9b8dbb75696b181eff1fbef41b97" target="_top" xlink:title="dictates what the AI will do depending on what mode it is in">
<polygon fill="white" stroke="black" points="215,-79.5 215,-100.5 389,-100.5 389,-79.5 215,-79.5"/>
<text text-anchor="middle" x="302" y="-86.9" font-family="Helvetica,sans-Serif" font-size="12.00">AIControllerScript.AIBehaviour</text>
</a>
</g>
</g>
<!-- Node8&#45;&gt;Node9 -->
<g id="edge8" class="edge">
<title>Node8&#45;&gt;Node9</title>
<path fill="none" stroke="midnightblue" d="M467.07,-117.81C434.47,-112.28 396.31,-105.82 365,-100.51"/>
<polygon fill="midnightblue" stroke="midnightblue" points="466.55,-121.27 476.99,-119.49 467.72,-114.37 466.55,-121.27"/>
</g>
<!-- Node10 -->
<g id="node10" class="node">
<title>Node10</title>
<g id="a_node10"><a xlink:href="class_a_i_controller_script.html#a74dc0e720fafceb873d3b19c12f68d58" target="_top" xlink:title=" ">
<polygon fill="white" stroke="black" points="0,-79.5 0,-100.5 179,-100.5 179,-79.5 0,-79.5"/>
<text text-anchor="middle" x="89.5" y="-86.9" font-family="Helvetica,sans-Serif" font-size="12.00">AIControllerScript.FixedUpdate</text>
</a>
</g>
</g>
<!-- Node9&#45;&gt;Node10 -->
<g id="edge9" class="edge">
<title>Node9&#45;&gt;Node10</title>
<path fill="none" stroke="midnightblue" d="M204.57,-90C196.15,-90 187.67,-90 179.32,-90"/>
<polygon fill="midnightblue" stroke="midnightblue" points="204.77,-93.5 214.77,-90 204.77,-86.5 204.77,-93.5"/>
</g>
<!-- Node13 -->
<g id="node13" class="node">
<title>Node13</title>
<g id="a_node13"><a xlink:href="class_a_i_controller_script.html#a1584ffc08f2ea88236ad6df47319636b" target="_top" xlink:title="have AI to roll">
<polygon fill="white" stroke="black" points="691,-40.5 691,-61.5 846,-61.5 846,-40.5 691,-40.5"/>
<text text-anchor="middle" x="768.5" y="-47.9" font-family="Helvetica,sans-Serif" font-size="12.00">AIControllerScript.RollDice</text>
</a>
</g>
</g>
<!-- Node12&#45;&gt;Node13 -->
<g id="edge12" class="edge">
<title>Node12&#45;&gt;Node13</title>
<path fill="none" stroke="midnightblue" d="M1101.17,-51C1027.71,-51 918.86,-51 846.12,-51"/>
<polygon fill="midnightblue" stroke="midnightblue" points="1101.29,-54.5 1111.29,-51 1101.29,-47.5 1101.29,-54.5"/>
</g>
<!-- Node14 -->
<g id="node14" class="node">
<title>Node14</title>
<g id="a_node14"><a xlink:href="class_u_i_handler.html#ac40571820fefd3233236883c01522fa1" target="_top" xlink:title="Rolls dice when the button is pressed">
<polygon fill="white" stroke="black" points="888.5,-1.5 888.5,-22.5 1036.5,-22.5 1036.5,-1.5 888.5,-1.5"/>
<text text-anchor="middle" x="962.5" y="-8.9" font-family="Helvetica,sans-Serif" font-size="12.00">UIHandler.RollDiceButton</text>
</a>
</g>
</g>
<!-- Node12&#45;&gt;Node14 -->
<g id="edge14" class="edge">
<title>Node12&#45;&gt;Node14</title>
<path fill="none" stroke="midnightblue" d="M1111.69,-38.7C1082.84,-33.5 1049.59,-27.51 1021.91,-22.52"/>
<polygon fill="midnightblue" stroke="midnightblue" points="1111.24,-42.17 1121.7,-40.5 1112.48,-35.28 1111.24,-42.17"/>
</g>
<!-- Node13&#45;&gt;Node9 -->
<g id="edge13" class="edge">
<title>Node13&#45;&gt;Node9</title>
<path fill="none" stroke="midnightblue" d="M680.78,-53.25C611.42,-55.66 511.75,-60.51 425,-70 403.45,-72.36 379.92,-75.97 359.32,-79.48"/>
<polygon fill="midnightblue" stroke="midnightblue" points="680.91,-56.74 690.79,-52.91 680.68,-49.75 680.91,-56.74"/>
</g>
<!-- Node16 -->
<g id="node16" class="node">
<title>Node16</title>
<g id="a_node16"><a xlink:href="class_anson_test_script.html#a89ed8bb63ce2a8c4631e2dc3d9301e38" target="_top" xlink:title=" ">
<polygon fill="white" stroke="black" points="1109,-0.5 1109,-21.5 1253,-21.5 1253,-0.5 1109,-0.5"/>
<text text-anchor="middle" x="1181" y="-7.9" font-family="Helvetica,sans-Serif" font-size="12.00">AnsonTestScript.RollDie</text>
</a>
</g>
</g>
<!-- Node15&#45;&gt;Node16 -->
<g id="edge16" class="edge">
<title>Node15&#45;&gt;Node16</title>
<path fill="none" stroke="midnightblue" d="M1338.82,-24.18C1310.99,-21.84 1280.09,-19.24 1253.13,-16.98"/>
<polygon fill="midnightblue" stroke="midnightblue" points="1338.66,-27.68 1348.91,-25.03 1339.24,-20.7 1338.66,-27.68"/>
</g>
</g>
</svg>
        <g id="navigator" transform="translate(0 0)" fill="#404254">
                <rect fill="#f2f5e9" fill-opacity="0.5" stroke="#606060" stroke-width=".5" x="0" y="0" width="60" height="60"/>
                <use id="zoomplus" xlink:href="#zoomPlus" x="17" y="9" onmousedown="handleZoom(evt,'in')"/>
                <use id="zoomminus" xlink:href="#zoomMin" x="42" y="9" onmousedown="handleZoom(evt,'out')"/>
                <use id="reset" xlink:href="#resetDef" x="30" y="36" onmousedown="handleReset()"/>
                <g id="arrowUp" xlink:href="#dirArrow" transform="translate(30 24)" onmousedown="handlePan(0,-1)">
                  <use xlink:href="#rim" fill="#404040">
                        <set attributeName="fill" to="#808080" begin="arrowUp.mouseover" end="arrowUp.mouseout"/>
                  </use>
                  <path fill="none" stroke="white" stroke-width="1.5" d="M0,-3.0v7 M-2.5,-0.5L0,-3.0L2.5,-0.5"/>
                </g>
                <g id="arrowRight" xlink:href="#dirArrow" transform="rotate(90) translate(36 -43)" onmousedown="handlePan(1,0)">
                  <use xlink:href="#rim" fill="#404040">
                        <set attributeName="fill" to="#808080" begin="arrowRight.mouseover" end="arrowRight.mouseout"/>
                  </use>
                  <path fill="none" stroke="white" stroke-width="1.5" d="M0,-3.0v7 M-2.5,-0.5L0,-3.0L2.5,-0.5"/>
                </g>
                <g id="arrowDown" xlink:href="#dirArrow" transform="rotate(180) translate(-30 -48)" onmousedown="handlePan(0,1)">
                  <use xlink:href="#rim" fill="#404040">
                        <set attributeName="fill" to="#808080" begin="arrowDown.mouseover" end="arrowDown.mouseout"/>
                  </use>
                  <path fill="none" stroke="white" stroke-width="1.5" d="M0,-3.0v7 M-2.5,-0.5L0,-3.0L2.5,-0.5"/>
                </g>
                <g id="arrowLeft" xlink:href="#dirArrow" transform="rotate(270) translate(-36 17)" onmousedown="handlePan(-1,0)">
                  <use xlink:href="#rim" fill="#404040">
                        <set attributeName="fill" to="#808080" begin="arrowLeft.mouseover" end="arrowLeft.mouseout"/>
                  </use>
                  <path fill="none" stroke="white" stroke-width="1.5" d="M0,-3.0v7 M-2.5,-0.5L0,-3.0L2.5,-0.5"/>
                </g>
        </g>
        <svg viewBox="0 0 15 15" width="100%" height="30px" preserveAspectRatio="xMaxYMin meet">
         <g id="arrow_out" transform="scale(0.3 0.3)">
          <a xlink:href="class_dice_a333ed52f536c0e7748fafe9422b179b5_icgraph_org.svg" target="_base">
           <rect id="button" ry="5" rx="5" y="6" x="6" height="38" width="38"
                fill="#f2f5e9" fill-opacity="0.5" stroke="#606060" stroke-width="1.0"/>
           <path id="arrow"
             d="M 11.500037,31.436501 C 11.940474,20.09759 22.043105,11.32322 32.158766,21.979434 L 37.068811,17.246167 C 37.068811,17.246167 37.088388,32 37.088388,32 L 22.160133,31.978069 C 22.160133,31.978069 26.997745,27.140456 26.997745,27.140456 C 18.528582,18.264221 13.291696,25.230495 11.500037,31.436501 z"
             style="fill:#404040;"/>
          </a>
         </g>
        </svg>
</svg>
