<?xml version="1.0" encoding="UTF-8" standalone="no"?>
<!DOCTYPE svg PUBLIC "-//W3C//DTD SVG 1.1//EN"
 "http://www.w3.org/Graphics/SVG/1.1/DTD/svg11.dtd">
<!-- Generated by graphviz version 2.47.1 (20210417.1919)
 -->
<!-- Title: GameManagerScript Pages: 1 -->
<svg width="157pt" height="302pt"
 viewBox="0.00 0.00 157.00 302.00" xmlns="http://www.w3.org/2000/svg" xmlns:xlink="http://www.w3.org/1999/xlink">
<g id="graph0" class="graph" transform="scale(1 1) rotate(0) translate(4 298)">
<title>GameManagerScript</title>
<polygon fill="white" stroke="transparent" points="-4,4 -4,-298 153,-298 153,4 -4,4"/>
<!-- Node1 -->
<g id="node1" class="node">
<title>Node1</title>
<g id="a_node1"><a xlink:title="This controls the starting and exiting the game loop">
<polygon fill="#bfbfbf" stroke="black" points="0,-0.5 0,-193.5 149,-193.5 149,-0.5 0,-0.5"/>
<text text-anchor="middle" x="74.5" y="-179.9" font-family="Helvetica,sans-Serif" font-size="12.00">GameManagerScript</text>
<polyline fill="none" stroke="black" points="0,-172.5 149,-172.5 "/>
<text text-anchor="start" x="8" y="-158.9" font-family="Helvetica,sans-Serif" font-size="12.00">&#45; playerMasterController</text>
<text text-anchor="start" x="8" y="-145.9" font-family="Helvetica,sans-Serif" font-size="12.00">&#45; boardManager</text>
<text text-anchor="start" x="8" y="-132.9" font-family="Helvetica,sans-Serif" font-size="12.00">&#45; dice</text>
<text text-anchor="start" x="8" y="-119.9" font-family="Helvetica,sans-Serif" font-size="12.00">&#45; turnController</text>
<text text-anchor="start" x="8" y="-106.9" font-family="Helvetica,sans-Serif" font-size="12.00">&#45; roundManager</text>
<text text-anchor="start" x="8" y="-93.9" font-family="Helvetica,sans-Serif" font-size="12.00">&#45; cardManager</text>
<text text-anchor="start" x="8" y="-80.9" font-family="Helvetica,sans-Serif" font-size="12.00">&#45; userController</text>
<text text-anchor="start" x="8" y="-67.9" font-family="Helvetica,sans-Serif" font-size="12.00">&#45; uIHandler</text>
<polyline fill="none" stroke="black" points="0,-60.5 149,-60.5 "/>
<text text-anchor="start" x="8" y="-46.9" font-family="Helvetica,sans-Serif" font-size="12.00">+ StartGame()</text>
<text text-anchor="start" x="8" y="-33.9" font-family="Helvetica,sans-Serif" font-size="12.00">+ LeaveToMenu()</text>
<text text-anchor="start" x="8" y="-20.9" font-family="Helvetica,sans-Serif" font-size="12.00">+ AssignAllComponents()</text>
<text text-anchor="start" x="8" y="-7.9" font-family="Helvetica,sans-Serif" font-size="12.00">&#45; Start()</text>
</a>
</g>
</g>
<!-- Node2 -->
<g id="node2" class="node">
<title>Node2</title>
<g id="a_node2"><a xlink:title=" ">
<polygon fill="white" stroke="#bfbfbf" points="25.5,-230.5 25.5,-293.5 123.5,-293.5 123.5,-230.5 25.5,-230.5"/>
<text text-anchor="middle" x="74.5" y="-279.9" font-family="Helvetica,sans-Serif" font-size="12.00">MonoBehaviour</text>
<polyline fill="none" stroke="#bfbfbf" points="25.5,-272.5 123.5,-272.5 "/>
<text text-anchor="middle" x="74.5" y="-258.9" font-family="Helvetica,sans-Serif" font-size="12.00"> </text>
<polyline fill="none" stroke="#bfbfbf" points="25.5,-251.5 123.5,-251.5 "/>
<text text-anchor="middle" x="74.5" y="-237.9" font-family="Helvetica,sans-Serif" font-size="12.00"> </text>
</a>
</g>
</g>
<!-- Node2&#45;&gt;Node1 -->
<g id="edge1" class="edge">
<title>Node2&#45;&gt;Node1</title>
<path fill="none" stroke="midnightblue" d="M74.5,-220.25C74.5,-211.92 74.5,-202.84 74.5,-193.5"/>
<polygon fill="none" stroke="midnightblue" points="71,-220.34 74.5,-230.34 78,-220.34 71,-220.34"/>
</g>
</g>
</svg>
