<?xml version="1.0" encoding="UTF-8" standalone="no"?>
<!DOCTYPE svg PUBLIC "-//W3C//DTD SVG 1.1//EN"
 "http://www.w3.org/Graphics/SVG/1.1/DTD/svg11.dtd">
<!-- Generated by graphviz version 2.47.1 (20210417.1919)
 -->
<!-- Title: PlayerMasterController.DisplayBoardMovableTiles Pages: 1 -->
<svg width="1199pt" height="150pt"
 viewBox="0.00 0.00 1199.00 150.00" xmlns="http://www.w3.org/2000/svg" xmlns:xlink="http://www.w3.org/1999/xlink">
<g id="graph0" class="graph" transform="scale(1 1) rotate(0) translate(4 146)">
<title>PlayerMasterController.DisplayBoardMovableTiles</title>
<polygon fill="white" stroke="transparent" points="-4,4 -4,-146 1195,-146 1195,4 -4,4"/>
<!-- Node1 -->
<g id="node1" class="node">
<title>Node1</title>
<g id="a_node1"><a xlink:title="calls the boardManager to display all the tiles that it can move to according to the range of it&#39;s mo...">
<polygon fill="#bfbfbf" stroke="black" points="0,-80.5 0,-101.5 279,-101.5 279,-80.5 0,-80.5"/>
<text text-anchor="middle" x="139.5" y="-87.9" font-family="Helvetica,sans-Serif" font-size="12.00">PlayerMasterController.DisplayBoardMovableTiles</text>
</a>
</g>
</g>
<!-- Node2 -->
<g id="node2" class="node">
<title>Node2</title>
<g id="a_node2"><a xlink:href="class_player_master_controller.html#a6e9a15dbaf465a0477ab5bab27570bde" target="_top" xlink:title="Get the current tile the token is on">
<polygon fill="white" stroke="black" points="315,-100.5 315,-121.5 491,-121.5 491,-100.5 315,-100.5"/>
<text text-anchor="middle" x="403" y="-107.9" font-family="Helvetica,sans-Serif" font-size="12.00">PlayerMasterController.GetTile</text>
</a>
</g>
</g>
<!-- Node1&#45;&gt;Node2 -->
<g id="edge1" class="edge">
<title>Node1&#45;&gt;Node2</title>
<path fill="none" stroke="midnightblue" d="M278.14,-101.53C287.07,-102.21 295.96,-102.89 304.64,-103.55"/>
<polygon fill="midnightblue" stroke="midnightblue" points="304.49,-107.05 314.72,-104.32 305.02,-100.07 304.49,-107.05"/>
</g>
<!-- Node3 -->
<g id="node3" class="node">
<title>Node3</title>
<g id="a_node3"><a xlink:href="class_board_manager.html#ad6679de327b4f4b736f06d0d549b72a0" target="_top" xlink:title="Mark and show which tile the player can move to">
<polygon fill="white" stroke="black" points="317,-60.5 317,-81.5 489,-81.5 489,-60.5 317,-60.5"/>
<text text-anchor="middle" x="403" y="-67.9" font-family="Helvetica,sans-Serif" font-size="12.00">BoardManager.ShowMovable</text>
</a>
</g>
</g>
<!-- Node1&#45;&gt;Node3 -->
<g id="edge2" class="edge">
<title>Node1&#45;&gt;Node3</title>
<path fill="none" stroke="midnightblue" d="M278.14,-80.47C287.81,-79.73 297.43,-79 306.78,-78.28"/>
<polygon fill="midnightblue" stroke="midnightblue" points="307.12,-81.77 316.82,-77.51 306.59,-74.79 307.12,-81.77"/>
</g>
<!-- Node4 -->
<g id="node4" class="node">
<title>Node4</title>
<g id="a_node4"><a xlink:href="class_board_manager.html#a1ea52b667d1dd7ca6b4fa956a19ee26d" target="_top" xlink:title="Perform bfs search for the tiles">
<polygon fill="white" stroke="black" points="543,-80.5 543,-101.5 657,-101.5 657,-80.5 543,-80.5"/>
<text text-anchor="middle" x="600" y="-87.9" font-family="Helvetica,sans-Serif" font-size="12.00">BoardManager.bfs</text>
</a>
</g>
</g>
<!-- Node3&#45;&gt;Node4 -->
<g id="edge3" class="edge">
<title>Node3&#45;&gt;Node4</title>
<path fill="none" stroke="midnightblue" d="M489.25,-79.74C503.84,-81.24 518.81,-82.78 532.82,-84.21"/>
<polygon fill="midnightblue" stroke="midnightblue" points="532.52,-87.7 542.82,-85.24 533.23,-80.74 532.52,-87.7"/>
</g>
<!-- Node8 -->
<g id="node8" class="node">
<title>Node8</title>
<g id="a_node8"><a xlink:href="class_board_tile_script.html#a3ff1d3c491fe4d7e421a624ac0b5be6f" target="_top" xlink:title="setting the glow on the tile">
<polygon fill="white" stroke="black" points="527,-40.5 527,-61.5 673,-61.5 673,-40.5 527,-40.5"/>
<text text-anchor="middle" x="600" y="-47.9" font-family="Helvetica,sans-Serif" font-size="12.00">BoardTileScript.GlowTile</text>
</a>
</g>
</g>
<!-- Node3&#45;&gt;Node8 -->
<g id="edge7" class="edge">
<title>Node3&#45;&gt;Node8</title>
<path fill="none" stroke="midnightblue" d="M489.25,-62.26C498.33,-61.33 507.56,-60.38 516.61,-59.45"/>
<polygon fill="midnightblue" stroke="midnightblue" points="517.14,-62.91 526.73,-58.41 516.43,-55.95 517.14,-62.91"/>
</g>
<!-- Node5 -->
<g id="node5" class="node">
<title>Node5</title>
<g id="a_node5"><a xlink:href="class_board_manager.html#ae3af0b08bdfbc0ebcda23950eb935a5d" target="_top" xlink:title="Return array of all neighbours of given tile">
<polygon fill="white" stroke="black" points="741,-120.5 741,-141.5 937,-141.5 937,-120.5 741,-120.5"/>
<text text-anchor="middle" x="839" y="-127.9" font-family="Helvetica,sans-Serif" font-size="12.00">BoardManager.GetTileNeighbours</text>
</a>
</g>
</g>
<!-- Node4&#45;&gt;Node5 -->
<g id="edge4" class="edge">
<title>Node4&#45;&gt;Node5</title>
<path fill="none" stroke="midnightblue" d="M656.16,-101.54C673.1,-104.69 691.8,-108.07 709,-111 724.73,-113.67 741.56,-116.39 757.7,-118.92"/>
<polygon fill="midnightblue" stroke="midnightblue" points="757.22,-122.39 767.64,-120.47 758.3,-115.47 757.22,-122.39"/>
</g>
<!-- Node7 -->
<g id="node7" class="node">
<title>Node7</title>
<g id="a_node7"><a xlink:href="class_board_tile_script.html#aeee5122d5e5b79867f6538ec4d597b6a" target="_top" xlink:title="check if tile is empty">
<polygon fill="white" stroke="black" points="767.5,-80.5 767.5,-101.5 910.5,-101.5 910.5,-80.5 767.5,-80.5"/>
<text text-anchor="middle" x="839" y="-87.9" font-family="Helvetica,sans-Serif" font-size="12.00">BoardTileScript.IsEmpty</text>
</a>
</g>
</g>
<!-- Node4&#45;&gt;Node7 -->
<g id="edge6" class="edge">
<title>Node4&#45;&gt;Node7</title>
<path fill="none" stroke="midnightblue" d="M657.17,-91C687.06,-91 724.36,-91 757.3,-91"/>
<polygon fill="midnightblue" stroke="midnightblue" points="757.37,-94.5 767.37,-91 757.37,-87.5 757.37,-94.5"/>
</g>
<!-- Node6 -->
<g id="node6" class="node">
<title>Node6</title>
<g id="a_node6"><a xlink:href="class_board_manager.html#a6b2b89b5ce622bf45676e6993f8ec216" target="_top" xlink:title="Get a tile from the array using a grid reference.">
<polygon fill="white" stroke="black" points="1005,-120.5 1005,-141.5 1191,-141.5 1191,-120.5 1005,-120.5"/>
<text text-anchor="middle" x="1098" y="-127.9" font-family="Helvetica,sans-Serif" font-size="12.00">BoardManager.GetTileFromGrid</text>
</a>
</g>
</g>
<!-- Node5&#45;&gt;Node6 -->
<g id="edge5" class="edge">
<title>Node5&#45;&gt;Node6</title>
<path fill="none" stroke="midnightblue" d="M937.16,-131C955.96,-131 975.71,-131 994.66,-131"/>
<polygon fill="midnightblue" stroke="midnightblue" points="994.8,-134.5 1004.8,-131 994.8,-127.5 994.8,-134.5"/>
</g>
<!-- Node9 -->
<g id="node9" class="node">
<title>Node9</title>
<g id="a_node9"><a xlink:href="class_board_tile_effect_handler_script.html#a93e813816ff40b3602de22f87a694766" target="_top" xlink:title="turn off the effect for when player can move to that tile">
<polygon fill="white" stroke="black" points="709,-40.5 709,-61.5 969,-61.5 969,-40.5 709,-40.5"/>
<text text-anchor="middle" x="839" y="-47.9" font-family="Helvetica,sans-Serif" font-size="12.00">BoardTileEffectHandlerScript.ToggleEffect_Off</text>
</a>
</g>
</g>
<!-- Node8&#45;&gt;Node9 -->
<g id="edge8" class="edge">
<title>Node8&#45;&gt;Node9</title>
<path fill="none" stroke="midnightblue" d="M673.07,-51C681.38,-51 690.06,-51 698.89,-51"/>
<polygon fill="midnightblue" stroke="midnightblue" points="698.92,-54.5 708.92,-51 698.92,-47.5 698.92,-54.5"/>
</g>
<!-- Node10 -->
<g id="node10" class="node">
<title>Node10</title>
<g id="a_node10"><a xlink:href="class_board_tile_effect_handler_script.html#a7bf5b2a819cb44463464d5c951bf3143" target="_top" xlink:title="turn on the effect for when player can move to that tile">
<polygon fill="white" stroke="black" points="709,-0.5 709,-21.5 969,-21.5 969,-0.5 709,-0.5"/>
<text text-anchor="middle" x="839" y="-7.9" font-family="Helvetica,sans-Serif" font-size="12.00">BoardTileEffectHandlerScript.ToggleEffect_On</text>
</a>
</g>
</g>
<!-- Node8&#45;&gt;Node10 -->
<g id="edge9" class="edge">
<title>Node8&#45;&gt;Node10</title>
<path fill="none" stroke="midnightblue" d="M656.16,-40.46C673.1,-37.31 691.8,-33.93 709,-31 724.73,-28.33 741.56,-25.61 757.7,-23.08"/>
<polygon fill="midnightblue" stroke="midnightblue" points="758.3,-26.53 767.64,-21.53 757.22,-19.61 758.3,-26.53"/>
</g>
</g>
</svg>
