<?xml version="1.0" encoding="UTF-8" standalone="no"?>
<!DOCTYPE svg PUBLIC "-//W3C//DTD SVG 1.1//EN"
 "http://www.w3.org/Graphics/SVG/1.1/DTD/svg11.dtd">
<!-- Generated by graphviz version 2.47.1 (20210417.1919)
 -->
<!-- Title: BoardBuilder.Initialise Pages: 1 -->
<!--zoomable 428 -->
<svg id="main" version="1.1" xmlns="http://www.w3.org/2000/svg" xmlns:xlink="http://www.w3.org/1999/xlink" xml:space="preserve" onload="init(evt)">
<style type="text/css"><![CDATA[
.edge:hover path { stroke: red; }
.edge:hover polygon { stroke: red; fill: red; }
]]></style>
<script type="text/javascript"><![CDATA[
var edges = document.getElementsByTagName('g');
if (edges && edges.length) {
  for (var i=0;i<edges.length;i++) {
    if (edges[i].id.substr(0,4)=='edge') {
      edges[i].setAttribute('class','edge');
    }
  }
}
]]></script>
        <defs>
                <circle id="rim" cx="0" cy="0" r="7"/>
                <circle id="rim2" cx="0" cy="0" r="3.5"/>
                <g id="zoomPlus">
                        <use xlink:href="#rim" fill="#404040">
                                <set attributeName="fill" to="#808080" begin="zoomplus.mouseover" end="zoomplus.mouseout"/>
                        </use>
                        <path d="M-4,0h8M0,-4v8" fill="none" stroke="white" stroke-width="1.5" pointer-events="none"/>
                </g>
                <g id="zoomMin">
                        <use xlink:href="#rim" fill="#404040">
                                <set attributeName="fill" to="#808080" begin="zoomminus.mouseover" end="zoomminus.mouseout"/>
                        </use>
                        <path d="M-4,0h8" fill="none" stroke="white" stroke-width="1.5" pointer-events="none"/>
                </g>
                <g id="dirArrow">
                        <path fill="none" stroke="white" stroke-width="1.5" d="M0,-3.0v7 M-2.5,-0.5L0,-3.0L2.5,-0.5"/>
                </g>
               <g id="resetDef">
                       <use xlink:href="#rim2" fill="#404040">
                               <set attributeName="fill" to="#808080" begin="reset.mouseover" end="reset.mouseout"/>
                       </use>
               </g>
        </defs>

<script type="text/javascript">
var viewWidth = 1615;
var viewHeight = 428;
var sectionId = 'dynsection-21';
</script>
<script xlink:href="svgpan.js"/>
<svg id="graph" class="graph">
<g id="viewport">
<title>BoardBuilder.Initialise</title>
<polygon fill="white" stroke="transparent" points="-4,4 -4,-424 1611,-424 1611,4 -4,4"/>
<!-- Node1 -->
<g id="node1" class="node">
<title>Node1</title>
<g id="a_node1"><a xlink:title="Method to create the board, initialise and place all items and pass references to board manager">
<polygon fill="#bfbfbf" stroke="black" points="0,-120.5 0,-141.5 131,-141.5 131,-120.5 0,-120.5"/>
<text text-anchor="middle" x="65.5" y="-127.9" font-family="Helvetica,sans-Serif" font-size="12.00">BoardBuilder.Initialise</text>
</a>
</g>
</g>
<!-- Node2 -->
<g id="node2" class="node">
<title>Node2</title>
<g id="a_node2"><a xlink:href="class_board_builder.html#a3a24e59815a2273a921875c2cb7781f2" target="_top" xlink:title="Build the board using various helper methods">
<polygon fill="white" stroke="black" points="219,-298.5 219,-319.5 366,-319.5 366,-298.5 219,-298.5"/>
<text text-anchor="middle" x="292.5" y="-305.9" font-family="Helvetica,sans-Serif" font-size="12.00">BoardBuilder.BuildBoard</text>
</a>
</g>
</g>
<!-- Node1&#45;&gt;Node2 -->
<g id="edge1" class="edge">
<title>Node1&#45;&gt;Node2</title>
<path fill="none" stroke="midnightblue" d="M76.89,-141.59C94.63,-159.44 132.23,-196.3 167,-224 199.63,-250 239.9,-276.58 265.64,-292.94"/>
<polygon fill="midnightblue" stroke="midnightblue" points="264.1,-296.1 274.43,-298.48 267.84,-290.18 264.1,-296.1"/>
</g>
<!-- Node13 -->
<g id="node13" class="node">
<title>Node13</title>
<g id="a_node13"><a xlink:href="class_board_manager.html#ad208908578ffda25d87122a34e264b44" target="_top" xlink:title="Create 2d array of all board tiles">
<polygon fill="white" stroke="black" points="747,-160.5 747,-181.5 941,-181.5 941,-160.5 747,-160.5"/>
<text text-anchor="middle" x="844" y="-167.9" font-family="Helvetica,sans-Serif" font-size="12.00">BoardManager.CreateBoardArray</text>
</a>
</g>
</g>
<!-- Node1&#45;&gt;Node13 -->
<g id="edge13" class="edge">
<title>Node1&#45;&gt;Node13</title>
<path fill="none" stroke="midnightblue" d="M79.09,-141.64C97.16,-156.13 132.13,-181.38 167,-191 389.79,-252.45 456.36,-205.72 687,-191 712.63,-189.36 740.48,-186.23 765.46,-182.92"/>
<polygon fill="midnightblue" stroke="midnightblue" points="766.17,-186.36 775.61,-181.55 765.23,-179.42 766.17,-186.36"/>
</g>
<!-- Node14 -->
<g id="node14" class="node">
<title>Node14</title>
<g id="a_node14"><a xlink:href="class_board_builder.html#a9935d1e9f5b2286d246e38151ee313eb" target="_top" xlink:title="Instantiate all weapon tokens">
<polygon fill="white" stroke="black" points="205,-120.5 205,-141.5 380,-141.5 380,-120.5 205,-120.5"/>
<text text-anchor="middle" x="292.5" y="-127.9" font-family="Helvetica,sans-Serif" font-size="12.00">BoardBuilder.CreateWeapons</text>
</a>
</g>
</g>
<!-- Node1&#45;&gt;Node14 -->
<g id="edge14" class="edge">
<title>Node1&#45;&gt;Node14</title>
<path fill="none" stroke="midnightblue" d="M131.28,-131C151.11,-131 173.38,-131 194.86,-131"/>
<polygon fill="midnightblue" stroke="midnightblue" points="194.99,-134.5 204.99,-131 194.99,-127.5 194.99,-134.5"/>
</g>
<!-- Node15 -->
<g id="node15" class="node">
<title>Node15</title>
<g id="a_node15"><a xlink:href="class_board_builder.html#ac94d9474a9d66a0748a402c743a22cf7" target="_top" xlink:title="Create a 2d array from the .csv file to build the board from">
<polygon fill="white" stroke="black" points="167,-80.5 167,-101.5 418,-101.5 418,-80.5 167,-80.5"/>
<text text-anchor="middle" x="292.5" y="-87.9" font-family="Helvetica,sans-Serif" font-size="12.00">BoardBuilder.GenerateBoardArrayFromCSV</text>
</a>
</g>
</g>
<!-- Node1&#45;&gt;Node15 -->
<g id="edge15" class="edge">
<title>Node1&#45;&gt;Node15</title>
<path fill="none" stroke="midnightblue" d="M117.56,-120.46C133.38,-117.29 150.89,-113.9 167,-111 181.85,-108.33 197.72,-105.65 212.99,-103.16"/>
<polygon fill="midnightblue" stroke="midnightblue" points="213.62,-106.6 222.93,-101.55 212.5,-99.69 213.62,-106.6"/>
</g>
<!-- Node16 -->
<g id="node16" class="node">
<title>Node16</title>
<g id="a_node16"><a xlink:href="class_board_builder.html#ab340fc9336c3174138bfb6b2f3b31c37" target="_top" xlink:title="Load all prefabs from resources folder">
<polygon fill="white" stroke="black" points="206.5,-40.5 206.5,-61.5 378.5,-61.5 378.5,-40.5 206.5,-40.5"/>
<text text-anchor="middle" x="292.5" y="-47.9" font-family="Helvetica,sans-Serif" font-size="12.00">BoardBuilder.LoadResources</text>
</a>
</g>
</g>
<!-- Node1&#45;&gt;Node16 -->
<g id="edge16" class="edge">
<title>Node1&#45;&gt;Node16</title>
<path fill="none" stroke="midnightblue" d="M80.28,-120.43C98.89,-106.73 133.58,-83.15 167,-71 176.34,-67.61 186.27,-64.79 196.31,-62.44"/>
<polygon fill="midnightblue" stroke="midnightblue" points="197.32,-65.8 206.35,-60.26 195.84,-58.96 197.32,-65.8"/>
</g>
<!-- Node17 -->
<g id="node17" class="node">
<title>Node17</title>
<g id="a_node17"><a xlink:href="class_board_builder.html#a7a499abdc0c02d659ea6fee6e7836f15" target="_top" xlink:title="Randomly place Free roll / accusation tiles.">
<polygon fill="white" stroke="black" points="204.5,-160.5 204.5,-181.5 380.5,-181.5 380.5,-160.5 204.5,-160.5"/>
<text text-anchor="middle" x="292.5" y="-167.9" font-family="Helvetica,sans-Serif" font-size="12.00">BoardBuilder.PlaceBonusTiles</text>
</a>
</g>
</g>
<!-- Node1&#45;&gt;Node17 -->
<g id="edge17" class="edge">
<title>Node1&#45;&gt;Node17</title>
<path fill="none" stroke="midnightblue" d="M117.56,-141.54C133.38,-144.71 150.89,-148.1 167,-151 181.85,-153.67 197.72,-156.35 212.99,-158.84"/>
<polygon fill="midnightblue" stroke="midnightblue" points="212.5,-162.31 222.93,-160.45 213.62,-155.4 212.5,-162.31"/>
</g>
<!-- Node25 -->
<g id="node25" class="node">
<title>Node25</title>
<g id="a_node25"><a xlink:href="class_board_manager.html#adc089b30dd732a7e8109c14143b01146" target="_top" xlink:title="Set all object arrays once board is built">
<polygon fill="white" stroke="black" points="200.5,-0.5 200.5,-21.5 384.5,-21.5 384.5,-0.5 200.5,-0.5"/>
<text text-anchor="middle" x="292.5" y="-7.9" font-family="Helvetica,sans-Serif" font-size="12.00">BoardManager.SetObjectArrays</text>
</a>
</g>
</g>
<!-- Node1&#45;&gt;Node25 -->
<g id="edge28" class="edge">
<title>Node1&#45;&gt;Node25</title>
<path fill="none" stroke="midnightblue" d="M73.61,-120.38C88.31,-99.4 124.23,-52.78 167,-31 174.43,-27.22 182.41,-24.11 190.6,-21.58"/>
<polygon fill="midnightblue" stroke="midnightblue" points="191.62,-24.93 200.3,-18.85 189.73,-18.19 191.62,-24.93"/>
</g>
<!-- Node3 -->
<g id="node3" class="node">
<title>Node3</title>
<g id="a_node3"><a xlink:href="class_board_builder.html#a39010ec9af85bdbe95514a26a2d8aba6" target="_top" xlink:title="Instantiate a General tile and set its parameters">
<polygon fill="white" stroke="black" points="482.5,-238.5 482.5,-259.5 658.5,-259.5 658.5,-238.5 482.5,-238.5"/>
<text text-anchor="middle" x="570.5" y="-245.9" font-family="Helvetica,sans-Serif" font-size="12.00">BoardBuilder.CreateBoardTile</text>
</a>
</g>
</g>
<!-- Node2&#45;&gt;Node3 -->
<g id="edge2" class="edge">
<title>Node2&#45;&gt;Node3</title>
<path fill="none" stroke="midnightblue" d="M332.56,-298.42C364.95,-289.85 412.27,-277.8 454,-269 466.77,-266.31 480.4,-263.71 493.64,-261.32"/>
<polygon fill="midnightblue" stroke="midnightblue" points="494.44,-264.74 503.68,-259.54 493.22,-257.84 494.44,-264.74"/>
</g>
<!-- Node4 -->
<g id="node4" class="node">
<title>Node4</title>
<g id="a_node4"><a xlink:href="class_board_builder.html#a491ed54feb27cf486245a500c16ff310" target="_top" xlink:title=" ">
<polygon fill="white" stroke="black" points="492.5,-398.5 492.5,-419.5 648.5,-419.5 648.5,-398.5 492.5,-398.5"/>
<text text-anchor="middle" x="570.5" y="-405.9" font-family="Helvetica,sans-Serif" font-size="12.00">BoardBuilder.CreateRoom</text>
</a>
</g>
</g>
<!-- Node2&#45;&gt;Node4 -->
<g id="edge3" class="edge">
<title>Node2&#45;&gt;Node4</title>
<path fill="none" stroke="midnightblue" d="M310.6,-319.63C339.18,-336.9 398.97,-370.95 454,-389 463.04,-391.97 472.63,-394.51 482.27,-396.7"/>
<polygon fill="midnightblue" stroke="midnightblue" points="481.8,-400.18 492.31,-398.85 483.27,-393.34 481.8,-400.18"/>
</g>
<!-- Node5 -->
<g id="node5" class="node">
<title>Node5</title>
<g id="a_node5"><a xlink:href="class_board_builder.html#a03451888fabe0fefe9bb547dd510ac1d" target="_top" xlink:title="Instantiate a roomEntrance tile and set its parameters">
<polygon fill="white" stroke="black" points="460,-358.5 460,-379.5 681,-379.5 681,-358.5 460,-358.5"/>
<text text-anchor="middle" x="570.5" y="-365.9" font-family="Helvetica,sans-Serif" font-size="12.00">BoardBuilder.CreateRoomEntranceTile</text>
</a>
</g>
</g>
<!-- Node2&#45;&gt;Node5 -->
<g id="edge4" class="edge">
<title>Node2&#45;&gt;Node5</title>
<path fill="none" stroke="midnightblue" d="M332.56,-319.58C364.95,-328.15 412.27,-340.2 454,-349 466.77,-351.69 480.4,-354.29 493.64,-356.68"/>
<polygon fill="midnightblue" stroke="midnightblue" points="493.22,-360.16 503.68,-358.46 494.44,-353.26 493.22,-360.16"/>
</g>
<!-- Node7 -->
<g id="node7" class="node">
<title>Node7</title>
<g id="a_node7"><a xlink:href="class_board_builder.html#aa03504edb607b14737199d2e66b4ce07" target="_top" xlink:title="Instantiate a shortcut tile and set its parameters">
<polygon fill="white" stroke="black" points="477.5,-318.5 477.5,-339.5 663.5,-339.5 663.5,-318.5 477.5,-318.5"/>
<text text-anchor="middle" x="570.5" y="-325.9" font-family="Helvetica,sans-Serif" font-size="12.00">BoardBuilder.CreateShortcutTile</text>
</a>
</g>
</g>
<!-- Node2&#45;&gt;Node7 -->
<g id="edge6" class="edge">
<title>Node2&#45;&gt;Node7</title>
<path fill="none" stroke="midnightblue" d="M366.02,-314.25C396.92,-316.49 433.52,-319.15 467.11,-321.58"/>
<polygon fill="midnightblue" stroke="midnightblue" points="467.2,-325.1 477.43,-322.33 467.7,-318.11 467.2,-325.1"/>
</g>
<!-- Node9 -->
<g id="node9" class="node">
<title>Node9</title>
<g id="a_node9"><a xlink:href="class_board_builder.html#aa37fc56697e202c34e1f8a1ee3677ea2" target="_top" xlink:title="Instantiate a start tile and set its parameters">
<polygon fill="white" stroke="black" points="486.5,-278.5 486.5,-299.5 654.5,-299.5 654.5,-278.5 486.5,-278.5"/>
<text text-anchor="middle" x="570.5" y="-285.9" font-family="Helvetica,sans-Serif" font-size="12.00">BoardBuilder.CreateStartTile</text>
</a>
</g>
</g>
<!-- Node2&#45;&gt;Node9 -->
<g id="edge9" class="edge">
<title>Node2&#45;&gt;Node9</title>
<path fill="none" stroke="midnightblue" d="M366.02,-303.75C399.74,-301.3 440.25,-298.37 476.23,-295.76"/>
<polygon fill="midnightblue" stroke="midnightblue" points="476.52,-299.25 486.24,-295.03 476.01,-292.27 476.52,-299.25"/>
</g>
<!-- Node6 -->
<g id="node6" class="node">
<title>Node6</title>
<g id="a_node6"><a xlink:href="class_room_script.html#a1747ef3091a32115e7bdbd53f5764a31" target="_top" xlink:title="Get Room Enum from string">
<polygon fill="white" stroke="black" points="748.5,-358.5 748.5,-379.5 939.5,-379.5 939.5,-358.5 748.5,-358.5"/>
<text text-anchor="middle" x="844" y="-365.9" font-family="Helvetica,sans-Serif" font-size="12.00">RoomScript.GetRoomFromString</text>
</a>
</g>
</g>
<!-- Node5&#45;&gt;Node6 -->
<g id="edge5" class="edge">
<title>Node5&#45;&gt;Node6</title>
<path fill="none" stroke="midnightblue" d="M681.15,-369C699.9,-369 719.34,-369 737.96,-369"/>
<polygon fill="midnightblue" stroke="midnightblue" points="738.22,-372.5 748.22,-369 738.22,-365.5 738.22,-372.5"/>
</g>
<!-- Node7&#45;&gt;Node6 -->
<g id="edge7" class="edge">
<title>Node7&#45;&gt;Node6</title>
<path fill="none" stroke="midnightblue" d="M642.83,-339.51C679.32,-344.89 723.89,-351.45 761.71,-357.02"/>
<polygon fill="midnightblue" stroke="midnightblue" points="761.27,-360.5 771.67,-358.49 762.29,-353.57 761.27,-360.5"/>
</g>
<!-- Node8 -->
<g id="node8" class="node">
<title>Node8</title>
<g id="a_node8"><a xlink:href="class_shortcut_board_tile_script.html#a6d476b580271ad3b4ad963c152823d22" target="_top" xlink:title="Set shortcut rooms">
<polygon fill="white" stroke="black" points="723,-318.5 723,-339.5 965,-339.5 965,-318.5 723,-318.5"/>
<text text-anchor="middle" x="844" y="-325.9" font-family="Helvetica,sans-Serif" font-size="12.00">ShortcutBoardTileScript.SetShortcutRooms</text>
</a>
</g>
</g>
<!-- Node7&#45;&gt;Node8 -->
<g id="edge8" class="edge">
<title>Node7&#45;&gt;Node8</title>
<path fill="none" stroke="midnightblue" d="M663.8,-329C679.45,-329 695.98,-329 712.4,-329"/>
<polygon fill="midnightblue" stroke="midnightblue" points="712.6,-332.5 722.6,-329 712.6,-325.5 712.6,-332.5"/>
</g>
<!-- Node10 -->
<g id="node10" class="node">
<title>Node10</title>
<g id="a_node10"><a xlink:href="class_start_tile_script.html#a33514048a06840acdadc966c14cef503" target="_top" xlink:title="Set the character for the start tile">
<polygon fill="white" stroke="black" points="762,-278.5 762,-299.5 926,-299.5 926,-278.5 762,-278.5"/>
<text text-anchor="middle" x="844" y="-285.9" font-family="Helvetica,sans-Serif" font-size="12.00">StartTileScript.SetCharacter</text>
</a>
</g>
</g>
<!-- Node9&#45;&gt;Node10 -->
<g id="edge10" class="edge">
<title>Node9&#45;&gt;Node10</title>
<path fill="none" stroke="midnightblue" d="M654.8,-289C685.47,-289 720.35,-289 751.68,-289"/>
<polygon fill="midnightblue" stroke="midnightblue" points="751.72,-292.5 761.72,-289 751.72,-285.5 751.72,-292.5"/>
</g>
<!-- Node12 -->
<g id="node12" class="node">
<title>Node12</title>
<g id="a_node12"><a xlink:href="class_board_tile_script.html#a6257d1f00b3732f6d61a4d98b445890c" target="_top" xlink:title="setting the player token that is currently on this tile">
<polygon fill="white" stroke="black" points="768,-238.5 768,-259.5 920,-259.5 920,-238.5 768,-238.5"/>
<text text-anchor="middle" x="844" y="-245.9" font-family="Helvetica,sans-Serif" font-size="12.00">BoardTileScript.SetToken</text>
</a>
</g>
</g>
<!-- Node9&#45;&gt;Node12 -->
<g id="edge12" class="edge">
<title>Node9&#45;&gt;Node12</title>
<path fill="none" stroke="midnightblue" d="M642.83,-278.49C679.32,-273.11 723.89,-266.55 761.71,-260.98"/>
<polygon fill="midnightblue" stroke="midnightblue" points="762.29,-264.43 771.67,-259.51 761.27,-257.5 762.29,-264.43"/>
</g>
<!-- Node11 -->
<g id="node11" class="node">
<title>Node11</title>
<g id="a_node11"><a xlink:href="class_start_tile_script.html#a478e37b4e8befbb49b5729b3362b1f4c" target="_top" xlink:title="Format and set the text displayed on the tile">
<polygon fill="white" stroke="black" points="1001,-278.5 1001,-299.5 1153,-299.5 1153,-278.5 1001,-278.5"/>
<text text-anchor="middle" x="1077" y="-285.9" font-family="Helvetica,sans-Serif" font-size="12.00">StartTileScript.SetTileText</text>
</a>
</g>
</g>
<!-- Node10&#45;&gt;Node11 -->
<g id="edge11" class="edge">
<title>Node10&#45;&gt;Node11</title>
<path fill="none" stroke="midnightblue" d="M926.12,-289C947.01,-289 969.55,-289 990.65,-289"/>
<polygon fill="midnightblue" stroke="midnightblue" points="990.88,-292.5 1000.88,-289 990.88,-285.5 990.88,-292.5"/>
</g>
<!-- Node18 -->
<g id="node18" class="node">
<title>Node18</title>
<g id="a_node18"><a xlink:href="class_board_builder.html#a1ce7b540b58b1e6fde74e064107ae954" target="_top" xlink:title="Randomly replace required number of general tiles with FreeRoll Tiles">
<polygon fill="white" stroke="black" points="473.5,-160.5 473.5,-181.5 667.5,-181.5 667.5,-160.5 473.5,-160.5"/>
<text text-anchor="middle" x="570.5" y="-167.9" font-family="Helvetica,sans-Serif" font-size="12.00">BoardBuilder.CreateFreeRollTiles</text>
</a>
</g>
</g>
<!-- Node17&#45;&gt;Node18 -->
<g id="edge18" class="edge">
<title>Node17&#45;&gt;Node18</title>
<path fill="none" stroke="midnightblue" d="M380.83,-171C406.88,-171 435.72,-171 462.86,-171"/>
<polygon fill="midnightblue" stroke="midnightblue" points="463.16,-174.5 473.16,-171 463.16,-167.5 463.16,-174.5"/>
</g>
<!-- Node24 -->
<g id="node24" class="node">
<title>Node24</title>
<g id="a_node24"><a xlink:href="class_board_builder.html#aeeca1094dc5e50c5612bba9336efd9d3" target="_top" xlink:title="Randomly replace required number of general tiles with FreeAccusation Tiles">
<polygon fill="white" stroke="black" points="454,-120.5 454,-141.5 687,-141.5 687,-120.5 454,-120.5"/>
<text text-anchor="middle" x="570.5" y="-127.9" font-family="Helvetica,sans-Serif" font-size="12.00">BoardBuilder.CreateFreeSuggestionTiles</text>
</a>
</g>
</g>
<!-- Node17&#45;&gt;Node24 -->
<g id="edge25" class="edge">
<title>Node17&#45;&gt;Node24</title>
<path fill="none" stroke="midnightblue" d="M366.02,-160.49C403.11,-155.11 448.42,-148.55 486.86,-142.98"/>
<polygon fill="midnightblue" stroke="midnightblue" points="487.6,-146.41 496.99,-141.51 486.59,-139.48 487.6,-146.41"/>
</g>
<!-- Node18&#45;&gt;Node13 -->
<g id="edge24" class="edge">
<title>Node18&#45;&gt;Node13</title>
<path fill="none" stroke="midnightblue" d="M667.6,-171C689.93,-171 713.82,-171 736.56,-171"/>
<polygon fill="midnightblue" stroke="midnightblue" points="736.57,-174.5 746.57,-171 736.57,-167.5 736.57,-174.5"/>
</g>
<!-- Node19 -->
<g id="node19" class="node">
<title>Node19</title>
<g id="a_node19"><a xlink:href="class_board_builder.html#a3e79e20c71a20b8e2feb24d83106ebdb" target="_top" xlink:title="Check for nearby bonus / start tiles in order to space out around the board">
<polygon fill="white" stroke="black" points="751.5,-120.5 751.5,-141.5 936.5,-141.5 936.5,-120.5 751.5,-120.5"/>
<text text-anchor="middle" x="844" y="-127.9" font-family="Helvetica,sans-Serif" font-size="12.00">BoardBuilder.CheckNearbyTiles</text>
</a>
</g>
</g>
<!-- Node18&#45;&gt;Node19 -->
<g id="edge19" class="edge">
<title>Node18&#45;&gt;Node19</title>
<path fill="none" stroke="midnightblue" d="M642.83,-160.49C679.32,-155.11 723.89,-148.55 761.71,-142.98"/>
<polygon fill="midnightblue" stroke="midnightblue" points="762.29,-146.43 771.67,-141.51 761.27,-139.5 762.29,-146.43"/>
</g>
<!-- Node20 -->
<g id="node20" class="node">
<title>Node20</title>
<g id="a_node20"><a xlink:href="class_board_manager.html#a1ea52b667d1dd7ca6b4fa956a19ee26d" target="_top" xlink:title="Perform bfs search for the tiles">
<polygon fill="white" stroke="black" points="1020,-120.5 1020,-141.5 1134,-141.5 1134,-120.5 1020,-120.5"/>
<text text-anchor="middle" x="1077" y="-127.9" font-family="Helvetica,sans-Serif" font-size="12.00">BoardManager.bfs</text>
</a>
</g>
</g>
<!-- Node19&#45;&gt;Node20 -->
<g id="edge20" class="edge">
<title>Node19&#45;&gt;Node20</title>
<path fill="none" stroke="midnightblue" d="M936.63,-131C960.99,-131 986.83,-131 1009.56,-131"/>
<polygon fill="midnightblue" stroke="midnightblue" points="1009.76,-134.5 1019.76,-131 1009.76,-127.5 1009.76,-134.5"/>
</g>
<!-- Node21 -->
<g id="node21" class="node">
<title>Node21</title>
<g id="a_node21"><a xlink:href="class_board_manager.html#ae3af0b08bdfbc0ebcda23950eb935a5d" target="_top" xlink:title="Return array of all neighbours of given tile">
<polygon fill="white" stroke="black" points="1189,-140.5 1189,-161.5 1385,-161.5 1385,-140.5 1189,-140.5"/>
<text text-anchor="middle" x="1287" y="-147.9" font-family="Helvetica,sans-Serif" font-size="12.00">BoardManager.GetTileNeighbours</text>
</a>
</g>
</g>
<!-- Node20&#45;&gt;Node21 -->
<g id="edge21" class="edge">
<title>Node20&#45;&gt;Node21</title>
<path fill="none" stroke="midnightblue" d="M1134.01,-136.39C1147.93,-137.72 1163.32,-139.2 1178.8,-140.69"/>
<polygon fill="midnightblue" stroke="midnightblue" points="1178.68,-144.2 1188.97,-141.67 1179.35,-137.23 1178.68,-144.2"/>
</g>
<!-- Node23 -->
<g id="node23" class="node">
<title>Node23</title>
<g id="a_node23"><a xlink:href="class_board_tile_script.html#aeee5122d5e5b79867f6538ec4d597b6a" target="_top" xlink:title="check if tile is empty">
<polygon fill="white" stroke="black" points="1215.5,-100.5 1215.5,-121.5 1358.5,-121.5 1358.5,-100.5 1215.5,-100.5"/>
<text text-anchor="middle" x="1287" y="-107.9" font-family="Helvetica,sans-Serif" font-size="12.00">BoardTileScript.IsEmpty</text>
</a>
</g>
</g>
<!-- Node20&#45;&gt;Node23 -->
<g id="edge23" class="edge">
<title>Node20&#45;&gt;Node23</title>
<path fill="none" stroke="midnightblue" d="M1134.01,-125.61C1155.91,-123.51 1181.45,-121.05 1205.27,-118.76"/>
<polygon fill="midnightblue" stroke="midnightblue" points="1205.73,-122.23 1215.35,-117.79 1205.06,-115.27 1205.73,-122.23"/>
</g>
<!-- Node22 -->
<g id="node22" class="node">
<title>Node22</title>
<g id="a_node22"><a xlink:href="class_board_manager.html#a6b2b89b5ce622bf45676e6993f8ec216" target="_top" xlink:title="Get a tile from the array using a grid reference.">
<polygon fill="white" stroke="black" points="1421,-140.5 1421,-161.5 1607,-161.5 1607,-140.5 1421,-140.5"/>
<text text-anchor="middle" x="1514" y="-147.9" font-family="Helvetica,sans-Serif" font-size="12.00">BoardManager.GetTileFromGrid</text>
</a>
</g>
</g>
<!-- Node21&#45;&gt;Node22 -->
<g id="edge22" class="edge">
<title>Node21&#45;&gt;Node22</title>
<path fill="none" stroke="midnightblue" d="M1385.05,-151C1393.6,-151 1402.27,-151 1410.86,-151"/>
<polygon fill="midnightblue" stroke="midnightblue" points="1410.89,-154.5 1420.89,-151 1410.89,-147.5 1410.89,-154.5"/>
</g>
<!-- Node24&#45;&gt;Node13 -->
<g id="edge27" class="edge">
<title>Node24&#45;&gt;Node13</title>
<path fill="none" stroke="midnightblue" d="M642.83,-141.51C679.32,-146.89 723.89,-153.45 761.71,-159.02"/>
<polygon fill="midnightblue" stroke="midnightblue" points="761.27,-162.5 771.67,-160.49 762.29,-155.57 761.27,-162.5"/>
</g>
<!-- Node24&#45;&gt;Node19 -->
<g id="edge26" class="edge">
<title>Node24&#45;&gt;Node19</title>
<path fill="none" stroke="midnightblue" d="M687.03,-131C705.01,-131 723.47,-131 741.12,-131"/>
<polygon fill="midnightblue" stroke="midnightblue" points="741.4,-134.5 751.4,-131 741.4,-127.5 741.4,-134.5"/>
</g>
</g>
</svg>
        <g id="navigator" transform="translate(0 0)" fill="#404254">
                <rect fill="#f2f5e9" fill-opacity="0.5" stroke="#606060" stroke-width=".5" x="0" y="0" width="60" height="60"/>
                <use id="zoomplus" xlink:href="#zoomPlus" x="17" y="9" onmousedown="handleZoom(evt,'in')"/>
                <use id="zoomminus" xlink:href="#zoomMin" x="42" y="9" onmousedown="handleZoom(evt,'out')"/>
                <use id="reset" xlink:href="#resetDef" x="30" y="36" onmousedown="handleReset()"/>
                <g id="arrowUp" xlink:href="#dirArrow" transform="translate(30 24)" onmousedown="handlePan(0,-1)">
                  <use xlink:href="#rim" fill="#404040">
                        <set attributeName="fill" to="#808080" begin="arrowUp.mouseover" end="arrowUp.mouseout"/>
                  </use>
                  <path fill="none" stroke="white" stroke-width="1.5" d="M0,-3.0v7 M-2.5,-0.5L0,-3.0L2.5,-0.5"/>
                </g>
                <g id="arrowRight" xlink:href="#dirArrow" transform="rotate(90) translate(36 -43)" onmousedown="handlePan(1,0)">
                  <use xlink:href="#rim" fill="#404040">
                        <set attributeName="fill" to="#808080" begin="arrowRight.mouseover" end="arrowRight.mouseout"/>
                  </use>
                  <path fill="none" stroke="white" stroke-width="1.5" d="M0,-3.0v7 M-2.5,-0.5L0,-3.0L2.5,-0.5"/>
                </g>
                <g id="arrowDown" xlink:href="#dirArrow" transform="rotate(180) translate(-30 -48)" onmousedown="handlePan(0,1)">
                  <use xlink:href="#rim" fill="#404040">
                        <set attributeName="fill" to="#808080" begin="arrowDown.mouseover" end="arrowDown.mouseout"/>
                  </use>
                  <path fill="none" stroke="white" stroke-width="1.5" d="M0,-3.0v7 M-2.5,-0.5L0,-3.0L2.5,-0.5"/>
                </g>
                <g id="arrowLeft" xlink:href="#dirArrow" transform="rotate(270) translate(-36 17)" onmousedown="handlePan(-1,0)">
                  <use xlink:href="#rim" fill="#404040">
                        <set attributeName="fill" to="#808080" begin="arrowLeft.mouseover" end="arrowLeft.mouseout"/>
                  </use>
                  <path fill="none" stroke="white" stroke-width="1.5" d="M0,-3.0v7 M-2.5,-0.5L0,-3.0L2.5,-0.5"/>
                </g>
        </g>
        <svg viewBox="0 0 15 15" width="100%" height="30px" preserveAspectRatio="xMaxYMin meet">
         <g id="arrow_out" transform="scale(0.3 0.3)">
          <a xlink:href="class_board_builder_a82e09ea29b1d031cfe2fa3b444c12c99_cgraph_org.svg" target="_base">
           <rect id="button" ry="5" rx="5" y="6" x="6" height="38" width="38"
                fill="#f2f5e9" fill-opacity="0.5" stroke="#606060" stroke-width="1.0"/>
           <path id="arrow"
             d="M 11.500037,31.436501 C 11.940474,20.09759 22.043105,11.32322 32.158766,21.979434 L 37.068811,17.246167 C 37.068811,17.246167 37.088388,32 37.088388,32 L 22.160133,31.978069 C 22.160133,31.978069 26.997745,27.140456 26.997745,27.140456 C 18.528582,18.264221 13.291696,25.230495 11.500037,31.436501 z"
             style="fill:#404040;"/>
          </a>
         </g>
        </svg>
</svg>
