<?xml version="1.0" encoding="UTF-8" standalone="no"?>
<!DOCTYPE svg PUBLIC "-//W3C//DTD SVG 1.1//EN"
 "http://www.w3.org/Graphics/SVG/1.1/DTD/svg11.dtd">
<!-- Generated by graphviz version 2.47.1 (20210417.1919)
 -->
<!-- Title: NotebookScript Pages: 1 -->
<svg width="166pt" height="380pt"
 viewBox="0.00 0.00 166.00 380.00" xmlns="http://www.w3.org/2000/svg" xmlns:xlink="http://www.w3.org/1999/xlink">
<g id="graph0" class="graph" transform="scale(1 1) rotate(0) translate(4 376)">
<title>NotebookScript</title>
<polygon fill="white" stroke="transparent" points="-4,4 -4,-376 162,-376 162,4 -4,4"/>
<!-- Node1 -->
<g id="node1" class="node">
<title>Node1</title>
<g id="a_node1"><a xlink:title="Script for the notebook UI object">
<polygon fill="#bfbfbf" stroke="black" points="0,-0.5 0,-271.5 158,-271.5 158,-0.5 0,-0.5"/>
<text text-anchor="middle" x="79" y="-257.9" font-family="Helvetica,sans-Serif" font-size="12.00">NotebookScript</text>
<polyline fill="none" stroke="black" points="0,-250.5 158,-250.5 "/>
<text text-anchor="start" x="8" y="-236.9" font-family="Helvetica,sans-Serif" font-size="12.00">&#45; characterPanel</text>
<text text-anchor="start" x="8" y="-223.9" font-family="Helvetica,sans-Serif" font-size="12.00">&#45; RoomPanel</text>
<text text-anchor="start" x="8" y="-210.9" font-family="Helvetica,sans-Serif" font-size="12.00">&#45; WeaponPanel</text>
<text text-anchor="start" x="8" y="-197.9" font-family="Helvetica,sans-Serif" font-size="12.00">&#45; roundManager</text>
<text text-anchor="start" x="8" y="-184.9" font-family="Helvetica,sans-Serif" font-size="12.00">&#45; characterButtons</text>
<text text-anchor="start" x="8" y="-171.9" font-family="Helvetica,sans-Serif" font-size="12.00">&#45; roomButtons</text>
<text text-anchor="start" x="8" y="-158.9" font-family="Helvetica,sans-Serif" font-size="12.00">&#45; weaponButtons</text>
<polyline fill="none" stroke="black" points="0,-151.5 158,-151.5 "/>
<text text-anchor="start" x="8" y="-137.9" font-family="Helvetica,sans-Serif" font-size="12.00">+ initializeNotebook()</text>
<text text-anchor="start" x="8" y="-124.9" font-family="Helvetica,sans-Serif" font-size="12.00">+ RefreshNotebook()</text>
<text text-anchor="start" x="8" y="-111.9" font-family="Helvetica,sans-Serif" font-size="12.00">+ RefreshCharacters()</text>
<text text-anchor="start" x="8" y="-98.9" font-family="Helvetica,sans-Serif" font-size="12.00">+ RefreshRooms()</text>
<text text-anchor="start" x="8" y="-85.9" font-family="Helvetica,sans-Serif" font-size="12.00">+ RefreshWeapons()</text>
<text text-anchor="start" x="8" y="-72.9" font-family="Helvetica,sans-Serif" font-size="12.00">~ ToggleButton()</text>
<text text-anchor="start" x="8" y="-59.9" font-family="Helvetica,sans-Serif" font-size="12.00">&#45; OnEnable()</text>
<text text-anchor="start" x="8" y="-46.9" font-family="Helvetica,sans-Serif" font-size="12.00">&#45; Awake()</text>
<text text-anchor="start" x="8" y="-33.9" font-family="Helvetica,sans-Serif" font-size="12.00">&#45; CreateCharacterButtons()</text>
<text text-anchor="start" x="8" y="-20.9" font-family="Helvetica,sans-Serif" font-size="12.00">&#45; CreateRoomButtons()</text>
<text text-anchor="start" x="8" y="-7.9" font-family="Helvetica,sans-Serif" font-size="12.00">&#45; CreateWeaponButtons()</text>
</a>
</g>
</g>
<!-- Node2 -->
<g id="node2" class="node">
<title>Node2</title>
<g id="a_node2"><a xlink:title=" ">
<polygon fill="white" stroke="#bfbfbf" points="30,-308.5 30,-371.5 128,-371.5 128,-308.5 30,-308.5"/>
<text text-anchor="middle" x="79" y="-357.9" font-family="Helvetica,sans-Serif" font-size="12.00">MonoBehaviour</text>
<polyline fill="none" stroke="#bfbfbf" points="30,-350.5 128,-350.5 "/>
<text text-anchor="middle" x="79" y="-336.9" font-family="Helvetica,sans-Serif" font-size="12.00"> </text>
<polyline fill="none" stroke="#bfbfbf" points="30,-329.5 128,-329.5 "/>
<text text-anchor="middle" x="79" y="-315.9" font-family="Helvetica,sans-Serif" font-size="12.00"> </text>
</a>
</g>
</g>
<!-- Node2&#45;&gt;Node1 -->
<g id="edge1" class="edge">
<title>Node2&#45;&gt;Node1</title>
<path fill="none" stroke="midnightblue" d="M79,-298.1C79,-289.94 79,-280.95 79,-271.53"/>
<polygon fill="none" stroke="midnightblue" points="75.5,-298.32 79,-308.32 82.5,-298.32 75.5,-298.32"/>
</g>
</g>
</svg>
