<?xml version="1.0" encoding="UTF-8" standalone="no"?>
<!DOCTYPE svg PUBLIC "-//W3C//DTD SVG 1.1//EN"
 "http://www.w3.org/Graphics/SVG/1.1/DTD/svg11.dtd">
<!-- Generated by graphviz version 2.47.1 (20210417.1919)
 -->
<!-- Title: BoardTileEffectHandlerScript.SelectTile Pages: 1 -->
<svg width="893pt" height="30pt"
 viewBox="0.00 0.00 893.00 30.00" xmlns="http://www.w3.org/2000/svg" xmlns:xlink="http://www.w3.org/1999/xlink">
<g id="graph0" class="graph" transform="scale(1 1) rotate(0) translate(4 26)">
<title>BoardTileEffectHandlerScript.SelectTile</title>
<polygon fill="white" stroke="transparent" points="-4,4 -4,-26 889,-26 889,4 -4,4"/>
<!-- Node1 -->
<g id="node1" class="node">
<title>Node1</title>
<g id="a_node1"><a xlink:title="display the glow box effect for when the cursor hovering on it">
<polygon fill="#bfbfbf" stroke="black" points="661,-0.5 661,-21.5 885,-21.5 885,-0.5 661,-0.5"/>
<text text-anchor="middle" x="773" y="-7.9" font-family="Helvetica,sans-Serif" font-size="12.00">BoardTileEffectHandlerScript.SelectTile</text>
</a>
</g>
</g>
<!-- Node2 -->
<g id="node2" class="node">
<title>Node2</title>
<g id="a_node2"><a xlink:href="class_board_tile_script.html#a8fe04841788e895cfe9a60e1d513f9c7" target="_top" xlink:title="enable the select effect on the tile">
<polygon fill="white" stroke="black" points="472,-0.5 472,-21.5 625,-21.5 625,-0.5 472,-0.5"/>
<text text-anchor="middle" x="548.5" y="-7.9" font-family="Helvetica,sans-Serif" font-size="12.00">BoardTileScript.SelectTile</text>
</a>
</g>
</g>
<!-- Node1&#45;&gt;Node2 -->
<g id="edge1" class="edge">
<title>Node1&#45;&gt;Node2</title>
<path fill="none" stroke="midnightblue" d="M650.59,-11C641.95,-11 633.4,-11 625.14,-11"/>
<polygon fill="midnightblue" stroke="midnightblue" points="650.75,-14.5 660.75,-11 650.75,-7.5 650.75,-14.5"/>
</g>
<!-- Node3 -->
<g id="node3" class="node">
<title>Node3</title>
<g id="a_node3"><a xlink:href="class_user_selection_script.html#a79fe134329afe738c1e4fb0d66c99d69" target="_top" xlink:title="Setting the current tile clears the previous tile and set the effect for the new tile">
<polygon fill="white" stroke="black" points="222,-0.5 222,-21.5 436,-21.5 436,-0.5 222,-0.5"/>
<text text-anchor="middle" x="329" y="-7.9" font-family="Helvetica,sans-Serif" font-size="12.00">UserSelectionScript.SelectCurrentTile</text>
</a>
</g>
</g>
<!-- Node2&#45;&gt;Node3 -->
<g id="edge2" class="edge">
<title>Node2&#45;&gt;Node3</title>
<path fill="none" stroke="midnightblue" d="M461.62,-11C453.24,-11 444.66,-11 436.11,-11"/>
<polygon fill="midnightblue" stroke="midnightblue" points="461.73,-14.5 471.73,-11 461.73,-7.5 461.73,-14.5"/>
</g>
<!-- Node4 -->
<g id="node4" class="node">
<title>Node4</title>
<g id="a_node4"><a xlink:href="class_user_cursor_script.html#a86dacfae5227440b7f8ca3c7042a8892" target="_top" xlink:title=" ">
<polygon fill="white" stroke="black" points="0,-0.5 0,-21.5 186,-21.5 186,-0.5 0,-0.5"/>
<text text-anchor="middle" x="93" y="-7.9" font-family="Helvetica,sans-Serif" font-size="12.00">UserCursorScript.OnTriggerStay</text>
</a>
</g>
</g>
<!-- Node3&#45;&gt;Node4 -->
<g id="edge3" class="edge">
<title>Node3&#45;&gt;Node4</title>
<path fill="none" stroke="midnightblue" d="M211.83,-11C203.19,-11 194.55,-11 186.08,-11"/>
<polygon fill="midnightblue" stroke="midnightblue" points="211.95,-14.5 221.95,-11 211.95,-7.5 211.95,-14.5"/>
</g>
</g>
</svg>
