<?xml version="1.0" encoding="UTF-8" standalone="no"?>
<!DOCTYPE svg PUBLIC "-//W3C//DTD SVG 1.1//EN"
 "http://www.w3.org/Graphics/SVG/1.1/DTD/svg11.dtd">
<!-- Generated by graphviz version 2.47.1 (20210417.1919)
 -->
<!-- Title: RoundManager.StartTurn Pages: 1 -->
<!--zoomable 578 -->
<svg id="main" version="1.1" xmlns="http://www.w3.org/2000/svg" xmlns:xlink="http://www.w3.org/1999/xlink" xml:space="preserve" onload="init(evt)">
<style type="text/css"><![CDATA[
.edge:hover path { stroke: red; }
.edge:hover polygon { stroke: red; fill: red; }
]]></style>
<script type="text/javascript"><![CDATA[
var edges = document.getElementsByTagName('g');
if (edges && edges.length) {
  for (var i=0;i<edges.length;i++) {
    if (edges[i].id.substr(0,4)=='edge') {
      edges[i].setAttribute('class','edge');
    }
  }
}
]]></script>
        <defs>
                <circle id="rim" cx="0" cy="0" r="7"/>
                <circle id="rim2" cx="0" cy="0" r="3.5"/>
                <g id="zoomPlus">
                        <use xlink:href="#rim" fill="#404040">
                                <set attributeName="fill" to="#808080" begin="zoomplus.mouseover" end="zoomplus.mouseout"/>
                        </use>
                        <path d="M-4,0h8M0,-4v8" fill="none" stroke="white" stroke-width="1.5" pointer-events="none"/>
                </g>
                <g id="zoomMin">
                        <use xlink:href="#rim" fill="#404040">
                                <set attributeName="fill" to="#808080" begin="zoomminus.mouseover" end="zoomminus.mouseout"/>
                        </use>
                        <path d="M-4,0h8" fill="none" stroke="white" stroke-width="1.5" pointer-events="none"/>
                </g>
                <g id="dirArrow">
                        <path fill="none" stroke="white" stroke-width="1.5" d="M0,-3.0v7 M-2.5,-0.5L0,-3.0L2.5,-0.5"/>
                </g>
               <g id="resetDef">
                       <use xlink:href="#rim2" fill="#404040">
                               <set attributeName="fill" to="#808080" begin="reset.mouseover" end="reset.mouseout"/>
                       </use>
               </g>
        </defs>

<script type="text/javascript">
var viewWidth = 1357;
var viewHeight = 578;
var sectionId = 'dynsection-27';
</script>
<script xlink:href="svgpan.js"/>
<svg id="graph" class="graph">
<g id="viewport">
<title>RoundManager.StartTurn</title>
<polygon fill="white" stroke="transparent" points="-4,4 -4,-573.57 1353,-573.57 1353,4 -4,4"/>
<!-- Node1 -->
<g id="node1" class="node">
<title>Node1</title>
<g id="a_node1"><a xlink:title="Method for starting the turn">
<polygon fill="#bfbfbf" stroke="black" points="0,-371.07 0,-392.07 147,-392.07 147,-371.07 0,-371.07"/>
<text text-anchor="middle" x="73.5" y="-378.47" font-family="Helvetica,sans-Serif" font-size="12.00">RoundManager.StartTurn</text>
</a>
</g>
</g>
<!-- Node2 -->
<g id="node2" class="node">
<title>Node2</title>
<g id="a_node2"><a xlink:href="class_board_manager.html#a653d38723d03f890d38a1b68a855c569" target="_top" xlink:title="Clear all movable tiles">
<polygon fill="white" stroke="black" points="190,-528.07 190,-549.07 361,-549.07 361,-528.07 190,-528.07"/>
<text text-anchor="middle" x="275.5" y="-535.47" font-family="Helvetica,sans-Serif" font-size="12.00">BoardManager.ClearMovable</text>
</a>
</g>
</g>
<!-- Node1&#45;&gt;Node2 -->
<g id="edge1" class="edge">
<title>Node1&#45;&gt;Node2</title>
<path fill="none" stroke="midnightblue" d="M79.61,-392.17C92.77,-418.26 130.5,-485.79 183,-518.57 186.22,-520.58 189.62,-522.39 193.14,-524.03"/>
<polygon fill="midnightblue" stroke="midnightblue" points="192.09,-527.38 202.67,-527.93 194.74,-520.9 192.09,-527.38"/>
</g>
<!-- Node6 -->
<g id="node6" class="node">
<title>Node6</title>
<g id="a_node6"><a xlink:href="class_u_i_handler.html#affac6b69bae9622fe2d5ef41990456aa" target="_top" xlink:title="Display the list of cards">
<polygon fill="white" stroke="black" points="207,-488.07 207,-509.07 344,-509.07 344,-488.07 207,-488.07"/>
<text text-anchor="middle" x="275.5" y="-495.47" font-family="Helvetica,sans-Serif" font-size="12.00">UIHandler.DisplayDeck</text>
</a>
</g>
</g>
<!-- Node1&#45;&gt;Node6 -->
<g id="edge5" class="edge">
<title>Node1&#45;&gt;Node6</title>
<path fill="none" stroke="midnightblue" d="M83.09,-392.27C99.96,-412.52 139.57,-456.38 183,-478.57 187.59,-480.91 192.44,-482.98 197.43,-484.81"/>
<polygon fill="midnightblue" stroke="midnightblue" points="196.54,-488.21 207.14,-488.04 198.75,-481.56 196.54,-488.21"/>
</g>
<!-- Node8 -->
<g id="node8" class="node">
<title>Node8</title>
<g id="a_node8"><a xlink:href="class_u_i_handler.html#abe1710aca2abe4dbb489f0c49a3af879" target="_top" xlink:title="To display the View Blocker can include the name of the player that needs it&#39;s attention">
<polygon fill="white" stroke="black" points="187.5,-448.07 187.5,-469.07 363.5,-469.07 363.5,-448.07 187.5,-448.07"/>
<text text-anchor="middle" x="275.5" y="-455.47" font-family="Helvetica,sans-Serif" font-size="12.00">UIHandler.DisplayViewBlocker</text>
</a>
</g>
</g>
<!-- Node1&#45;&gt;Node8 -->
<g id="edge7" class="edge">
<title>Node1&#45;&gt;Node8</title>
<path fill="none" stroke="midnightblue" d="M94.03,-392.25C115.4,-403.63 150.9,-421.6 183,-433.57 194.57,-437.88 207.22,-441.82 219.31,-445.22"/>
<polygon fill="midnightblue" stroke="midnightblue" points="218.74,-448.69 229.31,-447.95 220.59,-441.94 218.74,-448.69"/>
</g>
<!-- Node9 -->
<g id="node9" class="node">
<title>Node9</title>
<g id="a_node9"><a xlink:href="class_round_manager.html#aab3f49a5e05508a8e023a497e763c1c8" target="_top" xlink:title="Gets the player controller for the current player">
<polygon fill="white" stroke="black" points="684,-370.07 684,-391.07 874,-391.07 874,-370.07 684,-370.07"/>
<text text-anchor="middle" x="779" y="-377.47" font-family="Helvetica,sans-Serif" font-size="12.00">RoundManager.GetCurrentPlayer</text>
</a>
</g>
</g>
<!-- Node1&#45;&gt;Node9 -->
<g id="edge8" class="edge">
<title>Node1&#45;&gt;Node9</title>
<path fill="none" stroke="midnightblue" d="M147.14,-381.47C272.36,-381.29 529.28,-380.92 673.64,-380.72"/>
<polygon fill="midnightblue" stroke="midnightblue" points="673.84,-384.22 683.83,-380.7 673.83,-377.22 673.84,-384.22"/>
</g>
<!-- Node10 -->
<g id="node10" class="node">
<title>Node10</title>
<g id="a_node10"><a xlink:href="class_turn_controller.html#af16e42b7e61c5a999291327e2e556caa" target="_top" xlink:title=" ">
<polygon fill="white" stroke="black" points="948,-390.07 948,-411.07 1130,-411.07 1130,-390.07 948,-390.07"/>
<text text-anchor="middle" x="1039" y="-397.47" font-family="Helvetica,sans-Serif" font-size="12.00">TurnController.GetCurrentPlayer</text>
</a>
</g>
</g>
<!-- Node1&#45;&gt;Node10 -->
<g id="edge10" class="edge">
<title>Node1&#45;&gt;Node10</title>
<path fill="none" stroke="midnightblue" d="M147.06,-391.35C159.05,-392.65 171.36,-393.8 183,-394.57 455.3,-412.58 777.43,-407.82 937.4,-403.7"/>
<polygon fill="midnightblue" stroke="midnightblue" points="937.8,-407.19 947.7,-403.43 937.61,-400.2 937.8,-407.19"/>
</g>
<!-- Node11 -->
<g id="node11" class="node">
<title>Node11</title>
<g id="a_node11"><a xlink:href="class_player_master_controller.html#a0a7dd34344c455ef5a0d84c2f7c4a4d6" target="_top" xlink:title=" ">
<polygon fill="white" stroke="black" points="183,-332.07 183,-353.07 368,-353.07 368,-332.07 183,-332.07"/>
<text text-anchor="middle" x="275.5" y="-339.47" font-family="Helvetica,sans-Serif" font-size="12.00">PlayerMasterController.GetDeck</text>
</a>
</g>
</g>
<!-- Node1&#45;&gt;Node11 -->
<g id="edge11" class="edge">
<title>Node1&#45;&gt;Node11</title>
<path fill="none" stroke="midnightblue" d="M128.36,-371.07C153.7,-366.13 184.1,-360.2 210.6,-355.03"/>
<polygon fill="midnightblue" stroke="midnightblue" points="211.4,-358.44 220.54,-353.09 210.06,-351.57 211.4,-358.44"/>
</g>
<!-- Node12 -->
<g id="node12" class="node">
<title>Node12</title>
<g id="a_node12"><a xlink:href="class_enum_to_string.html#a078a1fb16a0030544fac1b96a90b6b83" target="_top" xlink:title="Get a string value from a valid enum">
<polygon fill="white" stroke="black" points="408,-332.07 408,-353.07 609,-353.07 609,-332.07 408,-332.07"/>
<text text-anchor="middle" x="508.5" y="-339.47" font-family="Helvetica,sans-Serif" font-size="12.00">EnumToString.GetStringFromEnum</text>
</a>
</g>
</g>
<!-- Node1&#45;&gt;Node12 -->
<g id="edge12" class="edge">
<title>Node1&#45;&gt;Node12</title>
<path fill="none" stroke="midnightblue" d="M88.61,-370.85C108.43,-356.55 146.22,-331.92 183,-322.57 262.69,-302.31 285.99,-316.72 368,-322.57 390.64,-324.18 415.2,-327.26 437.31,-330.52"/>
<polygon fill="midnightblue" stroke="midnightblue" points="436.87,-333.99 447.28,-332.02 437.91,-327.07 436.87,-333.99"/>
</g>
<!-- Node13 -->
<g id="node13" class="node">
<title>Node13</title>
<g id="a_node13"><a xlink:href="class_u_i_handler.html#ac072319b13f11e5ac215a0ed6ab11aa9" target="_top" xlink:title="Resets UI for the next player">
<polygon fill="white" stroke="black" points="208,-252.07 208,-273.07 343,-273.07 343,-252.07 208,-252.07"/>
<text text-anchor="middle" x="275.5" y="-259.47" font-family="Helvetica,sans-Serif" font-size="12.00">UIHandler.InitialiseTurn</text>
</a>
</g>
</g>
<!-- Node1&#45;&gt;Node13 -->
<g id="edge13" class="edge">
<title>Node1&#45;&gt;Node13</title>
<path fill="none" stroke="midnightblue" d="M84.18,-370.82C101.94,-351.74 141.71,-311.86 183,-289.57 193.03,-284.15 204.28,-279.7 215.38,-276.08"/>
<polygon fill="midnightblue" stroke="midnightblue" points="216.51,-279.39 225.05,-273.11 214.46,-272.7 216.51,-279.39"/>
</g>
<!-- Node19 -->
<g id="node19" class="node">
<title>Node19</title>
<g id="a_node19"><a xlink:href="class_a_i_controller_script.html#a606c498cbb805d816c1b06f94631a960" target="_top" xlink:title="to activate the AI or not set which player the AI is controlling">
<polygon fill="white" stroke="black" points="195,-92.07 195,-113.07 356,-113.07 356,-92.07 195,-92.07"/>
<text text-anchor="middle" x="275.5" y="-99.47" font-family="Helvetica,sans-Serif" font-size="12.00">AIControllerScript.SetActive</text>
</a>
</g>
</g>
<!-- Node1&#45;&gt;Node19 -->
<g id="edge21" class="edge">
<title>Node1&#45;&gt;Node19</title>
<path fill="none" stroke="midnightblue" d="M82.1,-370.97C112.04,-329.2 222.19,-175.54 260.92,-121.51"/>
<polygon fill="midnightblue" stroke="midnightblue" points="263.91,-123.34 266.9,-113.18 258.23,-119.27 263.91,-123.34"/>
</g>
<!-- Node3 -->
<g id="node3" class="node">
<title>Node3</title>
<g id="a_node3"><a xlink:href="class_board_tile_script.html#a3ff1d3c491fe4d7e421a624ac0b5be6f" target="_top" xlink:title="setting the glow on the tile">
<polygon fill="white" stroke="black" points="435.5,-528.07 435.5,-549.07 581.5,-549.07 581.5,-528.07 435.5,-528.07"/>
<text text-anchor="middle" x="508.5" y="-535.47" font-family="Helvetica,sans-Serif" font-size="12.00">BoardTileScript.GlowTile</text>
</a>
</g>
</g>
<!-- Node2&#45;&gt;Node3 -->
<g id="edge2" class="edge">
<title>Node2&#45;&gt;Node3</title>
<path fill="none" stroke="midnightblue" d="M361.2,-538.57C382.12,-538.57 404.49,-538.57 425.28,-538.57"/>
<polygon fill="midnightblue" stroke="midnightblue" points="425.35,-542.07 435.35,-538.57 425.35,-535.07 425.35,-542.07"/>
</g>
<!-- Node4 -->
<g id="node4" class="node">
<title>Node4</title>
<g id="a_node4"><a xlink:href="class_board_tile_effect_handler_script.html#a93e813816ff40b3602de22f87a694766" target="_top" xlink:title="turn off the effect for when player can move to that tile">
<polygon fill="white" stroke="black" points="649,-548.07 649,-569.07 909,-569.07 909,-548.07 649,-548.07"/>
<text text-anchor="middle" x="779" y="-555.47" font-family="Helvetica,sans-Serif" font-size="12.00">BoardTileEffectHandlerScript.ToggleEffect_Off</text>
</a>
</g>
</g>
<!-- Node3&#45;&gt;Node4 -->
<g id="edge3" class="edge">
<title>Node3&#45;&gt;Node4</title>
<path fill="none" stroke="midnightblue" d="M581.81,-543.96C599.55,-545.28 619.13,-546.74 638.86,-548.21"/>
<polygon fill="midnightblue" stroke="midnightblue" points="638.63,-551.7 648.86,-548.95 639.15,-544.72 638.63,-551.7"/>
</g>
<!-- Node5 -->
<g id="node5" class="node">
<title>Node5</title>
<g id="a_node5"><a xlink:href="class_board_tile_effect_handler_script.html#a7bf5b2a819cb44463464d5c951bf3143" target="_top" xlink:title="turn on the effect for when player can move to that tile">
<polygon fill="white" stroke="black" points="649,-508.07 649,-529.07 909,-529.07 909,-508.07 649,-508.07"/>
<text text-anchor="middle" x="779" y="-515.47" font-family="Helvetica,sans-Serif" font-size="12.00">BoardTileEffectHandlerScript.ToggleEffect_On</text>
</a>
</g>
</g>
<!-- Node3&#45;&gt;Node5 -->
<g id="edge4" class="edge">
<title>Node3&#45;&gt;Node5</title>
<path fill="none" stroke="midnightblue" d="M581.81,-533.18C599.55,-531.86 619.13,-530.4 638.86,-528.93"/>
<polygon fill="midnightblue" stroke="midnightblue" points="639.15,-532.42 648.86,-528.19 638.63,-525.44 639.15,-532.42"/>
</g>
<!-- Node7 -->
<g id="node7" class="node">
<title>Node7</title>
<g id="a_node7"><a xlink:href="class_card_slot.html#af678d8249e4d52bb791b47d4ed75e7f3" target="_top" xlink:title="Makes the card slot visible and its game object active">
<polygon fill="white" stroke="black" points="448.5,-488.07 448.5,-509.07 568.5,-509.07 568.5,-488.07 448.5,-488.07"/>
<text text-anchor="middle" x="508.5" y="-495.47" font-family="Helvetica,sans-Serif" font-size="12.00">CardSlot.SetVisible</text>
</a>
</g>
</g>
<!-- Node6&#45;&gt;Node7 -->
<g id="edge6" class="edge">
<title>Node6&#45;&gt;Node7</title>
<path fill="none" stroke="midnightblue" d="M344.25,-498.57C373.78,-498.57 408.37,-498.57 438.09,-498.57"/>
<polygon fill="midnightblue" stroke="midnightblue" points="438.38,-502.07 448.38,-498.57 438.38,-495.07 438.38,-502.07"/>
</g>
<!-- Node9&#45;&gt;Node10 -->
<g id="edge9" class="edge">
<title>Node9&#45;&gt;Node10</title>
<path fill="none" stroke="midnightblue" d="M874.24,-387.88C894.9,-389.48 916.84,-391.18 937.73,-392.8"/>
<polygon fill="midnightblue" stroke="midnightblue" points="937.64,-396.3 947.89,-393.58 938.19,-389.32 937.64,-396.3"/>
</g>
<!-- Node13&#45;&gt;Node12 -->
<g id="edge19" class="edge">
<title>Node13&#45;&gt;Node12</title>
<path fill="none" stroke="midnightblue" d="M327.55,-273.2C341.2,-277.21 355.6,-282.56 368,-289.57 386.9,-300.25 384.61,-312.81 404,-322.57 408.63,-324.9 413.51,-326.96 418.51,-328.78"/>
<polygon fill="midnightblue" stroke="midnightblue" points="417.68,-332.19 428.28,-332 419.87,-325.55 417.68,-332.19"/>
</g>
<!-- Node14 -->
<g id="node14" class="node">
<title>Node14</title>
<g id="a_node14"><a xlink:href="class_u_i_handler.html#abe1c78d110b0a4374daed98df71fcff1" target="_top" xlink:title="Displays the notepad">
<polygon fill="white" stroke="black" points="430.5,-252.07 430.5,-273.07 586.5,-273.07 586.5,-252.07 430.5,-252.07"/>
<text text-anchor="middle" x="508.5" y="-259.47" font-family="Helvetica,sans-Serif" font-size="12.00">UIHandler.DisplayNotePad</text>
</a>
</g>
</g>
<!-- Node13&#45;&gt;Node14 -->
<g id="edge14" class="edge">
<title>Node13&#45;&gt;Node14</title>
<path fill="none" stroke="midnightblue" d="M343,-262.57C367.13,-262.57 394.75,-262.57 420.38,-262.57"/>
<polygon fill="midnightblue" stroke="midnightblue" points="420.47,-266.07 430.47,-262.57 420.47,-259.07 420.47,-266.07"/>
</g>
<!-- Node15 -->
<g id="node15" class="node">
<title>Node15</title>
<g id="a_node15"><a xlink:href="class_u_i_handler.html#a2db6b92acd51a72b431b3eacb3884ddd" target="_top" xlink:title="Displays a screen when a player is eliminated">
<polygon fill="white" stroke="black" points="409.5,-212.07 409.5,-233.07 607.5,-233.07 607.5,-212.07 409.5,-212.07"/>
<text text-anchor="middle" x="508.5" y="-219.47" font-family="Helvetica,sans-Serif" font-size="12.00">UIHandler.DisplayPlayerEliminated</text>
</a>
</g>
</g>
<!-- Node13&#45;&gt;Node15 -->
<g id="edge15" class="edge">
<title>Node13&#45;&gt;Node15</title>
<path fill="none" stroke="midnightblue" d="M337.19,-252.06C367.71,-246.78 404.87,-240.34 436.69,-234.83"/>
<polygon fill="midnightblue" stroke="midnightblue" points="437.56,-238.23 446.81,-233.08 436.36,-231.34 437.56,-238.23"/>
</g>
<!-- Node16 -->
<g id="node16" class="node">
<title>Node16</title>
<g id="a_node16"><a xlink:href="class_player_master_controller.html#a12c91851433777ae557a71d9f9a855f0" target="_top" xlink:title=" ">
<polygon fill="white" stroke="black" points="404,-132.07 404,-153.07 613,-153.07 613,-132.07 404,-132.07"/>
<text text-anchor="middle" x="508.5" y="-139.47" font-family="Helvetica,sans-Serif" font-size="12.00">PlayerMasterController.GetCharacter</text>
</a>
</g>
</g>
<!-- Node13&#45;&gt;Node16 -->
<g id="edge16" class="edge">
<title>Node13&#45;&gt;Node16</title>
<path fill="none" stroke="midnightblue" d="M286.58,-251.8C306.73,-230.97 354.35,-185.22 404,-162.57 409.39,-160.11 415.06,-157.96 420.87,-156.07"/>
<polygon fill="midnightblue" stroke="midnightblue" points="422.16,-159.33 430.75,-153.13 420.17,-152.63 422.16,-159.33"/>
</g>
<!-- Node17 -->
<g id="node17" class="node">
<title>Node17</title>
<g id="a_node17"><a xlink:href="class_user_controller.html#a587c55687141d18f375e0504ea4649fa" target="_top" xlink:title="Gets the player controller for the current player">
<polygon fill="white" stroke="black" points="416,-172.07 416,-193.07 601,-193.07 601,-172.07 416,-172.07"/>
<text text-anchor="middle" x="508.5" y="-179.47" font-family="Helvetica,sans-Serif" font-size="12.00">UserController.GetCurrentPlayer</text>
</a>
</g>
</g>
<!-- Node13&#45;&gt;Node17 -->
<g id="edge17" class="edge">
<title>Node13&#45;&gt;Node17</title>
<path fill="none" stroke="midnightblue" d="M295.33,-251.88C319.68,-238.48 363.76,-215.7 404,-202.57 412.34,-199.85 421.19,-197.44 430.07,-195.33"/>
<polygon fill="midnightblue" stroke="midnightblue" points="431.08,-198.69 440.07,-193.08 429.54,-191.86 431.08,-198.69"/>
</g>
<!-- Node18 -->
<g id="node18" class="node">
<title>Node18</title>
<g id="a_node18"><a xlink:href="class_u_i_handler.html#a33d33813339ed163ad4ab8708226f911" target="_top" xlink:title="Updates the current turn text">
<polygon fill="white" stroke="black" points="413,-292.07 413,-313.07 604,-313.07 604,-292.07 413,-292.07"/>
<text text-anchor="middle" x="508.5" y="-299.47" font-family="Helvetica,sans-Serif" font-size="12.00">UIHandler.UpdateCurrentTurnText</text>
</a>
</g>
</g>
<!-- Node13&#45;&gt;Node18 -->
<g id="edge20" class="edge">
<title>Node13&#45;&gt;Node18</title>
<path fill="none" stroke="midnightblue" d="M337.19,-273.08C367.71,-278.36 404.87,-284.8 436.69,-290.31"/>
<polygon fill="midnightblue" stroke="midnightblue" points="436.36,-293.8 446.81,-292.06 437.56,-286.91 436.36,-293.8"/>
</g>
<!-- Node17&#45;&gt;Node9 -->
<g id="edge18" class="edge">
<title>Node17&#45;&gt;Node9</title>
<path fill="none" stroke="midnightblue" d="M590.93,-193.13C598.63,-195.65 606.12,-198.75 613,-202.57 684.35,-242.21 742.19,-323.76 766.11,-361.11"/>
<polygon fill="midnightblue" stroke="midnightblue" points="763.42,-363.4 771.7,-370.01 769.35,-359.68 763.42,-363.4"/>
</g>
<!-- Node19&#45;&gt;Node16 -->
<g id="edge22" class="edge">
<title>Node19&#45;&gt;Node16</title>
<path fill="none" stroke="midnightblue" d="M337.19,-113.08C367.71,-118.36 404.87,-124.8 436.69,-130.31"/>
<polygon fill="midnightblue" stroke="midnightblue" points="436.36,-133.8 446.81,-132.06 437.56,-126.91 436.36,-133.8"/>
</g>
<!-- Node20 -->
<g id="node20" class="node">
<title>Node20</title>
<g id="a_node20"><a xlink:href="class_a_i_controller_script.html#ab124aec8211aa7b8f00c6ef5db6bc96a" target="_top" xlink:title="for out putting the debug stack if outputDebugText is true, it will out put the the console as well">
<polygon fill="white" stroke="black" points="1169,-14.07 1169,-35.07 1349,-35.07 1349,-14.07 1169,-14.07"/>
<text text-anchor="middle" x="1259" y="-21.47" font-family="Helvetica,sans-Serif" font-size="12.00">AIControllerScript.OutputDebug</text>
</a>
</g>
</g>
<!-- Node19&#45;&gt;Node20 -->
<g id="edge23" class="edge">
<title>Node19&#45;&gt;Node20</title>
<path fill="none" stroke="midnightblue" d="M335.37,-92.03C356.9,-88.52 381.49,-84.92 404,-82.57 726.69,-48.94 810.36,-78.69 1133,-44.57 1151.63,-42.6 1171.7,-39.73 1190.2,-36.77"/>
<polygon fill="midnightblue" stroke="midnightblue" points="1190.99,-40.18 1200.29,-35.12 1189.86,-33.28 1190.99,-40.18"/>
</g>
<!-- Node21 -->
<g id="node21" class="node">
<title>Node21</title>
<g id="a_node21"><a xlink:href="class_a_i_controller_script.html#acb4af4c99bf1e7610b45d9f81457d625" target="_top" xlink:title="have AI to start turn">
<polygon fill="white" stroke="black" points="429.5,-14.07 429.5,-35.07 587.5,-35.07 587.5,-14.07 429.5,-14.07"/>
<text text-anchor="middle" x="508.5" y="-21.47" font-family="Helvetica,sans-Serif" font-size="12.00">AIControllerScript.StartTurn</text>
</a>
</g>
</g>
<!-- Node19&#45;&gt;Node21 -->
<g id="edge24" class="edge">
<title>Node19&#45;&gt;Node21</title>
<path fill="none" stroke="midnightblue" d="M299.12,-91.89C324.3,-80.31 366.4,-61.84 404,-49.57 417.85,-45.05 432.98,-40.94 447.29,-37.42"/>
<polygon fill="midnightblue" stroke="midnightblue" points="448.14,-40.82 457.04,-35.08 446.5,-34.01 448.14,-40.82"/>
</g>
<!-- Node24 -->
<g id="node24" class="node">
<title>Node24</title>
<g id="a_node24"><a xlink:href="class_player_master_controller.html#a59a900c17a29aece6fab552e723e22a6" target="_top" xlink:title=" ">
<polygon fill="white" stroke="black" points="417,-92.07 417,-113.07 600,-113.07 600,-92.07 417,-92.07"/>
<text text-anchor="middle" x="508.5" y="-99.47" font-family="Helvetica,sans-Serif" font-size="12.00">PlayerMasterController.ToString</text>
</a>
</g>
</g>
<!-- Node19&#45;&gt;Node24 -->
<g id="edge29" class="edge">
<title>Node19&#45;&gt;Node24</title>
<path fill="none" stroke="midnightblue" d="M356.32,-102.57C372.52,-102.57 389.76,-102.57 406.58,-102.57"/>
<polygon fill="midnightblue" stroke="midnightblue" points="406.98,-106.07 416.98,-102.57 406.98,-99.07 406.98,-106.07"/>
</g>
<!-- Node22 -->
<g id="node22" class="node">
<title>Node22</title>
<g id="a_node22"><a xlink:href="class_a_i_controller_script.html#aaee909cd0f0ffdedd8d8425607d7ccb5" target="_top" xlink:title="to set the AI&#39;s mode">
<polygon fill="white" stroke="black" points="694,-14.07 694,-35.07 864,-35.07 864,-14.07 694,-14.07"/>
<text text-anchor="middle" x="779" y="-21.47" font-family="Helvetica,sans-Serif" font-size="12.00">AIControllerScript.SetAIMode</text>
</a>
</g>
</g>
<!-- Node21&#45;&gt;Node22 -->
<g id="edge25" class="edge">
<title>Node21&#45;&gt;Node22</title>
<path fill="none" stroke="midnightblue" d="M587.52,-24.57C617.56,-24.57 652.18,-24.57 683.6,-24.57"/>
<polygon fill="midnightblue" stroke="midnightblue" points="683.68,-28.07 693.68,-24.57 683.68,-21.07 683.68,-28.07"/>
</g>
<!-- Node22&#45;&gt;Node20 -->
<g id="edge28" class="edge">
<title>Node22&#45;&gt;Node20</title>
<path fill="none" stroke="midnightblue" d="M851.3,-14.02C880.3,-10.23 914.18,-6.43 945,-4.57 1028.4,0.47 1049.71,2.05 1133,-4.57 1152.96,-6.16 1174.55,-9.15 1194.08,-12.34"/>
<polygon fill="midnightblue" stroke="midnightblue" points="1193.64,-15.82 1204.08,-14.02 1194.8,-8.91 1193.64,-15.82"/>
</g>
<!-- Node23 -->
<g id="node23" class="node">
<title>Node23</title>
<g id="a_node23"><a xlink:href="class_a_i_controller_script.html#afcb2875a5501f07a7f44d0fa720266f3" target="_top" xlink:title="to delay the time for the next time the AI does something in the Update">
<polygon fill="white" stroke="black" points="945,-14.07 945,-35.07 1133,-35.07 1133,-14.07 945,-14.07"/>
<text text-anchor="middle" x="1039" y="-21.47" font-family="Helvetica,sans-Serif" font-size="12.00">AIControllerScript.DelayDecision</text>
</a>
</g>
</g>
<!-- Node22&#45;&gt;Node23 -->
<g id="edge26" class="edge">
<title>Node22&#45;&gt;Node23</title>
<path fill="none" stroke="midnightblue" d="M864.12,-24.57C886.54,-24.57 911.02,-24.57 934.35,-24.57"/>
<polygon fill="midnightblue" stroke="midnightblue" points="934.62,-28.07 944.62,-24.57 934.62,-21.07 934.62,-28.07"/>
</g>
<!-- Node23&#45;&gt;Node20 -->
<g id="edge27" class="edge">
<title>Node23&#45;&gt;Node20</title>
<path fill="none" stroke="midnightblue" d="M1133.08,-24.57C1141.48,-24.57 1150,-24.57 1158.44,-24.57"/>
<polygon fill="midnightblue" stroke="midnightblue" points="1158.69,-28.07 1168.69,-24.57 1158.69,-21.07 1158.69,-28.07"/>
</g>
</g>
</svg>
        <g id="navigator" transform="translate(0 0)" fill="#404254">
                <rect fill="#f2f5e9" fill-opacity="0.5" stroke="#606060" stroke-width=".5" x="0" y="0" width="60" height="60"/>
                <use id="zoomplus" xlink:href="#zoomPlus" x="17" y="9" onmousedown="handleZoom(evt,'in')"/>
                <use id="zoomminus" xlink:href="#zoomMin" x="42" y="9" onmousedown="handleZoom(evt,'out')"/>
                <use id="reset" xlink:href="#resetDef" x="30" y="36" onmousedown="handleReset()"/>
                <g id="arrowUp" xlink:href="#dirArrow" transform="translate(30 24)" onmousedown="handlePan(0,-1)">
                  <use xlink:href="#rim" fill="#404040">
                        <set attributeName="fill" to="#808080" begin="arrowUp.mouseover" end="arrowUp.mouseout"/>
                  </use>
                  <path fill="none" stroke="white" stroke-width="1.5" d="M0,-3.0v7 M-2.5,-0.5L0,-3.0L2.5,-0.5"/>
                </g>
                <g id="arrowRight" xlink:href="#dirArrow" transform="rotate(90) translate(36 -43)" onmousedown="handlePan(1,0)">
                  <use xlink:href="#rim" fill="#404040">
                        <set attributeName="fill" to="#808080" begin="arrowRight.mouseover" end="arrowRight.mouseout"/>
                  </use>
                  <path fill="none" stroke="white" stroke-width="1.5" d="M0,-3.0v7 M-2.5,-0.5L0,-3.0L2.5,-0.5"/>
                </g>
                <g id="arrowDown" xlink:href="#dirArrow" transform="rotate(180) translate(-30 -48)" onmousedown="handlePan(0,1)">
                  <use xlink:href="#rim" fill="#404040">
                        <set attributeName="fill" to="#808080" begin="arrowDown.mouseover" end="arrowDown.mouseout"/>
                  </use>
                  <path fill="none" stroke="white" stroke-width="1.5" d="M0,-3.0v7 M-2.5,-0.5L0,-3.0L2.5,-0.5"/>
                </g>
                <g id="arrowLeft" xlink:href="#dirArrow" transform="rotate(270) translate(-36 17)" onmousedown="handlePan(-1,0)">
                  <use xlink:href="#rim" fill="#404040">
                        <set attributeName="fill" to="#808080" begin="arrowLeft.mouseover" end="arrowLeft.mouseout"/>
                  </use>
                  <path fill="none" stroke="white" stroke-width="1.5" d="M0,-3.0v7 M-2.5,-0.5L0,-3.0L2.5,-0.5"/>
                </g>
        </g>
        <svg viewBox="0 0 15 15" width="100%" height="30px" preserveAspectRatio="xMaxYMin meet">
         <g id="arrow_out" transform="scale(0.3 0.3)">
          <a xlink:href="class_round_manager_acf644ae21a6f9ebc2a476fc8603e18fc_cgraph_org.svg" target="_base">
           <rect id="button" ry="5" rx="5" y="6" x="6" height="38" width="38"
                fill="#f2f5e9" fill-opacity="0.5" stroke="#606060" stroke-width="1.0"/>
           <path id="arrow"
             d="M 11.500037,31.436501 C 11.940474,20.09759 22.043105,11.32322 32.158766,21.979434 L 37.068811,17.246167 C 37.068811,17.246167 37.088388,32 37.088388,32 L 22.160133,31.978069 C 22.160133,31.978069 26.997745,27.140456 26.997745,27.140456 C 18.528582,18.264221 13.291696,25.230495 11.500037,31.436501 z"
             style="fill:#404040;"/>
          </a>
         </g>
        </svg>
</svg>
