<?xml version="1.0" encoding="UTF-8" standalone="no"?>
<!DOCTYPE svg PUBLIC "-//W3C//DTD SVG 1.1//EN"
 "http://www.w3.org/Graphics/SVG/1.1/DTD/svg11.dtd">
<!-- Generated by graphviz version 2.47.1 (20210417.1919)
 -->
<!-- Title: UserController.SelectTile Pages: 1 -->
<svg width="1848pt" height="455pt"
 viewBox="0.00 0.00 1848.00 455.00" xmlns="http://www.w3.org/2000/svg" xmlns:xlink="http://www.w3.org/1999/xlink">
<g id="graph0" class="graph" transform="scale(1 1) rotate(0) translate(4 451)">
<title>UserController.SelectTile</title>
<polygon fill="white" stroke="transparent" points="-4,4 -4,-451 1844,-451 1844,4 -4,4"/>
<!-- Node1 -->
<g id="node1" class="node">
<title>Node1</title>
<g id="a_node1"><a xlink:title="Selects a tile for player movement">
<polygon fill="#bfbfbf" stroke="black" points="0,-217.5 0,-238.5 146,-238.5 146,-217.5 0,-217.5"/>
<text text-anchor="middle" x="73" y="-224.9" font-family="Helvetica,sans-Serif" font-size="12.00">UserController.SelectTile</text>
</a>
</g>
</g>
<!-- Node2 -->
<g id="node2" class="node">
<title>Node2</title>
<g id="a_node2"><a xlink:href="class_round_manager.html#adfd4f66436e06c12a25c9236b629f369" target="_top" xlink:title="moving the current player to the selected tile">
<polygon fill="white" stroke="black" points="182,-217.5 182,-238.5 343,-238.5 343,-217.5 182,-217.5"/>
<text text-anchor="middle" x="262.5" y="-224.9" font-family="Helvetica,sans-Serif" font-size="12.00">RoundManager.MovePlayer</text>
</a>
</g>
</g>
<!-- Node1&#45;&gt;Node2 -->
<g id="edge1" class="edge">
<title>Node1&#45;&gt;Node2</title>
<path fill="none" stroke="midnightblue" d="M146.22,-228C154.6,-228 163.22,-228 171.8,-228"/>
<polygon fill="midnightblue" stroke="midnightblue" points="171.83,-231.5 181.83,-228 171.83,-224.5 171.83,-231.5"/>
</g>
<!-- Node3 -->
<g id="node3" class="node">
<title>Node3</title>
<g id="a_node3"><a xlink:href="class_board_manager.html#a653d38723d03f890d38a1b68a855c569" target="_top" xlink:title="Clear all movable tiles">
<polygon fill="white" stroke="black" points="393.5,-365.5 393.5,-386.5 564.5,-386.5 564.5,-365.5 393.5,-365.5"/>
<text text-anchor="middle" x="479" y="-372.9" font-family="Helvetica,sans-Serif" font-size="12.00">BoardManager.ClearMovable</text>
</a>
</g>
</g>
<!-- Node2&#45;&gt;Node3 -->
<g id="edge2" class="edge">
<title>Node2&#45;&gt;Node3</title>
<path fill="none" stroke="midnightblue" d="M272.36,-238.57C290.48,-259.61 333.87,-307.21 379,-336 395.75,-346.68 415.82,-355.43 433.5,-361.99"/>
<polygon fill="midnightblue" stroke="midnightblue" points="432.44,-365.33 443.04,-365.41 434.81,-358.74 432.44,-365.33"/>
</g>
<!-- Node7 -->
<g id="node7" class="node">
<title>Node7</title>
<g id="a_node7"><a xlink:href="class_round_manager.html#a8d52738f26bc5b5eea98f8e3dd213744" target="_top" xlink:title="roll dice after a delay time, used for free roll tile">
<polygon fill="white" stroke="black" points="404.5,-305.5 404.5,-326.5 553.5,-326.5 553.5,-305.5 404.5,-305.5"/>
<text text-anchor="middle" x="479" y="-312.9" font-family="Helvetica,sans-Serif" font-size="12.00">RoundManager.DelayRoll</text>
</a>
</g>
</g>
<!-- Node2&#45;&gt;Node7 -->
<g id="edge6" class="edge">
<title>Node2&#45;&gt;Node7</title>
<path fill="none" stroke="midnightblue" d="M279.69,-238.55C301.47,-252.33 341.78,-276.42 379,-291 390.72,-295.59 403.56,-299.56 415.99,-302.9"/>
<polygon fill="midnightblue" stroke="midnightblue" points="415.29,-306.33 425.84,-305.44 417.03,-299.55 415.29,-306.33"/>
</g>
<!-- Node18 -->
<g id="node18" class="node">
<title>Node18</title>
<g id="a_node18"><a xlink:href="class_round_manager.html#afb3821e66d79eeb0991f620ced62940a" target="_top" xlink:title="Maek suggestion after a delay time, used for free suggestion tile">
<polygon fill="white" stroke="black" points="403.5,-217.5 403.5,-238.5 554.5,-238.5 554.5,-217.5 403.5,-217.5"/>
<text text-anchor="middle" x="479" y="-224.9" font-family="Helvetica,sans-Serif" font-size="12.00">RoundManager.DelaySug</text>
</a>
</g>
</g>
<!-- Node2&#45;&gt;Node18 -->
<g id="edge18" class="edge">
<title>Node2&#45;&gt;Node18</title>
<path fill="none" stroke="midnightblue" d="M343.07,-228C359.36,-228 376.56,-228 393.04,-228"/>
<polygon fill="midnightblue" stroke="midnightblue" points="393.18,-231.5 403.18,-228 393.18,-224.5 393.18,-231.5"/>
</g>
<!-- Node20 -->
<g id="node20" class="node">
<title>Node20</title>
<g id="a_node20"><a xlink:href="class_turn_controller.html#af16e42b7e61c5a999291327e2e556caa" target="_top" xlink:title=" ">
<polygon fill="white" stroke="black" points="1643,-247.5 1643,-268.5 1825,-268.5 1825,-247.5 1643,-247.5"/>
<text text-anchor="middle" x="1734" y="-254.9" font-family="Helvetica,sans-Serif" font-size="12.00">TurnController.GetCurrentPlayer</text>
</a>
</g>
</g>
<!-- Node2&#45;&gt;Node20 -->
<g id="edge28" class="edge">
<title>Node2&#45;&gt;Node20</title>
<path fill="none" stroke="midnightblue" d="M318.58,-238.51C337.66,-241.89 359.22,-245.43 379,-248 525.44,-267.06 562.33,-277 710,-277 710,-277 710,-277 1253.5,-277 1384.66,-277 1535.84,-269.81 1632.81,-264.28"/>
<polygon fill="midnightblue" stroke="midnightblue" points="1633.12,-267.77 1642.9,-263.7 1632.71,-260.78 1633.12,-267.77"/>
</g>
<!-- Node25 -->
<g id="node25" class="node">
<title>Node25</title>
<g id="a_node25"><a xlink:href="class_player_master_controller.html#a0447a8a21b5c0f2c94f9d27e0bcd0830" target="_top" xlink:title=" ">
<polygon fill="white" stroke="black" points="1139,-69.5 1139,-90.5 1366,-90.5 1366,-69.5 1139,-69.5"/>
<text text-anchor="middle" x="1252.5" y="-76.9" font-family="Helvetica,sans-Serif" font-size="12.00">PlayerMasterController.GetCurrentRoom</text>
</a>
</g>
</g>
<!-- Node2&#45;&gt;Node25 -->
<g id="edge29" class="edge">
<title>Node2&#45;&gt;Node25</title>
<path fill="none" stroke="midnightblue" d="M323.73,-217.48C341.52,-214.4 361.04,-211.04 379,-208 483.82,-190.26 509.9,-185.03 615,-169 809.46,-139.34 1037.94,-108.32 1161.37,-91.89"/>
<polygon fill="midnightblue" stroke="midnightblue" points="1162.07,-95.32 1171.52,-90.53 1161.15,-88.38 1162.07,-95.32"/>
</g>
<!-- Node27 -->
<g id="node27" class="node">
<title>Node27</title>
<g id="a_node27"><a xlink:href="class_player_token_script.html#a98d00a98b6bf03a74b59a9127e951cfe" target="_top" xlink:title=" ">
<polygon fill="white" stroke="black" points="397,-81.5 397,-102.5 561,-102.5 561,-81.5 397,-81.5"/>
<text text-anchor="middle" x="479" y="-88.9" font-family="Helvetica,sans-Serif" font-size="12.00">PlayerTokenScript.IsInRoom</text>
</a>
</g>
</g>
<!-- Node2&#45;&gt;Node27 -->
<g id="edge30" class="edge">
<title>Node2&#45;&gt;Node27</title>
<path fill="none" stroke="midnightblue" d="M271.44,-217.26C288.52,-194.98 331.09,-143.58 379,-117 387.34,-112.37 396.55,-108.59 405.89,-105.49"/>
<polygon fill="midnightblue" stroke="midnightblue" points="407.11,-108.78 415.65,-102.51 405.06,-102.09 407.11,-108.78"/>
</g>
<!-- Node28 -->
<g id="node28" class="node">
<title>Node28</title>
<g id="a_node28"><a xlink:href="class_player_master_controller.html#a9b23c4d50fabbc44dbba2b0db542efce" target="_top" xlink:title="moving the player to a certain tile">
<polygon fill="white" stroke="black" points="379,-41.5 379,-62.5 579,-62.5 579,-41.5 379,-41.5"/>
<text text-anchor="middle" x="479" y="-48.9" font-family="Helvetica,sans-Serif" font-size="12.00">PlayerMasterController.MovePlayer</text>
</a>
</g>
</g>
<!-- Node2&#45;&gt;Node28 -->
<g id="edge31" class="edge">
<title>Node2&#45;&gt;Node28</title>
<path fill="none" stroke="midnightblue" d="M268.11,-217.16C280.95,-188.33 320.14,-109.43 379,-72 382.18,-69.98 385.53,-68.15 388.99,-66.5"/>
<polygon fill="midnightblue" stroke="midnightblue" points="390.53,-69.66 398.39,-62.56 387.81,-63.2 390.53,-69.66"/>
</g>
<!-- Node4 -->
<g id="node4" class="node">
<title>Node4</title>
<g id="a_node4"><a xlink:href="class_board_tile_script.html#a3ff1d3c491fe4d7e421a624ac0b5be6f" target="_top" xlink:title="setting the glow on the tile">
<polygon fill="white" stroke="black" points="638,-385.5 638,-406.5 784,-406.5 784,-385.5 638,-385.5"/>
<text text-anchor="middle" x="711" y="-392.9" font-family="Helvetica,sans-Serif" font-size="12.00">BoardTileScript.GlowTile</text>
</a>
</g>
</g>
<!-- Node3&#45;&gt;Node4 -->
<g id="edge3" class="edge">
<title>Node3&#45;&gt;Node4</title>
<path fill="none" stroke="midnightblue" d="M564.66,-383.36C585.26,-385.15 607.26,-387.07 627.75,-388.85"/>
<polygon fill="midnightblue" stroke="midnightblue" points="627.72,-392.36 637.99,-389.74 628.33,-385.38 627.72,-392.36"/>
</g>
<!-- Node5 -->
<g id="node5" class="node">
<title>Node5</title>
<g id="a_node5"><a xlink:href="class_board_tile_effect_handler_script.html#a93e813816ff40b3602de22f87a694766" target="_top" xlink:title="turn off the effect for when player can move to that tile">
<polygon fill="white" stroke="black" points="843,-425.5 843,-446.5 1103,-446.5 1103,-425.5 843,-425.5"/>
<text text-anchor="middle" x="973" y="-432.9" font-family="Helvetica,sans-Serif" font-size="12.00">BoardTileEffectHandlerScript.ToggleEffect_Off</text>
</a>
</g>
</g>
<!-- Node4&#45;&gt;Node5 -->
<g id="edge4" class="edge">
<title>Node4&#45;&gt;Node5</title>
<path fill="none" stroke="midnightblue" d="M780.31,-406.51C815.11,-411.86 857.58,-418.4 893.69,-423.95"/>
<polygon fill="midnightblue" stroke="midnightblue" points="893.28,-427.43 903.69,-425.49 894.34,-420.51 893.28,-427.43"/>
</g>
<!-- Node6 -->
<g id="node6" class="node">
<title>Node6</title>
<g id="a_node6"><a xlink:href="class_board_tile_effect_handler_script.html#a7bf5b2a819cb44463464d5c951bf3143" target="_top" xlink:title="turn on the effect for when player can move to that tile">
<polygon fill="white" stroke="black" points="843,-385.5 843,-406.5 1103,-406.5 1103,-385.5 843,-385.5"/>
<text text-anchor="middle" x="973" y="-392.9" font-family="Helvetica,sans-Serif" font-size="12.00">BoardTileEffectHandlerScript.ToggleEffect_On</text>
</a>
</g>
</g>
<!-- Node4&#45;&gt;Node6 -->
<g id="edge5" class="edge">
<title>Node4&#45;&gt;Node6</title>
<path fill="none" stroke="midnightblue" d="M784.08,-396C799.26,-396 815.77,-396 832.49,-396"/>
<polygon fill="midnightblue" stroke="midnightblue" points="832.92,-399.5 842.92,-396 832.92,-392.5 832.92,-399.5"/>
</g>
<!-- Node8 -->
<g id="node8" class="node">
<title>Node8</title>
<g id="a_node8"><a xlink:href="class_round_manager.html#ab795c17242b95ab2cef508da5daa2593" target="_top" xlink:title="Rolls dice, will not roll if the player has rolled aready. Pass true to forcfully roll it">
<polygon fill="white" stroke="black" points="639,-305.5 639,-326.5 783,-326.5 783,-305.5 639,-305.5"/>
<text text-anchor="middle" x="711" y="-312.9" font-family="Helvetica,sans-Serif" font-size="12.00">RoundManager.RollDice</text>
</a>
</g>
</g>
<!-- Node7&#45;&gt;Node8 -->
<g id="edge7" class="edge">
<title>Node7&#45;&gt;Node8</title>
<path fill="none" stroke="midnightblue" d="M553.72,-316C577.52,-316 604.04,-316 628.37,-316"/>
<polygon fill="midnightblue" stroke="midnightblue" points="628.66,-319.5 638.66,-316 628.66,-312.5 628.66,-319.5"/>
</g>
<!-- Node9 -->
<g id="node9" class="node">
<title>Node9</title>
<g id="a_node9"><a xlink:href="class_round_manager.html#a5cfea3b56a7576ad02c82c27bb0c6ba7" target="_top" xlink:title="reset the dice after a time delay">
<polygon fill="white" stroke="black" points="880.5,-345.5 880.5,-366.5 1065.5,-366.5 1065.5,-345.5 880.5,-345.5"/>
<text text-anchor="middle" x="973" y="-352.9" font-family="Helvetica,sans-Serif" font-size="12.00">RoundManager.DelayResetDice</text>
</a>
</g>
</g>
<!-- Node8&#45;&gt;Node9 -->
<g id="edge8" class="edge">
<title>Node8&#45;&gt;Node9</title>
<path fill="none" stroke="midnightblue" d="M780.31,-326.51C815.11,-331.86 857.58,-338.4 893.69,-343.95"/>
<polygon fill="midnightblue" stroke="midnightblue" points="893.28,-347.43 903.69,-345.49 894.34,-340.51 893.28,-347.43"/>
</g>
<!-- Node16 -->
<g id="node16" class="node">
<title>Node16</title>
<g id="a_node16"><a xlink:href="class_dice.html#a333ed52f536c0e7748fafe9422b179b5" target="_top" xlink:title="Roll the Dice">
<polygon fill="white" stroke="black" points="928.5,-305.5 928.5,-326.5 1017.5,-326.5 1017.5,-305.5 928.5,-305.5"/>
<text text-anchor="middle" x="973" y="-312.9" font-family="Helvetica,sans-Serif" font-size="12.00">Dice.RollDice</text>
</a>
</g>
</g>
<!-- Node8&#45;&gt;Node16 -->
<g id="edge15" class="edge">
<title>Node8&#45;&gt;Node16</title>
<path fill="none" stroke="midnightblue" d="M783.05,-316C825.69,-316 879.08,-316 918.22,-316"/>
<polygon fill="midnightblue" stroke="midnightblue" points="918.35,-319.5 928.35,-316 918.35,-312.5 918.35,-319.5"/>
</g>
<!-- Node10 -->
<g id="node10" class="node">
<title>Node10</title>
<g id="a_node10"><a xlink:href="class_dice.html#ade1dc529eeb31f31e668c595c5748e67" target="_top" xlink:title="Reset the dice">
<polygon fill="white" stroke="black" points="1202.5,-345.5 1202.5,-366.5 1302.5,-366.5 1302.5,-345.5 1202.5,-345.5"/>
<text text-anchor="middle" x="1252.5" y="-352.9" font-family="Helvetica,sans-Serif" font-size="12.00">Dice.ResetDice</text>
</a>
</g>
</g>
<!-- Node9&#45;&gt;Node10 -->
<g id="edge9" class="edge">
<title>Node9&#45;&gt;Node10</title>
<path fill="none" stroke="midnightblue" d="M1065.63,-356C1107.34,-356 1155.48,-356 1192.33,-356"/>
<polygon fill="midnightblue" stroke="midnightblue" points="1192.4,-359.5 1202.4,-356 1192.4,-352.5 1192.4,-359.5"/>
</g>
<!-- Node11 -->
<g id="node11" class="node">
<title>Node11</title>
<g id="a_node11"><a xlink:href="class_dice.html#ace4c995eb73b784d1076fde140ce85af" target="_top" xlink:title="Can Dice be reset">
<polygon fill="white" stroke="black" points="1448.5,-385.5 1448.5,-406.5 1545.5,-406.5 1545.5,-385.5 1448.5,-385.5"/>
<text text-anchor="middle" x="1497" y="-392.9" font-family="Helvetica,sans-Serif" font-size="12.00">Dice.CanReset</text>
</a>
</g>
</g>
<!-- Node10&#45;&gt;Node11 -->
<g id="edge10" class="edge">
<title>Node10&#45;&gt;Node11</title>
<path fill="none" stroke="midnightblue" d="M1302.57,-364.09C1341.82,-370.57 1396.94,-379.66 1438.3,-386.48"/>
<polygon fill="midnightblue" stroke="midnightblue" points="1437.8,-389.95 1448.24,-388.12 1438.94,-383.04 1437.8,-389.95"/>
</g>
<!-- Node13 -->
<g id="node13" class="node">
<title>Node13</title>
<g id="a_node13"><a xlink:href="class_camera_close_up.html#ad31062bdf359a453fc85ebdd71fa1bae" target="_top" xlink:title="Clear camera close up">
<polygon fill="white" stroke="black" points="1406,-345.5 1406,-366.5 1588,-366.5 1588,-345.5 1406,-345.5"/>
<text text-anchor="middle" x="1497" y="-352.9" font-family="Helvetica,sans-Serif" font-size="12.00">CameraCloseUp.ClearCloseUp</text>
</a>
</g>
</g>
<!-- Node10&#45;&gt;Node13 -->
<g id="edge12" class="edge">
<title>Node10&#45;&gt;Node13</title>
<path fill="none" stroke="midnightblue" d="M1302.57,-356C1329.3,-356 1363.38,-356 1395.46,-356"/>
<polygon fill="midnightblue" stroke="midnightblue" points="1395.8,-359.5 1405.8,-356 1395.8,-352.5 1395.8,-359.5"/>
</g>
<!-- Node15 -->
<g id="node15" class="node">
<title>Node15</title>
<g id="a_node15"><a xlink:href="class_die.html#abc11c3d2bf0c0fba1555093eb5a8469e" target="_top" xlink:title="Reset Die to original position">
<polygon fill="white" stroke="black" points="1453,-305.5 1453,-326.5 1541,-326.5 1541,-305.5 1453,-305.5"/>
<text text-anchor="middle" x="1497" y="-312.9" font-family="Helvetica,sans-Serif" font-size="12.00">Die.ResetDie</text>
</a>
</g>
</g>
<!-- Node10&#45;&gt;Node15 -->
<g id="edge14" class="edge">
<title>Node10&#45;&gt;Node15</title>
<path fill="none" stroke="midnightblue" d="M1302.57,-347.91C1343.23,-341.2 1400.91,-331.68 1442.7,-324.79"/>
<polygon fill="midnightblue" stroke="midnightblue" points="1443.39,-328.22 1452.69,-323.14 1442.25,-321.32 1443.39,-328.22"/>
</g>
<!-- Node12 -->
<g id="node12" class="node">
<title>Node12</title>
<g id="a_node12"><a xlink:href="class_die.html#a390d46459637fd249926cda472255d84" target="_top" xlink:title="Can the die be reset">
<polygon fill="white" stroke="black" points="1679,-385.5 1679,-406.5 1789,-406.5 1789,-385.5 1679,-385.5"/>
<text text-anchor="middle" x="1734" y="-392.9" font-family="Helvetica,sans-Serif" font-size="12.00">Die.CanResetDie</text>
</a>
</g>
</g>
<!-- Node11&#45;&gt;Node12 -->
<g id="edge11" class="edge">
<title>Node11&#45;&gt;Node12</title>
<path fill="none" stroke="midnightblue" d="M1545.56,-396C1581.01,-396 1629.83,-396 1668.76,-396"/>
<polygon fill="midnightblue" stroke="midnightblue" points="1668.94,-399.5 1678.94,-396 1668.94,-392.5 1668.94,-399.5"/>
</g>
<!-- Node14 -->
<g id="node14" class="node">
<title>Node14</title>
<g id="a_node14"><a xlink:href="class_camera_close_up.html#ae902d2ccdf969212e0cb84f638f68851" target="_top" xlink:title="Delay then clear close up">
<polygon fill="white" stroke="black" points="1628,-345.5 1628,-366.5 1840,-366.5 1840,-345.5 1628,-345.5"/>
<text text-anchor="middle" x="1734" y="-352.9" font-family="Helvetica,sans-Serif" font-size="12.00">CameraCloseUp.ClearCloseUpDelay</text>
</a>
</g>
</g>
<!-- Node13&#45;&gt;Node14 -->
<g id="edge13" class="edge">
<title>Node13&#45;&gt;Node14</title>
<path fill="none" stroke="midnightblue" d="M1588.19,-356C1597.79,-356 1607.66,-356 1617.5,-356"/>
<polygon fill="midnightblue" stroke="midnightblue" points="1617.74,-359.5 1627.74,-356 1617.74,-352.5 1617.74,-359.5"/>
</g>
<!-- Node17 -->
<g id="node17" class="node">
<title>Node17</title>
<g id="a_node17"><a xlink:href="class_die.html#a4995ecb1a88aa7f1043ae71ba8aa3ef5" target="_top" xlink:title="Roll the die">
<polygon fill="white" stroke="black" points="1214,-305.5 1214,-326.5 1291,-326.5 1291,-305.5 1214,-305.5"/>
<text text-anchor="middle" x="1252.5" y="-312.9" font-family="Helvetica,sans-Serif" font-size="12.00">Die.RollDie</text>
</a>
</g>
</g>
<!-- Node16&#45;&gt;Node17 -->
<g id="edge16" class="edge">
<title>Node16&#45;&gt;Node17</title>
<path fill="none" stroke="midnightblue" d="M1017.66,-316C1068.32,-316 1151.55,-316 1203.85,-316"/>
<polygon fill="midnightblue" stroke="midnightblue" points="1203.88,-319.5 1213.88,-316 1203.88,-312.5 1203.88,-319.5"/>
</g>
<!-- Node17&#45;&gt;Node15 -->
<g id="edge17" class="edge">
<title>Node17&#45;&gt;Node15</title>
<path fill="none" stroke="midnightblue" d="M1291.12,-316C1331.82,-316 1397.01,-316 1442.9,-316"/>
<polygon fill="midnightblue" stroke="midnightblue" points="1442.97,-319.5 1452.97,-316 1442.97,-312.5 1442.97,-319.5"/>
</g>
<!-- Node19 -->
<g id="node19" class="node">
<title>Node19</title>
<g id="a_node19"><a xlink:href="class_round_manager.html#aab3f49a5e05508a8e023a497e763c1c8" target="_top" xlink:title="Gets the player controller for the current player">
<polygon fill="white" stroke="black" points="1402,-227.5 1402,-248.5 1592,-248.5 1592,-227.5 1402,-227.5"/>
<text text-anchor="middle" x="1497" y="-234.9" font-family="Helvetica,sans-Serif" font-size="12.00">RoundManager.GetCurrentPlayer</text>
</a>
</g>
</g>
<!-- Node18&#45;&gt;Node19 -->
<g id="edge19" class="edge">
<title>Node18&#45;&gt;Node19</title>
<path fill="none" stroke="midnightblue" d="M554.71,-228.74C733.4,-230.49 1185.84,-234.95 1391.45,-236.97"/>
<polygon fill="midnightblue" stroke="midnightblue" points="1391.61,-240.47 1401.65,-237.07 1391.68,-233.47 1391.61,-240.47"/>
</g>
<!-- Node21 -->
<g id="node21" class="node">
<title>Node21</title>
<g id="a_node21"><a xlink:href="class_u_i_handler.html#a52241b6fefb8a446c2c000202216bfd2" target="_top" xlink:title="Makes suggestion when the button is pressed">
<polygon fill="white" stroke="black" points="615,-178.5 615,-199.5 807,-199.5 807,-178.5 615,-178.5"/>
<text text-anchor="middle" x="711" y="-185.9" font-family="Helvetica,sans-Serif" font-size="12.00">UIHandler.MakeSuggestionButton</text>
</a>
</g>
</g>
<!-- Node18&#45;&gt;Node21 -->
<g id="edge21" class="edge">
<title>Node18&#45;&gt;Node21</title>
<path fill="none" stroke="midnightblue" d="M541.94,-217.5C571.46,-212.49 606.97,-206.47 637.72,-201.26"/>
<polygon fill="midnightblue" stroke="midnightblue" points="638.68,-204.64 647.95,-199.52 637.51,-197.74 638.68,-204.64"/>
</g>
<!-- Node19&#45;&gt;Node20 -->
<g id="edge20" class="edge">
<title>Node19&#45;&gt;Node20</title>
<path fill="none" stroke="midnightblue" d="M1592.23,-246.02C1605.56,-247.15 1619.31,-248.32 1632.74,-249.47"/>
<polygon fill="midnightblue" stroke="midnightblue" points="1632.69,-252.98 1642.95,-250.34 1633.28,-246 1632.69,-252.98"/>
</g>
<!-- Node22 -->
<g id="node22" class="node">
<title>Node22</title>
<g id="a_node22"><a xlink:href="class_u_i_handler.html#a99048b81a1303baba7efd44095c0f235" target="_top" xlink:title="Displays Suggestion menu, set the room if in a room">
<polygon fill="white" stroke="black" points="874.5,-159.5 874.5,-180.5 1071.5,-180.5 1071.5,-159.5 874.5,-159.5"/>
<text text-anchor="middle" x="973" y="-166.9" font-family="Helvetica,sans-Serif" font-size="12.00">UIHandler.DisplayMenuSuggestion</text>
</a>
</g>
</g>
<!-- Node21&#45;&gt;Node22 -->
<g id="edge22" class="edge">
<title>Node21&#45;&gt;Node22</title>
<path fill="none" stroke="midnightblue" d="M807.34,-182.03C825.89,-180.68 845.45,-179.25 864.37,-177.87"/>
<polygon fill="midnightblue" stroke="midnightblue" points="864.78,-181.34 874.5,-177.13 864.27,-174.36 864.78,-181.34"/>
</g>
<!-- Node23 -->
<g id="node23" class="node">
<title>Node23</title>
<g id="a_node23"><a xlink:href="class_card_manager.html#a124d7d9ab3a0e7c22ca64c15da76d4b1" target="_top" xlink:title="Looks for the specified weapon card">
<polygon fill="white" stroke="black" points="1181.5,-149.5 1181.5,-170.5 1323.5,-170.5 1323.5,-149.5 1181.5,-149.5"/>
<text text-anchor="middle" x="1252.5" y="-156.9" font-family="Helvetica,sans-Serif" font-size="12.00">CardManager.FindCard</text>
</a>
</g>
</g>
<!-- Node22&#45;&gt;Node23 -->
<g id="edge23" class="edge">
<title>Node22&#45;&gt;Node23</title>
<path fill="none" stroke="midnightblue" d="M1071.84,-166.47C1104.22,-165.31 1139.87,-164.02 1170.82,-162.91"/>
<polygon fill="midnightblue" stroke="midnightblue" points="1171.26,-166.39 1181.12,-162.54 1171,-159.4 1171.26,-166.39"/>
</g>
<!-- Node24 -->
<g id="node24" class="node">
<title>Node24</title>
<g id="a_node24"><a xlink:href="class_user_controller.html#a587c55687141d18f375e0504ea4649fa" target="_top" xlink:title="Gets the player controller for the current player">
<polygon fill="white" stroke="black" points="1160,-189.5 1160,-210.5 1345,-210.5 1345,-189.5 1160,-189.5"/>
<text text-anchor="middle" x="1252.5" y="-196.9" font-family="Helvetica,sans-Serif" font-size="12.00">UserController.GetCurrentPlayer</text>
</a>
</g>
</g>
<!-- Node22&#45;&gt;Node24 -->
<g id="edge24" class="edge">
<title>Node22&#45;&gt;Node24</title>
<path fill="none" stroke="midnightblue" d="M1071.45,-180.53C1096.81,-183.28 1124.21,-186.24 1149.79,-189"/>
<polygon fill="midnightblue" stroke="midnightblue" points="1149.55,-192.5 1159.87,-190.09 1150.31,-185.54 1149.55,-192.5"/>
</g>
<!-- Node22&#45;&gt;Node25 -->
<g id="edge26" class="edge">
<title>Node22&#45;&gt;Node25</title>
<path fill="none" stroke="midnightblue" d="M1069.52,-159.47C1081.28,-155.9 1092.75,-151.2 1103,-145 1124.92,-131.75 1116.98,-113.08 1139,-100 1142.5,-97.92 1146.16,-96.05 1149.93,-94.36"/>
<polygon fill="midnightblue" stroke="midnightblue" points="1151.52,-97.49 1159.51,-90.54 1148.93,-90.99 1151.52,-97.49"/>
</g>
<!-- Node26 -->
<g id="node26" class="node">
<title>Node26</title>
<g id="a_node26"><a xlink:href="class_suggestion.html#aec2e9ce82ae5f51cea7570bc6dafa43a" target="_top" xlink:title=" ">
<polygon fill="white" stroke="black" points="1178,-109.5 1178,-130.5 1327,-130.5 1327,-109.5 1178,-109.5"/>
<text text-anchor="middle" x="1252.5" y="-116.9" font-family="Helvetica,sans-Serif" font-size="12.00">Suggestion.SetSugRoom</text>
</a>
</g>
</g>
<!-- Node22&#45;&gt;Node26 -->
<g id="edge27" class="edge">
<title>Node22&#45;&gt;Node26</title>
<path fill="none" stroke="midnightblue" d="M1031.64,-159.46C1063.32,-153.69 1103.32,-146.41 1139,-140 1152.83,-137.51 1167.61,-134.87 1181.77,-132.35"/>
<polygon fill="midnightblue" stroke="midnightblue" points="1182.71,-135.74 1191.94,-130.54 1181.48,-128.85 1182.71,-135.74"/>
</g>
<!-- Node24&#45;&gt;Node19 -->
<g id="edge25" class="edge">
<title>Node24&#45;&gt;Node19</title>
<path fill="none" stroke="midnightblue" d="M1320.73,-210.53C1351.08,-215.29 1387.12,-220.94 1418.59,-225.87"/>
<polygon fill="midnightblue" stroke="midnightblue" points="1418.22,-229.35 1428.64,-227.44 1419.3,-222.44 1418.22,-229.35"/>
</g>
<!-- Node29 -->
<g id="node29" class="node">
<title>Node29</title>
<g id="a_node29"><a xlink:href="class_player_token_script.html#af62557bd1edf071efadf23c84f0db1ad" target="_top" xlink:title=" ">
<polygon fill="white" stroke="black" points="623,-40.5 623,-61.5 799,-61.5 799,-40.5 623,-40.5"/>
<text text-anchor="middle" x="711" y="-47.9" font-family="Helvetica,sans-Serif" font-size="12.00">PlayerTokenScript.MoveToken</text>
</a>
</g>
</g>
<!-- Node28&#45;&gt;Node29 -->
<g id="edge32" class="edge">
<title>Node28&#45;&gt;Node29</title>
<path fill="none" stroke="midnightblue" d="M579.21,-51.57C590.29,-51.52 601.56,-51.47 612.62,-51.42"/>
<polygon fill="midnightblue" stroke="midnightblue" points="612.71,-54.92 622.69,-51.38 612.68,-47.92 612.71,-54.92"/>
</g>
<!-- Node30 -->
<g id="node30" class="node">
<title>Node30</title>
<g id="a_node30"><a xlink:href="class_camera_close_up.html#aee634e08987ea079413fd67b737b2c5d" target="_top" xlink:title="Set camera close up to character">
<polygon fill="white" stroke="black" points="861,-40.5 861,-61.5 1085,-61.5 1085,-40.5 861,-40.5"/>
<text text-anchor="middle" x="973" y="-47.9" font-family="Helvetica,sans-Serif" font-size="12.00">CameraCloseUp.SetCharacterCloseUp</text>
</a>
</g>
</g>
<!-- Node29&#45;&gt;Node30 -->
<g id="edge33" class="edge">
<title>Node29&#45;&gt;Node30</title>
<path fill="none" stroke="midnightblue" d="M799.3,-51C815.82,-51 833.39,-51 850.74,-51"/>
<polygon fill="midnightblue" stroke="midnightblue" points="850.92,-54.5 860.92,-51 850.92,-47.5 850.92,-54.5"/>
</g>
<!-- Node32 -->
<g id="node32" class="node">
<title>Node32</title>
<g id="a_node32"><a xlink:href="class_board_tile_script.html#a6257d1f00b3732f6d61a4d98b445890c" target="_top" xlink:title="setting the player token that is currently on this tile">
<polygon fill="white" stroke="black" points="897,-0.5 897,-21.5 1049,-21.5 1049,-0.5 897,-0.5"/>
<text text-anchor="middle" x="973" y="-7.9" font-family="Helvetica,sans-Serif" font-size="12.00">BoardTileScript.SetToken</text>
</a>
</g>
</g>
<!-- Node29&#45;&gt;Node32 -->
<g id="edge35" class="edge">
<title>Node29&#45;&gt;Node32</title>
<path fill="none" stroke="midnightblue" d="M780.31,-40.49C815.11,-35.14 857.58,-28.6 893.69,-23.05"/>
<polygon fill="midnightblue" stroke="midnightblue" points="894.34,-26.49 903.69,-21.51 893.28,-19.57 894.34,-26.49"/>
</g>
<!-- Node31 -->
<g id="node31" class="node">
<title>Node31</title>
<g id="a_node31"><a xlink:href="class_camera_close_up.html#a1d70afa00d6f67abee342c029af88fcf" target="_top" xlink:title="Set close up point">
<polygon fill="white" stroke="black" points="1166.5,-29.5 1166.5,-50.5 1338.5,-50.5 1338.5,-29.5 1166.5,-29.5"/>
<text text-anchor="middle" x="1252.5" y="-36.9" font-family="Helvetica,sans-Serif" font-size="12.00">CameraCloseUp.SetCloseUp</text>
</a>
</g>
</g>
<!-- Node30&#45;&gt;Node31 -->
<g id="edge34" class="edge">
<title>Node30&#45;&gt;Node31</title>
<path fill="none" stroke="midnightblue" d="M1085.27,-46.59C1108.78,-45.66 1133.39,-44.68 1156.25,-43.78"/>
<polygon fill="midnightblue" stroke="midnightblue" points="1156.42,-47.27 1166.27,-43.38 1156.14,-40.28 1156.42,-47.27"/>
</g>
</g>
</svg>
