<?xml version="1.0" encoding="UTF-8" standalone="no"?>
<!DOCTYPE svg PUBLIC "-//W3C//DTD SVG 1.1//EN"
 "http://www.w3.org/Graphics/SVG/1.1/DTD/svg11.dtd">
<!-- Generated by graphviz version 2.47.1 (20210417.1919)
 -->
<!-- Title: Dice Pages: 1 -->
<!--zoomable 737 -->
<svg id="main" version="1.1" xmlns="http://www.w3.org/2000/svg" xmlns:xlink="http://www.w3.org/1999/xlink" xml:space="preserve" onload="init(evt)">
<style type="text/css"><![CDATA[
.edge:hover path { stroke: red; }
.edge:hover polygon { stroke: red; fill: red; }
]]></style>
<script type="text/javascript"><![CDATA[
var edges = document.getElementsByTagName('g');
if (edges && edges.length) {
  for (var i=0;i<edges.length;i++) {
    if (edges[i].id.substr(0,4)=='edge') {
      edges[i].setAttribute('class','edge');
    }
  }
}
]]></script>
        <defs>
                <circle id="rim" cx="0" cy="0" r="7"/>
                <circle id="rim2" cx="0" cy="0" r="3.5"/>
                <g id="zoomPlus">
                        <use xlink:href="#rim" fill="#404040">
                                <set attributeName="fill" to="#808080" begin="zoomplus.mouseover" end="zoomplus.mouseout"/>
                        </use>
                        <path d="M-4,0h8M0,-4v8" fill="none" stroke="white" stroke-width="1.5" pointer-events="none"/>
                </g>
                <g id="zoomMin">
                        <use xlink:href="#rim" fill="#404040">
                                <set attributeName="fill" to="#808080" begin="zoomminus.mouseover" end="zoomminus.mouseout"/>
                        </use>
                        <path d="M-4,0h8" fill="none" stroke="white" stroke-width="1.5" pointer-events="none"/>
                </g>
                <g id="dirArrow">
                        <path fill="none" stroke="white" stroke-width="1.5" d="M0,-3.0v7 M-2.5,-0.5L0,-3.0L2.5,-0.5"/>
                </g>
               <g id="resetDef">
                       <use xlink:href="#rim2" fill="#404040">
                               <set attributeName="fill" to="#808080" begin="reset.mouseover" end="reset.mouseout"/>
                       </use>
               </g>
        </defs>

<script type="text/javascript">
var viewWidth = 391;
var viewHeight = 737;
var sectionId = 'dynsection-1';
</script>
<script xlink:href="svgpan.js"/>
<svg id="graph" class="graph">
<g id="viewport">
<title>Dice</title>
<polygon fill="white" stroke="transparent" points="-4,4 -4,-733 386.8,-733 386.8,4 -4,4"/>
<!-- Node1 -->
<g id="node1" class="node">
<title>Node1</title>
<g id="a_node1"><a xlink:title="Script for the Dice Gameobject">
<polygon fill="#bfbfbf" stroke="black" points="34.3,-0.5 34.3,-180.5 162.3,-180.5 162.3,-0.5 34.3,-0.5"/>
<text text-anchor="middle" x="98.3" y="-166.9" font-family="Helvetica,sans-Serif" font-size="12.00">Dice</text>
<polyline fill="none" stroke="black" points="34.3,-159.5 162.3,-159.5 "/>
<text text-anchor="start" x="42.3" y="-145.9" font-family="Helvetica,sans-Serif" font-size="12.00">&#45; diceValue</text>
<text text-anchor="start" x="42.3" y="-132.9" font-family="Helvetica,sans-Serif" font-size="12.00">&#45; setCloseUpCamera</text>
<polyline fill="none" stroke="black" points="34.3,-125.5 162.3,-125.5 "/>
<text text-anchor="start" x="42.3" y="-111.9" font-family="Helvetica,sans-Serif" font-size="12.00">+ RollDice()</text>
<text text-anchor="start" x="42.3" y="-98.9" font-family="Helvetica,sans-Serif" font-size="12.00">+ ResetDice()</text>
<text text-anchor="start" x="42.3" y="-85.9" font-family="Helvetica,sans-Serif" font-size="12.00">+ CanReset()</text>
<text text-anchor="start" x="42.3" y="-72.9" font-family="Helvetica,sans-Serif" font-size="12.00">+ CalculateValue()</text>
<text text-anchor="start" x="42.3" y="-59.9" font-family="Helvetica,sans-Serif" font-size="12.00">+ GetValue()</text>
<text text-anchor="start" x="42.3" y="-46.9" font-family="Helvetica,sans-Serif" font-size="12.00">+ ReadyToRoll()</text>
<text text-anchor="start" x="42.3" y="-33.9" font-family="Helvetica,sans-Serif" font-size="12.00">&#45; Start()</text>
<text text-anchor="start" x="42.3" y="-20.9" font-family="Helvetica,sans-Serif" font-size="12.00">&#45; Initialise()</text>
<text text-anchor="start" x="42.3" y="-7.9" font-family="Helvetica,sans-Serif" font-size="12.00">&#45; Update()</text>
</a>
</g>
</g>
<!-- Node2 -->
<g id="node2" class="node">
<title>Node2</title>
<g id="a_node2"><a xlink:title=" ">
<polygon fill="white" stroke="#bfbfbf" points="91.3,-665.5 91.3,-728.5 189.3,-728.5 189.3,-665.5 91.3,-665.5"/>
<text text-anchor="middle" x="140.3" y="-714.9" font-family="Helvetica,sans-Serif" font-size="12.00">MonoBehaviour</text>
<polyline fill="none" stroke="#bfbfbf" points="91.3,-707.5 189.3,-707.5 "/>
<text text-anchor="middle" x="140.3" y="-693.9" font-family="Helvetica,sans-Serif" font-size="12.00"> </text>
<polyline fill="none" stroke="#bfbfbf" points="91.3,-686.5 189.3,-686.5 "/>
<text text-anchor="middle" x="140.3" y="-672.9" font-family="Helvetica,sans-Serif" font-size="12.00"> </text>
</a>
</g>
</g>
<!-- Node2&#45;&gt;Node1 -->
<g id="edge1" class="edge">
<title>Node2&#45;&gt;Node1</title>
<path fill="none" stroke="midnightblue" d="M82.08,-672.25C63.1,-661.57 43.94,-647 32.3,-628 -6.24,-565.1 18.3,-536.66 14.3,-463 8.68,-359.6 -13.58,-329.73 14.3,-230 18.99,-213.21 26.34,-196.43 34.78,-180.63"/>
<polygon fill="none" stroke="midnightblue" points="80.58,-675.42 91.05,-677.04 83.88,-669.24 80.58,-675.42"/>
</g>
<!-- Node3 -->
<g id="node3" class="node">
<title>Node3</title>
<g id="a_node3"><a xlink:href="class_camera_close_up.html" target="_top" xlink:title="Script to control the camera close up shots">
<polygon fill="white" stroke="black" points="23.8,-230.5 23.8,-462.5 172.8,-462.5 172.8,-230.5 23.8,-230.5"/>
<text text-anchor="middle" x="98.3" y="-448.9" font-family="Helvetica,sans-Serif" font-size="12.00">CameraCloseUp</text>
<polyline fill="none" stroke="black" points="23.8,-441.5 172.8,-441.5 "/>
<text text-anchor="start" x="31.8" y="-427.9" font-family="Helvetica,sans-Serif" font-size="12.00">&#45; moveSpeed</text>
<text text-anchor="start" x="31.8" y="-414.9" font-family="Helvetica,sans-Serif" font-size="12.00">&#45; testKeys</text>
<text text-anchor="start" x="31.8" y="-401.9" font-family="Helvetica,sans-Serif" font-size="12.00">&#45; kb</text>
<text text-anchor="start" x="31.8" y="-388.9" font-family="Helvetica,sans-Serif" font-size="12.00">&#45; initialCameraPosition</text>
<text text-anchor="start" x="31.8" y="-375.9" font-family="Helvetica,sans-Serif" font-size="12.00">&#45; currentCameraTarget</text>
<polyline fill="none" stroke="black" points="23.8,-368.5 172.8,-368.5 "/>
<text text-anchor="start" x="31.8" y="-354.9" font-family="Helvetica,sans-Serif" font-size="12.00">+ SetCloseUp()</text>
<text text-anchor="start" x="31.8" y="-341.9" font-family="Helvetica,sans-Serif" font-size="12.00">+ ClearCloseUp()</text>
<text text-anchor="start" x="31.8" y="-328.9" font-family="Helvetica,sans-Serif" font-size="12.00">+ ClearCloseUp()</text>
<text text-anchor="start" x="31.8" y="-315.9" font-family="Helvetica,sans-Serif" font-size="12.00">+ SetCharacterCloseUp()</text>
<text text-anchor="start" x="31.8" y="-302.9" font-family="Helvetica,sans-Serif" font-size="12.00">~ SetRoomCloseUp()</text>
<text text-anchor="start" x="31.8" y="-289.9" font-family="Helvetica,sans-Serif" font-size="12.00">&#45; Start()</text>
<text text-anchor="start" x="31.8" y="-276.9" font-family="Helvetica,sans-Serif" font-size="12.00">&#45; Update()</text>
<text text-anchor="start" x="31.8" y="-263.9" font-family="Helvetica,sans-Serif" font-size="12.00">&#45; GetCameraPosition()</text>
<text text-anchor="start" x="31.8" y="-250.9" font-family="Helvetica,sans-Serif" font-size="12.00">&#45; ClearCloseUpDelay()</text>
<text text-anchor="start" x="31.8" y="-237.9" font-family="Helvetica,sans-Serif" font-size="12.00">&#45; TestSetCamera()</text>
</a>
</g>
</g>
<!-- Node2&#45;&gt;Node3 -->
<g id="edge3" class="edge">
<title>Node2&#45;&gt;Node3</title>
<path fill="none" stroke="midnightblue" d="M82.91,-663.87C70.59,-654.06 59.21,-642.07 52.3,-628 27.29,-577.06 34.03,-515.28 49.04,-462.68"/>
<polygon fill="none" stroke="midnightblue" points="81,-666.81 91.11,-670 85.2,-661.21 81,-666.81"/>
</g>
<!-- Node4 -->
<g id="node4" class="node">
<title>Node4</title>
<g id="a_node4"><a xlink:href="class_close_up_point_script.html" target="_top" xlink:title="Script for camera close up point Gameobject">
<polygon fill="white" stroke="black" points="61.8,-525.5 61.8,-614.5 218.8,-614.5 218.8,-525.5 61.8,-525.5"/>
<text text-anchor="middle" x="140.3" y="-600.9" font-family="Helvetica,sans-Serif" font-size="12.00">CloseUpPointScript</text>
<polyline fill="none" stroke="black" points="61.8,-593.5 218.8,-593.5 "/>
<text text-anchor="start" x="69.8" y="-579.9" font-family="Helvetica,sans-Serif" font-size="12.00">&#45; closeUpPointName</text>
<polyline fill="none" stroke="black" points="61.8,-572.5 218.8,-572.5 "/>
<text text-anchor="start" x="69.8" y="-558.9" font-family="Helvetica,sans-Serif" font-size="12.00">+ SetCloseUpPointName()</text>
<text text-anchor="start" x="69.8" y="-545.9" font-family="Helvetica,sans-Serif" font-size="12.00">+ GetCloseUpPointName()</text>
<text text-anchor="start" x="69.8" y="-532.9" font-family="Helvetica,sans-Serif" font-size="12.00">+ GetCameraPosition()</text>
</a>
</g>
</g>
<!-- Node2&#45;&gt;Node4 -->
<g id="edge5" class="edge">
<title>Node2&#45;&gt;Node4</title>
<path fill="none" stroke="midnightblue" d="M140.3,-655.41C140.3,-642.48 140.3,-628.11 140.3,-614.96"/>
<polygon fill="none" stroke="midnightblue" points="136.8,-655.42 140.3,-665.42 143.8,-655.42 136.8,-655.42"/>
</g>
<!-- Node5 -->
<g id="node5" class="node">
<title>Node5</title>
<g id="a_node5"><a xlink:href="class_die.html" target="_top" xlink:title="Script for the Die Gameobject">
<polygon fill="white" stroke="black" points="190.8,-230.5 190.8,-462.5 303.8,-462.5 303.8,-230.5 190.8,-230.5"/>
<text text-anchor="middle" x="247.3" y="-448.9" font-family="Helvetica,sans-Serif" font-size="12.00">Die</text>
<polyline fill="none" stroke="black" points="190.8,-441.5 303.8,-441.5 "/>
<text text-anchor="start" x="198.8" y="-427.9" font-family="Helvetica,sans-Serif" font-size="12.00">&#45; dieRigidbody</text>
<text text-anchor="start" x="198.8" y="-414.9" font-family="Helvetica,sans-Serif" font-size="12.00">&#45; hasLanded</text>
<text text-anchor="start" x="198.8" y="-401.9" font-family="Helvetica,sans-Serif" font-size="12.00">&#45; isThrown</text>
<text text-anchor="start" x="198.8" y="-388.9" font-family="Helvetica,sans-Serif" font-size="12.00">&#45; initialPosition</text>
<text text-anchor="start" x="198.8" y="-375.9" font-family="Helvetica,sans-Serif" font-size="12.00">&#45; dieValue</text>
<polyline fill="none" stroke="black" points="190.8,-368.5 303.8,-368.5 "/>
<text text-anchor="start" x="198.8" y="-354.9" font-family="Helvetica,sans-Serif" font-size="12.00">+ RollDie()</text>
<text text-anchor="start" x="198.8" y="-341.9" font-family="Helvetica,sans-Serif" font-size="12.00">+ IsReadyToRoll()</text>
<text text-anchor="start" x="198.8" y="-328.9" font-family="Helvetica,sans-Serif" font-size="12.00">+ CanResetDie()</text>
<text text-anchor="start" x="198.8" y="-315.9" font-family="Helvetica,sans-Serif" font-size="12.00">+ ResetDie()</text>
<text text-anchor="start" x="198.8" y="-302.9" font-family="Helvetica,sans-Serif" font-size="12.00">+ GetValueDie()</text>
<text text-anchor="start" x="198.8" y="-289.9" font-family="Helvetica,sans-Serif" font-size="12.00">&#45; Start()</text>
<text text-anchor="start" x="198.8" y="-276.9" font-family="Helvetica,sans-Serif" font-size="12.00">&#45; Initialise()</text>
<text text-anchor="start" x="198.8" y="-263.9" font-family="Helvetica,sans-Serif" font-size="12.00">&#45; Update()</text>
<text text-anchor="start" x="198.8" y="-250.9" font-family="Helvetica,sans-Serif" font-size="12.00">&#45; RollAgain()</text>
<text text-anchor="start" x="198.8" y="-237.9" font-family="Helvetica,sans-Serif" font-size="12.00">&#45; CheckValueDie()</text>
</a>
</g>
</g>
<!-- Node2&#45;&gt;Node5 -->
<g id="edge7" class="edge">
<title>Node2&#45;&gt;Node5</title>
<path fill="none" stroke="midnightblue" d="M197.8,-662.23C209.45,-652.67 220.27,-641.2 227.3,-628 253.92,-578.01 260.52,-515.73 259.78,-462.56"/>
<polygon fill="none" stroke="midnightblue" points="195.4,-659.66 189.64,-668.55 199.69,-665.2 195.4,-659.66"/>
</g>
<!-- Node6 -->
<g id="node6" class="node">
<title>Node6</title>
<g id="a_node6"><a xlink:href="class_die_side.html" target="_top" xlink:title="Script for die side Gameobject">
<polygon fill="white" stroke="black" points="275.8,-512.5 275.8,-627.5 382.8,-627.5 382.8,-512.5 275.8,-512.5"/>
<text text-anchor="middle" x="329.3" y="-613.9" font-family="Helvetica,sans-Serif" font-size="12.00">DieSide</text>
<polyline fill="none" stroke="black" points="275.8,-606.5 382.8,-606.5 "/>
<text text-anchor="start" x="283.8" y="-592.9" font-family="Helvetica,sans-Serif" font-size="12.00">&#45; value</text>
<text text-anchor="start" x="283.8" y="-579.9" font-family="Helvetica,sans-Serif" font-size="12.00">&#45; isOnGround</text>
<polyline fill="none" stroke="black" points="275.8,-572.5 382.8,-572.5 "/>
<text text-anchor="start" x="283.8" y="-558.9" font-family="Helvetica,sans-Serif" font-size="12.00">+ IsOnGround()</text>
<text text-anchor="start" x="283.8" y="-545.9" font-family="Helvetica,sans-Serif" font-size="12.00">+ GetSideValue()</text>
<text text-anchor="start" x="283.8" y="-532.9" font-family="Helvetica,sans-Serif" font-size="12.00">&#45; OnTriggerStay()</text>
<text text-anchor="start" x="283.8" y="-519.9" font-family="Helvetica,sans-Serif" font-size="12.00">&#45; OnTriggerExit()</text>
</a>
</g>
</g>
<!-- Node2&#45;&gt;Node6 -->
<g id="edge9" class="edge">
<title>Node2&#45;&gt;Node6</title>
<path fill="none" stroke="midnightblue" d="M199.06,-678.34C219.79,-670.57 242.57,-660.17 261.3,-647 269.26,-641.4 276.95,-634.7 284.1,-627.62"/>
<polygon fill="none" stroke="midnightblue" points="197.61,-675.15 189.39,-681.84 199.99,-681.73 197.61,-675.15"/>
</g>
<!-- Node3&#45;&gt;Node1 -->
<g id="edge2" class="edge">
<title>Node3&#45;&gt;Node1</title>
<path fill="none" stroke="#404040" d="M98.3,-230.39C98.3,-217.89 98.3,-205.23 98.3,-192.91"/>
<polygon fill="none" stroke="#404040" points="98.3,-192.72 94.3,-186.72 98.3,-180.72 102.3,-186.72 98.3,-192.72"/>
<text text-anchor="middle" x="136.3" y="-202.4" font-family="Helvetica,sans-Serif" font-size="12.00"> &#45;mainCamera</text>
</g>
<!-- Node4&#45;&gt;Node3 -->
<g id="edge4" class="edge">
<title>Node4&#45;&gt;Node3</title>
<path fill="none" stroke="#404040" d="M132,-525.24C129.18,-510.35 125.86,-492.86 122.43,-474.78"/>
<polygon fill="none" stroke="#404040" points="122.4,-474.62 117.36,-469.47 120.17,-462.83 125.22,-467.98 122.4,-474.62"/>
<text text-anchor="middle" x="167.8" y="-484.4" font-family="Helvetica,sans-Serif" font-size="12.00"> &#45;closeUpPoints</text>
</g>
<!-- Node5&#45;&gt;Node1 -->
<g id="edge6" class="edge">
<title>Node5&#45;&gt;Node1</title>
<path fill="none" stroke="#404040" d="M195.78,-230.38C190.16,-219.62 184.3,-209.01 178.3,-199 175.39,-194.14 172.31,-189.24 169.11,-184.34"/>
<polygon fill="none" stroke="#404040" points="169.08,-184.28 162.42,-181.51 162.42,-174.3 169.08,-177.07 169.08,-184.28"/>
<text text-anchor="middle" x="200.3" y="-202.4" font-family="Helvetica,sans-Serif" font-size="12.00"> &#45;dice</text>
</g>
<!-- Node6&#45;&gt;Node5 -->
<g id="edge8" class="edge">
<title>Node6&#45;&gt;Node5</title>
<path fill="none" stroke="#404040" d="M308.29,-512.25C303.88,-500.33 299.06,-487.31 294.12,-473.98"/>
<polygon fill="none" stroke="#404040" points="294.12,-473.98 288.29,-469.74 289.96,-462.72 295.79,-466.96 294.12,-473.98"/>
<text text-anchor="middle" x="328.8" y="-484.4" font-family="Helvetica,sans-Serif" font-size="12.00"> &#45;dieSides</text>
</g>
</g>
</svg>
        <g id="navigator" transform="translate(0 0)" fill="#404254">
                <rect fill="#f2f5e9" fill-opacity="0.5" stroke="#606060" stroke-width=".5" x="0" y="0" width="60" height="60"/>
                <use id="zoomplus" xlink:href="#zoomPlus" x="17" y="9" onmousedown="handleZoom(evt,'in')"/>
                <use id="zoomminus" xlink:href="#zoomMin" x="42" y="9" onmousedown="handleZoom(evt,'out')"/>
                <use id="reset" xlink:href="#resetDef" x="30" y="36" onmousedown="handleReset()"/>
                <g id="arrowUp" xlink:href="#dirArrow" transform="translate(30 24)" onmousedown="handlePan(0,-1)">
                  <use xlink:href="#rim" fill="#404040">
                        <set attributeName="fill" to="#808080" begin="arrowUp.mouseover" end="arrowUp.mouseout"/>
                  </use>
                  <path fill="none" stroke="white" stroke-width="1.5" d="M0,-3.0v7 M-2.5,-0.5L0,-3.0L2.5,-0.5"/>
                </g>
                <g id="arrowRight" xlink:href="#dirArrow" transform="rotate(90) translate(36 -43)" onmousedown="handlePan(1,0)">
                  <use xlink:href="#rim" fill="#404040">
                        <set attributeName="fill" to="#808080" begin="arrowRight.mouseover" end="arrowRight.mouseout"/>
                  </use>
                  <path fill="none" stroke="white" stroke-width="1.5" d="M0,-3.0v7 M-2.5,-0.5L0,-3.0L2.5,-0.5"/>
                </g>
                <g id="arrowDown" xlink:href="#dirArrow" transform="rotate(180) translate(-30 -48)" onmousedown="handlePan(0,1)">
                  <use xlink:href="#rim" fill="#404040">
                        <set attributeName="fill" to="#808080" begin="arrowDown.mouseover" end="arrowDown.mouseout"/>
                  </use>
                  <path fill="none" stroke="white" stroke-width="1.5" d="M0,-3.0v7 M-2.5,-0.5L0,-3.0L2.5,-0.5"/>
                </g>
                <g id="arrowLeft" xlink:href="#dirArrow" transform="rotate(270) translate(-36 17)" onmousedown="handlePan(-1,0)">
                  <use xlink:href="#rim" fill="#404040">
                        <set attributeName="fill" to="#808080" begin="arrowLeft.mouseover" end="arrowLeft.mouseout"/>
                  </use>
                  <path fill="none" stroke="white" stroke-width="1.5" d="M0,-3.0v7 M-2.5,-0.5L0,-3.0L2.5,-0.5"/>
                </g>
        </g>
        <svg viewBox="0 0 15 15" width="100%" height="30px" preserveAspectRatio="xMaxYMin meet">
         <g id="arrow_out" transform="scale(0.3 0.3)">
          <a xlink:href="class_dice__coll__graph_org.svg" target="_base">
           <rect id="button" ry="5" rx="5" y="6" x="6" height="38" width="38"
                fill="#f2f5e9" fill-opacity="0.5" stroke="#606060" stroke-width="1.0"/>
           <path id="arrow"
             d="M 11.500037,31.436501 C 11.940474,20.09759 22.043105,11.32322 32.158766,21.979434 L 37.068811,17.246167 C 37.068811,17.246167 37.088388,32 37.088388,32 L 22.160133,31.978069 C 22.160133,31.978069 26.997745,27.140456 26.997745,27.140456 C 18.528582,18.264221 13.291696,25.230495 11.500037,31.436501 z"
             style="fill:#404040;"/>
          </a>
         </g>
        </svg>
</svg>
