<?xml version="1.0" encoding="UTF-8" standalone="no"?>
<!DOCTYPE svg PUBLIC "-//W3C//DTD SVG 1.1//EN"
 "http://www.w3.org/Graphics/SVG/1.1/DTD/svg11.dtd">
<!-- Generated by graphviz version 2.47.1 (20210417.1919)
 -->
<!-- Title: RoundManager.RollDice Pages: 1 -->
<svg width="975pt" height="110pt"
 viewBox="0.00 0.00 975.00 110.00" xmlns="http://www.w3.org/2000/svg" xmlns:xlink="http://www.w3.org/1999/xlink">
<g id="graph0" class="graph" transform="scale(1 1) rotate(0) translate(4 106)">
<title>RoundManager.RollDice</title>
<polygon fill="white" stroke="transparent" points="-4,4 -4,-106 971,-106 971,4 -4,4"/>
<!-- Node1 -->
<g id="node1" class="node">
<title>Node1</title>
<g id="a_node1"><a xlink:title="Rolls dice, will not roll if the player has rolled aready. Pass true to forcfully roll it">
<polygon fill="#bfbfbf" stroke="black" points="0,-20.5 0,-41.5 144,-41.5 144,-20.5 0,-20.5"/>
<text text-anchor="middle" x="72" y="-27.9" font-family="Helvetica,sans-Serif" font-size="12.00">RoundManager.RollDice</text>
</a>
</g>
</g>
<!-- Node2 -->
<g id="node2" class="node">
<title>Node2</title>
<g id="a_node2"><a xlink:href="class_round_manager.html#a5cfea3b56a7576ad02c82c27bb0c6ba7" target="_top" xlink:title="reset the dice after a time delay">
<polygon fill="white" stroke="black" points="180,-40.5 180,-61.5 365,-61.5 365,-40.5 180,-40.5"/>
<text text-anchor="middle" x="272.5" y="-47.9" font-family="Helvetica,sans-Serif" font-size="12.00">RoundManager.DelayResetDice</text>
</a>
</g>
</g>
<!-- Node1&#45;&gt;Node2 -->
<g id="edge1" class="edge">
<title>Node1&#45;&gt;Node2</title>
<path fill="none" stroke="midnightblue" d="M144.1,-38.16C152.42,-39 161.02,-39.87 169.65,-40.74"/>
<polygon fill="midnightblue" stroke="midnightblue" points="169.48,-44.24 179.78,-41.76 170.18,-37.27 169.48,-44.24"/>
</g>
<!-- Node9 -->
<g id="node9" class="node">
<title>Node9</title>
<g id="a_node9"><a xlink:href="class_dice.html#a333ed52f536c0e7748fafe9422b179b5" target="_top" xlink:title="Roll the Dice">
<polygon fill="white" stroke="black" points="228,-0.5 228,-21.5 317,-21.5 317,-0.5 228,-0.5"/>
<text text-anchor="middle" x="272.5" y="-7.9" font-family="Helvetica,sans-Serif" font-size="12.00">Dice.RollDice</text>
</a>
</g>
</g>
<!-- Node1&#45;&gt;Node9 -->
<g id="edge8" class="edge">
<title>Node1&#45;&gt;Node9</title>
<path fill="none" stroke="midnightblue" d="M144.1,-23.84C168.41,-21.39 195.18,-18.69 217.88,-16.4"/>
<polygon fill="midnightblue" stroke="midnightblue" points="218.4,-19.87 228,-15.38 217.7,-12.9 218.4,-19.87"/>
</g>
<!-- Node3 -->
<g id="node3" class="node">
<title>Node3</title>
<g id="a_node3"><a xlink:href="class_dice.html#ade1dc529eeb31f31e668c595c5748e67" target="_top" xlink:title="Reset the dice">
<polygon fill="white" stroke="black" points="401,-40.5 401,-61.5 501,-61.5 501,-40.5 401,-40.5"/>
<text text-anchor="middle" x="451" y="-47.9" font-family="Helvetica,sans-Serif" font-size="12.00">Dice.ResetDice</text>
</a>
</g>
</g>
<!-- Node2&#45;&gt;Node3 -->
<g id="edge2" class="edge">
<title>Node2&#45;&gt;Node3</title>
<path fill="none" stroke="midnightblue" d="M365.11,-51C373.73,-51 382.3,-51 390.5,-51"/>
<polygon fill="midnightblue" stroke="midnightblue" points="390.67,-54.5 400.67,-51 390.67,-47.5 390.67,-54.5"/>
</g>
<!-- Node4 -->
<g id="node4" class="node">
<title>Node4</title>
<g id="a_node4"><a xlink:href="class_dice.html#ace4c995eb73b784d1076fde140ce85af" target="_top" xlink:title="Can Dice be reset">
<polygon fill="white" stroke="black" points="579.5,-80.5 579.5,-101.5 676.5,-101.5 676.5,-80.5 579.5,-80.5"/>
<text text-anchor="middle" x="628" y="-87.9" font-family="Helvetica,sans-Serif" font-size="12.00">Dice.CanReset</text>
</a>
</g>
</g>
<!-- Node3&#45;&gt;Node4 -->
<g id="edge3" class="edge">
<title>Node3&#45;&gt;Node4</title>
<path fill="none" stroke="midnightblue" d="M496.53,-61.59C509.57,-64.66 523.85,-67.99 537,-71 547.51,-73.4 558.73,-75.93 569.54,-78.34"/>
<polygon fill="midnightblue" stroke="midnightblue" points="568.81,-81.77 579.33,-80.52 570.33,-74.93 568.81,-81.77"/>
</g>
<!-- Node6 -->
<g id="node6" class="node">
<title>Node6</title>
<g id="a_node6"><a xlink:href="class_camera_close_up.html#ad31062bdf359a453fc85ebdd71fa1bae" target="_top" xlink:title="Clear camera close up">
<polygon fill="white" stroke="black" points="537,-40.5 537,-61.5 719,-61.5 719,-40.5 537,-40.5"/>
<text text-anchor="middle" x="628" y="-47.9" font-family="Helvetica,sans-Serif" font-size="12.00">CameraCloseUp.ClearCloseUp</text>
</a>
</g>
</g>
<!-- Node3&#45;&gt;Node6 -->
<g id="edge5" class="edge">
<title>Node3&#45;&gt;Node6</title>
<path fill="none" stroke="midnightblue" d="M501.21,-51C509.21,-51 517.73,-51 526.43,-51"/>
<polygon fill="midnightblue" stroke="midnightblue" points="526.7,-54.5 536.7,-51 526.7,-47.5 526.7,-54.5"/>
</g>
<!-- Node8 -->
<g id="node8" class="node">
<title>Node8</title>
<g id="a_node8"><a xlink:href="class_die.html#abc11c3d2bf0c0fba1555093eb5a8469e" target="_top" xlink:title="Reset Die to original position">
<polygon fill="white" stroke="black" points="584,-0.5 584,-21.5 672,-21.5 672,-0.5 584,-0.5"/>
<text text-anchor="middle" x="628" y="-7.9" font-family="Helvetica,sans-Serif" font-size="12.00">Die.ResetDie</text>
</a>
</g>
</g>
<!-- Node3&#45;&gt;Node8 -->
<g id="edge7" class="edge">
<title>Node3&#45;&gt;Node8</title>
<path fill="none" stroke="midnightblue" d="M496.53,-40.41C509.57,-37.34 523.85,-34.01 537,-31 548.95,-28.27 561.8,-25.38 573.94,-22.68"/>
<polygon fill="midnightblue" stroke="midnightblue" points="574.94,-26.04 583.94,-20.45 573.42,-19.21 574.94,-26.04"/>
</g>
<!-- Node5 -->
<g id="node5" class="node">
<title>Node5</title>
<g id="a_node5"><a xlink:href="class_die.html#a390d46459637fd249926cda472255d84" target="_top" xlink:title="Can the die be reset">
<polygon fill="white" stroke="black" points="806,-80.5 806,-101.5 916,-101.5 916,-80.5 806,-80.5"/>
<text text-anchor="middle" x="861" y="-87.9" font-family="Helvetica,sans-Serif" font-size="12.00">Die.CanResetDie</text>
</a>
</g>
</g>
<!-- Node4&#45;&gt;Node5 -->
<g id="edge4" class="edge">
<title>Node4&#45;&gt;Node5</title>
<path fill="none" stroke="midnightblue" d="M676.58,-91C710.87,-91 757.54,-91 795.22,-91"/>
<polygon fill="midnightblue" stroke="midnightblue" points="795.59,-94.5 805.59,-91 795.59,-87.5 795.59,-94.5"/>
</g>
<!-- Node7 -->
<g id="node7" class="node">
<title>Node7</title>
<g id="a_node7"><a xlink:href="class_camera_close_up.html#ae902d2ccdf969212e0cb84f638f68851" target="_top" xlink:title="Delay then clear close up">
<polygon fill="white" stroke="black" points="755,-40.5 755,-61.5 967,-61.5 967,-40.5 755,-40.5"/>
<text text-anchor="middle" x="861" y="-47.9" font-family="Helvetica,sans-Serif" font-size="12.00">CameraCloseUp.ClearCloseUpDelay</text>
</a>
</g>
</g>
<!-- Node6&#45;&gt;Node7 -->
<g id="edge6" class="edge">
<title>Node6&#45;&gt;Node7</title>
<path fill="none" stroke="midnightblue" d="M719.3,-51C727.67,-51 736.22,-51 744.77,-51"/>
<polygon fill="midnightblue" stroke="midnightblue" points="744.8,-54.5 754.8,-51 744.8,-47.5 744.8,-54.5"/>
</g>
<!-- Node10 -->
<g id="node10" class="node">
<title>Node10</title>
<g id="a_node10"><a xlink:href="class_die.html#a4995ecb1a88aa7f1043ae71ba8aa3ef5" target="_top" xlink:title="Roll the die">
<polygon fill="white" stroke="black" points="412.5,-0.5 412.5,-21.5 489.5,-21.5 489.5,-0.5 412.5,-0.5"/>
<text text-anchor="middle" x="451" y="-7.9" font-family="Helvetica,sans-Serif" font-size="12.00">Die.RollDie</text>
</a>
</g>
</g>
<!-- Node9&#45;&gt;Node10 -->
<g id="edge9" class="edge">
<title>Node9&#45;&gt;Node10</title>
<path fill="none" stroke="midnightblue" d="M317.13,-11C342.9,-11 375.57,-11 402.06,-11"/>
<polygon fill="midnightblue" stroke="midnightblue" points="402.25,-14.5 412.25,-11 402.25,-7.5 402.25,-14.5"/>
</g>
<!-- Node10&#45;&gt;Node8 -->
<g id="edge10" class="edge">
<title>Node10&#45;&gt;Node8</title>
<path fill="none" stroke="midnightblue" d="M489.54,-11C514.12,-11 546.61,-11 573.83,-11"/>
<polygon fill="midnightblue" stroke="midnightblue" points="573.98,-14.5 583.98,-11 573.98,-7.5 573.98,-14.5"/>
</g>
</g>
</svg>
