<?xml version="1.0" encoding="UTF-8" standalone="no"?>
<!DOCTYPE svg PUBLIC "-//W3C//DTD SVG 1.1//EN"
 "http://www.w3.org/Graphics/SVG/1.1/DTD/svg11.dtd">
<!-- Generated by graphviz version 2.47.1 (20210417.1919)
 -->
<!-- Title: BoardBuilder.CheckNearbyTiles Pages: 1 -->
<!--zoomable 70 -->
<svg id="main" version="1.1" xmlns="http://www.w3.org/2000/svg" xmlns:xlink="http://www.w3.org/1999/xlink" xml:space="preserve" onload="init(evt)">
<style type="text/css"><![CDATA[
.edge:hover path { stroke: red; }
.edge:hover polygon { stroke: red; fill: red; }
]]></style>
<script type="text/javascript"><![CDATA[
var edges = document.getElementsByTagName('g');
if (edges && edges.length) {
  for (var i=0;i<edges.length;i++) {
    if (edges[i].id.substr(0,4)=='edge') {
      edges[i].setAttribute('class','edge');
    }
  }
}
]]></script>
        <defs>
                <circle id="rim" cx="0" cy="0" r="7"/>
                <circle id="rim2" cx="0" cy="0" r="3.5"/>
                <g id="zoomPlus">
                        <use xlink:href="#rim" fill="#404040">
                                <set attributeName="fill" to="#808080" begin="zoomplus.mouseover" end="zoomplus.mouseout"/>
                        </use>
                        <path d="M-4,0h8M0,-4v8" fill="none" stroke="white" stroke-width="1.5" pointer-events="none"/>
                </g>
                <g id="zoomMin">
                        <use xlink:href="#rim" fill="#404040">
                                <set attributeName="fill" to="#808080" begin="zoomminus.mouseover" end="zoomminus.mouseout"/>
                        </use>
                        <path d="M-4,0h8" fill="none" stroke="white" stroke-width="1.5" pointer-events="none"/>
                </g>
                <g id="dirArrow">
                        <path fill="none" stroke="white" stroke-width="1.5" d="M0,-3.0v7 M-2.5,-0.5L0,-3.0L2.5,-0.5"/>
                </g>
               <g id="resetDef">
                       <use xlink:href="#rim2" fill="#404040">
                               <set attributeName="fill" to="#808080" begin="reset.mouseover" end="reset.mouseout"/>
                       </use>
               </g>
        </defs>

<script type="text/javascript">
var viewWidth = 1002;
var viewHeight = 70;
var sectionId = 'dynsection-6';
</script>
<script xlink:href="svgpan.js"/>
<svg id="graph" class="graph">
<g id="viewport">
<title>BoardBuilder.CheckNearbyTiles</title>
<polygon fill="white" stroke="transparent" points="-4,4 -4,-66 998,-66 998,4 -4,4"/>
<!-- Node1 -->
<g id="node1" class="node">
<title>Node1</title>
<g id="a_node1"><a xlink:title="Check for nearby bonus / start tiles in order to space out around the board">
<polygon fill="#bfbfbf" stroke="black" points="809,-20.5 809,-41.5 994,-41.5 994,-20.5 809,-20.5"/>
<text text-anchor="middle" x="901.5" y="-27.9" font-family="Helvetica,sans-Serif" font-size="12.00">BoardBuilder.CheckNearbyTiles</text>
</a>
</g>
</g>
<!-- Node2 -->
<g id="node2" class="node">
<title>Node2</title>
<g id="a_node2"><a xlink:href="class_board_builder.html#a1ce7b540b58b1e6fde74e064107ae954" target="_top" xlink:title="Randomly replace required number of general tiles with FreeRoll Tiles">
<polygon fill="white" stroke="black" points="559.5,-40.5 559.5,-61.5 753.5,-61.5 753.5,-40.5 559.5,-40.5"/>
<text text-anchor="middle" x="656.5" y="-47.9" font-family="Helvetica,sans-Serif" font-size="12.00">BoardBuilder.CreateFreeRollTiles</text>
</a>
</g>
</g>
<!-- Node1&#45;&gt;Node2 -->
<g id="edge1" class="edge">
<title>Node1&#45;&gt;Node2</title>
<path fill="none" stroke="midnightblue" d="M798.75,-39.37C783.87,-40.6 768.57,-41.86 753.8,-43.07"/>
<polygon fill="midnightblue" stroke="midnightblue" points="799.3,-42.84 808.98,-38.53 798.72,-35.86 799.3,-42.84"/>
</g>
<!-- Node6 -->
<g id="node6" class="node">
<title>Node6</title>
<g id="a_node6"><a xlink:href="class_board_builder.html#aeeca1094dc5e50c5612bba9336efd9d3" target="_top" xlink:title="Randomly replace required number of general tiles with FreeAccusation Tiles">
<polygon fill="white" stroke="black" points="540,-0.5 540,-21.5 773,-21.5 773,-0.5 540,-0.5"/>
<text text-anchor="middle" x="656.5" y="-7.9" font-family="Helvetica,sans-Serif" font-size="12.00">BoardBuilder.CreateFreeSuggestionTiles</text>
</a>
</g>
</g>
<!-- Node1&#45;&gt;Node6 -->
<g id="edge5" class="edge">
<title>Node1&#45;&gt;Node6</title>
<path fill="none" stroke="midnightblue" d="M798.74,-22.62C790.28,-21.93 781.7,-21.22 773.15,-20.52"/>
<polygon fill="midnightblue" stroke="midnightblue" points="798.72,-26.14 808.98,-23.47 799.3,-19.16 798.72,-26.14"/>
</g>
<!-- Node3 -->
<g id="node3" class="node">
<title>Node3</title>
<g id="a_node3"><a xlink:href="class_board_builder.html#a7a499abdc0c02d659ea6fee6e7836f15" target="_top" xlink:title="Randomly place Free roll / accusation tiles.">
<polygon fill="white" stroke="black" points="328,-20.5 328,-41.5 504,-41.5 504,-20.5 328,-20.5"/>
<text text-anchor="middle" x="416" y="-27.9" font-family="Helvetica,sans-Serif" font-size="12.00">BoardBuilder.PlaceBonusTiles</text>
</a>
</g>
</g>
<!-- Node2&#45;&gt;Node3 -->
<g id="edge2" class="edge">
<title>Node2&#45;&gt;Node3</title>
<path fill="none" stroke="midnightblue" d="M548.86,-42.06C533.87,-40.8 518.62,-39.52 504.06,-38.3"/>
<polygon fill="midnightblue" stroke="midnightblue" points="548.92,-45.57 559.18,-42.92 549.51,-38.6 548.92,-45.57"/>
</g>
<!-- Node4 -->
<g id="node4" class="node">
<title>Node4</title>
<g id="a_node4"><a xlink:href="class_board_builder.html#a82e09ea29b1d031cfe2fa3b444c12c99" target="_top" xlink:title="Method to create the board, initialise and place all items and pass references to board manager">
<polygon fill="white" stroke="black" points="161,-20.5 161,-41.5 292,-41.5 292,-20.5 161,-20.5"/>
<text text-anchor="middle" x="226.5" y="-27.9" font-family="Helvetica,sans-Serif" font-size="12.00">BoardBuilder.Initialise</text>
</a>
</g>
</g>
<!-- Node3&#45;&gt;Node4 -->
<g id="edge3" class="edge">
<title>Node3&#45;&gt;Node4</title>
<path fill="none" stroke="midnightblue" d="M317.65,-31C308.98,-31 300.35,-31 292.05,-31"/>
<polygon fill="midnightblue" stroke="midnightblue" points="317.84,-34.5 327.84,-31 317.84,-27.5 317.84,-34.5"/>
</g>
<!-- Node5 -->
<g id="node5" class="node">
<title>Node5</title>
<g id="a_node5"><a xlink:href="class_board_builder.html#a40848d7394ead9e79f4f2dad2d7756b8" target="_top" xlink:title=" ">
<polygon fill="white" stroke="black" points="0,-20.5 0,-41.5 125,-41.5 125,-20.5 0,-20.5"/>
<text text-anchor="middle" x="62.5" y="-27.9" font-family="Helvetica,sans-Serif" font-size="12.00">BoardBuilder.Awake</text>
</a>
</g>
</g>
<!-- Node4&#45;&gt;Node5 -->
<g id="edge4" class="edge">
<title>Node4&#45;&gt;Node5</title>
<path fill="none" stroke="midnightblue" d="M150.3,-31C141.84,-31 133.31,-31 125.05,-31"/>
<polygon fill="midnightblue" stroke="midnightblue" points="150.54,-34.5 160.54,-31 150.54,-27.5 150.54,-34.5"/>
</g>
<!-- Node6&#45;&gt;Node3 -->
<g id="edge6" class="edge">
<title>Node6&#45;&gt;Node3</title>
<path fill="none" stroke="midnightblue" d="M529.63,-21.56C521.02,-22.28 512.46,-22.99 504.13,-23.69"/>
<polygon fill="midnightblue" stroke="midnightblue" points="530.07,-25.03 539.74,-20.71 529.49,-18.06 530.07,-25.03"/>
</g>
</g>
</svg>
        <g id="navigator" transform="translate(0 0)" fill="#404254">
                <rect fill="#f2f5e9" fill-opacity="0.5" stroke="#606060" stroke-width=".5" x="0" y="0" width="60" height="60"/>
                <use id="zoomplus" xlink:href="#zoomPlus" x="17" y="9" onmousedown="handleZoom(evt,'in')"/>
                <use id="zoomminus" xlink:href="#zoomMin" x="42" y="9" onmousedown="handleZoom(evt,'out')"/>
                <use id="reset" xlink:href="#resetDef" x="30" y="36" onmousedown="handleReset()"/>
                <g id="arrowUp" xlink:href="#dirArrow" transform="translate(30 24)" onmousedown="handlePan(0,-1)">
                  <use xlink:href="#rim" fill="#404040">
                        <set attributeName="fill" to="#808080" begin="arrowUp.mouseover" end="arrowUp.mouseout"/>
                  </use>
                  <path fill="none" stroke="white" stroke-width="1.5" d="M0,-3.0v7 M-2.5,-0.5L0,-3.0L2.5,-0.5"/>
                </g>
                <g id="arrowRight" xlink:href="#dirArrow" transform="rotate(90) translate(36 -43)" onmousedown="handlePan(1,0)">
                  <use xlink:href="#rim" fill="#404040">
                        <set attributeName="fill" to="#808080" begin="arrowRight.mouseover" end="arrowRight.mouseout"/>
                  </use>
                  <path fill="none" stroke="white" stroke-width="1.5" d="M0,-3.0v7 M-2.5,-0.5L0,-3.0L2.5,-0.5"/>
                </g>
                <g id="arrowDown" xlink:href="#dirArrow" transform="rotate(180) translate(-30 -48)" onmousedown="handlePan(0,1)">
                  <use xlink:href="#rim" fill="#404040">
                        <set attributeName="fill" to="#808080" begin="arrowDown.mouseover" end="arrowDown.mouseout"/>
                  </use>
                  <path fill="none" stroke="white" stroke-width="1.5" d="M0,-3.0v7 M-2.5,-0.5L0,-3.0L2.5,-0.5"/>
                </g>
                <g id="arrowLeft" xlink:href="#dirArrow" transform="rotate(270) translate(-36 17)" onmousedown="handlePan(-1,0)">
                  <use xlink:href="#rim" fill="#404040">
                        <set attributeName="fill" to="#808080" begin="arrowLeft.mouseover" end="arrowLeft.mouseout"/>
                  </use>
                  <path fill="none" stroke="white" stroke-width="1.5" d="M0,-3.0v7 M-2.5,-0.5L0,-3.0L2.5,-0.5"/>
                </g>
        </g>
        <svg viewBox="0 0 15 15" width="100%" height="30px" preserveAspectRatio="xMaxYMin meet">
         <g id="arrow_out" transform="scale(0.3 0.3)">
          <a xlink:href="class_board_builder_a3e79e20c71a20b8e2feb24d83106ebdb_icgraph_org.svg" target="_base">
           <rect id="button" ry="5" rx="5" y="6" x="6" height="38" width="38"
                fill="#f2f5e9" fill-opacity="0.5" stroke="#606060" stroke-width="1.0"/>
           <path id="arrow"
             d="M 11.500037,31.436501 C 11.940474,20.09759 22.043105,11.32322 32.158766,21.979434 L 37.068811,17.246167 C 37.068811,17.246167 37.088388,32 37.088388,32 L 22.160133,31.978069 C 22.160133,31.978069 26.997745,27.140456 26.997745,27.140456 C 18.528582,18.264221 13.291696,25.230495 11.500037,31.436501 z"
             style="fill:#404040;"/>
          </a>
         </g>
        </svg>
</svg>
