<?xml version="1.0" encoding="UTF-8" standalone="no"?>
<!DOCTYPE svg PUBLIC "-//W3C//DTD SVG 1.1//EN"
 "http://www.w3.org/Graphics/SVG/1.1/DTD/svg11.dtd">
<!-- Generated by graphviz version 2.47.1 (20210417.1919)
 -->
<!-- Title: AccusationCardSlot.SetCardDetails Pages: 1 -->
<svg width="450pt" height="110pt"
 viewBox="0.00 0.00 450.00 110.00" xmlns="http://www.w3.org/2000/svg" xmlns:xlink="http://www.w3.org/1999/xlink">
<g id="graph0" class="graph" transform="scale(1 1) rotate(0) translate(4 106)">
<title>AccusationCardSlot.SetCardDetails</title>
<polygon fill="white" stroke="transparent" points="-4,4 -4,-106 446,-106 446,4 -4,4"/>
<!-- Node1 -->
<g id="node1" class="node">
<title>Node1</title>
<g id="a_node1"><a xlink:title=" ">
<polygon fill="#bfbfbf" stroke="black" points="0,-40.5 0,-61.5 205,-61.5 205,-40.5 0,-40.5"/>
<text text-anchor="middle" x="102.5" y="-47.9" font-family="Helvetica,sans-Serif" font-size="12.00">AccusationCardSlot.SetCardDetails</text>
</a>
</g>
</g>
<!-- Node2 -->
<g id="node2" class="node">
<title>Node2</title>
<g id="a_node2"><a xlink:href="class_card.html#a25e8366933b176fae41e4d2373be7815" target="_top" xlink:title=" ">
<polygon fill="white" stroke="black" points="280,-80.5 280,-101.5 403,-101.5 403,-80.5 280,-80.5"/>
<text text-anchor="middle" x="341.5" y="-87.9" font-family="Helvetica,sans-Serif" font-size="12.00">Card.GetCardImage</text>
</a>
</g>
</g>
<!-- Node1&#45;&gt;Node2 -->
<g id="edge1" class="edge">
<title>Node1&#45;&gt;Node2</title>
<path fill="none" stroke="midnightblue" d="M165.77,-61.51C197.71,-66.9 236.75,-73.49 269.82,-79.07"/>
<polygon fill="midnightblue" stroke="midnightblue" points="269.43,-82.55 279.88,-80.77 270.6,-75.65 269.43,-82.55"/>
</g>
<!-- Node3 -->
<g id="node3" class="node">
<title>Node3</title>
<g id="a_node3"><a xlink:href="class_card.html#a094a5e7ea98cc156ac64e578a987be85" target="_top" xlink:title=" ">
<polygon fill="white" stroke="black" points="283.5,-40.5 283.5,-61.5 399.5,-61.5 399.5,-40.5 283.5,-40.5"/>
<text text-anchor="middle" x="341.5" y="-47.9" font-family="Helvetica,sans-Serif" font-size="12.00">Card.GetCardType</text>
</a>
</g>
</g>
<!-- Node1&#45;&gt;Node3 -->
<g id="edge2" class="edge">
<title>Node1&#45;&gt;Node3</title>
<path fill="none" stroke="midnightblue" d="M205.04,-51C228.04,-51 251.91,-51 273.08,-51"/>
<polygon fill="midnightblue" stroke="midnightblue" points="273.25,-54.5 283.25,-51 273.25,-47.5 273.25,-54.5"/>
</g>
<!-- Node4 -->
<g id="node4" class="node">
<title>Node4</title>
<g id="a_node4"><a xlink:href="class_enum_to_string.html#a078a1fb16a0030544fac1b96a90b6b83" target="_top" xlink:title="Get a string value from a valid enum">
<polygon fill="white" stroke="black" points="241,-0.5 241,-21.5 442,-21.5 442,-0.5 241,-0.5"/>
<text text-anchor="middle" x="341.5" y="-7.9" font-family="Helvetica,sans-Serif" font-size="12.00">EnumToString.GetStringFromEnum</text>
</a>
</g>
</g>
<!-- Node1&#45;&gt;Node4 -->
<g id="edge3" class="edge">
<title>Node1&#45;&gt;Node4</title>
<path fill="none" stroke="midnightblue" d="M165.77,-40.49C197.21,-35.18 235.54,-28.72 268.27,-23.19"/>
<polygon fill="midnightblue" stroke="midnightblue" points="268.96,-26.62 278.24,-21.51 267.79,-19.72 268.96,-26.62"/>
</g>
</g>
</svg>
