<?xml version="1.0" encoding="UTF-8" standalone="no"?>
<!DOCTYPE svg PUBLIC "-//W3C//DTD SVG 1.1//EN"
 "http://www.w3.org/Graphics/SVG/1.1/DTD/svg11.dtd">
<!-- Generated by graphviz version 2.47.1 (20210417.1919)
 -->
<!-- Title: UserInputControlScript.FixedUpdate Pages: 1 -->
<svg width="506pt" height="70pt"
 viewBox="0.00 0.00 506.00 70.00" xmlns="http://www.w3.org/2000/svg" xmlns:xlink="http://www.w3.org/1999/xlink">
<g id="graph0" class="graph" transform="scale(1 1) rotate(0) translate(4 66)">
<title>UserInputControlScript.FixedUpdate</title>
<polygon fill="white" stroke="transparent" points="-4,4 -4,-66 502,-66 502,4 -4,4"/>
<!-- Node1 -->
<g id="node1" class="node">
<title>Node1</title>
<g id="a_node1"><a xlink:title=" ">
<polygon fill="#bfbfbf" stroke="black" points="0,-20.5 0,-41.5 204,-41.5 204,-20.5 0,-20.5"/>
<text text-anchor="middle" x="102" y="-27.9" font-family="Helvetica,sans-Serif" font-size="12.00">UserInputControlScript.FixedUpdate</text>
</a>
</g>
</g>
<!-- Node2 -->
<g id="node2" class="node">
<title>Node2</title>
<g id="a_node2"><a xlink:href="class_user_input_control_script.html#a1b72e8fa36102bb46711f990939626fc" target="_top" xlink:title="raycast from the camera to board to update the cursor&#39;s target position">
<polygon fill="white" stroke="black" points="240,-40.5 240,-61.5 498,-61.5 498,-40.5 240,-40.5"/>
<text text-anchor="middle" x="369" y="-47.9" font-family="Helvetica,sans-Serif" font-size="12.00">UserInputControlScript.CastUpdateWithMouse</text>
</a>
</g>
</g>
<!-- Node1&#45;&gt;Node2 -->
<g id="edge1" class="edge">
<title>Node1&#45;&gt;Node2</title>
<path fill="none" stroke="midnightblue" d="M204.32,-38.65C212.62,-39.27 221.09,-39.91 229.59,-40.55"/>
<polygon fill="midnightblue" stroke="midnightblue" points="229.34,-44.04 239.57,-41.31 229.87,-37.06 229.34,-44.04"/>
</g>
<!-- Node3 -->
<g id="node3" class="node">
<title>Node3</title>
<g id="a_node3"><a xlink:href="class_user_input_control_script.html#a6b763e8414f6c97987907f2cde8a6aff" target="_top" xlink:title="update lerp transform the cursor&#39;s location to the target position">
<polygon fill="white" stroke="black" points="264,-0.5 264,-21.5 474,-21.5 474,-0.5 264,-0.5"/>
<text text-anchor="middle" x="369" y="-7.9" font-family="Helvetica,sans-Serif" font-size="12.00">UserInputControlScript.UpdateCursor</text>
</a>
</g>
</g>
<!-- Node1&#45;&gt;Node3 -->
<g id="edge2" class="edge">
<title>Node1&#45;&gt;Node3</title>
<path fill="none" stroke="midnightblue" d="M204.32,-23.35C220.41,-22.14 237.16,-20.87 253.53,-19.64"/>
<polygon fill="midnightblue" stroke="midnightblue" points="253.95,-23.12 263.66,-18.87 253.43,-16.14 253.95,-23.12"/>
</g>
</g>
</svg>
