<?xml version="1.0" encoding="UTF-8" standalone="no"?>
<!DOCTYPE svg PUBLIC "-//W3C//DTD SVG 1.1//EN"
 "http://www.w3.org/Graphics/SVG/1.1/DTD/svg11.dtd">
<!-- Generated by graphviz version 2.47.1 (20210417.1919)
 -->
<!-- Title: Dice.ReadyToRoll Pages: 1 -->
<svg width="382pt" height="70pt"
 viewBox="0.00 0.00 382.00 70.00" xmlns="http://www.w3.org/2000/svg" xmlns:xlink="http://www.w3.org/1999/xlink">
<g id="graph0" class="graph" transform="scale(1 1) rotate(0) translate(4 66)">
<title>Dice.ReadyToRoll</title>
<polygon fill="white" stroke="transparent" points="-4,4 -4,-66 378,-66 378,4 -4,4"/>
<!-- Node1 -->
<g id="node1" class="node">
<title>Node1</title>
<g id="a_node1"><a xlink:title="Are dice ready to roll">
<polygon fill="#bfbfbf" stroke="black" points="263,-20.5 263,-41.5 374,-41.5 374,-20.5 263,-20.5"/>
<text text-anchor="middle" x="318.5" y="-27.9" font-family="Helvetica,sans-Serif" font-size="12.00">Dice.ReadyToRoll</text>
</a>
</g>
</g>
<!-- Node2 -->
<g id="node2" class="node">
<title>Node2</title>
<g id="a_node2"><a xlink:href="class_player_movement_test_script.html#a1c247cfdee35d3a1c1d3a81fd579b426" target="_top" xlink:title=" ">
<polygon fill="white" stroke="black" points="0,-40.5 0,-61.5 227,-61.5 227,-40.5 0,-40.5"/>
<text text-anchor="middle" x="113.5" y="-47.9" font-family="Helvetica,sans-Serif" font-size="12.00">PlayerMovementTestScript.FixedUpdate</text>
</a>
</g>
</g>
<!-- Node1&#45;&gt;Node2 -->
<g id="edge1" class="edge">
<title>Node1&#45;&gt;Node2</title>
<path fill="none" stroke="midnightblue" d="M252.6,-37.39C242.58,-38.38 232,-39.42 221.34,-40.47"/>
<polygon fill="midnightblue" stroke="midnightblue" points="253.22,-40.85 262.83,-36.39 252.54,-33.88 253.22,-40.85"/>
</g>
<!-- Node3 -->
<g id="node3" class="node">
<title>Node3</title>
<g id="a_node3"><a xlink:href="class_display_dice_value.html#a0f0f2e5d5a2ecc6e8530c82f897f5dba" target="_top" xlink:title="Set button interactable and update dice value text">
<polygon fill="white" stroke="black" points="37.5,-0.5 37.5,-21.5 189.5,-21.5 189.5,-0.5 37.5,-0.5"/>
<text text-anchor="middle" x="113.5" y="-7.9" font-family="Helvetica,sans-Serif" font-size="12.00">DisplayDiceValue.Update</text>
</a>
</g>
</g>
<!-- Node1&#45;&gt;Node3 -->
<g id="edge2" class="edge">
<title>Node1&#45;&gt;Node3</title>
<path fill="none" stroke="midnightblue" d="M252.88,-24.63C232.83,-22.66 210.57,-20.46 189.86,-18.42"/>
<polygon fill="midnightblue" stroke="midnightblue" points="252.54,-28.12 262.83,-25.61 253.22,-21.15 252.54,-28.12"/>
</g>
</g>
</svg>
