<?xml version="1.0" encoding="UTF-8" standalone="no"?>
<!DOCTYPE svg PUBLIC "-//W3C//DTD SVG 1.1//EN"
 "http://www.w3.org/Graphics/SVG/1.1/DTD/svg11.dtd">
<!-- Generated by graphviz version 2.47.1 (20210417.1919)
 -->
<!-- Title: StartTileScript Pages: 1 -->
<svg width="151pt" height="571pt"
 viewBox="0.00 0.00 151.00 571.00" xmlns="http://www.w3.org/2000/svg" xmlns:xlink="http://www.w3.org/1999/xlink">
<g id="graph0" class="graph" transform="scale(1 1) rotate(0) translate(4 567)">
<title>StartTileScript</title>
<polygon fill="white" stroke="transparent" points="-4,4 -4,-567 147,-567 147,4 -4,4"/>
<!-- Node1 -->
<g id="node1" class="node">
<title>Node1</title>
<g id="a_node1"><a xlink:title="Class for the start tile Gameobject">
<polygon fill="#bfbfbf" stroke="black" points="19,-0.5 19,-141.5 124,-141.5 124,-0.5 19,-0.5"/>
<text text-anchor="middle" x="71.5" y="-127.9" font-family="Helvetica,sans-Serif" font-size="12.00">StartTileScript</text>
<polyline fill="none" stroke="black" points="19,-120.5 124,-120.5 "/>
<text text-anchor="start" x="27" y="-106.9" font-family="Helvetica,sans-Serif" font-size="12.00">+ Character</text>
<text text-anchor="start" x="27" y="-93.9" font-family="Helvetica,sans-Serif" font-size="12.00">&#45; character</text>
<text text-anchor="start" x="27" y="-80.9" font-family="Helvetica,sans-Serif" font-size="12.00">&#45; tileText</text>
<polyline fill="none" stroke="black" points="19,-73.5 124,-73.5 "/>
<text text-anchor="start" x="27" y="-59.9" font-family="Helvetica,sans-Serif" font-size="12.00">+ SetCharacter()</text>
<text text-anchor="start" x="27" y="-46.9" font-family="Helvetica,sans-Serif" font-size="12.00">+ SetTileColour()</text>
<text text-anchor="start" x="27" y="-33.9" font-family="Helvetica,sans-Serif" font-size="12.00">+ ToString()</text>
<text text-anchor="start" x="27" y="-20.9" font-family="Helvetica,sans-Serif" font-size="12.00">&#45; Awake()</text>
<text text-anchor="start" x="27" y="-7.9" font-family="Helvetica,sans-Serif" font-size="12.00">&#45; SetTileText()</text>
</a>
</g>
</g>
<!-- Node2 -->
<g id="node2" class="node">
<title>Node2</title>
<g id="a_node2"><a xlink:href="class_board_tile_script.html" target="_top" xlink:title="Super class for all tiles">
<polygon fill="white" stroke="black" points="0,-178.5 0,-462.5 143,-462.5 143,-178.5 0,-178.5"/>
<text text-anchor="middle" x="71.5" y="-448.9" font-family="Helvetica,sans-Serif" font-size="12.00">BoardTileScript</text>
<polyline fill="none" stroke="black" points="0,-441.5 143,-441.5 "/>
<text text-anchor="start" x="8" y="-427.9" font-family="Helvetica,sans-Serif" font-size="12.00">+ GridPosition</text>
<text text-anchor="start" x="8" y="-414.9" font-family="Helvetica,sans-Serif" font-size="12.00">+ TileType</text>
<text text-anchor="start" x="8" y="-401.9" font-family="Helvetica,sans-Serif" font-size="12.00">+ PlayerToken</text>
<text text-anchor="start" x="8" y="-388.9" font-family="Helvetica,sans-Serif" font-size="12.00">+ BoardManager</text>
<text text-anchor="start" x="8" y="-375.9" font-family="Helvetica,sans-Serif" font-size="12.00">&#45; gridPosition</text>
<text text-anchor="start" x="8" y="-362.9" font-family="Helvetica,sans-Serif" font-size="12.00">&#45; tileType</text>
<text text-anchor="start" x="8" y="-349.9" font-family="Helvetica,sans-Serif" font-size="12.00">&#45; boardTileEffectHandler</text>
<text text-anchor="start" x="8" y="-336.9" font-family="Helvetica,sans-Serif" font-size="12.00">&#45; playerToken</text>
<text text-anchor="start" x="8" y="-323.9" font-family="Helvetica,sans-Serif" font-size="12.00">&#45; boardManager</text>
<polyline fill="none" stroke="black" points="0,-316.5 143,-316.5 "/>
<text text-anchor="start" x="8" y="-302.9" font-family="Helvetica,sans-Serif" font-size="12.00">+ ClearTile()</text>
<text text-anchor="start" x="8" y="-289.9" font-family="Helvetica,sans-Serif" font-size="12.00">+ SelectTile()</text>
<text text-anchor="start" x="8" y="-276.9" font-family="Helvetica,sans-Serif" font-size="12.00">+ GlowTile()</text>
<text text-anchor="start" x="8" y="-263.9" font-family="Helvetica,sans-Serif" font-size="12.00">+ SetToken()</text>
<text text-anchor="start" x="8" y="-250.9" font-family="Helvetica,sans-Serif" font-size="12.00">+ IsEmpty()</text>
<text text-anchor="start" x="8" y="-237.9" font-family="Helvetica,sans-Serif" font-size="12.00">+ GetTileNeighbours()</text>
<text text-anchor="start" x="8" y="-224.9" font-family="Helvetica,sans-Serif" font-size="12.00">+ CanMove()</text>
<text text-anchor="start" x="8" y="-211.9" font-family="Helvetica,sans-Serif" font-size="12.00">+ ToString()</text>
<text text-anchor="start" x="8" y="-198.9" font-family="Helvetica,sans-Serif" font-size="12.00"># Init()</text>
<text text-anchor="start" x="8" y="-185.9" font-family="Helvetica,sans-Serif" font-size="12.00">&#45; Start()</text>
</a>
</g>
</g>
<!-- Node2&#45;&gt;Node1 -->
<g id="edge1" class="edge">
<title>Node2&#45;&gt;Node1</title>
<path fill="none" stroke="midnightblue" d="M71.5,-168.34C71.5,-159.14 71.5,-150.15 71.5,-141.59"/>
<polygon fill="none" stroke="midnightblue" points="68,-168.4 71.5,-178.4 75,-168.4 68,-168.4"/>
</g>
<!-- Node3 -->
<g id="node3" class="node">
<title>Node3</title>
<g id="a_node3"><a xlink:title=" ">
<polygon fill="white" stroke="#bfbfbf" points="22.5,-499.5 22.5,-562.5 120.5,-562.5 120.5,-499.5 22.5,-499.5"/>
<text text-anchor="middle" x="71.5" y="-548.9" font-family="Helvetica,sans-Serif" font-size="12.00">MonoBehaviour</text>
<polyline fill="none" stroke="#bfbfbf" points="22.5,-541.5 120.5,-541.5 "/>
<text text-anchor="middle" x="71.5" y="-527.9" font-family="Helvetica,sans-Serif" font-size="12.00"> </text>
<polyline fill="none" stroke="#bfbfbf" points="22.5,-520.5 120.5,-520.5 "/>
<text text-anchor="middle" x="71.5" y="-506.9" font-family="Helvetica,sans-Serif" font-size="12.00"> </text>
</a>
</g>
</g>
<!-- Node3&#45;&gt;Node2 -->
<g id="edge2" class="edge">
<title>Node3&#45;&gt;Node2</title>
<path fill="none" stroke="midnightblue" d="M71.5,-489.07C71.5,-480.95 71.5,-472.01 71.5,-462.61"/>
<polygon fill="none" stroke="midnightblue" points="68,-489.24 71.5,-499.24 75,-489.24 68,-489.24"/>
</g>
</g>
</svg>
