<?xml version="1.0" encoding="UTF-8" standalone="no"?>
<!DOCTYPE svg PUBLIC "-//W3C//DTD SVG 1.1//EN"
 "http://www.w3.org/Graphics/SVG/1.1/DTD/svg11.dtd">
<!-- Generated by graphviz version 2.47.1 (20210417.1919)
 -->
<!-- Title: NotebookScript.CreateCharacterButtons Pages: 1 -->
<svg width="639pt" height="30pt"
 viewBox="0.00 0.00 639.00 30.00" xmlns="http://www.w3.org/2000/svg" xmlns:xlink="http://www.w3.org/1999/xlink">
<g id="graph0" class="graph" transform="scale(1 1) rotate(0) translate(4 26)">
<title>NotebookScript.CreateCharacterButtons</title>
<polygon fill="white" stroke="transparent" points="-4,4 -4,-26 635,-26 635,4 -4,4"/>
<!-- Node1 -->
<g id="node1" class="node">
<title>Node1</title>
<g id="a_node1"><a xlink:title="Create the character buttons">
<polygon fill="#bfbfbf" stroke="black" points="403,-0.5 403,-21.5 631,-21.5 631,-0.5 403,-0.5"/>
<text text-anchor="middle" x="517" y="-7.9" font-family="Helvetica,sans-Serif" font-size="12.00">NotebookScript.CreateCharacterButtons</text>
</a>
</g>
</g>
<!-- Node2 -->
<g id="node2" class="node">
<title>Node2</title>
<g id="a_node2"><a xlink:href="class_notebook_script.html#a829e34fac5e19bf031c070b44f0fe370" target="_top" xlink:title="Initialize notebook UI">
<polygon fill="white" stroke="black" points="173,-0.5 173,-21.5 367,-21.5 367,-0.5 173,-0.5"/>
<text text-anchor="middle" x="270" y="-7.9" font-family="Helvetica,sans-Serif" font-size="12.00">NotebookScript.initializeNotebook</text>
</a>
</g>
</g>
<!-- Node1&#45;&gt;Node2 -->
<g id="edge1" class="edge">
<title>Node1&#45;&gt;Node2</title>
<path fill="none" stroke="midnightblue" d="M392.76,-11C384.17,-11 375.59,-11 367.19,-11"/>
<polygon fill="midnightblue" stroke="midnightblue" points="392.82,-14.5 402.82,-11 392.82,-7.5 392.82,-14.5"/>
</g>
<!-- Node3 -->
<g id="node3" class="node">
<title>Node3</title>
<g id="a_node3"><a xlink:href="class_notebook_script.html#ad7fb4caee1659d66f551b02983ef9d4c" target="_top" xlink:title="Initialize notebook on awake">
<polygon fill="white" stroke="black" points="0,-0.5 0,-21.5 137,-21.5 137,-0.5 0,-0.5"/>
<text text-anchor="middle" x="68.5" y="-7.9" font-family="Helvetica,sans-Serif" font-size="12.00">NotebookScript.Awake</text>
</a>
</g>
</g>
<!-- Node2&#45;&gt;Node3 -->
<g id="edge2" class="edge">
<title>Node2&#45;&gt;Node3</title>
<path fill="none" stroke="midnightblue" d="M162.58,-11C153.93,-11 145.34,-11 137.09,-11"/>
<polygon fill="midnightblue" stroke="midnightblue" points="162.76,-14.5 172.76,-11 162.76,-7.5 162.76,-14.5"/>
</g>
</g>
</svg>
