<?xml version="1.0" encoding="UTF-8" standalone="no"?>
<!DOCTYPE svg PUBLIC "-//W3C//DTD SVG 1.1//EN"
 "http://www.w3.org/Graphics/SVG/1.1/DTD/svg11.dtd">
<!-- Generated by graphviz version 2.47.1 (20210417.1919)
 -->
<!-- Title: WeaponCard Pages: 1 -->
<svg width="119pt" height="350pt"
 viewBox="0.00 0.00 119.00 350.00" xmlns="http://www.w3.org/2000/svg" xmlns:xlink="http://www.w3.org/1999/xlink">
<g id="graph0" class="graph" transform="scale(1 1) rotate(0) translate(4 346)">
<title>WeaponCard</title>
<polygon fill="white" stroke="transparent" points="-4,4 -4,-346 115,-346 115,4 -4,4"/>
<!-- Node1 -->
<g id="node1" class="node">
<title>Node1</title>
<g id="a_node1"><a xlink:title=" ">
<polygon fill="#bfbfbf" stroke="black" points="0,-0.5 0,-128.5 111,-128.5 111,-0.5 0,-0.5"/>
<text text-anchor="middle" x="55.5" y="-114.9" font-family="Helvetica,sans-Serif" font-size="12.00">WeaponCard</text>
<polyline fill="none" stroke="black" points="0,-107.5 111,-107.5 "/>
<text text-anchor="start" x="8" y="-93.9" font-family="Helvetica,sans-Serif" font-size="12.00">+ weaponEnum</text>
<text text-anchor="start" x="8" y="-80.9" font-family="Helvetica,sans-Serif" font-size="12.00">&#45; cardImage</text>
<polyline fill="none" stroke="black" points="0,-73.5 111,-73.5 "/>
<text text-anchor="start" x="8" y="-59.9" font-family="Helvetica,sans-Serif" font-size="12.00">+ Equals()</text>
<text text-anchor="start" x="8" y="-46.9" font-family="Helvetica,sans-Serif" font-size="12.00">+ GetCardType()</text>
<text text-anchor="start" x="8" y="-33.9" font-family="Helvetica,sans-Serif" font-size="12.00">+ GetHashCode()</text>
<text text-anchor="start" x="8" y="-20.9" font-family="Helvetica,sans-Serif" font-size="12.00">+ GetCardImage()</text>
<text text-anchor="start" x="8" y="-7.9" font-family="Helvetica,sans-Serif" font-size="12.00">&#45; Awake()</text>
</a>
</g>
</g>
<!-- Node2 -->
<g id="node2" class="node">
<title>Node2</title>
<g id="a_node2"><a xlink:href="class_card.html" target="_top" xlink:title=" ">
<polygon fill="white" stroke="black" points="0,-165.5 0,-241.5 111,-241.5 111,-165.5 0,-165.5"/>
<text text-anchor="middle" x="55.5" y="-227.9" font-family="Helvetica,sans-Serif" font-size="12.00">Card</text>
<polyline fill="none" stroke="black" points="0,-220.5 111,-220.5 "/>
<text text-anchor="start" x="8" y="-206.9" font-family="Helvetica,sans-Serif" font-size="12.00">+ names</text>
<polyline fill="none" stroke="black" points="0,-199.5 111,-199.5 "/>
<text text-anchor="start" x="8" y="-185.9" font-family="Helvetica,sans-Serif" font-size="12.00">+ GetCardType()</text>
<text text-anchor="start" x="8" y="-172.9" font-family="Helvetica,sans-Serif" font-size="12.00">+ GetCardImage()</text>
</a>
</g>
</g>
<!-- Node2&#45;&gt;Node1 -->
<g id="edge1" class="edge">
<title>Node2&#45;&gt;Node1</title>
<path fill="none" stroke="midnightblue" d="M55.5,-155.27C55.5,-146.72 55.5,-137.67 55.5,-128.74"/>
<polygon fill="none" stroke="midnightblue" points="52,-155.43 55.5,-165.43 59,-155.43 52,-155.43"/>
</g>
<!-- Node3 -->
<g id="node3" class="node">
<title>Node3</title>
<g id="a_node3"><a xlink:title=" ">
<polygon fill="white" stroke="#bfbfbf" points="6.5,-278.5 6.5,-341.5 104.5,-341.5 104.5,-278.5 6.5,-278.5"/>
<text text-anchor="middle" x="55.5" y="-327.9" font-family="Helvetica,sans-Serif" font-size="12.00">MonoBehaviour</text>
<polyline fill="none" stroke="#bfbfbf" points="6.5,-320.5 104.5,-320.5 "/>
<text text-anchor="middle" x="55.5" y="-306.9" font-family="Helvetica,sans-Serif" font-size="12.00"> </text>
<polyline fill="none" stroke="#bfbfbf" points="6.5,-299.5 104.5,-299.5 "/>
<text text-anchor="middle" x="55.5" y="-285.9" font-family="Helvetica,sans-Serif" font-size="12.00"> </text>
</a>
</g>
</g>
<!-- Node3&#45;&gt;Node2 -->
<g id="edge2" class="edge">
<title>Node3&#45;&gt;Node2</title>
<path fill="none" stroke="midnightblue" d="M55.5,-268.39C55.5,-259.54 55.5,-250.23 55.5,-241.53"/>
<polygon fill="none" stroke="midnightblue" points="52,-268.49 55.5,-278.49 59,-268.49 52,-268.49"/>
</g>
</g>
</svg>
