<?xml version="1.0" encoding="UTF-8" standalone="no"?>
<!DOCTYPE svg PUBLIC "-//W3C//DTD SVG 1.1//EN"
 "http://www.w3.org/Graphics/SVG/1.1/DTD/svg11.dtd">
<!-- Generated by graphviz version 2.47.1 (20210417.1919)
 -->
<!-- Title: RoundManager.DelayRoll Pages: 1 -->
<svg width="1160pt" height="110pt"
 viewBox="0.00 0.00 1160.00 110.00" xmlns="http://www.w3.org/2000/svg" xmlns:xlink="http://www.w3.org/1999/xlink">
<g id="graph0" class="graph" transform="scale(1 1) rotate(0) translate(4 106)">
<title>RoundManager.DelayRoll</title>
<polygon fill="white" stroke="transparent" points="-4,4 -4,-106 1156,-106 1156,4 -4,4"/>
<!-- Node1 -->
<g id="node1" class="node">
<title>Node1</title>
<g id="a_node1"><a xlink:title="roll dice after a delay time, used for free roll tile">
<polygon fill="#bfbfbf" stroke="black" points="0,-20.5 0,-41.5 149,-41.5 149,-20.5 0,-20.5"/>
<text text-anchor="middle" x="74.5" y="-27.9" font-family="Helvetica,sans-Serif" font-size="12.00">RoundManager.DelayRoll</text>
</a>
</g>
</g>
<!-- Node2 -->
<g id="node2" class="node">
<title>Node2</title>
<g id="a_node2"><a xlink:href="class_round_manager.html#ab795c17242b95ab2cef508da5daa2593" target="_top" xlink:title="Rolls dice, will not roll if the player has rolled aready. Pass true to forcfully roll it">
<polygon fill="white" stroke="black" points="185,-20.5 185,-41.5 329,-41.5 329,-20.5 185,-20.5"/>
<text text-anchor="middle" x="257" y="-27.9" font-family="Helvetica,sans-Serif" font-size="12.00">RoundManager.RollDice</text>
</a>
</g>
</g>
<!-- Node1&#45;&gt;Node2 -->
<g id="edge1" class="edge">
<title>Node1&#45;&gt;Node2</title>
<path fill="none" stroke="midnightblue" d="M149.18,-31C157.56,-31 166.15,-31 174.62,-31"/>
<polygon fill="midnightblue" stroke="midnightblue" points="174.89,-34.5 184.89,-31 174.89,-27.5 174.89,-34.5"/>
</g>
<!-- Node3 -->
<g id="node3" class="node">
<title>Node3</title>
<g id="a_node3"><a xlink:href="class_round_manager.html#a5cfea3b56a7576ad02c82c27bb0c6ba7" target="_top" xlink:title="reset the dice after a time delay">
<polygon fill="white" stroke="black" points="365,-40.5 365,-61.5 550,-61.5 550,-40.5 365,-40.5"/>
<text text-anchor="middle" x="457.5" y="-47.9" font-family="Helvetica,sans-Serif" font-size="12.00">RoundManager.DelayResetDice</text>
</a>
</g>
</g>
<!-- Node2&#45;&gt;Node3 -->
<g id="edge2" class="edge">
<title>Node2&#45;&gt;Node3</title>
<path fill="none" stroke="midnightblue" d="M329.1,-38.16C337.42,-39 346.02,-39.87 354.65,-40.74"/>
<polygon fill="midnightblue" stroke="midnightblue" points="354.48,-44.24 364.78,-41.76 355.18,-37.27 354.48,-44.24"/>
</g>
<!-- Node10 -->
<g id="node10" class="node">
<title>Node10</title>
<g id="a_node10"><a xlink:href="class_dice.html#a333ed52f536c0e7748fafe9422b179b5" target="_top" xlink:title="Roll the Dice">
<polygon fill="white" stroke="black" points="413,-0.5 413,-21.5 502,-21.5 502,-0.5 413,-0.5"/>
<text text-anchor="middle" x="457.5" y="-7.9" font-family="Helvetica,sans-Serif" font-size="12.00">Dice.RollDice</text>
</a>
</g>
</g>
<!-- Node2&#45;&gt;Node10 -->
<g id="edge9" class="edge">
<title>Node2&#45;&gt;Node10</title>
<path fill="none" stroke="midnightblue" d="M329.1,-23.84C353.41,-21.39 380.18,-18.69 402.88,-16.4"/>
<polygon fill="midnightblue" stroke="midnightblue" points="403.4,-19.87 413,-15.38 402.7,-12.9 403.4,-19.87"/>
</g>
<!-- Node4 -->
<g id="node4" class="node">
<title>Node4</title>
<g id="a_node4"><a xlink:href="class_dice.html#ade1dc529eeb31f31e668c595c5748e67" target="_top" xlink:title="Reset the dice">
<polygon fill="white" stroke="black" points="586,-40.5 586,-61.5 686,-61.5 686,-40.5 586,-40.5"/>
<text text-anchor="middle" x="636" y="-47.9" font-family="Helvetica,sans-Serif" font-size="12.00">Dice.ResetDice</text>
</a>
</g>
</g>
<!-- Node3&#45;&gt;Node4 -->
<g id="edge3" class="edge">
<title>Node3&#45;&gt;Node4</title>
<path fill="none" stroke="midnightblue" d="M550.11,-51C558.73,-51 567.3,-51 575.5,-51"/>
<polygon fill="midnightblue" stroke="midnightblue" points="575.67,-54.5 585.67,-51 575.67,-47.5 575.67,-54.5"/>
</g>
<!-- Node5 -->
<g id="node5" class="node">
<title>Node5</title>
<g id="a_node5"><a xlink:href="class_dice.html#ace4c995eb73b784d1076fde140ce85af" target="_top" xlink:title="Can Dice be reset">
<polygon fill="white" stroke="black" points="764.5,-80.5 764.5,-101.5 861.5,-101.5 861.5,-80.5 764.5,-80.5"/>
<text text-anchor="middle" x="813" y="-87.9" font-family="Helvetica,sans-Serif" font-size="12.00">Dice.CanReset</text>
</a>
</g>
</g>
<!-- Node4&#45;&gt;Node5 -->
<g id="edge4" class="edge">
<title>Node4&#45;&gt;Node5</title>
<path fill="none" stroke="midnightblue" d="M681.53,-61.59C694.57,-64.66 708.85,-67.99 722,-71 732.51,-73.4 743.73,-75.93 754.54,-78.34"/>
<polygon fill="midnightblue" stroke="midnightblue" points="753.81,-81.77 764.33,-80.52 755.33,-74.93 753.81,-81.77"/>
</g>
<!-- Node7 -->
<g id="node7" class="node">
<title>Node7</title>
<g id="a_node7"><a xlink:href="class_camera_close_up.html#ad31062bdf359a453fc85ebdd71fa1bae" target="_top" xlink:title="Clear camera close up">
<polygon fill="white" stroke="black" points="722,-40.5 722,-61.5 904,-61.5 904,-40.5 722,-40.5"/>
<text text-anchor="middle" x="813" y="-47.9" font-family="Helvetica,sans-Serif" font-size="12.00">CameraCloseUp.ClearCloseUp</text>
</a>
</g>
</g>
<!-- Node4&#45;&gt;Node7 -->
<g id="edge6" class="edge">
<title>Node4&#45;&gt;Node7</title>
<path fill="none" stroke="midnightblue" d="M686.21,-51C694.21,-51 702.73,-51 711.43,-51"/>
<polygon fill="midnightblue" stroke="midnightblue" points="711.7,-54.5 721.7,-51 711.7,-47.5 711.7,-54.5"/>
</g>
<!-- Node9 -->
<g id="node9" class="node">
<title>Node9</title>
<g id="a_node9"><a xlink:href="class_die.html#abc11c3d2bf0c0fba1555093eb5a8469e" target="_top" xlink:title="Reset Die to original position">
<polygon fill="white" stroke="black" points="769,-0.5 769,-21.5 857,-21.5 857,-0.5 769,-0.5"/>
<text text-anchor="middle" x="813" y="-7.9" font-family="Helvetica,sans-Serif" font-size="12.00">Die.ResetDie</text>
</a>
</g>
</g>
<!-- Node4&#45;&gt;Node9 -->
<g id="edge8" class="edge">
<title>Node4&#45;&gt;Node9</title>
<path fill="none" stroke="midnightblue" d="M681.53,-40.41C694.57,-37.34 708.85,-34.01 722,-31 733.95,-28.27 746.8,-25.38 758.94,-22.68"/>
<polygon fill="midnightblue" stroke="midnightblue" points="759.94,-26.04 768.94,-20.45 758.42,-19.21 759.94,-26.04"/>
</g>
<!-- Node6 -->
<g id="node6" class="node">
<title>Node6</title>
<g id="a_node6"><a xlink:href="class_die.html#a390d46459637fd249926cda472255d84" target="_top" xlink:title="Can the die be reset">
<polygon fill="white" stroke="black" points="991,-80.5 991,-101.5 1101,-101.5 1101,-80.5 991,-80.5"/>
<text text-anchor="middle" x="1046" y="-87.9" font-family="Helvetica,sans-Serif" font-size="12.00">Die.CanResetDie</text>
</a>
</g>
</g>
<!-- Node5&#45;&gt;Node6 -->
<g id="edge5" class="edge">
<title>Node5&#45;&gt;Node6</title>
<path fill="none" stroke="midnightblue" d="M861.58,-91C895.87,-91 942.54,-91 980.22,-91"/>
<polygon fill="midnightblue" stroke="midnightblue" points="980.59,-94.5 990.59,-91 980.59,-87.5 980.59,-94.5"/>
</g>
<!-- Node8 -->
<g id="node8" class="node">
<title>Node8</title>
<g id="a_node8"><a xlink:href="class_camera_close_up.html#ae902d2ccdf969212e0cb84f638f68851" target="_top" xlink:title="Delay then clear close up">
<polygon fill="white" stroke="black" points="940,-40.5 940,-61.5 1152,-61.5 1152,-40.5 940,-40.5"/>
<text text-anchor="middle" x="1046" y="-47.9" font-family="Helvetica,sans-Serif" font-size="12.00">CameraCloseUp.ClearCloseUpDelay</text>
</a>
</g>
</g>
<!-- Node7&#45;&gt;Node8 -->
<g id="edge7" class="edge">
<title>Node7&#45;&gt;Node8</title>
<path fill="none" stroke="midnightblue" d="M904.3,-51C912.67,-51 921.22,-51 929.77,-51"/>
<polygon fill="midnightblue" stroke="midnightblue" points="929.8,-54.5 939.8,-51 929.8,-47.5 929.8,-54.5"/>
</g>
<!-- Node11 -->
<g id="node11" class="node">
<title>Node11</title>
<g id="a_node11"><a xlink:href="class_die.html#a4995ecb1a88aa7f1043ae71ba8aa3ef5" target="_top" xlink:title="Roll the die">
<polygon fill="white" stroke="black" points="597.5,-0.5 597.5,-21.5 674.5,-21.5 674.5,-0.5 597.5,-0.5"/>
<text text-anchor="middle" x="636" y="-7.9" font-family="Helvetica,sans-Serif" font-size="12.00">Die.RollDie</text>
</a>
</g>
</g>
<!-- Node10&#45;&gt;Node11 -->
<g id="edge10" class="edge">
<title>Node10&#45;&gt;Node11</title>
<path fill="none" stroke="midnightblue" d="M502.13,-11C527.9,-11 560.57,-11 587.06,-11"/>
<polygon fill="midnightblue" stroke="midnightblue" points="587.25,-14.5 597.25,-11 587.25,-7.5 587.25,-14.5"/>
</g>
<!-- Node11&#45;&gt;Node9 -->
<g id="edge11" class="edge">
<title>Node11&#45;&gt;Node9</title>
<path fill="none" stroke="midnightblue" d="M674.54,-11C699.12,-11 731.61,-11 758.83,-11"/>
<polygon fill="midnightblue" stroke="midnightblue" points="758.98,-14.5 768.98,-11 758.98,-7.5 758.98,-14.5"/>
</g>
</g>
</svg>
