<?xml version="1.0" encoding="UTF-8" standalone="no"?>
<!DOCTYPE svg PUBLIC "-//W3C//DTD SVG 1.1//EN"
 "http://www.w3.org/Graphics/SVG/1.1/DTD/svg11.dtd">
<!-- Generated by graphviz version 2.47.1 (20210417.1919)
 -->
<!-- Title: AIControllerScript.Decide_Character Pages: 1 -->
<!--zoomable 70 -->
<svg id="main" version="1.1" xmlns="http://www.w3.org/2000/svg" xmlns:xlink="http://www.w3.org/1999/xlink" xml:space="preserve" onload="init(evt)">
<style type="text/css"><![CDATA[
.edge:hover path { stroke: red; }
.edge:hover polygon { stroke: red; fill: red; }
]]></style>
<script type="text/javascript"><![CDATA[
var edges = document.getElementsByTagName('g');
if (edges && edges.length) {
  for (var i=0;i<edges.length;i++) {
    if (edges[i].id.substr(0,4)=='edge') {
      edges[i].setAttribute('class','edge');
    }
  }
}
]]></script>
        <defs>
                <circle id="rim" cx="0" cy="0" r="7"/>
                <circle id="rim2" cx="0" cy="0" r="3.5"/>
                <g id="zoomPlus">
                        <use xlink:href="#rim" fill="#404040">
                                <set attributeName="fill" to="#808080" begin="zoomplus.mouseover" end="zoomplus.mouseout"/>
                        </use>
                        <path d="M-4,0h8M0,-4v8" fill="none" stroke="white" stroke-width="1.5" pointer-events="none"/>
                </g>
                <g id="zoomMin">
                        <use xlink:href="#rim" fill="#404040">
                                <set attributeName="fill" to="#808080" begin="zoomminus.mouseover" end="zoomminus.mouseout"/>
                        </use>
                        <path d="M-4,0h8" fill="none" stroke="white" stroke-width="1.5" pointer-events="none"/>
                </g>
                <g id="dirArrow">
                        <path fill="none" stroke="white" stroke-width="1.5" d="M0,-3.0v7 M-2.5,-0.5L0,-3.0L2.5,-0.5"/>
                </g>
               <g id="resetDef">
                       <use xlink:href="#rim2" fill="#404040">
                               <set attributeName="fill" to="#808080" begin="reset.mouseover" end="reset.mouseout"/>
                       </use>
               </g>
        </defs>

<script type="text/javascript">
var viewWidth = 892;
var viewHeight = 70;
var sectionId = 'dynsection-14';
</script>
<script xlink:href="svgpan.js"/>
<svg id="graph" class="graph">
<g id="viewport">
<title>AIControllerScript.Decide_Character</title>
<polygon fill="white" stroke="transparent" points="-4,4 -4,-66 888,-66 888,4 -4,4"/>
<!-- Node1 -->
<g id="node1" class="node">
<title>Node1</title>
<g id="a_node1"><a xlink:title="to decide a random character from the To Guess List">
<polygon fill="#bfbfbf" stroke="black" points="676,-20.5 676,-41.5 884,-41.5 884,-20.5 676,-20.5"/>
<text text-anchor="middle" x="780" y="-27.9" font-family="Helvetica,sans-Serif" font-size="12.00">AIControllerScript.Decide_Character</text>
</a>
</g>
</g>
<!-- Node2 -->
<g id="node2" class="node">
<title>Node2</title>
<g id="a_node2"><a xlink:href="class_a_i_controller_script.html#a7be5eb284c6258672e70af128f8638df" target="_top" xlink:title="Decides that cards to accuse based on the To Guess List">
<polygon fill="white" stroke="black" points="425.5,-40.5 425.5,-61.5 639.5,-61.5 639.5,-40.5 425.5,-40.5"/>
<text text-anchor="middle" x="532.5" y="-47.9" font-family="Helvetica,sans-Serif" font-size="12.00">AIControllerScript.Decide_Accusation</text>
</a>
</g>
</g>
<!-- Node1&#45;&gt;Node2 -->
<g id="edge1" class="edge">
<title>Node1&#45;&gt;Node2</title>
<path fill="none" stroke="midnightblue" d="M665.83,-40.22C657.17,-40.93 648.45,-41.64 639.83,-42.34"/>
<polygon fill="midnightblue" stroke="midnightblue" points="666.27,-43.7 675.95,-39.39 665.7,-36.72 666.27,-43.7"/>
</g>
<!-- Node5 -->
<g id="node5" class="node">
<title>Node5</title>
<g id="a_node5"><a xlink:href="class_a_i_controller_script.html#affdf86fa313c46463a9a5a2b20020a17" target="_top" xlink:title="Decides what the AI should suggest this should match the flow chart of the AI">
<polygon fill="white" stroke="black" points="425,-0.5 425,-21.5 640,-21.5 640,-0.5 425,-0.5"/>
<text text-anchor="middle" x="532.5" y="-7.9" font-family="Helvetica,sans-Serif" font-size="12.00">AIControllerScript.Decide_Suggestion</text>
</a>
</g>
</g>
<!-- Node1&#45;&gt;Node5 -->
<g id="edge4" class="edge">
<title>Node1&#45;&gt;Node5</title>
<path fill="none" stroke="midnightblue" d="M665.94,-21.79C657.38,-21.09 648.75,-20.39 640.23,-19.69"/>
<polygon fill="midnightblue" stroke="midnightblue" points="665.7,-25.28 675.95,-22.61 666.27,-18.3 665.7,-25.28"/>
</g>
<!-- Node3 -->
<g id="node3" class="node">
<title>Node3</title>
<g id="a_node3"><a xlink:href="class_a_i_controller_script.html#ac31d9b8dbb75696b181eff1fbef41b97" target="_top" xlink:title="dictates what the AI will do depending on what mode it is in">
<polygon fill="white" stroke="black" points="215,-20.5 215,-41.5 389,-41.5 389,-20.5 215,-20.5"/>
<text text-anchor="middle" x="302" y="-27.9" font-family="Helvetica,sans-Serif" font-size="12.00">AIControllerScript.AIBehaviour</text>
</a>
</g>
</g>
<!-- Node2&#45;&gt;Node3 -->
<g id="edge2" class="edge">
<title>Node2&#45;&gt;Node3</title>
<path fill="none" stroke="midnightblue" d="M415.03,-40.81C406.3,-40.04 397.59,-39.28 389.1,-38.54"/>
<polygon fill="midnightblue" stroke="midnightblue" points="415.01,-44.32 425.28,-41.7 415.62,-37.34 415.01,-44.32"/>
</g>
<!-- Node4 -->
<g id="node4" class="node">
<title>Node4</title>
<g id="a_node4"><a xlink:href="class_a_i_controller_script.html#a74dc0e720fafceb873d3b19c12f68d58" target="_top" xlink:title=" ">
<polygon fill="white" stroke="black" points="0,-20.5 0,-41.5 179,-41.5 179,-20.5 0,-20.5"/>
<text text-anchor="middle" x="89.5" y="-27.9" font-family="Helvetica,sans-Serif" font-size="12.00">AIControllerScript.FixedUpdate</text>
</a>
</g>
</g>
<!-- Node3&#45;&gt;Node4 -->
<g id="edge3" class="edge">
<title>Node3&#45;&gt;Node4</title>
<path fill="none" stroke="midnightblue" d="M204.57,-31C196.15,-31 187.67,-31 179.32,-31"/>
<polygon fill="midnightblue" stroke="midnightblue" points="204.77,-34.5 214.77,-31 204.77,-27.5 204.77,-34.5"/>
</g>
<!-- Node5&#45;&gt;Node3 -->
<g id="edge5" class="edge">
<title>Node5&#45;&gt;Node3</title>
<path fill="none" stroke="midnightblue" d="M414.82,-21.21C406.19,-21.97 397.58,-22.72 389.18,-23.46"/>
<polygon fill="midnightblue" stroke="midnightblue" points="415.29,-24.69 424.94,-20.33 414.68,-17.71 415.29,-24.69"/>
</g>
</g>
</svg>
        <g id="navigator" transform="translate(0 0)" fill="#404254">
                <rect fill="#f2f5e9" fill-opacity="0.5" stroke="#606060" stroke-width=".5" x="0" y="0" width="60" height="60"/>
                <use id="zoomplus" xlink:href="#zoomPlus" x="17" y="9" onmousedown="handleZoom(evt,'in')"/>
                <use id="zoomminus" xlink:href="#zoomMin" x="42" y="9" onmousedown="handleZoom(evt,'out')"/>
                <use id="reset" xlink:href="#resetDef" x="30" y="36" onmousedown="handleReset()"/>
                <g id="arrowUp" xlink:href="#dirArrow" transform="translate(30 24)" onmousedown="handlePan(0,-1)">
                  <use xlink:href="#rim" fill="#404040">
                        <set attributeName="fill" to="#808080" begin="arrowUp.mouseover" end="arrowUp.mouseout"/>
                  </use>
                  <path fill="none" stroke="white" stroke-width="1.5" d="M0,-3.0v7 M-2.5,-0.5L0,-3.0L2.5,-0.5"/>
                </g>
                <g id="arrowRight" xlink:href="#dirArrow" transform="rotate(90) translate(36 -43)" onmousedown="handlePan(1,0)">
                  <use xlink:href="#rim" fill="#404040">
                        <set attributeName="fill" to="#808080" begin="arrowRight.mouseover" end="arrowRight.mouseout"/>
                  </use>
                  <path fill="none" stroke="white" stroke-width="1.5" d="M0,-3.0v7 M-2.5,-0.5L0,-3.0L2.5,-0.5"/>
                </g>
                <g id="arrowDown" xlink:href="#dirArrow" transform="rotate(180) translate(-30 -48)" onmousedown="handlePan(0,1)">
                  <use xlink:href="#rim" fill="#404040">
                        <set attributeName="fill" to="#808080" begin="arrowDown.mouseover" end="arrowDown.mouseout"/>
                  </use>
                  <path fill="none" stroke="white" stroke-width="1.5" d="M0,-3.0v7 M-2.5,-0.5L0,-3.0L2.5,-0.5"/>
                </g>
                <g id="arrowLeft" xlink:href="#dirArrow" transform="rotate(270) translate(-36 17)" onmousedown="handlePan(-1,0)">
                  <use xlink:href="#rim" fill="#404040">
                        <set attributeName="fill" to="#808080" begin="arrowLeft.mouseover" end="arrowLeft.mouseout"/>
                  </use>
                  <path fill="none" stroke="white" stroke-width="1.5" d="M0,-3.0v7 M-2.5,-0.5L0,-3.0L2.5,-0.5"/>
                </g>
        </g>
        <svg viewBox="0 0 15 15" width="100%" height="30px" preserveAspectRatio="xMaxYMin meet">
         <g id="arrow_out" transform="scale(0.3 0.3)">
          <a xlink:href="class_a_i_controller_script_af8ec3d63334b6e9973a077d6ad401f59_icgraph_org.svg" target="_base">
           <rect id="button" ry="5" rx="5" y="6" x="6" height="38" width="38"
                fill="#f2f5e9" fill-opacity="0.5" stroke="#606060" stroke-width="1.0"/>
           <path id="arrow"
             d="M 11.500037,31.436501 C 11.940474,20.09759 22.043105,11.32322 32.158766,21.979434 L 37.068811,17.246167 C 37.068811,17.246167 37.088388,32 37.088388,32 L 22.160133,31.978069 C 22.160133,31.978069 26.997745,27.140456 26.997745,27.140456 C 18.528582,18.264221 13.291696,25.230495 11.500037,31.436501 z"
             style="fill:#404040;"/>
          </a>
         </g>
        </svg>
</svg>
