<?xml version="1.0" encoding="UTF-8" standalone="no"?>
<!DOCTYPE svg PUBLIC "-//W3C//DTD SVG 1.1//EN"
 "http://www.w3.org/Graphics/SVG/1.1/DTD/svg11.dtd">
<!-- Generated by graphviz version 2.47.1 (20210417.1919)
 -->
<!-- Title: WeaponCard.GetCardType Pages: 1 -->
<svg width="1222pt" height="110pt"
 viewBox="0.00 0.00 1222.00 110.00" xmlns="http://www.w3.org/2000/svg" xmlns:xlink="http://www.w3.org/1999/xlink">
<g id="graph0" class="graph" transform="scale(1 1) rotate(0) translate(4 106)">
<title>WeaponCard.GetCardType</title>
<polygon fill="white" stroke="transparent" points="-4,4 -4,-106 1218,-106 1218,4 -4,4"/>
<!-- Node1 -->
<g id="node1" class="node">
<title>Node1</title>
<g id="a_node1"><a xlink:title="Returns the enum of the card">
<polygon fill="#bfbfbf" stroke="black" points="1053,-40.5 1053,-61.5 1214,-61.5 1214,-40.5 1053,-40.5"/>
<text text-anchor="middle" x="1133.5" y="-47.9" font-family="Helvetica,sans-Serif" font-size="12.00">WeaponCard.GetCardType</text>
</a>
</g>
</g>
<!-- Node2 -->
<g id="node2" class="node">
<title>Node2</title>
<g id="a_node2"><a xlink:href="class_suggestion.html#ab326cb791b6707926dd69497e79d159b" target="_top" xlink:title=" ">
<polygon fill="white" stroke="black" points="895,-40.5 895,-61.5 1017,-61.5 1017,-40.5 895,-40.5"/>
<text text-anchor="middle" x="956" y="-47.9" font-family="Helvetica,sans-Serif" font-size="12.00">Suggestion.Suggest</text>
</a>
</g>
</g>
<!-- Node1&#45;&gt;Node2 -->
<g id="edge1" class="edge">
<title>Node1&#45;&gt;Node2</title>
<path fill="none" stroke="midnightblue" d="M1042.76,-51C1034.06,-51 1025.38,-51 1017.07,-51"/>
<polygon fill="midnightblue" stroke="midnightblue" points="1042.97,-54.5 1052.97,-51 1042.97,-47.5 1042.97,-54.5"/>
</g>
<!-- Node3 -->
<g id="node3" class="node">
<title>Node3</title>
<g id="a_node3"><a xlink:href="class_user_controller.html#a6230816eec4c8be9bda248a166d7b9bd" target="_top" xlink:title="Makes suggestion">
<polygon fill="white" stroke="black" points="676,-40.5 676,-61.5 859,-61.5 859,-40.5 676,-40.5"/>
<text text-anchor="middle" x="767.5" y="-47.9" font-family="Helvetica,sans-Serif" font-size="12.00">UserController.MakeSuggestion</text>
</a>
</g>
</g>
<!-- Node2&#45;&gt;Node3 -->
<g id="edge2" class="edge">
<title>Node2&#45;&gt;Node3</title>
<path fill="none" stroke="midnightblue" d="M884.91,-51C876.55,-51 867.92,-51 859.31,-51"/>
<polygon fill="midnightblue" stroke="midnightblue" points="884.96,-54.5 894.96,-51 884.96,-47.5 884.96,-54.5"/>
</g>
<!-- Node4 -->
<g id="node4" class="node">
<title>Node4</title>
<g id="a_node4"><a xlink:href="class_u_i_handler.html#ae6960c4c231f0e85718af2150449bb1f" target="_top" xlink:title="Hides the suggestion panel">
<polygon fill="white" stroke="black" points="447,-80.5 447,-101.5 618,-101.5 618,-80.5 447,-80.5"/>
<text text-anchor="middle" x="532.5" y="-87.9" font-family="Helvetica,sans-Serif" font-size="12.00">UIHandler.ConfirmSuggestion</text>
</a>
</g>
</g>
<!-- Node3&#45;&gt;Node4 -->
<g id="edge3" class="edge">
<title>Node3&#45;&gt;Node4</title>
<path fill="none" stroke="midnightblue" d="M695.07,-63.26C662.98,-68.77 625.49,-75.21 594.71,-80.49"/>
<polygon fill="midnightblue" stroke="midnightblue" points="696.02,-66.65 705.28,-61.51 694.83,-59.75 696.02,-66.65"/>
</g>
<!-- Node5 -->
<g id="node5" class="node">
<title>Node5</title>
<g id="a_node5"><a xlink:href="class_a_i_controller_script.html#affdf86fa313c46463a9a5a2b20020a17" target="_top" xlink:title="Decides what the AI should suggest this should match the flow chart of the AI">
<polygon fill="white" stroke="black" points="425,-40.5 425,-61.5 640,-61.5 640,-40.5 425,-40.5"/>
<text text-anchor="middle" x="532.5" y="-47.9" font-family="Helvetica,sans-Serif" font-size="12.00">AIControllerScript.Decide_Suggestion</text>
</a>
</g>
</g>
<!-- Node3&#45;&gt;Node5 -->
<g id="edge4" class="edge">
<title>Node3&#45;&gt;Node5</title>
<path fill="none" stroke="midnightblue" d="M665.59,-51C657.2,-51 648.71,-51 640.28,-51"/>
<polygon fill="midnightblue" stroke="midnightblue" points="665.75,-54.5 675.75,-51 665.75,-47.5 665.75,-54.5"/>
</g>
<!-- Node8 -->
<g id="node8" class="node">
<title>Node8</title>
<g id="a_node8"><a xlink:href="class_suggestion_test.html#ac6fed8b504eb8b103cb5c38fa895edf3" target="_top" xlink:title="get test choices and make suggestion">
<polygon fill="white" stroke="black" points="437.5,-0.5 437.5,-21.5 627.5,-21.5 627.5,-0.5 437.5,-0.5"/>
<text text-anchor="middle" x="532.5" y="-7.9" font-family="Helvetica,sans-Serif" font-size="12.00">SuggestionTest.MakeSuggestion</text>
</a>
</g>
</g>
<!-- Node3&#45;&gt;Node8 -->
<g id="edge7" class="edge">
<title>Node3&#45;&gt;Node8</title>
<path fill="none" stroke="midnightblue" d="M695.07,-38.74C662.98,-33.23 625.49,-26.79 594.71,-21.51"/>
<polygon fill="midnightblue" stroke="midnightblue" points="694.83,-42.25 705.28,-40.49 696.02,-35.35 694.83,-42.25"/>
</g>
<!-- Node6 -->
<g id="node6" class="node">
<title>Node6</title>
<g id="a_node6"><a xlink:href="class_a_i_controller_script.html#ac31d9b8dbb75696b181eff1fbef41b97" target="_top" xlink:title="dictates what the AI will do depending on what mode it is in">
<polygon fill="white" stroke="black" points="215,-40.5 215,-61.5 389,-61.5 389,-40.5 215,-40.5"/>
<text text-anchor="middle" x="302" y="-47.9" font-family="Helvetica,sans-Serif" font-size="12.00">AIControllerScript.AIBehaviour</text>
</a>
</g>
</g>
<!-- Node5&#45;&gt;Node6 -->
<g id="edge5" class="edge">
<title>Node5&#45;&gt;Node6</title>
<path fill="none" stroke="midnightblue" d="M414.82,-51C406.19,-51 397.58,-51 389.18,-51"/>
<polygon fill="midnightblue" stroke="midnightblue" points="414.94,-54.5 424.94,-51 414.94,-47.5 414.94,-54.5"/>
</g>
<!-- Node7 -->
<g id="node7" class="node">
<title>Node7</title>
<g id="a_node7"><a xlink:href="class_a_i_controller_script.html#a74dc0e720fafceb873d3b19c12f68d58" target="_top" xlink:title=" ">
<polygon fill="white" stroke="black" points="0,-40.5 0,-61.5 179,-61.5 179,-40.5 0,-40.5"/>
<text text-anchor="middle" x="89.5" y="-47.9" font-family="Helvetica,sans-Serif" font-size="12.00">AIControllerScript.FixedUpdate</text>
</a>
</g>
</g>
<!-- Node6&#45;&gt;Node7 -->
<g id="edge6" class="edge">
<title>Node6&#45;&gt;Node7</title>
<path fill="none" stroke="midnightblue" d="M204.57,-51C196.15,-51 187.67,-51 179.32,-51"/>
<polygon fill="midnightblue" stroke="midnightblue" points="204.77,-54.5 214.77,-51 204.77,-47.5 204.77,-54.5"/>
</g>
</g>
</svg>
