<?xml version="1.0" encoding="UTF-8" standalone="no"?>
<!DOCTYPE svg PUBLIC "-//W3C//DTD SVG 1.1//EN"
 "http://www.w3.org/Graphics/SVG/1.1/DTD/svg11.dtd">
<!-- Generated by graphviz version 2.47.1 (20210417.1919)
 -->
<!-- Title: BoardManager.ClearMovable Pages: 1 -->
<svg width="657pt" height="70pt"
 viewBox="0.00 0.00 657.00 70.00" xmlns="http://www.w3.org/2000/svg" xmlns:xlink="http://www.w3.org/1999/xlink">
<g id="graph0" class="graph" transform="scale(1 1) rotate(0) translate(4 66)">
<title>BoardManager.ClearMovable</title>
<polygon fill="white" stroke="transparent" points="-4,4 -4,-66 653,-66 653,4 -4,4"/>
<!-- Node1 -->
<g id="node1" class="node">
<title>Node1</title>
<g id="a_node1"><a xlink:title="Clear all movable tiles">
<polygon fill="#bfbfbf" stroke="black" points="0,-20.5 0,-41.5 171,-41.5 171,-20.5 0,-20.5"/>
<text text-anchor="middle" x="85.5" y="-27.9" font-family="Helvetica,sans-Serif" font-size="12.00">BoardManager.ClearMovable</text>
</a>
</g>
</g>
<!-- Node2 -->
<g id="node2" class="node">
<title>Node2</title>
<g id="a_node2"><a xlink:href="class_board_tile_script.html#a3ff1d3c491fe4d7e421a624ac0b5be6f" target="_top" xlink:title="setting the glow on the tile">
<polygon fill="white" stroke="black" points="207,-20.5 207,-41.5 353,-41.5 353,-20.5 207,-20.5"/>
<text text-anchor="middle" x="280" y="-27.9" font-family="Helvetica,sans-Serif" font-size="12.00">BoardTileScript.GlowTile</text>
</a>
</g>
</g>
<!-- Node1&#45;&gt;Node2 -->
<g id="edge1" class="edge">
<title>Node1&#45;&gt;Node2</title>
<path fill="none" stroke="midnightblue" d="M171.21,-31C179.68,-31 188.26,-31 196.69,-31"/>
<polygon fill="midnightblue" stroke="midnightblue" points="196.9,-34.5 206.9,-31 196.9,-27.5 196.9,-34.5"/>
</g>
<!-- Node3 -->
<g id="node3" class="node">
<title>Node3</title>
<g id="a_node3"><a xlink:href="class_board_tile_effect_handler_script.html#a93e813816ff40b3602de22f87a694766" target="_top" xlink:title="turn off the effect for when player can move to that tile">
<polygon fill="white" stroke="black" points="389,-40.5 389,-61.5 649,-61.5 649,-40.5 389,-40.5"/>
<text text-anchor="middle" x="519" y="-47.9" font-family="Helvetica,sans-Serif" font-size="12.00">BoardTileEffectHandlerScript.ToggleEffect_Off</text>
</a>
</g>
</g>
<!-- Node2&#45;&gt;Node3 -->
<g id="edge2" class="edge">
<title>Node2&#45;&gt;Node3</title>
<path fill="none" stroke="midnightblue" d="M353.07,-37.08C362.77,-37.9 372.97,-38.76 383.33,-39.64"/>
<polygon fill="midnightblue" stroke="midnightblue" points="383.05,-43.12 393.31,-40.48 383.64,-36.15 383.05,-43.12"/>
</g>
<!-- Node4 -->
<g id="node4" class="node">
<title>Node4</title>
<g id="a_node4"><a xlink:href="class_board_tile_effect_handler_script.html#a7bf5b2a819cb44463464d5c951bf3143" target="_top" xlink:title="turn on the effect for when player can move to that tile">
<polygon fill="white" stroke="black" points="389,-0.5 389,-21.5 649,-21.5 649,-0.5 389,-0.5"/>
<text text-anchor="middle" x="519" y="-7.9" font-family="Helvetica,sans-Serif" font-size="12.00">BoardTileEffectHandlerScript.ToggleEffect_On</text>
</a>
</g>
</g>
<!-- Node2&#45;&gt;Node4 -->
<g id="edge3" class="edge">
<title>Node2&#45;&gt;Node4</title>
<path fill="none" stroke="midnightblue" d="M353.07,-24.92C362.77,-24.1 372.97,-23.24 383.33,-22.36"/>
<polygon fill="midnightblue" stroke="midnightblue" points="383.64,-25.85 393.31,-21.52 383.05,-18.88 383.64,-25.85"/>
</g>
</g>
</svg>
