<?xml version="1.0" encoding="UTF-8" standalone="no"?>
<!DOCTYPE svg PUBLIC "-//W3C//DTD SVG 1.1//EN"
 "http://www.w3.org/Graphics/SVG/1.1/DTD/svg11.dtd">
<!-- Generated by graphviz version 2.47.1 (20210417.1919)
 -->
<!-- Title: PlayerTokenScript.CanTakeShortcut Pages: 1 -->
<svg width="743pt" height="110pt"
 viewBox="0.00 0.00 743.00 110.00" xmlns="http://www.w3.org/2000/svg" xmlns:xlink="http://www.w3.org/1999/xlink">
<g id="graph0" class="graph" transform="scale(1 1) rotate(0) translate(4 106)">
<title>PlayerTokenScript.CanTakeShortcut</title>
<polygon fill="white" stroke="transparent" points="-4,4 -4,-106 739,-106 739,4 -4,4"/>
<!-- Node1 -->
<g id="node1" class="node">
<title>Node1</title>
<g id="a_node1"><a xlink:title=" ">
<polygon fill="#bfbfbf" stroke="black" points="529,-20.5 529,-41.5 735,-41.5 735,-20.5 529,-20.5"/>
<text text-anchor="middle" x="632" y="-27.9" font-family="Helvetica,sans-Serif" font-size="12.00">PlayerTokenScript.CanTakeShortcut</text>
</a>
</g>
</g>
<!-- Node2 -->
<g id="node2" class="node">
<title>Node2</title>
<g id="a_node2"><a xlink:href="class_player_master_controller.html#a281d37e414bc17c9441964104f039b4a" target="_top" xlink:title="check if the player can take a short cut">
<polygon fill="white" stroke="black" points="263,-40.5 263,-61.5 493,-61.5 493,-40.5 263,-40.5"/>
<text text-anchor="middle" x="378" y="-47.9" font-family="Helvetica,sans-Serif" font-size="12.00">PlayerMasterController.CanTakeShortcut</text>
</a>
</g>
</g>
<!-- Node1&#45;&gt;Node2 -->
<g id="edge1" class="edge">
<title>Node1&#45;&gt;Node2</title>
<path fill="none" stroke="midnightblue" d="M518.63,-39.92C510.19,-40.59 501.68,-41.26 493.23,-41.93"/>
<polygon fill="midnightblue" stroke="midnightblue" points="519.17,-43.39 528.87,-39.11 518.62,-36.41 519.17,-43.39"/>
</g>
<!-- Node6 -->
<g id="node6" class="node">
<title>Node6</title>
<g id="a_node6"><a xlink:href="class_player_token_script.html#acadae9824e11bd147d2c65cbb86ea89d" target="_top" xlink:title=" ">
<polygon fill="white" stroke="black" points="285.5,-0.5 285.5,-21.5 470.5,-21.5 470.5,-0.5 285.5,-0.5"/>
<text text-anchor="middle" x="378" y="-7.9" font-family="Helvetica,sans-Serif" font-size="12.00">PlayerTokenScript.TakeShortcut</text>
</a>
</g>
</g>
<!-- Node1&#45;&gt;Node6 -->
<g id="edge5" class="edge">
<title>Node1&#45;&gt;Node6</title>
<path fill="none" stroke="midnightblue" d="M518.89,-22.1C502.78,-20.82 486.37,-19.52 470.73,-18.28"/>
<polygon fill="midnightblue" stroke="midnightblue" points="518.62,-25.59 528.87,-22.89 519.17,-18.61 518.62,-25.59"/>
</g>
<!-- Node3 -->
<g id="node3" class="node">
<title>Node3</title>
<g id="a_node3"><a xlink:href="class_player_movement_test_script.html#a1c247cfdee35d3a1c1d3a81fd579b426" target="_top" xlink:title=" ">
<polygon fill="white" stroke="black" points="0,-80.5 0,-101.5 227,-101.5 227,-80.5 0,-80.5"/>
<text text-anchor="middle" x="113.5" y="-87.9" font-family="Helvetica,sans-Serif" font-size="12.00">PlayerMovementTestScript.FixedUpdate</text>
</a>
</g>
</g>
<!-- Node2&#45;&gt;Node3 -->
<g id="edge2" class="edge">
<title>Node2&#45;&gt;Node3</title>
<path fill="none" stroke="midnightblue" d="M297.93,-63.05C261.47,-68.6 218.59,-75.14 183.46,-80.49"/>
<polygon fill="midnightblue" stroke="midnightblue" points="298.67,-66.48 308.03,-61.51 297.62,-59.56 298.67,-66.48"/>
</g>
<!-- Node4 -->
<g id="node4" class="node">
<title>Node4</title>
<g id="a_node4"><a xlink:href="class_u_i_handler.html#ab35722a35c0035fb164d984c49cec4de" target="_top" xlink:title=" ">
<polygon fill="white" stroke="black" points="44.5,-40.5 44.5,-61.5 182.5,-61.5 182.5,-40.5 44.5,-40.5"/>
<text text-anchor="middle" x="113.5" y="-47.9" font-family="Helvetica,sans-Serif" font-size="12.00">UIHandler.FixedUpdate</text>
</a>
</g>
</g>
<!-- Node2&#45;&gt;Node4 -->
<g id="edge3" class="edge">
<title>Node2&#45;&gt;Node4</title>
<path fill="none" stroke="midnightblue" d="M252.38,-51C228.42,-51 204.16,-51 182.81,-51"/>
<polygon fill="midnightblue" stroke="midnightblue" points="252.63,-54.5 262.63,-51 252.63,-47.5 252.63,-54.5"/>
</g>
<!-- Node5 -->
<g id="node5" class="node">
<title>Node5</title>
<g id="a_node5"><a xlink:href="class_shortcut_test_u_i.html#afbe911ad229226696830dd46743f45c5" target="_top" xlink:title="Set button interactables">
<polygon fill="white" stroke="black" points="46.5,-0.5 46.5,-21.5 180.5,-21.5 180.5,-0.5 46.5,-0.5"/>
<text text-anchor="middle" x="113.5" y="-7.9" font-family="Helvetica,sans-Serif" font-size="12.00">ShortcutTestUI.Update</text>
</a>
</g>
</g>
<!-- Node2&#45;&gt;Node5 -->
<g id="edge4" class="edge">
<title>Node2&#45;&gt;Node5</title>
<path fill="none" stroke="midnightblue" d="M297.69,-38.91C260.33,-33.22 216.28,-26.51 180.75,-21.09"/>
<polygon fill="midnightblue" stroke="midnightblue" points="297.62,-42.44 308.03,-40.49 298.67,-35.52 297.62,-42.44"/>
</g>
</g>
</svg>
