<?xml version="1.0" encoding="UTF-8" standalone="no"?>
<!DOCTYPE svg PUBLIC "-//W3C//DTD SVG 1.1//EN"
 "http://www.w3.org/Graphics/SVG/1.1/DTD/svg11.dtd">
<!-- Generated by graphviz version 2.47.1 (20210417.1919)
 -->
<!-- Title: NotebookScript.OnEnable Pages: 1 -->
<svg width="844pt" height="150pt"
 viewBox="0.00 0.00 844.00 150.00" xmlns="http://www.w3.org/2000/svg" xmlns:xlink="http://www.w3.org/1999/xlink">
<g id="graph0" class="graph" transform="scale(1 1) rotate(0) translate(4 146)">
<title>NotebookScript.OnEnable</title>
<polygon fill="white" stroke="transparent" points="-4,4 -4,-146 840,-146 840,4 -4,4"/>
<!-- Node1 -->
<g id="node1" class="node">
<title>Node1</title>
<g id="a_node1"><a xlink:title="Refresh notebook on enabling">
<polygon fill="#bfbfbf" stroke="black" points="0,-60.5 0,-81.5 153,-81.5 153,-60.5 0,-60.5"/>
<text text-anchor="middle" x="76.5" y="-67.9" font-family="Helvetica,sans-Serif" font-size="12.00">NotebookScript.OnEnable</text>
</a>
</g>
</g>
<!-- Node2 -->
<g id="node2" class="node">
<title>Node2</title>
<g id="a_node2"><a xlink:href="class_notebook_script.html#a3c031d903921e95ac42253bb09f5beec" target="_top" xlink:title="Refresh the notebook UI Object">
<polygon fill="white" stroke="black" points="189,-60.5 189,-81.5 382,-81.5 382,-60.5 189,-60.5"/>
<text text-anchor="middle" x="285.5" y="-67.9" font-family="Helvetica,sans-Serif" font-size="12.00">NotebookScript.RefreshNotebook</text>
</a>
</g>
</g>
<!-- Node1&#45;&gt;Node2 -->
<g id="edge1" class="edge">
<title>Node1&#45;&gt;Node2</title>
<path fill="none" stroke="midnightblue" d="M153.11,-71C161.49,-71 170.14,-71 178.81,-71"/>
<polygon fill="midnightblue" stroke="midnightblue" points="178.98,-74.5 188.98,-71 178.98,-67.5 178.98,-74.5"/>
</g>
<!-- Node3 -->
<g id="node3" class="node">
<title>Node3</title>
<g id="a_node3"><a xlink:href="class_round_manager.html#aab3f49a5e05508a8e023a497e763c1c8" target="_top" xlink:title="Gets the player controller for the current player">
<polygon fill="white" stroke="black" points="423,-120.5 423,-141.5 613,-141.5 613,-120.5 423,-120.5"/>
<text text-anchor="middle" x="518" y="-127.9" font-family="Helvetica,sans-Serif" font-size="12.00">RoundManager.GetCurrentPlayer</text>
</a>
</g>
</g>
<!-- Node2&#45;&gt;Node3 -->
<g id="edge2" class="edge">
<title>Node2&#45;&gt;Node3</title>
<path fill="none" stroke="midnightblue" d="M318.15,-81.56C344.64,-90.17 383.53,-102.3 418,-111 428.35,-113.61 439.37,-116.11 450.17,-118.41"/>
<polygon fill="midnightblue" stroke="midnightblue" points="449.48,-121.84 459.99,-120.45 450.91,-114.99 449.48,-121.84"/>
</g>
<!-- Node5 -->
<g id="node5" class="node">
<title>Node5</title>
<g id="a_node5"><a xlink:href="class_notebook_script.html#a4d3a7148faf9db0faae9b942f01e84b6" target="_top" xlink:title="Refresh all character button status.">
<polygon fill="white" stroke="black" points="418,-80.5 418,-101.5 618,-101.5 618,-80.5 418,-80.5"/>
<text text-anchor="middle" x="518" y="-87.9" font-family="Helvetica,sans-Serif" font-size="12.00">NotebookScript.RefreshCharacters</text>
</a>
</g>
</g>
<!-- Node2&#45;&gt;Node5 -->
<g id="edge4" class="edge">
<title>Node2&#45;&gt;Node5</title>
<path fill="none" stroke="midnightblue" d="M382.25,-79.31C390.7,-80.04 399.29,-80.79 407.83,-81.53"/>
<polygon fill="midnightblue" stroke="midnightblue" points="407.56,-85.02 417.83,-82.4 408.17,-78.04 407.56,-85.02"/>
</g>
<!-- Node7 -->
<g id="node7" class="node">
<title>Node7</title>
<g id="a_node7"><a xlink:href="class_notebook_script.html#a1ad8770915bffe616f448f1b3cff339f" target="_top" xlink:title="Refresh all room button status.">
<polygon fill="white" stroke="black" points="428.5,-40.5 428.5,-61.5 607.5,-61.5 607.5,-40.5 428.5,-40.5"/>
<text text-anchor="middle" x="518" y="-47.9" font-family="Helvetica,sans-Serif" font-size="12.00">NotebookScript.RefreshRooms</text>
</a>
</g>
</g>
<!-- Node2&#45;&gt;Node7 -->
<g id="edge6" class="edge">
<title>Node2&#45;&gt;Node7</title>
<path fill="none" stroke="midnightblue" d="M382.25,-62.69C394.02,-61.67 406.06,-60.63 417.88,-59.6"/>
<polygon fill="midnightblue" stroke="midnightblue" points="418.53,-63.06 428.19,-58.71 417.93,-56.08 418.53,-63.06"/>
</g>
<!-- Node8 -->
<g id="node8" class="node">
<title>Node8</title>
<g id="a_node8"><a xlink:href="class_notebook_script.html#a4d45da2c213d4711991232101154510e" target="_top" xlink:title="Refresh all weapon button status.">
<polygon fill="white" stroke="black" points="422,-0.5 422,-21.5 614,-21.5 614,-0.5 422,-0.5"/>
<text text-anchor="middle" x="518" y="-7.9" font-family="Helvetica,sans-Serif" font-size="12.00">NotebookScript.RefreshWeapons</text>
</a>
</g>
</g>
<!-- Node2&#45;&gt;Node8 -->
<g id="edge8" class="edge">
<title>Node2&#45;&gt;Node8</title>
<path fill="none" stroke="midnightblue" d="M318.15,-60.44C344.64,-51.83 383.53,-39.7 418,-31 428.35,-28.39 439.37,-25.89 450.17,-23.59"/>
<polygon fill="midnightblue" stroke="midnightblue" points="450.91,-27.01 459.99,-21.55 449.48,-20.16 450.91,-27.01"/>
</g>
<!-- Node4 -->
<g id="node4" class="node">
<title>Node4</title>
<g id="a_node4"><a xlink:href="class_turn_controller.html#af16e42b7e61c5a999291327e2e556caa" target="_top" xlink:title=" ">
<polygon fill="white" stroke="black" points="654,-120.5 654,-141.5 836,-141.5 836,-120.5 654,-120.5"/>
<text text-anchor="middle" x="745" y="-127.9" font-family="Helvetica,sans-Serif" font-size="12.00">TurnController.GetCurrentPlayer</text>
</a>
</g>
</g>
<!-- Node3&#45;&gt;Node4 -->
<g id="edge3" class="edge">
<title>Node3&#45;&gt;Node4</title>
<path fill="none" stroke="midnightblue" d="M613.12,-131C623.23,-131 633.55,-131 643.74,-131"/>
<polygon fill="midnightblue" stroke="midnightblue" points="643.86,-134.5 653.86,-131 643.86,-127.5 643.86,-134.5"/>
</g>
<!-- Node6 -->
<g id="node6" class="node">
<title>Node6</title>
<g id="a_node6"><a xlink:href="class_notebook_button.html#a3db612f7ac70f28eb24790f27a6f1c82" target="_top" xlink:title="Set button graphic to crossed through">
<polygon fill="white" stroke="black" points="654,-40.5 654,-61.5 836,-61.5 836,-40.5 654,-40.5"/>
<text text-anchor="middle" x="745" y="-47.9" font-family="Helvetica,sans-Serif" font-size="12.00">NotebookButton.setCrossedOut</text>
</a>
</g>
</g>
<!-- Node5&#45;&gt;Node6 -->
<g id="edge5" class="edge">
<title>Node5&#45;&gt;Node6</title>
<path fill="none" stroke="midnightblue" d="M578.12,-80.49C607.84,-75.21 644.04,-68.77 675.03,-63.26"/>
<polygon fill="midnightblue" stroke="midnightblue" points="675.66,-66.71 684.89,-61.51 674.43,-59.81 675.66,-66.71"/>
</g>
<!-- Node7&#45;&gt;Node6 -->
<g id="edge7" class="edge">
<title>Node7&#45;&gt;Node6</title>
<path fill="none" stroke="midnightblue" d="M607.6,-51C619.42,-51 631.61,-51 643.61,-51"/>
<polygon fill="midnightblue" stroke="midnightblue" points="643.63,-54.5 653.63,-51 643.63,-47.5 643.63,-54.5"/>
</g>
<!-- Node8&#45;&gt;Node6 -->
<g id="edge9" class="edge">
<title>Node8&#45;&gt;Node6</title>
<path fill="none" stroke="midnightblue" d="M578.12,-21.51C607.84,-26.79 644.04,-33.23 675.03,-38.74"/>
<polygon fill="midnightblue" stroke="midnightblue" points="674.43,-42.19 684.89,-40.49 675.66,-35.29 674.43,-42.19"/>
</g>
</g>
</svg>
