<?xml version="1.0" encoding="UTF-8" standalone="no"?>
<!DOCTYPE svg PUBLIC "-//W3C//DTD SVG 1.1//EN"
 "http://www.w3.org/Graphics/SVG/1.1/DTD/svg11.dtd">
<!-- Generated by graphviz version 2.47.1 (20210417.1919)
 -->
<!-- Title: UserController.MakeSuggestion Pages: 1 -->
<svg width="2172pt" height="502pt"
 viewBox="0.00 0.00 2172.00 502.00" xmlns="http://www.w3.org/2000/svg" xmlns:xlink="http://www.w3.org/1999/xlink">
<g id="graph0" class="graph" transform="scale(1 1) rotate(0) translate(4 498)">
<title>UserController.MakeSuggestion</title>
<polygon fill="white" stroke="transparent" points="-4,4 -4,-498 2168,-498 2168,4 -4,4"/>
<!-- Node1 -->
<g id="node1" class="node">
<title>Node1</title>
<g id="a_node1"><a xlink:title="Makes suggestion">
<polygon fill="#bfbfbf" stroke="black" points="0,-197.5 0,-218.5 183,-218.5 183,-197.5 0,-197.5"/>
<text text-anchor="middle" x="91.5" y="-204.9" font-family="Helvetica,sans-Serif" font-size="12.00">UserController.MakeSuggestion</text>
</a>
</g>
</g>
<!-- Node2 -->
<g id="node2" class="node">
<title>Node2</title>
<g id="a_node2"><a xlink:href="class_round_manager.html#a596fc1c822ebb74dad8d238b15b1ea3a" target="_top" xlink:title="Iterate through the rest of the players searching for if 1 or more of the cards were found">
<polygon fill="white" stroke="black" points="219,-315.5 219,-336.5 407,-336.5 407,-315.5 219,-315.5"/>
<text text-anchor="middle" x="313" y="-322.9" font-family="Helvetica,sans-Serif" font-size="12.00">RoundManager.MakeSuggestion</text>
</a>
</g>
</g>
<!-- Node1&#45;&gt;Node2 -->
<g id="edge1" class="edge">
<title>Node1&#45;&gt;Node2</title>
<path fill="none" stroke="midnightblue" d="M112.37,-218.68C151.38,-239.65 238.14,-286.29 283.35,-310.6"/>
<polygon fill="midnightblue" stroke="midnightblue" points="281.87,-313.78 292.34,-315.43 285.19,-307.61 281.87,-313.78"/>
</g>
<!-- Node26 -->
<g id="node26" class="node">
<title>Node26</title>
<g id="a_node26"><a xlink:href="class_suggestion.html#ab326cb791b6707926dd69497e79d159b" target="_top" xlink:title=" ">
<polygon fill="white" stroke="black" points="252,-100.5 252,-121.5 374,-121.5 374,-100.5 252,-100.5"/>
<text text-anchor="middle" x="313" y="-107.9" font-family="Helvetica,sans-Serif" font-size="12.00">Suggestion.Suggest</text>
</a>
</g>
</g>
<!-- Node1&#45;&gt;Node26 -->
<g id="edge35" class="edge">
<title>Node1&#45;&gt;Node26</title>
<path fill="none" stroke="midnightblue" d="M116.41,-197.43C155.74,-180.05 234.2,-145.38 278.86,-125.64"/>
<polygon fill="midnightblue" stroke="midnightblue" points="280.39,-128.8 288.12,-121.55 277.56,-122.39 280.39,-128.8"/>
</g>
<!-- Node3 -->
<g id="node3" class="node">
<title>Node3</title>
<g id="a_node3"><a xlink:href="class_round_manager.html#a780da336fd16dcaee0f00306578f13b4" target="_top" xlink:title=" ">
<polygon fill="white" stroke="black" points="472,-392.5 472,-413.5 638,-413.5 638,-392.5 472,-392.5"/>
<text text-anchor="middle" x="555" y="-399.9" font-family="Helvetica,sans-Serif" font-size="12.00">RoundManager.AIShowCard</text>
</a>
</g>
</g>
<!-- Node2&#45;&gt;Node3 -->
<g id="edge2" class="edge">
<title>Node2&#45;&gt;Node3</title>
<path fill="none" stroke="midnightblue" d="M336.89,-336.54C362.37,-347.96 404.96,-366.14 443,-378 457.77,-382.61 473.9,-386.74 489.17,-390.25"/>
<polygon fill="midnightblue" stroke="midnightblue" points="488.53,-393.69 499.05,-392.47 490.06,-386.86 488.53,-393.69"/>
</g>
<!-- Node5 -->
<g id="node5" class="node">
<title>Node5</title>
<g id="a_node5"><a xlink:href="class_player_master_controller.html#a12c91851433777ae557a71d9f9a855f0" target="_top" xlink:title=" ">
<polygon fill="white" stroke="black" points="966,-274.5 966,-295.5 1175,-295.5 1175,-274.5 966,-274.5"/>
<text text-anchor="middle" x="1070.5" y="-281.9" font-family="Helvetica,sans-Serif" font-size="12.00">PlayerMasterController.GetCharacter</text>
</a>
</g>
</g>
<!-- Node2&#45;&gt;Node5 -->
<g id="edge31" class="edge">
<title>Node2&#45;&gt;Node5</title>
<path fill="none" stroke="midnightblue" d="M407.02,-320.95C545.62,-313.43 806.06,-299.3 955.79,-291.17"/>
<polygon fill="midnightblue" stroke="midnightblue" points="956.13,-294.66 965.93,-290.62 955.76,-287.67 956.13,-294.66"/>
</g>
<!-- Node6 -->
<g id="node6" class="node">
<title>Node6</title>
<g id="a_node6"><a xlink:href="class_enum_to_string.html#a078a1fb16a0030544fac1b96a90b6b83" target="_top" xlink:title="Get a string value from a valid enum">
<polygon fill="white" stroke="black" points="1513,-353.5 1513,-374.5 1714,-374.5 1714,-353.5 1513,-353.5"/>
<text text-anchor="middle" x="1613.5" y="-360.9" font-family="Helvetica,sans-Serif" font-size="12.00">EnumToString.GetStringFromEnum</text>
</a>
</g>
</g>
<!-- Node2&#45;&gt;Node6 -->
<g id="edge33" class="edge">
<title>Node2&#45;&gt;Node6</title>
<path fill="none" stroke="midnightblue" d="M400.38,-336.53C500.19,-347.78 669.46,-364 815.5,-364 815.5,-364 815.5,-364 1071.5,-364 1220.87,-364 1393.44,-364 1502.74,-364"/>
<polygon fill="midnightblue" stroke="midnightblue" points="1502.79,-367.5 1512.79,-364 1502.79,-360.5 1502.79,-367.5"/>
</g>
<!-- Node7 -->
<g id="node7" class="node">
<title>Node7</title>
<g id="a_node7"><a xlink:href="class_round_manager.html#a6cf32ad7ffd3cafc902ae5faeb7605f8" target="_top" xlink:title="removing a card from the player&#39;s To Guess List notify the AI if a player finished showing a suggeste...">
<polygon fill="white" stroke="black" points="976.5,-314.5 976.5,-335.5 1164.5,-335.5 1164.5,-314.5 976.5,-314.5"/>
<text text-anchor="middle" x="1070.5" y="-321.9" font-family="Helvetica,sans-Serif" font-size="12.00">RoundManager.NotifySuggestion</text>
</a>
</g>
</g>
<!-- Node2&#45;&gt;Node7 -->
<g id="edge34" class="edge">
<title>Node2&#45;&gt;Node7</title>
<path fill="none" stroke="midnightblue" d="M407.02,-325.88C548.76,-325.69 817.91,-325.33 965.78,-325.14"/>
<polygon fill="midnightblue" stroke="midnightblue" points="966.21,-328.64 976.21,-325.12 966.21,-321.64 966.21,-328.64"/>
</g>
<!-- Node20 -->
<g id="node20" class="node">
<title>Node20</title>
<g id="a_node20"><a xlink:href="class_u_i_handler.html#a81884a614bffa4b024ed137552033f7f" target="_top" xlink:title="Dispal a panel for a player to choose which card to show">
<polygon fill="white" stroke="black" points="728,-160.5 728,-181.5 905,-181.5 905,-160.5 728,-160.5"/>
<text text-anchor="middle" x="816.5" y="-167.9" font-family="Helvetica,sans-Serif" font-size="12.00">UIHandler.DisplayChoicePanel</text>
</a>
</g>
</g>
<!-- Node2&#45;&gt;Node20 -->
<g id="edge23" class="edge">
<title>Node2&#45;&gt;Node20</title>
<path fill="none" stroke="midnightblue" d="M324.22,-315.41C344.66,-294.95 392.92,-250.15 443,-229 456.22,-223.42 626.08,-198.27 731.81,-182.98"/>
<polygon fill="midnightblue" stroke="midnightblue" points="732.43,-186.43 741.83,-181.53 731.43,-179.5 732.43,-186.43"/>
</g>
<!-- Node22 -->
<g id="node22" class="node">
<title>Node22</title>
<g id="a_node22"><a xlink:href="class_u_i_handler.html#a1f0729c8102e73f3d97c1f078b9f9d52" target="_top" xlink:title="Dispalys text on screen">
<polygon fill="white" stroke="black" points="472.5,-238.5 472.5,-259.5 637.5,-259.5 637.5,-238.5 472.5,-238.5"/>
<text text-anchor="middle" x="555" y="-245.9" font-family="Helvetica,sans-Serif" font-size="12.00">UIHandler.DisplayOutputText</text>
</a>
</g>
</g>
<!-- Node2&#45;&gt;Node22 -->
<g id="edge28" class="edge">
<title>Node2&#45;&gt;Node22</title>
<path fill="none" stroke="midnightblue" d="M336.89,-315.46C362.37,-304.04 404.96,-285.86 443,-274 457.77,-269.39 473.9,-265.26 489.17,-261.75"/>
<polygon fill="midnightblue" stroke="midnightblue" points="490.06,-265.14 499.05,-259.53 488.53,-258.31 490.06,-265.14"/>
</g>
<!-- Node24 -->
<g id="node24" class="node">
<title>Node24</title>
<g id="a_node24"><a xlink:href="class_u_i_handler.html#abe1710aca2abe4dbb489f0c49a3af879" target="_top" xlink:title="To display the View Blocker can include the name of the player that needs it&#39;s attention">
<polygon fill="white" stroke="black" points="467,-472.5 467,-493.5 643,-493.5 643,-472.5 467,-472.5"/>
<text text-anchor="middle" x="555" y="-479.9" font-family="Helvetica,sans-Serif" font-size="12.00">UIHandler.DisplayViewBlocker</text>
</a>
</g>
</g>
<!-- Node2&#45;&gt;Node24 -->
<g id="edge30" class="edge">
<title>Node2&#45;&gt;Node24</title>
<path fill="none" stroke="midnightblue" d="M320.55,-336.73C337.28,-363.1 384.41,-431.23 443,-463 447.51,-465.45 452.26,-467.6 457.15,-469.5"/>
<polygon fill="midnightblue" stroke="midnightblue" points="456.12,-472.84 466.72,-472.84 458.43,-466.24 456.12,-472.84"/>
</g>
<!-- Node25 -->
<g id="node25" class="node">
<title>Node25</title>
<g id="a_node25"><a xlink:href="class_turn_controller.html#a1eddf50c785325b5e873312d1fcd6380" target="_top" xlink:title=" ">
<polygon fill="white" stroke="black" points="443,-432.5 443,-453.5 667,-453.5 667,-432.5 443,-432.5"/>
<text text-anchor="middle" x="555" y="-439.9" font-family="Helvetica,sans-Serif" font-size="12.00">TurnController.GetRestOfPlayersInOrder</text>
</a>
</g>
</g>
<!-- Node2&#45;&gt;Node25 -->
<g id="edge32" class="edge">
<title>Node2&#45;&gt;Node25</title>
<path fill="none" stroke="midnightblue" d="M324.59,-336.8C345.28,-357.22 393.43,-401.37 443,-423 448.77,-425.52 454.84,-427.72 461.05,-429.64"/>
<polygon fill="midnightblue" stroke="midnightblue" points="460.32,-433.07 470.89,-432.45 462.23,-426.34 460.32,-433.07"/>
</g>
<!-- Node4 -->
<g id="node4" class="node">
<title>Node4</title>
<g id="a_node4"><a xlink:href="class_u_i_handler.html#a4009ca74f59111933be2a637c7835e18" target="_top" xlink:title="Displays a card from a player that has it">
<polygon fill="white" stroke="black" points="753.5,-392.5 753.5,-413.5 879.5,-413.5 879.5,-392.5 753.5,-392.5"/>
<text text-anchor="middle" x="816.5" y="-399.9" font-family="Helvetica,sans-Serif" font-size="12.00">UIHandler.ShowCard</text>
</a>
</g>
</g>
<!-- Node3&#45;&gt;Node4 -->
<g id="edge3" class="edge">
<title>Node3&#45;&gt;Node4</title>
<path fill="none" stroke="midnightblue" d="M638.11,-403C671.74,-403 710.33,-403 742.91,-403"/>
<polygon fill="midnightblue" stroke="midnightblue" points="743.26,-406.5 753.26,-403 743.26,-399.5 743.26,-406.5"/>
</g>
<!-- Node4&#45;&gt;Node5 -->
<g id="edge4" class="edge">
<title>Node4&#45;&gt;Node5</title>
<path fill="none" stroke="midnightblue" d="M830.02,-392.2C854.43,-371.78 910.8,-327.51 966,-305 972.32,-302.42 978.99,-300.17 985.79,-298.21"/>
<polygon fill="midnightblue" stroke="midnightblue" points="987.04,-301.5 995.79,-295.53 985.23,-294.74 987.04,-301.5"/>
</g>
<!-- Node4&#45;&gt;Node6 -->
<g id="edge5" class="edge">
<title>Node4&#45;&gt;Node6</title>
<path fill="none" stroke="midnightblue" d="M879.81,-401.79C995.58,-399.28 1251.67,-392.49 1467,-378 1478.57,-377.22 1490.65,-376.27 1502.68,-375.24"/>
<polygon fill="midnightblue" stroke="midnightblue" points="1503.11,-378.72 1512.77,-374.36 1502.5,-371.75 1503.11,-378.72"/>
</g>
<!-- Node4&#45;&gt;Node7 -->
<g id="edge6" class="edge">
<title>Node4&#45;&gt;Node7</title>
<path fill="none" stroke="midnightblue" d="M851.49,-392.48C896.48,-378.55 975.9,-353.97 1025.45,-338.63"/>
<polygon fill="midnightblue" stroke="midnightblue" points="1026.73,-341.9 1035.25,-335.6 1024.66,-335.22 1026.73,-341.9"/>
</g>
<!-- Node16 -->
<g id="node16" class="node">
<title>Node16</title>
<g id="a_node16"><a xlink:href="class_card_slot.html#a9049dedcebbbc4b2185a2a01d76d4ed5" target="_top" xlink:title=" ">
<polygon fill="white" stroke="black" points="1015.5,-430.5 1015.5,-451.5 1125.5,-451.5 1125.5,-430.5 1015.5,-430.5"/>
<text text-anchor="middle" x="1070.5" y="-437.9" font-family="Helvetica,sans-Serif" font-size="12.00">CardSlot.SetCard</text>
</a>
</g>
</g>
<!-- Node4&#45;&gt;Node16 -->
<g id="edge18" class="edge">
<title>Node4&#45;&gt;Node16</title>
<path fill="none" stroke="midnightblue" d="M879.79,-412.39C917.92,-418.14 966.62,-425.49 1005.13,-431.29"/>
<polygon fill="midnightblue" stroke="midnightblue" points="1004.78,-434.78 1015.19,-432.81 1005.82,-427.86 1004.78,-434.78"/>
</g>
<!-- Node8 -->
<g id="node8" class="node">
<title>Node8</title>
<g id="a_node8"><a xlink:href="class_round_manager.html#aab3f49a5e05508a8e023a497e763c1c8" target="_top" xlink:title="Gets the player controller for the current player">
<polygon fill="white" stroke="black" points="1244,-166.5 1244,-187.5 1434,-187.5 1434,-166.5 1244,-166.5"/>
<text text-anchor="middle" x="1339" y="-173.9" font-family="Helvetica,sans-Serif" font-size="12.00">RoundManager.GetCurrentPlayer</text>
</a>
</g>
</g>
<!-- Node7&#45;&gt;Node8 -->
<g id="edge7" class="edge">
<title>Node7&#45;&gt;Node8</title>
<path fill="none" stroke="midnightblue" d="M1160.8,-314.33C1165.89,-311.75 1170.68,-308.68 1175,-305 1210.35,-274.94 1176.28,-237.78 1211,-207 1218.23,-200.59 1226.59,-195.48 1235.48,-191.42"/>
<polygon fill="midnightblue" stroke="midnightblue" points="1236.99,-194.58 1244.92,-187.55 1234.34,-188.1 1236.99,-194.58"/>
</g>
<!-- Node10 -->
<g id="node10" class="node">
<title>Node10</title>
<g id="a_node10"><a xlink:href="class_a_i_controller_script.html#a208f5afe4102ff2ca04a03a425d76279" target="_top" xlink:title="for the round manager to notify that another player finished picking a card to show">
<polygon fill="white" stroke="black" points="1239,-256.5 1239,-277.5 1439,-277.5 1439,-256.5 1239,-256.5"/>
<text text-anchor="middle" x="1339" y="-263.9" font-family="Helvetica,sans-Serif" font-size="12.00">AIControllerScript.NotifySuggestion</text>
</a>
</g>
</g>
<!-- Node7&#45;&gt;Node10 -->
<g id="edge9" class="edge">
<title>Node7&#45;&gt;Node10</title>
<path fill="none" stroke="midnightblue" d="M1127.98,-314.49C1143.26,-311.54 1159.79,-308.24 1175,-305 1211.8,-297.16 1253.07,-287.53 1284.88,-279.92"/>
<polygon fill="midnightblue" stroke="midnightblue" points="1285.95,-283.27 1294.86,-277.53 1284.32,-276.46 1285.95,-283.27"/>
</g>
<!-- Node14 -->
<g id="node14" class="node">
<title>Node14</title>
<g id="a_node14"><a xlink:href="class_player_master_controller.html#a16dbaeb841ba29cdc8b7cb3b3bc86d99" target="_top" xlink:title="Remove a card from ToGuessCard">
<polygon fill="white" stroke="black" points="1211,-216.5 1211,-237.5 1467,-237.5 1467,-216.5 1211,-216.5"/>
<text text-anchor="middle" x="1339" y="-223.9" font-family="Helvetica,sans-Serif" font-size="12.00">PlayerMasterController.RemoveToGuessCard</text>
</a>
</g>
</g>
<!-- Node7&#45;&gt;Node14 -->
<g id="edge16" class="edge">
<title>Node7&#45;&gt;Node14</title>
<path fill="none" stroke="midnightblue" d="M1157.15,-314.46C1163.46,-311.9 1169.5,-308.79 1175,-305 1199.99,-287.79 1185.72,-263.77 1211,-247 1213.79,-245.15 1216.69,-243.45 1219.67,-241.88"/>
<polygon fill="midnightblue" stroke="midnightblue" points="1221.29,-244.99 1228.87,-237.59 1218.33,-238.65 1221.29,-244.99"/>
</g>
<!-- Node9 -->
<g id="node9" class="node">
<title>Node9</title>
<g id="a_node9"><a xlink:href="class_turn_controller.html#af16e42b7e61c5a999291327e2e556caa" target="_top" xlink:title=" ">
<polygon fill="white" stroke="black" points="1522.5,-166.5 1522.5,-187.5 1704.5,-187.5 1704.5,-166.5 1522.5,-166.5"/>
<text text-anchor="middle" x="1613.5" y="-173.9" font-family="Helvetica,sans-Serif" font-size="12.00">TurnController.GetCurrentPlayer</text>
</a>
</g>
</g>
<!-- Node8&#45;&gt;Node9 -->
<g id="edge8" class="edge">
<title>Node8&#45;&gt;Node9</title>
<path fill="none" stroke="midnightblue" d="M1434.16,-177C1459.42,-177 1486.82,-177 1512.39,-177"/>
<polygon fill="midnightblue" stroke="midnightblue" points="1512.47,-180.5 1522.47,-177 1512.47,-173.5 1512.47,-180.5"/>
</g>
<!-- Node10&#45;&gt;Node6 -->
<g id="edge10" class="edge">
<title>Node10&#45;&gt;Node6</title>
<path fill="none" stroke="midnightblue" d="M1423.05,-277.55C1438.07,-281.07 1453.3,-285.76 1467,-292 1485.44,-300.41 1485.43,-309.9 1503,-320 1524.01,-332.07 1548.98,-342.38 1569.76,-349.98"/>
<polygon fill="midnightblue" stroke="midnightblue" points="1568.7,-353.32 1579.29,-353.38 1571.05,-346.72 1568.7,-353.32"/>
</g>
<!-- Node11 -->
<g id="node11" class="node">
<title>Node11</title>
<g id="a_node11"><a xlink:href="class_a_i_controller_script.html#ab124aec8211aa7b8f00c6ef5db6bc96a" target="_top" xlink:title="for out putting the debug stack if outputDebugText is true, it will out put the the console as well">
<polygon fill="white" stroke="black" points="1984,-257.5 1984,-278.5 2164,-278.5 2164,-257.5 1984,-257.5"/>
<text text-anchor="middle" x="2074" y="-264.9" font-family="Helvetica,sans-Serif" font-size="12.00">AIControllerScript.OutputDebug</text>
</a>
</g>
</g>
<!-- Node10&#45;&gt;Node11 -->
<g id="edge11" class="edge">
<title>Node10&#45;&gt;Node11</title>
<path fill="none" stroke="midnightblue" d="M1410.43,-277.55C1439.08,-281.34 1472.55,-285.14 1503,-287 1700.43,-299.07 1750.62,-293.89 1948,-281 1956.37,-280.45 1965.05,-279.78 1973.75,-279.02"/>
<polygon fill="midnightblue" stroke="midnightblue" points="1974.31,-282.49 1983.96,-278.11 1973.69,-275.52 1974.31,-282.49"/>
</g>
<!-- Node12 -->
<g id="node12" class="node">
<title>Node12</title>
<g id="a_node12"><a xlink:href="class_a_i_controller_script.html#aaee909cd0f0ffdedd8d8425607d7ccb5" target="_top" xlink:title="to set the AI&#39;s mode">
<polygon fill="white" stroke="black" points="1528.5,-256.5 1528.5,-277.5 1698.5,-277.5 1698.5,-256.5 1528.5,-256.5"/>
<text text-anchor="middle" x="1613.5" y="-263.9" font-family="Helvetica,sans-Serif" font-size="12.00">AIControllerScript.SetAIMode</text>
</a>
</g>
</g>
<!-- Node10&#45;&gt;Node12 -->
<g id="edge12" class="edge">
<title>Node10&#45;&gt;Node12</title>
<path fill="none" stroke="midnightblue" d="M1439.15,-267C1464.94,-267 1492.66,-267 1518.19,-267"/>
<polygon fill="midnightblue" stroke="midnightblue" points="1518.24,-270.5 1528.24,-267 1518.24,-263.5 1518.24,-270.5"/>
</g>
<!-- Node12&#45;&gt;Node11 -->
<g id="edge15" class="edge">
<title>Node12&#45;&gt;Node11</title>
<path fill="none" stroke="midnightblue" d="M1698.6,-267.18C1776.27,-267.35 1891.72,-267.6 1973.86,-267.78"/>
<polygon fill="midnightblue" stroke="midnightblue" points="1973.95,-271.28 1983.96,-267.81 1973.97,-264.28 1973.95,-271.28"/>
</g>
<!-- Node13 -->
<g id="node13" class="node">
<title>Node13</title>
<g id="a_node13"><a xlink:href="class_a_i_controller_script.html#afcb2875a5501f07a7f44d0fa720266f3" target="_top" xlink:title="to delay the time for the next time the AI does something in the Update">
<polygon fill="white" stroke="black" points="1760,-218.5 1760,-239.5 1948,-239.5 1948,-218.5 1760,-218.5"/>
<text text-anchor="middle" x="1854" y="-225.9" font-family="Helvetica,sans-Serif" font-size="12.00">AIControllerScript.DelayDecision</text>
</a>
</g>
</g>
<!-- Node12&#45;&gt;Node13 -->
<g id="edge13" class="edge">
<title>Node12&#45;&gt;Node13</title>
<path fill="none" stroke="midnightblue" d="M1680.62,-256.47C1710.47,-251.71 1745.91,-246.06 1776.87,-241.13"/>
<polygon fill="midnightblue" stroke="midnightblue" points="1777.43,-244.59 1786.75,-239.56 1776.33,-237.67 1777.43,-244.59"/>
</g>
<!-- Node13&#45;&gt;Node11 -->
<g id="edge14" class="edge">
<title>Node13&#45;&gt;Node11</title>
<path fill="none" stroke="midnightblue" d="M1913.71,-239.5C1941.57,-244.49 1975.05,-250.48 2004.11,-255.68"/>
<polygon fill="midnightblue" stroke="midnightblue" points="2003.73,-259.16 2014.19,-257.48 2004.96,-252.27 2003.73,-259.16"/>
</g>
<!-- Node15 -->
<g id="node15" class="node">
<title>Node15</title>
<g id="a_node15"><a xlink:href="class_player_stats_script.html#a9cfb94bd7661f4120b9ea69c025bd368" target="_top" xlink:title="remove a selected card from To Guess List">
<polygon fill="white" stroke="black" points="1503,-216.5 1503,-237.5 1724,-237.5 1724,-216.5 1503,-216.5"/>
<text text-anchor="middle" x="1613.5" y="-223.9" font-family="Helvetica,sans-Serif" font-size="12.00">PlayerStatsScript.RemoveToGessCard</text>
</a>
</g>
</g>
<!-- Node14&#45;&gt;Node15 -->
<g id="edge17" class="edge">
<title>Node14&#45;&gt;Node15</title>
<path fill="none" stroke="midnightblue" d="M1467.08,-227C1475.56,-227 1484.09,-227 1492.54,-227"/>
<polygon fill="midnightblue" stroke="midnightblue" points="1492.79,-230.5 1502.79,-227 1492.79,-223.5 1492.79,-230.5"/>
</g>
<!-- Node17 -->
<g id="node17" class="node">
<title>Node17</title>
<g id="a_node17"><a xlink:href="class_card_slot.html#a4690c0753db45ada6b02681269ecfbb1" target="_top" xlink:title=" ">
<polygon fill="white" stroke="black" points="1265.5,-430.5 1265.5,-451.5 1412.5,-451.5 1412.5,-430.5 1265.5,-430.5"/>
<text text-anchor="middle" x="1339" y="-437.9" font-family="Helvetica,sans-Serif" font-size="12.00">CardSlot.SetCardDetails</text>
</a>
</g>
</g>
<!-- Node16&#45;&gt;Node17 -->
<g id="edge19" class="edge">
<title>Node16&#45;&gt;Node17</title>
<path fill="none" stroke="midnightblue" d="M1125.75,-441C1162.87,-441 1212.79,-441 1254.89,-441"/>
<polygon fill="midnightblue" stroke="midnightblue" points="1255.13,-444.5 1265.13,-441 1255.13,-437.5 1255.13,-444.5"/>
</g>
<!-- Node17&#45;&gt;Node6 -->
<g id="edge22" class="edge">
<title>Node17&#45;&gt;Node6</title>
<path fill="none" stroke="midnightblue" d="M1405.14,-430.46C1425.16,-426.62 1447.15,-421.77 1467,-416 1483.49,-411.21 1486.89,-407.93 1503,-402 1525.56,-393.7 1550.91,-384.87 1571.53,-377.82"/>
<polygon fill="midnightblue" stroke="midnightblue" points="1572.9,-381.05 1581.24,-374.51 1570.65,-374.42 1572.9,-381.05"/>
</g>
<!-- Node18 -->
<g id="node18" class="node">
<title>Node18</title>
<g id="a_node18"><a xlink:href="class_card.html#a25e8366933b176fae41e4d2373be7815" target="_top" xlink:title=" ">
<polygon fill="white" stroke="black" points="1552,-451.5 1552,-472.5 1675,-472.5 1675,-451.5 1552,-451.5"/>
<text text-anchor="middle" x="1613.5" y="-458.9" font-family="Helvetica,sans-Serif" font-size="12.00">Card.GetCardImage</text>
</a>
</g>
</g>
<!-- Node17&#45;&gt;Node18 -->
<g id="edge20" class="edge">
<title>Node17&#45;&gt;Node18</title>
<path fill="none" stroke="midnightblue" d="M1412.67,-446.6C1452.55,-449.67 1501.81,-453.47 1541.44,-456.52"/>
<polygon fill="midnightblue" stroke="midnightblue" points="1541.32,-460.02 1551.56,-457.3 1541.86,-453.05 1541.32,-460.02"/>
</g>
<!-- Node19 -->
<g id="node19" class="node">
<title>Node19</title>
<g id="a_node19"><a xlink:href="class_card.html#a094a5e7ea98cc156ac64e578a987be85" target="_top" xlink:title=" ">
<polygon fill="white" stroke="black" points="1555.5,-411.5 1555.5,-432.5 1671.5,-432.5 1671.5,-411.5 1555.5,-411.5"/>
<text text-anchor="middle" x="1613.5" y="-418.9" font-family="Helvetica,sans-Serif" font-size="12.00">Card.GetCardType</text>
</a>
</g>
</g>
<!-- Node17&#45;&gt;Node19 -->
<g id="edge21" class="edge">
<title>Node17&#45;&gt;Node19</title>
<path fill="none" stroke="midnightblue" d="M1412.67,-435.93C1453.8,-433.07 1504.9,-429.5 1545.13,-426.7"/>
<polygon fill="midnightblue" stroke="midnightblue" points="1545.38,-430.19 1555.11,-426 1544.89,-423.21 1545.38,-430.19"/>
</g>
<!-- Node20&#45;&gt;Node5 -->
<g id="edge24" class="edge">
<title>Node20&#45;&gt;Node5</title>
<path fill="none" stroke="midnightblue" d="M902.05,-181.51C912.04,-185.09 921.65,-189.8 930,-196 956.21,-215.45 939.97,-240.31 966,-260 971.5,-264.16 977.59,-267.64 983.98,-270.54"/>
<polygon fill="midnightblue" stroke="midnightblue" points="982.96,-273.9 993.54,-274.41 985.58,-267.41 982.96,-273.9"/>
</g>
<!-- Node20&#45;&gt;Node6 -->
<g id="edge26" class="edge">
<title>Node20&#45;&gt;Node6</title>
<path fill="none" stroke="midnightblue" d="M905.12,-177.26C913.8,-179.69 922.25,-182.87 930,-187 951.11,-198.25 945.11,-215.35 966,-227 1048.45,-273 1086.78,-231.37 1175,-265 1192.52,-271.68 1193.51,-280.24 1211,-287 1305.84,-323.68 1420.29,-343.42 1502.68,-353.69"/>
<polygon fill="midnightblue" stroke="midnightblue" points="1502.47,-357.19 1512.82,-354.93 1503.32,-350.25 1502.47,-357.19"/>
</g>
<!-- Node20&#45;&gt;Node8 -->
<g id="edge25" class="edge">
<title>Node20&#45;&gt;Node8</title>
<path fill="none" stroke="midnightblue" d="M905.21,-172.01C995.87,-173.06 1137.38,-174.69 1233.71,-175.8"/>
<polygon fill="midnightblue" stroke="midnightblue" points="1233.73,-179.3 1243.76,-175.91 1233.81,-172.3 1233.73,-179.3"/>
</g>
<!-- Node21 -->
<g id="node21" class="node">
<title>Node21</title>
<g id="a_node21"><a xlink:href="class_card_slot.html#af678d8249e4d52bb791b47d4ed75e7f3" target="_top" xlink:title="Makes the card slot visible and its game object active">
<polygon fill="white" stroke="black" points="1010.5,-196.5 1010.5,-217.5 1130.5,-217.5 1130.5,-196.5 1010.5,-196.5"/>
<text text-anchor="middle" x="1070.5" y="-203.9" font-family="Helvetica,sans-Serif" font-size="12.00">CardSlot.SetVisible</text>
</a>
</g>
</g>
<!-- Node20&#45;&gt;Node21 -->
<g id="edge27" class="edge">
<title>Node20&#45;&gt;Node21</title>
<path fill="none" stroke="midnightblue" d="M891.07,-181.51C925.43,-186.42 966.12,-192.23 999.97,-197.07"/>
<polygon fill="midnightblue" stroke="midnightblue" points="999.84,-200.58 1010.23,-198.53 1000.83,-193.65 999.84,-200.58"/>
</g>
<!-- Node23 -->
<g id="node23" class="node">
<title>Node23</title>
<g id="a_node23"><a xlink:href="class_u_i_handler.html#a25f316e553a6f1b60fb6c04a8dc23613" target="_top" xlink:title="Dispalys text on screen">
<polygon fill="white" stroke="black" points="714,-238.5 714,-259.5 919,-259.5 919,-238.5 714,-238.5"/>
<text text-anchor="middle" x="816.5" y="-245.9" font-family="Helvetica,sans-Serif" font-size="12.00">UIHandler.DisplayOutputTextRoutine</text>
</a>
</g>
</g>
<!-- Node22&#45;&gt;Node23 -->
<g id="edge29" class="edge">
<title>Node22&#45;&gt;Node23</title>
<path fill="none" stroke="midnightblue" d="M637.75,-249C658.62,-249 681.42,-249 703.52,-249"/>
<polygon fill="midnightblue" stroke="midnightblue" points="703.62,-252.5 713.62,-249 703.62,-245.5 703.62,-252.5"/>
</g>
<!-- Node27 -->
<g id="node27" class="node">
<title>Node27</title>
<g id="a_node27"><a xlink:href="class_character_card.html#a700a59f812d71708bb772b7df07f08bc" target="_top" xlink:title="Returns the enum of the card">
<polygon fill="white" stroke="black" points="471,-0.5 471,-21.5 639,-21.5 639,-0.5 471,-0.5"/>
<text text-anchor="middle" x="555" y="-7.9" font-family="Helvetica,sans-Serif" font-size="12.00">CharacterCard.GetCardType</text>
</a>
</g>
</g>
<!-- Node26&#45;&gt;Node27 -->
<g id="edge36" class="edge">
<title>Node26&#45;&gt;Node27</title>
<path fill="none" stroke="midnightblue" d="M327.4,-100.27C349.88,-82.84 397.24,-48.57 443,-31 449.93,-28.34 457.24,-26.03 464.66,-24.02"/>
<polygon fill="midnightblue" stroke="midnightblue" points="465.62,-27.39 474.47,-21.56 463.91,-20.6 465.62,-27.39"/>
</g>
<!-- Node28 -->
<g id="node28" class="node">
<title>Node28</title>
<g id="a_node28"><a xlink:href="class_room_card.html#a7e77f1ec02f147b5a968305a16fe90bc" target="_top" xlink:title="Returns the enum of the card">
<polygon fill="white" stroke="black" points="481,-120.5 481,-141.5 629,-141.5 629,-120.5 481,-120.5"/>
<text text-anchor="middle" x="555" y="-127.9" font-family="Helvetica,sans-Serif" font-size="12.00">RoomCard.GetCardType</text>
</a>
</g>
</g>
<!-- Node26&#45;&gt;Node28 -->
<g id="edge37" class="edge">
<title>Node26&#45;&gt;Node28</title>
<path fill="none" stroke="midnightblue" d="M374.25,-116.02C403.45,-118.45 438.97,-121.41 470.71,-124.06"/>
<polygon fill="midnightblue" stroke="midnightblue" points="470.61,-127.56 480.87,-124.91 471.19,-120.59 470.61,-127.56"/>
</g>
<!-- Node29 -->
<g id="node29" class="node">
<title>Node29</title>
<g id="a_node29"><a xlink:href="class_weapon_card.html#af3c92c9857cb9d637f36dcf6cda1282d" target="_top" xlink:title="Returns the enum of the card">
<polygon fill="white" stroke="black" points="474.5,-80.5 474.5,-101.5 635.5,-101.5 635.5,-80.5 474.5,-80.5"/>
<text text-anchor="middle" x="555" y="-87.9" font-family="Helvetica,sans-Serif" font-size="12.00">WeaponCard.GetCardType</text>
</a>
</g>
</g>
<!-- Node26&#45;&gt;Node29 -->
<g id="edge38" class="edge">
<title>Node26&#45;&gt;Node29</title>
<path fill="none" stroke="midnightblue" d="M374.25,-105.98C401.45,-103.71 434.14,-100.99 464.14,-98.49"/>
<polygon fill="midnightblue" stroke="midnightblue" points="464.53,-101.97 474.2,-97.65 463.95,-94.99 464.53,-101.97"/>
</g>
<!-- Node30 -->
<g id="node30" class="node">
<title>Node30</title>
<g id="a_node30"><a xlink:href="class_room_script.html#a4a19c52c114612c19ae2580768d94859" target="_top" xlink:title="Move a player to the room">
<polygon fill="white" stroke="black" points="461,-160.5 461,-181.5 649,-181.5 649,-160.5 461,-160.5"/>
<text text-anchor="middle" x="555" y="-167.9" font-family="Helvetica,sans-Serif" font-size="12.00">RoomScript.MovePlayerToRoom</text>
</a>
</g>
</g>
<!-- Node26&#45;&gt;Node30 -->
<g id="edge39" class="edge">
<title>Node26&#45;&gt;Node30</title>
<path fill="none" stroke="midnightblue" d="M344.2,-121.52C370.16,-130.28 408.72,-142.63 443,-151 454.29,-153.76 466.32,-156.31 478.13,-158.61"/>
<polygon fill="midnightblue" stroke="midnightblue" points="477.51,-162.05 487.98,-160.48 478.81,-155.17 477.51,-162.05"/>
</g>
<!-- Node32 -->
<g id="node32" class="node">
<title>Node32</title>
<g id="a_node32"><a xlink:href="class_room_script.html#ae49a5bb396aa0c894fb1686b92f879da" target="_top" xlink:title="Move a weapon to the room">
<polygon fill="white" stroke="black" points="455,-40.5 455,-61.5 655,-61.5 655,-40.5 455,-40.5"/>
<text text-anchor="middle" x="555" y="-47.9" font-family="Helvetica,sans-Serif" font-size="12.00">RoomScript.MoveWeaponToRoom</text>
</a>
</g>
</g>
<!-- Node26&#45;&gt;Node32 -->
<g id="edge42" class="edge">
<title>Node26&#45;&gt;Node32</title>
<path fill="none" stroke="midnightblue" d="M344.2,-100.48C370.16,-91.72 408.72,-79.37 443,-71 454.29,-68.24 466.32,-65.69 478.13,-63.39"/>
<polygon fill="midnightblue" stroke="midnightblue" points="478.81,-66.83 487.98,-61.52 477.51,-59.95 478.81,-66.83"/>
</g>
<!-- Node30&#45;&gt;Node5 -->
<g id="edge40" class="edge">
<title>Node30&#45;&gt;Node5</title>
<path fill="none" stroke="midnightblue" d="M630.89,-181.54C736.13,-196.5 916.54,-222.79 930,-229 949.17,-237.85 947.21,-250.36 966,-260 975.16,-264.7 985.24,-268.54 995.39,-271.67"/>
<polygon fill="midnightblue" stroke="midnightblue" points="994.55,-275.07 1005.13,-274.45 996.48,-268.34 994.55,-275.07"/>
</g>
<!-- Node31 -->
<g id="node31" class="node">
<title>Node31</title>
<g id="a_node31"><a xlink:href="class_player_master_controller.html#a0447a8a21b5c0f2c94f9d27e0bcd0830" target="_top" xlink:title=" ">
<polygon fill="white" stroke="black" points="703,-120.5 703,-141.5 930,-141.5 930,-120.5 703,-120.5"/>
<text text-anchor="middle" x="816.5" y="-127.9" font-family="Helvetica,sans-Serif" font-size="12.00">PlayerMasterController.GetCurrentRoom</text>
</a>
</g>
</g>
<!-- Node30&#45;&gt;Node31 -->
<g id="edge41" class="edge">
<title>Node30&#45;&gt;Node31</title>
<path fill="none" stroke="midnightblue" d="M624.18,-160.49C658.91,-155.14 701.3,-148.6 737.34,-143.05"/>
<polygon fill="midnightblue" stroke="midnightblue" points="737.97,-146.49 747.32,-141.51 736.91,-139.57 737.97,-146.49"/>
</g>
</g>
</svg>
