<?xml version="1.0" encoding="UTF-8" standalone="no"?>
<!DOCTYPE svg PUBLIC "-//W3C//DTD SVG 1.1//EN"
 "http://www.w3.org/Graphics/SVG/1.1/DTD/svg11.dtd">
<!-- Generated by graphviz version 2.47.1 (20210417.1919)
 -->
<!-- Title: RoundManager.NotifySuggestion Pages: 1 -->
<svg width="1185pt" height="188pt"
 viewBox="0.00 0.00 1185.00 188.00" xmlns="http://www.w3.org/2000/svg" xmlns:xlink="http://www.w3.org/1999/xlink">
<g id="graph0" class="graph" transform="scale(1 1) rotate(0) translate(4 184)">
<title>RoundManager.NotifySuggestion</title>
<polygon fill="white" stroke="transparent" points="-4,4 -4,-184 1181,-184 1181,4 -4,4"/>
<!-- Node1 -->
<g id="node1" class="node">
<title>Node1</title>
<g id="a_node1"><a xlink:title="removing a card from the player&#39;s To Guess List notify the AI if a player finished showing a suggeste...">
<polygon fill="#bfbfbf" stroke="black" points="0,-79.5 0,-100.5 188,-100.5 188,-79.5 0,-79.5"/>
<text text-anchor="middle" x="94" y="-86.9" font-family="Helvetica,sans-Serif" font-size="12.00">RoundManager.NotifySuggestion</text>
</a>
</g>
</g>
<!-- Node2 -->
<g id="node2" class="node">
<title>Node2</title>
<g id="a_node2"><a xlink:href="class_round_manager.html#aab3f49a5e05508a8e023a497e763c1c8" target="_top" xlink:title="Gets the player controller for the current player">
<polygon fill="white" stroke="black" points="257,-138.5 257,-159.5 447,-159.5 447,-138.5 257,-138.5"/>
<text text-anchor="middle" x="352" y="-145.9" font-family="Helvetica,sans-Serif" font-size="12.00">RoundManager.GetCurrentPlayer</text>
</a>
</g>
</g>
<!-- Node1&#45;&gt;Node2 -->
<g id="edge1" class="edge">
<title>Node1&#45;&gt;Node2</title>
<path fill="none" stroke="midnightblue" d="M140.77,-100.55C184.05,-110.52 249.07,-125.51 295.33,-136.17"/>
<polygon fill="midnightblue" stroke="midnightblue" points="294.67,-139.61 305.2,-138.44 296.24,-132.79 294.67,-139.61"/>
</g>
<!-- Node4 -->
<g id="node4" class="node">
<title>Node4</title>
<g id="a_node4"><a xlink:href="class_a_i_controller_script.html#a208f5afe4102ff2ca04a03a425d76279" target="_top" xlink:title="for the round manager to notify that another player finished picking a card to show">
<polygon fill="white" stroke="black" points="252,-79.5 252,-100.5 452,-100.5 452,-79.5 252,-79.5"/>
<text text-anchor="middle" x="352" y="-86.9" font-family="Helvetica,sans-Serif" font-size="12.00">AIControllerScript.NotifySuggestion</text>
</a>
</g>
</g>
<!-- Node1&#45;&gt;Node4 -->
<g id="edge3" class="edge">
<title>Node1&#45;&gt;Node4</title>
<path fill="none" stroke="midnightblue" d="M188.15,-90C205.47,-90 223.73,-90 241.49,-90"/>
<polygon fill="midnightblue" stroke="midnightblue" points="241.88,-93.5 251.88,-90 241.88,-86.5 241.88,-93.5"/>
</g>
<!-- Node9 -->
<g id="node9" class="node">
<title>Node9</title>
<g id="a_node9"><a xlink:href="class_player_master_controller.html#a16dbaeb841ba29cdc8b7cb3b3bc86d99" target="_top" xlink:title="Remove a card from ToGuessCard">
<polygon fill="white" stroke="black" points="224,-20.5 224,-41.5 480,-41.5 480,-20.5 224,-20.5"/>
<text text-anchor="middle" x="352" y="-27.9" font-family="Helvetica,sans-Serif" font-size="12.00">PlayerMasterController.RemoveToGuessCard</text>
</a>
</g>
</g>
<!-- Node1&#45;&gt;Node9 -->
<g id="edge10" class="edge">
<title>Node1&#45;&gt;Node9</title>
<path fill="none" stroke="midnightblue" d="M140.77,-79.45C184.05,-69.48 249.07,-54.49 295.33,-43.83"/>
<polygon fill="midnightblue" stroke="midnightblue" points="296.24,-47.21 305.2,-41.56 294.67,-40.39 296.24,-47.21"/>
</g>
<!-- Node3 -->
<g id="node3" class="node">
<title>Node3</title>
<g id="a_node3"><a xlink:href="class_turn_controller.html#af16e42b7e61c5a999291327e2e556caa" target="_top" xlink:title=" ">
<polygon fill="white" stroke="black" points="535.5,-158.5 535.5,-179.5 717.5,-179.5 717.5,-158.5 535.5,-158.5"/>
<text text-anchor="middle" x="626.5" y="-165.9" font-family="Helvetica,sans-Serif" font-size="12.00">TurnController.GetCurrentPlayer</text>
</a>
</g>
</g>
<!-- Node2&#45;&gt;Node3 -->
<g id="edge2" class="edge">
<title>Node2&#45;&gt;Node3</title>
<path fill="none" stroke="midnightblue" d="M447.16,-155.91C472.42,-157.76 499.82,-159.78 525.39,-161.65"/>
<polygon fill="midnightblue" stroke="midnightblue" points="525.24,-165.15 535.47,-162.39 525.75,-158.17 525.24,-165.15"/>
</g>
<!-- Node5 -->
<g id="node5" class="node">
<title>Node5</title>
<g id="a_node5"><a xlink:href="class_enum_to_string.html#a078a1fb16a0030544fac1b96a90b6b83" target="_top" xlink:title="Get a string value from a valid enum">
<polygon fill="white" stroke="black" points="526,-118.5 526,-139.5 727,-139.5 727,-118.5 526,-118.5"/>
<text text-anchor="middle" x="626.5" y="-125.9" font-family="Helvetica,sans-Serif" font-size="12.00">EnumToString.GetStringFromEnum</text>
</a>
</g>
</g>
<!-- Node4&#45;&gt;Node5 -->
<g id="edge4" class="edge">
<title>Node4&#45;&gt;Node5</title>
<path fill="none" stroke="midnightblue" d="M426.38,-100.5C461.97,-105.6 504.89,-111.74 541.76,-117.02"/>
<polygon fill="midnightblue" stroke="midnightblue" points="541.59,-120.53 551.99,-118.48 542.58,-113.6 541.59,-120.53"/>
</g>
<!-- Node6 -->
<g id="node6" class="node">
<title>Node6</title>
<g id="a_node6"><a xlink:href="class_a_i_controller_script.html#ab124aec8211aa7b8f00c6ef5db6bc96a" target="_top" xlink:title="for out putting the debug stack if outputDebugText is true, it will out put the the console as well">
<polygon fill="white" stroke="black" points="997,-41.5 997,-62.5 1177,-62.5 1177,-41.5 997,-41.5"/>
<text text-anchor="middle" x="1087" y="-48.9" font-family="Helvetica,sans-Serif" font-size="12.00">AIControllerScript.OutputDebug</text>
</a>
</g>
</g>
<!-- Node4&#45;&gt;Node6 -->
<g id="edge5" class="edge">
<title>Node4&#45;&gt;Node6</title>
<path fill="none" stroke="midnightblue" d="M452.1,-87.83C572.53,-84.75 781.87,-77.98 961,-65 969.37,-64.39 978.04,-63.68 986.74,-62.89"/>
<polygon fill="midnightblue" stroke="midnightblue" points="987.32,-66.36 996.95,-61.95 986.67,-59.39 987.32,-66.36"/>
</g>
<!-- Node7 -->
<g id="node7" class="node">
<title>Node7</title>
<g id="a_node7"><a xlink:href="class_a_i_controller_script.html#aaee909cd0f0ffdedd8d8425607d7ccb5" target="_top" xlink:title="to set the AI&#39;s mode">
<polygon fill="white" stroke="black" points="541.5,-40.5 541.5,-61.5 711.5,-61.5 711.5,-40.5 541.5,-40.5"/>
<text text-anchor="middle" x="626.5" y="-47.9" font-family="Helvetica,sans-Serif" font-size="12.00">AIControllerScript.SetAIMode</text>
</a>
</g>
</g>
<!-- Node4&#45;&gt;Node7 -->
<g id="edge6" class="edge">
<title>Node4&#45;&gt;Node7</title>
<path fill="none" stroke="midnightblue" d="M426.38,-79.5C461.97,-74.4 504.89,-68.26 541.76,-62.98"/>
<polygon fill="midnightblue" stroke="midnightblue" points="542.58,-66.4 551.99,-61.52 541.59,-59.47 542.58,-66.4"/>
</g>
<!-- Node7&#45;&gt;Node6 -->
<g id="edge9" class="edge">
<title>Node7&#45;&gt;Node6</title>
<path fill="none" stroke="midnightblue" d="M711.6,-51.18C789.27,-51.35 904.72,-51.6 986.86,-51.78"/>
<polygon fill="midnightblue" stroke="midnightblue" points="986.95,-55.28 996.96,-51.81 986.97,-48.28 986.95,-55.28"/>
</g>
<!-- Node8 -->
<g id="node8" class="node">
<title>Node8</title>
<g id="a_node8"><a xlink:href="class_a_i_controller_script.html#afcb2875a5501f07a7f44d0fa720266f3" target="_top" xlink:title="to delay the time for the next time the AI does something in the Update">
<polygon fill="white" stroke="black" points="773,-2.5 773,-23.5 961,-23.5 961,-2.5 773,-2.5"/>
<text text-anchor="middle" x="867" y="-9.9" font-family="Helvetica,sans-Serif" font-size="12.00">AIControllerScript.DelayDecision</text>
</a>
</g>
</g>
<!-- Node7&#45;&gt;Node8 -->
<g id="edge7" class="edge">
<title>Node7&#45;&gt;Node8</title>
<path fill="none" stroke="midnightblue" d="M693.62,-40.47C723.47,-35.71 758.91,-30.06 789.87,-25.13"/>
<polygon fill="midnightblue" stroke="midnightblue" points="790.43,-28.59 799.75,-23.56 789.33,-21.67 790.43,-28.59"/>
</g>
<!-- Node8&#45;&gt;Node6 -->
<g id="edge8" class="edge">
<title>Node8&#45;&gt;Node6</title>
<path fill="none" stroke="midnightblue" d="M926.71,-23.5C954.57,-28.49 988.05,-34.48 1017.11,-39.68"/>
<polygon fill="midnightblue" stroke="midnightblue" points="1016.73,-43.16 1027.19,-41.48 1017.96,-36.27 1016.73,-43.16"/>
</g>
<!-- Node10 -->
<g id="node10" class="node">
<title>Node10</title>
<g id="a_node10"><a xlink:href="class_player_stats_script.html#a9cfb94bd7661f4120b9ea69c025bd368" target="_top" xlink:title="remove a selected card from To Guess List">
<polygon fill="white" stroke="black" points="516,-0.5 516,-21.5 737,-21.5 737,-0.5 516,-0.5"/>
<text text-anchor="middle" x="626.5" y="-7.9" font-family="Helvetica,sans-Serif" font-size="12.00">PlayerStatsScript.RemoveToGessCard</text>
</a>
</g>
</g>
<!-- Node9&#45;&gt;Node10 -->
<g id="edge11" class="edge">
<title>Node9&#45;&gt;Node10</title>
<path fill="none" stroke="midnightblue" d="M480.08,-21.67C488.65,-21.04 497.28,-20.41 505.81,-19.78"/>
<polygon fill="midnightblue" stroke="midnightblue" points="506.07,-23.27 515.79,-19.05 505.56,-16.29 506.07,-23.27"/>
</g>
</g>
</svg>
