<?xml version="1.0" encoding="UTF-8" standalone="no"?>
<!DOCTYPE svg PUBLIC "-//W3C//DTD SVG 1.1//EN"
 "http://www.w3.org/Graphics/SVG/1.1/DTD/svg11.dtd">
<!-- Generated by graphviz version 2.47.1 (20210417.1919)
 -->
<!-- Title: Die Pages: 1 -->
<svg width="184pt" height="507pt"
 viewBox="0.00 0.00 184.00 507.00" xmlns="http://www.w3.org/2000/svg" xmlns:xlink="http://www.w3.org/1999/xlink">
<g id="graph0" class="graph" transform="scale(1 1) rotate(0) translate(4 503)">
<title>Die</title>
<polygon fill="white" stroke="transparent" points="-4,4 -4,-503 180,-503 180,4 -4,4"/>
<!-- Node1 -->
<g id="node1" class="node">
<title>Node1</title>
<g id="a_node1"><a xlink:title="Script for the Die Gameobject">
<polygon fill="#bfbfbf" stroke="black" points="0,-0.5 0,-232.5 113,-232.5 113,-0.5 0,-0.5"/>
<text text-anchor="middle" x="56.5" y="-218.9" font-family="Helvetica,sans-Serif" font-size="12.00">Die</text>
<polyline fill="none" stroke="black" points="0,-211.5 113,-211.5 "/>
<text text-anchor="start" x="8" y="-197.9" font-family="Helvetica,sans-Serif" font-size="12.00">&#45; dieRigidbody</text>
<text text-anchor="start" x="8" y="-184.9" font-family="Helvetica,sans-Serif" font-size="12.00">&#45; hasLanded</text>
<text text-anchor="start" x="8" y="-171.9" font-family="Helvetica,sans-Serif" font-size="12.00">&#45; isThrown</text>
<text text-anchor="start" x="8" y="-158.9" font-family="Helvetica,sans-Serif" font-size="12.00">&#45; initialPosition</text>
<text text-anchor="start" x="8" y="-145.9" font-family="Helvetica,sans-Serif" font-size="12.00">&#45; dieValue</text>
<polyline fill="none" stroke="black" points="0,-138.5 113,-138.5 "/>
<text text-anchor="start" x="8" y="-124.9" font-family="Helvetica,sans-Serif" font-size="12.00">+ RollDie()</text>
<text text-anchor="start" x="8" y="-111.9" font-family="Helvetica,sans-Serif" font-size="12.00">+ IsReadyToRoll()</text>
<text text-anchor="start" x="8" y="-98.9" font-family="Helvetica,sans-Serif" font-size="12.00">+ CanResetDie()</text>
<text text-anchor="start" x="8" y="-85.9" font-family="Helvetica,sans-Serif" font-size="12.00">+ ResetDie()</text>
<text text-anchor="start" x="8" y="-72.9" font-family="Helvetica,sans-Serif" font-size="12.00">+ GetValueDie()</text>
<text text-anchor="start" x="8" y="-59.9" font-family="Helvetica,sans-Serif" font-size="12.00">&#45; Start()</text>
<text text-anchor="start" x="8" y="-46.9" font-family="Helvetica,sans-Serif" font-size="12.00">&#45; Initialise()</text>
<text text-anchor="start" x="8" y="-33.9" font-family="Helvetica,sans-Serif" font-size="12.00">&#45; Update()</text>
<text text-anchor="start" x="8" y="-20.9" font-family="Helvetica,sans-Serif" font-size="12.00">&#45; RollAgain()</text>
<text text-anchor="start" x="8" y="-7.9" font-family="Helvetica,sans-Serif" font-size="12.00">&#45; CheckValueDie()</text>
</a>
</g>
</g>
<!-- Node2 -->
<g id="node2" class="node">
<title>Node2</title>
<g id="a_node2"><a xlink:title=" ">
<polygon fill="white" stroke="#bfbfbf" points="3.5,-435.5 3.5,-498.5 101.5,-498.5 101.5,-435.5 3.5,-435.5"/>
<text text-anchor="middle" x="52.5" y="-484.9" font-family="Helvetica,sans-Serif" font-size="12.00">MonoBehaviour</text>
<polyline fill="none" stroke="#bfbfbf" points="3.5,-477.5 101.5,-477.5 "/>
<text text-anchor="middle" x="52.5" y="-463.9" font-family="Helvetica,sans-Serif" font-size="12.00"> </text>
<polyline fill="none" stroke="#bfbfbf" points="3.5,-456.5 101.5,-456.5 "/>
<text text-anchor="middle" x="52.5" y="-442.9" font-family="Helvetica,sans-Serif" font-size="12.00"> </text>
</a>
</g>
</g>
<!-- Node2&#45;&gt;Node1 -->
<g id="edge1" class="edge">
<title>Node2&#45;&gt;Node1</title>
<path fill="none" stroke="midnightblue" d="M52.97,-425.29C53.51,-378.29 54.42,-298.93 55.18,-232.57"/>
<polygon fill="none" stroke="midnightblue" points="49.47,-425.34 52.85,-435.38 56.47,-425.42 49.47,-425.34"/>
</g>
<!-- Node3 -->
<g id="node3" class="node">
<title>Node3</title>
<g id="a_node3"><a xlink:href="class_die_side.html" target="_top" xlink:title="Script for die side Gameobject">
<polygon fill="white" stroke="black" points="69,-282.5 69,-397.5 176,-397.5 176,-282.5 69,-282.5"/>
<text text-anchor="middle" x="122.5" y="-383.9" font-family="Helvetica,sans-Serif" font-size="12.00">DieSide</text>
<polyline fill="none" stroke="black" points="69,-376.5 176,-376.5 "/>
<text text-anchor="start" x="77" y="-362.9" font-family="Helvetica,sans-Serif" font-size="12.00">&#45; value</text>
<text text-anchor="start" x="77" y="-349.9" font-family="Helvetica,sans-Serif" font-size="12.00">&#45; isOnGround</text>
<polyline fill="none" stroke="black" points="69,-342.5 176,-342.5 "/>
<text text-anchor="start" x="77" y="-328.9" font-family="Helvetica,sans-Serif" font-size="12.00">+ IsOnGround()</text>
<text text-anchor="start" x="77" y="-315.9" font-family="Helvetica,sans-Serif" font-size="12.00">+ GetSideValue()</text>
<text text-anchor="start" x="77" y="-302.9" font-family="Helvetica,sans-Serif" font-size="12.00">&#45; OnTriggerStay()</text>
<text text-anchor="start" x="77" y="-289.9" font-family="Helvetica,sans-Serif" font-size="12.00">&#45; OnTriggerExit()</text>
</a>
</g>
</g>
<!-- Node2&#45;&gt;Node3 -->
<g id="edge3" class="edge">
<title>Node2&#45;&gt;Node3</title>
<path fill="none" stroke="midnightblue" d="M74.6,-426.53C79.75,-417.34 85.33,-407.38 90.79,-397.62"/>
<polygon fill="none" stroke="midnightblue" points="71.46,-424.99 69.62,-435.42 77.56,-428.41 71.46,-424.99"/>
</g>
<!-- Node3&#45;&gt;Node1 -->
<g id="edge2" class="edge">
<title>Node3&#45;&gt;Node1</title>
<path fill="none" stroke="#404040" d="M105.59,-282.25C102.07,-270.45 98.24,-257.57 94.31,-244.38"/>
<polygon fill="none" stroke="#404040" points="94.26,-244.22 88.71,-239.62 90.83,-232.72 96.38,-237.33 94.26,-244.22"/>
<text text-anchor="middle" x="126" y="-254.4" font-family="Helvetica,sans-Serif" font-size="12.00"> &#45;dieSides</text>
</g>
</g>
</svg>
