<?xml version="1.0" encoding="UTF-8" standalone="no"?>
<!DOCTYPE svg PUBLIC "-//W3C//DTD SVG 1.1//EN"
 "http://www.w3.org/Graphics/SVG/1.1/DTD/svg11.dtd">
<!-- Generated by graphviz version 2.47.1 (20210417.1919)
 -->
<!-- Title: Suggestion Pages: 1 -->
<!--zoomable 530 -->
<svg id="main" version="1.1" xmlns="http://www.w3.org/2000/svg" xmlns:xlink="http://www.w3.org/1999/xlink" xml:space="preserve" onload="init(evt)">
<style type="text/css"><![CDATA[
.edge:hover path { stroke: red; }
.edge:hover polygon { stroke: red; fill: red; }
]]></style>
<script type="text/javascript"><![CDATA[
var edges = document.getElementsByTagName('g');
if (edges && edges.length) {
  for (var i=0;i<edges.length;i++) {
    if (edges[i].id.substr(0,4)=='edge') {
      edges[i].setAttribute('class','edge');
    }
  }
}
]]></script>
        <defs>
                <circle id="rim" cx="0" cy="0" r="7"/>
                <circle id="rim2" cx="0" cy="0" r="3.5"/>
                <g id="zoomPlus">
                        <use xlink:href="#rim" fill="#404040">
                                <set attributeName="fill" to="#808080" begin="zoomplus.mouseover" end="zoomplus.mouseout"/>
                        </use>
                        <path d="M-4,0h8M0,-4v8" fill="none" stroke="white" stroke-width="1.5" pointer-events="none"/>
                </g>
                <g id="zoomMin">
                        <use xlink:href="#rim" fill="#404040">
                                <set attributeName="fill" to="#808080" begin="zoomminus.mouseover" end="zoomminus.mouseout"/>
                        </use>
                        <path d="M-4,0h8" fill="none" stroke="white" stroke-width="1.5" pointer-events="none"/>
                </g>
                <g id="dirArrow">
                        <path fill="none" stroke="white" stroke-width="1.5" d="M0,-3.0v7 M-2.5,-0.5L0,-3.0L2.5,-0.5"/>
                </g>
               <g id="resetDef">
                       <use xlink:href="#rim2" fill="#404040">
                               <set attributeName="fill" to="#808080" begin="reset.mouseover" end="reset.mouseout"/>
                       </use>
               </g>
        </defs>

<script type="text/javascript">
var viewWidth = 443;
var viewHeight = 530;
var sectionId = 'dynsection-1';
</script>
<script xlink:href="svgpan.js"/>
<svg id="graph" class="graph">
<g id="viewport">
<title>Suggestion</title>
<polygon fill="white" stroke="transparent" points="-4,4 -4,-526 438.5,-526 438.5,4 -4,4"/>
<!-- Node1 -->
<g id="node1" class="node">
<title>Node1</title>
<g id="a_node1"><a xlink:title=" ">
<polygon fill="#bfbfbf" stroke="black" points="122.5,-0.5 122.5,-128.5 247.5,-128.5 247.5,-0.5 122.5,-0.5"/>
<text text-anchor="middle" x="185" y="-114.9" font-family="Helvetica,sans-Serif" font-size="12.00">Suggestion</text>
<polyline fill="none" stroke="black" points="122.5,-107.5 247.5,-107.5 "/>
<text text-anchor="middle" x="185" y="-93.9" font-family="Helvetica,sans-Serif" font-size="12.00"> </text>
<polyline fill="none" stroke="black" points="122.5,-86.5 247.5,-86.5 "/>
<text text-anchor="start" x="130.5" y="-72.9" font-family="Helvetica,sans-Serif" font-size="12.00">+ Suggest()</text>
<text text-anchor="start" x="130.5" y="-59.9" font-family="Helvetica,sans-Serif" font-size="12.00">+ SetSugWeapon()</text>
<text text-anchor="start" x="130.5" y="-46.9" font-family="Helvetica,sans-Serif" font-size="12.00">+ SetSugRoom()</text>
<text text-anchor="start" x="130.5" y="-33.9" font-family="Helvetica,sans-Serif" font-size="12.00">+ SetSugCharacter()</text>
<text text-anchor="start" x="130.5" y="-20.9" font-family="Helvetica,sans-Serif" font-size="12.00">+ Cancel()</text>
<text text-anchor="start" x="130.5" y="-7.9" font-family="Helvetica,sans-Serif" font-size="12.00">&#45; Awake()</text>
</a>
</g>
</g>
<!-- Node2 -->
<g id="node2" class="node">
<title>Node2</title>
<g id="a_node2"><a xlink:title=" ">
<polygon fill="white" stroke="#bfbfbf" points="0,-458.5 0,-521.5 98,-521.5 98,-458.5 0,-458.5"/>
<text text-anchor="middle" x="49" y="-507.9" font-family="Helvetica,sans-Serif" font-size="12.00">MonoBehaviour</text>
<polyline fill="none" stroke="#bfbfbf" points="0,-500.5 98,-500.5 "/>
<text text-anchor="middle" x="49" y="-486.9" font-family="Helvetica,sans-Serif" font-size="12.00"> </text>
<polyline fill="none" stroke="#bfbfbf" points="0,-479.5 98,-479.5 "/>
<text text-anchor="middle" x="49" y="-465.9" font-family="Helvetica,sans-Serif" font-size="12.00"> </text>
</a>
</g>
</g>
<!-- Node2&#45;&gt;Node1 -->
<g id="edge1" class="edge">
<title>Node2&#45;&gt;Node1</title>
<path fill="none" stroke="midnightblue" d="M39.96,-448.35C28.35,-386.61 14.31,-267 56,-178 70.18,-147.73 96.81,-122.33 122.21,-103.38"/>
<polygon fill="none" stroke="midnightblue" points="36.58,-449.32 41.94,-458.47 43.45,-447.98 36.58,-449.32"/>
</g>
<!-- Node4 -->
<g id="node4" class="node">
<title>Node4</title>
<g id="a_node4"><a xlink:href="class_card.html" target="_top" xlink:title=" ">
<polygon fill="white" stroke="black" points="130.5,-344.5 130.5,-420.5 241.5,-420.5 241.5,-344.5 130.5,-344.5"/>
<text text-anchor="middle" x="186" y="-406.9" font-family="Helvetica,sans-Serif" font-size="12.00">Card</text>
<polyline fill="none" stroke="black" points="130.5,-399.5 241.5,-399.5 "/>
<text text-anchor="start" x="138.5" y="-385.9" font-family="Helvetica,sans-Serif" font-size="12.00">+ names</text>
<polyline fill="none" stroke="black" points="130.5,-378.5 241.5,-378.5 "/>
<text text-anchor="start" x="138.5" y="-364.9" font-family="Helvetica,sans-Serif" font-size="12.00">+ GetCardType()</text>
<text text-anchor="start" x="138.5" y="-351.9" font-family="Helvetica,sans-Serif" font-size="12.00">+ GetCardImage()</text>
</a>
</g>
</g>
<!-- Node2&#45;&gt;Node4 -->
<g id="edge4" class="edge">
<title>Node2&#45;&gt;Node4</title>
<path fill="none" stroke="midnightblue" d="M96.72,-452.25C109.99,-442.03 124.41,-430.93 137.71,-420.68"/>
<polygon fill="none" stroke="midnightblue" points="94.41,-449.61 88.63,-458.49 98.68,-455.16 94.41,-449.61"/>
</g>
<!-- Node3 -->
<g id="node3" class="node">
<title>Node3</title>
<g id="a_node3"><a xlink:href="class_room_card.html" target="_top" xlink:title=" ">
<polygon fill="white" stroke="black" points="65.5,-178.5 65.5,-306.5 176.5,-306.5 176.5,-178.5 65.5,-178.5"/>
<text text-anchor="middle" x="121" y="-292.9" font-family="Helvetica,sans-Serif" font-size="12.00">RoomCard</text>
<polyline fill="none" stroke="black" points="65.5,-285.5 176.5,-285.5 "/>
<text text-anchor="start" x="73.5" y="-271.9" font-family="Helvetica,sans-Serif" font-size="12.00">+ room</text>
<text text-anchor="start" x="73.5" y="-258.9" font-family="Helvetica,sans-Serif" font-size="12.00">&#45; cardImage</text>
<polyline fill="none" stroke="black" points="65.5,-251.5 176.5,-251.5 "/>
<text text-anchor="start" x="73.5" y="-237.9" font-family="Helvetica,sans-Serif" font-size="12.00">+ Equals()</text>
<text text-anchor="start" x="73.5" y="-224.9" font-family="Helvetica,sans-Serif" font-size="12.00">+ GetCardType()</text>
<text text-anchor="start" x="73.5" y="-211.9" font-family="Helvetica,sans-Serif" font-size="12.00">+ GetHashCode()</text>
<text text-anchor="start" x="73.5" y="-198.9" font-family="Helvetica,sans-Serif" font-size="12.00">+ GetCardImage()</text>
<text text-anchor="start" x="73.5" y="-185.9" font-family="Helvetica,sans-Serif" font-size="12.00">&#45; Awake()</text>
</a>
</g>
</g>
<!-- Node3&#45;&gt;Node1 -->
<g id="edge2" class="edge">
<title>Node3&#45;&gt;Node1</title>
<path fill="none" stroke="#404040" d="M143.61,-178.45C147.4,-167.94 151.3,-157.16 155,-147 155.81,-144.77 156.64,-142.5 157.47,-140.22"/>
<polygon fill="none" stroke="#404040" points="157.58,-139.93 155.88,-132.92 161.7,-128.66 163.39,-135.67 157.58,-139.93"/>
<text text-anchor="middle" x="185.5" y="-150.4" font-family="Helvetica,sans-Serif" font-size="12.00"> +sugRoom</text>
</g>
<!-- Node4&#45;&gt;Node3 -->
<g id="edge3" class="edge">
<title>Node4&#45;&gt;Node3</title>
<path fill="none" stroke="midnightblue" d="M164.07,-334.93C159.79,-325.85 155.24,-316.18 150.75,-306.67"/>
<polygon fill="none" stroke="midnightblue" points="160.98,-336.6 168.41,-344.16 167.32,-333.62 160.98,-336.6"/>
</g>
<!-- Node5 -->
<g id="node5" class="node">
<title>Node5</title>
<g id="a_node5"><a xlink:href="class_character_card.html" target="_top" xlink:title=" ">
<polygon fill="white" stroke="black" points="194.5,-178.5 194.5,-306.5 305.5,-306.5 305.5,-178.5 194.5,-178.5"/>
<text text-anchor="middle" x="250" y="-292.9" font-family="Helvetica,sans-Serif" font-size="12.00">CharacterCard</text>
<polyline fill="none" stroke="black" points="194.5,-285.5 305.5,-285.5 "/>
<text text-anchor="start" x="202.5" y="-271.9" font-family="Helvetica,sans-Serif" font-size="12.00">+ characterEnum</text>
<text text-anchor="start" x="202.5" y="-258.9" font-family="Helvetica,sans-Serif" font-size="12.00">&#45; cardImage</text>
<polyline fill="none" stroke="black" points="194.5,-251.5 305.5,-251.5 "/>
<text text-anchor="start" x="202.5" y="-237.9" font-family="Helvetica,sans-Serif" font-size="12.00">+ Equals()</text>
<text text-anchor="start" x="202.5" y="-224.9" font-family="Helvetica,sans-Serif" font-size="12.00">+ GetCardType()</text>
<text text-anchor="start" x="202.5" y="-211.9" font-family="Helvetica,sans-Serif" font-size="12.00">+ GetHashCode()</text>
<text text-anchor="start" x="202.5" y="-198.9" font-family="Helvetica,sans-Serif" font-size="12.00">+ GetCardImage()</text>
<text text-anchor="start" x="202.5" y="-185.9" font-family="Helvetica,sans-Serif" font-size="12.00">&#45; Awake()</text>
</a>
</g>
</g>
<!-- Node4&#45;&gt;Node5 -->
<g id="edge6" class="edge">
<title>Node4&#45;&gt;Node5</title>
<path fill="none" stroke="midnightblue" d="M207.6,-334.93C211.81,-325.85 216.29,-316.18 220.7,-306.67"/>
<polygon fill="none" stroke="midnightblue" points="204.35,-333.61 203.32,-344.16 210.7,-336.56 204.35,-333.61"/>
</g>
<!-- Node6 -->
<g id="node6" class="node">
<title>Node6</title>
<g id="a_node6"><a xlink:href="class_weapon_card.html" target="_top" xlink:title=" ">
<polygon fill="white" stroke="black" points="323.5,-178.5 323.5,-306.5 434.5,-306.5 434.5,-178.5 323.5,-178.5"/>
<text text-anchor="middle" x="379" y="-292.9" font-family="Helvetica,sans-Serif" font-size="12.00">WeaponCard</text>
<polyline fill="none" stroke="black" points="323.5,-285.5 434.5,-285.5 "/>
<text text-anchor="start" x="331.5" y="-271.9" font-family="Helvetica,sans-Serif" font-size="12.00">+ weaponEnum</text>
<text text-anchor="start" x="331.5" y="-258.9" font-family="Helvetica,sans-Serif" font-size="12.00">&#45; cardImage</text>
<polyline fill="none" stroke="black" points="323.5,-251.5 434.5,-251.5 "/>
<text text-anchor="start" x="331.5" y="-237.9" font-family="Helvetica,sans-Serif" font-size="12.00">+ Equals()</text>
<text text-anchor="start" x="331.5" y="-224.9" font-family="Helvetica,sans-Serif" font-size="12.00">+ GetCardType()</text>
<text text-anchor="start" x="331.5" y="-211.9" font-family="Helvetica,sans-Serif" font-size="12.00">+ GetHashCode()</text>
<text text-anchor="start" x="331.5" y="-198.9" font-family="Helvetica,sans-Serif" font-size="12.00">+ GetCardImage()</text>
<text text-anchor="start" x="331.5" y="-185.9" font-family="Helvetica,sans-Serif" font-size="12.00">&#45; Awake()</text>
</a>
</g>
</g>
<!-- Node4&#45;&gt;Node6 -->
<g id="edge8" class="edge">
<title>Node4&#45;&gt;Node6</title>
<path fill="none" stroke="midnightblue" d="M250.6,-348.02C271.53,-336.1 294.39,-321.92 314,-307 317.14,-304.61 320.28,-302.08 323.41,-299.47"/>
<polygon fill="none" stroke="midnightblue" points="248.77,-345.03 241.76,-352.98 252.2,-351.14 248.77,-345.03"/>
</g>
<!-- Node5&#45;&gt;Node1 -->
<g id="edge5" class="edge">
<title>Node5&#45;&gt;Node1</title>
<path fill="none" stroke="#404040" d="M227.48,-178.41C223.68,-167.91 219.75,-157.14 216,-147 215.14,-144.67 214.26,-142.31 213.37,-139.92"/>
<polygon fill="none" stroke="#404040" points="213.35,-139.88 207.5,-135.66 209.14,-128.64 215,-132.85 213.35,-139.88"/>
<text text-anchor="middle" x="261.5" y="-150.4" font-family="Helvetica,sans-Serif" font-size="12.00"> +sugCharacter</text>
</g>
<!-- Node6&#45;&gt;Node1 -->
<g id="edge7" class="edge">
<title>Node6&#45;&gt;Node1</title>
<path fill="none" stroke="#404040" d="M334.55,-178.07C325.67,-167.17 315.98,-156.36 306,-147 291.46,-133.38 274.43,-120.43 257.81,-109.03"/>
<polygon fill="none" stroke="#404040" points="257.51,-108.82 250.3,-108.8 247.54,-102.14 254.76,-102.16 257.51,-108.82"/>
<text text-anchor="middle" x="354.5" y="-150.4" font-family="Helvetica,sans-Serif" font-size="12.00"> +sugWeapon</text>
</g>
</g>
</svg>
        <g id="navigator" transform="translate(0 0)" fill="#404254">
                <rect fill="#f2f5e9" fill-opacity="0.5" stroke="#606060" stroke-width=".5" x="0" y="0" width="60" height="60"/>
                <use id="zoomplus" xlink:href="#zoomPlus" x="17" y="9" onmousedown="handleZoom(evt,'in')"/>
                <use id="zoomminus" xlink:href="#zoomMin" x="42" y="9" onmousedown="handleZoom(evt,'out')"/>
                <use id="reset" xlink:href="#resetDef" x="30" y="36" onmousedown="handleReset()"/>
                <g id="arrowUp" xlink:href="#dirArrow" transform="translate(30 24)" onmousedown="handlePan(0,-1)">
                  <use xlink:href="#rim" fill="#404040">
                        <set attributeName="fill" to="#808080" begin="arrowUp.mouseover" end="arrowUp.mouseout"/>
                  </use>
                  <path fill="none" stroke="white" stroke-width="1.5" d="M0,-3.0v7 M-2.5,-0.5L0,-3.0L2.5,-0.5"/>
                </g>
                <g id="arrowRight" xlink:href="#dirArrow" transform="rotate(90) translate(36 -43)" onmousedown="handlePan(1,0)">
                  <use xlink:href="#rim" fill="#404040">
                        <set attributeName="fill" to="#808080" begin="arrowRight.mouseover" end="arrowRight.mouseout"/>
                  </use>
                  <path fill="none" stroke="white" stroke-width="1.5" d="M0,-3.0v7 M-2.5,-0.5L0,-3.0L2.5,-0.5"/>
                </g>
                <g id="arrowDown" xlink:href="#dirArrow" transform="rotate(180) translate(-30 -48)" onmousedown="handlePan(0,1)">
                  <use xlink:href="#rim" fill="#404040">
                        <set attributeName="fill" to="#808080" begin="arrowDown.mouseover" end="arrowDown.mouseout"/>
                  </use>
                  <path fill="none" stroke="white" stroke-width="1.5" d="M0,-3.0v7 M-2.5,-0.5L0,-3.0L2.5,-0.5"/>
                </g>
                <g id="arrowLeft" xlink:href="#dirArrow" transform="rotate(270) translate(-36 17)" onmousedown="handlePan(-1,0)">
                  <use xlink:href="#rim" fill="#404040">
                        <set attributeName="fill" to="#808080" begin="arrowLeft.mouseover" end="arrowLeft.mouseout"/>
                  </use>
                  <path fill="none" stroke="white" stroke-width="1.5" d="M0,-3.0v7 M-2.5,-0.5L0,-3.0L2.5,-0.5"/>
                </g>
        </g>
        <svg viewBox="0 0 15 15" width="100%" height="30px" preserveAspectRatio="xMaxYMin meet">
         <g id="arrow_out" transform="scale(0.3 0.3)">
          <a xlink:href="class_suggestion__coll__graph_org.svg" target="_base">
           <rect id="button" ry="5" rx="5" y="6" x="6" height="38" width="38"
                fill="#f2f5e9" fill-opacity="0.5" stroke="#606060" stroke-width="1.0"/>
           <path id="arrow"
             d="M 11.500037,31.436501 C 11.940474,20.09759 22.043105,11.32322 32.158766,21.979434 L 37.068811,17.246167 C 37.068811,17.246167 37.088388,32 37.088388,32 L 22.160133,31.978069 C 22.160133,31.978069 26.997745,27.140456 26.997745,27.140456 C 18.528582,18.264221 13.291696,25.230495 11.500037,31.436501 z"
             style="fill:#404040;"/>
          </a>
         </g>
        </svg>
</svg>
