<?xml version="1.0" encoding="UTF-8" standalone="no"?>
<!DOCTYPE svg PUBLIC "-//W3C//DTD SVG 1.1//EN"
 "http://www.w3.org/Graphics/SVG/1.1/DTD/svg11.dtd">
<!-- Generated by graphviz version 2.47.1 (20210417.1919)
 -->
<!-- Title: CardSlot.SetVisible Pages: 1 -->
<svg width="1689pt" height="188pt"
 viewBox="0.00 0.00 1689.00 188.00" xmlns="http://www.w3.org/2000/svg" xmlns:xlink="http://www.w3.org/1999/xlink">
<g id="graph0" class="graph" transform="scale(1 1) rotate(0) translate(4 184)">
<title>CardSlot.SetVisible</title>
<polygon fill="white" stroke="transparent" points="-4,4 -4,-184 1685,-184 1685,4 -4,4"/>
<!-- Node1 -->
<g id="node1" class="node">
<title>Node1</title>
<g id="a_node1"><a xlink:title="Makes the card slot visible and its game object active">
<polygon fill="#bfbfbf" stroke="black" points="1561,-70.5 1561,-91.5 1681,-91.5 1681,-70.5 1561,-70.5"/>
<text text-anchor="middle" x="1621" y="-77.9" font-family="Helvetica,sans-Serif" font-size="12.00">CardSlot.SetVisible</text>
</a>
</g>
</g>
<!-- Node2 -->
<g id="node2" class="node">
<title>Node2</title>
<g id="a_node2"><a xlink:href="class_u_i_handler.html#a81884a614bffa4b024ed137552033f7f" target="_top" xlink:title="Dispal a panel for a player to choose which card to show">
<polygon fill="white" stroke="black" points="1348,-109.5 1348,-130.5 1525,-130.5 1525,-109.5 1348,-109.5"/>
<text text-anchor="middle" x="1436.5" y="-116.9" font-family="Helvetica,sans-Serif" font-size="12.00">UIHandler.DisplayChoicePanel</text>
</a>
</g>
</g>
<!-- Node1&#45;&gt;Node2 -->
<g id="edge1" class="edge">
<title>Node1&#45;&gt;Node2</title>
<path fill="none" stroke="midnightblue" d="M1560.63,-93.69C1536.8,-98.78 1509.65,-104.58 1486.93,-109.44"/>
<polygon fill="midnightblue" stroke="midnightblue" points="1561.57,-97.07 1570.61,-91.55 1560.1,-90.22 1561.57,-97.07"/>
</g>
<!-- Node10 -->
<g id="node10" class="node">
<title>Node10</title>
<g id="a_node10"><a xlink:href="class_u_i_handler.html#affac6b69bae9622fe2d5ef41990456aa" target="_top" xlink:title="Display the list of cards">
<polygon fill="white" stroke="black" points="1368,-50.5 1368,-71.5 1505,-71.5 1505,-50.5 1368,-50.5"/>
<text text-anchor="middle" x="1436.5" y="-57.9" font-family="Helvetica,sans-Serif" font-size="12.00">UIHandler.DisplayDeck</text>
</a>
</g>
</g>
<!-- Node1&#45;&gt;Node10 -->
<g id="edge10" class="edge">
<title>Node1&#45;&gt;Node10</title>
<path fill="none" stroke="midnightblue" d="M1550.81,-73.42C1535.86,-71.78 1520.07,-70.05 1505.18,-68.42"/>
<polygon fill="midnightblue" stroke="midnightblue" points="1550.68,-76.92 1561,-74.53 1551.44,-69.97 1550.68,-76.92"/>
</g>
<!-- Node3 -->
<g id="node3" class="node">
<title>Node3</title>
<g id="a_node3"><a xlink:href="class_round_manager.html#a596fc1c822ebb74dad8d238b15b1ea3a" target="_top" xlink:title="Iterate through the rest of the players searching for if 1 or more of the cards were found">
<polygon fill="white" stroke="black" points="1124,-118.5 1124,-139.5 1312,-139.5 1312,-118.5 1124,-118.5"/>
<text text-anchor="middle" x="1218" y="-125.9" font-family="Helvetica,sans-Serif" font-size="12.00">RoundManager.MakeSuggestion</text>
</a>
</g>
</g>
<!-- Node2&#45;&gt;Node3 -->
<g id="edge2" class="edge">
<title>Node2&#45;&gt;Node3</title>
<path fill="none" stroke="midnightblue" d="M1337.52,-124.07C1329.08,-124.42 1320.56,-124.78 1312.17,-125.13"/>
<polygon fill="midnightblue" stroke="midnightblue" points="1337.91,-127.56 1347.75,-123.65 1337.62,-120.57 1337.91,-127.56"/>
</g>
<!-- Node4 -->
<g id="node4" class="node">
<title>Node4</title>
<g id="a_node4"><a xlink:href="class_suggestion_test.html#ac6fed8b504eb8b103cb5c38fa895edf3" target="_top" xlink:title="get test choices and make suggestion">
<polygon fill="white" stroke="black" points="676,-158.5 676,-179.5 866,-179.5 866,-158.5 676,-158.5"/>
<text text-anchor="middle" x="771" y="-165.9" font-family="Helvetica,sans-Serif" font-size="12.00">SuggestionTest.MakeSuggestion</text>
</a>
</g>
</g>
<!-- Node3&#45;&gt;Node4 -->
<g id="edge3" class="edge">
<title>Node3&#45;&gt;Node4</title>
<path fill="none" stroke="midnightblue" d="M1146.41,-141.13C1127.49,-144.05 1107,-146.93 1088,-149 1013.68,-157.1 929.14,-162.23 866.22,-165.27"/>
<polygon fill="midnightblue" stroke="midnightblue" points="1147.11,-144.56 1156.45,-139.55 1146.03,-137.64 1147.11,-144.56"/>
</g>
<!-- Node5 -->
<g id="node5" class="node">
<title>Node5</title>
<g id="a_node5"><a xlink:href="class_user_controller.html#a6230816eec4c8be9bda248a166d7b9bd" target="_top" xlink:title="Makes suggestion">
<polygon fill="white" stroke="black" points="903.5,-118.5 903.5,-139.5 1086.5,-139.5 1086.5,-118.5 903.5,-118.5"/>
<text text-anchor="middle" x="995" y="-125.9" font-family="Helvetica,sans-Serif" font-size="12.00">UserController.MakeSuggestion</text>
</a>
</g>
</g>
<!-- Node3&#45;&gt;Node5 -->
<g id="edge4" class="edge">
<title>Node3&#45;&gt;Node5</title>
<path fill="none" stroke="midnightblue" d="M1113.7,-129C1104.62,-129 1095.47,-129 1086.5,-129"/>
<polygon fill="midnightblue" stroke="midnightblue" points="1113.92,-132.5 1123.92,-129 1113.92,-125.5 1113.92,-132.5"/>
</g>
<!-- Node5&#45;&gt;Node4 -->
<g id="edge9" class="edge">
<title>Node5&#45;&gt;Node4</title>
<path fill="none" stroke="midnightblue" d="M925.54,-141.33C895.06,-146.83 859.52,-153.23 830.32,-158.49"/>
<polygon fill="midnightblue" stroke="midnightblue" points="926.45,-144.73 935.67,-139.51 925.21,-137.84 926.45,-144.73"/>
</g>
<!-- Node6 -->
<g id="node6" class="node">
<title>Node6</title>
<g id="a_node6"><a xlink:href="class_u_i_handler.html#ae6960c4c231f0e85718af2150449bb1f" target="_top" xlink:title="Hides the suggestion panel">
<polygon fill="white" stroke="black" points="685.5,-118.5 685.5,-139.5 856.5,-139.5 856.5,-118.5 685.5,-118.5"/>
<text text-anchor="middle" x="771" y="-125.9" font-family="Helvetica,sans-Serif" font-size="12.00">UIHandler.ConfirmSuggestion</text>
</a>
</g>
</g>
<!-- Node5&#45;&gt;Node6 -->
<g id="edge5" class="edge">
<title>Node5&#45;&gt;Node6</title>
<path fill="none" stroke="midnightblue" d="M893.17,-129C880.95,-129 868.56,-129 856.6,-129"/>
<polygon fill="midnightblue" stroke="midnightblue" points="893.38,-132.5 903.38,-129 893.38,-125.5 893.38,-132.5"/>
</g>
<!-- Node7 -->
<g id="node7" class="node">
<title>Node7</title>
<g id="a_node7"><a xlink:href="class_a_i_controller_script.html#affdf86fa313c46463a9a5a2b20020a17" target="_top" xlink:title="Decides what the AI should suggest this should match the flow chart of the AI">
<polygon fill="white" stroke="black" points="425,-80.5 425,-101.5 640,-101.5 640,-80.5 425,-80.5"/>
<text text-anchor="middle" x="532.5" y="-87.9" font-family="Helvetica,sans-Serif" font-size="12.00">AIControllerScript.Decide_Suggestion</text>
</a>
</g>
</g>
<!-- Node5&#45;&gt;Node7 -->
<g id="edge6" class="edge">
<title>Node5&#45;&gt;Node7</title>
<path fill="none" stroke="midnightblue" d="M924.82,-116.88C905.81,-113.91 885.15,-111.01 866,-109 790.68,-101.1 705.38,-96.57 640.03,-94.03"/>
<polygon fill="midnightblue" stroke="midnightblue" points="924.47,-120.37 934.9,-118.49 925.57,-113.46 924.47,-120.37"/>
</g>
<!-- Node8 -->
<g id="node8" class="node">
<title>Node8</title>
<g id="a_node8"><a xlink:href="class_a_i_controller_script.html#ac31d9b8dbb75696b181eff1fbef41b97" target="_top" xlink:title="dictates what the AI will do depending on what mode it is in">
<polygon fill="white" stroke="black" points="215,-60.5 215,-81.5 389,-81.5 389,-60.5 215,-60.5"/>
<text text-anchor="middle" x="302" y="-67.9" font-family="Helvetica,sans-Serif" font-size="12.00">AIControllerScript.AIBehaviour</text>
</a>
</g>
</g>
<!-- Node7&#45;&gt;Node8 -->
<g id="edge7" class="edge">
<title>Node7&#45;&gt;Node8</title>
<path fill="none" stroke="midnightblue" d="M414.82,-80.79C406.19,-80.03 397.58,-79.28 389.18,-78.54"/>
<polygon fill="midnightblue" stroke="midnightblue" points="414.68,-84.29 424.94,-81.67 415.29,-77.31 414.68,-84.29"/>
</g>
<!-- Node9 -->
<g id="node9" class="node">
<title>Node9</title>
<g id="a_node9"><a xlink:href="class_a_i_controller_script.html#a74dc0e720fafceb873d3b19c12f68d58" target="_top" xlink:title=" ">
<polygon fill="white" stroke="black" points="0,-60.5 0,-81.5 179,-81.5 179,-60.5 0,-60.5"/>
<text text-anchor="middle" x="89.5" y="-67.9" font-family="Helvetica,sans-Serif" font-size="12.00">AIControllerScript.FixedUpdate</text>
</a>
</g>
</g>
<!-- Node8&#45;&gt;Node9 -->
<g id="edge8" class="edge">
<title>Node8&#45;&gt;Node9</title>
<path fill="none" stroke="midnightblue" d="M204.57,-71C196.15,-71 187.67,-71 179.32,-71"/>
<polygon fill="midnightblue" stroke="midnightblue" points="204.77,-74.5 214.77,-71 204.77,-67.5 204.77,-74.5"/>
</g>
<!-- Node11 -->
<g id="node11" class="node">
<title>Node11</title>
<g id="a_node11"><a xlink:href="class_round_manager.html#acf644ae21a6f9ebc2a476fc8603e18fc" target="_top" xlink:title="Method for starting the turn">
<polygon fill="white" stroke="black" points="1144.5,-40.5 1144.5,-61.5 1291.5,-61.5 1291.5,-40.5 1144.5,-40.5"/>
<text text-anchor="middle" x="1218" y="-47.9" font-family="Helvetica,sans-Serif" font-size="12.00">RoundManager.StartTurn</text>
</a>
</g>
</g>
<!-- Node10&#45;&gt;Node11 -->
<g id="edge11" class="edge">
<title>Node10&#45;&gt;Node11</title>
<path fill="none" stroke="midnightblue" d="M1357.8,-57.41C1336.26,-56.42 1312.97,-55.34 1291.73,-54.36"/>
<polygon fill="midnightblue" stroke="midnightblue" points="1357.74,-60.91 1367.89,-57.88 1358.06,-53.92 1357.74,-60.91"/>
</g>
<!-- Node12 -->
<g id="node12" class="node">
<title>Node12</title>
<g id="a_node12"><a xlink:href="class_round_manager.html#a29177f2e27c6c4af55dfa3c48d67cfb0" target="_top" xlink:title="Ending the turn. Returns the next player">
<polygon fill="white" stroke="black" points="923.5,-40.5 923.5,-61.5 1066.5,-61.5 1066.5,-40.5 923.5,-40.5"/>
<text text-anchor="middle" x="995" y="-47.9" font-family="Helvetica,sans-Serif" font-size="12.00">RoundManager.EndTurn</text>
</a>
</g>
</g>
<!-- Node11&#45;&gt;Node12 -->
<g id="edge12" class="edge">
<title>Node11&#45;&gt;Node12</title>
<path fill="none" stroke="midnightblue" d="M1134.26,-51C1112.08,-51 1088.31,-51 1066.83,-51"/>
<polygon fill="midnightblue" stroke="midnightblue" points="1134.33,-54.5 1144.33,-51 1134.33,-47.5 1134.33,-54.5"/>
</g>
<!-- Node16 -->
<g id="node16" class="node">
<title>Node16</title>
<g id="a_node16"><a xlink:href="class_game_manager_script.html#a12cbaf1ff00804887619c07c7267cf31" target="_top" xlink:title="starting and initialing the game and it&#39;s components">
<polygon fill="white" stroke="black" points="902,-0.5 902,-21.5 1088,-21.5 1088,-0.5 902,-0.5"/>
<text text-anchor="middle" x="995" y="-7.9" font-family="Helvetica,sans-Serif" font-size="12.00">GameManagerScript.StartGame</text>
</a>
</g>
</g>
<!-- Node11&#45;&gt;Node16 -->
<g id="edge17" class="edge">
<title>Node11&#45;&gt;Node16</title>
<path fill="none" stroke="midnightblue" d="M1148.85,-38.67C1118.5,-33.17 1083.13,-26.77 1054.06,-21.51"/>
<polygon fill="midnightblue" stroke="midnightblue" points="1148.47,-42.15 1158.93,-40.49 1149.72,-35.27 1148.47,-42.15"/>
</g>
<!-- Node13 -->
<g id="node13" class="node">
<title>Node13</title>
<g id="a_node13"><a xlink:href="class_user_controller.html#ab90611f541e20c125133d09b62407f41" target="_top" xlink:title="Ends turn">
<polygon fill="white" stroke="black" points="702,-40.5 702,-61.5 840,-61.5 840,-40.5 702,-40.5"/>
<text text-anchor="middle" x="771" y="-47.9" font-family="Helvetica,sans-Serif" font-size="12.00">UserController.EndTurn</text>
</a>
</g>
</g>
<!-- Node12&#45;&gt;Node13 -->
<g id="edge13" class="edge">
<title>Node12&#45;&gt;Node13</title>
<path fill="none" stroke="midnightblue" d="M913.3,-51C889.28,-51 863.22,-51 840.09,-51"/>
<polygon fill="midnightblue" stroke="midnightblue" points="913.45,-54.5 923.45,-51 913.45,-47.5 913.45,-54.5"/>
</g>
<!-- Node14 -->
<g id="node14" class="node">
<title>Node14</title>
<g id="a_node14"><a xlink:href="class_a_i_controller_script.html#a9c386cf1258ad897c9a1068804f07ba0" target="_top" xlink:title="have AI to end turn">
<polygon fill="white" stroke="black" points="455,-40.5 455,-61.5 610,-61.5 610,-40.5 455,-40.5"/>
<text text-anchor="middle" x="532.5" y="-47.9" font-family="Helvetica,sans-Serif" font-size="12.00">AIControllerScript.EndTurn</text>
</a>
</g>
</g>
<!-- Node13&#45;&gt;Node14 -->
<g id="edge14" class="edge">
<title>Node13&#45;&gt;Node14</title>
<path fill="none" stroke="midnightblue" d="M691.65,-51C665.46,-51 636.31,-51 610.25,-51"/>
<polygon fill="midnightblue" stroke="midnightblue" points="691.91,-54.5 701.91,-51 691.91,-47.5 691.91,-54.5"/>
</g>
<!-- Node15 -->
<g id="node15" class="node">
<title>Node15</title>
<g id="a_node15"><a xlink:href="class_u_i_handler.html#acc06a1dab8566d9e14f7ab3ae1ffea93" target="_top" xlink:title="Ends current player&#39;s turn">
<polygon fill="white" stroke="black" points="475.5,-0.5 475.5,-21.5 589.5,-21.5 589.5,-0.5 475.5,-0.5"/>
<text text-anchor="middle" x="532.5" y="-7.9" font-family="Helvetica,sans-Serif" font-size="12.00">UIHandler.EndTurn</text>
</a>
</g>
</g>
<!-- Node13&#45;&gt;Node15 -->
<g id="edge16" class="edge">
<title>Node13&#45;&gt;Node15</title>
<path fill="none" stroke="midnightblue" d="M697.76,-38.78C662.99,-32.9 621.94,-25.96 589.57,-20.48"/>
<polygon fill="midnightblue" stroke="midnightblue" points="697.42,-42.27 707.86,-40.49 698.59,-35.37 697.42,-42.27"/>
</g>
<!-- Node14&#45;&gt;Node8 -->
<g id="edge15" class="edge">
<title>Node14&#45;&gt;Node8</title>
<path fill="none" stroke="midnightblue" d="M444.8,-58.59C426.65,-60.18 407.51,-61.85 389.36,-63.44"/>
<polygon fill="midnightblue" stroke="midnightblue" points="445.12,-62.07 454.78,-57.72 444.51,-55.1 445.12,-62.07"/>
</g>
<!-- Node17 -->
<g id="node17" class="node">
<title>Node17</title>
<g id="a_node17"><a xlink:href="class_suggestion_test.html#a904e4481863c3e620574eba37c993a26" target="_top" xlink:title=" ">
<polygon fill="white" stroke="black" points="708,-0.5 708,-21.5 834,-21.5 834,-0.5 708,-0.5"/>
<text text-anchor="middle" x="771" y="-7.9" font-family="Helvetica,sans-Serif" font-size="12.00">SuggestionTest.Start</text>
</a>
</g>
</g>
<!-- Node16&#45;&gt;Node17 -->
<g id="edge18" class="edge">
<title>Node16&#45;&gt;Node17</title>
<path fill="none" stroke="midnightblue" d="M891.59,-11C872.01,-11 852.08,-11 834.24,-11"/>
<polygon fill="midnightblue" stroke="midnightblue" points="891.78,-14.5 901.78,-11 891.78,-7.5 891.78,-14.5"/>
</g>
</g>
</svg>
