<?xml version="1.0" encoding="UTF-8" standalone="no"?>
<!DOCTYPE svg PUBLIC "-//W3C//DTD SVG 1.1//EN"
 "http://www.w3.org/Graphics/SVG/1.1/DTD/svg11.dtd">
<!-- Generated by graphviz version 2.47.1 (20210417.1919)
 -->
<!-- Title: UIHandler.EndTurn Pages: 1 -->
<!--zoomable 662 -->
<svg id="main" version="1.1" xmlns="http://www.w3.org/2000/svg" xmlns:xlink="http://www.w3.org/1999/xlink" xml:space="preserve" onload="init(evt)">
<style type="text/css"><![CDATA[
.edge:hover path { stroke: red; }
.edge:hover polygon { stroke: red; fill: red; }
]]></style>
<script type="text/javascript"><![CDATA[
var edges = document.getElementsByTagName('g');
if (edges && edges.length) {
  for (var i=0;i<edges.length;i++) {
    if (edges[i].id.substr(0,4)=='edge') {
      edges[i].setAttribute('class','edge');
    }
  }
}
]]></script>
        <defs>
                <circle id="rim" cx="0" cy="0" r="7"/>
                <circle id="rim2" cx="0" cy="0" r="3.5"/>
                <g id="zoomPlus">
                        <use xlink:href="#rim" fill="#404040">
                                <set attributeName="fill" to="#808080" begin="zoomplus.mouseover" end="zoomplus.mouseout"/>
                        </use>
                        <path d="M-4,0h8M0,-4v8" fill="none" stroke="white" stroke-width="1.5" pointer-events="none"/>
                </g>
                <g id="zoomMin">
                        <use xlink:href="#rim" fill="#404040">
                                <set attributeName="fill" to="#808080" begin="zoomminus.mouseover" end="zoomminus.mouseout"/>
                        </use>
                        <path d="M-4,0h8" fill="none" stroke="white" stroke-width="1.5" pointer-events="none"/>
                </g>
                <g id="dirArrow">
                        <path fill="none" stroke="white" stroke-width="1.5" d="M0,-3.0v7 M-2.5,-0.5L0,-3.0L2.5,-0.5"/>
                </g>
               <g id="resetDef">
                       <use xlink:href="#rim2" fill="#404040">
                               <set attributeName="fill" to="#808080" begin="reset.mouseover" end="reset.mouseout"/>
                       </use>
               </g>
        </defs>

<script type="text/javascript">
var viewWidth = 1934;
var viewHeight = 662;
var sectionId = 'dynsection-17';
</script>
<script xlink:href="svgpan.js"/>
<svg id="graph" class="graph">
<g id="viewport">
<title>UIHandler.EndTurn</title>
<polygon fill="white" stroke="transparent" points="-4,4 -4,-658 1930,-658 1930,4 -4,4"/>
<!-- Node1 -->
<g id="node1" class="node">
<title>Node1</title>
<g id="a_node1"><a xlink:title="Ends current player&#39;s turn">
<polygon fill="#bfbfbf" stroke="black" points="0,-388.5 0,-409.5 114,-409.5 114,-388.5 0,-388.5"/>
<text text-anchor="middle" x="57" y="-395.9" font-family="Helvetica,sans-Serif" font-size="12.00">UIHandler.EndTurn</text>
</a>
</g>
</g>
<!-- Node2 -->
<g id="node2" class="node">
<title>Node2</title>
<g id="a_node2"><a xlink:href="class_u_i_handler.html#abe1710aca2abe4dbb489f0c49a3af879" target="_top" xlink:title="To display the View Blocker can include the name of the player that needs it&#39;s attention">
<polygon fill="white" stroke="black" points="761.5,-570.5 761.5,-591.5 937.5,-591.5 937.5,-570.5 761.5,-570.5"/>
<text text-anchor="middle" x="849.5" y="-577.9" font-family="Helvetica,sans-Serif" font-size="12.00">UIHandler.DisplayViewBlocker</text>
</a>
</g>
</g>
<!-- Node1&#45;&gt;Node2 -->
<g id="edge1" class="edge">
<title>Node1&#45;&gt;Node2</title>
<path fill="none" stroke="midnightblue" d="M102.52,-409.52C213.14,-435.62 509.39,-505.25 757,-561 767.57,-563.38 778.83,-565.87 789.71,-568.26"/>
<polygon fill="midnightblue" stroke="midnightblue" points="789.05,-571.7 799.56,-570.42 790.54,-564.86 789.05,-571.7"/>
</g>
<!-- Node3 -->
<g id="node3" class="node">
<title>Node3</title>
<g id="a_node3"><a xlink:href="class_user_controller.html#ab90611f541e20c125133d09b62407f41" target="_top" xlink:title="Ends turn">
<polygon fill="white" stroke="black" points="150,-369.5 150,-390.5 288,-390.5 288,-369.5 150,-369.5"/>
<text text-anchor="middle" x="219" y="-376.9" font-family="Helvetica,sans-Serif" font-size="12.00">UserController.EndTurn</text>
</a>
</g>
</g>
<!-- Node1&#45;&gt;Node3 -->
<g id="edge2" class="edge">
<title>Node1&#45;&gt;Node3</title>
<path fill="none" stroke="midnightblue" d="M114.41,-392.3C122.62,-391.33 131.2,-390.31 139.75,-389.29"/>
<polygon fill="midnightblue" stroke="midnightblue" points="140.23,-392.76 149.75,-388.1 139.41,-385.81 140.23,-392.76"/>
</g>
<!-- Node4 -->
<g id="node4" class="node">
<title>Node4</title>
<g id="a_node4"><a xlink:href="class_round_manager.html#a29177f2e27c6c4af55dfa3c48d67cfb0" target="_top" xlink:title="Ending the turn. Returns the next player">
<polygon fill="white" stroke="black" points="324,-178.5 324,-199.5 467,-199.5 467,-178.5 324,-178.5"/>
<text text-anchor="middle" x="395.5" y="-185.9" font-family="Helvetica,sans-Serif" font-size="12.00">RoundManager.EndTurn</text>
</a>
</g>
</g>
<!-- Node3&#45;&gt;Node4 -->
<g id="edge3" class="edge">
<title>Node3&#45;&gt;Node4</title>
<path fill="none" stroke="midnightblue" d="M229.63,-369.46C258.05,-338.36 341.8,-246.69 377.77,-207.31"/>
<polygon fill="midnightblue" stroke="midnightblue" points="380.52,-209.49 384.68,-199.74 375.36,-204.77 380.52,-209.49"/>
</g>
<!-- Node5 -->
<g id="node5" class="node">
<title>Node5</title>
<g id="a_node5"><a xlink:href="class_camera_close_up.html#ad31062bdf359a453fc85ebdd71fa1bae" target="_top" xlink:title="Clear camera close up">
<polygon fill="white" stroke="black" points="758.5,-80.5 758.5,-101.5 940.5,-101.5 940.5,-80.5 758.5,-80.5"/>
<text text-anchor="middle" x="849.5" y="-87.9" font-family="Helvetica,sans-Serif" font-size="12.00">CameraCloseUp.ClearCloseUp</text>
</a>
</g>
</g>
<!-- Node4&#45;&gt;Node5 -->
<g id="edge4" class="edge">
<title>Node4&#45;&gt;Node5</title>
<path fill="none" stroke="midnightblue" d="M445.3,-178.42C529.05,-160.26 699.79,-123.24 789.86,-103.71"/>
<polygon fill="midnightblue" stroke="midnightblue" points="790.87,-107.08 799.9,-101.54 789.39,-100.24 790.87,-107.08"/>
</g>
<!-- Node7 -->
<g id="node7" class="node">
<title>Node7</title>
<g id="a_node7"><a xlink:href="class_round_manager.html#aab3f49a5e05508a8e023a497e763c1c8" target="_top" xlink:title="Gets the player controller for the current player">
<polygon fill="white" stroke="black" points="1261,-217.5 1261,-238.5 1451,-238.5 1451,-217.5 1261,-217.5"/>
<text text-anchor="middle" x="1356" y="-224.9" font-family="Helvetica,sans-Serif" font-size="12.00">RoundManager.GetCurrentPlayer</text>
</a>
</g>
</g>
<!-- Node4&#45;&gt;Node7 -->
<g id="edge6" class="edge">
<title>Node4&#45;&gt;Node7</title>
<path fill="none" stroke="midnightblue" d="M467.37,-191.88C634.56,-198.69 1054.24,-215.76 1250.62,-223.75"/>
<polygon fill="midnightblue" stroke="midnightblue" points="1250.52,-227.25 1260.66,-224.16 1250.81,-220.26 1250.52,-227.25"/>
</g>
<!-- Node9 -->
<g id="node9" class="node">
<title>Node9</title>
<g id="a_node9"><a xlink:href="class_dice.html#ade1dc529eeb31f31e668c595c5748e67" target="_top" xlink:title="Reset the dice">
<polygon fill="white" stroke="black" points="562,-80.5 562,-101.5 662,-101.5 662,-80.5 562,-80.5"/>
<text text-anchor="middle" x="612" y="-87.9" font-family="Helvetica,sans-Serif" font-size="12.00">Dice.ResetDice</text>
</a>
</g>
</g>
<!-- Node4&#45;&gt;Node9 -->
<g id="edge8" class="edge">
<title>Node4&#45;&gt;Node9</title>
<path fill="none" stroke="midnightblue" d="M416.72,-178.43C438,-167.43 472.56,-149.89 503,-136 526.61,-125.22 553.55,-113.99 574.62,-105.45"/>
<polygon fill="midnightblue" stroke="midnightblue" points="576.19,-108.59 584.15,-101.6 573.57,-102.1 576.19,-108.59"/>
</g>
<!-- Node13 -->
<g id="node13" class="node">
<title>Node13</title>
<g id="a_node13"><a xlink:href="class_turn_controller.html#ade13993ccd7681d71cec356829df0f18" target="_top" xlink:title=" ">
<polygon fill="white" stroke="black" points="503,-40.5 503,-61.5 721,-61.5 721,-40.5 503,-40.5"/>
<text text-anchor="middle" x="612" y="-47.9" font-family="Helvetica,sans-Serif" font-size="12.00">TurnController.SetCurrentPlayerToNext</text>
</a>
</g>
</g>
<!-- Node4&#45;&gt;Node13 -->
<g id="edge13" class="edge">
<title>Node4&#45;&gt;Node13</title>
<path fill="none" stroke="midnightblue" d="M402.64,-178.4C416.92,-154.81 454.83,-97.94 503,-71 506.95,-68.79 511.09,-66.83 515.35,-65.07"/>
<polygon fill="midnightblue" stroke="midnightblue" points="516.7,-68.3 524.86,-61.55 514.27,-61.74 516.7,-68.3"/>
</g>
<!-- Node14 -->
<g id="node14" class="node">
<title>Node14</title>
<g id="a_node14"><a xlink:href="class_round_manager.html#acf644ae21a6f9ebc2a476fc8603e18fc" target="_top" xlink:title="Method for starting the turn">
<polygon fill="white" stroke="black" points="538.5,-382.5 538.5,-403.5 685.5,-403.5 685.5,-382.5 538.5,-382.5"/>
<text text-anchor="middle" x="612" y="-389.9" font-family="Helvetica,sans-Serif" font-size="12.00">RoundManager.StartTurn</text>
</a>
</g>
</g>
<!-- Node4&#45;&gt;Node14 -->
<g id="edge14" class="edge">
<title>Node4&#45;&gt;Node14</title>
<path fill="none" stroke="midnightblue" d="M407.73,-199.68C442.63,-232.87 549.41,-334.42 592.59,-375.49"/>
<polygon fill="midnightblue" stroke="midnightblue" points="590.22,-378.07 599.88,-382.43 595.05,-373 590.22,-378.07"/>
</g>
<!-- Node6 -->
<g id="node6" class="node">
<title>Node6</title>
<g id="a_node6"><a xlink:href="class_camera_close_up.html#ae902d2ccdf969212e0cb84f638f68851" target="_top" xlink:title="Delay then clear close up">
<polygon fill="white" stroke="black" points="978,-80.5 978,-101.5 1190,-101.5 1190,-80.5 978,-80.5"/>
<text text-anchor="middle" x="1084" y="-87.9" font-family="Helvetica,sans-Serif" font-size="12.00">CameraCloseUp.ClearCloseUpDelay</text>
</a>
</g>
</g>
<!-- Node5&#45;&gt;Node6 -->
<g id="edge5" class="edge">
<title>Node5&#45;&gt;Node6</title>
<path fill="none" stroke="midnightblue" d="M940.72,-91C949.53,-91 958.55,-91 967.57,-91"/>
<polygon fill="midnightblue" stroke="midnightblue" points="967.73,-94.5 977.73,-91 967.73,-87.5 967.73,-94.5"/>
</g>
<!-- Node8 -->
<g id="node8" class="node">
<title>Node8</title>
<g id="a_node8"><a xlink:href="class_turn_controller.html#af16e42b7e61c5a999291327e2e556caa" target="_top" xlink:title=" ">
<polygon fill="white" stroke="black" points="1525,-188.5 1525,-209.5 1707,-209.5 1707,-188.5 1525,-188.5"/>
<text text-anchor="middle" x="1616" y="-195.9" font-family="Helvetica,sans-Serif" font-size="12.00">TurnController.GetCurrentPlayer</text>
</a>
</g>
</g>
<!-- Node7&#45;&gt;Node8 -->
<g id="edge7" class="edge">
<title>Node7&#45;&gt;Node8</title>
<path fill="none" stroke="midnightblue" d="M1450.51,-217.49C1471.42,-215.14 1493.69,-212.64 1514.86,-210.26"/>
<polygon fill="midnightblue" stroke="midnightblue" points="1515.28,-213.73 1524.83,-209.14 1514.5,-206.77 1515.28,-213.73"/>
</g>
<!-- Node9&#45;&gt;Node5 -->
<g id="edge11" class="edge">
<title>Node9&#45;&gt;Node5</title>
<path fill="none" stroke="midnightblue" d="M662.08,-91C687.03,-91 718.3,-91 748.06,-91"/>
<polygon fill="midnightblue" stroke="midnightblue" points="748.09,-94.5 758.09,-91 748.09,-87.5 748.09,-94.5"/>
</g>
<!-- Node10 -->
<g id="node10" class="node">
<title>Node10</title>
<g id="a_node10"><a xlink:href="class_dice.html#ace4c995eb73b784d1076fde140ce85af" target="_top" xlink:title="Can Dice be reset">
<polygon fill="white" stroke="black" points="801,-0.5 801,-21.5 898,-21.5 898,-0.5 801,-0.5"/>
<text text-anchor="middle" x="849.5" y="-7.9" font-family="Helvetica,sans-Serif" font-size="12.00">Dice.CanReset</text>
</a>
</g>
</g>
<!-- Node9&#45;&gt;Node10 -->
<g id="edge9" class="edge">
<title>Node9&#45;&gt;Node10</title>
<path fill="none" stroke="midnightblue" d="M662.08,-88.69C681.41,-86.1 703.2,-80.97 721,-71 741.87,-59.31 736.32,-43.02 757,-31 767.32,-25 779.25,-20.79 791.02,-17.85"/>
<polygon fill="midnightblue" stroke="midnightblue" points="791.83,-21.26 800.83,-15.66 790.3,-14.42 791.83,-21.26"/>
</g>
<!-- Node12 -->
<g id="node12" class="node">
<title>Node12</title>
<g id="a_node12"><a xlink:href="class_die.html#abc11c3d2bf0c0fba1555093eb5a8469e" target="_top" xlink:title="Reset Die to original position">
<polygon fill="white" stroke="black" points="805.5,-40.5 805.5,-61.5 893.5,-61.5 893.5,-40.5 805.5,-40.5"/>
<text text-anchor="middle" x="849.5" y="-47.9" font-family="Helvetica,sans-Serif" font-size="12.00">Die.ResetDie</text>
</a>
</g>
</g>
<!-- Node9&#45;&gt;Node12 -->
<g id="edge12" class="edge">
<title>Node9&#45;&gt;Node12</title>
<path fill="none" stroke="midnightblue" d="M662.08,-82.66C701.02,-76.05 755.36,-66.82 795.32,-60.03"/>
<polygon fill="midnightblue" stroke="midnightblue" points="796.14,-63.44 805.42,-58.32 794.97,-56.54 796.14,-63.44"/>
</g>
<!-- Node11 -->
<g id="node11" class="node">
<title>Node11</title>
<g id="a_node11"><a xlink:href="class_die.html#a390d46459637fd249926cda472255d84" target="_top" xlink:title="Can the die be reset">
<polygon fill="white" stroke="black" points="1029,-0.5 1029,-21.5 1139,-21.5 1139,-0.5 1029,-0.5"/>
<text text-anchor="middle" x="1084" y="-7.9" font-family="Helvetica,sans-Serif" font-size="12.00">Die.CanResetDie</text>
</a>
</g>
</g>
<!-- Node10&#45;&gt;Node11 -->
<g id="edge10" class="edge">
<title>Node10&#45;&gt;Node11</title>
<path fill="none" stroke="midnightblue" d="M898.11,-11C932.99,-11 980.71,-11 1018.94,-11"/>
<polygon fill="midnightblue" stroke="midnightblue" points="1018.94,-14.5 1028.94,-11 1018.94,-7.5 1018.94,-14.5"/>
</g>
<!-- Node14&#45;&gt;Node2 -->
<g id="edge21" class="edge">
<title>Node14&#45;&gt;Node2</title>
<path fill="none" stroke="midnightblue" d="M627.42,-403.55C649.64,-420.36 692.65,-455.08 721,-492 742.07,-519.43 729.52,-540 757,-561 759.22,-562.7 761.56,-564.26 763.99,-565.7"/>
<polygon fill="midnightblue" stroke="midnightblue" points="762.63,-568.93 773.13,-570.35 765.81,-562.69 762.63,-568.93"/>
</g>
<!-- Node14&#45;&gt;Node7 -->
<g id="edge22" class="edge">
<title>Node14&#45;&gt;Node7</title>
<path fill="none" stroke="midnightblue" d="M636.76,-382.41C694.12,-357.36 845.22,-294.35 978,-265 1068.8,-244.93 1174.31,-235.74 1250.58,-231.54"/>
<polygon fill="midnightblue" stroke="midnightblue" points="1250.87,-235.03 1260.68,-231 1250.5,-228.04 1250.87,-235.03"/>
</g>
<!-- Node14&#45;&gt;Node8 -->
<g id="edge23" class="edge">
<title>Node14&#45;&gt;Node8</title>
<path fill="none" stroke="midnightblue" d="M621.78,-382.2C642.46,-357.59 697.02,-297.28 757,-269 1017.75,-146.05 1372.67,-168.64 1531.82,-187.25"/>
<polygon fill="midnightblue" stroke="midnightblue" points="1531.67,-190.76 1542.01,-188.47 1532.5,-183.81 1531.67,-190.76"/>
</g>
<!-- Node15 -->
<g id="node15" class="node">
<title>Node15</title>
<g id="a_node15"><a xlink:href="class_board_manager.html#a653d38723d03f890d38a1b68a855c569" target="_top" xlink:title="Clear all movable tiles">
<polygon fill="white" stroke="black" points="764,-120.5 764,-141.5 935,-141.5 935,-120.5 764,-120.5"/>
<text text-anchor="middle" x="849.5" y="-127.9" font-family="Helvetica,sans-Serif" font-size="12.00">BoardManager.ClearMovable</text>
</a>
</g>
</g>
<!-- Node14&#45;&gt;Node15 -->
<g id="edge15" class="edge">
<title>Node14&#45;&gt;Node15</title>
<path fill="none" stroke="midnightblue" d="M616.28,-382.29C628.32,-344.86 673.75,-218.73 757,-156 762.57,-151.81 768.79,-148.31 775.31,-145.41"/>
<polygon fill="midnightblue" stroke="midnightblue" points="777.02,-148.5 785.02,-141.56 774.44,-141.99 777.02,-148.5"/>
</g>
<!-- Node19 -->
<g id="node19" class="node">
<title>Node19</title>
<g id="a_node19"><a xlink:href="class_u_i_handler.html#affac6b69bae9622fe2d5ef41990456aa" target="_top" xlink:title="Display the list of cards">
<polygon fill="white" stroke="black" points="781,-530.5 781,-551.5 918,-551.5 918,-530.5 781,-530.5"/>
<text text-anchor="middle" x="849.5" y="-537.9" font-family="Helvetica,sans-Serif" font-size="12.00">UIHandler.DisplayDeck</text>
</a>
</g>
</g>
<!-- Node14&#45;&gt;Node19 -->
<g id="edge19" class="edge">
<title>Node14&#45;&gt;Node19</title>
<path fill="none" stroke="midnightblue" d="M624.52,-403.53C657.29,-433.44 749.18,-517.02 757,-521 761.59,-523.34 766.45,-525.4 771.43,-527.23"/>
<polygon fill="midnightblue" stroke="midnightblue" points="770.55,-530.62 781.15,-530.45 772.76,-523.98 770.55,-530.62"/>
</g>
<!-- Node21 -->
<g id="node21" class="node">
<title>Node21</title>
<g id="a_node21"><a xlink:href="class_player_master_controller.html#a0a7dd34344c455ef5a0d84c2f7c4a4d6" target="_top" xlink:title=" ">
<polygon fill="white" stroke="black" points="757,-490.5 757,-511.5 942,-511.5 942,-490.5 757,-490.5"/>
<text text-anchor="middle" x="849.5" y="-497.9" font-family="Helvetica,sans-Serif" font-size="12.00">PlayerMasterController.GetDeck</text>
</a>
</g>
</g>
<!-- Node14&#45;&gt;Node21 -->
<g id="edge24" class="edge">
<title>Node14&#45;&gt;Node21</title>
<path fill="none" stroke="midnightblue" d="M628.3,-403.59C653.89,-420.9 707.46,-455.36 757,-476 767.7,-480.46 779.43,-484.35 790.82,-487.66"/>
<polygon fill="midnightblue" stroke="midnightblue" points="790.13,-491.1 800.7,-490.41 792.01,-484.36 790.13,-491.1"/>
</g>
<!-- Node22 -->
<g id="node22" class="node">
<title>Node22</title>
<g id="a_node22"><a xlink:href="class_enum_to_string.html#a078a1fb16a0030544fac1b96a90b6b83" target="_top" xlink:title="Get a string value from a valid enum">
<polygon fill="white" stroke="black" points="983.5,-592.5 983.5,-613.5 1184.5,-613.5 1184.5,-592.5 983.5,-592.5"/>
<text text-anchor="middle" x="1084" y="-599.9" font-family="Helvetica,sans-Serif" font-size="12.00">EnumToString.GetStringFromEnum</text>
</a>
</g>
</g>
<!-- Node14&#45;&gt;Node22 -->
<g id="edge25" class="edge">
<title>Node14&#45;&gt;Node22</title>
<path fill="none" stroke="midnightblue" d="M640,-403.57C668.69,-414.52 715.54,-431.6 757,-443 837.93,-465.26 878.73,-425.84 942,-481 978.24,-512.59 941.54,-551.67 978,-583 979.77,-584.52 981.62,-585.94 983.54,-587.27"/>
<polygon fill="midnightblue" stroke="midnightblue" points="981.97,-590.41 992.36,-592.5 985.54,-584.39 981.97,-590.41"/>
</g>
<!-- Node23 -->
<g id="node23" class="node">
<title>Node23</title>
<g id="a_node23"><a xlink:href="class_u_i_handler.html#ac072319b13f11e5ac215a0ed6ab11aa9" target="_top" xlink:title="Resets UI for the next player">
<polygon fill="white" stroke="black" points="782,-412.5 782,-433.5 917,-433.5 917,-412.5 782,-412.5"/>
<text text-anchor="middle" x="849.5" y="-419.9" font-family="Helvetica,sans-Serif" font-size="12.00">UIHandler.InitialiseTurn</text>
</a>
</g>
</g>
<!-- Node14&#45;&gt;Node23 -->
<g id="edge26" class="edge">
<title>Node14&#45;&gt;Node23</title>
<path fill="none" stroke="midnightblue" d="M685.58,-402.25C712.9,-405.73 744.05,-409.69 771.74,-413.22"/>
<polygon fill="midnightblue" stroke="midnightblue" points="771.41,-416.71 781.77,-414.5 772.3,-409.76 771.41,-416.71"/>
</g>
<!-- Node29 -->
<g id="node29" class="node">
<title>Node29</title>
<g id="a_node29"><a xlink:href="class_a_i_controller_script.html#a606c498cbb805d816c1b06f94631a960" target="_top" xlink:title="to activate the AI or not set which player the AI is controlling">
<polygon fill="white" stroke="black" points="769,-353.5 769,-374.5 930,-374.5 930,-353.5 769,-353.5"/>
<text text-anchor="middle" x="849.5" y="-360.9" font-family="Helvetica,sans-Serif" font-size="12.00">AIControllerScript.SetActive</text>
</a>
</g>
</g>
<!-- Node14&#45;&gt;Node29 -->
<g id="edge34" class="edge">
<title>Node14&#45;&gt;Node29</title>
<path fill="none" stroke="midnightblue" d="M685.58,-384.06C708.64,-381.22 734.42,-378.05 758.55,-375.08"/>
<polygon fill="midnightblue" stroke="midnightblue" points="759.28,-378.51 768.78,-373.82 758.43,-371.57 759.28,-378.51"/>
</g>
<!-- Node16 -->
<g id="node16" class="node">
<title>Node16</title>
<g id="a_node16"><a xlink:href="class_board_tile_script.html#a3ff1d3c491fe4d7e421a624ac0b5be6f" target="_top" xlink:title="setting the glow on the tile">
<polygon fill="white" stroke="black" points="1011,-120.5 1011,-141.5 1157,-141.5 1157,-120.5 1011,-120.5"/>
<text text-anchor="middle" x="1084" y="-127.9" font-family="Helvetica,sans-Serif" font-size="12.00">BoardTileScript.GlowTile</text>
</a>
</g>
</g>
<!-- Node15&#45;&gt;Node16 -->
<g id="edge16" class="edge">
<title>Node15&#45;&gt;Node16</title>
<path fill="none" stroke="midnightblue" d="M935.1,-131C956.41,-131 979.26,-131 1000.46,-131"/>
<polygon fill="midnightblue" stroke="midnightblue" points="1000.73,-134.5 1010.73,-131 1000.73,-127.5 1000.73,-134.5"/>
</g>
<!-- Node17 -->
<g id="node17" class="node">
<title>Node17</title>
<g id="a_node17"><a xlink:href="class_board_tile_effect_handler_script.html#a93e813816ff40b3602de22f87a694766" target="_top" xlink:title="turn off the effect for when player can move to that tile">
<polygon fill="white" stroke="black" points="1226,-120.5 1226,-141.5 1486,-141.5 1486,-120.5 1226,-120.5"/>
<text text-anchor="middle" x="1356" y="-127.9" font-family="Helvetica,sans-Serif" font-size="12.00">BoardTileEffectHandlerScript.ToggleEffect_Off</text>
</a>
</g>
</g>
<!-- Node16&#45;&gt;Node17 -->
<g id="edge17" class="edge">
<title>Node16&#45;&gt;Node17</title>
<path fill="none" stroke="midnightblue" d="M1157,-131C1175.18,-131 1195.31,-131 1215.59,-131"/>
<polygon fill="midnightblue" stroke="midnightblue" points="1215.86,-134.5 1225.86,-131 1215.86,-127.5 1215.86,-134.5"/>
</g>
<!-- Node18 -->
<g id="node18" class="node">
<title>Node18</title>
<g id="a_node18"><a xlink:href="class_board_tile_effect_handler_script.html#a7bf5b2a819cb44463464d5c951bf3143" target="_top" xlink:title="turn on the effect for when player can move to that tile">
<polygon fill="white" stroke="black" points="1226,-80.5 1226,-101.5 1486,-101.5 1486,-80.5 1226,-80.5"/>
<text text-anchor="middle" x="1356" y="-87.9" font-family="Helvetica,sans-Serif" font-size="12.00">BoardTileEffectHandlerScript.ToggleEffect_On</text>
</a>
</g>
</g>
<!-- Node16&#45;&gt;Node18 -->
<g id="edge18" class="edge">
<title>Node16&#45;&gt;Node18</title>
<path fill="none" stroke="midnightblue" d="M1155.94,-120.49C1192.23,-115.11 1236.55,-108.55 1274.16,-102.98"/>
<polygon fill="midnightblue" stroke="midnightblue" points="1274.69,-106.44 1284.07,-101.51 1273.66,-99.51 1274.69,-106.44"/>
</g>
<!-- Node20 -->
<g id="node20" class="node">
<title>Node20</title>
<g id="a_node20"><a xlink:href="class_card_slot.html#af678d8249e4d52bb791b47d4ed75e7f3" target="_top" xlink:title="Makes the card slot visible and its game object active">
<polygon fill="white" stroke="black" points="1024,-632.5 1024,-653.5 1144,-653.5 1144,-632.5 1024,-632.5"/>
<text text-anchor="middle" x="1084" y="-639.9" font-family="Helvetica,sans-Serif" font-size="12.00">CardSlot.SetVisible</text>
</a>
</g>
</g>
<!-- Node19&#45;&gt;Node20 -->
<g id="edge20" class="edge">
<title>Node19&#45;&gt;Node20</title>
<path fill="none" stroke="midnightblue" d="M918.25,-549.04C926.73,-551.95 934.9,-555.83 942,-561 967.75,-579.77 952,-604.58 978,-623 988.62,-630.52 1001.3,-635.43 1014.11,-638.58"/>
<polygon fill="midnightblue" stroke="midnightblue" points="1013.4,-642.01 1023.91,-640.66 1014.85,-635.16 1013.4,-642.01"/>
</g>
<!-- Node23&#45;&gt;Node22 -->
<g id="edge32" class="edge">
<title>Node23&#45;&gt;Node22</title>
<path fill="none" stroke="midnightblue" d="M917.03,-432.2C926.31,-435.9 935.03,-440.99 942,-448 985.77,-492.04 932.53,-540.71 978,-583 979.48,-584.37 981.02,-585.67 982.62,-586.89"/>
<polygon fill="midnightblue" stroke="midnightblue" points="980.74,-589.84 991.03,-592.36 984.56,-583.97 980.74,-589.84"/>
</g>
<!-- Node24 -->
<g id="node24" class="node">
<title>Node24</title>
<g id="a_node24"><a xlink:href="class_u_i_handler.html#abe1c78d110b0a4374daed98df71fcff1" target="_top" xlink:title="Displays the notepad">
<polygon fill="white" stroke="black" points="1006,-552.5 1006,-573.5 1162,-573.5 1162,-552.5 1006,-552.5"/>
<text text-anchor="middle" x="1084" y="-559.9" font-family="Helvetica,sans-Serif" font-size="12.00">UIHandler.DisplayNotePad</text>
</a>
</g>
</g>
<!-- Node23&#45;&gt;Node24 -->
<g id="edge27" class="edge">
<title>Node23&#45;&gt;Node24</title>
<path fill="none" stroke="midnightblue" d="M917.35,-433.2C926.37,-436.78 934.93,-441.58 942,-448 975.42,-478.37 943.42,-513.97 978,-543 983.57,-547.68 989.89,-551.39 996.61,-554.32"/>
<polygon fill="midnightblue" stroke="midnightblue" points="995.39,-557.6 1005.98,-557.86 997.86,-551.06 995.39,-557.6"/>
</g>
<!-- Node25 -->
<g id="node25" class="node">
<title>Node25</title>
<g id="a_node25"><a xlink:href="class_u_i_handler.html#a2db6b92acd51a72b431b3eacb3884ddd" target="_top" xlink:title="Displays a screen when a player is eliminated">
<polygon fill="white" stroke="black" points="985,-512.5 985,-533.5 1183,-533.5 1183,-512.5 985,-512.5"/>
<text text-anchor="middle" x="1084" y="-519.9" font-family="Helvetica,sans-Serif" font-size="12.00">UIHandler.DisplayPlayerEliminated</text>
</a>
</g>
</g>
<!-- Node23&#45;&gt;Node25 -->
<g id="edge28" class="edge">
<title>Node23&#45;&gt;Node25</title>
<path fill="none" stroke="midnightblue" d="M913.32,-433.63C923.5,-437.14 933.48,-441.8 942,-448 965.62,-465.19 953.72,-486.75 978,-503 980.81,-504.88 983.76,-506.6 986.81,-508.16"/>
<polygon fill="midnightblue" stroke="midnightblue" points="985.66,-511.48 996.21,-512.41 988.54,-505.1 985.66,-511.48"/>
</g>
<!-- Node26 -->
<g id="node26" class="node">
<title>Node26</title>
<g id="a_node26"><a xlink:href="class_player_master_controller.html#a12c91851433777ae557a71d9f9a855f0" target="_top" xlink:title=" ">
<polygon fill="white" stroke="black" points="979.5,-392.5 979.5,-413.5 1188.5,-413.5 1188.5,-392.5 979.5,-392.5"/>
<text text-anchor="middle" x="1084" y="-399.9" font-family="Helvetica,sans-Serif" font-size="12.00">PlayerMasterController.GetCharacter</text>
</a>
</g>
</g>
<!-- Node23&#45;&gt;Node26 -->
<g id="edge29" class="edge">
<title>Node23&#45;&gt;Node26</title>
<path fill="none" stroke="midnightblue" d="M917.13,-417.27C933.39,-415.87 951.25,-414.33 969.04,-412.8"/>
<polygon fill="midnightblue" stroke="midnightblue" points="969.83,-416.25 979.49,-411.9 969.23,-409.27 969.83,-416.25"/>
</g>
<!-- Node27 -->
<g id="node27" class="node">
<title>Node27</title>
<g id="a_node27"><a xlink:href="class_user_controller.html#a587c55687141d18f375e0504ea4649fa" target="_top" xlink:title="Gets the player controller for the current player">
<polygon fill="white" stroke="black" points="991.5,-432.5 991.5,-453.5 1176.5,-453.5 1176.5,-432.5 991.5,-432.5"/>
<text text-anchor="middle" x="1084" y="-439.9" font-family="Helvetica,sans-Serif" font-size="12.00">UserController.GetCurrentPlayer</text>
</a>
</g>
</g>
<!-- Node23&#45;&gt;Node27 -->
<g id="edge30" class="edge">
<title>Node23&#45;&gt;Node27</title>
<path fill="none" stroke="midnightblue" d="M917.13,-428.73C937.05,-430.45 959.37,-432.37 981.02,-434.23"/>
<polygon fill="midnightblue" stroke="midnightblue" points="980.98,-437.74 991.24,-435.11 981.58,-430.76 980.98,-437.74"/>
</g>
<!-- Node28 -->
<g id="node28" class="node">
<title>Node28</title>
<g id="a_node28"><a xlink:href="class_u_i_handler.html#a33d33813339ed163ad4ab8708226f911" target="_top" xlink:title="Updates the current turn text">
<polygon fill="white" stroke="black" points="988.5,-472.5 988.5,-493.5 1179.5,-493.5 1179.5,-472.5 988.5,-472.5"/>
<text text-anchor="middle" x="1084" y="-479.9" font-family="Helvetica,sans-Serif" font-size="12.00">UIHandler.UpdateCurrentTurnText</text>
</a>
</g>
</g>
<!-- Node23&#45;&gt;Node28 -->
<g id="edge33" class="edge">
<title>Node23&#45;&gt;Node28</title>
<path fill="none" stroke="midnightblue" d="M893.67,-433.58C909.06,-437.67 926.42,-442.65 942,-448 958.39,-453.63 961.4,-458.02 978,-463 987.1,-465.73 996.76,-468.17 1006.4,-470.32"/>
<polygon fill="midnightblue" stroke="midnightblue" points="1005.89,-473.79 1016.4,-472.47 1007.36,-466.95 1005.89,-473.79"/>
</g>
<!-- Node27&#45;&gt;Node7 -->
<g id="edge31" class="edge">
<title>Node27&#45;&gt;Node7</title>
<path fill="none" stroke="midnightblue" d="M1176.33,-432.45C1181.24,-429.84 1185.86,-426.72 1190,-423 1230.81,-386.38 1192.19,-348.17 1226,-305 1249.12,-275.48 1286.95,-254.84 1315.68,-242.4"/>
<polygon fill="midnightblue" stroke="midnightblue" points="1317.16,-245.58 1325.04,-238.5 1314.46,-239.12 1317.16,-245.58"/>
</g>
<!-- Node29&#45;&gt;Node26 -->
<g id="edge35" class="edge">
<title>Node29&#45;&gt;Node26</title>
<path fill="none" stroke="midnightblue" d="M913.11,-374.5C943.09,-379.53 979.16,-385.58 1010.34,-390.81"/>
<polygon fill="midnightblue" stroke="midnightblue" points="1009.84,-394.28 1020.28,-392.48 1010.99,-387.37 1009.84,-394.28"/>
</g>
<!-- Node30 -->
<g id="node30" class="node">
<title>Node30</title>
<g id="a_node30"><a xlink:href="class_a_i_controller_script.html#ab124aec8211aa7b8f00c6ef5db6bc96a" target="_top" xlink:title="for out putting the debug stack if outputDebugText is true, it will out put the the console as well">
<polygon fill="white" stroke="black" points="1746,-314.5 1746,-335.5 1926,-335.5 1926,-314.5 1746,-314.5"/>
<text text-anchor="middle" x="1836" y="-321.9" font-family="Helvetica,sans-Serif" font-size="12.00">AIControllerScript.OutputDebug</text>
</a>
</g>
</g>
<!-- Node29&#45;&gt;Node30 -->
<g id="edge36" class="edge">
<title>Node29&#45;&gt;Node30</title>
<path fill="none" stroke="midnightblue" d="M930.1,-365.86C1082.06,-368.61 1423.86,-370.93 1710,-345 1729.39,-343.24 1750.32,-340.31 1769.42,-337.22"/>
<polygon fill="midnightblue" stroke="midnightblue" points="1770.22,-340.63 1779.51,-335.55 1769.08,-333.73 1770.22,-340.63"/>
</g>
<!-- Node31 -->
<g id="node31" class="node">
<title>Node31</title>
<g id="a_node31"><a xlink:href="class_a_i_controller_script.html#acb4af4c99bf1e7610b45d9f81457d625" target="_top" xlink:title="have AI to start turn">
<polygon fill="white" stroke="black" points="1005,-314.5 1005,-335.5 1163,-335.5 1163,-314.5 1005,-314.5"/>
<text text-anchor="middle" x="1084" y="-321.9" font-family="Helvetica,sans-Serif" font-size="12.00">AIControllerScript.StartTurn</text>
</a>
</g>
</g>
<!-- Node29&#45;&gt;Node31 -->
<g id="edge37" class="edge">
<title>Node29&#45;&gt;Node31</title>
<path fill="none" stroke="midnightblue" d="M913.11,-353.5C943.09,-348.47 979.16,-342.42 1010.34,-337.19"/>
<polygon fill="midnightblue" stroke="midnightblue" points="1010.99,-340.63 1020.28,-335.52 1009.84,-333.72 1010.99,-340.63"/>
</g>
<!-- Node34 -->
<g id="node34" class="node">
<title>Node34</title>
<g id="a_node34"><a xlink:href="class_player_master_controller.html#a59a900c17a29aece6fab552e723e22a6" target="_top" xlink:title=" ">
<polygon fill="white" stroke="black" points="992.5,-274.5 992.5,-295.5 1175.5,-295.5 1175.5,-274.5 992.5,-274.5"/>
<text text-anchor="middle" x="1084" y="-281.9" font-family="Helvetica,sans-Serif" font-size="12.00">PlayerMasterController.ToString</text>
</a>
</g>
</g>
<!-- Node29&#45;&gt;Node34 -->
<g id="edge42" class="edge">
<title>Node29&#45;&gt;Node34</title>
<path fill="none" stroke="midnightblue" d="M869.35,-353.49C893.72,-340.31 937.83,-317.9 978,-305 986.56,-302.25 995.65,-299.82 1004.75,-297.7"/>
<polygon fill="midnightblue" stroke="midnightblue" points="1005.61,-301.09 1014.61,-295.51 1004.09,-294.26 1005.61,-301.09"/>
</g>
<!-- Node32 -->
<g id="node32" class="node">
<title>Node32</title>
<g id="a_node32"><a xlink:href="class_a_i_controller_script.html#aaee909cd0f0ffdedd8d8425607d7ccb5" target="_top" xlink:title="to set the AI&#39;s mode">
<polygon fill="white" stroke="black" points="1271,-314.5 1271,-335.5 1441,-335.5 1441,-314.5 1271,-314.5"/>
<text text-anchor="middle" x="1356" y="-321.9" font-family="Helvetica,sans-Serif" font-size="12.00">AIControllerScript.SetAIMode</text>
</a>
</g>
</g>
<!-- Node31&#45;&gt;Node32 -->
<g id="edge38" class="edge">
<title>Node31&#45;&gt;Node32</title>
<path fill="none" stroke="midnightblue" d="M1163.1,-325C1193.59,-325 1228.83,-325 1260.72,-325"/>
<polygon fill="midnightblue" stroke="midnightblue" points="1260.95,-328.5 1270.95,-325 1260.95,-321.5 1260.95,-328.5"/>
</g>
<!-- Node32&#45;&gt;Node30 -->
<g id="edge41" class="edge">
<title>Node32&#45;&gt;Node30</title>
<path fill="none" stroke="midnightblue" d="M1428.3,-314.45C1457.3,-310.66 1491.18,-306.86 1522,-305 1605.4,-299.96 1626.71,-298.38 1710,-305 1729.96,-306.59 1751.55,-309.58 1771.08,-312.77"/>
<polygon fill="midnightblue" stroke="midnightblue" points="1770.64,-316.25 1781.08,-314.45 1771.8,-309.34 1770.64,-316.25"/>
</g>
<!-- Node33 -->
<g id="node33" class="node">
<title>Node33</title>
<g id="a_node33"><a xlink:href="class_a_i_controller_script.html#afcb2875a5501f07a7f44d0fa720266f3" target="_top" xlink:title="to delay the time for the next time the AI does something in the Update">
<polygon fill="white" stroke="black" points="1522,-314.5 1522,-335.5 1710,-335.5 1710,-314.5 1522,-314.5"/>
<text text-anchor="middle" x="1616" y="-321.9" font-family="Helvetica,sans-Serif" font-size="12.00">AIControllerScript.DelayDecision</text>
</a>
</g>
</g>
<!-- Node32&#45;&gt;Node33 -->
<g id="edge39" class="edge">
<title>Node32&#45;&gt;Node33</title>
<path fill="none" stroke="midnightblue" d="M1441.12,-325C1463.54,-325 1488.02,-325 1511.35,-325"/>
<polygon fill="midnightblue" stroke="midnightblue" points="1511.62,-328.5 1521.62,-325 1511.62,-321.5 1511.62,-328.5"/>
</g>
<!-- Node33&#45;&gt;Node30 -->
<g id="edge40" class="edge">
<title>Node33&#45;&gt;Node30</title>
<path fill="none" stroke="midnightblue" d="M1710.08,-325C1718.48,-325 1727,-325 1735.44,-325"/>
<polygon fill="midnightblue" stroke="midnightblue" points="1735.69,-328.5 1745.69,-325 1735.69,-321.5 1735.69,-328.5"/>
</g>
</g>
</svg>
        <g id="navigator" transform="translate(0 0)" fill="#404254">
                <rect fill="#f2f5e9" fill-opacity="0.5" stroke="#606060" stroke-width=".5" x="0" y="0" width="60" height="60"/>
                <use id="zoomplus" xlink:href="#zoomPlus" x="17" y="9" onmousedown="handleZoom(evt,'in')"/>
                <use id="zoomminus" xlink:href="#zoomMin" x="42" y="9" onmousedown="handleZoom(evt,'out')"/>
                <use id="reset" xlink:href="#resetDef" x="30" y="36" onmousedown="handleReset()"/>
                <g id="arrowUp" xlink:href="#dirArrow" transform="translate(30 24)" onmousedown="handlePan(0,-1)">
                  <use xlink:href="#rim" fill="#404040">
                        <set attributeName="fill" to="#808080" begin="arrowUp.mouseover" end="arrowUp.mouseout"/>
                  </use>
                  <path fill="none" stroke="white" stroke-width="1.5" d="M0,-3.0v7 M-2.5,-0.5L0,-3.0L2.5,-0.5"/>
                </g>
                <g id="arrowRight" xlink:href="#dirArrow" transform="rotate(90) translate(36 -43)" onmousedown="handlePan(1,0)">
                  <use xlink:href="#rim" fill="#404040">
                        <set attributeName="fill" to="#808080" begin="arrowRight.mouseover" end="arrowRight.mouseout"/>
                  </use>
                  <path fill="none" stroke="white" stroke-width="1.5" d="M0,-3.0v7 M-2.5,-0.5L0,-3.0L2.5,-0.5"/>
                </g>
                <g id="arrowDown" xlink:href="#dirArrow" transform="rotate(180) translate(-30 -48)" onmousedown="handlePan(0,1)">
                  <use xlink:href="#rim" fill="#404040">
                        <set attributeName="fill" to="#808080" begin="arrowDown.mouseover" end="arrowDown.mouseout"/>
                  </use>
                  <path fill="none" stroke="white" stroke-width="1.5" d="M0,-3.0v7 M-2.5,-0.5L0,-3.0L2.5,-0.5"/>
                </g>
                <g id="arrowLeft" xlink:href="#dirArrow" transform="rotate(270) translate(-36 17)" onmousedown="handlePan(-1,0)">
                  <use xlink:href="#rim" fill="#404040">
                        <set attributeName="fill" to="#808080" begin="arrowLeft.mouseover" end="arrowLeft.mouseout"/>
                  </use>
                  <path fill="none" stroke="white" stroke-width="1.5" d="M0,-3.0v7 M-2.5,-0.5L0,-3.0L2.5,-0.5"/>
                </g>
        </g>
        <svg viewBox="0 0 15 15" width="100%" height="30px" preserveAspectRatio="xMaxYMin meet">
         <g id="arrow_out" transform="scale(0.3 0.3)">
          <a xlink:href="class_u_i_handler_acc06a1dab8566d9e14f7ab3ae1ffea93_cgraph_org.svg" target="_base">
           <rect id="button" ry="5" rx="5" y="6" x="6" height="38" width="38"
                fill="#f2f5e9" fill-opacity="0.5" stroke="#606060" stroke-width="1.0"/>
           <path id="arrow"
             d="M 11.500037,31.436501 C 11.940474,20.09759 22.043105,11.32322 32.158766,21.979434 L 37.068811,17.246167 C 37.068811,17.246167 37.088388,32 37.088388,32 L 22.160133,31.978069 C 22.160133,31.978069 26.997745,27.140456 26.997745,27.140456 C 18.528582,18.264221 13.291696,25.230495 11.500037,31.436501 z"
             style="fill:#404040;"/>
          </a>
         </g>
        </svg>
</svg>
