<?xml version="1.0" encoding="UTF-8" standalone="no"?>
<!DOCTYPE svg PUBLIC "-//W3C//DTD SVG 1.1//EN"
 "http://www.w3.org/Graphics/SVG/1.1/DTD/svg11.dtd">
<!-- Generated by graphviz version 2.47.1 (20210417.1919)
 -->
<!-- Title: MainMenuScript Pages: 1 -->
<svg width="192pt" height="403pt"
 viewBox="0.00 0.00 192.00 403.00" xmlns="http://www.w3.org/2000/svg" xmlns:xlink="http://www.w3.org/1999/xlink">
<g id="graph0" class="graph" transform="scale(1 1) rotate(0) translate(4 399)">
<title>MainMenuScript</title>
<polygon fill="white" stroke="transparent" points="-4,4 -4,-399 188,-399 188,4 -4,4"/>
<!-- Node1 -->
<g id="node1" class="node">
<title>Node1</title>
<g id="a_node1"><a xlink:title="for handling the main menu">
<polygon fill="#bfbfbf" stroke="black" points="0,-0.5 0,-128.5 117,-128.5 117,-0.5 0,-0.5"/>
<text text-anchor="middle" x="58.5" y="-114.9" font-family="Helvetica,sans-Serif" font-size="12.00">MainMenuScript</text>
<polyline fill="none" stroke="black" points="0,-107.5 117,-107.5 "/>
<text text-anchor="start" x="8" y="-93.9" font-family="Helvetica,sans-Serif" font-size="12.00">&#45; gameSetUpGO</text>
<polyline fill="none" stroke="black" points="0,-86.5 117,-86.5 "/>
<text text-anchor="start" x="8" y="-72.9" font-family="Helvetica,sans-Serif" font-size="12.00">+ QuitGame()</text>
<text text-anchor="start" x="8" y="-59.9" font-family="Helvetica,sans-Serif" font-size="12.00">+ PlayGame()</text>
<text text-anchor="start" x="8" y="-46.9" font-family="Helvetica,sans-Serif" font-size="12.00">+ StartGame()</text>
<text text-anchor="start" x="8" y="-33.9" font-family="Helvetica,sans-Serif" font-size="12.00">+ StartAIDemo()</text>
<text text-anchor="start" x="8" y="-20.9" font-family="Helvetica,sans-Serif" font-size="12.00">+ LoadTestSence()</text>
<text text-anchor="start" x="8" y="-7.9" font-family="Helvetica,sans-Serif" font-size="12.00">&#45; Awake()</text>
</a>
</g>
</g>
<!-- Node2 -->
<g id="node2" class="node">
<title>Node2</title>
<g id="a_node2"><a xlink:title=" ">
<polygon fill="white" stroke="#bfbfbf" points="5.5,-331.5 5.5,-394.5 103.5,-394.5 103.5,-331.5 5.5,-331.5"/>
<text text-anchor="middle" x="54.5" y="-380.9" font-family="Helvetica,sans-Serif" font-size="12.00">MonoBehaviour</text>
<polyline fill="none" stroke="#bfbfbf" points="5.5,-373.5 103.5,-373.5 "/>
<text text-anchor="middle" x="54.5" y="-359.9" font-family="Helvetica,sans-Serif" font-size="12.00"> </text>
<polyline fill="none" stroke="#bfbfbf" points="5.5,-352.5 103.5,-352.5 "/>
<text text-anchor="middle" x="54.5" y="-338.9" font-family="Helvetica,sans-Serif" font-size="12.00"> </text>
</a>
</g>
</g>
<!-- Node2&#45;&gt;Node1 -->
<g id="edge1" class="edge">
<title>Node2&#45;&gt;Node1</title>
<path fill="none" stroke="midnightblue" d="M55.05,-321.33C55.72,-271.64 56.86,-187.01 57.65,-128.78"/>
<polygon fill="none" stroke="midnightblue" points="51.55,-321.34 54.91,-331.39 58.55,-321.43 51.55,-321.34"/>
</g>
<!-- Node3 -->
<g id="node3" class="node">
<title>Node3</title>
<g id="a_node3"><a xlink:href="class_game_set_up_script.html" target="_top" xlink:title="for passing the selection of which player is human or AI from the main menu">
<polygon fill="white" stroke="black" points="71,-178.5 71,-293.5 184,-293.5 184,-178.5 71,-178.5"/>
<text text-anchor="middle" x="127.5" y="-279.9" font-family="Helvetica,sans-Serif" font-size="12.00">GameSetUpScript</text>
<polyline fill="none" stroke="black" points="71,-272.5 184,-272.5 "/>
<text text-anchor="start" x="79" y="-258.9" font-family="Helvetica,sans-Serif" font-size="12.00">+ ToggleResults</text>
<text text-anchor="start" x="79" y="-245.9" font-family="Helvetica,sans-Serif" font-size="12.00">&#45; toggles</text>
<text text-anchor="start" x="79" y="-232.9" font-family="Helvetica,sans-Serif" font-size="12.00">&#45; toggleResults</text>
<polyline fill="none" stroke="black" points="71,-225.5 184,-225.5 "/>
<text text-anchor="start" x="79" y="-211.9" font-family="Helvetica,sans-Serif" font-size="12.00">+ SaveChoices()</text>
<text text-anchor="start" x="79" y="-198.9" font-family="Helvetica,sans-Serif" font-size="12.00">+ StartGame()</text>
<text text-anchor="start" x="79" y="-185.9" font-family="Helvetica,sans-Serif" font-size="12.00">&#45; Awake()</text>
</a>
</g>
</g>
<!-- Node2&#45;&gt;Node3 -->
<g id="edge3" class="edge">
<title>Node2&#45;&gt;Node3</title>
<path fill="none" stroke="midnightblue" d="M77.55,-322.53C82.92,-313.34 88.73,-303.38 94.43,-293.62"/>
<polygon fill="none" stroke="midnightblue" points="74.38,-321.02 72.36,-331.42 80.42,-324.55 74.38,-321.02"/>
</g>
<!-- Node3&#45;&gt;Node1 -->
<g id="edge2" class="edge">
<title>Node3&#45;&gt;Node1</title>
<path fill="none" stroke="#404040" d="M104.33,-178.09C99.34,-165.81 93.98,-152.66 88.76,-139.84"/>
<polygon fill="none" stroke="#404040" points="88.74,-139.79 82.78,-135.74 84.22,-128.68 90.19,-132.73 88.74,-139.79"/>
<text text-anchor="middle" x="129.5" y="-150.4" font-family="Helvetica,sans-Serif" font-size="12.00"> &#45;gameSetUp</text>
</g>
</g>
</svg>
