<?xml version="1.0" encoding="UTF-8" standalone="no"?>
<!DOCTYPE svg PUBLIC "-//W3C//DTD SVG 1.1//EN"
 "http://www.w3.org/Graphics/SVG/1.1/DTD/svg11.dtd">
<!-- Generated by graphviz version 2.47.1 (20210417.1919)
 -->
<!-- Title: MainMenuScript Pages: 1 -->
<svg width="125pt" height="250pt"
 viewBox="0.00 0.00 125.00 250.00" xmlns="http://www.w3.org/2000/svg" xmlns:xlink="http://www.w3.org/1999/xlink">
<g id="graph0" class="graph" transform="scale(1 1) rotate(0) translate(4 246)">
<title>MainMenuScript</title>
<polygon fill="white" stroke="transparent" points="-4,4 -4,-246 121,-246 121,4 -4,4"/>
<!-- Node1 -->
<g id="node1" class="node">
<title>Node1</title>
<g id="a_node1"><a xlink:title="for handling the main menu">
<polygon fill="#bfbfbf" stroke="black" points="0,-0.5 0,-141.5 117,-141.5 117,-0.5 0,-0.5"/>
<text text-anchor="middle" x="58.5" y="-127.9" font-family="Helvetica,sans-Serif" font-size="12.00">MainMenuScript</text>
<polyline fill="none" stroke="black" points="0,-120.5 117,-120.5 "/>
<text text-anchor="start" x="8" y="-106.9" font-family="Helvetica,sans-Serif" font-size="12.00">&#45; gameSetUp</text>
<text text-anchor="start" x="8" y="-93.9" font-family="Helvetica,sans-Serif" font-size="12.00">&#45; gameSetUpGO</text>
<polyline fill="none" stroke="black" points="0,-86.5 117,-86.5 "/>
<text text-anchor="start" x="8" y="-72.9" font-family="Helvetica,sans-Serif" font-size="12.00">+ QuitGame()</text>
<text text-anchor="start" x="8" y="-59.9" font-family="Helvetica,sans-Serif" font-size="12.00">+ PlayGame()</text>
<text text-anchor="start" x="8" y="-46.9" font-family="Helvetica,sans-Serif" font-size="12.00">+ StartGame()</text>
<text text-anchor="start" x="8" y="-33.9" font-family="Helvetica,sans-Serif" font-size="12.00">+ StartAIDemo()</text>
<text text-anchor="start" x="8" y="-20.9" font-family="Helvetica,sans-Serif" font-size="12.00">+ LoadTestSence()</text>
<text text-anchor="start" x="8" y="-7.9" font-family="Helvetica,sans-Serif" font-size="12.00">&#45; Awake()</text>
</a>
</g>
</g>
<!-- Node2 -->
<g id="node2" class="node">
<title>Node2</title>
<g id="a_node2"><a xlink:title=" ">
<polygon fill="white" stroke="#bfbfbf" points="9.5,-178.5 9.5,-241.5 107.5,-241.5 107.5,-178.5 9.5,-178.5"/>
<text text-anchor="middle" x="58.5" y="-227.9" font-family="Helvetica,sans-Serif" font-size="12.00">MonoBehaviour</text>
<polyline fill="none" stroke="#bfbfbf" points="9.5,-220.5 107.5,-220.5 "/>
<text text-anchor="middle" x="58.5" y="-206.9" font-family="Helvetica,sans-Serif" font-size="12.00"> </text>
<polyline fill="none" stroke="#bfbfbf" points="9.5,-199.5 107.5,-199.5 "/>
<text text-anchor="middle" x="58.5" y="-185.9" font-family="Helvetica,sans-Serif" font-size="12.00"> </text>
</a>
</g>
</g>
<!-- Node2&#45;&gt;Node1 -->
<g id="edge1" class="edge">
<title>Node2&#45;&gt;Node1</title>
<path fill="none" stroke="midnightblue" d="M58.5,-168.04C58.5,-159.66 58.5,-150.62 58.5,-141.55"/>
<polygon fill="none" stroke="midnightblue" points="55,-168.25 58.5,-178.25 62,-168.25 55,-168.25"/>
</g>
</g>
</svg>
