<?xml version="1.0" encoding="UTF-8" standalone="no"?>
<!DOCTYPE svg PUBLIC "-//W3C//DTD SVG 1.1//EN"
 "http://www.w3.org/Graphics/SVG/1.1/DTD/svg11.dtd">
<!-- Generated by graphviz version 2.47.1 (20210417.1919)
 -->
<!-- Title: UserController.EndTurn Pages: 1 -->
<!--zoomable 662 -->
<svg id="main" version="1.1" xmlns="http://www.w3.org/2000/svg" xmlns:xlink="http://www.w3.org/1999/xlink" xml:space="preserve" onload="init(evt)">
<style type="text/css"><![CDATA[
.edge:hover path { stroke: red; }
.edge:hover polygon { stroke: red; fill: red; }
]]></style>
<script type="text/javascript"><![CDATA[
var edges = document.getElementsByTagName('g');
if (edges && edges.length) {
  for (var i=0;i<edges.length;i++) {
    if (edges[i].id.substr(0,4)=='edge') {
      edges[i].setAttribute('class','edge');
    }
  }
}
]]></script>
        <defs>
                <circle id="rim" cx="0" cy="0" r="7"/>
                <circle id="rim2" cx="0" cy="0" r="3.5"/>
                <g id="zoomPlus">
                        <use xlink:href="#rim" fill="#404040">
                                <set attributeName="fill" to="#808080" begin="zoomplus.mouseover" end="zoomplus.mouseout"/>
                        </use>
                        <path d="M-4,0h8M0,-4v8" fill="none" stroke="white" stroke-width="1.5" pointer-events="none"/>
                </g>
                <g id="zoomMin">
                        <use xlink:href="#rim" fill="#404040">
                                <set attributeName="fill" to="#808080" begin="zoomminus.mouseover" end="zoomminus.mouseout"/>
                        </use>
                        <path d="M-4,0h8" fill="none" stroke="white" stroke-width="1.5" pointer-events="none"/>
                </g>
                <g id="dirArrow">
                        <path fill="none" stroke="white" stroke-width="1.5" d="M0,-3.0v7 M-2.5,-0.5L0,-3.0L2.5,-0.5"/>
                </g>
               <g id="resetDef">
                       <use xlink:href="#rim2" fill="#404040">
                               <set attributeName="fill" to="#808080" begin="reset.mouseover" end="reset.mouseout"/>
                       </use>
               </g>
        </defs>

<script type="text/javascript">
var viewWidth = 1784;
var viewHeight = 662;
var sectionId = 'dynsection-2';
</script>
<script xlink:href="svgpan.js"/>
<svg id="graph" class="graph">
<g id="viewport">
<title>UserController.EndTurn</title>
<polygon fill="white" stroke="transparent" points="-4,4 -4,-658 1780,-658 1780,4 -4,4"/>
<!-- Node1 -->
<g id="node1" class="node">
<title>Node1</title>
<g id="a_node1"><a xlink:title="Ends turn">
<polygon fill="#bfbfbf" stroke="black" points="0,-513.5 0,-534.5 138,-534.5 138,-513.5 0,-513.5"/>
<text text-anchor="middle" x="69" y="-520.9" font-family="Helvetica,sans-Serif" font-size="12.00">UserController.EndTurn</text>
</a>
</g>
</g>
<!-- Node2 -->
<g id="node2" class="node">
<title>Node2</title>
<g id="a_node2"><a xlink:href="class_round_manager.html#a29177f2e27c6c4af55dfa3c48d67cfb0" target="_top" xlink:title="Ending the turn. Returns the next player">
<polygon fill="white" stroke="black" points="174,-513.5 174,-534.5 317,-534.5 317,-513.5 174,-513.5"/>
<text text-anchor="middle" x="245.5" y="-520.9" font-family="Helvetica,sans-Serif" font-size="12.00">RoundManager.EndTurn</text>
</a>
</g>
</g>
<!-- Node1&#45;&gt;Node2 -->
<g id="edge1" class="edge">
<title>Node1&#45;&gt;Node2</title>
<path fill="none" stroke="midnightblue" d="M138.22,-524C146.51,-524 155.04,-524 163.49,-524"/>
<polygon fill="midnightblue" stroke="midnightblue" points="163.74,-527.5 173.74,-524 163.74,-520.5 163.74,-527.5"/>
</g>
<!-- Node3 -->
<g id="node3" class="node">
<title>Node3</title>
<g id="a_node3"><a xlink:href="class_camera_close_up.html#ad31062bdf359a453fc85ebdd71fa1bae" target="_top" xlink:title="Clear camera close up">
<polygon fill="white" stroke="black" points="608.5,-632.5 608.5,-653.5 790.5,-653.5 790.5,-632.5 608.5,-632.5"/>
<text text-anchor="middle" x="699.5" y="-639.9" font-family="Helvetica,sans-Serif" font-size="12.00">CameraCloseUp.ClearCloseUp</text>
</a>
</g>
</g>
<!-- Node2&#45;&gt;Node3 -->
<g id="edge2" class="edge">
<title>Node2&#45;&gt;Node3</title>
<path fill="none" stroke="midnightblue" d="M256.82,-534.67C274.59,-552.31 312.97,-587.16 353,-603 431.54,-634.07 527.39,-643.13 598.2,-644.96"/>
<polygon fill="midnightblue" stroke="midnightblue" points="598.38,-648.46 608.46,-645.17 598.53,-641.46 598.38,-648.46"/>
</g>
<!-- Node5 -->
<g id="node5" class="node">
<title>Node5</title>
<g id="a_node5"><a xlink:href="class_round_manager.html#aab3f49a5e05508a8e023a497e763c1c8" target="_top" xlink:title="Gets the player controller for the current player">
<polygon fill="white" stroke="black" points="1111,-375.5 1111,-396.5 1301,-396.5 1301,-375.5 1111,-375.5"/>
<text text-anchor="middle" x="1206" y="-382.9" font-family="Helvetica,sans-Serif" font-size="12.00">RoundManager.GetCurrentPlayer</text>
</a>
</g>
</g>
<!-- Node2&#45;&gt;Node5 -->
<g id="edge4" class="edge">
<title>Node2&#45;&gt;Node5</title>
<path fill="none" stroke="midnightblue" d="M317.24,-525.18C485.64,-527.28 906.19,-528.09 1040,-487 1097.57,-469.32 1155.44,-426.86 1184.94,-403.01"/>
<polygon fill="midnightblue" stroke="midnightblue" points="1187.32,-405.58 1192.83,-396.53 1182.88,-400.17 1187.32,-405.58"/>
</g>
<!-- Node7 -->
<g id="node7" class="node">
<title>Node7</title>
<g id="a_node7"><a xlink:href="class_dice.html#ade1dc529eeb31f31e668c595c5748e67" target="_top" xlink:title="Reset the dice">
<polygon fill="white" stroke="black" points="412,-572.5 412,-593.5 512,-593.5 512,-572.5 412,-572.5"/>
<text text-anchor="middle" x="462" y="-579.9" font-family="Helvetica,sans-Serif" font-size="12.00">Dice.ResetDice</text>
</a>
</g>
</g>
<!-- Node2&#45;&gt;Node7 -->
<g id="edge6" class="edge">
<title>Node2&#45;&gt;Node7</title>
<path fill="none" stroke="midnightblue" d="M284.85,-534.55C320.58,-544.38 374,-559.07 412.64,-569.7"/>
<polygon fill="midnightblue" stroke="midnightblue" points="412.05,-573.17 422.62,-572.44 413.91,-566.42 412.05,-573.17"/>
</g>
<!-- Node11 -->
<g id="node11" class="node">
<title>Node11</title>
<g id="a_node11"><a xlink:href="class_turn_controller.html#ade13993ccd7681d71cec356829df0f18" target="_top" xlink:title=" ">
<polygon fill="white" stroke="black" points="353,-474.5 353,-495.5 571,-495.5 571,-474.5 353,-474.5"/>
<text text-anchor="middle" x="462" y="-481.9" font-family="Helvetica,sans-Serif" font-size="12.00">TurnController.SetCurrentPlayerToNext</text>
</a>
</g>
</g>
<!-- Node2&#45;&gt;Node11 -->
<g id="edge11" class="edge">
<title>Node2&#45;&gt;Node11</title>
<path fill="none" stroke="midnightblue" d="M304.26,-513.5C331.68,-508.51 364.62,-502.52 393.22,-497.32"/>
<polygon fill="midnightblue" stroke="midnightblue" points="393.92,-500.75 403.13,-495.52 392.67,-493.87 393.92,-500.75"/>
</g>
<!-- Node12 -->
<g id="node12" class="node">
<title>Node12</title>
<g id="a_node12"><a xlink:href="class_round_manager.html#acf644ae21a6f9ebc2a476fc8603e18fc" target="_top" xlink:title="Method for starting the turn">
<polygon fill="white" stroke="black" points="388.5,-237.5 388.5,-258.5 535.5,-258.5 535.5,-237.5 388.5,-237.5"/>
<text text-anchor="middle" x="462" y="-244.9" font-family="Helvetica,sans-Serif" font-size="12.00">RoundManager.StartTurn</text>
</a>
</g>
</g>
<!-- Node2&#45;&gt;Node12 -->
<g id="edge12" class="edge">
<title>Node2&#45;&gt;Node12</title>
<path fill="none" stroke="midnightblue" d="M254.91,-513.18C287.41,-471.36 405.08,-319.95 446.47,-266.69"/>
<polygon fill="midnightblue" stroke="midnightblue" points="449.28,-268.79 452.65,-258.74 443.75,-264.49 449.28,-268.79"/>
</g>
<!-- Node4 -->
<g id="node4" class="node">
<title>Node4</title>
<g id="a_node4"><a xlink:href="class_camera_close_up.html#ae902d2ccdf969212e0cb84f638f68851" target="_top" xlink:title="Delay then clear close up">
<polygon fill="white" stroke="black" points="828,-632.5 828,-653.5 1040,-653.5 1040,-632.5 828,-632.5"/>
<text text-anchor="middle" x="934" y="-639.9" font-family="Helvetica,sans-Serif" font-size="12.00">CameraCloseUp.ClearCloseUpDelay</text>
</a>
</g>
</g>
<!-- Node3&#45;&gt;Node4 -->
<g id="edge3" class="edge">
<title>Node3&#45;&gt;Node4</title>
<path fill="none" stroke="midnightblue" d="M790.72,-643C799.53,-643 808.55,-643 817.57,-643"/>
<polygon fill="midnightblue" stroke="midnightblue" points="817.73,-646.5 827.73,-643 817.73,-639.5 817.73,-646.5"/>
</g>
<!-- Node6 -->
<g id="node6" class="node">
<title>Node6</title>
<g id="a_node6"><a xlink:href="class_turn_controller.html#af16e42b7e61c5a999291327e2e556caa" target="_top" xlink:title=" ">
<polygon fill="white" stroke="black" points="1375,-286.5 1375,-307.5 1557,-307.5 1557,-286.5 1375,-286.5"/>
<text text-anchor="middle" x="1466" y="-293.9" font-family="Helvetica,sans-Serif" font-size="12.00">TurnController.GetCurrentPlayer</text>
</a>
</g>
</g>
<!-- Node5&#45;&gt;Node6 -->
<g id="edge5" class="edge">
<title>Node5&#45;&gt;Node6</title>
<path fill="none" stroke="midnightblue" d="M1237.61,-375.44C1284.26,-359.35 1373.17,-328.68 1424.91,-310.83"/>
<polygon fill="midnightblue" stroke="midnightblue" points="1426.12,-314.11 1434.43,-307.55 1423.84,-307.5 1426.12,-314.11"/>
</g>
<!-- Node7&#45;&gt;Node3 -->
<g id="edge9" class="edge">
<title>Node7&#45;&gt;Node3</title>
<path fill="none" stroke="midnightblue" d="M498.66,-593.5C527.71,-601.91 569.85,-613.79 607,-623 617.05,-625.49 627.75,-627.98 638.17,-630.31"/>
<polygon fill="midnightblue" stroke="midnightblue" points="637.52,-633.75 648.04,-632.5 639.04,-626.92 637.52,-633.75"/>
</g>
<!-- Node8 -->
<g id="node8" class="node">
<title>Node8</title>
<g id="a_node8"><a xlink:href="class_dice.html#ace4c995eb73b784d1076fde140ce85af" target="_top" xlink:title="Can Dice be reset">
<polygon fill="white" stroke="black" points="651,-552.5 651,-573.5 748,-573.5 748,-552.5 651,-552.5"/>
<text text-anchor="middle" x="699.5" y="-559.9" font-family="Helvetica,sans-Serif" font-size="12.00">Dice.CanReset</text>
</a>
</g>
</g>
<!-- Node7&#45;&gt;Node8 -->
<g id="edge7" class="edge">
<title>Node7&#45;&gt;Node8</title>
<path fill="none" stroke="midnightblue" d="M512.08,-578.83C549.53,-575.65 601.23,-571.26 640.68,-567.91"/>
<polygon fill="midnightblue" stroke="midnightblue" points="641.02,-571.39 650.69,-567.06 640.43,-564.42 641.02,-571.39"/>
</g>
<!-- Node10 -->
<g id="node10" class="node">
<title>Node10</title>
<g id="a_node10"><a xlink:href="class_die.html#abc11c3d2bf0c0fba1555093eb5a8469e" target="_top" xlink:title="Reset Die to original position">
<polygon fill="white" stroke="black" points="655.5,-592.5 655.5,-613.5 743.5,-613.5 743.5,-592.5 655.5,-592.5"/>
<text text-anchor="middle" x="699.5" y="-599.9" font-family="Helvetica,sans-Serif" font-size="12.00">Die.ResetDie</text>
</a>
</g>
</g>
<!-- Node7&#45;&gt;Node10 -->
<g id="edge10" class="edge">
<title>Node7&#45;&gt;Node10</title>
<path fill="none" stroke="midnightblue" d="M512.08,-587.17C551.02,-590.48 605.36,-595.09 645.32,-598.48"/>
<polygon fill="midnightblue" stroke="midnightblue" points="645.16,-601.98 655.42,-599.34 645.75,-595.01 645.16,-601.98"/>
</g>
<!-- Node9 -->
<g id="node9" class="node">
<title>Node9</title>
<g id="a_node9"><a xlink:href="class_die.html#a390d46459637fd249926cda472255d84" target="_top" xlink:title="Can the die be reset">
<polygon fill="white" stroke="black" points="879,-552.5 879,-573.5 989,-573.5 989,-552.5 879,-552.5"/>
<text text-anchor="middle" x="934" y="-559.9" font-family="Helvetica,sans-Serif" font-size="12.00">Die.CanResetDie</text>
</a>
</g>
</g>
<!-- Node8&#45;&gt;Node9 -->
<g id="edge8" class="edge">
<title>Node8&#45;&gt;Node9</title>
<path fill="none" stroke="midnightblue" d="M748.11,-563C782.99,-563 830.71,-563 868.94,-563"/>
<polygon fill="midnightblue" stroke="midnightblue" points="868.94,-566.5 878.94,-563 868.94,-559.5 868.94,-566.5"/>
</g>
<!-- Node12&#45;&gt;Node5 -->
<g id="edge20" class="edge">
<title>Node12&#45;&gt;Node5</title>
<path fill="none" stroke="midnightblue" d="M469.64,-258.65C487.88,-287 541.77,-364.92 607,-405 693.91,-458.41 726.94,-453.09 828,-467 921.34,-479.85 948.22,-488.31 1040,-467 1093.75,-454.52 1150.18,-421.94 1181.13,-402.11"/>
<polygon fill="midnightblue" stroke="midnightblue" points="1183.06,-405.03 1189.53,-396.64 1179.24,-399.17 1183.06,-405.03"/>
</g>
<!-- Node12&#45;&gt;Node6 -->
<g id="edge21" class="edge">
<title>Node12&#45;&gt;Node6</title>
<path fill="none" stroke="midnightblue" d="M535.66,-242.59C609.29,-237.39 726.49,-229.92 828,-227 922.18,-224.29 946.09,-219.32 1040,-227 1172.23,-237.82 1325.3,-267.26 1406.82,-284.32"/>
<polygon fill="midnightblue" stroke="midnightblue" points="1406.37,-287.8 1416.88,-286.44 1407.81,-280.95 1406.37,-287.8"/>
</g>
<!-- Node13 -->
<g id="node13" class="node">
<title>Node13</title>
<g id="a_node13"><a xlink:href="class_board_manager.html#a653d38723d03f890d38a1b68a855c569" target="_top" xlink:title="Clear all movable tiles">
<polygon fill="white" stroke="black" points="614,-118.5 614,-139.5 785,-139.5 785,-118.5 614,-118.5"/>
<text text-anchor="middle" x="699.5" y="-125.9" font-family="Helvetica,sans-Serif" font-size="12.00">BoardManager.ClearMovable</text>
</a>
</g>
</g>
<!-- Node12&#45;&gt;Node13 -->
<g id="edge13" class="edge">
<title>Node12&#45;&gt;Node13</title>
<path fill="none" stroke="midnightblue" d="M475.11,-237.19C498.71,-216.72 553.27,-172.27 607,-149 612.78,-146.5 618.9,-144.29 625.13,-142.36"/>
<polygon fill="midnightblue" stroke="midnightblue" points="626.33,-145.65 634.98,-139.53 624.4,-138.93 626.33,-145.65"/>
</g>
<!-- Node17 -->
<g id="node17" class="node">
<title>Node17</title>
<g id="a_node17"><a xlink:href="class_u_i_handler.html#affac6b69bae9622fe2d5ef41990456aa" target="_top" xlink:title="Display the list of cards">
<polygon fill="white" stroke="black" points="631,-78.5 631,-99.5 768,-99.5 768,-78.5 631,-78.5"/>
<text text-anchor="middle" x="699.5" y="-85.9" font-family="Helvetica,sans-Serif" font-size="12.00">UIHandler.DisplayDeck</text>
</a>
</g>
</g>
<!-- Node12&#45;&gt;Node17 -->
<g id="edge17" class="edge">
<title>Node12&#45;&gt;Node17</title>
<path fill="none" stroke="midnightblue" d="M470.68,-237.27C490.17,-210.86 544.51,-142.45 607,-109 611.54,-106.57 616.36,-104.43 621.32,-102.56"/>
<polygon fill="midnightblue" stroke="midnightblue" points="622.66,-105.8 630.99,-99.26 620.4,-99.17 622.66,-105.8"/>
</g>
<!-- Node19 -->
<g id="node19" class="node">
<title>Node19</title>
<g id="a_node19"><a xlink:href="class_u_i_handler.html#abe1710aca2abe4dbb489f0c49a3af879" target="_top" xlink:title="To display the View Blocker can include the name of the player that needs it&#39;s attention">
<polygon fill="white" stroke="black" points="611.5,-38.5 611.5,-59.5 787.5,-59.5 787.5,-38.5 611.5,-38.5"/>
<text text-anchor="middle" x="699.5" y="-45.9" font-family="Helvetica,sans-Serif" font-size="12.00">UIHandler.DisplayViewBlocker</text>
</a>
</g>
</g>
<!-- Node12&#45;&gt;Node19 -->
<g id="edge19" class="edge">
<title>Node12&#45;&gt;Node19</title>
<path fill="none" stroke="midnightblue" d="M468.15,-237.46C484.02,-206.17 535.44,-113.29 607,-69 610.4,-66.89 614,-65.01 617.71,-63.32"/>
<polygon fill="midnightblue" stroke="midnightblue" points="619.2,-66.49 627.17,-59.51 616.58,-60 619.2,-66.49"/>
</g>
<!-- Node20 -->
<g id="node20" class="node">
<title>Node20</title>
<g id="a_node20"><a xlink:href="class_player_master_controller.html#a0a7dd34344c455ef5a0d84c2f7c4a4d6" target="_top" xlink:title=" ">
<polygon fill="white" stroke="black" points="607,-374.5 607,-395.5 792,-395.5 792,-374.5 607,-374.5"/>
<text text-anchor="middle" x="699.5" y="-381.9" font-family="Helvetica,sans-Serif" font-size="12.00">PlayerMasterController.GetDeck</text>
</a>
</g>
</g>
<!-- Node12&#45;&gt;Node20 -->
<g id="edge22" class="edge">
<title>Node12&#45;&gt;Node20</title>
<path fill="none" stroke="midnightblue" d="M473.53,-258.66C496.01,-280.81 551.2,-332.08 607,-360 616.06,-364.53 626.04,-368.33 635.99,-371.48"/>
<polygon fill="midnightblue" stroke="midnightblue" points="635.3,-374.93 645.89,-374.43 637.3,-368.22 635.3,-374.93"/>
</g>
<!-- Node21 -->
<g id="node21" class="node">
<title>Node21</title>
<g id="a_node21"><a xlink:href="class_enum_to_string.html#a078a1fb16a0030544fac1b96a90b6b83" target="_top" xlink:title="Get a string value from a valid enum">
<polygon fill="white" stroke="black" points="833.5,-436.5 833.5,-457.5 1034.5,-457.5 1034.5,-436.5 833.5,-436.5"/>
<text text-anchor="middle" x="934" y="-443.9" font-family="Helvetica,sans-Serif" font-size="12.00">EnumToString.GetStringFromEnum</text>
</a>
</g>
</g>
<!-- Node12&#45;&gt;Node21 -->
<g id="edge23" class="edge">
<title>Node12&#45;&gt;Node21</title>
<path fill="none" stroke="midnightblue" d="M478.66,-258.66C504.33,-275.65 557.48,-308.8 607,-327 685.79,-355.95 723.86,-315.98 792,-365 817.87,-383.61 802,-408.58 828,-427 830.57,-428.82 833.25,-430.48 836.03,-432.01"/>
<polygon fill="midnightblue" stroke="midnightblue" points="834.67,-435.24 845.2,-436.41 837.7,-428.93 834.67,-435.24"/>
</g>
<!-- Node22 -->
<g id="node22" class="node">
<title>Node22</title>
<g id="a_node22"><a xlink:href="class_u_i_handler.html#ac072319b13f11e5ac215a0ed6ab11aa9" target="_top" xlink:title="Resets UI for the next player">
<polygon fill="white" stroke="black" points="632,-296.5 632,-317.5 767,-317.5 767,-296.5 632,-296.5"/>
<text text-anchor="middle" x="699.5" y="-303.9" font-family="Helvetica,sans-Serif" font-size="12.00">UIHandler.InitialiseTurn</text>
</a>
</g>
</g>
<!-- Node12&#45;&gt;Node22 -->
<g id="edge24" class="edge">
<title>Node12&#45;&gt;Node22</title>
<path fill="none" stroke="midnightblue" d="M505.1,-258.55C544.66,-268.46 603.98,-283.32 646.49,-293.97"/>
<polygon fill="midnightblue" stroke="midnightblue" points="645.81,-297.41 656.37,-296.44 647.52,-290.62 645.81,-297.41"/>
</g>
<!-- Node28 -->
<g id="node28" class="node">
<title>Node28</title>
<g id="a_node28"><a xlink:href="class_a_i_controller_script.html#a606c498cbb805d816c1b06f94631a960" target="_top" xlink:title="to activate the AI or not set which player the AI is controlling">
<polygon fill="white" stroke="black" points="619,-158.5 619,-179.5 780,-179.5 780,-158.5 619,-158.5"/>
<text text-anchor="middle" x="699.5" y="-165.9" font-family="Helvetica,sans-Serif" font-size="12.00">AIControllerScript.SetActive</text>
</a>
</g>
</g>
<!-- Node12&#45;&gt;Node28 -->
<g id="edge32" class="edge">
<title>Node12&#45;&gt;Node28</title>
<path fill="none" stroke="midnightblue" d="M489.02,-237.41C517.67,-225.96 565.21,-207.51 607,-194 619.86,-189.84 633.88,-185.78 646.99,-182.18"/>
<polygon fill="midnightblue" stroke="midnightblue" points="648.07,-185.51 656.81,-179.52 646.24,-178.76 648.07,-185.51"/>
</g>
<!-- Node14 -->
<g id="node14" class="node">
<title>Node14</title>
<g id="a_node14"><a xlink:href="class_board_tile_script.html#a3ff1d3c491fe4d7e421a624ac0b5be6f" target="_top" xlink:title="setting the glow on the tile">
<polygon fill="white" stroke="black" points="861,-40.5 861,-61.5 1007,-61.5 1007,-40.5 861,-40.5"/>
<text text-anchor="middle" x="934" y="-47.9" font-family="Helvetica,sans-Serif" font-size="12.00">BoardTileScript.GlowTile</text>
</a>
</g>
</g>
<!-- Node13&#45;&gt;Node14 -->
<g id="edge14" class="edge">
<title>Node13&#45;&gt;Node14</title>
<path fill="none" stroke="midnightblue" d="M768.39,-118.41C776.58,-115.91 784.64,-112.82 792,-109 811.27,-99 808.83,-86.17 828,-76 836.81,-71.32 846.5,-67.51 856.33,-64.4"/>
<polygon fill="midnightblue" stroke="midnightblue" points="857.55,-67.69 866.16,-61.53 855.58,-60.97 857.55,-67.69"/>
</g>
<!-- Node15 -->
<g id="node15" class="node">
<title>Node15</title>
<g id="a_node15"><a xlink:href="class_board_tile_effect_handler_script.html#a93e813816ff40b3602de22f87a694766" target="_top" xlink:title="turn off the effect for when player can move to that tile">
<polygon fill="white" stroke="black" points="1076,-40.5 1076,-61.5 1336,-61.5 1336,-40.5 1076,-40.5"/>
<text text-anchor="middle" x="1206" y="-47.9" font-family="Helvetica,sans-Serif" font-size="12.00">BoardTileEffectHandlerScript.ToggleEffect_Off</text>
</a>
</g>
</g>
<!-- Node14&#45;&gt;Node15 -->
<g id="edge15" class="edge">
<title>Node14&#45;&gt;Node15</title>
<path fill="none" stroke="midnightblue" d="M1007,-51C1025.18,-51 1045.31,-51 1065.59,-51"/>
<polygon fill="midnightblue" stroke="midnightblue" points="1065.86,-54.5 1075.86,-51 1065.86,-47.5 1065.86,-54.5"/>
</g>
<!-- Node16 -->
<g id="node16" class="node">
<title>Node16</title>
<g id="a_node16"><a xlink:href="class_board_tile_effect_handler_script.html#a7bf5b2a819cb44463464d5c951bf3143" target="_top" xlink:title="turn on the effect for when player can move to that tile">
<polygon fill="white" stroke="black" points="1076,-0.5 1076,-21.5 1336,-21.5 1336,-0.5 1076,-0.5"/>
<text text-anchor="middle" x="1206" y="-7.9" font-family="Helvetica,sans-Serif" font-size="12.00">BoardTileEffectHandlerScript.ToggleEffect_On</text>
</a>
</g>
</g>
<!-- Node14&#45;&gt;Node16 -->
<g id="edge16" class="edge">
<title>Node14&#45;&gt;Node16</title>
<path fill="none" stroke="midnightblue" d="M1005.94,-40.49C1042.23,-35.11 1086.55,-28.55 1124.16,-22.98"/>
<polygon fill="midnightblue" stroke="midnightblue" points="1124.69,-26.44 1134.07,-21.51 1123.66,-19.51 1124.69,-26.44"/>
</g>
<!-- Node18 -->
<g id="node18" class="node">
<title>Node18</title>
<g id="a_node18"><a xlink:href="class_card_slot.html#af678d8249e4d52bb791b47d4ed75e7f3" target="_top" xlink:title="Makes the card slot visible and its game object active">
<polygon fill="white" stroke="black" points="874,-0.5 874,-21.5 994,-21.5 994,-0.5 874,-0.5"/>
<text text-anchor="middle" x="934" y="-7.9" font-family="Helvetica,sans-Serif" font-size="12.00">CardSlot.SetVisible</text>
</a>
</g>
</g>
<!-- Node17&#45;&gt;Node18 -->
<g id="edge18" class="edge">
<title>Node17&#45;&gt;Node18</title>
<path fill="none" stroke="midnightblue" d="M768.18,-79.06C776.49,-76.45 784.64,-73.16 792,-69 812.26,-57.57 807.59,-42.16 828,-31 838.98,-24.99 851.47,-20.77 863.91,-17.79"/>
<polygon fill="midnightblue" stroke="midnightblue" points="864.79,-21.18 873.84,-15.67 863.33,-14.34 864.79,-21.18"/>
</g>
<!-- Node22&#45;&gt;Node21 -->
<g id="edge30" class="edge">
<title>Node22&#45;&gt;Node21</title>
<path fill="none" stroke="midnightblue" d="M767.35,-317.2C776.37,-320.78 784.93,-325.58 792,-332 825.42,-362.37 793.42,-397.97 828,-427 829.79,-428.5 831.66,-429.91 833.59,-431.22"/>
<polygon fill="midnightblue" stroke="midnightblue" points="832.05,-434.37 842.46,-436.38 835.58,-428.32 832.05,-434.37"/>
</g>
<!-- Node23 -->
<g id="node23" class="node">
<title>Node23</title>
<g id="a_node23"><a xlink:href="class_u_i_handler.html#abe1c78d110b0a4374daed98df71fcff1" target="_top" xlink:title="Displays the notepad">
<polygon fill="white" stroke="black" points="856,-396.5 856,-417.5 1012,-417.5 1012,-396.5 856,-396.5"/>
<text text-anchor="middle" x="934" y="-403.9" font-family="Helvetica,sans-Serif" font-size="12.00">UIHandler.DisplayNotePad</text>
</a>
</g>
</g>
<!-- Node22&#45;&gt;Node23 -->
<g id="edge25" class="edge">
<title>Node22&#45;&gt;Node23</title>
<path fill="none" stroke="midnightblue" d="M763.32,-317.63C773.5,-321.14 783.48,-325.8 792,-332 815.62,-349.19 803.72,-370.75 828,-387 833.65,-390.78 839.83,-393.89 846.27,-396.44"/>
<polygon fill="midnightblue" stroke="midnightblue" points="845.28,-399.8 855.87,-399.79 847.58,-393.19 845.28,-399.8"/>
</g>
<!-- Node24 -->
<g id="node24" class="node">
<title>Node24</title>
<g id="a_node24"><a xlink:href="class_u_i_handler.html#a2db6b92acd51a72b431b3eacb3884ddd" target="_top" xlink:title="Displays a screen when a player is eliminated">
<polygon fill="white" stroke="black" points="835,-356.5 835,-377.5 1033,-377.5 1033,-356.5 835,-356.5"/>
<text text-anchor="middle" x="934" y="-363.9" font-family="Helvetica,sans-Serif" font-size="12.00">UIHandler.DisplayPlayerEliminated</text>
</a>
</g>
</g>
<!-- Node22&#45;&gt;Node24 -->
<g id="edge26" class="edge">
<title>Node22&#45;&gt;Node24</title>
<path fill="none" stroke="midnightblue" d="M743.67,-317.58C759.06,-321.67 776.42,-326.65 792,-332 808.39,-337.63 811.4,-342.02 828,-347 837.1,-349.73 846.76,-352.17 856.4,-354.32"/>
<polygon fill="midnightblue" stroke="midnightblue" points="855.89,-357.79 866.4,-356.47 857.36,-350.95 855.89,-357.79"/>
</g>
<!-- Node25 -->
<g id="node25" class="node">
<title>Node25</title>
<g id="a_node25"><a xlink:href="class_player_master_controller.html#a12c91851433777ae557a71d9f9a855f0" target="_top" xlink:title=" ">
<polygon fill="white" stroke="black" points="829.5,-236.5 829.5,-257.5 1038.5,-257.5 1038.5,-236.5 829.5,-236.5"/>
<text text-anchor="middle" x="934" y="-243.9" font-family="Helvetica,sans-Serif" font-size="12.00">PlayerMasterController.GetCharacter</text>
</a>
</g>
</g>
<!-- Node22&#45;&gt;Node25 -->
<g id="edge27" class="edge">
<title>Node22&#45;&gt;Node25</title>
<path fill="none" stroke="midnightblue" d="M730.62,-296.47C756.28,-287.75 794.25,-275.48 828,-267 838.79,-264.29 850.28,-261.75 861.56,-259.46"/>
<polygon fill="midnightblue" stroke="midnightblue" points="862.26,-262.88 871.39,-257.5 860.9,-256.02 862.26,-262.88"/>
</g>
<!-- Node26 -->
<g id="node26" class="node">
<title>Node26</title>
<g id="a_node26"><a xlink:href="class_user_controller.html#a587c55687141d18f375e0504ea4649fa" target="_top" xlink:title="Gets the player controller for the current player">
<polygon fill="white" stroke="black" points="841.5,-276.5 841.5,-297.5 1026.5,-297.5 1026.5,-276.5 841.5,-276.5"/>
<text text-anchor="middle" x="934" y="-283.9" font-family="Helvetica,sans-Serif" font-size="12.00">UserController.GetCurrentPlayer</text>
</a>
</g>
</g>
<!-- Node22&#45;&gt;Node26 -->
<g id="edge28" class="edge">
<title>Node22&#45;&gt;Node26</title>
<path fill="none" stroke="midnightblue" d="M767.13,-301.27C787.05,-299.55 809.37,-297.63 831.02,-295.77"/>
<polygon fill="midnightblue" stroke="midnightblue" points="831.58,-299.24 841.24,-294.89 830.98,-292.26 831.58,-299.24"/>
</g>
<!-- Node27 -->
<g id="node27" class="node">
<title>Node27</title>
<g id="a_node27"><a xlink:href="class_u_i_handler.html#a33d33813339ed163ad4ab8708226f911" target="_top" xlink:title="Updates the current turn text">
<polygon fill="white" stroke="black" points="838.5,-316.5 838.5,-337.5 1029.5,-337.5 1029.5,-316.5 838.5,-316.5"/>
<text text-anchor="middle" x="934" y="-323.9" font-family="Helvetica,sans-Serif" font-size="12.00">UIHandler.UpdateCurrentTurnText</text>
</a>
</g>
</g>
<!-- Node22&#45;&gt;Node27 -->
<g id="edge31" class="edge">
<title>Node22&#45;&gt;Node27</title>
<path fill="none" stroke="midnightblue" d="M767.13,-312.73C786.15,-314.37 807.36,-316.19 828.09,-317.98"/>
<polygon fill="midnightblue" stroke="midnightblue" points="827.95,-321.48 838.21,-318.85 828.55,-314.5 827.95,-321.48"/>
</g>
<!-- Node26&#45;&gt;Node5 -->
<g id="edge29" class="edge">
<title>Node26&#45;&gt;Node5</title>
<path fill="none" stroke="midnightblue" d="M1003.99,-297.5C1016.13,-300.09 1028.54,-303.24 1040,-307 1090.81,-323.69 1146.16,-352.6 1178.1,-370.44"/>
<polygon fill="midnightblue" stroke="midnightblue" points="1176.42,-373.51 1186.85,-375.37 1179.86,-367.41 1176.42,-373.51"/>
</g>
<!-- Node28&#45;&gt;Node25 -->
<g id="edge33" class="edge">
<title>Node28&#45;&gt;Node25</title>
<path fill="none" stroke="midnightblue" d="M731.86,-179.52C773.2,-193.39 846.03,-217.82 891.79,-233.17"/>
<polygon fill="midnightblue" stroke="midnightblue" points="890.8,-236.54 901.4,-236.4 893.03,-229.9 890.8,-236.54"/>
</g>
<!-- Node29 -->
<g id="node29" class="node">
<title>Node29</title>
<g id="a_node29"><a xlink:href="class_a_i_controller_script.html#ab124aec8211aa7b8f00c6ef5db6bc96a" target="_top" xlink:title="for out putting the debug stack if outputDebugText is true, it will out put the the console as well">
<polygon fill="white" stroke="black" points="1596,-117.5 1596,-138.5 1776,-138.5 1776,-117.5 1596,-117.5"/>
<text text-anchor="middle" x="1686" y="-124.9" font-family="Helvetica,sans-Serif" font-size="12.00">AIControllerScript.OutputDebug</text>
</a>
</g>
</g>
<!-- Node28&#45;&gt;Node29 -->
<g id="edge34" class="edge">
<title>Node28&#45;&gt;Node29</title>
<path fill="none" stroke="midnightblue" d="M770.67,-158.46C778.13,-155.95 785.39,-152.84 792,-149 812.68,-136.98 806.15,-118.73 828,-109 962.56,-49.07 1401.46,-93.19 1593.57,-116.27"/>
<polygon fill="midnightblue" stroke="midnightblue" points="1593.29,-119.76 1603.64,-117.49 1594.13,-112.81 1593.29,-119.76"/>
</g>
<!-- Node30 -->
<g id="node30" class="node">
<title>Node30</title>
<g id="a_node30"><a xlink:href="class_a_i_controller_script.html#acb4af4c99bf1e7610b45d9f81457d625" target="_top" xlink:title="have AI to start turn">
<polygon fill="white" stroke="black" points="855,-118.5 855,-139.5 1013,-139.5 1013,-118.5 855,-118.5"/>
<text text-anchor="middle" x="934" y="-125.9" font-family="Helvetica,sans-Serif" font-size="12.00">AIControllerScript.StartTurn</text>
</a>
</g>
</g>
<!-- Node28&#45;&gt;Node30 -->
<g id="edge35" class="edge">
<title>Node28&#45;&gt;Node30</title>
<path fill="none" stroke="midnightblue" d="M761.59,-158.49C792.3,-153.21 829.71,-146.77 861.73,-141.26"/>
<polygon fill="midnightblue" stroke="midnightblue" points="862.66,-144.65 871.92,-139.51 861.47,-137.75 862.66,-144.65"/>
</g>
<!-- Node33 -->
<g id="node33" class="node">
<title>Node33</title>
<g id="a_node33"><a xlink:href="class_player_master_controller.html#a59a900c17a29aece6fab552e723e22a6" target="_top" xlink:title=" ">
<polygon fill="white" stroke="black" points="842.5,-158.5 842.5,-179.5 1025.5,-179.5 1025.5,-158.5 842.5,-158.5"/>
<text text-anchor="middle" x="934" y="-165.9" font-family="Helvetica,sans-Serif" font-size="12.00">PlayerMasterController.ToString</text>
</a>
</g>
</g>
<!-- Node28&#45;&gt;Node33 -->
<g id="edge40" class="edge">
<title>Node28&#45;&gt;Node33</title>
<path fill="none" stroke="midnightblue" d="M780.19,-169C796.89,-169 814.71,-169 832.07,-169"/>
<polygon fill="midnightblue" stroke="midnightblue" points="832.23,-172.5 842.23,-169 832.23,-165.5 832.23,-172.5"/>
</g>
<!-- Node31 -->
<g id="node31" class="node">
<title>Node31</title>
<g id="a_node31"><a xlink:href="class_a_i_controller_script.html#aaee909cd0f0ffdedd8d8425607d7ccb5" target="_top" xlink:title="to set the AI&#39;s mode">
<polygon fill="white" stroke="black" points="1121,-118.5 1121,-139.5 1291,-139.5 1291,-118.5 1121,-118.5"/>
<text text-anchor="middle" x="1206" y="-125.9" font-family="Helvetica,sans-Serif" font-size="12.00">AIControllerScript.SetAIMode</text>
</a>
</g>
</g>
<!-- Node30&#45;&gt;Node31 -->
<g id="edge36" class="edge">
<title>Node30&#45;&gt;Node31</title>
<path fill="none" stroke="midnightblue" d="M1013.1,-129C1043.59,-129 1078.83,-129 1110.72,-129"/>
<polygon fill="midnightblue" stroke="midnightblue" points="1110.95,-132.5 1120.95,-129 1110.95,-125.5 1110.95,-132.5"/>
</g>
<!-- Node31&#45;&gt;Node29 -->
<g id="edge39" class="edge">
<title>Node31&#45;&gt;Node29</title>
<path fill="none" stroke="midnightblue" d="M1291.08,-128.82C1373.28,-128.65 1498.44,-128.39 1585.54,-128.21"/>
<polygon fill="midnightblue" stroke="midnightblue" points="1585.71,-131.71 1595.71,-128.19 1585.7,-124.71 1585.71,-131.71"/>
</g>
<!-- Node32 -->
<g id="node32" class="node">
<title>Node32</title>
<g id="a_node32"><a xlink:href="class_a_i_controller_script.html#afcb2875a5501f07a7f44d0fa720266f3" target="_top" xlink:title="to delay the time for the next time the AI does something in the Update">
<polygon fill="white" stroke="black" points="1372,-156.5 1372,-177.5 1560,-177.5 1560,-156.5 1372,-156.5"/>
<text text-anchor="middle" x="1466" y="-163.9" font-family="Helvetica,sans-Serif" font-size="12.00">AIControllerScript.DelayDecision</text>
</a>
</g>
</g>
<!-- Node31&#45;&gt;Node32 -->
<g id="edge37" class="edge">
<title>Node31&#45;&gt;Node32</title>
<path fill="none" stroke="midnightblue" d="M1278.52,-139.53C1310.96,-144.31 1349.49,-149.99 1383.08,-154.93"/>
<polygon fill="midnightblue" stroke="midnightblue" points="1382.93,-158.45 1393.34,-156.44 1383.95,-151.52 1382.93,-158.45"/>
</g>
<!-- Node32&#45;&gt;Node29 -->
<g id="edge38" class="edge">
<title>Node32&#45;&gt;Node29</title>
<path fill="none" stroke="midnightblue" d="M1525.71,-156.5C1553.57,-151.51 1587.05,-145.52 1616.11,-140.32"/>
<polygon fill="midnightblue" stroke="midnightblue" points="1616.96,-143.73 1626.19,-138.52 1615.73,-136.84 1616.96,-143.73"/>
</g>
</g>
</svg>
        <g id="navigator" transform="translate(0 0)" fill="#404254">
                <rect fill="#f2f5e9" fill-opacity="0.5" stroke="#606060" stroke-width=".5" x="0" y="0" width="60" height="60"/>
                <use id="zoomplus" xlink:href="#zoomPlus" x="17" y="9" onmousedown="handleZoom(evt,'in')"/>
                <use id="zoomminus" xlink:href="#zoomMin" x="42" y="9" onmousedown="handleZoom(evt,'out')"/>
                <use id="reset" xlink:href="#resetDef" x="30" y="36" onmousedown="handleReset()"/>
                <g id="arrowUp" xlink:href="#dirArrow" transform="translate(30 24)" onmousedown="handlePan(0,-1)">
                  <use xlink:href="#rim" fill="#404040">
                        <set attributeName="fill" to="#808080" begin="arrowUp.mouseover" end="arrowUp.mouseout"/>
                  </use>
                  <path fill="none" stroke="white" stroke-width="1.5" d="M0,-3.0v7 M-2.5,-0.5L0,-3.0L2.5,-0.5"/>
                </g>
                <g id="arrowRight" xlink:href="#dirArrow" transform="rotate(90) translate(36 -43)" onmousedown="handlePan(1,0)">
                  <use xlink:href="#rim" fill="#404040">
                        <set attributeName="fill" to="#808080" begin="arrowRight.mouseover" end="arrowRight.mouseout"/>
                  </use>
                  <path fill="none" stroke="white" stroke-width="1.5" d="M0,-3.0v7 M-2.5,-0.5L0,-3.0L2.5,-0.5"/>
                </g>
                <g id="arrowDown" xlink:href="#dirArrow" transform="rotate(180) translate(-30 -48)" onmousedown="handlePan(0,1)">
                  <use xlink:href="#rim" fill="#404040">
                        <set attributeName="fill" to="#808080" begin="arrowDown.mouseover" end="arrowDown.mouseout"/>
                  </use>
                  <path fill="none" stroke="white" stroke-width="1.5" d="M0,-3.0v7 M-2.5,-0.5L0,-3.0L2.5,-0.5"/>
                </g>
                <g id="arrowLeft" xlink:href="#dirArrow" transform="rotate(270) translate(-36 17)" onmousedown="handlePan(-1,0)">
                  <use xlink:href="#rim" fill="#404040">
                        <set attributeName="fill" to="#808080" begin="arrowLeft.mouseover" end="arrowLeft.mouseout"/>
                  </use>
                  <path fill="none" stroke="white" stroke-width="1.5" d="M0,-3.0v7 M-2.5,-0.5L0,-3.0L2.5,-0.5"/>
                </g>
        </g>
        <svg viewBox="0 0 15 15" width="100%" height="30px" preserveAspectRatio="xMaxYMin meet">
         <g id="arrow_out" transform="scale(0.3 0.3)">
          <a xlink:href="class_user_controller_ab90611f541e20c125133d09b62407f41_cgraph_org.svg" target="_base">
           <rect id="button" ry="5" rx="5" y="6" x="6" height="38" width="38"
                fill="#f2f5e9" fill-opacity="0.5" stroke="#606060" stroke-width="1.0"/>
           <path id="arrow"
             d="M 11.500037,31.436501 C 11.940474,20.09759 22.043105,11.32322 32.158766,21.979434 L 37.068811,17.246167 C 37.068811,17.246167 37.088388,32 37.088388,32 L 22.160133,31.978069 C 22.160133,31.978069 26.997745,27.140456 26.997745,27.140456 C 18.528582,18.264221 13.291696,25.230495 11.500037,31.436501 z"
             style="fill:#404040;"/>
          </a>
         </g>
        </svg>
</svg>
