<?xml version="1.0" encoding="UTF-8" standalone="no"?>
<!DOCTYPE svg PUBLIC "-//W3C//DTD SVG 1.1//EN"
 "http://www.w3.org/Graphics/SVG/1.1/DTD/svg11.dtd">
<!-- Generated by graphviz version 2.47.1 (20210417.1919)
 -->
<!-- Title: TurnController.StartGame Pages: 1 -->
<svg width="541pt" height="30pt"
 viewBox="0.00 0.00 541.00 30.00" xmlns="http://www.w3.org/2000/svg" xmlns:xlink="http://www.w3.org/1999/xlink">
<g id="graph0" class="graph" transform="scale(1 1) rotate(0) translate(4 26)">
<title>TurnController.StartGame</title>
<polygon fill="white" stroke="transparent" points="-4,4 -4,-26 537,-26 537,4 -4,4"/>
<!-- Node1 -->
<g id="node1" class="node">
<title>Node1</title>
<g id="a_node1"><a xlink:title=" ">
<polygon fill="#bfbfbf" stroke="black" points="384,-0.5 384,-21.5 533,-21.5 533,-0.5 384,-0.5"/>
<text text-anchor="middle" x="458.5" y="-7.9" font-family="Helvetica,sans-Serif" font-size="12.00">TurnController.StartGame</text>
</a>
</g>
</g>
<!-- Node2 -->
<g id="node2" class="node">
<title>Node2</title>
<g id="a_node2"><a xlink:href="class_game_manager_script.html#a12cbaf1ff00804887619c07c7267cf31" target="_top" xlink:title="starting and initialing the game and it&#39;s components">
<polygon fill="white" stroke="black" points="162,-0.5 162,-21.5 348,-21.5 348,-0.5 162,-0.5"/>
<text text-anchor="middle" x="255" y="-7.9" font-family="Helvetica,sans-Serif" font-size="12.00">GameManagerScript.StartGame</text>
</a>
</g>
</g>
<!-- Node1&#45;&gt;Node2 -->
<g id="edge1" class="edge">
<title>Node1&#45;&gt;Node2</title>
<path fill="none" stroke="midnightblue" d="M373.74,-11C365.34,-11 356.77,-11 348.28,-11"/>
<polygon fill="midnightblue" stroke="midnightblue" points="373.9,-14.5 383.9,-11 373.9,-7.5 373.9,-14.5"/>
</g>
<!-- Node3 -->
<g id="node3" class="node">
<title>Node3</title>
<g id="a_node3"><a xlink:href="class_suggestion_test.html#a904e4481863c3e620574eba37c993a26" target="_top" xlink:title=" ">
<polygon fill="white" stroke="black" points="0,-0.5 0,-21.5 126,-21.5 126,-0.5 0,-0.5"/>
<text text-anchor="middle" x="63" y="-7.9" font-family="Helvetica,sans-Serif" font-size="12.00">SuggestionTest.Start</text>
</a>
</g>
</g>
<!-- Node2&#45;&gt;Node3 -->
<g id="edge2" class="edge">
<title>Node2&#45;&gt;Node3</title>
<path fill="none" stroke="midnightblue" d="M151.57,-11C142.9,-11 134.3,-11 126.08,-11"/>
<polygon fill="midnightblue" stroke="midnightblue" points="151.78,-14.5 161.78,-11 151.78,-7.5 151.78,-14.5"/>
</g>
</g>
</svg>
