<?xml version="1.0" encoding="UTF-8" standalone="no"?>
<!DOCTYPE svg PUBLIC "-//W3C//DTD SVG 1.1//EN"
 "http://www.w3.org/Graphics/SVG/1.1/DTD/svg11.dtd">
<!-- Generated by graphviz version 2.47.1 (20210417.1919)
 -->
<!-- Title: BoardTileScript Pages: 1 -->
<!--zoomable 688 -->
<svg id="main" version="1.1" xmlns="http://www.w3.org/2000/svg" xmlns:xlink="http://www.w3.org/1999/xlink" xml:space="preserve" onload="init(evt)">
<style type="text/css"><![CDATA[
.edge:hover path { stroke: red; }
.edge:hover polygon { stroke: red; fill: red; }
]]></style>
<script type="text/javascript"><![CDATA[
var edges = document.getElementsByTagName('g');
if (edges && edges.length) {
  for (var i=0;i<edges.length;i++) {
    if (edges[i].id.substr(0,4)=='edge') {
      edges[i].setAttribute('class','edge');
    }
  }
}
]]></script>
        <defs>
                <circle id="rim" cx="0" cy="0" r="7"/>
                <circle id="rim2" cx="0" cy="0" r="3.5"/>
                <g id="zoomPlus">
                        <use xlink:href="#rim" fill="#404040">
                                <set attributeName="fill" to="#808080" begin="zoomplus.mouseover" end="zoomplus.mouseout"/>
                        </use>
                        <path d="M-4,0h8M0,-4v8" fill="none" stroke="white" stroke-width="1.5" pointer-events="none"/>
                </g>
                <g id="zoomMin">
                        <use xlink:href="#rim" fill="#404040">
                                <set attributeName="fill" to="#808080" begin="zoomminus.mouseover" end="zoomminus.mouseout"/>
                        </use>
                        <path d="M-4,0h8" fill="none" stroke="white" stroke-width="1.5" pointer-events="none"/>
                </g>
                <g id="dirArrow">
                        <path fill="none" stroke="white" stroke-width="1.5" d="M0,-3.0v7 M-2.5,-0.5L0,-3.0L2.5,-0.5"/>
                </g>
               <g id="resetDef">
                       <use xlink:href="#rim2" fill="#404040">
                               <set attributeName="fill" to="#808080" begin="reset.mouseover" end="reset.mouseout"/>
                       </use>
               </g>
        </defs>

<script type="text/javascript">
var viewWidth = 776;
var viewHeight = 688;
var sectionId = 'dynsection-0';
</script>
<script xlink:href="svgpan.js"/>
<svg id="graph" class="graph">
<g id="viewport">
<title>BoardTileScript</title>
<polygon fill="white" stroke="transparent" points="-4,4 -4,-684 772,-684 772,4 -4,4"/>
<!-- Node1 -->
<g id="node1" class="node">
<title>Node1</title>
<g id="a_node1"><a xlink:title="Super class for all tiles">
<polygon fill="#bfbfbf" stroke="black" points="336,-295.5 336,-579.5 479,-579.5 479,-295.5 336,-295.5"/>
<text text-anchor="middle" x="407.5" y="-565.9" font-family="Helvetica,sans-Serif" font-size="12.00">BoardTileScript</text>
<polyline fill="none" stroke="black" points="336,-558.5 479,-558.5 "/>
<text text-anchor="start" x="344" y="-544.9" font-family="Helvetica,sans-Serif" font-size="12.00">+ GridPosition</text>
<text text-anchor="start" x="344" y="-531.9" font-family="Helvetica,sans-Serif" font-size="12.00">+ TileType</text>
<text text-anchor="start" x="344" y="-518.9" font-family="Helvetica,sans-Serif" font-size="12.00">+ PlayerToken</text>
<text text-anchor="start" x="344" y="-505.9" font-family="Helvetica,sans-Serif" font-size="12.00">+ BoardManager</text>
<text text-anchor="start" x="344" y="-492.9" font-family="Helvetica,sans-Serif" font-size="12.00">&#45; gridPosition</text>
<text text-anchor="start" x="344" y="-479.9" font-family="Helvetica,sans-Serif" font-size="12.00">&#45; tileType</text>
<text text-anchor="start" x="344" y="-466.9" font-family="Helvetica,sans-Serif" font-size="12.00">&#45; boardTileEffectHandler</text>
<text text-anchor="start" x="344" y="-453.9" font-family="Helvetica,sans-Serif" font-size="12.00">&#45; playerToken</text>
<text text-anchor="start" x="344" y="-440.9" font-family="Helvetica,sans-Serif" font-size="12.00">&#45; boardManager</text>
<polyline fill="none" stroke="black" points="336,-433.5 479,-433.5 "/>
<text text-anchor="start" x="344" y="-419.9" font-family="Helvetica,sans-Serif" font-size="12.00">+ ClearTile()</text>
<text text-anchor="start" x="344" y="-406.9" font-family="Helvetica,sans-Serif" font-size="12.00">+ SelectTile()</text>
<text text-anchor="start" x="344" y="-393.9" font-family="Helvetica,sans-Serif" font-size="12.00">+ GlowTile()</text>
<text text-anchor="start" x="344" y="-380.9" font-family="Helvetica,sans-Serif" font-size="12.00">+ SetToken()</text>
<text text-anchor="start" x="344" y="-367.9" font-family="Helvetica,sans-Serif" font-size="12.00">+ IsEmpty()</text>
<text text-anchor="start" x="344" y="-354.9" font-family="Helvetica,sans-Serif" font-size="12.00">+ GetTileNeighbours()</text>
<text text-anchor="start" x="344" y="-341.9" font-family="Helvetica,sans-Serif" font-size="12.00">+ CanMove()</text>
<text text-anchor="start" x="344" y="-328.9" font-family="Helvetica,sans-Serif" font-size="12.00">+ ToString()</text>
<text text-anchor="start" x="344" y="-315.9" font-family="Helvetica,sans-Serif" font-size="12.00"># Init()</text>
<text text-anchor="start" x="344" y="-302.9" font-family="Helvetica,sans-Serif" font-size="12.00">&#45; Start()</text>
</a>
</g>
</g>
<!-- Node3 -->
<g id="node3" class="node">
<title>Node3</title>
<g id="a_node3"><a xlink:href="class_free_roll_board_tile_script.html" target="_top" xlink:title="Script for the free suggestion board tile Gameobject">
<polygon fill="white" stroke="black" points="0,-98 0,-161 143,-161 143,-98 0,-98"/>
<text text-anchor="middle" x="71.5" y="-147.4" font-family="Helvetica,sans-Serif" font-size="12.00">FreeRollBoardTileScript</text>
<polyline fill="none" stroke="black" points="0,-140 143,-140 "/>
<text text-anchor="middle" x="71.5" y="-126.4" font-family="Helvetica,sans-Serif" font-size="12.00"> </text>
<polyline fill="none" stroke="black" points="0,-119 143,-119 "/>
<text text-anchor="middle" x="71.5" y="-105.4" font-family="Helvetica,sans-Serif" font-size="12.00"> </text>
</a>
</g>
</g>
<!-- Node1&#45;&gt;Node3 -->
<g id="edge2" class="edge">
<title>Node1&#45;&gt;Node3</title>
<path fill="none" stroke="midnightblue" d="M326.93,-391.98C273.35,-359.75 203.68,-312.57 152.5,-259 124.35,-229.54 100.68,-188.84 86.33,-161.19"/>
<polygon fill="none" stroke="midnightblue" points="325.34,-395.11 335.72,-397.22 328.93,-389.1 325.34,-395.11"/>
</g>
<!-- Node4 -->
<g id="node4" class="node">
<title>Node4</title>
<g id="a_node4"><a xlink:href="class_free_suggestion_tile_script.html" target="_top" xlink:title="Script for the free suggestion board tile Gameobject">
<polygon fill="white" stroke="black" points="161.5,-98 161.5,-161 311.5,-161 311.5,-98 161.5,-98"/>
<text text-anchor="middle" x="236.5" y="-147.4" font-family="Helvetica,sans-Serif" font-size="12.00">FreeSuggestionTileScript</text>
<polyline fill="none" stroke="black" points="161.5,-140 311.5,-140 "/>
<text text-anchor="middle" x="236.5" y="-126.4" font-family="Helvetica,sans-Serif" font-size="12.00"> </text>
<polyline fill="none" stroke="black" points="161.5,-119 311.5,-119 "/>
<text text-anchor="middle" x="236.5" y="-105.4" font-family="Helvetica,sans-Serif" font-size="12.00"> </text>
</a>
</g>
</g>
<!-- Node1&#45;&gt;Node4 -->
<g id="edge3" class="edge">
<title>Node1&#45;&gt;Node4</title>
<path fill="none" stroke="midnightblue" d="M330.98,-299.57C302.14,-247.96 271.92,-193.89 253.65,-161.18"/>
<polygon fill="none" stroke="midnightblue" points="328.04,-301.48 335.97,-308.5 334.15,-298.06 328.04,-301.48"/>
</g>
<!-- Node5 -->
<g id="node5" class="node">
<title>Node5</title>
<g id="a_node5"><a xlink:href="class_room_entry_board_tile_script.html" target="_top" xlink:title="Script for the room entry board tile GameObject">
<polygon fill="white" stroke="black" points="329.5,-0.5 329.5,-258.5 485.5,-258.5 485.5,-0.5 329.5,-0.5"/>
<text text-anchor="middle" x="407.5" y="-244.9" font-family="Helvetica,sans-Serif" font-size="12.00">RoomEntryBoardTileScript</text>
<polyline fill="none" stroke="black" points="329.5,-237.5 485.5,-237.5 "/>
<text text-anchor="start" x="337.5" y="-223.9" font-family="Helvetica,sans-Serif" font-size="12.00">+ Room</text>
<text text-anchor="start" x="337.5" y="-210.9" font-family="Helvetica,sans-Serif" font-size="12.00">+ RoomScript</text>
<text text-anchor="start" x="337.5" y="-197.9" font-family="Helvetica,sans-Serif" font-size="12.00">+ EntryPoint</text>
<text text-anchor="start" x="337.5" y="-184.9" font-family="Helvetica,sans-Serif" font-size="12.00">&#45; room</text>
<text text-anchor="start" x="337.5" y="-171.9" font-family="Helvetica,sans-Serif" font-size="12.00">&#45; entryPoint</text>
<text text-anchor="start" x="337.5" y="-158.9" font-family="Helvetica,sans-Serif" font-size="12.00">&#45; roomScript</text>
<text text-anchor="start" x="337.5" y="-145.9" font-family="Helvetica,sans-Serif" font-size="12.00">&#45; door</text>
<text text-anchor="start" x="337.5" y="-132.9" font-family="Helvetica,sans-Serif" font-size="12.00">&#45; exitTarget</text>
<polyline fill="none" stroke="black" points="329.5,-125.5 485.5,-125.5 "/>
<text text-anchor="start" x="337.5" y="-111.9" font-family="Helvetica,sans-Serif" font-size="12.00">+ ToString()</text>
<text text-anchor="start" x="337.5" y="-98.9" font-family="Helvetica,sans-Serif" font-size="12.00">+ ExitRoomDelay()</text>
<text text-anchor="start" x="337.5" y="-85.9" font-family="Helvetica,sans-Serif" font-size="12.00">~ EnterRoom()</text>
<text text-anchor="start" x="337.5" y="-72.9" font-family="Helvetica,sans-Serif" font-size="12.00">~ ExitRoom()</text>
<text text-anchor="start" x="337.5" y="-59.9" font-family="Helvetica,sans-Serif" font-size="12.00">&#45; Start()</text>
<text text-anchor="start" x="337.5" y="-46.9" font-family="Helvetica,sans-Serif" font-size="12.00">&#45; GetDoor()</text>
<text text-anchor="start" x="337.5" y="-33.9" font-family="Helvetica,sans-Serif" font-size="12.00">&#45; GetRoomScript()</text>
<text text-anchor="start" x="337.5" y="-20.9" font-family="Helvetica,sans-Serif" font-size="12.00">&#45; GetEntryPoint()</text>
<text text-anchor="start" x="337.5" y="-7.9" font-family="Helvetica,sans-Serif" font-size="12.00">&#45; EnterRoomAnimation()</text>
</a>
</g>
</g>
<!-- Node1&#45;&gt;Node5 -->
<g id="edge4" class="edge">
<title>Node1&#45;&gt;Node5</title>
<path fill="none" stroke="midnightblue" d="M407.5,-285.11C407.5,-276.21 407.5,-267.31 407.5,-258.52"/>
<polygon fill="none" stroke="midnightblue" points="404,-285.14 407.5,-295.14 411,-285.14 404,-285.14"/>
</g>
<!-- Node6 -->
<g id="node6" class="node">
<title>Node6</title>
<g id="a_node6"><a xlink:href="class_shortcut_board_tile_script.html" target="_top" xlink:title="Class for the Shortcut board tile Gameobject">
<polygon fill="white" stroke="black" points="504,-46 504,-213 645,-213 645,-46 504,-46"/>
<text text-anchor="middle" x="574.5" y="-199.4" font-family="Helvetica,sans-Serif" font-size="12.00">ShortcutBoardTileScript</text>
<polyline fill="none" stroke="black" points="504,-192 645,-192 "/>
<text text-anchor="start" x="512" y="-178.4" font-family="Helvetica,sans-Serif" font-size="12.00">+ ShortcutFrom</text>
<text text-anchor="start" x="512" y="-165.4" font-family="Helvetica,sans-Serif" font-size="12.00">+ ShortcutTo</text>
<text text-anchor="start" x="512" y="-152.4" font-family="Helvetica,sans-Serif" font-size="12.00">+ RoomScript</text>
<text text-anchor="start" x="512" y="-139.4" font-family="Helvetica,sans-Serif" font-size="12.00">&#45; shortcutFrom</text>
<text text-anchor="start" x="512" y="-126.4" font-family="Helvetica,sans-Serif" font-size="12.00">&#45; shortcutTo</text>
<text text-anchor="start" x="512" y="-113.4" font-family="Helvetica,sans-Serif" font-size="12.00">&#45; roomScript</text>
<polyline fill="none" stroke="black" points="504,-106 645,-106 "/>
<text text-anchor="start" x="512" y="-92.4" font-family="Helvetica,sans-Serif" font-size="12.00">+ SetShortcutRooms()</text>
<text text-anchor="start" x="512" y="-79.4" font-family="Helvetica,sans-Serif" font-size="12.00">+ ToString()</text>
<text text-anchor="start" x="512" y="-66.4" font-family="Helvetica,sans-Serif" font-size="12.00">&#45; Start()</text>
<text text-anchor="start" x="512" y="-53.4" font-family="Helvetica,sans-Serif" font-size="12.00">&#45; GetRoomScript()</text>
</a>
</g>
</g>
<!-- Node1&#45;&gt;Node6 -->
<g id="edge5" class="edge">
<title>Node1&#45;&gt;Node6</title>
<path fill="none" stroke="midnightblue" d="M483.87,-296.56C499.45,-268.02 515.36,-238.87 529.41,-213.12"/>
<polygon fill="none" stroke="midnightblue" points="480.77,-294.94 479.05,-305.4 486.91,-298.3 480.77,-294.94"/>
</g>
<!-- Node7 -->
<g id="node7" class="node">
<title>Node7</title>
<g id="a_node7"><a xlink:href="class_start_tile_script.html" target="_top" xlink:title="Class for the start tile Gameobject">
<polygon fill="white" stroke="black" points="663,-59 663,-200 768,-200 768,-59 663,-59"/>
<text text-anchor="middle" x="715.5" y="-186.4" font-family="Helvetica,sans-Serif" font-size="12.00">StartTileScript</text>
<polyline fill="none" stroke="black" points="663,-179 768,-179 "/>
<text text-anchor="start" x="671" y="-165.4" font-family="Helvetica,sans-Serif" font-size="12.00">+ Character</text>
<text text-anchor="start" x="671" y="-152.4" font-family="Helvetica,sans-Serif" font-size="12.00">&#45; character</text>
<text text-anchor="start" x="671" y="-139.4" font-family="Helvetica,sans-Serif" font-size="12.00">&#45; tileText</text>
<polyline fill="none" stroke="black" points="663,-132 768,-132 "/>
<text text-anchor="start" x="671" y="-118.4" font-family="Helvetica,sans-Serif" font-size="12.00">+ SetCharacter()</text>
<text text-anchor="start" x="671" y="-105.4" font-family="Helvetica,sans-Serif" font-size="12.00">+ SetTileColour()</text>
<text text-anchor="start" x="671" y="-92.4" font-family="Helvetica,sans-Serif" font-size="12.00">+ ToString()</text>
<text text-anchor="start" x="671" y="-79.4" font-family="Helvetica,sans-Serif" font-size="12.00">&#45; Awake()</text>
<text text-anchor="start" x="671" y="-66.4" font-family="Helvetica,sans-Serif" font-size="12.00">&#45; SetTileText()</text>
</a>
</g>
</g>
<!-- Node1&#45;&gt;Node7 -->
<g id="edge6" class="edge">
<title>Node1&#45;&gt;Node7</title>
<path fill="none" stroke="midnightblue" d="M487.81,-393.18C540.55,-361.55 608.11,-314.59 654.5,-259 668.9,-241.75 680.77,-220.52 690.09,-200.33"/>
<polygon fill="none" stroke="midnightblue" points="485.97,-390.21 479.15,-398.32 489.54,-396.23 485.97,-390.21"/>
</g>
<!-- Node2 -->
<g id="node2" class="node">
<title>Node2</title>
<g id="a_node2"><a xlink:title=" ">
<polygon fill="white" stroke="#bfbfbf" points="358.5,-616.5 358.5,-679.5 456.5,-679.5 456.5,-616.5 358.5,-616.5"/>
<text text-anchor="middle" x="407.5" y="-665.9" font-family="Helvetica,sans-Serif" font-size="12.00">MonoBehaviour</text>
<polyline fill="none" stroke="#bfbfbf" points="358.5,-658.5 456.5,-658.5 "/>
<text text-anchor="middle" x="407.5" y="-644.9" font-family="Helvetica,sans-Serif" font-size="12.00"> </text>
<polyline fill="none" stroke="#bfbfbf" points="358.5,-637.5 456.5,-637.5 "/>
<text text-anchor="middle" x="407.5" y="-623.9" font-family="Helvetica,sans-Serif" font-size="12.00"> </text>
</a>
</g>
</g>
<!-- Node2&#45;&gt;Node1 -->
<g id="edge1" class="edge">
<title>Node2&#45;&gt;Node1</title>
<path fill="none" stroke="midnightblue" d="M407.5,-606.07C407.5,-597.95 407.5,-589.01 407.5,-579.61"/>
<polygon fill="none" stroke="midnightblue" points="404,-606.24 407.5,-616.24 411,-606.24 404,-606.24"/>
</g>
</g>
</svg>
        <g id="navigator" transform="translate(0 0)" fill="#404254">
                <rect fill="#f2f5e9" fill-opacity="0.5" stroke="#606060" stroke-width=".5" x="0" y="0" width="60" height="60"/>
                <use id="zoomplus" xlink:href="#zoomPlus" x="17" y="9" onmousedown="handleZoom(evt,'in')"/>
                <use id="zoomminus" xlink:href="#zoomMin" x="42" y="9" onmousedown="handleZoom(evt,'out')"/>
                <use id="reset" xlink:href="#resetDef" x="30" y="36" onmousedown="handleReset()"/>
                <g id="arrowUp" xlink:href="#dirArrow" transform="translate(30 24)" onmousedown="handlePan(0,-1)">
                  <use xlink:href="#rim" fill="#404040">
                        <set attributeName="fill" to="#808080" begin="arrowUp.mouseover" end="arrowUp.mouseout"/>
                  </use>
                  <path fill="none" stroke="white" stroke-width="1.5" d="M0,-3.0v7 M-2.5,-0.5L0,-3.0L2.5,-0.5"/>
                </g>
                <g id="arrowRight" xlink:href="#dirArrow" transform="rotate(90) translate(36 -43)" onmousedown="handlePan(1,0)">
                  <use xlink:href="#rim" fill="#404040">
                        <set attributeName="fill" to="#808080" begin="arrowRight.mouseover" end="arrowRight.mouseout"/>
                  </use>
                  <path fill="none" stroke="white" stroke-width="1.5" d="M0,-3.0v7 M-2.5,-0.5L0,-3.0L2.5,-0.5"/>
                </g>
                <g id="arrowDown" xlink:href="#dirArrow" transform="rotate(180) translate(-30 -48)" onmousedown="handlePan(0,1)">
                  <use xlink:href="#rim" fill="#404040">
                        <set attributeName="fill" to="#808080" begin="arrowDown.mouseover" end="arrowDown.mouseout"/>
                  </use>
                  <path fill="none" stroke="white" stroke-width="1.5" d="M0,-3.0v7 M-2.5,-0.5L0,-3.0L2.5,-0.5"/>
                </g>
                <g id="arrowLeft" xlink:href="#dirArrow" transform="rotate(270) translate(-36 17)" onmousedown="handlePan(-1,0)">
                  <use xlink:href="#rim" fill="#404040">
                        <set attributeName="fill" to="#808080" begin="arrowLeft.mouseover" end="arrowLeft.mouseout"/>
                  </use>
                  <path fill="none" stroke="white" stroke-width="1.5" d="M0,-3.0v7 M-2.5,-0.5L0,-3.0L2.5,-0.5"/>
                </g>
        </g>
        <svg viewBox="0 0 15 15" width="100%" height="30px" preserveAspectRatio="xMaxYMin meet">
         <g id="arrow_out" transform="scale(0.3 0.3)">
          <a xlink:href="class_board_tile_script__inherit__graph_org.svg" target="_base">
           <rect id="button" ry="5" rx="5" y="6" x="6" height="38" width="38"
                fill="#f2f5e9" fill-opacity="0.5" stroke="#606060" stroke-width="1.0"/>
           <path id="arrow"
             d="M 11.500037,31.436501 C 11.940474,20.09759 22.043105,11.32322 32.158766,21.979434 L 37.068811,17.246167 C 37.068811,17.246167 37.088388,32 37.088388,32 L 22.160133,31.978069 C 22.160133,31.978069 26.997745,27.140456 26.997745,27.140456 C 18.528582,18.264221 13.291696,25.230495 11.500037,31.436501 z"
             style="fill:#404040;"/>
          </a>
         </g>
        </svg>
</svg>
