<?xml version="1.0" encoding="UTF-8" standalone="no"?>
<!DOCTYPE svg PUBLIC "-//W3C//DTD SVG 1.1//EN"
 "http://www.w3.org/Graphics/SVG/1.1/DTD/svg11.dtd">
<!-- Generated by graphviz version 2.47.1 (20210417.1919)
 -->
<!-- Title: BoardBuilder.BuildBoard Pages: 1 -->
<!--zoomable 230 -->
<svg id="main" version="1.1" xmlns="http://www.w3.org/2000/svg" xmlns:xlink="http://www.w3.org/1999/xlink" xml:space="preserve" onload="init(evt)">
<style type="text/css"><![CDATA[
.edge:hover path { stroke: red; }
.edge:hover polygon { stroke: red; fill: red; }
]]></style>
<script type="text/javascript"><![CDATA[
var edges = document.getElementsByTagName('g');
if (edges && edges.length) {
  for (var i=0;i<edges.length;i++) {
    if (edges[i].id.substr(0,4)=='edge') {
      edges[i].setAttribute('class','edge');
    }
  }
}
]]></script>
        <defs>
                <circle id="rim" cx="0" cy="0" r="7"/>
                <circle id="rim2" cx="0" cy="0" r="3.5"/>
                <g id="zoomPlus">
                        <use xlink:href="#rim" fill="#404040">
                                <set attributeName="fill" to="#808080" begin="zoomplus.mouseover" end="zoomplus.mouseout"/>
                        </use>
                        <path d="M-4,0h8M0,-4v8" fill="none" stroke="white" stroke-width="1.5" pointer-events="none"/>
                </g>
                <g id="zoomMin">
                        <use xlink:href="#rim" fill="#404040">
                                <set attributeName="fill" to="#808080" begin="zoomminus.mouseover" end="zoomminus.mouseout"/>
                        </use>
                        <path d="M-4,0h8" fill="none" stroke="white" stroke-width="1.5" pointer-events="none"/>
                </g>
                <g id="dirArrow">
                        <path fill="none" stroke="white" stroke-width="1.5" d="M0,-3.0v7 M-2.5,-0.5L0,-3.0L2.5,-0.5"/>
                </g>
               <g id="resetDef">
                       <use xlink:href="#rim2" fill="#404040">
                               <set attributeName="fill" to="#808080" begin="reset.mouseover" end="reset.mouseout"/>
                       </use>
               </g>
        </defs>

<script type="text/javascript">
var viewWidth = 878;
var viewHeight = 230;
var sectionId = 'dynsection-3';
</script>
<script xlink:href="svgpan.js"/>
<svg id="graph" class="graph">
<g id="viewport">
<title>BoardBuilder.BuildBoard</title>
<polygon fill="white" stroke="transparent" points="-4,4 -4,-226 874,-226 874,4 -4,4"/>
<!-- Node1 -->
<g id="node1" class="node">
<title>Node1</title>
<g id="a_node1"><a xlink:title="Build the board using various helper methods">
<polygon fill="#bfbfbf" stroke="black" points="0,-120.5 0,-141.5 147,-141.5 147,-120.5 0,-120.5"/>
<text text-anchor="middle" x="73.5" y="-127.9" font-family="Helvetica,sans-Serif" font-size="12.00">BoardBuilder.BuildBoard</text>
</a>
</g>
</g>
<!-- Node2 -->
<g id="node2" class="node">
<title>Node2</title>
<g id="a_node2"><a xlink:href="class_board_builder.html#a39010ec9af85bdbe95514a26a2d8aba6" target="_top" xlink:title="Instantiate a General tile and set its parameters">
<polygon fill="white" stroke="black" points="205.5,-200.5 205.5,-221.5 381.5,-221.5 381.5,-200.5 205.5,-200.5"/>
<text text-anchor="middle" x="293.5" y="-207.9" font-family="Helvetica,sans-Serif" font-size="12.00">BoardBuilder.CreateBoardTile</text>
</a>
</g>
</g>
<!-- Node1&#45;&gt;Node2 -->
<g id="edge1" class="edge">
<title>Node1&#45;&gt;Node2</title>
<path fill="none" stroke="midnightblue" d="M89.91,-141.65C110.28,-155.21 147.73,-178.41 183,-191 190.57,-193.7 198.57,-196.05 206.66,-198.1"/>
<polygon fill="midnightblue" stroke="midnightblue" points="206.01,-201.54 216.55,-200.44 207.63,-194.73 206.01,-201.54"/>
</g>
<!-- Node3 -->
<g id="node3" class="node">
<title>Node3</title>
<g id="a_node3"><a xlink:href="class_board_builder.html#a491ed54feb27cf486245a500c16ff310" target="_top" xlink:title=" ">
<polygon fill="white" stroke="black" points="215.5,-160.5 215.5,-181.5 371.5,-181.5 371.5,-160.5 215.5,-160.5"/>
<text text-anchor="middle" x="293.5" y="-167.9" font-family="Helvetica,sans-Serif" font-size="12.00">BoardBuilder.CreateRoom</text>
</a>
</g>
</g>
<!-- Node1&#45;&gt;Node3 -->
<g id="edge2" class="edge">
<title>Node1&#45;&gt;Node3</title>
<path fill="none" stroke="midnightblue" d="M131.37,-141.5C148.01,-144.57 166.23,-147.92 183,-151 196.54,-153.48 211.02,-156.13 224.86,-158.66"/>
<polygon fill="midnightblue" stroke="midnightblue" points="224.35,-162.13 234.82,-160.48 225.61,-155.24 224.35,-162.13"/>
</g>
<!-- Node4 -->
<g id="node4" class="node">
<title>Node4</title>
<g id="a_node4"><a xlink:href="class_board_builder.html#a03451888fabe0fefe9bb547dd510ac1d" target="_top" xlink:title="Instantiate a roomEntrance tile and set its parameters">
<polygon fill="white" stroke="black" points="183,-120.5 183,-141.5 404,-141.5 404,-120.5 183,-120.5"/>
<text text-anchor="middle" x="293.5" y="-127.9" font-family="Helvetica,sans-Serif" font-size="12.00">BoardBuilder.CreateRoomEntranceTile</text>
</a>
</g>
</g>
<!-- Node1&#45;&gt;Node4 -->
<g id="edge3" class="edge">
<title>Node1&#45;&gt;Node4</title>
<path fill="none" stroke="midnightblue" d="M147.09,-131C155.37,-131 163.97,-131 172.65,-131"/>
<polygon fill="midnightblue" stroke="midnightblue" points="172.88,-134.5 182.88,-131 172.88,-127.5 172.88,-134.5"/>
</g>
<!-- Node6 -->
<g id="node6" class="node">
<title>Node6</title>
<g id="a_node6"><a xlink:href="class_board_builder.html#aa03504edb607b14737199d2e66b4ce07" target="_top" xlink:title="Instantiate a shortcut tile and set its parameters">
<polygon fill="white" stroke="black" points="200.5,-80.5 200.5,-101.5 386.5,-101.5 386.5,-80.5 200.5,-80.5"/>
<text text-anchor="middle" x="293.5" y="-87.9" font-family="Helvetica,sans-Serif" font-size="12.00">BoardBuilder.CreateShortcutTile</text>
</a>
</g>
</g>
<!-- Node1&#45;&gt;Node6 -->
<g id="edge5" class="edge">
<title>Node1&#45;&gt;Node6</title>
<path fill="none" stroke="midnightblue" d="M131.37,-120.5C148.01,-117.43 166.23,-114.08 183,-111 196.54,-108.52 211.02,-105.87 224.86,-103.34"/>
<polygon fill="midnightblue" stroke="midnightblue" points="225.61,-106.76 234.82,-101.52 224.35,-99.87 225.61,-106.76"/>
</g>
<!-- Node8 -->
<g id="node8" class="node">
<title>Node8</title>
<g id="a_node8"><a xlink:href="class_board_builder.html#aa37fc56697e202c34e1f8a1ee3677ea2" target="_top" xlink:title="Instantiate a start tile and set its parameters">
<polygon fill="white" stroke="black" points="209.5,-40.5 209.5,-61.5 377.5,-61.5 377.5,-40.5 209.5,-40.5"/>
<text text-anchor="middle" x="293.5" y="-47.9" font-family="Helvetica,sans-Serif" font-size="12.00">BoardBuilder.CreateStartTile</text>
</a>
</g>
</g>
<!-- Node1&#45;&gt;Node8 -->
<g id="edge8" class="edge">
<title>Node1&#45;&gt;Node8</title>
<path fill="none" stroke="midnightblue" d="M89.91,-120.35C110.28,-106.79 147.73,-83.59 183,-71 190.57,-68.3 198.57,-65.95 206.66,-63.9"/>
<polygon fill="midnightblue" stroke="midnightblue" points="207.63,-67.27 216.55,-61.56 206.01,-60.46 207.63,-67.27"/>
</g>
<!-- Node5 -->
<g id="node5" class="node">
<title>Node5</title>
<g id="a_node5"><a xlink:href="class_room_script.html#a1747ef3091a32115e7bdbd53f5764a31" target="_top" xlink:title="Get Room Enum from string">
<polygon fill="white" stroke="black" points="465.5,-120.5 465.5,-141.5 656.5,-141.5 656.5,-120.5 465.5,-120.5"/>
<text text-anchor="middle" x="561" y="-127.9" font-family="Helvetica,sans-Serif" font-size="12.00">RoomScript.GetRoomFromString</text>
</a>
</g>
</g>
<!-- Node4&#45;&gt;Node5 -->
<g id="edge4" class="edge">
<title>Node4&#45;&gt;Node5</title>
<path fill="none" stroke="midnightblue" d="M404.02,-131C420.82,-131 438.13,-131 454.83,-131"/>
<polygon fill="midnightblue" stroke="midnightblue" points="455.14,-134.5 465.14,-131 455.14,-127.5 455.14,-134.5"/>
</g>
<!-- Node6&#45;&gt;Node5 -->
<g id="edge6" class="edge">
<title>Node6&#45;&gt;Node5</title>
<path fill="none" stroke="midnightblue" d="M364.26,-101.51C399.79,-106.86 443.15,-113.4 480.03,-118.95"/>
<polygon fill="midnightblue" stroke="midnightblue" points="479.84,-122.46 490.25,-120.49 480.88,-115.54 479.84,-122.46"/>
</g>
<!-- Node7 -->
<g id="node7" class="node">
<title>Node7</title>
<g id="a_node7"><a xlink:href="class_shortcut_board_tile_script.html#a6d476b580271ad3b4ad963c152823d22" target="_top" xlink:title="Set shortcut rooms">
<polygon fill="white" stroke="black" points="440,-80.5 440,-101.5 682,-101.5 682,-80.5 440,-80.5"/>
<text text-anchor="middle" x="561" y="-87.9" font-family="Helvetica,sans-Serif" font-size="12.00">ShortcutBoardTileScript.SetShortcutRooms</text>
</a>
</g>
</g>
<!-- Node6&#45;&gt;Node7 -->
<g id="edge7" class="edge">
<title>Node6&#45;&gt;Node7</title>
<path fill="none" stroke="midnightblue" d="M386.61,-91C400.61,-91 415.27,-91 429.89,-91"/>
<polygon fill="midnightblue" stroke="midnightblue" points="429.99,-94.5 439.99,-91 429.99,-87.5 429.99,-94.5"/>
</g>
<!-- Node9 -->
<g id="node9" class="node">
<title>Node9</title>
<g id="a_node9"><a xlink:href="class_start_tile_script.html#a33514048a06840acdadc966c14cef503" target="_top" xlink:title="Set the character for the start tile">
<polygon fill="white" stroke="black" points="479,-40.5 479,-61.5 643,-61.5 643,-40.5 479,-40.5"/>
<text text-anchor="middle" x="561" y="-47.9" font-family="Helvetica,sans-Serif" font-size="12.00">StartTileScript.SetCharacter</text>
</a>
</g>
</g>
<!-- Node8&#45;&gt;Node9 -->
<g id="edge9" class="edge">
<title>Node8&#45;&gt;Node9</title>
<path fill="none" stroke="midnightblue" d="M377.78,-51C406.62,-51 439.09,-51 468.55,-51"/>
<polygon fill="midnightblue" stroke="midnightblue" points="468.84,-54.5 478.84,-51 468.84,-47.5 468.84,-54.5"/>
</g>
<!-- Node11 -->
<g id="node11" class="node">
<title>Node11</title>
<g id="a_node11"><a xlink:href="class_board_tile_script.html#a6257d1f00b3732f6d61a4d98b445890c" target="_top" xlink:title="setting the player token that is currently on this tile">
<polygon fill="white" stroke="black" points="485,-0.5 485,-21.5 637,-21.5 637,-0.5 485,-0.5"/>
<text text-anchor="middle" x="561" y="-7.9" font-family="Helvetica,sans-Serif" font-size="12.00">BoardTileScript.SetToken</text>
</a>
</g>
</g>
<!-- Node8&#45;&gt;Node11 -->
<g id="edge11" class="edge">
<title>Node8&#45;&gt;Node11</title>
<path fill="none" stroke="midnightblue" d="M364.26,-40.49C399.79,-35.14 443.15,-28.6 480.03,-23.05"/>
<polygon fill="midnightblue" stroke="midnightblue" points="480.88,-26.46 490.25,-21.51 479.84,-19.54 480.88,-26.46"/>
</g>
<!-- Node10 -->
<g id="node10" class="node">
<title>Node10</title>
<g id="a_node10"><a xlink:href="class_start_tile_script.html#a478e37b4e8befbb49b5729b3362b1f4c" target="_top" xlink:title="Format and set the text displayed on the tile">
<polygon fill="white" stroke="black" points="718,-40.5 718,-61.5 870,-61.5 870,-40.5 718,-40.5"/>
<text text-anchor="middle" x="794" y="-47.9" font-family="Helvetica,sans-Serif" font-size="12.00">StartTileScript.SetTileText</text>
</a>
</g>
</g>
<!-- Node9&#45;&gt;Node10 -->
<g id="edge10" class="edge">
<title>Node9&#45;&gt;Node10</title>
<path fill="none" stroke="midnightblue" d="M643.12,-51C664.01,-51 686.55,-51 707.65,-51"/>
<polygon fill="midnightblue" stroke="midnightblue" points="707.88,-54.5 717.88,-51 707.88,-47.5 707.88,-54.5"/>
</g>
</g>
</svg>
        <g id="navigator" transform="translate(0 0)" fill="#404254">
                <rect fill="#f2f5e9" fill-opacity="0.5" stroke="#606060" stroke-width=".5" x="0" y="0" width="60" height="60"/>
                <use id="zoomplus" xlink:href="#zoomPlus" x="17" y="9" onmousedown="handleZoom(evt,'in')"/>
                <use id="zoomminus" xlink:href="#zoomMin" x="42" y="9" onmousedown="handleZoom(evt,'out')"/>
                <use id="reset" xlink:href="#resetDef" x="30" y="36" onmousedown="handleReset()"/>
                <g id="arrowUp" xlink:href="#dirArrow" transform="translate(30 24)" onmousedown="handlePan(0,-1)">
                  <use xlink:href="#rim" fill="#404040">
                        <set attributeName="fill" to="#808080" begin="arrowUp.mouseover" end="arrowUp.mouseout"/>
                  </use>
                  <path fill="none" stroke="white" stroke-width="1.5" d="M0,-3.0v7 M-2.5,-0.5L0,-3.0L2.5,-0.5"/>
                </g>
                <g id="arrowRight" xlink:href="#dirArrow" transform="rotate(90) translate(36 -43)" onmousedown="handlePan(1,0)">
                  <use xlink:href="#rim" fill="#404040">
                        <set attributeName="fill" to="#808080" begin="arrowRight.mouseover" end="arrowRight.mouseout"/>
                  </use>
                  <path fill="none" stroke="white" stroke-width="1.5" d="M0,-3.0v7 M-2.5,-0.5L0,-3.0L2.5,-0.5"/>
                </g>
                <g id="arrowDown" xlink:href="#dirArrow" transform="rotate(180) translate(-30 -48)" onmousedown="handlePan(0,1)">
                  <use xlink:href="#rim" fill="#404040">
                        <set attributeName="fill" to="#808080" begin="arrowDown.mouseover" end="arrowDown.mouseout"/>
                  </use>
                  <path fill="none" stroke="white" stroke-width="1.5" d="M0,-3.0v7 M-2.5,-0.5L0,-3.0L2.5,-0.5"/>
                </g>
                <g id="arrowLeft" xlink:href="#dirArrow" transform="rotate(270) translate(-36 17)" onmousedown="handlePan(-1,0)">
                  <use xlink:href="#rim" fill="#404040">
                        <set attributeName="fill" to="#808080" begin="arrowLeft.mouseover" end="arrowLeft.mouseout"/>
                  </use>
                  <path fill="none" stroke="white" stroke-width="1.5" d="M0,-3.0v7 M-2.5,-0.5L0,-3.0L2.5,-0.5"/>
                </g>
        </g>
        <svg viewBox="0 0 15 15" width="100%" height="30px" preserveAspectRatio="xMaxYMin meet">
         <g id="arrow_out" transform="scale(0.3 0.3)">
          <a xlink:href="class_board_builder_a3a24e59815a2273a921875c2cb7781f2_cgraph_org.svg" target="_base">
           <rect id="button" ry="5" rx="5" y="6" x="6" height="38" width="38"
                fill="#f2f5e9" fill-opacity="0.5" stroke="#606060" stroke-width="1.0"/>
           <path id="arrow"
             d="M 11.500037,31.436501 C 11.940474,20.09759 22.043105,11.32322 32.158766,21.979434 L 37.068811,17.246167 C 37.068811,17.246167 37.088388,32 37.088388,32 L 22.160133,31.978069 C 22.160133,31.978069 26.997745,27.140456 26.997745,27.140456 C 18.528582,18.264221 13.291696,25.230495 11.500037,31.436501 z"
             style="fill:#404040;"/>
          </a>
         </g>
        </svg>
</svg>
