<?xml version="1.0" encoding="UTF-8" standalone="no"?>
<!DOCTYPE svg PUBLIC "-//W3C//DTD SVG 1.1//EN"
 "http://www.w3.org/Graphics/SVG/1.1/DTD/svg11.dtd">
<!-- Generated by graphviz version 2.47.1 (20210417.1919)
 -->
<!-- Title: NotebookScript.initializeNotebook Pages: 1 -->
<svg width="919pt" height="110pt"
 viewBox="0.00 0.00 919.00 110.00" xmlns="http://www.w3.org/2000/svg" xmlns:xlink="http://www.w3.org/1999/xlink">
<g id="graph0" class="graph" transform="scale(1 1) rotate(0) translate(4 106)">
<title>NotebookScript.initializeNotebook</title>
<polygon fill="white" stroke="transparent" points="-4,4 -4,-106 915,-106 915,4 -4,4"/>
<!-- Node1 -->
<g id="node1" class="node">
<title>Node1</title>
<g id="a_node1"><a xlink:title="Initialize notebook UI">
<polygon fill="#bfbfbf" stroke="black" points="0,-40.5 0,-61.5 194,-61.5 194,-40.5 0,-40.5"/>
<text text-anchor="middle" x="97" y="-47.9" font-family="Helvetica,sans-Serif" font-size="12.00">NotebookScript.initializeNotebook</text>
</a>
</g>
</g>
<!-- Node2 -->
<g id="node2" class="node">
<title>Node2</title>
<g id="a_node2"><a xlink:href="class_notebook_script.html#a0d865d47dca27b4d3e7a0a1a35036efb" target="_top" xlink:title="Create the character buttons">
<polygon fill="white" stroke="black" points="230,-80.5 230,-101.5 458,-101.5 458,-80.5 230,-80.5"/>
<text text-anchor="middle" x="344" y="-87.9" font-family="Helvetica,sans-Serif" font-size="12.00">NotebookScript.CreateCharacterButtons</text>
</a>
</g>
</g>
<!-- Node1&#45;&gt;Node2 -->
<g id="edge1" class="edge">
<title>Node1&#45;&gt;Node2</title>
<path fill="none" stroke="midnightblue" d="M162.37,-61.51C194.88,-66.82 234.49,-73.28 268.33,-78.81"/>
<polygon fill="midnightblue" stroke="midnightblue" points="268.2,-82.33 278.63,-80.49 269.33,-75.43 268.2,-82.33"/>
</g>
<!-- Node5 -->
<g id="node5" class="node">
<title>Node5</title>
<g id="a_node5"><a xlink:href="class_notebook_script.html#a970cdef3e0f21b0cc144fef7088bbeb0" target="_top" xlink:title="Create the room buttons">
<polygon fill="white" stroke="black" points="240,-40.5 240,-61.5 448,-61.5 448,-40.5 240,-40.5"/>
<text text-anchor="middle" x="344" y="-47.9" font-family="Helvetica,sans-Serif" font-size="12.00">NotebookScript.CreateRoomButtons</text>
</a>
</g>
</g>
<!-- Node1&#45;&gt;Node5 -->
<g id="edge4" class="edge">
<title>Node1&#45;&gt;Node5</title>
<path fill="none" stroke="midnightblue" d="M194.13,-51C205.74,-51 217.68,-51 229.52,-51"/>
<polygon fill="midnightblue" stroke="midnightblue" points="229.87,-54.5 239.87,-51 229.87,-47.5 229.87,-54.5"/>
</g>
<!-- Node6 -->
<g id="node6" class="node">
<title>Node6</title>
<g id="a_node6"><a xlink:href="class_notebook_script.html#a32b5d422887498e904d1b820605978eb" target="_top" xlink:title="Create the Weapon buttons">
<polygon fill="white" stroke="black" points="233.5,-0.5 233.5,-21.5 454.5,-21.5 454.5,-0.5 233.5,-0.5"/>
<text text-anchor="middle" x="344" y="-7.9" font-family="Helvetica,sans-Serif" font-size="12.00">NotebookScript.CreateWeaponButtons</text>
</a>
</g>
</g>
<!-- Node1&#45;&gt;Node6 -->
<g id="edge6" class="edge">
<title>Node1&#45;&gt;Node6</title>
<path fill="none" stroke="midnightblue" d="M162.37,-40.49C194.88,-35.18 234.49,-28.72 268.33,-23.19"/>
<polygon fill="midnightblue" stroke="midnightblue" points="269.33,-26.57 278.63,-21.51 268.2,-19.67 269.33,-26.57"/>
</g>
<!-- Node3 -->
<g id="node3" class="node">
<title>Node3</title>
<g id="a_node3"><a xlink:href="class_notebook_button.html#a1767bf6c449e0517fa11a1ced89f6d0d" target="_top" xlink:title="Set the button type">
<polygon fill="white" stroke="black" points="494,-40.5 494,-61.5 674,-61.5 674,-40.5 494,-40.5"/>
<text text-anchor="middle" x="584" y="-47.9" font-family="Helvetica,sans-Serif" font-size="12.00">NotebookButton.SetButtonType</text>
</a>
</g>
</g>
<!-- Node2&#45;&gt;Node3 -->
<g id="edge2" class="edge">
<title>Node2&#45;&gt;Node3</title>
<path fill="none" stroke="midnightblue" d="M407.53,-80.49C439.11,-75.18 477.59,-68.72 510.47,-63.19"/>
<polygon fill="midnightblue" stroke="midnightblue" points="511.19,-66.62 520.47,-61.51 510.03,-59.71 511.19,-66.62"/>
</g>
<!-- Node4 -->
<g id="node4" class="node">
<title>Node4</title>
<g id="a_node4"><a xlink:href="class_enum_to_string.html#a078a1fb16a0030544fac1b96a90b6b83" target="_top" xlink:title="Get a string value from a valid enum">
<polygon fill="white" stroke="black" points="710,-40.5 710,-61.5 911,-61.5 911,-40.5 710,-40.5"/>
<text text-anchor="middle" x="810.5" y="-47.9" font-family="Helvetica,sans-Serif" font-size="12.00">EnumToString.GetStringFromEnum</text>
</a>
</g>
</g>
<!-- Node3&#45;&gt;Node4 -->
<g id="edge3" class="edge">
<title>Node3&#45;&gt;Node4</title>
<path fill="none" stroke="midnightblue" d="M674.05,-51C682.5,-51 691.13,-51 699.74,-51"/>
<polygon fill="midnightblue" stroke="midnightblue" points="699.83,-54.5 709.83,-51 699.83,-47.5 699.83,-54.5"/>
</g>
<!-- Node5&#45;&gt;Node3 -->
<g id="edge5" class="edge">
<title>Node5&#45;&gt;Node3</title>
<path fill="none" stroke="midnightblue" d="M448.01,-51C459.76,-51 471.73,-51 483.44,-51"/>
<polygon fill="midnightblue" stroke="midnightblue" points="483.66,-54.5 493.66,-51 483.66,-47.5 483.66,-54.5"/>
</g>
<!-- Node6&#45;&gt;Node3 -->
<g id="edge7" class="edge">
<title>Node6&#45;&gt;Node3</title>
<path fill="none" stroke="midnightblue" d="M407.53,-21.51C439.11,-26.82 477.59,-33.28 510.47,-38.81"/>
<polygon fill="midnightblue" stroke="midnightblue" points="510.03,-42.29 520.47,-40.49 511.19,-35.38 510.03,-42.29"/>
</g>
</g>
</svg>
