<?xml version="1.0" encoding="UTF-8" standalone="no"?>
<!DOCTYPE svg PUBLIC "-//W3C//DTD SVG 1.1//EN"
 "http://www.w3.org/Graphics/SVG/1.1/DTD/svg11.dtd">
<!-- Generated by graphviz version 2.47.1 (20210417.1919)
 -->
<!-- Title: RoundManager.MakeAccusation Pages: 1 -->
<svg width="1088pt" height="70pt"
 viewBox="0.00 0.00 1088.00 70.00" xmlns="http://www.w3.org/2000/svg" xmlns:xlink="http://www.w3.org/1999/xlink">
<g id="graph0" class="graph" transform="scale(1 1) rotate(0) translate(4 66)">
<title>RoundManager.MakeAccusation</title>
<polygon fill="white" stroke="transparent" points="-4,4 -4,-66 1084,-66 1084,4 -4,4"/>
<!-- Node1 -->
<g id="node1" class="node">
<title>Node1</title>
<g id="a_node1"><a xlink:title="to have the current player to make an accusation eliminates the player if it is wrong wins the game i...">
<polygon fill="#bfbfbf" stroke="black" points="893,-20.5 893,-41.5 1080,-41.5 1080,-20.5 893,-20.5"/>
<text text-anchor="middle" x="986.5" y="-27.9" font-family="Helvetica,sans-Serif" font-size="12.00">RoundManager.MakeAccusation</text>
</a>
</g>
</g>
<!-- Node2 -->
<g id="node2" class="node">
<title>Node2</title>
<g id="a_node2"><a xlink:href="class_user_controller.html#aa90e4e2fed6b1d661933450f430b95ba" target="_top" xlink:title="Makes accusation">
<polygon fill="white" stroke="black" points="675,-20.5 675,-41.5 857,-41.5 857,-20.5 675,-20.5"/>
<text text-anchor="middle" x="766" y="-27.9" font-family="Helvetica,sans-Serif" font-size="12.00">UserController.MakeAccusation</text>
</a>
</g>
</g>
<!-- Node1&#45;&gt;Node2 -->
<g id="edge1" class="edge">
<title>Node1&#45;&gt;Node2</title>
<path fill="none" stroke="midnightblue" d="M882.78,-31C874.17,-31 865.52,-31 857.02,-31"/>
<polygon fill="midnightblue" stroke="midnightblue" points="882.84,-34.5 892.84,-31 882.84,-27.5 882.84,-34.5"/>
</g>
<!-- Node3 -->
<g id="node3" class="node">
<title>Node3</title>
<g id="a_node3"><a xlink:href="class_u_i_handler.html#adc2ae7669cebeb4d9109002f0d3e8c7a" target="_top" xlink:title="Hides the accusation menu">
<polygon fill="white" stroke="black" points="447,-40.5 447,-61.5 617,-61.5 617,-40.5 447,-40.5"/>
<text text-anchor="middle" x="532" y="-47.9" font-family="Helvetica,sans-Serif" font-size="12.00">UIHandler.ConfirmAccusation</text>
</a>
</g>
</g>
<!-- Node2&#45;&gt;Node3 -->
<g id="edge2" class="edge">
<title>Node2&#45;&gt;Node3</title>
<path fill="none" stroke="midnightblue" d="M664.66,-39.65C648.86,-41.01 632.67,-42.41 617.28,-43.73"/>
<polygon fill="midnightblue" stroke="midnightblue" points="665.31,-43.11 674.97,-38.76 664.71,-36.13 665.31,-43.11"/>
</g>
<!-- Node4 -->
<g id="node4" class="node">
<title>Node4</title>
<g id="a_node4"><a xlink:href="class_a_i_controller_script.html#a7be5eb284c6258672e70af128f8638df" target="_top" xlink:title="Decides that cards to accuse based on the To Guess List">
<polygon fill="white" stroke="black" points="425,-0.5 425,-21.5 639,-21.5 639,-0.5 425,-0.5"/>
<text text-anchor="middle" x="532" y="-7.9" font-family="Helvetica,sans-Serif" font-size="12.00">AIControllerScript.Decide_Accusation</text>
</a>
</g>
</g>
<!-- Node2&#45;&gt;Node4 -->
<g id="edge3" class="edge">
<title>Node2&#45;&gt;Node4</title>
<path fill="none" stroke="midnightblue" d="M665.01,-22.38C656.46,-21.64 647.8,-20.9 639.21,-20.16"/>
<polygon fill="midnightblue" stroke="midnightblue" points="664.71,-25.87 674.97,-23.24 665.31,-18.89 664.71,-25.87"/>
</g>
<!-- Node5 -->
<g id="node5" class="node">
<title>Node5</title>
<g id="a_node5"><a xlink:href="class_a_i_controller_script.html#ac31d9b8dbb75696b181eff1fbef41b97" target="_top" xlink:title="dictates what the AI will do depending on what mode it is in">
<polygon fill="white" stroke="black" points="215,-0.5 215,-21.5 389,-21.5 389,-0.5 215,-0.5"/>
<text text-anchor="middle" x="302" y="-7.9" font-family="Helvetica,sans-Serif" font-size="12.00">AIControllerScript.AIBehaviour</text>
</a>
</g>
</g>
<!-- Node4&#45;&gt;Node5 -->
<g id="edge4" class="edge">
<title>Node4&#45;&gt;Node5</title>
<path fill="none" stroke="midnightblue" d="M414.67,-11C406.14,-11 397.63,-11 389.33,-11"/>
<polygon fill="midnightblue" stroke="midnightblue" points="414.68,-14.5 424.68,-11 414.68,-7.5 414.68,-14.5"/>
</g>
<!-- Node6 -->
<g id="node6" class="node">
<title>Node6</title>
<g id="a_node6"><a xlink:href="class_a_i_controller_script.html#a74dc0e720fafceb873d3b19c12f68d58" target="_top" xlink:title=" ">
<polygon fill="white" stroke="black" points="0,-0.5 0,-21.5 179,-21.5 179,-0.5 0,-0.5"/>
<text text-anchor="middle" x="89.5" y="-7.9" font-family="Helvetica,sans-Serif" font-size="12.00">AIControllerScript.FixedUpdate</text>
</a>
</g>
</g>
<!-- Node5&#45;&gt;Node6 -->
<g id="edge5" class="edge">
<title>Node5&#45;&gt;Node6</title>
<path fill="none" stroke="midnightblue" d="M204.57,-11C196.15,-11 187.67,-11 179.32,-11"/>
<polygon fill="midnightblue" stroke="midnightblue" points="204.77,-14.5 214.77,-11 204.77,-7.5 204.77,-14.5"/>
</g>
</g>
</svg>
