<?xml version="1.0" encoding="UTF-8" standalone="no"?>
<!DOCTYPE svg PUBLIC "-//W3C//DTD SVG 1.1//EN"
 "http://www.w3.org/Graphics/SVG/1.1/DTD/svg11.dtd">
<!-- Generated by graphviz version 2.47.1 (20210417.1919)
 -->
<!-- Title: PlayerMasterController.MovePlayer Pages: 1 -->
<svg width="888pt" height="70pt"
 viewBox="0.00 0.00 888.00 70.00" xmlns="http://www.w3.org/2000/svg" xmlns:xlink="http://www.w3.org/1999/xlink">
<g id="graph0" class="graph" transform="scale(1 1) rotate(0) translate(4 66)">
<title>PlayerMasterController.MovePlayer</title>
<polygon fill="white" stroke="transparent" points="-4,4 -4,-66 884,-66 884,4 -4,4"/>
<!-- Node1 -->
<g id="node1" class="node">
<title>Node1</title>
<g id="a_node1"><a xlink:title="moving the player to a certain tile">
<polygon fill="#bfbfbf" stroke="black" points="0,-20.5 0,-41.5 200,-41.5 200,-20.5 0,-20.5"/>
<text text-anchor="middle" x="100" y="-27.9" font-family="Helvetica,sans-Serif" font-size="12.00">PlayerMasterController.MovePlayer</text>
</a>
</g>
</g>
<!-- Node2 -->
<g id="node2" class="node">
<title>Node2</title>
<g id="a_node2"><a xlink:href="class_player_token_script.html#af62557bd1edf071efadf23c84f0db1ad" target="_top" xlink:title=" ">
<polygon fill="white" stroke="black" points="236,-20.5 236,-41.5 412,-41.5 412,-20.5 236,-20.5"/>
<text text-anchor="middle" x="324" y="-27.9" font-family="Helvetica,sans-Serif" font-size="12.00">PlayerTokenScript.MoveToken</text>
</a>
</g>
</g>
<!-- Node1&#45;&gt;Node2 -->
<g id="edge1" class="edge">
<title>Node1&#45;&gt;Node2</title>
<path fill="none" stroke="midnightblue" d="M200.31,-31C208.77,-31 217.31,-31 225.75,-31"/>
<polygon fill="midnightblue" stroke="midnightblue" points="225.97,-34.5 235.97,-31 225.97,-27.5 225.97,-34.5"/>
</g>
<!-- Node3 -->
<g id="node3" class="node">
<title>Node3</title>
<g id="a_node3"><a xlink:href="class_camera_close_up.html#aee634e08987ea079413fd67b737b2c5d" target="_top" xlink:title="Set camera close up to character">
<polygon fill="white" stroke="black" points="448,-40.5 448,-61.5 672,-61.5 672,-40.5 448,-40.5"/>
<text text-anchor="middle" x="560" y="-47.9" font-family="Helvetica,sans-Serif" font-size="12.00">CameraCloseUp.SetCharacterCloseUp</text>
</a>
</g>
</g>
<!-- Node2&#45;&gt;Node3 -->
<g id="edge2" class="edge">
<title>Node2&#45;&gt;Node3</title>
<path fill="none" stroke="midnightblue" d="M412.13,-38.45C420.54,-39.17 429.16,-39.9 437.82,-40.64"/>
<polygon fill="midnightblue" stroke="midnightblue" points="437.72,-44.15 447.99,-41.51 438.32,-37.17 437.72,-44.15"/>
</g>
<!-- Node5 -->
<g id="node5" class="node">
<title>Node5</title>
<g id="a_node5"><a xlink:href="class_board_tile_script.html#a6257d1f00b3732f6d61a4d98b445890c" target="_top" xlink:title="setting the player token that is currently on this tile">
<polygon fill="white" stroke="black" points="484,-0.5 484,-21.5 636,-21.5 636,-0.5 484,-0.5"/>
<text text-anchor="middle" x="560" y="-7.9" font-family="Helvetica,sans-Serif" font-size="12.00">BoardTileScript.SetToken</text>
</a>
</g>
</g>
<!-- Node2&#45;&gt;Node5 -->
<g id="edge4" class="edge">
<title>Node2&#45;&gt;Node5</title>
<path fill="none" stroke="midnightblue" d="M412.13,-23.55C432.25,-21.83 453.64,-20.01 473.68,-18.29"/>
<polygon fill="midnightblue" stroke="midnightblue" points="474.04,-21.77 483.71,-17.44 473.45,-14.8 474.04,-21.77"/>
</g>
<!-- Node4 -->
<g id="node4" class="node">
<title>Node4</title>
<g id="a_node4"><a xlink:href="class_camera_close_up.html#a1d70afa00d6f67abee342c029af88fcf" target="_top" xlink:title="Set close up point">
<polygon fill="white" stroke="black" points="708,-40.5 708,-61.5 880,-61.5 880,-40.5 708,-40.5"/>
<text text-anchor="middle" x="794" y="-47.9" font-family="Helvetica,sans-Serif" font-size="12.00">CameraCloseUp.SetCloseUp</text>
</a>
</g>
</g>
<!-- Node3&#45;&gt;Node4 -->
<g id="edge3" class="edge">
<title>Node3&#45;&gt;Node4</title>
<path fill="none" stroke="midnightblue" d="M672.24,-51C680.76,-51 689.31,-51 697.71,-51"/>
<polygon fill="midnightblue" stroke="midnightblue" points="697.87,-54.5 707.87,-51 697.87,-47.5 697.87,-54.5"/>
</g>
</g>
</svg>
