<?xml version="1.0" encoding="UTF-8" standalone="no"?>
<!DOCTYPE svg PUBLIC "-//W3C//DTD SVG 1.1//EN"
 "http://www.w3.org/Graphics/SVG/1.1/DTD/svg11.dtd">
<!-- Generated by graphviz version 2.47.1 (20210417.1919)
 -->
<!-- Title: PlayerMasterController.GetTile Pages: 1 -->
<svg width="752pt" height="270pt"
 viewBox="0.00 0.00 752.00 270.00" xmlns="http://www.w3.org/2000/svg" xmlns:xlink="http://www.w3.org/1999/xlink">
<g id="graph0" class="graph" transform="scale(1 1) rotate(0) translate(4 266)">
<title>PlayerMasterController.GetTile</title>
<polygon fill="white" stroke="transparent" points="-4,4 -4,-266 748,-266 748,4 -4,4"/>
<!-- Node1 -->
<g id="node1" class="node">
<title>Node1</title>
<g id="a_node1"><a xlink:title="Get the current tile the token is on">
<polygon fill="#bfbfbf" stroke="black" points="568,-120.5 568,-141.5 744,-141.5 744,-120.5 568,-120.5"/>
<text text-anchor="middle" x="656" y="-127.9" font-family="Helvetica,sans-Serif" font-size="12.00">PlayerMasterController.GetTile</text>
</a>
</g>
</g>
<!-- Node2 -->
<g id="node2" class="node">
<title>Node2</title>
<g id="a_node2"><a xlink:href="class_a_i_controller_script.html#ac31d9b8dbb75696b181eff1fbef41b97" target="_top" xlink:title="dictates what the AI will do depending on what mode it is in">
<polygon fill="white" stroke="black" points="305.5,-240.5 305.5,-261.5 479.5,-261.5 479.5,-240.5 305.5,-240.5"/>
<text text-anchor="middle" x="392.5" y="-247.9" font-family="Helvetica,sans-Serif" font-size="12.00">AIControllerScript.AIBehaviour</text>
</a>
</g>
</g>
<!-- Node1&#45;&gt;Node2 -->
<g id="edge1" class="edge">
<title>Node1&#45;&gt;Node2</title>
<path fill="none" stroke="midnightblue" d="M638.89,-149.12C617.13,-172.29 575.97,-211.73 532,-231 515.76,-238.12 497.51,-242.8 479.74,-245.86"/>
<polygon fill="midnightblue" stroke="midnightblue" points="641.56,-151.39 645.75,-141.66 636.4,-146.65 641.56,-151.39"/>
</g>
<!-- Node4 -->
<g id="node4" class="node">
<title>Node4</title>
<g id="a_node4"><a xlink:href="class_round_manager.html#acf674cdec523de9a0f91ab8a7bfcc2ef" target="_top" xlink:title="for waiting the dice to be rolled, get it&#39;s results and display where the player can move to">
<polygon fill="white" stroke="black" points="304,-200.5 304,-221.5 481,-221.5 481,-200.5 304,-200.5"/>
<text text-anchor="middle" x="392.5" y="-207.9" font-family="Helvetica,sans-Serif" font-size="12.00">RoundManager.DiceBehaviour</text>
</a>
</g>
</g>
<!-- Node1&#45;&gt;Node4 -->
<g id="edge3" class="edge">
<title>Node1&#45;&gt;Node4</title>
<path fill="none" stroke="midnightblue" d="M628.87,-146.73C604.62,-160.58 567.08,-180.2 532,-191 515.86,-195.97 498.28,-199.71 481.22,-202.53"/>
<polygon fill="midnightblue" stroke="midnightblue" points="630.9,-149.59 637.79,-141.55 627.38,-143.54 630.9,-149.59"/>
</g>
<!-- Node6 -->
<g id="node6" class="node">
<title>Node6</title>
<g id="a_node6"><a xlink:href="class_player_master_controller.html#ac150dd296b7ff1b7b5a856cbdf5af8bf" target="_top" xlink:title="calls the boardManager to display all the tiles that it can move to according to the range of it&#39;s mo...">
<polygon fill="white" stroke="black" points="253,-160.5 253,-181.5 532,-181.5 532,-160.5 253,-160.5"/>
<text text-anchor="middle" x="392.5" y="-167.9" font-family="Helvetica,sans-Serif" font-size="12.00">PlayerMasterController.DisplayBoardMovableTiles</text>
</a>
</g>
</g>
<!-- Node1&#45;&gt;Node6 -->
<g id="edge5" class="edge">
<title>Node1&#45;&gt;Node6</title>
<path fill="none" stroke="midnightblue" d="M581.5,-143.17C565.21,-145.81 548.03,-148.54 532,-151 511.35,-154.17 488.94,-157.47 468.29,-160.45"/>
<polygon fill="midnightblue" stroke="midnightblue" points="582.2,-146.6 591.51,-141.54 581.08,-139.69 582.2,-146.6"/>
</g>
<!-- Node7 -->
<g id="node7" class="node">
<title>Node7</title>
<g id="a_node7"><a xlink:href="class_anson_test_script.html#a445d27a921ade2f0e76054a3b7cc4245" target="_top" xlink:title=" ">
<polygon fill="white" stroke="black" points="306,-120.5 306,-141.5 479,-141.5 479,-120.5 306,-120.5"/>
<text text-anchor="middle" x="392.5" y="-127.9" font-family="Helvetica,sans-Serif" font-size="12.00">AnsonTestScript.FixedUpdate</text>
</a>
</g>
</g>
<!-- Node1&#45;&gt;Node7 -->
<g id="edge6" class="edge">
<title>Node1&#45;&gt;Node7</title>
<path fill="none" stroke="midnightblue" d="M557.78,-131C532.02,-131 504.41,-131 479.31,-131"/>
<polygon fill="midnightblue" stroke="midnightblue" points="557.92,-134.5 567.92,-131 557.92,-127.5 557.92,-134.5"/>
</g>
<!-- Node8 -->
<g id="node8" class="node">
<title>Node8</title>
<g id="a_node8"><a xlink:href="class_player_movement_test_script.html#a1c247cfdee35d3a1c1d3a81fd579b426" target="_top" xlink:title=" ">
<polygon fill="white" stroke="black" points="279,-80.5 279,-101.5 506,-101.5 506,-80.5 279,-80.5"/>
<text text-anchor="middle" x="392.5" y="-87.9" font-family="Helvetica,sans-Serif" font-size="12.00">PlayerMovementTestScript.FixedUpdate</text>
</a>
</g>
</g>
<!-- Node1&#45;&gt;Node8 -->
<g id="edge7" class="edge">
<title>Node1&#45;&gt;Node8</title>
<path fill="none" stroke="midnightblue" d="M581.5,-118.83C565.21,-116.19 548.03,-113.46 532,-111 511.35,-107.83 488.94,-104.53 468.29,-101.55"/>
<polygon fill="midnightblue" stroke="midnightblue" points="581.08,-122.31 591.51,-120.46 582.2,-115.4 581.08,-122.31"/>
</g>
<!-- Node9 -->
<g id="node9" class="node">
<title>Node9</title>
<g id="a_node9"><a xlink:href="class_testing___movement_script.html#a8bd90f3857ba3610ef23e0a5d7e4879a" target="_top" xlink:title="give a select value for the player roll">
<polygon fill="white" stroke="black" points="296,-40.5 296,-61.5 489,-61.5 489,-40.5 296,-40.5"/>
<text text-anchor="middle" x="392.5" y="-47.9" font-family="Helvetica,sans-Serif" font-size="12.00">Testing_MovementScript.GiveRoll</text>
</a>
</g>
</g>
<!-- Node1&#45;&gt;Node9 -->
<g id="edge8" class="edge">
<title>Node1&#45;&gt;Node9</title>
<path fill="none" stroke="midnightblue" d="M628.87,-115.27C604.62,-101.42 567.08,-81.8 532,-71 518.42,-66.82 503.81,-63.5 489.35,-60.88"/>
<polygon fill="midnightblue" stroke="midnightblue" points="627.38,-118.46 637.79,-120.45 630.9,-112.41 627.38,-118.46"/>
</g>
<!-- Node10 -->
<g id="node10" class="node">
<title>Node10</title>
<g id="a_node10"><a xlink:href="class_testing___movement_script.html#abaaeb242fee8995f1058fde65fc793ba" target="_top" xlink:title=" ">
<polygon fill="white" stroke="black" points="272.5,-0.5 272.5,-21.5 512.5,-21.5 512.5,-0.5 272.5,-0.5"/>
<text text-anchor="middle" x="392.5" y="-7.9" font-family="Helvetica,sans-Serif" font-size="12.00">Testing_MovementScript.UpdateBehaviour</text>
</a>
</g>
</g>
<!-- Node1&#45;&gt;Node10 -->
<g id="edge9" class="edge">
<title>Node1&#45;&gt;Node10</title>
<path fill="none" stroke="midnightblue" d="M638.89,-112.88C617.13,-89.71 575.97,-50.27 532,-31 523.32,-27.2 514.07,-24.09 504.63,-21.55"/>
<polygon fill="midnightblue" stroke="midnightblue" points="636.4,-115.35 645.75,-120.34 641.56,-110.61 636.4,-115.35"/>
</g>
<!-- Node3 -->
<g id="node3" class="node">
<title>Node3</title>
<g id="a_node3"><a xlink:href="class_a_i_controller_script.html#a74dc0e720fafceb873d3b19c12f68d58" target="_top" xlink:title=" ">
<polygon fill="white" stroke="black" points="19,-240.5 19,-261.5 198,-261.5 198,-240.5 19,-240.5"/>
<text text-anchor="middle" x="108.5" y="-247.9" font-family="Helvetica,sans-Serif" font-size="12.00">AIControllerScript.FixedUpdate</text>
</a>
</g>
</g>
<!-- Node2&#45;&gt;Node3 -->
<g id="edge2" class="edge">
<title>Node2&#45;&gt;Node3</title>
<path fill="none" stroke="midnightblue" d="M295.26,-251C263.76,-251 228.94,-251 198.04,-251"/>
<polygon fill="midnightblue" stroke="midnightblue" points="295.36,-254.5 305.36,-251 295.36,-247.5 295.36,-254.5"/>
</g>
<!-- Node5 -->
<g id="node5" class="node">
<title>Node5</title>
<g id="a_node5"><a xlink:href="class_round_manager.html#abb654bc0114fc67d455ed6449d5bda22" target="_top" xlink:title=" ">
<polygon fill="white" stroke="black" points="25,-200.5 25,-221.5 192,-221.5 192,-200.5 25,-200.5"/>
<text text-anchor="middle" x="108.5" y="-207.9" font-family="Helvetica,sans-Serif" font-size="12.00">RoundManager.FixedUpdate</text>
</a>
</g>
</g>
<!-- Node4&#45;&gt;Node5 -->
<g id="edge4" class="edge">
<title>Node4&#45;&gt;Node5</title>
<path fill="none" stroke="midnightblue" d="M293.68,-211C260.64,-211 224.08,-211 192.31,-211"/>
<polygon fill="midnightblue" stroke="midnightblue" points="293.82,-214.5 303.82,-211 293.82,-207.5 293.82,-214.5"/>
</g>
<!-- Node11 -->
<g id="node11" class="node">
<title>Node11</title>
<g id="a_node11"><a xlink:href="class_testing___movement_script.html#ae339e23abbecd335a3325f7c5cd886c5" target="_top" xlink:title=" ">
<polygon fill="white" stroke="black" points="0,-0.5 0,-21.5 217,-21.5 217,-0.5 0,-0.5"/>
<text text-anchor="middle" x="108.5" y="-7.9" font-family="Helvetica,sans-Serif" font-size="12.00">Testing_MovementScript.FixedUpdate</text>
</a>
</g>
</g>
<!-- Node10&#45;&gt;Node11 -->
<g id="edge10" class="edge">
<title>Node10&#45;&gt;Node11</title>
<path fill="none" stroke="midnightblue" d="M261.95,-11C246.94,-11 231.75,-11 217.07,-11"/>
<polygon fill="midnightblue" stroke="midnightblue" points="262.32,-14.5 272.32,-11 262.32,-7.5 262.32,-14.5"/>
</g>
</g>
</svg>
