<?xml version="1.0" encoding="UTF-8" standalone="no"?>
<!DOCTYPE svg PUBLIC "-//W3C//DTD SVG 1.1//EN"
 "http://www.w3.org/Graphics/SVG/1.1/DTD/svg11.dtd">
<!-- Generated by graphviz version 2.47.1 (20210417.1919)
 -->
<!-- Title: AIControllerScript.EndTurn Pages: 1 -->
<!--zoomable 739 -->
<svg id="main" version="1.1" xmlns="http://www.w3.org/2000/svg" xmlns:xlink="http://www.w3.org/1999/xlink" xml:space="preserve" onload="init(evt)">
<style type="text/css"><![CDATA[
.edge:hover path { stroke: red; }
.edge:hover polygon { stroke: red; fill: red; }
]]></style>
<script type="text/javascript"><![CDATA[
var edges = document.getElementsByTagName('g');
if (edges && edges.length) {
  for (var i=0;i<edges.length;i++) {
    if (edges[i].id.substr(0,4)=='edge') {
      edges[i].setAttribute('class','edge');
    }
  }
}
]]></script>
        <defs>
                <circle id="rim" cx="0" cy="0" r="7"/>
                <circle id="rim2" cx="0" cy="0" r="3.5"/>
                <g id="zoomPlus">
                        <use xlink:href="#rim" fill="#404040">
                                <set attributeName="fill" to="#808080" begin="zoomplus.mouseover" end="zoomplus.mouseout"/>
                        </use>
                        <path d="M-4,0h8M0,-4v8" fill="none" stroke="white" stroke-width="1.5" pointer-events="none"/>
                </g>
                <g id="zoomMin">
                        <use xlink:href="#rim" fill="#404040">
                                <set attributeName="fill" to="#808080" begin="zoomminus.mouseover" end="zoomminus.mouseout"/>
                        </use>
                        <path d="M-4,0h8" fill="none" stroke="white" stroke-width="1.5" pointer-events="none"/>
                </g>
                <g id="dirArrow">
                        <path fill="none" stroke="white" stroke-width="1.5" d="M0,-3.0v7 M-2.5,-0.5L0,-3.0L2.5,-0.5"/>
                </g>
               <g id="resetDef">
                       <use xlink:href="#rim2" fill="#404040">
                               <set attributeName="fill" to="#808080" begin="reset.mouseover" end="reset.mouseout"/>
                       </use>
               </g>
        </defs>

<script type="text/javascript">
var viewWidth = 1975;
var viewHeight = 739;
var sectionId = 'dynsection-25';
</script>
<script xlink:href="svgpan.js"/>
<svg id="graph" class="graph">
<g id="viewport">
<title>AIControllerScript.EndTurn</title>
<polygon fill="white" stroke="transparent" points="-4,4 -4,-735.01 1971,-735.01 1971,4 -4,4"/>
<!-- Node1 -->
<g id="node1" class="node">
<title>Node1</title>
<g id="a_node1"><a xlink:title="have AI to end turn">
<polygon fill="#bfbfbf" stroke="black" points="0,-523.5 0,-544.5 155,-544.5 155,-523.5 0,-523.5"/>
<text text-anchor="middle" x="77.5" y="-530.9" font-family="Helvetica,sans-Serif" font-size="12.00">AIControllerScript.EndTurn</text>
</a>
</g>
</g>
<!-- Node2 -->
<g id="node2" class="node">
<title>Node2</title>
<g id="a_node2"><a xlink:href="class_user_controller.html#ab90611f541e20c125133d09b62407f41" target="_top" xlink:title="Ends turn">
<polygon fill="white" stroke="black" points="191,-325.5 191,-346.5 329,-346.5 329,-325.5 191,-325.5"/>
<text text-anchor="middle" x="260" y="-332.9" font-family="Helvetica,sans-Serif" font-size="12.00">UserController.EndTurn</text>
</a>
</g>
</g>
<!-- Node1&#45;&gt;Node2 -->
<g id="edge1" class="edge">
<title>Node1&#45;&gt;Node2</title>
<path fill="none" stroke="midnightblue" d="M88.2,-523.35C117.53,-491.19 205.45,-394.75 242.38,-354.24"/>
<polygon fill="midnightblue" stroke="midnightblue" points="245.1,-356.45 249.25,-346.7 239.92,-351.73 245.1,-356.45"/>
</g>
<!-- Node32 -->
<g id="node32" class="node">
<title>Node32</title>
<g id="a_node32"><a xlink:href="class_a_i_controller_script.html#aaee909cd0f0ffdedd8d8425607d7ccb5" target="_top" xlink:title="to set the AI&#39;s mode">
<polygon fill="white" stroke="black" points="1312,-440.5 1312,-461.5 1482,-461.5 1482,-440.5 1312,-440.5"/>
<text text-anchor="middle" x="1397" y="-447.9" font-family="Helvetica,sans-Serif" font-size="12.00">AIControllerScript.SetAIMode</text>
</a>
</g>
</g>
<!-- Node1&#45;&gt;Node32 -->
<g id="edge42" class="edge">
<title>Node1&#45;&gt;Node32</title>
<path fill="none" stroke="midnightblue" d="M89.79,-544.54C131.85,-582.65 284.69,-711 435.5,-711 435.5,-711 435.5,-711 891.5,-711 1042.62,-711 1099.34,-766.19 1231,-692 1320.53,-641.55 1371.72,-519.93 1389.16,-471.45"/>
<polygon fill="midnightblue" stroke="midnightblue" points="1392.55,-472.36 1392.54,-461.77 1385.94,-470.05 1392.55,-472.36"/>
</g>
<!-- Node3 -->
<g id="node3" class="node">
<title>Node3</title>
<g id="a_node3"><a xlink:href="class_round_manager.html#a29177f2e27c6c4af55dfa3c48d67cfb0" target="_top" xlink:title="Ending the turn. Returns the next player">
<polygon fill="white" stroke="black" points="365,-226.5 365,-247.5 508,-247.5 508,-226.5 365,-226.5"/>
<text text-anchor="middle" x="436.5" y="-233.9" font-family="Helvetica,sans-Serif" font-size="12.00">RoundManager.EndTurn</text>
</a>
</g>
</g>
<!-- Node2&#45;&gt;Node3 -->
<g id="edge2" class="edge">
<title>Node2&#45;&gt;Node3</title>
<path fill="none" stroke="midnightblue" d="M279.67,-325.41C310.51,-307.91 372.2,-272.91 408.02,-252.59"/>
<polygon fill="midnightblue" stroke="midnightblue" points="409.99,-255.5 416.96,-247.52 406.53,-249.41 409.99,-255.5"/>
</g>
<!-- Node4 -->
<g id="node4" class="node">
<title>Node4</title>
<g id="a_node4"><a xlink:href="class_camera_close_up.html#ad31062bdf359a453fc85ebdd71fa1bae" target="_top" xlink:title="Clear camera close up">
<polygon fill="white" stroke="black" points="799.5,-80.5 799.5,-101.5 981.5,-101.5 981.5,-80.5 799.5,-80.5"/>
<text text-anchor="middle" x="890.5" y="-87.9" font-family="Helvetica,sans-Serif" font-size="12.00">CameraCloseUp.ClearCloseUp</text>
</a>
</g>
</g>
<!-- Node3&#45;&gt;Node4 -->
<g id="edge3" class="edge">
<title>Node3&#45;&gt;Node4</title>
<path fill="none" stroke="midnightblue" d="M446.16,-226.32C462.81,-206.61 501.43,-164.72 544,-145 621.32,-109.19 717.7,-96.41 789.01,-92.18"/>
<polygon fill="midnightblue" stroke="midnightblue" points="789.55,-95.65 799.34,-91.61 789.17,-88.67 789.55,-95.65"/>
</g>
<!-- Node6 -->
<g id="node6" class="node">
<title>Node6</title>
<g id="a_node6"><a xlink:href="class_round_manager.html#aab3f49a5e05508a8e023a497e763c1c8" target="_top" xlink:title="Gets the player controller for the current player">
<polygon fill="white" stroke="black" points="1302,-265.5 1302,-286.5 1492,-286.5 1492,-265.5 1302,-265.5"/>
<text text-anchor="middle" x="1397" y="-272.9" font-family="Helvetica,sans-Serif" font-size="12.00">RoundManager.GetCurrentPlayer</text>
</a>
</g>
</g>
<!-- Node3&#45;&gt;Node6 -->
<g id="edge5" class="edge">
<title>Node3&#45;&gt;Node6</title>
<path fill="none" stroke="midnightblue" d="M486.17,-226.45C555.15,-212.1 685.48,-187.15 798,-178 990.63,-162.34 1043.7,-170.38 1231,-218 1276.74,-229.63 1327.76,-248.52 1360.79,-261.56"/>
<polygon fill="midnightblue" stroke="midnightblue" points="1359.85,-264.96 1370.43,-265.41 1362.44,-258.45 1359.85,-264.96"/>
</g>
<!-- Node8 -->
<g id="node8" class="node">
<title>Node8</title>
<g id="a_node8"><a xlink:href="class_dice.html#ade1dc529eeb31f31e668c595c5748e67" target="_top" xlink:title="Reset the dice">
<polygon fill="white" stroke="black" points="603,-61.5 603,-82.5 703,-82.5 703,-61.5 603,-61.5"/>
<text text-anchor="middle" x="653" y="-68.9" font-family="Helvetica,sans-Serif" font-size="12.00">Dice.ResetDice</text>
</a>
</g>
</g>
<!-- Node3&#45;&gt;Node8 -->
<g id="edge7" class="edge">
<title>Node3&#45;&gt;Node8</title>
<path fill="none" stroke="midnightblue" d="M443.43,-226.15C457.53,-201.35 495.56,-140.06 544,-107 558.63,-97.01 576.3,-89.73 593.06,-84.47"/>
<polygon fill="midnightblue" stroke="midnightblue" points="594.2,-87.79 602.8,-81.61 592.22,-81.07 594.2,-87.79"/>
</g>
<!-- Node12 -->
<g id="node12" class="node">
<title>Node12</title>
<g id="a_node12"><a xlink:href="class_turn_controller.html#ade13993ccd7681d71cec356829df0f18" target="_top" xlink:title=" ">
<polygon fill="white" stroke="black" points="544,-344.5 544,-365.5 762,-365.5 762,-344.5 544,-344.5"/>
<text text-anchor="middle" x="653" y="-351.9" font-family="Helvetica,sans-Serif" font-size="12.00">TurnController.SetCurrentPlayerToNext</text>
</a>
</g>
</g>
<!-- Node3&#45;&gt;Node12 -->
<g id="edge12" class="edge">
<title>Node3&#45;&gt;Node12</title>
<path fill="none" stroke="midnightblue" d="M445.54,-247.63C461.72,-268.16 500.4,-313.21 544,-335 548.68,-337.34 553.59,-339.4 558.64,-341.23"/>
<polygon fill="midnightblue" stroke="midnightblue" points="557.89,-344.67 568.48,-344.46 560.07,-338.02 557.89,-344.67"/>
</g>
<!-- Node13 -->
<g id="node13" class="node">
<title>Node13</title>
<g id="a_node13"><a xlink:href="class_round_manager.html#acf644ae21a6f9ebc2a476fc8603e18fc" target="_top" xlink:title="Method for starting the turn">
<polygon fill="white" stroke="black" points="579.5,-304.5 579.5,-325.5 726.5,-325.5 726.5,-304.5 579.5,-304.5"/>
<text text-anchor="middle" x="653" y="-311.9" font-family="Helvetica,sans-Serif" font-size="12.00">RoundManager.StartTurn</text>
</a>
</g>
</g>
<!-- Node3&#45;&gt;Node13 -->
<g id="edge13" class="edge">
<title>Node3&#45;&gt;Node13</title>
<path fill="none" stroke="midnightblue" d="M466.43,-247.52C504.41,-261.33 571.2,-285.62 613.45,-300.98"/>
<polygon fill="midnightblue" stroke="midnightblue" points="612.25,-304.27 622.84,-304.4 614.64,-297.69 612.25,-304.27"/>
</g>
<!-- Node5 -->
<g id="node5" class="node">
<title>Node5</title>
<g id="a_node5"><a xlink:href="class_camera_close_up.html#ae902d2ccdf969212e0cb84f638f68851" target="_top" xlink:title="Delay then clear close up">
<polygon fill="white" stroke="black" points="1019,-79.5 1019,-100.5 1231,-100.5 1231,-79.5 1019,-79.5"/>
<text text-anchor="middle" x="1125" y="-86.9" font-family="Helvetica,sans-Serif" font-size="12.00">CameraCloseUp.ClearCloseUpDelay</text>
</a>
</g>
</g>
<!-- Node4&#45;&gt;Node5 -->
<g id="edge4" class="edge">
<title>Node4&#45;&gt;Node5</title>
<path fill="none" stroke="midnightblue" d="M981.72,-90.61C990.53,-90.57 999.55,-90.54 1008.57,-90.5"/>
<polygon fill="midnightblue" stroke="midnightblue" points="1008.75,-94 1018.73,-90.45 1008.72,-87 1008.75,-94"/>
</g>
<!-- Node7 -->
<g id="node7" class="node">
<title>Node7</title>
<g id="a_node7"><a xlink:href="class_turn_controller.html#af16e42b7e61c5a999291327e2e556caa" target="_top" xlink:title=" ">
<polygon fill="white" stroke="black" points="1566,-284.5 1566,-305.5 1748,-305.5 1748,-284.5 1566,-284.5"/>
<text text-anchor="middle" x="1657" y="-291.9" font-family="Helvetica,sans-Serif" font-size="12.00">TurnController.GetCurrentPlayer</text>
</a>
</g>
</g>
<!-- Node6&#45;&gt;Node7 -->
<g id="edge6" class="edge">
<title>Node6&#45;&gt;Node7</title>
<path fill="none" stroke="midnightblue" d="M1492.24,-282.94C1512.9,-284.46 1534.84,-286.08 1555.73,-287.62"/>
<polygon fill="midnightblue" stroke="midnightblue" points="1555.66,-291.12 1565.89,-288.36 1556.17,-284.14 1555.66,-291.12"/>
</g>
<!-- Node8&#45;&gt;Node4 -->
<g id="edge10" class="edge">
<title>Node8&#45;&gt;Node4</title>
<path fill="none" stroke="midnightblue" d="M703.08,-75.96C728.03,-77.97 759.3,-80.5 789.06,-82.9"/>
<polygon fill="midnightblue" stroke="midnightblue" points="788.84,-86.39 799.09,-83.71 789.4,-79.41 788.84,-86.39"/>
</g>
<!-- Node9 -->
<g id="node9" class="node">
<title>Node9</title>
<g id="a_node9"><a xlink:href="class_dice.html#ace4c995eb73b784d1076fde140ce85af" target="_top" xlink:title="Can Dice be reset">
<polygon fill="white" stroke="black" points="842,-40.5 842,-61.5 939,-61.5 939,-40.5 842,-40.5"/>
<text text-anchor="middle" x="890.5" y="-47.9" font-family="Helvetica,sans-Serif" font-size="12.00">Dice.CanReset</text>
</a>
</g>
</g>
<!-- Node8&#45;&gt;Node9 -->
<g id="edge8" class="edge">
<title>Node8&#45;&gt;Node9</title>
<path fill="none" stroke="midnightblue" d="M703.08,-67.62C740.53,-64.28 792.23,-59.67 831.68,-56.16"/>
<polygon fill="midnightblue" stroke="midnightblue" points="832.04,-59.64 841.69,-55.26 831.42,-52.67 832.04,-59.64"/>
</g>
<!-- Node11 -->
<g id="node11" class="node">
<title>Node11</title>
<g id="a_node11"><a xlink:href="class_die.html#abc11c3d2bf0c0fba1555093eb5a8469e" target="_top" xlink:title="Reset Die to original position">
<polygon fill="white" stroke="black" points="846.5,-0.5 846.5,-21.5 934.5,-21.5 934.5,-0.5 846.5,-0.5"/>
<text text-anchor="middle" x="890.5" y="-7.9" font-family="Helvetica,sans-Serif" font-size="12.00">Die.ResetDie</text>
</a>
</g>
</g>
<!-- Node8&#45;&gt;Node11 -->
<g id="edge11" class="edge">
<title>Node8&#45;&gt;Node11</title>
<path fill="none" stroke="midnightblue" d="M688.75,-61.45C717.82,-52.78 760.44,-40.44 798,-31 810.32,-27.9 823.64,-24.83 836.2,-22.06"/>
<polygon fill="midnightblue" stroke="midnightblue" points="837.06,-25.46 846.08,-19.91 835.57,-18.62 837.06,-25.46"/>
</g>
<!-- Node10 -->
<g id="node10" class="node">
<title>Node10</title>
<g id="a_node10"><a xlink:href="class_die.html#a390d46459637fd249926cda472255d84" target="_top" xlink:title="Can the die be reset">
<polygon fill="white" stroke="black" points="1070,-39.5 1070,-60.5 1180,-60.5 1180,-39.5 1070,-39.5"/>
<text text-anchor="middle" x="1125" y="-46.9" font-family="Helvetica,sans-Serif" font-size="12.00">Die.CanResetDie</text>
</a>
</g>
</g>
<!-- Node9&#45;&gt;Node10 -->
<g id="edge9" class="edge">
<title>Node9&#45;&gt;Node10</title>
<path fill="none" stroke="midnightblue" d="M939.11,-50.8C973.99,-50.65 1021.71,-50.44 1059.94,-50.28"/>
<polygon fill="midnightblue" stroke="midnightblue" points="1059.96,-53.78 1069.94,-50.23 1059.93,-46.78 1059.96,-53.78"/>
</g>
<!-- Node13&#45;&gt;Node6 -->
<g id="edge21" class="edge">
<title>Node13&#45;&gt;Node6</title>
<path fill="none" stroke="midnightblue" d="M726.82,-307.13C749.59,-304.88 774.82,-302.61 798,-301 970.87,-288.99 1172.28,-282.02 1291.69,-278.62"/>
<polygon fill="midnightblue" stroke="midnightblue" points="1292.02,-282.11 1301.92,-278.33 1291.82,-275.11 1292.02,-282.11"/>
</g>
<!-- Node13&#45;&gt;Node7 -->
<g id="edge22" class="edge">
<title>Node13&#45;&gt;Node7</title>
<path fill="none" stroke="midnightblue" d="M726.87,-313.55C903.35,-310.02 1353.99,-301.03 1555.72,-297"/>
<polygon fill="midnightblue" stroke="midnightblue" points="1555.79,-300.5 1565.72,-296.8 1555.66,-293.5 1555.79,-300.5"/>
</g>
<!-- Node14 -->
<g id="node14" class="node">
<title>Node14</title>
<g id="a_node14"><a xlink:href="class_board_manager.html#a653d38723d03f890d38a1b68a855c569" target="_top" xlink:title="Clear all movable tiles">
<polygon fill="white" stroke="black" points="805,-187.5 805,-208.5 976,-208.5 976,-187.5 805,-187.5"/>
<text text-anchor="middle" x="890.5" y="-194.9" font-family="Helvetica,sans-Serif" font-size="12.00">BoardManager.ClearMovable</text>
</a>
</g>
</g>
<!-- Node13&#45;&gt;Node14 -->
<g id="edge14" class="edge">
<title>Node13&#45;&gt;Node14</title>
<path fill="none" stroke="midnightblue" d="M666.15,-304.42C689.83,-284.39 744.51,-240.87 798,-218 803.79,-215.53 809.92,-213.34 816.16,-211.42"/>
<polygon fill="midnightblue" stroke="midnightblue" points="817.36,-214.71 826.01,-208.6 815.43,-207.98 817.36,-214.71"/>
</g>
<!-- Node18 -->
<g id="node18" class="node">
<title>Node18</title>
<g id="a_node18"><a xlink:href="class_u_i_handler.html#affac6b69bae9622fe2d5ef41990456aa" target="_top" xlink:title="Display the list of cards">
<polygon fill="white" stroke="black" points="822,-227.5 822,-248.5 959,-248.5 959,-227.5 822,-227.5"/>
<text text-anchor="middle" x="890.5" y="-234.9" font-family="Helvetica,sans-Serif" font-size="12.00">UIHandler.DisplayDeck</text>
</a>
</g>
</g>
<!-- Node13&#45;&gt;Node18 -->
<g id="edge18" class="edge">
<title>Node13&#45;&gt;Node18</title>
<path fill="none" stroke="midnightblue" d="M681.12,-304.47C709.9,-293.48 756.82,-276.04 798,-263 811.01,-258.88 825.19,-254.81 838.41,-251.18"/>
<polygon fill="midnightblue" stroke="midnightblue" points="839.56,-254.5 848.3,-248.51 837.73,-247.74 839.56,-254.5"/>
</g>
<!-- Node20 -->
<g id="node20" class="node">
<title>Node20</title>
<g id="a_node20"><a xlink:href="class_u_i_handler.html#abe1710aca2abe4dbb489f0c49a3af879" target="_top" xlink:title="To display the View Blocker can include the name of the player that needs it&#39;s attention">
<polygon fill="white" stroke="black" points="802.5,-581.5 802.5,-602.5 978.5,-602.5 978.5,-581.5 802.5,-581.5"/>
<text text-anchor="middle" x="890.5" y="-588.9" font-family="Helvetica,sans-Serif" font-size="12.00">UIHandler.DisplayViewBlocker</text>
</a>
</g>
</g>
<!-- Node13&#45;&gt;Node20 -->
<g id="edge20" class="edge">
<title>Node13&#45;&gt;Node20</title>
<path fill="none" stroke="midnightblue" d="M726.65,-315.93C739.91,-319.32 752.52,-325.2 762,-335 836.11,-411.55 725.13,-494.28 798,-572 799.08,-573.15 800.2,-574.24 801.38,-575.28"/>
<polygon fill="midnightblue" stroke="midnightblue" points="799.55,-578.27 809.69,-581.33 803.67,-572.61 799.55,-578.27"/>
</g>
<!-- Node21 -->
<g id="node21" class="node">
<title>Node21</title>
<g id="a_node21"><a xlink:href="class_player_master_controller.html#a0a7dd34344c455ef5a0d84c2f7c4a4d6" target="_top" xlink:title=" ">
<polygon fill="white" stroke="black" points="798,-541.5 798,-562.5 983,-562.5 983,-541.5 798,-541.5"/>
<text text-anchor="middle" x="890.5" y="-548.9" font-family="Helvetica,sans-Serif" font-size="12.00">PlayerMasterController.GetDeck</text>
</a>
</g>
</g>
<!-- Node13&#45;&gt;Node21 -->
<g id="edge23" class="edge">
<title>Node13&#45;&gt;Node21</title>
<path fill="none" stroke="midnightblue" d="M726.71,-316.22C739.87,-319.61 752.44,-325.42 762,-335 824.86,-398.01 736.16,-467.99 798,-532 799.24,-533.29 800.55,-534.5 801.91,-535.64"/>
<polygon fill="midnightblue" stroke="midnightblue" points="800.03,-538.6 810.24,-541.45 804.04,-532.86 800.03,-538.6"/>
</g>
<!-- Node22 -->
<g id="node22" class="node">
<title>Node22</title>
<g id="a_node22"><a xlink:href="class_enum_to_string.html#a078a1fb16a0030544fac1b96a90b6b83" target="_top" xlink:title="Get a string value from a valid enum">
<polygon fill="white" stroke="black" points="1024.5,-661.5 1024.5,-682.5 1225.5,-682.5 1225.5,-661.5 1024.5,-661.5"/>
<text text-anchor="middle" x="1125" y="-668.9" font-family="Helvetica,sans-Serif" font-size="12.00">EnumToString.GetStringFromEnum</text>
</a>
</g>
</g>
<!-- Node13&#45;&gt;Node22 -->
<g id="edge24" class="edge">
<title>Node13&#45;&gt;Node22</title>
<path fill="none" stroke="midnightblue" d="M726.54,-315.7C739.88,-319.09 752.56,-325.03 762,-335 847.39,-425.12 712.56,-521.93 798,-612 852.36,-669.3 942.13,-682.41 1013.73,-682.24"/>
<polygon fill="midnightblue" stroke="midnightblue" points="1014.19,-685.73 1024.15,-682.12 1014.11,-678.73 1014.19,-685.73"/>
</g>
<!-- Node23 -->
<g id="node23" class="node">
<title>Node23</title>
<g id="a_node23"><a xlink:href="class_u_i_handler.html#ac072319b13f11e5ac215a0ed6ab11aa9" target="_top" xlink:title="Resets UI for the next player">
<polygon fill="white" stroke="black" points="823,-501.5 823,-522.5 958,-522.5 958,-501.5 823,-501.5"/>
<text text-anchor="middle" x="890.5" y="-508.9" font-family="Helvetica,sans-Serif" font-size="12.00">UIHandler.InitialiseTurn</text>
</a>
</g>
</g>
<!-- Node13&#45;&gt;Node23 -->
<g id="edge25" class="edge">
<title>Node13&#45;&gt;Node23</title>
<path fill="none" stroke="midnightblue" d="M726.62,-318.64C739.34,-321.9 751.76,-327.04 762,-335 792.15,-358.43 776.78,-381.26 798,-413 819.03,-444.47 850.01,-475.68 869.97,-494.41"/>
<polygon fill="midnightblue" stroke="midnightblue" points="867.82,-497.19 877.54,-501.41 872.57,-492.05 867.82,-497.19"/>
</g>
<!-- Node29 -->
<g id="node29" class="node">
<title>Node29</title>
<g id="a_node29"><a xlink:href="class_a_i_controller_script.html#a606c498cbb805d816c1b06f94631a960" target="_top" xlink:title="to activate the AI or not set which player the AI is controlling">
<polygon fill="white" stroke="black" points="810,-382.5 810,-403.5 971,-403.5 971,-382.5 810,-382.5"/>
<text text-anchor="middle" x="890.5" y="-389.9" font-family="Helvetica,sans-Serif" font-size="12.00">AIControllerScript.SetActive</text>
</a>
</g>
</g>
<!-- Node13&#45;&gt;Node29 -->
<g id="edge33" class="edge">
<title>Node13&#45;&gt;Node29</title>
<path fill="none" stroke="midnightblue" d="M724.62,-325.51C737.2,-328.11 750.09,-331.25 762,-335 797.38,-346.14 835.86,-364.59 861.18,-377.69"/>
<polygon fill="midnightblue" stroke="midnightblue" points="859.73,-380.88 870.21,-382.42 862.98,-374.68 859.73,-380.88"/>
</g>
<!-- Node15 -->
<g id="node15" class="node">
<title>Node15</title>
<g id="a_node15"><a xlink:href="class_board_tile_script.html#a3ff1d3c491fe4d7e421a624ac0b5be6f" target="_top" xlink:title="setting the glow on the tile">
<polygon fill="white" stroke="black" points="1052,-119.5 1052,-140.5 1198,-140.5 1198,-119.5 1052,-119.5"/>
<text text-anchor="middle" x="1125" y="-126.9" font-family="Helvetica,sans-Serif" font-size="12.00">BoardTileScript.GlowTile</text>
</a>
</g>
</g>
<!-- Node14&#45;&gt;Node15 -->
<g id="edge15" class="edge">
<title>Node14&#45;&gt;Node15</title>
<path fill="none" stroke="midnightblue" d="M927.57,-187.45C968.13,-175.59 1034.06,-156.3 1078.22,-143.39"/>
<polygon fill="midnightblue" stroke="midnightblue" points="1079.23,-146.74 1087.84,-140.58 1077.26,-140.02 1079.23,-146.74"/>
</g>
<!-- Node16 -->
<g id="node16" class="node">
<title>Node16</title>
<g id="a_node16"><a xlink:href="class_board_tile_effect_handler_script.html#a93e813816ff40b3602de22f87a694766" target="_top" xlink:title="turn off the effect for when player can move to that tile">
<polygon fill="white" stroke="black" points="1267,-139.5 1267,-160.5 1527,-160.5 1527,-139.5 1267,-139.5"/>
<text text-anchor="middle" x="1397" y="-146.9" font-family="Helvetica,sans-Serif" font-size="12.00">BoardTileEffectHandlerScript.ToggleEffect_Off</text>
</a>
</g>
</g>
<!-- Node15&#45;&gt;Node16 -->
<g id="edge16" class="edge">
<title>Node15&#45;&gt;Node16</title>
<path fill="none" stroke="midnightblue" d="M1198,-135.33C1216.26,-136.69 1236.5,-138.19 1256.86,-139.69"/>
<polygon fill="midnightblue" stroke="midnightblue" points="1256.63,-143.19 1266.86,-140.43 1257.15,-136.21 1256.63,-143.19"/>
</g>
<!-- Node17 -->
<g id="node17" class="node">
<title>Node17</title>
<g id="a_node17"><a xlink:href="class_board_tile_effect_handler_script.html#a7bf5b2a819cb44463464d5c951bf3143" target="_top" xlink:title="turn on the effect for when player can move to that tile">
<polygon fill="white" stroke="black" points="1267,-99.5 1267,-120.5 1527,-120.5 1527,-99.5 1267,-99.5"/>
<text text-anchor="middle" x="1397" y="-106.9" font-family="Helvetica,sans-Serif" font-size="12.00">BoardTileEffectHandlerScript.ToggleEffect_On</text>
</a>
</g>
</g>
<!-- Node15&#45;&gt;Node17 -->
<g id="edge17" class="edge">
<title>Node15&#45;&gt;Node17</title>
<path fill="none" stroke="midnightblue" d="M1198,-124.67C1216.26,-123.31 1236.5,-121.81 1256.86,-120.31"/>
<polygon fill="midnightblue" stroke="midnightblue" points="1257.15,-123.79 1266.86,-119.57 1256.63,-116.81 1257.15,-123.79"/>
</g>
<!-- Node19 -->
<g id="node19" class="node">
<title>Node19</title>
<g id="a_node19"><a xlink:href="class_card_slot.html#af678d8249e4d52bb791b47d4ed75e7f3" target="_top" xlink:title="Makes the card slot visible and its game object active">
<polygon fill="white" stroke="black" points="1065,-227.5 1065,-248.5 1185,-248.5 1185,-227.5 1065,-227.5"/>
<text text-anchor="middle" x="1125" y="-234.9" font-family="Helvetica,sans-Serif" font-size="12.00">CardSlot.SetVisible</text>
</a>
</g>
</g>
<!-- Node18&#45;&gt;Node19 -->
<g id="edge19" class="edge">
<title>Node18&#45;&gt;Node19</title>
<path fill="none" stroke="midnightblue" d="M959.06,-238C989.18,-238 1024.61,-238 1054.9,-238"/>
<polygon fill="midnightblue" stroke="midnightblue" points="1054.96,-241.5 1064.96,-238 1054.96,-234.5 1054.96,-241.5"/>
</g>
<!-- Node23&#45;&gt;Node22 -->
<g id="edge31" class="edge">
<title>Node23&#45;&gt;Node22</title>
<path fill="none" stroke="midnightblue" d="M958.16,-517.72C967.31,-520.9 975.96,-525.48 983,-532 1023.85,-569.84 977.65,-614.71 1019,-652 1020.55,-653.4 1022.17,-654.71 1023.84,-655.95"/>
<polygon fill="midnightblue" stroke="midnightblue" points="1022.32,-659.13 1032.65,-661.48 1026.04,-653.2 1022.32,-659.13"/>
</g>
<!-- Node24 -->
<g id="node24" class="node">
<title>Node24</title>
<g id="a_node24"><a xlink:href="class_u_i_handler.html#abe1c78d110b0a4374daed98df71fcff1" target="_top" xlink:title="Displays the notepad">
<polygon fill="white" stroke="black" points="1047,-541.5 1047,-562.5 1203,-562.5 1203,-541.5 1047,-541.5"/>
<text text-anchor="middle" x="1125" y="-548.9" font-family="Helvetica,sans-Serif" font-size="12.00">UIHandler.DisplayNotePad</text>
</a>
</g>
</g>
<!-- Node23&#45;&gt;Node24 -->
<g id="edge26" class="edge">
<title>Node23&#45;&gt;Node24</title>
<path fill="none" stroke="midnightblue" d="M952.59,-522.51C983.3,-527.79 1020.71,-534.23 1052.73,-539.74"/>
<polygon fill="midnightblue" stroke="midnightblue" points="1052.47,-543.25 1062.92,-541.49 1053.66,-536.35 1052.47,-543.25"/>
</g>
<!-- Node25 -->
<g id="node25" class="node">
<title>Node25</title>
<g id="a_node25"><a xlink:href="class_u_i_handler.html#a2db6b92acd51a72b431b3eacb3884ddd" target="_top" xlink:title="Displays a screen when a player is eliminated">
<polygon fill="white" stroke="black" points="1026,-621.5 1026,-642.5 1224,-642.5 1224,-621.5 1026,-621.5"/>
<text text-anchor="middle" x="1125" y="-628.9" font-family="Helvetica,sans-Serif" font-size="12.00">UIHandler.DisplayPlayerEliminated</text>
</a>
</g>
</g>
<!-- Node23&#45;&gt;Node25 -->
<g id="edge27" class="edge">
<title>Node23&#45;&gt;Node25</title>
<path fill="none" stroke="midnightblue" d="M958.36,-518.88C967.27,-521.93 975.8,-526.16 983,-532 1013.28,-556.56 988.39,-587.85 1019,-612 1021.07,-613.63 1023.24,-615.15 1025.48,-616.55"/>
<polygon fill="midnightblue" stroke="midnightblue" points="1024.01,-619.74 1034.47,-621.43 1027.35,-613.59 1024.01,-619.74"/>
</g>
<!-- Node26 -->
<g id="node26" class="node">
<title>Node26</title>
<g id="a_node26"><a xlink:href="class_player_master_controller.html#a12c91851433777ae557a71d9f9a855f0" target="_top" xlink:title=" ">
<polygon fill="white" stroke="black" points="1020.5,-461.5 1020.5,-482.5 1229.5,-482.5 1229.5,-461.5 1020.5,-461.5"/>
<text text-anchor="middle" x="1125" y="-468.9" font-family="Helvetica,sans-Serif" font-size="12.00">PlayerMasterController.GetCharacter</text>
</a>
</g>
</g>
<!-- Node23&#45;&gt;Node26 -->
<g id="edge28" class="edge">
<title>Node23&#45;&gt;Node26</title>
<path fill="none" stroke="midnightblue" d="M952.59,-501.49C983.3,-496.21 1020.71,-489.77 1052.73,-484.26"/>
<polygon fill="midnightblue" stroke="midnightblue" points="1053.66,-487.65 1062.92,-482.51 1052.47,-480.75 1053.66,-487.65"/>
</g>
<!-- Node27 -->
<g id="node27" class="node">
<title>Node27</title>
<g id="a_node27"><a xlink:href="class_user_controller.html#a587c55687141d18f375e0504ea4649fa" target="_top" xlink:title="Gets the player controller for the current player">
<polygon fill="white" stroke="black" points="1032.5,-501.5 1032.5,-522.5 1217.5,-522.5 1217.5,-501.5 1032.5,-501.5"/>
<text text-anchor="middle" x="1125" y="-508.9" font-family="Helvetica,sans-Serif" font-size="12.00">UserController.GetCurrentPlayer</text>
</a>
</g>
</g>
<!-- Node23&#45;&gt;Node27 -->
<g id="edge29" class="edge">
<title>Node23&#45;&gt;Node27</title>
<path fill="none" stroke="midnightblue" d="M958.13,-512C978.05,-512 1000.37,-512 1022.02,-512"/>
<polygon fill="midnightblue" stroke="midnightblue" points="1022.24,-515.5 1032.24,-512 1022.24,-508.5 1022.24,-515.5"/>
</g>
<!-- Node28 -->
<g id="node28" class="node">
<title>Node28</title>
<g id="a_node28"><a xlink:href="class_u_i_handler.html#a33d33813339ed163ad4ab8708226f911" target="_top" xlink:title="Updates the current turn text">
<polygon fill="white" stroke="black" points="1029.5,-581.5 1029.5,-602.5 1220.5,-602.5 1220.5,-581.5 1029.5,-581.5"/>
<text text-anchor="middle" x="1125" y="-588.9" font-family="Helvetica,sans-Serif" font-size="12.00">UIHandler.UpdateCurrentTurnText</text>
</a>
</g>
</g>
<!-- Node23&#45;&gt;Node28 -->
<g id="edge32" class="edge">
<title>Node23&#45;&gt;Node28</title>
<path fill="none" stroke="midnightblue" d="M958.32,-521.46C966.95,-524.15 975.41,-527.59 983,-532 1003.68,-544.02 998.16,-560.26 1019,-572 1022.93,-574.21 1027.05,-576.18 1031.3,-577.94"/>
<polygon fill="midnightblue" stroke="midnightblue" points="1030.19,-581.26 1040.79,-581.46 1032.63,-574.7 1030.19,-581.26"/>
</g>
<!-- Node27&#45;&gt;Node6 -->
<g id="edge30" class="edge">
<title>Node27&#45;&gt;Node6</title>
<path fill="none" stroke="midnightblue" d="M1213.51,-501.48C1219.7,-498.91 1225.61,-495.79 1231,-492 1256.75,-473.89 1248.87,-456.74 1267,-431 1303.7,-378.9 1353.43,-322.52 1379.11,-294.29"/>
<polygon fill="midnightblue" stroke="midnightblue" points="1381.8,-296.53 1385.97,-286.79 1376.64,-291.81 1381.8,-296.53"/>
</g>
<!-- Node29&#45;&gt;Node26 -->
<g id="edge34" class="edge">
<title>Node29&#45;&gt;Node26</title>
<path fill="none" stroke="midnightblue" d="M910.35,-403.51C934.72,-416.69 978.83,-439.1 1019,-452 1027.56,-454.75 1036.65,-457.18 1045.75,-459.3"/>
<polygon fill="midnightblue" stroke="midnightblue" points="1045.09,-462.74 1055.61,-461.49 1046.61,-455.91 1045.09,-462.74"/>
</g>
<!-- Node30 -->
<g id="node30" class="node">
<title>Node30</title>
<g id="a_node30"><a xlink:href="class_a_i_controller_script.html#ab124aec8211aa7b8f00c6ef5db6bc96a" target="_top" xlink:title="for out putting the debug stack if outputDebugText is true, it will out put the the console as well">
<polygon fill="white" stroke="black" points="1787,-420.5 1787,-441.5 1967,-441.5 1967,-420.5 1787,-420.5"/>
<text text-anchor="middle" x="1877" y="-427.9" font-family="Helvetica,sans-Serif" font-size="12.00">AIControllerScript.OutputDebug</text>
</a>
</g>
</g>
<!-- Node29&#45;&gt;Node30 -->
<g id="edge35" class="edge">
<title>Node29&#45;&gt;Node30</title>
<path fill="none" stroke="midnightblue" d="M971.23,-396.08C1149.66,-402.96 1580.78,-419.6 1776.44,-427.16"/>
<polygon fill="midnightblue" stroke="midnightblue" points="1776.59,-430.67 1786.71,-427.55 1776.86,-423.67 1776.59,-430.67"/>
</g>
<!-- Node31 -->
<g id="node31" class="node">
<title>Node31</title>
<g id="a_node31"><a xlink:href="class_a_i_controller_script.html#acb4af4c99bf1e7610b45d9f81457d625" target="_top" xlink:title="have AI to start turn">
<polygon fill="white" stroke="black" points="1046,-421.5 1046,-442.5 1204,-442.5 1204,-421.5 1046,-421.5"/>
<text text-anchor="middle" x="1125" y="-428.9" font-family="Helvetica,sans-Serif" font-size="12.00">AIControllerScript.StartTurn</text>
</a>
</g>
</g>
<!-- Node29&#45;&gt;Node31 -->
<g id="edge36" class="edge">
<title>Node29&#45;&gt;Node31</title>
<path fill="none" stroke="midnightblue" d="M954.11,-403.5C984.09,-408.53 1020.16,-414.58 1051.34,-419.81"/>
<polygon fill="midnightblue" stroke="midnightblue" points="1050.84,-423.28 1061.28,-421.48 1051.99,-416.37 1050.84,-423.28"/>
</g>
<!-- Node34 -->
<g id="node34" class="node">
<title>Node34</title>
<g id="a_node34"><a xlink:href="class_player_master_controller.html#a59a900c17a29aece6fab552e723e22a6" target="_top" xlink:title=" ">
<polygon fill="white" stroke="black" points="1033.5,-343.5 1033.5,-364.5 1216.5,-364.5 1216.5,-343.5 1033.5,-343.5"/>
<text text-anchor="middle" x="1125" y="-350.9" font-family="Helvetica,sans-Serif" font-size="12.00">PlayerMasterController.ToString</text>
</a>
</g>
</g>
<!-- Node29&#45;&gt;Node34 -->
<g id="edge41" class="edge">
<title>Node29&#45;&gt;Node34</title>
<path fill="none" stroke="midnightblue" d="M954.11,-382.5C984.09,-377.47 1020.16,-371.42 1051.34,-366.19"/>
<polygon fill="midnightblue" stroke="midnightblue" points="1051.99,-369.63 1061.28,-364.52 1050.84,-362.72 1051.99,-369.63"/>
</g>
<!-- Node31&#45;&gt;Node32 -->
<g id="edge37" class="edge">
<title>Node31&#45;&gt;Node32</title>
<path fill="none" stroke="midnightblue" d="M1204.1,-437.5C1234.59,-439.64 1269.83,-442.12 1301.72,-444.37"/>
<polygon fill="midnightblue" stroke="midnightblue" points="1301.73,-447.87 1311.95,-445.09 1302.22,-440.89 1301.73,-447.87"/>
</g>
<!-- Node32&#45;&gt;Node30 -->
<g id="edge40" class="edge">
<title>Node32&#45;&gt;Node30</title>
<path fill="none" stroke="midnightblue" d="M1482.08,-447.48C1564.28,-444.04 1689.44,-438.81 1776.54,-435.16"/>
<polygon fill="midnightblue" stroke="midnightblue" points="1776.86,-438.65 1786.71,-434.74 1776.57,-431.66 1776.86,-438.65"/>
</g>
<!-- Node33 -->
<g id="node33" class="node">
<title>Node33</title>
<g id="a_node33"><a xlink:href="class_a_i_controller_script.html#afcb2875a5501f07a7f44d0fa720266f3" target="_top" xlink:title="to delay the time for the next time the AI does something in the Update">
<polygon fill="white" stroke="black" points="1563,-459.5 1563,-480.5 1751,-480.5 1751,-459.5 1563,-459.5"/>
<text text-anchor="middle" x="1657" y="-466.9" font-family="Helvetica,sans-Serif" font-size="12.00">AIControllerScript.DelayDecision</text>
</a>
</g>
</g>
<!-- Node32&#45;&gt;Node33 -->
<g id="edge38" class="edge">
<title>Node32&#45;&gt;Node33</title>
<path fill="none" stroke="midnightblue" d="M1482.12,-457.2C1504.54,-458.85 1529.02,-460.65 1552.35,-462.37"/>
<polygon fill="midnightblue" stroke="midnightblue" points="1552.39,-465.88 1562.62,-463.12 1552.91,-458.9 1552.39,-465.88"/>
</g>
<!-- Node33&#45;&gt;Node30 -->
<g id="edge39" class="edge">
<title>Node33&#45;&gt;Node30</title>
<path fill="none" stroke="midnightblue" d="M1716.71,-459.5C1744.57,-454.51 1778.05,-448.52 1807.11,-443.32"/>
<polygon fill="midnightblue" stroke="midnightblue" points="1807.96,-446.73 1817.19,-441.52 1806.73,-439.84 1807.96,-446.73"/>
</g>
</g>
</svg>
        <g id="navigator" transform="translate(0 0)" fill="#404254">
                <rect fill="#f2f5e9" fill-opacity="0.5" stroke="#606060" stroke-width=".5" x="0" y="0" width="60" height="60"/>
                <use id="zoomplus" xlink:href="#zoomPlus" x="17" y="9" onmousedown="handleZoom(evt,'in')"/>
                <use id="zoomminus" xlink:href="#zoomMin" x="42" y="9" onmousedown="handleZoom(evt,'out')"/>
                <use id="reset" xlink:href="#resetDef" x="30" y="36" onmousedown="handleReset()"/>
                <g id="arrowUp" xlink:href="#dirArrow" transform="translate(30 24)" onmousedown="handlePan(0,-1)">
                  <use xlink:href="#rim" fill="#404040">
                        <set attributeName="fill" to="#808080" begin="arrowUp.mouseover" end="arrowUp.mouseout"/>
                  </use>
                  <path fill="none" stroke="white" stroke-width="1.5" d="M0,-3.0v7 M-2.5,-0.5L0,-3.0L2.5,-0.5"/>
                </g>
                <g id="arrowRight" xlink:href="#dirArrow" transform="rotate(90) translate(36 -43)" onmousedown="handlePan(1,0)">
                  <use xlink:href="#rim" fill="#404040">
                        <set attributeName="fill" to="#808080" begin="arrowRight.mouseover" end="arrowRight.mouseout"/>
                  </use>
                  <path fill="none" stroke="white" stroke-width="1.5" d="M0,-3.0v7 M-2.5,-0.5L0,-3.0L2.5,-0.5"/>
                </g>
                <g id="arrowDown" xlink:href="#dirArrow" transform="rotate(180) translate(-30 -48)" onmousedown="handlePan(0,1)">
                  <use xlink:href="#rim" fill="#404040">
                        <set attributeName="fill" to="#808080" begin="arrowDown.mouseover" end="arrowDown.mouseout"/>
                  </use>
                  <path fill="none" stroke="white" stroke-width="1.5" d="M0,-3.0v7 M-2.5,-0.5L0,-3.0L2.5,-0.5"/>
                </g>
                <g id="arrowLeft" xlink:href="#dirArrow" transform="rotate(270) translate(-36 17)" onmousedown="handlePan(-1,0)">
                  <use xlink:href="#rim" fill="#404040">
                        <set attributeName="fill" to="#808080" begin="arrowLeft.mouseover" end="arrowLeft.mouseout"/>
                  </use>
                  <path fill="none" stroke="white" stroke-width="1.5" d="M0,-3.0v7 M-2.5,-0.5L0,-3.0L2.5,-0.5"/>
                </g>
        </g>
        <svg viewBox="0 0 15 15" width="100%" height="30px" preserveAspectRatio="xMaxYMin meet">
         <g id="arrow_out" transform="scale(0.3 0.3)">
          <a xlink:href="class_a_i_controller_script_a9c386cf1258ad897c9a1068804f07ba0_cgraph_org.svg" target="_base">
           <rect id="button" ry="5" rx="5" y="6" x="6" height="38" width="38"
                fill="#f2f5e9" fill-opacity="0.5" stroke="#606060" stroke-width="1.0"/>
           <path id="arrow"
             d="M 11.500037,31.436501 C 11.940474,20.09759 22.043105,11.32322 32.158766,21.979434 L 37.068811,17.246167 C 37.068811,17.246167 37.088388,32 37.088388,32 L 22.160133,31.978069 C 22.160133,31.978069 26.997745,27.140456 26.997745,27.140456 C 18.528582,18.264221 13.291696,25.230495 11.500037,31.436501 z"
             style="fill:#404040;"/>
          </a>
         </g>
        </svg>
</svg>
