<?xml version="1.0" encoding="UTF-8" standalone="no"?>
<!DOCTYPE svg PUBLIC "-//W3C//DTD SVG 1.1//EN"
 "http://www.w3.org/Graphics/SVG/1.1/DTD/svg11.dtd">
<!-- Generated by graphviz version 2.47.1 (20210417.1919)
 -->
<!-- Title: Die.CheckValueDie Pages: 1 -->
<svg width="302pt" height="70pt"
 viewBox="0.00 0.00 302.00 70.00" xmlns="http://www.w3.org/2000/svg" xmlns:xlink="http://www.w3.org/1999/xlink">
<g id="graph0" class="graph" transform="scale(1 1) rotate(0) translate(4 66)">
<title>Die.CheckValueDie</title>
<polygon fill="white" stroke="transparent" points="-4,4 -4,-66 298,-66 298,4 -4,4"/>
<!-- Node1 -->
<g id="node1" class="node">
<title>Node1</title>
<g id="a_node1"><a xlink:title="Set the current value of the die if on ground 0 if not.">
<polygon fill="#bfbfbf" stroke="black" points="0,-20.5 0,-41.5 121,-41.5 121,-20.5 0,-20.5"/>
<text text-anchor="middle" x="60.5" y="-27.9" font-family="Helvetica,sans-Serif" font-size="12.00">Die.CheckValueDie</text>
</a>
</g>
</g>
<!-- Node2 -->
<g id="node2" class="node">
<title>Node2</title>
<g id="a_node2"><a xlink:href="class_die_side.html#aad0dab76f00ebbd4a4d036be82948752" target="_top" xlink:title="Get value on the opposite side of the die">
<polygon fill="white" stroke="black" points="157,-40.5 157,-61.5 294,-61.5 294,-40.5 157,-40.5"/>
<text text-anchor="middle" x="225.5" y="-47.9" font-family="Helvetica,sans-Serif" font-size="12.00">DieSide.GetSideValue</text>
</a>
</g>
</g>
<!-- Node1&#45;&gt;Node2 -->
<g id="edge1" class="edge">
<title>Node1&#45;&gt;Node2</title>
<path fill="none" stroke="midnightblue" d="M121.27,-38.33C129.56,-39.35 138.18,-40.41 146.74,-41.46"/>
<polygon fill="midnightblue" stroke="midnightblue" points="146.4,-44.94 156.75,-42.69 147.25,-37.99 146.4,-44.94"/>
</g>
<!-- Node3 -->
<g id="node3" class="node">
<title>Node3</title>
<g id="a_node3"><a xlink:href="class_die_side.html#a694174e094333dddba56a1fffeb7a00b" target="_top" xlink:title="Is the die side in contact with the board">
<polygon fill="white" stroke="black" points="163,-0.5 163,-21.5 288,-21.5 288,-0.5 163,-0.5"/>
<text text-anchor="middle" x="225.5" y="-7.9" font-family="Helvetica,sans-Serif" font-size="12.00">DieSide.IsOnGround</text>
</a>
</g>
</g>
<!-- Node1&#45;&gt;Node3 -->
<g id="edge2" class="edge">
<title>Node1&#45;&gt;Node3</title>
<path fill="none" stroke="midnightblue" d="M121.27,-23.67C131.53,-22.41 142.28,-21.09 152.82,-19.8"/>
<polygon fill="midnightblue" stroke="midnightblue" points="153.32,-23.26 162.82,-18.57 152.47,-16.31 153.32,-23.26"/>
</g>
</g>
</svg>
