<?xml version="1.0" encoding="UTF-8" standalone="no"?>
<!DOCTYPE svg PUBLIC "-//W3C//DTD SVG 1.1//EN"
 "http://www.w3.org/Graphics/SVG/1.1/DTD/svg11.dtd">
<!-- Generated by graphviz version 2.47.1 (20210417.1919)
 -->
<!-- Title: PlayerTokenScript.TakeShortcut Pages: 1 -->
<svg width="919pt" height="110pt"
 viewBox="0.00 0.00 919.00 110.00" xmlns="http://www.w3.org/2000/svg" xmlns:xlink="http://www.w3.org/1999/xlink">
<g id="graph0" class="graph" transform="scale(1 1) rotate(0) translate(4 106)">
<title>PlayerTokenScript.TakeShortcut</title>
<polygon fill="white" stroke="transparent" points="-4,4 -4,-106 915,-106 915,4 -4,4"/>
<!-- Node1 -->
<g id="node1" class="node">
<title>Node1</title>
<g id="a_node1"><a xlink:title=" ">
<polygon fill="#bfbfbf" stroke="black" points="0,-40.5 0,-61.5 185,-61.5 185,-40.5 0,-40.5"/>
<text text-anchor="middle" x="92.5" y="-47.9" font-family="Helvetica,sans-Serif" font-size="12.00">PlayerTokenScript.TakeShortcut</text>
</a>
</g>
</g>
<!-- Node2 -->
<g id="node2" class="node">
<title>Node2</title>
<g id="a_node2"><a xlink:href="class_player_token_script.html#a15c0d40c8748ae3e8f51b12082cf2431" target="_top" xlink:title=" ">
<polygon fill="white" stroke="black" points="224,-80.5 224,-101.5 430,-101.5 430,-80.5 224,-80.5"/>
<text text-anchor="middle" x="327" y="-87.9" font-family="Helvetica,sans-Serif" font-size="12.00">PlayerTokenScript.CanTakeShortcut</text>
</a>
</g>
</g>
<!-- Node1&#45;&gt;Node2 -->
<g id="edge1" class="edge">
<title>Node1&#45;&gt;Node2</title>
<path fill="none" stroke="midnightblue" d="M154.59,-61.51C185.3,-66.79 222.71,-73.23 254.73,-78.74"/>
<polygon fill="midnightblue" stroke="midnightblue" points="254.47,-82.25 264.92,-80.49 255.66,-75.35 254.47,-82.25"/>
</g>
<!-- Node4 -->
<g id="node4" class="node">
<title>Node4</title>
<g id="a_node4"><a xlink:href="class_board_manager.html#a653d38723d03f890d38a1b68a855c569" target="_top" xlink:title="Clear all movable tiles">
<polygon fill="white" stroke="black" points="241.5,-40.5 241.5,-61.5 412.5,-61.5 412.5,-40.5 241.5,-40.5"/>
<text text-anchor="middle" x="327" y="-47.9" font-family="Helvetica,sans-Serif" font-size="12.00">BoardManager.ClearMovable</text>
</a>
</g>
</g>
<!-- Node1&#45;&gt;Node4 -->
<g id="edge3" class="edge">
<title>Node1&#45;&gt;Node4</title>
<path fill="none" stroke="midnightblue" d="M185.06,-51C200.13,-51 215.79,-51 230.94,-51"/>
<polygon fill="midnightblue" stroke="midnightblue" points="231.34,-54.5 241.34,-51 231.34,-47.5 231.34,-54.5"/>
</g>
<!-- Node8 -->
<g id="node8" class="node">
<title>Node8</title>
<g id="a_node8"><a xlink:href="class_player_token_script.html#adb723bfd264252f5cc0de7e91553cea4" target="_top" xlink:title=" ">
<polygon fill="white" stroke="black" points="221,-0.5 221,-21.5 433,-21.5 433,-0.5 221,-0.5"/>
<text text-anchor="middle" x="327" y="-7.9" font-family="Helvetica,sans-Serif" font-size="12.00">PlayerTokenScript.ShortcutMovement</text>
</a>
</g>
</g>
<!-- Node1&#45;&gt;Node8 -->
<g id="edge7" class="edge">
<title>Node1&#45;&gt;Node8</title>
<path fill="none" stroke="midnightblue" d="M154.59,-40.49C185.3,-35.21 222.71,-28.77 254.73,-23.26"/>
<polygon fill="midnightblue" stroke="midnightblue" points="255.66,-26.65 264.92,-21.51 254.47,-19.75 255.66,-26.65"/>
</g>
<!-- Node3 -->
<g id="node3" class="node">
<title>Node3</title>
<g id="a_node3"><a xlink:href="class_room_script.html#ae66d7fcde6ab8dcbb746309fd6550ae5" target="_top" xlink:title="Does the room have a shortcut tile">
<polygon fill="white" stroke="black" points="469,-80.5 469,-101.5 615,-101.5 615,-80.5 469,-80.5"/>
<text text-anchor="middle" x="542" y="-87.9" font-family="Helvetica,sans-Serif" font-size="12.00">RoomScript.HasShortcut</text>
</a>
</g>
</g>
<!-- Node2&#45;&gt;Node3 -->
<g id="edge2" class="edge">
<title>Node2&#45;&gt;Node3</title>
<path fill="none" stroke="midnightblue" d="M430.13,-91C439.78,-91 449.47,-91 458.89,-91"/>
<polygon fill="midnightblue" stroke="midnightblue" points="459,-94.5 469,-91 459,-87.5 459,-94.5"/>
</g>
<!-- Node5 -->
<g id="node5" class="node">
<title>Node5</title>
<g id="a_node5"><a xlink:href="class_board_tile_script.html#a3ff1d3c491fe4d7e421a624ac0b5be6f" target="_top" xlink:title="setting the glow on the tile">
<polygon fill="white" stroke="black" points="469,-40.5 469,-61.5 615,-61.5 615,-40.5 469,-40.5"/>
<text text-anchor="middle" x="542" y="-47.9" font-family="Helvetica,sans-Serif" font-size="12.00">BoardTileScript.GlowTile</text>
</a>
</g>
</g>
<!-- Node4&#45;&gt;Node5 -->
<g id="edge4" class="edge">
<title>Node4&#45;&gt;Node5</title>
<path fill="none" stroke="midnightblue" d="M412.8,-51C427.88,-51 443.57,-51 458.58,-51"/>
<polygon fill="midnightblue" stroke="midnightblue" points="458.85,-54.5 468.85,-51 458.85,-47.5 458.85,-54.5"/>
</g>
<!-- Node6 -->
<g id="node6" class="node">
<title>Node6</title>
<g id="a_node6"><a xlink:href="class_board_tile_effect_handler_script.html#a93e813816ff40b3602de22f87a694766" target="_top" xlink:title="turn off the effect for when player can move to that tile">
<polygon fill="white" stroke="black" points="651,-60.5 651,-81.5 911,-81.5 911,-60.5 651,-60.5"/>
<text text-anchor="middle" x="781" y="-67.9" font-family="Helvetica,sans-Serif" font-size="12.00">BoardTileEffectHandlerScript.ToggleEffect_Off</text>
</a>
</g>
</g>
<!-- Node5&#45;&gt;Node6 -->
<g id="edge5" class="edge">
<title>Node5&#45;&gt;Node6</title>
<path fill="none" stroke="midnightblue" d="M615.07,-57.08C624.77,-57.9 634.97,-58.76 645.33,-59.64"/>
<polygon fill="midnightblue" stroke="midnightblue" points="645.05,-63.12 655.31,-60.48 645.64,-56.15 645.05,-63.12"/>
</g>
<!-- Node7 -->
<g id="node7" class="node">
<title>Node7</title>
<g id="a_node7"><a xlink:href="class_board_tile_effect_handler_script.html#a7bf5b2a819cb44463464d5c951bf3143" target="_top" xlink:title="turn on the effect for when player can move to that tile">
<polygon fill="white" stroke="black" points="651,-20.5 651,-41.5 911,-41.5 911,-20.5 651,-20.5"/>
<text text-anchor="middle" x="781" y="-27.9" font-family="Helvetica,sans-Serif" font-size="12.00">BoardTileEffectHandlerScript.ToggleEffect_On</text>
</a>
</g>
</g>
<!-- Node5&#45;&gt;Node7 -->
<g id="edge6" class="edge">
<title>Node5&#45;&gt;Node7</title>
<path fill="none" stroke="midnightblue" d="M615.07,-44.92C624.77,-44.1 634.97,-43.24 645.33,-42.36"/>
<polygon fill="midnightblue" stroke="midnightblue" points="645.64,-45.85 655.31,-41.52 645.05,-38.88 645.64,-45.85"/>
</g>
</g>
</svg>
