<?xml version="1.0" encoding="UTF-8" standalone="no"?>
<!DOCTYPE svg PUBLIC "-//W3C//DTD SVG 1.1//EN"
 "http://www.w3.org/Graphics/SVG/1.1/DTD/svg11.dtd">
<!-- Generated by graphviz version 2.47.1 (20210417.1919)
 -->
<!-- Title: RoundManager.GetCurrentPlayer Pages: 1 -->
<!--zoomable 606 -->
<svg id="main" version="1.1" xmlns="http://www.w3.org/2000/svg" xmlns:xlink="http://www.w3.org/1999/xlink" xml:space="preserve" onload="init(evt)">
<style type="text/css"><![CDATA[
.edge:hover path { stroke: red; }
.edge:hover polygon { stroke: red; fill: red; }
]]></style>
<script type="text/javascript"><![CDATA[
var edges = document.getElementsByTagName('g');
if (edges && edges.length) {
  for (var i=0;i<edges.length;i++) {
    if (edges[i].id.substr(0,4)=='edge') {
      edges[i].setAttribute('class','edge');
    }
  }
}
]]></script>
        <defs>
                <circle id="rim" cx="0" cy="0" r="7"/>
                <circle id="rim2" cx="0" cy="0" r="3.5"/>
                <g id="zoomPlus">
                        <use xlink:href="#rim" fill="#404040">
                                <set attributeName="fill" to="#808080" begin="zoomplus.mouseover" end="zoomplus.mouseout"/>
                        </use>
                        <path d="M-4,0h8M0,-4v8" fill="none" stroke="white" stroke-width="1.5" pointer-events="none"/>
                </g>
                <g id="zoomMin">
                        <use xlink:href="#rim" fill="#404040">
                                <set attributeName="fill" to="#808080" begin="zoomminus.mouseover" end="zoomminus.mouseout"/>
                        </use>
                        <path d="M-4,0h8" fill="none" stroke="white" stroke-width="1.5" pointer-events="none"/>
                </g>
                <g id="dirArrow">
                        <path fill="none" stroke="white" stroke-width="1.5" d="M0,-3.0v7 M-2.5,-0.5L0,-3.0L2.5,-0.5"/>
                </g>
               <g id="resetDef">
                       <use xlink:href="#rim2" fill="#404040">
                               <set attributeName="fill" to="#808080" begin="reset.mouseover" end="reset.mouseout"/>
                       </use>
               </g>
        </defs>

<script type="text/javascript">
var viewWidth = 2248;
var viewHeight = 606;
var sectionId = 'dynsection-16';
</script>
<script xlink:href="svgpan.js"/>
<svg id="graph" class="graph">
<g id="viewport">
<title>RoundManager.GetCurrentPlayer</title>
<polygon fill="white" stroke="transparent" points="-4,4 -4,-602 2244,-602 2244,4 -4,4"/>
<!-- Node1 -->
<g id="node1" class="node">
<title>Node1</title>
<g id="a_node1"><a xlink:title="Gets the player controller for the current player">
<polygon fill="#bfbfbf" stroke="black" points="2050,-334.5 2050,-355.5 2240,-355.5 2240,-334.5 2050,-334.5"/>
<text text-anchor="middle" x="2145" y="-341.9" font-family="Helvetica,sans-Serif" font-size="12.00">RoundManager.GetCurrentPlayer</text>
</a>
</g>
</g>
<!-- Node2 -->
<g id="node2" class="node">
<title>Node2</title>
<g id="a_node2"><a xlink:href="class_round_manager.html#afb3821e66d79eeb0991f620ced62940a" target="_top" xlink:title="Maek suggestion after a delay time, used for free suggestion tile">
<polygon fill="white" stroke="black" points="1154.5,-353.5 1154.5,-374.5 1305.5,-374.5 1305.5,-353.5 1154.5,-353.5"/>
<text text-anchor="middle" x="1230" y="-360.9" font-family="Helvetica,sans-Serif" font-size="12.00">RoundManager.DelaySug</text>
</a>
</g>
</g>
<!-- Node1&#45;&gt;Node2 -->
<g id="edge1" class="edge">
<title>Node1&#45;&gt;Node2</title>
<path fill="none" stroke="midnightblue" d="M2039.65,-347.17C1853.34,-351.05 1467.8,-359.07 1305.54,-362.45"/>
<polygon fill="midnightblue" stroke="midnightblue" points="2039.81,-350.67 2049.73,-346.96 2039.66,-343.67 2039.81,-350.67"/>
</g>
<!-- Node9 -->
<g id="node9" class="node">
<title>Node9</title>
<g id="a_node9"><a xlink:href="class_u_i_handler.html#a81884a614bffa4b024ed137552033f7f" target="_top" xlink:title="Dispal a panel for a player to choose which card to show">
<polygon fill="white" stroke="black" points="1829,-392.5 1829,-413.5 2006,-413.5 2006,-392.5 1829,-392.5"/>
<text text-anchor="middle" x="1917.5" y="-399.9" font-family="Helvetica,sans-Serif" font-size="12.00">UIHandler.DisplayChoicePanel</text>
</a>
</g>
</g>
<!-- Node1&#45;&gt;Node9 -->
<g id="edge8" class="edge">
<title>Node1&#45;&gt;Node9</title>
<path fill="none" stroke="midnightblue" d="M2093.24,-358.06C2052.83,-368.45 1997,-382.81 1959.41,-392.48"/>
<polygon fill="midnightblue" stroke="midnightblue" points="2094.35,-361.38 2103.16,-355.5 2092.61,-354.6 2094.35,-361.38"/>
</g>
<!-- Node15 -->
<g id="node15" class="node">
<title>Node15</title>
<g id="a_node15"><a xlink:href="class_round_manager.html#a29177f2e27c6c4af55dfa3c48d67cfb0" target="_top" xlink:title="Ending the turn. Returns the next player">
<polygon fill="white" stroke="black" points="1158.5,-313.5 1158.5,-334.5 1301.5,-334.5 1301.5,-313.5 1158.5,-313.5"/>
<text text-anchor="middle" x="1230" y="-320.9" font-family="Helvetica,sans-Serif" font-size="12.00">RoundManager.EndTurn</text>
</a>
</g>
</g>
<!-- Node1&#45;&gt;Node15 -->
<g id="edge16" class="edge">
<title>Node1&#45;&gt;Node15</title>
<path fill="none" stroke="midnightblue" d="M2039.57,-342.6C1851.68,-338.28 1461.38,-329.3 1301.56,-325.62"/>
<polygon fill="midnightblue" stroke="midnightblue" points="2039.65,-346.1 2049.73,-342.83 2039.81,-339.1 2039.65,-346.1"/>
</g>
<!-- Node19 -->
<g id="node19" class="node">
<title>Node19</title>
<g id="a_node19"><a xlink:href="class_user_controller.html#a587c55687141d18f375e0504ea4649fa" target="_top" xlink:title="Gets the player controller for the current player">
<polygon fill="white" stroke="black" points="1825,-216.5 1825,-237.5 2010,-237.5 2010,-216.5 1825,-216.5"/>
<text text-anchor="middle" x="1917.5" y="-223.9" font-family="Helvetica,sans-Serif" font-size="12.00">UserController.GetCurrentPlayer</text>
</a>
</g>
</g>
<!-- Node1&#45;&gt;Node19 -->
<g id="edge21" class="edge">
<title>Node1&#45;&gt;Node19</title>
<path fill="none" stroke="midnightblue" d="M2114.62,-329.62C2068.1,-305.29 1978.7,-258.5 1938.7,-237.57"/>
<polygon fill="midnightblue" stroke="midnightblue" points="2113.11,-332.78 2123.59,-334.32 2116.35,-326.58 2113.11,-332.78"/>
</g>
<!-- Node24 -->
<g id="node24" class="node">
<title>Node24</title>
<g id="a_node24"><a xlink:href="class_round_manager.html#acf644ae21a6f9ebc2a476fc8603e18fc" target="_top" xlink:title="Method for starting the turn">
<polygon fill="white" stroke="black" points="1382.5,-156.5 1382.5,-177.5 1529.5,-177.5 1529.5,-156.5 1382.5,-156.5"/>
<text text-anchor="middle" x="1456" y="-163.9" font-family="Helvetica,sans-Serif" font-size="12.00">RoundManager.StartTurn</text>
</a>
</g>
</g>
<!-- Node1&#45;&gt;Node24 -->
<g id="edge50" class="edge">
<title>Node1&#45;&gt;Node24</title>
<path fill="none" stroke="midnightblue" d="M2131.59,-326.16C2110.87,-296.23 2066.33,-238.06 2014,-207 1851.02,-110.24 1612.13,-137.94 1508.32,-156.43"/>
<polygon fill="midnightblue" stroke="midnightblue" points="2128.72,-328.17 2137.23,-334.47 2134.51,-324.23 2128.72,-328.17"/>
</g>
<!-- Node30 -->
<g id="node30" class="node">
<title>Node30</title>
<g id="a_node30"><a xlink:href="class_round_manager.html#ab691cd5cd773e23822b237834b1fcb0a" target="_top" xlink:title="to have the current player to make an accusation eliminates the player if it is wrong wins the game i...">
<polygon fill="white" stroke="black" points="1824,-529.5 1824,-550.5 2011,-550.5 2011,-529.5 1824,-529.5"/>
<text text-anchor="middle" x="1917.5" y="-536.9" font-family="Helvetica,sans-Serif" font-size="12.00">RoundManager.MakeAccusation</text>
</a>
</g>
</g>
<!-- Node1&#45;&gt;Node30 -->
<g id="edge35" class="edge">
<title>Node1&#45;&gt;Node30</title>
<path fill="none" stroke="midnightblue" d="M2132.51,-364.15C2112.28,-396.43 2067.34,-461.96 2014,-501 1996.66,-513.69 1974.59,-523.06 1956.04,-529.42"/>
<polygon fill="midnightblue" stroke="midnightblue" points="2135.5,-365.97 2137.77,-355.62 2129.54,-362.3 2135.5,-365.97"/>
</g>
<!-- Node34 -->
<g id="node34" class="node">
<title>Node34</title>
<g id="a_node34"><a xlink:href="class_round_manager.html#a6cf32ad7ffd3cafc902ae5faeb7605f8" target="_top" xlink:title="removing a card from the player&#39;s To Guess List notify the AI if a player finished showing a suggeste...">
<polygon fill="white" stroke="black" points="1823.5,-470.5 1823.5,-491.5 2011.5,-491.5 2011.5,-470.5 1823.5,-470.5"/>
<text text-anchor="middle" x="1917.5" y="-477.9" font-family="Helvetica,sans-Serif" font-size="12.00">RoundManager.NotifySuggestion</text>
</a>
</g>
</g>
<!-- Node1&#45;&gt;Node34 -->
<g id="edge40" class="edge">
<title>Node1&#45;&gt;Node34</title>
<path fill="none" stroke="midnightblue" d="M2127.8,-363.24C2104.88,-387.93 2060.56,-431.68 2014,-456 2002.23,-462.15 1988.83,-466.87 1975.87,-470.46"/>
<polygon fill="midnightblue" stroke="midnightblue" points="2130.57,-365.4 2134.73,-355.66 2125.4,-360.68 2130.57,-365.4"/>
</g>
<!-- Node37 -->
<g id="node37" class="node">
<title>Node37</title>
<g id="a_node37"><a xlink:href="class_u_i_handler.html#a7e471e88a4baaa1993d0a85035c38016" target="_top" xlink:title="After pressing a card to choose pass this card to show it">
<polygon fill="white" stroke="black" points="1369.5,-430.5 1369.5,-451.5 1542.5,-451.5 1542.5,-430.5 1369.5,-430.5"/>
<text text-anchor="middle" x="1456" y="-437.9" font-family="Helvetica,sans-Serif" font-size="12.00">UIHandler.ShowSelectedCard</text>
</a>
</g>
</g>
<!-- Node1&#45;&gt;Node37 -->
<g id="edge49" class="edge">
<title>Node1&#45;&gt;Node37</title>
<path fill="none" stroke="midnightblue" d="M2123.27,-362.08C2098.86,-381.02 2056.28,-410.55 2014,-423 1852.74,-470.48 1653.8,-461.8 1542.61,-451.32"/>
<polygon fill="midnightblue" stroke="midnightblue" points="2125.74,-364.58 2131.4,-355.63 2121.39,-359.1 2125.74,-364.58"/>
</g>
<!-- Node38 -->
<g id="node38" class="node">
<title>Node38</title>
<g id="a_node38"><a xlink:href="class_win_screen_script.html#a302ac9587462267075bd86d7c66e2ee8" target="_top" xlink:title="Update the win screen when enabled">
<polygon fill="white" stroke="black" points="1837.5,-40.5 1837.5,-61.5 1997.5,-61.5 1997.5,-40.5 1837.5,-40.5"/>
<text text-anchor="middle" x="1917.5" y="-47.9" font-family="Helvetica,sans-Serif" font-size="12.00">WinScreenScript.OnEnable</text>
</a>
</g>
</g>
<!-- Node1&#45;&gt;Node38 -->
<g id="edge46" class="edge">
<title>Node1&#45;&gt;Node38</title>
<path fill="none" stroke="midnightblue" d="M2140.14,-324.24C2129.62,-273.61 2095.56,-143.09 2014,-76 2006.46,-69.79 1997.54,-65.11 1988.23,-61.58"/>
<polygon fill="midnightblue" stroke="midnightblue" points="2136.76,-325.16 2142.14,-334.29 2143.62,-323.8 2136.76,-325.16"/>
</g>
<!-- Node39 -->
<g id="node39" class="node">
<title>Node39</title>
<g id="a_node39"><a xlink:href="class_notebook_script.html#a3c031d903921e95ac42253bb09f5beec" target="_top" xlink:title="Refresh the notebook UI Object">
<polygon fill="white" stroke="black" points="1821,-0.5 1821,-21.5 2014,-21.5 2014,-0.5 1821,-0.5"/>
<text text-anchor="middle" x="1917.5" y="-7.9" font-family="Helvetica,sans-Serif" font-size="12.00">NotebookScript.RefreshNotebook</text>
</a>
</g>
</g>
<!-- Node1&#45;&gt;Node39 -->
<g id="edge47" class="edge">
<title>Node1&#45;&gt;Node39</title>
<path fill="none" stroke="midnightblue" d="M2141.94,-324.03C2135.17,-267.2 2108.32,-109.22 2014,-31 2009.44,-27.22 2004.34,-24.09 1998.93,-21.52"/>
<polygon fill="midnightblue" stroke="midnightblue" points="2138.49,-324.72 2143.07,-334.28 2145.45,-323.96 2138.49,-324.72"/>
</g>
<!-- Node3 -->
<g id="node3" class="node">
<title>Node3</title>
<g id="a_node3"><a xlink:href="class_round_manager.html#adfd4f66436e06c12a25c9236b629f369" target="_top" xlink:title="moving the current player to the selected tile">
<polygon fill="white" stroke="black" points="928,-356.5 928,-377.5 1089,-377.5 1089,-356.5 928,-356.5"/>
<text text-anchor="middle" x="1008.5" y="-363.9" font-family="Helvetica,sans-Serif" font-size="12.00">RoundManager.MovePlayer</text>
</a>
</g>
</g>
<!-- Node2&#45;&gt;Node3 -->
<g id="edge2" class="edge">
<title>Node2&#45;&gt;Node3</title>
<path fill="none" stroke="midnightblue" d="M1144.16,-365.16C1126.08,-365.41 1107.04,-365.67 1089.17,-365.91"/>
<polygon fill="midnightblue" stroke="midnightblue" points="1144.43,-368.66 1154.38,-365.02 1144.33,-361.66 1144.43,-368.66"/>
</g>
<!-- Node4 -->
<g id="node4" class="node">
<title>Node4</title>
<g id="a_node4"><a xlink:href="class_user_controller.html#af896aefe0262e0d8f07fa5f18592877d" target="_top" xlink:title="Selects a tile for player movement">
<polygon fill="white" stroke="black" points="713,-358.5 713,-379.5 859,-379.5 859,-358.5 713,-358.5"/>
<text text-anchor="middle" x="786" y="-365.9" font-family="Helvetica,sans-Serif" font-size="12.00">UserController.SelectTile</text>
</a>
</g>
</g>
<!-- Node3&#45;&gt;Node4 -->
<g id="edge3" class="edge">
<title>Node3&#45;&gt;Node4</title>
<path fill="none" stroke="midnightblue" d="M917.79,-367.81C898.28,-367.99 877.89,-368.18 859.16,-368.35"/>
<polygon fill="midnightblue" stroke="midnightblue" points="917.93,-371.31 927.89,-367.72 917.86,-364.31 917.93,-371.31"/>
</g>
<!-- Node5 -->
<g id="node5" class="node">
<title>Node5</title>
<g id="a_node5"><a xlink:href="class_a_i_controller_script.html#af04897fa0ae4ed5e472dea79bce8d7df" target="_top" xlink:title="Decides where the AI should move to this should match the flow chart of the AI">
<polygon fill="white" stroke="black" points="435,-342.5 435,-363.5 645,-363.5 645,-342.5 435,-342.5"/>
<text text-anchor="middle" x="540" y="-349.9" font-family="Helvetica,sans-Serif" font-size="12.00">AIControllerScript.Decide_Movement</text>
</a>
</g>
</g>
<!-- Node4&#45;&gt;Node5 -->
<g id="edge4" class="edge">
<title>Node4&#45;&gt;Node5</title>
<path fill="none" stroke="midnightblue" d="M702.67,-363.6C684.19,-362.39 664.36,-361.09 645.12,-359.83"/>
<polygon fill="midnightblue" stroke="midnightblue" points="702.57,-367.1 712.78,-364.26 703.03,-360.12 702.57,-367.1"/>
</g>
<!-- Node8 -->
<g id="node8" class="node">
<title>Node8</title>
<g id="a_node8"><a xlink:href="class_user_input_control_script.html#a13be570929e27dad6d3d452ccd5f52eb" target="_top" xlink:title="move player token to the tile the cursor is on">
<polygon fill="white" stroke="black" points="425,-382.5 425,-403.5 655,-403.5 655,-382.5 425,-382.5"/>
<text text-anchor="middle" x="540" y="-389.9" font-family="Helvetica,sans-Serif" font-size="12.00">UserInputControlScript.MovePlayerToken</text>
</a>
</g>
</g>
<!-- Node4&#45;&gt;Node8 -->
<g id="edge7" class="edge">
<title>Node4&#45;&gt;Node8</title>
<path fill="none" stroke="midnightblue" d="M702.59,-377.11C685,-378.84 666.19,-380.69 647.85,-382.49"/>
<polygon fill="midnightblue" stroke="midnightblue" points="703.17,-380.57 712.78,-376.1 702.49,-373.6 703.17,-380.57"/>
</g>
<!-- Node6 -->
<g id="node6" class="node">
<title>Node6</title>
<g id="a_node6"><a xlink:href="class_a_i_controller_script.html#ac31d9b8dbb75696b181eff1fbef41b97" target="_top" xlink:title="dictates what the AI will do depending on what mode it is in">
<polygon fill="white" stroke="black" points="215,-382.5 215,-403.5 389,-403.5 389,-382.5 215,-382.5"/>
<text text-anchor="middle" x="302" y="-389.9" font-family="Helvetica,sans-Serif" font-size="12.00">AIControllerScript.AIBehaviour</text>
</a>
</g>
</g>
<!-- Node5&#45;&gt;Node6 -->
<g id="edge5" class="edge">
<title>Node5&#45;&gt;Node6</title>
<path fill="none" stroke="midnightblue" d="M467.07,-365.19C434.47,-370.72 396.31,-377.18 365,-382.49"/>
<polygon fill="midnightblue" stroke="midnightblue" points="467.72,-368.63 476.99,-363.51 466.55,-361.73 467.72,-368.63"/>
</g>
<!-- Node7 -->
<g id="node7" class="node">
<title>Node7</title>
<g id="a_node7"><a xlink:href="class_a_i_controller_script.html#a74dc0e720fafceb873d3b19c12f68d58" target="_top" xlink:title=" ">
<polygon fill="white" stroke="black" points="0,-382.5 0,-403.5 179,-403.5 179,-382.5 0,-382.5"/>
<text text-anchor="middle" x="89.5" y="-389.9" font-family="Helvetica,sans-Serif" font-size="12.00">AIControllerScript.FixedUpdate</text>
</a>
</g>
</g>
<!-- Node6&#45;&gt;Node7 -->
<g id="edge6" class="edge">
<title>Node6&#45;&gt;Node7</title>
<path fill="none" stroke="midnightblue" d="M204.57,-393C196.15,-393 187.67,-393 179.32,-393"/>
<polygon fill="midnightblue" stroke="midnightblue" points="204.77,-396.5 214.77,-393 204.77,-389.5 204.77,-396.5"/>
</g>
<!-- Node10 -->
<g id="node10" class="node">
<title>Node10</title>
<g id="a_node10"><a xlink:href="class_round_manager.html#a596fc1c822ebb74dad8d238b15b1ea3a" target="_top" xlink:title="Iterate through the rest of the players searching for if 1 or more of the cards were found">
<polygon fill="white" stroke="black" points="1136,-470.5 1136,-491.5 1324,-491.5 1324,-470.5 1136,-470.5"/>
<text text-anchor="middle" x="1230" y="-477.9" font-family="Helvetica,sans-Serif" font-size="12.00">RoundManager.MakeSuggestion</text>
</a>
</g>
</g>
<!-- Node9&#45;&gt;Node10 -->
<g id="edge9" class="edge">
<title>Node9&#45;&gt;Node10</title>
<path fill="none" stroke="midnightblue" d="M1818.5,-394.46C1706.09,-387.33 1517.07,-383.59 1360,-421 1317.47,-431.13 1272.08,-455.93 1248.12,-470.28"/>
<polygon fill="midnightblue" stroke="midnightblue" points="1818.59,-397.97 1828.8,-395.13 1819.05,-390.98 1818.59,-397.97"/>
</g>
<!-- Node11 -->
<g id="node11" class="node">
<title>Node11</title>
<g id="a_node11"><a xlink:href="class_suggestion_test.html#ac6fed8b504eb8b103cb5c38fa895edf3" target="_top" xlink:title="get test choices and make suggestion">
<polygon fill="white" stroke="black" points="691,-501.5 691,-522.5 881,-522.5 881,-501.5 691,-501.5"/>
<text text-anchor="middle" x="786" y="-508.9" font-family="Helvetica,sans-Serif" font-size="12.00">SuggestionTest.MakeSuggestion</text>
</a>
</g>
</g>
<!-- Node10&#45;&gt;Node11 -->
<g id="edge10" class="edge">
<title>Node10&#45;&gt;Node11</title>
<path fill="none" stroke="midnightblue" d="M1125.52,-490.02C1116.89,-490.71 1108.3,-491.38 1100,-492 1026.56,-497.48 943.35,-502.75 881.2,-506.5"/>
<polygon fill="midnightblue" stroke="midnightblue" points="1125.98,-493.49 1135.66,-489.2 1125.41,-486.52 1125.98,-493.49"/>
</g>
<!-- Node12 -->
<g id="node12" class="node">
<title>Node12</title>
<g id="a_node12"><a xlink:href="class_user_controller.html#a6230816eec4c8be9bda248a166d7b9bd" target="_top" xlink:title="Makes suggestion">
<polygon fill="white" stroke="black" points="917,-461.5 917,-482.5 1100,-482.5 1100,-461.5 917,-461.5"/>
<text text-anchor="middle" x="1008.5" y="-468.9" font-family="Helvetica,sans-Serif" font-size="12.00">UserController.MakeSuggestion</text>
</a>
</g>
</g>
<!-- Node10&#45;&gt;Node12 -->
<g id="edge11" class="edge">
<title>Node10&#45;&gt;Node12</title>
<path fill="none" stroke="midnightblue" d="M1125.9,-476.77C1117.35,-476.42 1108.74,-476.07 1100.28,-475.72"/>
<polygon fill="midnightblue" stroke="midnightblue" points="1125.78,-480.27 1135.91,-477.18 1126.06,-473.28 1125.78,-480.27"/>
</g>
<!-- Node12&#45;&gt;Node11 -->
<g id="edge15" class="edge">
<title>Node12&#45;&gt;Node11</title>
<path fill="none" stroke="midnightblue" d="M939.51,-484.33C909.22,-489.83 873.93,-496.23 844.93,-501.49"/>
<polygon fill="midnightblue" stroke="midnightblue" points="940.35,-487.74 949.57,-482.51 939.1,-480.85 940.35,-487.74"/>
</g>
<!-- Node13 -->
<g id="node13" class="node">
<title>Node13</title>
<g id="a_node13"><a xlink:href="class_u_i_handler.html#ae6960c4c231f0e85718af2150449bb1f" target="_top" xlink:title="Hides the suggestion panel">
<polygon fill="white" stroke="black" points="700.5,-461.5 700.5,-482.5 871.5,-482.5 871.5,-461.5 700.5,-461.5"/>
<text text-anchor="middle" x="786" y="-468.9" font-family="Helvetica,sans-Serif" font-size="12.00">UIHandler.ConfirmSuggestion</text>
</a>
</g>
</g>
<!-- Node12&#45;&gt;Node13 -->
<g id="edge12" class="edge">
<title>Node12&#45;&gt;Node13</title>
<path fill="none" stroke="midnightblue" d="M906.62,-472C894.92,-472 883.07,-472 871.62,-472"/>
<polygon fill="midnightblue" stroke="midnightblue" points="906.86,-475.5 916.86,-472 906.86,-468.5 906.86,-475.5"/>
</g>
<!-- Node14 -->
<g id="node14" class="node">
<title>Node14</title>
<g id="a_node14"><a xlink:href="class_a_i_controller_script.html#affdf86fa313c46463a9a5a2b20020a17" target="_top" xlink:title="Decides what the AI should suggest this should match the flow chart of the AI">
<polygon fill="white" stroke="black" points="432.5,-422.5 432.5,-443.5 647.5,-443.5 647.5,-422.5 432.5,-422.5"/>
<text text-anchor="middle" x="540" y="-429.9" font-family="Helvetica,sans-Serif" font-size="12.00">AIControllerScript.Decide_Suggestion</text>
</a>
</g>
</g>
<!-- Node12&#45;&gt;Node14 -->
<g id="edge13" class="edge">
<title>Node12&#45;&gt;Node14</title>
<path fill="none" stroke="midnightblue" d="M938.86,-459.85C920.14,-456.9 899.83,-454.01 881,-452 803.11,-443.69 714.77,-438.89 647.66,-436.2"/>
<polygon fill="midnightblue" stroke="midnightblue" points="938.35,-463.32 948.77,-461.45 939.46,-456.41 938.35,-463.32"/>
</g>
<!-- Node14&#45;&gt;Node6 -->
<g id="edge14" class="edge">
<title>Node14&#45;&gt;Node6</title>
<path fill="none" stroke="midnightblue" d="M467.07,-420.81C434.47,-415.28 396.31,-408.82 365,-403.51"/>
<polygon fill="midnightblue" stroke="midnightblue" points="466.55,-424.27 476.99,-422.49 467.72,-417.37 466.55,-424.27"/>
</g>
<!-- Node16 -->
<g id="node16" class="node">
<title>Node16</title>
<g id="a_node16"><a xlink:href="class_user_controller.html#ab90611f541e20c125133d09b62407f41" target="_top" xlink:title="Ends turn">
<polygon fill="white" stroke="black" points="939.5,-313.5 939.5,-334.5 1077.5,-334.5 1077.5,-313.5 939.5,-313.5"/>
<text text-anchor="middle" x="1008.5" y="-320.9" font-family="Helvetica,sans-Serif" font-size="12.00">UserController.EndTurn</text>
</a>
</g>
</g>
<!-- Node15&#45;&gt;Node16 -->
<g id="edge17" class="edge">
<title>Node15&#45;&gt;Node16</title>
<path fill="none" stroke="midnightblue" d="M1148.21,-324C1125.07,-324 1100.09,-324 1077.78,-324"/>
<polygon fill="midnightblue" stroke="midnightblue" points="1148.34,-327.5 1158.34,-324 1148.34,-320.5 1148.34,-327.5"/>
</g>
<!-- Node17 -->
<g id="node17" class="node">
<title>Node17</title>
<g id="a_node17"><a xlink:href="class_a_i_controller_script.html#a9c386cf1258ad897c9a1068804f07ba0" target="_top" xlink:title="have AI to end turn">
<polygon fill="white" stroke="black" points="462.5,-284.5 462.5,-305.5 617.5,-305.5 617.5,-284.5 462.5,-284.5"/>
<text text-anchor="middle" x="540" y="-291.9" font-family="Helvetica,sans-Serif" font-size="12.00">AIControllerScript.EndTurn</text>
</a>
</g>
</g>
<!-- Node16&#45;&gt;Node17 -->
<g id="edge18" class="edge">
<title>Node16&#45;&gt;Node17</title>
<path fill="none" stroke="midnightblue" d="M929.01,-313.74C913.14,-311.94 896.55,-310.24 881,-309 790.75,-301.8 686.71,-298.2 617.73,-296.48"/>
<polygon fill="midnightblue" stroke="midnightblue" points="928.98,-317.26 939.32,-314.94 929.79,-310.31 928.98,-317.26"/>
</g>
<!-- Node18 -->
<g id="node18" class="node">
<title>Node18</title>
<g id="a_node18"><a xlink:href="class_u_i_handler.html#acc06a1dab8566d9e14f7ab3ae1ffea93" target="_top" xlink:title="Ends current player&#39;s turn">
<polygon fill="white" stroke="black" points="729,-318.5 729,-339.5 843,-339.5 843,-318.5 729,-318.5"/>
<text text-anchor="middle" x="786" y="-325.9" font-family="Helvetica,sans-Serif" font-size="12.00">UIHandler.EndTurn</text>
</a>
</g>
</g>
<!-- Node16&#45;&gt;Node18 -->
<g id="edge20" class="edge">
<title>Node16&#45;&gt;Node18</title>
<path fill="none" stroke="midnightblue" d="M928.95,-325.78C900.58,-326.42 869.16,-327.14 843.1,-327.73"/>
<polygon fill="midnightblue" stroke="midnightblue" points="929.32,-329.27 939.24,-325.55 929.17,-322.28 929.32,-329.27"/>
</g>
<!-- Node17&#45;&gt;Node6 -->
<g id="edge19" class="edge">
<title>Node17&#45;&gt;Node6</title>
<path fill="none" stroke="midnightblue" d="M493.68,-308.55C472.56,-315.26 447.24,-323.87 425,-333 387.88,-348.23 346.26,-369.69 322.49,-382.39"/>
<polygon fill="midnightblue" stroke="midnightblue" points="494.88,-311.85 503.37,-305.51 492.78,-305.17 494.88,-311.85"/>
</g>
<!-- Node20 -->
<g id="node20" class="node">
<title>Node20</title>
<g id="a_node20"><a xlink:href="class_u_i_handler.html#a99048b81a1303baba7efd44095c0f235" target="_top" xlink:title="Displays Suggestion menu, set the room if in a room">
<polygon fill="white" stroke="black" points="1588,-276.5 1588,-297.5 1785,-297.5 1785,-276.5 1588,-276.5"/>
<text text-anchor="middle" x="1686.5" y="-283.9" font-family="Helvetica,sans-Serif" font-size="12.00">UIHandler.DisplayMenuSuggestion</text>
</a>
</g>
</g>
<!-- Node19&#45;&gt;Node20 -->
<g id="edge22" class="edge">
<title>Node19&#45;&gt;Node20</title>
<path fill="none" stroke="midnightblue" d="M1875.05,-240.69C1849.3,-248.92 1815.42,-259.27 1785,-267 1771.6,-270.4 1757.06,-273.63 1743.39,-276.47"/>
<polygon fill="midnightblue" stroke="midnightblue" points="1876.4,-243.93 1884.85,-237.53 1874.25,-237.27 1876.4,-243.93"/>
</g>
<!-- Node22 -->
<g id="node22" class="node">
<title>Node22</title>
<g id="a_node22"><a xlink:href="class_u_i_handler.html#ab35722a35c0035fb164d984c49cec4de" target="_top" xlink:title=" ">
<polygon fill="white" stroke="black" points="1617.5,-236.5 1617.5,-257.5 1755.5,-257.5 1755.5,-236.5 1617.5,-236.5"/>
<text text-anchor="middle" x="1686.5" y="-243.9" font-family="Helvetica,sans-Serif" font-size="12.00">UIHandler.FixedUpdate</text>
</a>
</g>
</g>
<!-- Node19&#45;&gt;Node22 -->
<g id="edge25" class="edge">
<title>Node19&#45;&gt;Node22</title>
<path fill="none" stroke="midnightblue" d="M1814.63,-235.9C1794.69,-237.64 1774.23,-239.42 1755.72,-241.04"/>
<polygon fill="midnightblue" stroke="midnightblue" points="1815.02,-239.38 1824.68,-235.02 1814.41,-232.4 1815.02,-239.38"/>
</g>
<!-- Node23 -->
<g id="node23" class="node">
<title>Node23</title>
<g id="a_node23"><a xlink:href="class_u_i_handler.html#ac072319b13f11e5ac215a0ed6ab11aa9" target="_top" xlink:title="Resets UI for the next player">
<polygon fill="white" stroke="black" points="1619,-156.5 1619,-177.5 1754,-177.5 1754,-156.5 1619,-156.5"/>
<text text-anchor="middle" x="1686.5" y="-163.9" font-family="Helvetica,sans-Serif" font-size="12.00">UIHandler.InitialiseTurn</text>
</a>
</g>
</g>
<!-- Node19&#45;&gt;Node23 -->
<g id="edge26" class="edge">
<title>Node19&#45;&gt;Node23</title>
<path fill="none" stroke="midnightblue" d="M1875.05,-213.31C1849.3,-205.08 1815.42,-194.73 1785,-187 1771.6,-183.6 1757.06,-180.37 1743.39,-177.53"/>
<polygon fill="midnightblue" stroke="midnightblue" points="1874.25,-216.73 1884.85,-216.47 1876.4,-210.07 1874.25,-216.73"/>
</g>
<!-- Node27 -->
<g id="node27" class="node">
<title>Node27</title>
<g id="a_node27"><a xlink:href="class_u_i_handler.html#a94a29c2949506b7cd0de99509a6673b5" target="_top" xlink:title="Starting behaviour">
<polygon fill="white" stroke="black" points="1382,-116.5 1382,-137.5 1530,-137.5 1530,-116.5 1382,-116.5"/>
<text text-anchor="middle" x="1456" y="-123.9" font-family="Helvetica,sans-Serif" font-size="12.00">UIHandler.StartBehaviour</text>
</a>
</g>
</g>
<!-- Node19&#45;&gt;Node27 -->
<g id="edge31" class="edge">
<title>Node19&#45;&gt;Node27</title>
<path fill="none" stroke="midnightblue" d="M1895.83,-209.96C1871.17,-190.75 1827.88,-160.44 1785,-147 1700.48,-120.51 1597.85,-118.79 1530.15,-121.55"/>
<polygon fill="midnightblue" stroke="midnightblue" points="1893.73,-212.76 1903.74,-216.25 1898.09,-207.28 1893.73,-212.76"/>
</g>
<!-- Node28 -->
<g id="node28" class="node">
<title>Node28</title>
<g id="a_node28"><a xlink:href="class_user_controller.html#a5141fbe53b6605d5431a4125ce8a1277" target="_top" xlink:title="Takes the shortcut">
<polygon fill="white" stroke="black" points="1604.5,-196.5 1604.5,-217.5 1768.5,-217.5 1768.5,-196.5 1604.5,-196.5"/>
<text text-anchor="middle" x="1686.5" y="-203.9" font-family="Helvetica,sans-Serif" font-size="12.00">UserController.TakeShortcut</text>
</a>
</g>
</g>
<!-- Node19&#45;&gt;Node28 -->
<g id="edge33" class="edge">
<title>Node19&#45;&gt;Node28</title>
<path fill="none" stroke="midnightblue" d="M1814.61,-218.1C1799.22,-216.76 1783.51,-215.39 1768.63,-214.09"/>
<polygon fill="midnightblue" stroke="midnightblue" points="1814.41,-221.6 1824.68,-218.98 1815.02,-214.62 1814.41,-221.6"/>
</g>
<!-- Node21 -->
<g id="node21" class="node">
<title>Node21</title>
<g id="a_node21"><a xlink:href="class_u_i_handler.html#a52241b6fefb8a446c2c000202216bfd2" target="_top" xlink:title="Makes suggestion when the button is pressed">
<polygon fill="white" stroke="black" points="1360,-276.5 1360,-297.5 1552,-297.5 1552,-276.5 1360,-276.5"/>
<text text-anchor="middle" x="1456" y="-283.9" font-family="Helvetica,sans-Serif" font-size="12.00">UIHandler.MakeSuggestionButton</text>
</a>
</g>
</g>
<!-- Node20&#45;&gt;Node21 -->
<g id="edge23" class="edge">
<title>Node20&#45;&gt;Node21</title>
<path fill="none" stroke="midnightblue" d="M1577.86,-287C1569.24,-287 1560.58,-287 1552.06,-287"/>
<polygon fill="midnightblue" stroke="midnightblue" points="1577.93,-290.5 1587.93,-287 1577.93,-283.5 1577.93,-290.5"/>
</g>
<!-- Node21&#45;&gt;Node2 -->
<g id="edge24" class="edge">
<title>Node21&#45;&gt;Node2</title>
<path fill="none" stroke="midnightblue" d="M1425.17,-302.01C1399.04,-314.67 1359.75,-332.5 1324,-344 1312.68,-347.64 1300.37,-350.81 1288.52,-353.5"/>
<polygon fill="midnightblue" stroke="midnightblue" points="1426.73,-305.15 1434.17,-297.61 1423.65,-298.86 1426.73,-305.15"/>
</g>
<!-- Node23&#45;&gt;Node24 -->
<g id="edge27" class="edge">
<title>Node23&#45;&gt;Node24</title>
<path fill="none" stroke="midnightblue" d="M1608.46,-167C1583.05,-167 1554.87,-167 1529.78,-167"/>
<polygon fill="midnightblue" stroke="midnightblue" points="1608.79,-170.5 1618.79,-167 1608.79,-163.5 1608.79,-170.5"/>
</g>
<!-- Node24&#45;&gt;Node15 -->
<g id="edge28" class="edge">
<title>Node24&#45;&gt;Node15</title>
<path fill="none" stroke="midnightblue" d="M1372.56,-181C1368.21,-182.77 1363.99,-184.76 1360,-187 1301.88,-219.62 1254.47,-287.25 1237.61,-313.38"/>
<polygon fill="midnightblue" stroke="midnightblue" points="1374.04,-184.18 1382.24,-177.47 1371.65,-177.6 1374.04,-184.18"/>
</g>
<!-- Node25 -->
<g id="node25" class="node">
<title>Node25</title>
<g id="a_node25"><a xlink:href="class_game_manager_script.html#a12cbaf1ff00804887619c07c7267cf31" target="_top" xlink:title="starting and initialing the game and it&#39;s components">
<polygon fill="white" stroke="black" points="1137,-136.5 1137,-157.5 1323,-157.5 1323,-136.5 1137,-136.5"/>
<text text-anchor="middle" x="1230" y="-143.9" font-family="Helvetica,sans-Serif" font-size="12.00">GameManagerScript.StartGame</text>
</a>
</g>
</g>
<!-- Node24&#45;&gt;Node25 -->
<g id="edge29" class="edge">
<title>Node24&#45;&gt;Node25</title>
<path fill="none" stroke="midnightblue" d="M1372,-159.59C1356.17,-158.18 1339.5,-156.69 1323.39,-155.25"/>
<polygon fill="midnightblue" stroke="midnightblue" points="1372,-163.1 1382.27,-160.51 1372.62,-156.13 1372,-163.1"/>
</g>
<!-- Node26 -->
<g id="node26" class="node">
<title>Node26</title>
<g id="a_node26"><a xlink:href="class_suggestion_test.html#a904e4481863c3e620574eba37c993a26" target="_top" xlink:title=" ">
<polygon fill="white" stroke="black" points="945.5,-136.5 945.5,-157.5 1071.5,-157.5 1071.5,-136.5 945.5,-136.5"/>
<text text-anchor="middle" x="1008.5" y="-143.9" font-family="Helvetica,sans-Serif" font-size="12.00">SuggestionTest.Start</text>
</a>
</g>
</g>
<!-- Node25&#45;&gt;Node26 -->
<g id="edge30" class="edge">
<title>Node25&#45;&gt;Node26</title>
<path fill="none" stroke="midnightblue" d="M1126.79,-147C1108.01,-147 1088.94,-147 1071.79,-147"/>
<polygon fill="midnightblue" stroke="midnightblue" points="1126.87,-150.5 1136.87,-147 1126.87,-143.5 1126.87,-150.5"/>
</g>
<!-- Node27&#45;&gt;Node25 -->
<g id="edge32" class="edge">
<title>Node27&#45;&gt;Node25</title>
<path fill="none" stroke="midnightblue" d="M1371.7,-134.44C1355.88,-135.85 1339.24,-137.34 1323.16,-138.77"/>
<polygon fill="midnightblue" stroke="midnightblue" points="1372.31,-137.9 1381.96,-133.52 1371.69,-130.92 1372.31,-137.9"/>
</g>
<!-- Node29 -->
<g id="node29" class="node">
<title>Node29</title>
<g id="a_node29"><a xlink:href="class_u_i_handler.html#a22b216d36344557c94a5b5c3eef79d8f" target="_top" xlink:title="Button for taking a shortcut">
<polygon fill="white" stroke="black" points="1369.5,-196.5 1369.5,-217.5 1542.5,-217.5 1542.5,-196.5 1369.5,-196.5"/>
<text text-anchor="middle" x="1456" y="-203.9" font-family="Helvetica,sans-Serif" font-size="12.00">UIHandler.TakeShortcutButton</text>
</a>
</g>
</g>
<!-- Node28&#45;&gt;Node29 -->
<g id="edge34" class="edge">
<title>Node28&#45;&gt;Node29</title>
<path fill="none" stroke="midnightblue" d="M1593.86,-207C1576.94,-207 1559.32,-207 1542.58,-207"/>
<polygon fill="midnightblue" stroke="midnightblue" points="1594.3,-210.5 1604.3,-207 1594.3,-203.5 1594.3,-210.5"/>
</g>
<!-- Node31 -->
<g id="node31" class="node">
<title>Node31</title>
<g id="a_node31"><a xlink:href="class_user_controller.html#aa90e4e2fed6b1d661933450f430b95ba" target="_top" xlink:title="Makes accusation">
<polygon fill="white" stroke="black" points="1595.5,-548.5 1595.5,-569.5 1777.5,-569.5 1777.5,-548.5 1595.5,-548.5"/>
<text text-anchor="middle" x="1686.5" y="-555.9" font-family="Helvetica,sans-Serif" font-size="12.00">UserController.MakeAccusation</text>
</a>
</g>
</g>
<!-- Node30&#45;&gt;Node31 -->
<g id="edge36" class="edge">
<title>Node30&#45;&gt;Node31</title>
<path fill="none" stroke="midnightblue" d="M1813.7,-548.53C1801.74,-549.52 1789.62,-550.53 1777.85,-551.5"/>
<polygon fill="midnightblue" stroke="midnightblue" points="1814.01,-552.02 1823.69,-547.7 1813.43,-545.04 1814.01,-552.02"/>
</g>
<!-- Node32 -->
<g id="node32" class="node">
<title>Node32</title>
<g id="a_node32"><a xlink:href="class_u_i_handler.html#adc2ae7669cebeb4d9109002f0d3e8c7a" target="_top" xlink:title="Hides the accusation menu">
<polygon fill="white" stroke="black" points="1371,-548.5 1371,-569.5 1541,-569.5 1541,-548.5 1371,-548.5"/>
<text text-anchor="middle" x="1456" y="-555.9" font-family="Helvetica,sans-Serif" font-size="12.00">UIHandler.ConfirmAccusation</text>
</a>
</g>
</g>
<!-- Node31&#45;&gt;Node32 -->
<g id="edge37" class="edge">
<title>Node31&#45;&gt;Node32</title>
<path fill="none" stroke="midnightblue" d="M1585.08,-559C1570.39,-559 1555.39,-559 1541.08,-559"/>
<polygon fill="midnightblue" stroke="midnightblue" points="1585.19,-562.5 1595.19,-559 1585.19,-555.5 1585.19,-562.5"/>
</g>
<!-- Node33 -->
<g id="node33" class="node">
<title>Node33</title>
<g id="a_node33"><a xlink:href="class_a_i_controller_script.html#a7be5eb284c6258672e70af128f8638df" target="_top" xlink:title="Decides that cards to accuse based on the To Guess List">
<polygon fill="white" stroke="black" points="433,-520.5 433,-541.5 647,-541.5 647,-520.5 433,-520.5"/>
<text text-anchor="middle" x="540" y="-527.9" font-family="Helvetica,sans-Serif" font-size="12.00">AIControllerScript.Decide_Accusation</text>
</a>
</g>
</g>
<!-- Node31&#45;&gt;Node33 -->
<g id="edge38" class="edge">
<title>Node31&#45;&gt;Node33</title>
<path fill="none" stroke="midnightblue" d="M1613.01,-571.07C1593.27,-574.02 1571.85,-576.93 1552,-579 1409.85,-593.82 1373.92,-598 1231,-598 1231,-598 1231,-598 1007.5,-598 850.61,-598 667.02,-560.41 584.76,-541.54"/>
<polygon fill="midnightblue" stroke="midnightblue" points="1613.8,-574.49 1623.16,-569.52 1612.75,-567.57 1613.8,-574.49"/>
</g>
<!-- Node33&#45;&gt;Node6 -->
<g id="edge39" class="edge">
<title>Node33&#45;&gt;Node6</title>
<path fill="none" stroke="midnightblue" d="M512.18,-515.32C463.66,-486.94 362.52,-427.8 321.19,-403.64"/>
<polygon fill="midnightblue" stroke="midnightblue" points="510.47,-518.37 520.87,-520.4 514.01,-512.33 510.47,-518.37"/>
</g>
<!-- Node34&#45;&gt;Node10 -->
<g id="edge41" class="edge">
<title>Node34&#45;&gt;Node10</title>
<path fill="none" stroke="midnightblue" d="M1849.79,-493.14C1829.1,-496.37 1806.17,-499.4 1785,-501 1596.65,-515.24 1548.33,-515.51 1360,-501 1335.82,-499.14 1309.32,-495.34 1286.66,-491.55"/>
<polygon fill="midnightblue" stroke="midnightblue" points="1850.43,-496.58 1859.75,-491.55 1849.33,-489.67 1850.43,-496.58"/>
</g>
<!-- Node35 -->
<g id="node35" class="node">
<title>Node35</title>
<g id="a_node35"><a xlink:href="class_u_i_handler.html#a4009ca74f59111933be2a637c7835e18" target="_top" xlink:title="Displays a card from a player that has it">
<polygon fill="white" stroke="black" points="1623.5,-470.5 1623.5,-491.5 1749.5,-491.5 1749.5,-470.5 1623.5,-470.5"/>
<text text-anchor="middle" x="1686.5" y="-477.9" font-family="Helvetica,sans-Serif" font-size="12.00">UIHandler.ShowCard</text>
</a>
</g>
</g>
<!-- Node34&#45;&gt;Node35 -->
<g id="edge42" class="edge">
<title>Node34&#45;&gt;Node35</title>
<path fill="none" stroke="midnightblue" d="M1813.13,-481C1791.51,-481 1769.34,-481 1749.77,-481"/>
<polygon fill="midnightblue" stroke="midnightblue" points="1813.36,-484.5 1823.36,-481 1813.36,-477.5 1813.36,-484.5"/>
</g>
<!-- Node36 -->
<g id="node36" class="node">
<title>Node36</title>
<g id="a_node36"><a xlink:href="class_round_manager.html#a780da336fd16dcaee0f00306578f13b4" target="_top" xlink:title=" ">
<polygon fill="white" stroke="black" points="1373,-470.5 1373,-491.5 1539,-491.5 1539,-470.5 1373,-470.5"/>
<text text-anchor="middle" x="1456" y="-477.9" font-family="Helvetica,sans-Serif" font-size="12.00">RoundManager.AIShowCard</text>
</a>
</g>
</g>
<!-- Node35&#45;&gt;Node36 -->
<g id="edge43" class="edge">
<title>Node35&#45;&gt;Node36</title>
<path fill="none" stroke="midnightblue" d="M1613.14,-481C1589.66,-481 1563.44,-481 1539.29,-481"/>
<polygon fill="midnightblue" stroke="midnightblue" points="1613.36,-484.5 1623.36,-481 1613.36,-477.5 1613.36,-484.5"/>
</g>
<!-- Node35&#45;&gt;Node37 -->
<g id="edge45" class="edge">
<title>Node35&#45;&gt;Node37</title>
<path fill="none" stroke="midnightblue" d="M1615.45,-468.74C1583.98,-463.23 1547.22,-456.79 1517.03,-451.51"/>
<polygon fill="midnightblue" stroke="midnightblue" points="1615.01,-472.21 1625.46,-470.49 1616.22,-465.32 1615.01,-472.21"/>
</g>
<!-- Node36&#45;&gt;Node10 -->
<g id="edge44" class="edge">
<title>Node36&#45;&gt;Node10</title>
<path fill="none" stroke="midnightblue" d="M1362.73,-481C1349.98,-481 1336.87,-481 1324.11,-481"/>
<polygon fill="midnightblue" stroke="midnightblue" points="1362.86,-484.5 1372.86,-481 1362.86,-477.5 1362.86,-484.5"/>
</g>
<!-- Node40 -->
<g id="node40" class="node">
<title>Node40</title>
<g id="a_node40"><a xlink:href="class_notebook_script.html#a68c629fcde9476555ad02cc1e884d85f" target="_top" xlink:title="Refresh notebook on enabling">
<polygon fill="white" stroke="black" points="1610,-0.5 1610,-21.5 1763,-21.5 1763,-0.5 1610,-0.5"/>
<text text-anchor="middle" x="1686.5" y="-7.9" font-family="Helvetica,sans-Serif" font-size="12.00">NotebookScript.OnEnable</text>
</a>
</g>
</g>
<!-- Node39&#45;&gt;Node40 -->
<g id="edge48" class="edge">
<title>Node39&#45;&gt;Node40</title>
<path fill="none" stroke="midnightblue" d="M1810.28,-11C1794.34,-11 1778.19,-11 1763.06,-11"/>
<polygon fill="midnightblue" stroke="midnightblue" points="1810.71,-14.5 1820.71,-11 1810.71,-7.5 1810.71,-14.5"/>
</g>
</g>
</svg>
        <g id="navigator" transform="translate(0 0)" fill="#404254">
                <rect fill="#f2f5e9" fill-opacity="0.5" stroke="#606060" stroke-width=".5" x="0" y="0" width="60" height="60"/>
                <use id="zoomplus" xlink:href="#zoomPlus" x="17" y="9" onmousedown="handleZoom(evt,'in')"/>
                <use id="zoomminus" xlink:href="#zoomMin" x="42" y="9" onmousedown="handleZoom(evt,'out')"/>
                <use id="reset" xlink:href="#resetDef" x="30" y="36" onmousedown="handleReset()"/>
                <g id="arrowUp" xlink:href="#dirArrow" transform="translate(30 24)" onmousedown="handlePan(0,-1)">
                  <use xlink:href="#rim" fill="#404040">
                        <set attributeName="fill" to="#808080" begin="arrowUp.mouseover" end="arrowUp.mouseout"/>
                  </use>
                  <path fill="none" stroke="white" stroke-width="1.5" d="M0,-3.0v7 M-2.5,-0.5L0,-3.0L2.5,-0.5"/>
                </g>
                <g id="arrowRight" xlink:href="#dirArrow" transform="rotate(90) translate(36 -43)" onmousedown="handlePan(1,0)">
                  <use xlink:href="#rim" fill="#404040">
                        <set attributeName="fill" to="#808080" begin="arrowRight.mouseover" end="arrowRight.mouseout"/>
                  </use>
                  <path fill="none" stroke="white" stroke-width="1.5" d="M0,-3.0v7 M-2.5,-0.5L0,-3.0L2.5,-0.5"/>
                </g>
                <g id="arrowDown" xlink:href="#dirArrow" transform="rotate(180) translate(-30 -48)" onmousedown="handlePan(0,1)">
                  <use xlink:href="#rim" fill="#404040">
                        <set attributeName="fill" to="#808080" begin="arrowDown.mouseover" end="arrowDown.mouseout"/>
                  </use>
                  <path fill="none" stroke="white" stroke-width="1.5" d="M0,-3.0v7 M-2.5,-0.5L0,-3.0L2.5,-0.5"/>
                </g>
                <g id="arrowLeft" xlink:href="#dirArrow" transform="rotate(270) translate(-36 17)" onmousedown="handlePan(-1,0)">
                  <use xlink:href="#rim" fill="#404040">
                        <set attributeName="fill" to="#808080" begin="arrowLeft.mouseover" end="arrowLeft.mouseout"/>
                  </use>
                  <path fill="none" stroke="white" stroke-width="1.5" d="M0,-3.0v7 M-2.5,-0.5L0,-3.0L2.5,-0.5"/>
                </g>
        </g>
        <svg viewBox="0 0 15 15" width="100%" height="30px" preserveAspectRatio="xMaxYMin meet">
         <g id="arrow_out" transform="scale(0.3 0.3)">
          <a xlink:href="class_round_manager_aab3f49a5e05508a8e023a497e763c1c8_icgraph_org.svg" target="_base">
           <rect id="button" ry="5" rx="5" y="6" x="6" height="38" width="38"
                fill="#f2f5e9" fill-opacity="0.5" stroke="#606060" stroke-width="1.0"/>
           <path id="arrow"
             d="M 11.500037,31.436501 C 11.940474,20.09759 22.043105,11.32322 32.158766,21.979434 L 37.068811,17.246167 C 37.068811,17.246167 37.088388,32 37.088388,32 L 22.160133,31.978069 C 22.160133,31.978069 26.997745,27.140456 26.997745,27.140456 C 18.528582,18.264221 13.291696,25.230495 11.500037,31.436501 z"
             style="fill:#404040;"/>
          </a>
         </g>
        </svg>
</svg>
