<?xml version="1.0" encoding="UTF-8" standalone="no"?>
<!DOCTYPE svg PUBLIC "-//W3C//DTD SVG 1.1//EN"
 "http://www.w3.org/Graphics/SVG/1.1/DTD/svg11.dtd">
<!-- Generated by graphviz version 2.47.1 (20210417.1919)
 -->
<!-- Title: BoardBuilder.Awake Pages: 1 -->
<!--zoomable 428 -->
<svg id="main" version="1.1" xmlns="http://www.w3.org/2000/svg" xmlns:xlink="http://www.w3.org/1999/xlink" xml:space="preserve" onload="init(evt)">
<style type="text/css"><![CDATA[
.edge:hover path { stroke: red; }
.edge:hover polygon { stroke: red; fill: red; }
]]></style>
<script type="text/javascript"><![CDATA[
var edges = document.getElementsByTagName('g');
if (edges && edges.length) {
  for (var i=0;i<edges.length;i++) {
    if (edges[i].id.substr(0,4)=='edge') {
      edges[i].setAttribute('class','edge');
    }
  }
}
]]></script>
        <defs>
                <circle id="rim" cx="0" cy="0" r="7"/>
                <circle id="rim2" cx="0" cy="0" r="3.5"/>
                <g id="zoomPlus">
                        <use xlink:href="#rim" fill="#404040">
                                <set attributeName="fill" to="#808080" begin="zoomplus.mouseover" end="zoomplus.mouseout"/>
                        </use>
                        <path d="M-4,0h8M0,-4v8" fill="none" stroke="white" stroke-width="1.5" pointer-events="none"/>
                </g>
                <g id="zoomMin">
                        <use xlink:href="#rim" fill="#404040">
                                <set attributeName="fill" to="#808080" begin="zoomminus.mouseover" end="zoomminus.mouseout"/>
                        </use>
                        <path d="M-4,0h8" fill="none" stroke="white" stroke-width="1.5" pointer-events="none"/>
                </g>
                <g id="dirArrow">
                        <path fill="none" stroke="white" stroke-width="1.5" d="M0,-3.0v7 M-2.5,-0.5L0,-3.0L2.5,-0.5"/>
                </g>
               <g id="resetDef">
                       <use xlink:href="#rim2" fill="#404040">
                               <set attributeName="fill" to="#808080" begin="reset.mouseover" end="reset.mouseout"/>
                       </use>
               </g>
        </defs>

<script type="text/javascript">
var viewWidth = 1776;
var viewHeight = 428;
var sectionId = 'dynsection-2';
</script>
<script xlink:href="svgpan.js"/>
<svg id="graph" class="graph">
<g id="viewport">
<title>BoardBuilder.Awake</title>
<polygon fill="white" stroke="transparent" points="-4,4 -4,-424 1772,-424 1772,4 -4,4"/>
<!-- Node1 -->
<g id="node1" class="node">
<title>Node1</title>
<g id="a_node1"><a xlink:title=" ">
<polygon fill="#bfbfbf" stroke="black" points="0,-120.5 0,-141.5 125,-141.5 125,-120.5 0,-120.5"/>
<text text-anchor="middle" x="62.5" y="-127.9" font-family="Helvetica,sans-Serif" font-size="12.00">BoardBuilder.Awake</text>
</a>
</g>
</g>
<!-- Node2 -->
<g id="node2" class="node">
<title>Node2</title>
<g id="a_node2"><a xlink:href="class_board_builder.html#a82e09ea29b1d031cfe2fa3b444c12c99" target="_top" xlink:title="Method to create the board, initialise and place all items and pass references to board manager">
<polygon fill="white" stroke="black" points="161,-120.5 161,-141.5 292,-141.5 292,-120.5 161,-120.5"/>
<text text-anchor="middle" x="226.5" y="-127.9" font-family="Helvetica,sans-Serif" font-size="12.00">BoardBuilder.Initialise</text>
</a>
</g>
</g>
<!-- Node1&#45;&gt;Node2 -->
<g id="edge1" class="edge">
<title>Node1&#45;&gt;Node2</title>
<path fill="none" stroke="midnightblue" d="M125.21,-131C133.47,-131 142.02,-131 150.48,-131"/>
<polygon fill="midnightblue" stroke="midnightblue" points="150.73,-134.5 160.73,-131 150.73,-127.5 150.73,-134.5"/>
</g>
<!-- Node3 -->
<g id="node3" class="node">
<title>Node3</title>
<g id="a_node3"><a xlink:href="class_board_builder.html#a3a24e59815a2273a921875c2cb7781f2" target="_top" xlink:title="Build the board using various helper methods">
<polygon fill="white" stroke="black" points="380,-298.5 380,-319.5 527,-319.5 527,-298.5 380,-298.5"/>
<text text-anchor="middle" x="453.5" y="-305.9" font-family="Helvetica,sans-Serif" font-size="12.00">BoardBuilder.BuildBoard</text>
</a>
</g>
</g>
<!-- Node2&#45;&gt;Node3 -->
<g id="edge2" class="edge">
<title>Node2&#45;&gt;Node3</title>
<path fill="none" stroke="midnightblue" d="M237.89,-141.59C255.63,-159.44 293.23,-196.3 328,-224 360.63,-250 400.9,-276.58 426.64,-292.94"/>
<polygon fill="midnightblue" stroke="midnightblue" points="425.1,-296.1 435.43,-298.48 428.84,-290.18 425.1,-296.1"/>
</g>
<!-- Node14 -->
<g id="node14" class="node">
<title>Node14</title>
<g id="a_node14"><a xlink:href="class_board_manager.html#ad208908578ffda25d87122a34e264b44" target="_top" xlink:title="Create 2d array of all board tiles">
<polygon fill="white" stroke="black" points="908,-160.5 908,-181.5 1102,-181.5 1102,-160.5 908,-160.5"/>
<text text-anchor="middle" x="1005" y="-167.9" font-family="Helvetica,sans-Serif" font-size="12.00">BoardManager.CreateBoardArray</text>
</a>
</g>
</g>
<!-- Node2&#45;&gt;Node14 -->
<g id="edge14" class="edge">
<title>Node2&#45;&gt;Node14</title>
<path fill="none" stroke="midnightblue" d="M240.09,-141.64C258.16,-156.13 293.13,-181.38 328,-191 550.79,-252.45 617.36,-205.72 848,-191 873.63,-189.36 901.48,-186.23 926.46,-182.92"/>
<polygon fill="midnightblue" stroke="midnightblue" points="927.17,-186.36 936.61,-181.55 926.23,-179.42 927.17,-186.36"/>
</g>
<!-- Node15 -->
<g id="node15" class="node">
<title>Node15</title>
<g id="a_node15"><a xlink:href="class_board_builder.html#a9935d1e9f5b2286d246e38151ee313eb" target="_top" xlink:title="Instantiate all weapon tokens">
<polygon fill="white" stroke="black" points="366,-120.5 366,-141.5 541,-141.5 541,-120.5 366,-120.5"/>
<text text-anchor="middle" x="453.5" y="-127.9" font-family="Helvetica,sans-Serif" font-size="12.00">BoardBuilder.CreateWeapons</text>
</a>
</g>
</g>
<!-- Node2&#45;&gt;Node15 -->
<g id="edge15" class="edge">
<title>Node2&#45;&gt;Node15</title>
<path fill="none" stroke="midnightblue" d="M292.28,-131C312.11,-131 334.38,-131 355.86,-131"/>
<polygon fill="midnightblue" stroke="midnightblue" points="355.99,-134.5 365.99,-131 355.99,-127.5 355.99,-134.5"/>
</g>
<!-- Node16 -->
<g id="node16" class="node">
<title>Node16</title>
<g id="a_node16"><a xlink:href="class_board_builder.html#ac94d9474a9d66a0748a402c743a22cf7" target="_top" xlink:title="Create a 2d array from the .csv file to build the board from">
<polygon fill="white" stroke="black" points="328,-80.5 328,-101.5 579,-101.5 579,-80.5 328,-80.5"/>
<text text-anchor="middle" x="453.5" y="-87.9" font-family="Helvetica,sans-Serif" font-size="12.00">BoardBuilder.GenerateBoardArrayFromCSV</text>
</a>
</g>
</g>
<!-- Node2&#45;&gt;Node16 -->
<g id="edge16" class="edge">
<title>Node2&#45;&gt;Node16</title>
<path fill="none" stroke="midnightblue" d="M278.56,-120.46C294.38,-117.29 311.89,-113.9 328,-111 342.85,-108.33 358.72,-105.65 373.99,-103.16"/>
<polygon fill="midnightblue" stroke="midnightblue" points="374.62,-106.6 383.93,-101.55 373.5,-99.69 374.62,-106.6"/>
</g>
<!-- Node17 -->
<g id="node17" class="node">
<title>Node17</title>
<g id="a_node17"><a xlink:href="class_board_builder.html#ab340fc9336c3174138bfb6b2f3b31c37" target="_top" xlink:title="Load all prefabs from resources folder">
<polygon fill="white" stroke="black" points="367.5,-40.5 367.5,-61.5 539.5,-61.5 539.5,-40.5 367.5,-40.5"/>
<text text-anchor="middle" x="453.5" y="-47.9" font-family="Helvetica,sans-Serif" font-size="12.00">BoardBuilder.LoadResources</text>
</a>
</g>
</g>
<!-- Node2&#45;&gt;Node17 -->
<g id="edge17" class="edge">
<title>Node2&#45;&gt;Node17</title>
<path fill="none" stroke="midnightblue" d="M241.28,-120.43C259.89,-106.73 294.58,-83.15 328,-71 337.34,-67.61 347.27,-64.79 357.31,-62.44"/>
<polygon fill="midnightblue" stroke="midnightblue" points="358.32,-65.8 367.35,-60.26 356.84,-58.96 358.32,-65.8"/>
</g>
<!-- Node18 -->
<g id="node18" class="node">
<title>Node18</title>
<g id="a_node18"><a xlink:href="class_board_builder.html#a7a499abdc0c02d659ea6fee6e7836f15" target="_top" xlink:title="Randomly place Free roll / accusation tiles.">
<polygon fill="white" stroke="black" points="365.5,-160.5 365.5,-181.5 541.5,-181.5 541.5,-160.5 365.5,-160.5"/>
<text text-anchor="middle" x="453.5" y="-167.9" font-family="Helvetica,sans-Serif" font-size="12.00">BoardBuilder.PlaceBonusTiles</text>
</a>
</g>
</g>
<!-- Node2&#45;&gt;Node18 -->
<g id="edge18" class="edge">
<title>Node2&#45;&gt;Node18</title>
<path fill="none" stroke="midnightblue" d="M278.56,-141.54C294.38,-144.71 311.89,-148.1 328,-151 342.85,-153.67 358.72,-156.35 373.99,-158.84"/>
<polygon fill="midnightblue" stroke="midnightblue" points="373.5,-162.31 383.93,-160.45 374.62,-155.4 373.5,-162.31"/>
</g>
<!-- Node26 -->
<g id="node26" class="node">
<title>Node26</title>
<g id="a_node26"><a xlink:href="class_board_manager.html#adc089b30dd732a7e8109c14143b01146" target="_top" xlink:title="Set all object arrays once board is built">
<polygon fill="white" stroke="black" points="361.5,-0.5 361.5,-21.5 545.5,-21.5 545.5,-0.5 361.5,-0.5"/>
<text text-anchor="middle" x="453.5" y="-7.9" font-family="Helvetica,sans-Serif" font-size="12.00">BoardManager.SetObjectArrays</text>
</a>
</g>
</g>
<!-- Node2&#45;&gt;Node26 -->
<g id="edge29" class="edge">
<title>Node2&#45;&gt;Node26</title>
<path fill="none" stroke="midnightblue" d="M234.61,-120.38C249.31,-99.4 285.23,-52.78 328,-31 335.43,-27.22 343.41,-24.11 351.6,-21.58"/>
<polygon fill="midnightblue" stroke="midnightblue" points="352.62,-24.93 361.3,-18.85 350.73,-18.19 352.62,-24.93"/>
</g>
<!-- Node4 -->
<g id="node4" class="node">
<title>Node4</title>
<g id="a_node4"><a xlink:href="class_board_builder.html#a39010ec9af85bdbe95514a26a2d8aba6" target="_top" xlink:title="Instantiate a General tile and set its parameters">
<polygon fill="white" stroke="black" points="643.5,-238.5 643.5,-259.5 819.5,-259.5 819.5,-238.5 643.5,-238.5"/>
<text text-anchor="middle" x="731.5" y="-245.9" font-family="Helvetica,sans-Serif" font-size="12.00">BoardBuilder.CreateBoardTile</text>
</a>
</g>
</g>
<!-- Node3&#45;&gt;Node4 -->
<g id="edge3" class="edge">
<title>Node3&#45;&gt;Node4</title>
<path fill="none" stroke="midnightblue" d="M493.56,-298.42C525.95,-289.85 573.27,-277.8 615,-269 627.77,-266.31 641.4,-263.71 654.64,-261.32"/>
<polygon fill="midnightblue" stroke="midnightblue" points="655.44,-264.74 664.68,-259.54 654.22,-257.84 655.44,-264.74"/>
</g>
<!-- Node5 -->
<g id="node5" class="node">
<title>Node5</title>
<g id="a_node5"><a xlink:href="class_board_builder.html#a491ed54feb27cf486245a500c16ff310" target="_top" xlink:title=" ">
<polygon fill="white" stroke="black" points="653.5,-398.5 653.5,-419.5 809.5,-419.5 809.5,-398.5 653.5,-398.5"/>
<text text-anchor="middle" x="731.5" y="-405.9" font-family="Helvetica,sans-Serif" font-size="12.00">BoardBuilder.CreateRoom</text>
</a>
</g>
</g>
<!-- Node3&#45;&gt;Node5 -->
<g id="edge4" class="edge">
<title>Node3&#45;&gt;Node5</title>
<path fill="none" stroke="midnightblue" d="M471.6,-319.63C500.18,-336.9 559.97,-370.95 615,-389 624.04,-391.97 633.63,-394.51 643.27,-396.7"/>
<polygon fill="midnightblue" stroke="midnightblue" points="642.8,-400.18 653.31,-398.85 644.27,-393.34 642.8,-400.18"/>
</g>
<!-- Node6 -->
<g id="node6" class="node">
<title>Node6</title>
<g id="a_node6"><a xlink:href="class_board_builder.html#a03451888fabe0fefe9bb547dd510ac1d" target="_top" xlink:title="Instantiate a roomEntrance tile and set its parameters">
<polygon fill="white" stroke="black" points="621,-358.5 621,-379.5 842,-379.5 842,-358.5 621,-358.5"/>
<text text-anchor="middle" x="731.5" y="-365.9" font-family="Helvetica,sans-Serif" font-size="12.00">BoardBuilder.CreateRoomEntranceTile</text>
</a>
</g>
</g>
<!-- Node3&#45;&gt;Node6 -->
<g id="edge5" class="edge">
<title>Node3&#45;&gt;Node6</title>
<path fill="none" stroke="midnightblue" d="M493.56,-319.58C525.95,-328.15 573.27,-340.2 615,-349 627.77,-351.69 641.4,-354.29 654.64,-356.68"/>
<polygon fill="midnightblue" stroke="midnightblue" points="654.22,-360.16 664.68,-358.46 655.44,-353.26 654.22,-360.16"/>
</g>
<!-- Node8 -->
<g id="node8" class="node">
<title>Node8</title>
<g id="a_node8"><a xlink:href="class_board_builder.html#aa03504edb607b14737199d2e66b4ce07" target="_top" xlink:title="Instantiate a shortcut tile and set its parameters">
<polygon fill="white" stroke="black" points="638.5,-318.5 638.5,-339.5 824.5,-339.5 824.5,-318.5 638.5,-318.5"/>
<text text-anchor="middle" x="731.5" y="-325.9" font-family="Helvetica,sans-Serif" font-size="12.00">BoardBuilder.CreateShortcutTile</text>
</a>
</g>
</g>
<!-- Node3&#45;&gt;Node8 -->
<g id="edge7" class="edge">
<title>Node3&#45;&gt;Node8</title>
<path fill="none" stroke="midnightblue" d="M527.02,-314.25C557.92,-316.49 594.52,-319.15 628.11,-321.58"/>
<polygon fill="midnightblue" stroke="midnightblue" points="628.2,-325.1 638.43,-322.33 628.7,-318.11 628.2,-325.1"/>
</g>
<!-- Node10 -->
<g id="node10" class="node">
<title>Node10</title>
<g id="a_node10"><a xlink:href="class_board_builder.html#aa37fc56697e202c34e1f8a1ee3677ea2" target="_top" xlink:title="Instantiate a start tile and set its parameters">
<polygon fill="white" stroke="black" points="647.5,-278.5 647.5,-299.5 815.5,-299.5 815.5,-278.5 647.5,-278.5"/>
<text text-anchor="middle" x="731.5" y="-285.9" font-family="Helvetica,sans-Serif" font-size="12.00">BoardBuilder.CreateStartTile</text>
</a>
</g>
</g>
<!-- Node3&#45;&gt;Node10 -->
<g id="edge10" class="edge">
<title>Node3&#45;&gt;Node10</title>
<path fill="none" stroke="midnightblue" d="M527.02,-303.75C560.74,-301.3 601.25,-298.37 637.23,-295.76"/>
<polygon fill="midnightblue" stroke="midnightblue" points="637.52,-299.25 647.24,-295.03 637.01,-292.27 637.52,-299.25"/>
</g>
<!-- Node7 -->
<g id="node7" class="node">
<title>Node7</title>
<g id="a_node7"><a xlink:href="class_room_script.html#a1747ef3091a32115e7bdbd53f5764a31" target="_top" xlink:title="Get Room Enum from string">
<polygon fill="white" stroke="black" points="909.5,-358.5 909.5,-379.5 1100.5,-379.5 1100.5,-358.5 909.5,-358.5"/>
<text text-anchor="middle" x="1005" y="-365.9" font-family="Helvetica,sans-Serif" font-size="12.00">RoomScript.GetRoomFromString</text>
</a>
</g>
</g>
<!-- Node6&#45;&gt;Node7 -->
<g id="edge6" class="edge">
<title>Node6&#45;&gt;Node7</title>
<path fill="none" stroke="midnightblue" d="M842.15,-369C860.9,-369 880.34,-369 898.96,-369"/>
<polygon fill="midnightblue" stroke="midnightblue" points="899.22,-372.5 909.22,-369 899.22,-365.5 899.22,-372.5"/>
</g>
<!-- Node8&#45;&gt;Node7 -->
<g id="edge8" class="edge">
<title>Node8&#45;&gt;Node7</title>
<path fill="none" stroke="midnightblue" d="M803.83,-339.51C840.32,-344.89 884.89,-351.45 922.71,-357.02"/>
<polygon fill="midnightblue" stroke="midnightblue" points="922.27,-360.5 932.67,-358.49 923.29,-353.57 922.27,-360.5"/>
</g>
<!-- Node9 -->
<g id="node9" class="node">
<title>Node9</title>
<g id="a_node9"><a xlink:href="class_shortcut_board_tile_script.html#a6d476b580271ad3b4ad963c152823d22" target="_top" xlink:title="Set shortcut rooms">
<polygon fill="white" stroke="black" points="884,-318.5 884,-339.5 1126,-339.5 1126,-318.5 884,-318.5"/>
<text text-anchor="middle" x="1005" y="-325.9" font-family="Helvetica,sans-Serif" font-size="12.00">ShortcutBoardTileScript.SetShortcutRooms</text>
</a>
</g>
</g>
<!-- Node8&#45;&gt;Node9 -->
<g id="edge9" class="edge">
<title>Node8&#45;&gt;Node9</title>
<path fill="none" stroke="midnightblue" d="M824.8,-329C840.45,-329 856.98,-329 873.4,-329"/>
<polygon fill="midnightblue" stroke="midnightblue" points="873.6,-332.5 883.6,-329 873.6,-325.5 873.6,-332.5"/>
</g>
<!-- Node11 -->
<g id="node11" class="node">
<title>Node11</title>
<g id="a_node11"><a xlink:href="class_start_tile_script.html#a33514048a06840acdadc966c14cef503" target="_top" xlink:title="Set the character for the start tile">
<polygon fill="white" stroke="black" points="923,-278.5 923,-299.5 1087,-299.5 1087,-278.5 923,-278.5"/>
<text text-anchor="middle" x="1005" y="-285.9" font-family="Helvetica,sans-Serif" font-size="12.00">StartTileScript.SetCharacter</text>
</a>
</g>
</g>
<!-- Node10&#45;&gt;Node11 -->
<g id="edge11" class="edge">
<title>Node10&#45;&gt;Node11</title>
<path fill="none" stroke="midnightblue" d="M815.8,-289C846.47,-289 881.35,-289 912.68,-289"/>
<polygon fill="midnightblue" stroke="midnightblue" points="912.72,-292.5 922.72,-289 912.72,-285.5 912.72,-292.5"/>
</g>
<!-- Node13 -->
<g id="node13" class="node">
<title>Node13</title>
<g id="a_node13"><a xlink:href="class_board_tile_script.html#a6257d1f00b3732f6d61a4d98b445890c" target="_top" xlink:title="setting the player token that is currently on this tile">
<polygon fill="white" stroke="black" points="929,-238.5 929,-259.5 1081,-259.5 1081,-238.5 929,-238.5"/>
<text text-anchor="middle" x="1005" y="-245.9" font-family="Helvetica,sans-Serif" font-size="12.00">BoardTileScript.SetToken</text>
</a>
</g>
</g>
<!-- Node10&#45;&gt;Node13 -->
<g id="edge13" class="edge">
<title>Node10&#45;&gt;Node13</title>
<path fill="none" stroke="midnightblue" d="M803.83,-278.49C840.32,-273.11 884.89,-266.55 922.71,-260.98"/>
<polygon fill="midnightblue" stroke="midnightblue" points="923.29,-264.43 932.67,-259.51 922.27,-257.5 923.29,-264.43"/>
</g>
<!-- Node12 -->
<g id="node12" class="node">
<title>Node12</title>
<g id="a_node12"><a xlink:href="class_start_tile_script.html#a478e37b4e8befbb49b5729b3362b1f4c" target="_top" xlink:title="Format and set the text displayed on the tile">
<polygon fill="white" stroke="black" points="1162,-278.5 1162,-299.5 1314,-299.5 1314,-278.5 1162,-278.5"/>
<text text-anchor="middle" x="1238" y="-285.9" font-family="Helvetica,sans-Serif" font-size="12.00">StartTileScript.SetTileText</text>
</a>
</g>
</g>
<!-- Node11&#45;&gt;Node12 -->
<g id="edge12" class="edge">
<title>Node11&#45;&gt;Node12</title>
<path fill="none" stroke="midnightblue" d="M1087.12,-289C1108.01,-289 1130.55,-289 1151.65,-289"/>
<polygon fill="midnightblue" stroke="midnightblue" points="1151.88,-292.5 1161.88,-289 1151.88,-285.5 1151.88,-292.5"/>
</g>
<!-- Node19 -->
<g id="node19" class="node">
<title>Node19</title>
<g id="a_node19"><a xlink:href="class_board_builder.html#a1ce7b540b58b1e6fde74e064107ae954" target="_top" xlink:title="Randomly replace required number of general tiles with FreeRoll Tiles">
<polygon fill="white" stroke="black" points="634.5,-160.5 634.5,-181.5 828.5,-181.5 828.5,-160.5 634.5,-160.5"/>
<text text-anchor="middle" x="731.5" y="-167.9" font-family="Helvetica,sans-Serif" font-size="12.00">BoardBuilder.CreateFreeRollTiles</text>
</a>
</g>
</g>
<!-- Node18&#45;&gt;Node19 -->
<g id="edge19" class="edge">
<title>Node18&#45;&gt;Node19</title>
<path fill="none" stroke="midnightblue" d="M541.83,-171C567.88,-171 596.72,-171 623.86,-171"/>
<polygon fill="midnightblue" stroke="midnightblue" points="624.16,-174.5 634.16,-171 624.16,-167.5 624.16,-174.5"/>
</g>
<!-- Node25 -->
<g id="node25" class="node">
<title>Node25</title>
<g id="a_node25"><a xlink:href="class_board_builder.html#aeeca1094dc5e50c5612bba9336efd9d3" target="_top" xlink:title="Randomly replace required number of general tiles with FreeAccusation Tiles">
<polygon fill="white" stroke="black" points="615,-120.5 615,-141.5 848,-141.5 848,-120.5 615,-120.5"/>
<text text-anchor="middle" x="731.5" y="-127.9" font-family="Helvetica,sans-Serif" font-size="12.00">BoardBuilder.CreateFreeSuggestionTiles</text>
</a>
</g>
</g>
<!-- Node18&#45;&gt;Node25 -->
<g id="edge26" class="edge">
<title>Node18&#45;&gt;Node25</title>
<path fill="none" stroke="midnightblue" d="M527.02,-160.49C564.11,-155.11 609.42,-148.55 647.86,-142.98"/>
<polygon fill="midnightblue" stroke="midnightblue" points="648.6,-146.41 657.99,-141.51 647.59,-139.48 648.6,-146.41"/>
</g>
<!-- Node19&#45;&gt;Node14 -->
<g id="edge25" class="edge">
<title>Node19&#45;&gt;Node14</title>
<path fill="none" stroke="midnightblue" d="M828.6,-171C850.93,-171 874.82,-171 897.56,-171"/>
<polygon fill="midnightblue" stroke="midnightblue" points="897.57,-174.5 907.57,-171 897.57,-167.5 897.57,-174.5"/>
</g>
<!-- Node20 -->
<g id="node20" class="node">
<title>Node20</title>
<g id="a_node20"><a xlink:href="class_board_builder.html#a3e79e20c71a20b8e2feb24d83106ebdb" target="_top" xlink:title="Check for nearby bonus / start tiles in order to space out around the board">
<polygon fill="white" stroke="black" points="912.5,-120.5 912.5,-141.5 1097.5,-141.5 1097.5,-120.5 912.5,-120.5"/>
<text text-anchor="middle" x="1005" y="-127.9" font-family="Helvetica,sans-Serif" font-size="12.00">BoardBuilder.CheckNearbyTiles</text>
</a>
</g>
</g>
<!-- Node19&#45;&gt;Node20 -->
<g id="edge20" class="edge">
<title>Node19&#45;&gt;Node20</title>
<path fill="none" stroke="midnightblue" d="M803.83,-160.49C840.32,-155.11 884.89,-148.55 922.71,-142.98"/>
<polygon fill="midnightblue" stroke="midnightblue" points="923.29,-146.43 932.67,-141.51 922.27,-139.5 923.29,-146.43"/>
</g>
<!-- Node21 -->
<g id="node21" class="node">
<title>Node21</title>
<g id="a_node21"><a xlink:href="class_board_manager.html#a1ea52b667d1dd7ca6b4fa956a19ee26d" target="_top" xlink:title="Perform bfs search for the tiles">
<polygon fill="white" stroke="black" points="1181,-120.5 1181,-141.5 1295,-141.5 1295,-120.5 1181,-120.5"/>
<text text-anchor="middle" x="1238" y="-127.9" font-family="Helvetica,sans-Serif" font-size="12.00">BoardManager.bfs</text>
</a>
</g>
</g>
<!-- Node20&#45;&gt;Node21 -->
<g id="edge21" class="edge">
<title>Node20&#45;&gt;Node21</title>
<path fill="none" stroke="midnightblue" d="M1097.63,-131C1121.99,-131 1147.83,-131 1170.56,-131"/>
<polygon fill="midnightblue" stroke="midnightblue" points="1170.76,-134.5 1180.76,-131 1170.76,-127.5 1170.76,-134.5"/>
</g>
<!-- Node22 -->
<g id="node22" class="node">
<title>Node22</title>
<g id="a_node22"><a xlink:href="class_board_manager.html#ae3af0b08bdfbc0ebcda23950eb935a5d" target="_top" xlink:title="Return array of all neighbours of given tile">
<polygon fill="white" stroke="black" points="1350,-140.5 1350,-161.5 1546,-161.5 1546,-140.5 1350,-140.5"/>
<text text-anchor="middle" x="1448" y="-147.9" font-family="Helvetica,sans-Serif" font-size="12.00">BoardManager.GetTileNeighbours</text>
</a>
</g>
</g>
<!-- Node21&#45;&gt;Node22 -->
<g id="edge22" class="edge">
<title>Node21&#45;&gt;Node22</title>
<path fill="none" stroke="midnightblue" d="M1295.01,-136.39C1308.93,-137.72 1324.32,-139.2 1339.8,-140.69"/>
<polygon fill="midnightblue" stroke="midnightblue" points="1339.68,-144.2 1349.97,-141.67 1340.35,-137.23 1339.68,-144.2"/>
</g>
<!-- Node24 -->
<g id="node24" class="node">
<title>Node24</title>
<g id="a_node24"><a xlink:href="class_board_tile_script.html#aeee5122d5e5b79867f6538ec4d597b6a" target="_top" xlink:title="check if tile is empty">
<polygon fill="white" stroke="black" points="1376.5,-100.5 1376.5,-121.5 1519.5,-121.5 1519.5,-100.5 1376.5,-100.5"/>
<text text-anchor="middle" x="1448" y="-107.9" font-family="Helvetica,sans-Serif" font-size="12.00">BoardTileScript.IsEmpty</text>
</a>
</g>
</g>
<!-- Node21&#45;&gt;Node24 -->
<g id="edge24" class="edge">
<title>Node21&#45;&gt;Node24</title>
<path fill="none" stroke="midnightblue" d="M1295.01,-125.61C1316.91,-123.51 1342.45,-121.05 1366.27,-118.76"/>
<polygon fill="midnightblue" stroke="midnightblue" points="1366.73,-122.23 1376.35,-117.79 1366.06,-115.27 1366.73,-122.23"/>
</g>
<!-- Node23 -->
<g id="node23" class="node">
<title>Node23</title>
<g id="a_node23"><a xlink:href="class_board_manager.html#a6b2b89b5ce622bf45676e6993f8ec216" target="_top" xlink:title="Get a tile from the array using a grid reference.">
<polygon fill="white" stroke="black" points="1582,-140.5 1582,-161.5 1768,-161.5 1768,-140.5 1582,-140.5"/>
<text text-anchor="middle" x="1675" y="-147.9" font-family="Helvetica,sans-Serif" font-size="12.00">BoardManager.GetTileFromGrid</text>
</a>
</g>
</g>
<!-- Node22&#45;&gt;Node23 -->
<g id="edge23" class="edge">
<title>Node22&#45;&gt;Node23</title>
<path fill="none" stroke="midnightblue" d="M1546.05,-151C1554.6,-151 1563.27,-151 1571.86,-151"/>
<polygon fill="midnightblue" stroke="midnightblue" points="1571.89,-154.5 1581.89,-151 1571.89,-147.5 1571.89,-154.5"/>
</g>
<!-- Node25&#45;&gt;Node14 -->
<g id="edge28" class="edge">
<title>Node25&#45;&gt;Node14</title>
<path fill="none" stroke="midnightblue" d="M803.83,-141.51C840.32,-146.89 884.89,-153.45 922.71,-159.02"/>
<polygon fill="midnightblue" stroke="midnightblue" points="922.27,-162.5 932.67,-160.49 923.29,-155.57 922.27,-162.5"/>
</g>
<!-- Node25&#45;&gt;Node20 -->
<g id="edge27" class="edge">
<title>Node25&#45;&gt;Node20</title>
<path fill="none" stroke="midnightblue" d="M848.03,-131C866.01,-131 884.47,-131 902.12,-131"/>
<polygon fill="midnightblue" stroke="midnightblue" points="902.4,-134.5 912.4,-131 902.4,-127.5 902.4,-134.5"/>
</g>
</g>
</svg>
        <g id="navigator" transform="translate(0 0)" fill="#404254">
                <rect fill="#f2f5e9" fill-opacity="0.5" stroke="#606060" stroke-width=".5" x="0" y="0" width="60" height="60"/>
                <use id="zoomplus" xlink:href="#zoomPlus" x="17" y="9" onmousedown="handleZoom(evt,'in')"/>
                <use id="zoomminus" xlink:href="#zoomMin" x="42" y="9" onmousedown="handleZoom(evt,'out')"/>
                <use id="reset" xlink:href="#resetDef" x="30" y="36" onmousedown="handleReset()"/>
                <g id="arrowUp" xlink:href="#dirArrow" transform="translate(30 24)" onmousedown="handlePan(0,-1)">
                  <use xlink:href="#rim" fill="#404040">
                        <set attributeName="fill" to="#808080" begin="arrowUp.mouseover" end="arrowUp.mouseout"/>
                  </use>
                  <path fill="none" stroke="white" stroke-width="1.5" d="M0,-3.0v7 M-2.5,-0.5L0,-3.0L2.5,-0.5"/>
                </g>
                <g id="arrowRight" xlink:href="#dirArrow" transform="rotate(90) translate(36 -43)" onmousedown="handlePan(1,0)">
                  <use xlink:href="#rim" fill="#404040">
                        <set attributeName="fill" to="#808080" begin="arrowRight.mouseover" end="arrowRight.mouseout"/>
                  </use>
                  <path fill="none" stroke="white" stroke-width="1.5" d="M0,-3.0v7 M-2.5,-0.5L0,-3.0L2.5,-0.5"/>
                </g>
                <g id="arrowDown" xlink:href="#dirArrow" transform="rotate(180) translate(-30 -48)" onmousedown="handlePan(0,1)">
                  <use xlink:href="#rim" fill="#404040">
                        <set attributeName="fill" to="#808080" begin="arrowDown.mouseover" end="arrowDown.mouseout"/>
                  </use>
                  <path fill="none" stroke="white" stroke-width="1.5" d="M0,-3.0v7 M-2.5,-0.5L0,-3.0L2.5,-0.5"/>
                </g>
                <g id="arrowLeft" xlink:href="#dirArrow" transform="rotate(270) translate(-36 17)" onmousedown="handlePan(-1,0)">
                  <use xlink:href="#rim" fill="#404040">
                        <set attributeName="fill" to="#808080" begin="arrowLeft.mouseover" end="arrowLeft.mouseout"/>
                  </use>
                  <path fill="none" stroke="white" stroke-width="1.5" d="M0,-3.0v7 M-2.5,-0.5L0,-3.0L2.5,-0.5"/>
                </g>
        </g>
        <svg viewBox="0 0 15 15" width="100%" height="30px" preserveAspectRatio="xMaxYMin meet">
         <g id="arrow_out" transform="scale(0.3 0.3)">
          <a xlink:href="class_board_builder_a40848d7394ead9e79f4f2dad2d7756b8_cgraph_org.svg" target="_base">
           <rect id="button" ry="5" rx="5" y="6" x="6" height="38" width="38"
                fill="#f2f5e9" fill-opacity="0.5" stroke="#606060" stroke-width="1.0"/>
           <path id="arrow"
             d="M 11.500037,31.436501 C 11.940474,20.09759 22.043105,11.32322 32.158766,21.979434 L 37.068811,17.246167 C 37.068811,17.246167 37.088388,32 37.088388,32 L 22.160133,31.978069 C 22.160133,31.978069 26.997745,27.140456 26.997745,27.140456 C 18.528582,18.264221 13.291696,25.230495 11.500037,31.436501 z"
             style="fill:#404040;"/>
          </a>
         </g>
        </svg>
</svg>
