<?xml version="1.0" encoding="UTF-8" standalone="no"?>
<!DOCTYPE svg PUBLIC "-//W3C//DTD SVG 1.1//EN"
 "http://www.w3.org/Graphics/SVG/1.1/DTD/svg11.dtd">
<!-- Generated by graphviz version 2.47.1 (20210417.1919)
 -->
<!-- Title: UserController.TakeShortcut Pages: 1 -->
<svg width="837pt" height="30pt"
 viewBox="0.00 0.00 837.00 30.00" xmlns="http://www.w3.org/2000/svg" xmlns:xlink="http://www.w3.org/1999/xlink">
<g id="graph0" class="graph" transform="scale(1 1) rotate(0) translate(4 26)">
<title>UserController.TakeShortcut</title>
<polygon fill="white" stroke="transparent" points="-4,4 -4,-26 833,-26 833,4 -4,4"/>
<!-- Node1 -->
<g id="node1" class="node">
<title>Node1</title>
<g id="a_node1"><a xlink:title="Takes the shortcut">
<polygon fill="#bfbfbf" stroke="black" points="0,-0.5 0,-21.5 164,-21.5 164,-0.5 0,-0.5"/>
<text text-anchor="middle" x="82" y="-7.9" font-family="Helvetica,sans-Serif" font-size="12.00">UserController.TakeShortcut</text>
</a>
</g>
</g>
<!-- Node2 -->
<g id="node2" class="node">
<title>Node2</title>
<g id="a_node2"><a xlink:href="class_user_controller.html#a587c55687141d18f375e0504ea4649fa" target="_top" xlink:title="Gets the player controller for the current player">
<polygon fill="white" stroke="black" points="200,-0.5 200,-21.5 385,-21.5 385,-0.5 200,-0.5"/>
<text text-anchor="middle" x="292.5" y="-7.9" font-family="Helvetica,sans-Serif" font-size="12.00">UserController.GetCurrentPlayer</text>
</a>
</g>
</g>
<!-- Node1&#45;&gt;Node2 -->
<g id="edge1" class="edge">
<title>Node1&#45;&gt;Node2</title>
<path fill="none" stroke="midnightblue" d="M164.21,-11C172.59,-11 181.18,-11 189.75,-11"/>
<polygon fill="midnightblue" stroke="midnightblue" points="189.79,-14.5 199.79,-11 189.79,-7.5 189.79,-14.5"/>
</g>
<!-- Node3 -->
<g id="node3" class="node">
<title>Node3</title>
<g id="a_node3"><a xlink:href="class_round_manager.html#aab3f49a5e05508a8e023a497e763c1c8" target="_top" xlink:title="Gets the player controller for the current player">
<polygon fill="white" stroke="black" points="421,-0.5 421,-21.5 611,-21.5 611,-0.5 421,-0.5"/>
<text text-anchor="middle" x="516" y="-7.9" font-family="Helvetica,sans-Serif" font-size="12.00">RoundManager.GetCurrentPlayer</text>
</a>
</g>
</g>
<!-- Node2&#45;&gt;Node3 -->
<g id="edge2" class="edge">
<title>Node2&#45;&gt;Node3</title>
<path fill="none" stroke="midnightblue" d="M385.19,-11C393.66,-11 402.28,-11 410.85,-11"/>
<polygon fill="midnightblue" stroke="midnightblue" points="410.87,-14.5 420.87,-11 410.87,-7.5 410.87,-14.5"/>
</g>
<!-- Node4 -->
<g id="node4" class="node">
<title>Node4</title>
<g id="a_node4"><a xlink:href="class_turn_controller.html#af16e42b7e61c5a999291327e2e556caa" target="_top" xlink:title=" ">
<polygon fill="white" stroke="black" points="647,-0.5 647,-21.5 829,-21.5 829,-0.5 647,-0.5"/>
<text text-anchor="middle" x="738" y="-7.9" font-family="Helvetica,sans-Serif" font-size="12.00">TurnController.GetCurrentPlayer</text>
</a>
</g>
</g>
<!-- Node3&#45;&gt;Node4 -->
<g id="edge3" class="edge">
<title>Node3&#45;&gt;Node4</title>
<path fill="none" stroke="midnightblue" d="M611.26,-11C619.63,-11 628.13,-11 636.55,-11"/>
<polygon fill="midnightblue" stroke="midnightblue" points="636.78,-14.5 646.78,-11 636.78,-7.5 636.78,-14.5"/>
</g>
</g>
</svg>
