<?xml version="1.0" encoding="UTF-8" standalone="no"?>
<!DOCTYPE svg PUBLIC "-//W3C//DTD SVG 1.1//EN"
 "http://www.w3.org/Graphics/SVG/1.1/DTD/svg11.dtd">
<!-- Generated by graphviz version 2.47.1 (20210417.1919)
 -->
<!-- Title: BoardTileScript.CanMove Pages: 1 -->
<svg width="632pt" height="30pt"
 viewBox="0.00 0.00 632.00 30.00" xmlns="http://www.w3.org/2000/svg" xmlns:xlink="http://www.w3.org/1999/xlink">
<g id="graph0" class="graph" transform="scale(1 1) rotate(0) translate(4 26)">
<title>BoardTileScript.CanMove</title>
<polygon fill="white" stroke="transparent" points="-4,4 -4,-26 628,-26 628,4 -4,4"/>
<!-- Node1 -->
<g id="node1" class="node">
<title>Node1</title>
<g id="a_node1"><a xlink:title="check if the player can move to this tile">
<polygon fill="#bfbfbf" stroke="black" points="472,-0.5 472,-21.5 624,-21.5 624,-0.5 472,-0.5"/>
<text text-anchor="middle" x="548" y="-7.9" font-family="Helvetica,sans-Serif" font-size="12.00">BoardTileScript.CanMove</text>
</a>
</g>
</g>
<!-- Node2 -->
<g id="node2" class="node">
<title>Node2</title>
<g id="a_node2"><a xlink:href="class_user_selection_script.html#a79fe134329afe738c1e4fb0d66c99d69" target="_top" xlink:title="Setting the current tile clears the previous tile and set the effect for the new tile">
<polygon fill="white" stroke="black" points="222,-0.5 222,-21.5 436,-21.5 436,-0.5 222,-0.5"/>
<text text-anchor="middle" x="329" y="-7.9" font-family="Helvetica,sans-Serif" font-size="12.00">UserSelectionScript.SelectCurrentTile</text>
</a>
</g>
</g>
<!-- Node1&#45;&gt;Node2 -->
<g id="edge1" class="edge">
<title>Node1&#45;&gt;Node2</title>
<path fill="none" stroke="midnightblue" d="M461.61,-11C453.24,-11 444.67,-11 436.13,-11"/>
<polygon fill="midnightblue" stroke="midnightblue" points="461.71,-14.5 471.71,-11 461.71,-7.5 461.71,-14.5"/>
</g>
<!-- Node3 -->
<g id="node3" class="node">
<title>Node3</title>
<g id="a_node3"><a xlink:href="class_user_cursor_script.html#a86dacfae5227440b7f8ca3c7042a8892" target="_top" xlink:title=" ">
<polygon fill="white" stroke="black" points="0,-0.5 0,-21.5 186,-21.5 186,-0.5 0,-0.5"/>
<text text-anchor="middle" x="93" y="-7.9" font-family="Helvetica,sans-Serif" font-size="12.00">UserCursorScript.OnTriggerStay</text>
</a>
</g>
</g>
<!-- Node2&#45;&gt;Node3 -->
<g id="edge2" class="edge">
<title>Node2&#45;&gt;Node3</title>
<path fill="none" stroke="midnightblue" d="M211.83,-11C203.19,-11 194.55,-11 186.08,-11"/>
<polygon fill="midnightblue" stroke="midnightblue" points="211.95,-14.5 221.95,-11 211.95,-7.5 211.95,-14.5"/>
</g>
</g>
</svg>
