<?xml version="1.0" encoding="UTF-8" standalone="no"?>
<!DOCTYPE svg PUBLIC "-//W3C//DTD SVG 1.1//EN"
 "http://www.w3.org/Graphics/SVG/1.1/DTD/svg11.dtd">
<!-- Generated by graphviz version 2.47.1 (20210417.1919)
 -->
<!-- Title: BoardBuilder.CreateFreeSuggestionTiles Pages: 1 -->
<svg width="1075pt" height="90pt"
 viewBox="0.00 0.00 1075.00 90.00" xmlns="http://www.w3.org/2000/svg" xmlns:xlink="http://www.w3.org/1999/xlink">
<g id="graph0" class="graph" transform="scale(1 1) rotate(0) translate(4 86)">
<title>BoardBuilder.CreateFreeSuggestionTiles</title>
<polygon fill="white" stroke="transparent" points="-4,4 -4,-86 1071,-86 1071,4 -4,4"/>
<!-- Node1 -->
<g id="node1" class="node">
<title>Node1</title>
<g id="a_node1"><a xlink:title="Randomly replace required number of general tiles with FreeAccusation Tiles">
<polygon fill="#bfbfbf" stroke="black" points="0,-20.5 0,-41.5 233,-41.5 233,-20.5 0,-20.5"/>
<text text-anchor="middle" x="116.5" y="-27.9" font-family="Helvetica,sans-Serif" font-size="12.00">BoardBuilder.CreateFreeSuggestionTiles</text>
</a>
</g>
</g>
<!-- Node2 -->
<g id="node2" class="node">
<title>Node2</title>
<g id="a_node2"><a xlink:href="class_board_builder.html#a3e79e20c71a20b8e2feb24d83106ebdb" target="_top" xlink:title="Check for nearby bonus / start tiles in order to space out around the board">
<polygon fill="white" stroke="black" points="273.5,-40.5 273.5,-61.5 458.5,-61.5 458.5,-40.5 273.5,-40.5"/>
<text text-anchor="middle" x="366" y="-47.9" font-family="Helvetica,sans-Serif" font-size="12.00">BoardBuilder.CheckNearbyTiles</text>
</a>
</g>
</g>
<!-- Node1&#45;&gt;Node2 -->
<g id="edge1" class="edge">
<title>Node1&#45;&gt;Node2</title>
<path fill="none" stroke="midnightblue" d="M233.28,-40.36C243.27,-41.16 253.33,-41.98 263.2,-42.77"/>
<polygon fill="midnightblue" stroke="midnightblue" points="263.15,-46.28 273.4,-43.6 263.72,-39.3 263.15,-46.28"/>
</g>
<!-- Node7 -->
<g id="node7" class="node">
<title>Node7</title>
<g id="a_node7"><a xlink:href="class_board_manager.html#ad208908578ffda25d87122a34e264b44" target="_top" xlink:title="Create 2d array of all board tiles">
<polygon fill="white" stroke="black" points="269,-0.5 269,-21.5 463,-21.5 463,-0.5 269,-0.5"/>
<text text-anchor="middle" x="366" y="-7.9" font-family="Helvetica,sans-Serif" font-size="12.00">BoardManager.CreateBoardArray</text>
</a>
</g>
</g>
<!-- Node1&#45;&gt;Node7 -->
<g id="edge6" class="edge">
<title>Node1&#45;&gt;Node7</title>
<path fill="none" stroke="midnightblue" d="M233.28,-21.64C241.78,-20.96 250.32,-20.27 258.76,-19.59"/>
<polygon fill="midnightblue" stroke="midnightblue" points="259.3,-23.05 268.98,-18.76 258.74,-16.08 259.3,-23.05"/>
</g>
<!-- Node3 -->
<g id="node3" class="node">
<title>Node3</title>
<g id="a_node3"><a xlink:href="class_board_manager.html#a1ea52b667d1dd7ca6b4fa956a19ee26d" target="_top" xlink:title="Perform bfs search for the tiles">
<polygon fill="white" stroke="black" points="499,-40.5 499,-61.5 613,-61.5 613,-40.5 499,-40.5"/>
<text text-anchor="middle" x="556" y="-47.9" font-family="Helvetica,sans-Serif" font-size="12.00">BoardManager.bfs</text>
</a>
</g>
</g>
<!-- Node2&#45;&gt;Node3 -->
<g id="edge2" class="edge">
<title>Node2&#45;&gt;Node3</title>
<path fill="none" stroke="midnightblue" d="M458.52,-51C468.71,-51 478.94,-51 488.72,-51"/>
<polygon fill="midnightblue" stroke="midnightblue" points="488.74,-54.5 498.74,-51 488.74,-47.5 488.74,-54.5"/>
</g>
<!-- Node4 -->
<g id="node4" class="node">
<title>Node4</title>
<g id="a_node4"><a xlink:href="class_board_manager.html#ae3af0b08bdfbc0ebcda23950eb935a5d" target="_top" xlink:title="Return array of all neighbours of given tile">
<polygon fill="white" stroke="black" points="649,-60.5 649,-81.5 845,-81.5 845,-60.5 649,-60.5"/>
<text text-anchor="middle" x="747" y="-67.9" font-family="Helvetica,sans-Serif" font-size="12.00">BoardManager.GetTileNeighbours</text>
</a>
</g>
</g>
<!-- Node3&#45;&gt;Node4 -->
<g id="edge3" class="edge">
<title>Node3&#45;&gt;Node4</title>
<path fill="none" stroke="midnightblue" d="M613.19,-56.95C621.42,-57.82 630.1,-58.74 638.94,-59.67"/>
<polygon fill="midnightblue" stroke="midnightblue" points="638.65,-63.16 648.97,-60.73 639.39,-56.2 638.65,-63.16"/>
</g>
<!-- Node6 -->
<g id="node6" class="node">
<title>Node6</title>
<g id="a_node6"><a xlink:href="class_board_tile_script.html#aeee5122d5e5b79867f6538ec4d597b6a" target="_top" xlink:title="check if tile is empty">
<polygon fill="white" stroke="black" points="675.5,-20.5 675.5,-41.5 818.5,-41.5 818.5,-20.5 675.5,-20.5"/>
<text text-anchor="middle" x="747" y="-27.9" font-family="Helvetica,sans-Serif" font-size="12.00">BoardTileScript.IsEmpty</text>
</a>
</g>
</g>
<!-- Node3&#45;&gt;Node6 -->
<g id="edge5" class="edge">
<title>Node3&#45;&gt;Node6</title>
<path fill="none" stroke="midnightblue" d="M613.19,-45.05C629.48,-43.33 647.58,-41.41 665.06,-39.56"/>
<polygon fill="midnightblue" stroke="midnightblue" points="665.68,-43.02 675.26,-38.49 664.95,-36.06 665.68,-43.02"/>
</g>
<!-- Node5 -->
<g id="node5" class="node">
<title>Node5</title>
<g id="a_node5"><a xlink:href="class_board_manager.html#a6b2b89b5ce622bf45676e6993f8ec216" target="_top" xlink:title="Get a tile from the array using a grid reference.">
<polygon fill="white" stroke="black" points="881,-60.5 881,-81.5 1067,-81.5 1067,-60.5 881,-60.5"/>
<text text-anchor="middle" x="974" y="-67.9" font-family="Helvetica,sans-Serif" font-size="12.00">BoardManager.GetTileFromGrid</text>
</a>
</g>
</g>
<!-- Node4&#45;&gt;Node5 -->
<g id="edge4" class="edge">
<title>Node4&#45;&gt;Node5</title>
<path fill="none" stroke="midnightblue" d="M845.05,-71C853.6,-71 862.27,-71 870.86,-71"/>
<polygon fill="midnightblue" stroke="midnightblue" points="870.89,-74.5 880.89,-71 870.89,-67.5 870.89,-74.5"/>
</g>
</g>
</svg>
