<?xml version="1.0" encoding="UTF-8" standalone="no"?>
<!DOCTYPE svg PUBLIC "-//W3C//DTD SVG 1.1//EN"
 "http://www.w3.org/Graphics/SVG/1.1/DTD/svg11.dtd">
<!-- Generated by graphviz version 2.47.1 (20210417.1919)
 -->
<!-- Title: UnityTemplateProjects.SimpleCameraController Pages: 1 -->
<svg width="274pt" height="276pt"
 viewBox="0.00 0.00 274.00 276.00" xmlns="http://www.w3.org/2000/svg" xmlns:xlink="http://www.w3.org/1999/xlink">
<g id="graph0" class="graph" transform="scale(1 1) rotate(0) translate(4 272)">
<title>UnityTemplateProjects.SimpleCameraController</title>
<polygon fill="white" stroke="transparent" points="-4,4 -4,-272 270,-272 270,4 -4,4"/>
<!-- Node1 -->
<g id="node1" class="node">
<title>Node1</title>
<g id="a_node1"><a xlink:title=" ">
<polygon fill="#bfbfbf" stroke="black" points="0,-0.5 0,-167.5 266,-167.5 266,-0.5 0,-0.5"/>
<text text-anchor="middle" x="133" y="-153.9" font-family="Helvetica,sans-Serif" font-size="12.00">UnityTemplateProjects.SimpleCameraController</text>
<polyline fill="none" stroke="black" points="0,-146.5 266,-146.5 "/>
<text text-anchor="start" x="8" y="-132.9" font-family="Helvetica,sans-Serif" font-size="12.00">+ boost</text>
<text text-anchor="start" x="8" y="-119.9" font-family="Helvetica,sans-Serif" font-size="12.00">+ positionLerpTime</text>
<text text-anchor="start" x="8" y="-106.9" font-family="Helvetica,sans-Serif" font-size="12.00">+ mouseSensitivityCurve</text>
<text text-anchor="start" x="8" y="-93.9" font-family="Helvetica,sans-Serif" font-size="12.00">+ rotationLerpTime</text>
<text text-anchor="start" x="8" y="-80.9" font-family="Helvetica,sans-Serif" font-size="12.00">+ invertY</text>
<text text-anchor="start" x="8" y="-67.9" font-family="Helvetica,sans-Serif" font-size="12.00">&#45; m_TargetCameraState</text>
<text text-anchor="start" x="8" y="-54.9" font-family="Helvetica,sans-Serif" font-size="12.00">&#45; m_InterpolatingCameraState</text>
<polyline fill="none" stroke="black" points="0,-47.5 266,-47.5 "/>
<text text-anchor="start" x="8" y="-33.9" font-family="Helvetica,sans-Serif" font-size="12.00">&#45; OnEnable()</text>
<text text-anchor="start" x="8" y="-20.9" font-family="Helvetica,sans-Serif" font-size="12.00">&#45; GetInputTranslationDirection()</text>
<text text-anchor="start" x="8" y="-7.9" font-family="Helvetica,sans-Serif" font-size="12.00">&#45; Update()</text>
</a>
</g>
</g>
<!-- Node2 -->
<g id="node2" class="node">
<title>Node2</title>
<g id="a_node2"><a xlink:title=" ">
<polygon fill="white" stroke="#bfbfbf" points="84,-204.5 84,-267.5 182,-267.5 182,-204.5 84,-204.5"/>
<text text-anchor="middle" x="133" y="-253.9" font-family="Helvetica,sans-Serif" font-size="12.00">MonoBehaviour</text>
<polyline fill="none" stroke="#bfbfbf" points="84,-246.5 182,-246.5 "/>
<text text-anchor="middle" x="133" y="-232.9" font-family="Helvetica,sans-Serif" font-size="12.00"> </text>
<polyline fill="none" stroke="#bfbfbf" points="84,-225.5 182,-225.5 "/>
<text text-anchor="middle" x="133" y="-211.9" font-family="Helvetica,sans-Serif" font-size="12.00"> </text>
</a>
</g>
</g>
<!-- Node2&#45;&gt;Node1 -->
<g id="edge1" class="edge">
<title>Node2&#45;&gt;Node1</title>
<path fill="none" stroke="midnightblue" d="M133,-194.2C133,-185.91 133,-176.91 133,-167.75"/>
<polygon fill="none" stroke="midnightblue" points="129.5,-194.28 133,-204.28 136.5,-194.28 129.5,-194.28"/>
</g>
</g>
</svg>
