<?xml version="1.0" encoding="UTF-8" standalone="no"?>
<!DOCTYPE svg PUBLIC "-//W3C//DTD SVG 1.1//EN"
 "http://www.w3.org/Graphics/SVG/1.1/DTD/svg11.dtd">
<!-- Generated by graphviz version 2.47.1 (20210417.1919)
 -->
<!-- Title: PlayerMasterController.ClearTokenTile Pages: 1 -->
<svg width="645pt" height="30pt"
 viewBox="0.00 0.00 645.00 30.00" xmlns="http://www.w3.org/2000/svg" xmlns:xlink="http://www.w3.org/1999/xlink">
<g id="graph0" class="graph" transform="scale(1 1) rotate(0) translate(4 26)">
<title>PlayerMasterController.ClearTokenTile</title>
<polygon fill="white" stroke="transparent" points="-4,4 -4,-26 641,-26 641,4 -4,4"/>
<!-- Node1 -->
<g id="node1" class="node">
<title>Node1</title>
<g id="a_node1"><a xlink:title="clear the tile the token was on">
<polygon fill="#bfbfbf" stroke="black" points="0,-0.5 0,-21.5 218,-21.5 218,-0.5 0,-0.5"/>
<text text-anchor="middle" x="109" y="-7.9" font-family="Helvetica,sans-Serif" font-size="12.00">PlayerMasterController.ClearTokenTile</text>
</a>
</g>
</g>
<!-- Node2 -->
<g id="node2" class="node">
<title>Node2</title>
<g id="a_node2"><a xlink:href="class_player_token_script.html#a3c30c1b665fbcaa3db3dfe42f0871147" target="_top" xlink:title=" ">
<polygon fill="white" stroke="black" points="254,-0.5 254,-21.5 449,-21.5 449,-0.5 254,-0.5"/>
<text text-anchor="middle" x="351.5" y="-7.9" font-family="Helvetica,sans-Serif" font-size="12.00">PlayerTokenScript.ClearTokenTile</text>
</a>
</g>
</g>
<!-- Node1&#45;&gt;Node2 -->
<g id="edge1" class="edge">
<title>Node1&#45;&gt;Node2</title>
<path fill="none" stroke="midnightblue" d="M218.29,-11C226.71,-11 235.21,-11 243.62,-11"/>
<polygon fill="midnightblue" stroke="midnightblue" points="243.83,-14.5 253.83,-11 243.83,-7.5 243.83,-14.5"/>
</g>
<!-- Node3 -->
<g id="node3" class="node">
<title>Node3</title>
<g id="a_node3"><a xlink:href="class_board_tile_script.html#a6257d1f00b3732f6d61a4d98b445890c" target="_top" xlink:title="setting the player token that is currently on this tile">
<polygon fill="white" stroke="black" points="485,-0.5 485,-21.5 637,-21.5 637,-0.5 485,-0.5"/>
<text text-anchor="middle" x="561" y="-7.9" font-family="Helvetica,sans-Serif" font-size="12.00">BoardTileScript.SetToken</text>
</a>
</g>
</g>
<!-- Node2&#45;&gt;Node3 -->
<g id="edge2" class="edge">
<title>Node2&#45;&gt;Node3</title>
<path fill="none" stroke="midnightblue" d="M449.26,-11C457.75,-11 466.3,-11 474.69,-11"/>
<polygon fill="midnightblue" stroke="midnightblue" points="474.82,-14.5 484.82,-11 474.82,-7.5 474.82,-14.5"/>
</g>
</g>
</svg>
