<?xml version="1.0" encoding="UTF-8" standalone="no"?>
<!DOCTYPE svg PUBLIC "-//W3C//DTD SVG 1.1//EN"
 "http://www.w3.org/Graphics/SVG/1.1/DTD/svg11.dtd">
<!-- Generated by graphviz version 2.47.1 (20210417.1919)
 -->
<!-- Title: BoardBuilder.CreateStartTile Pages: 1 -->
<svg width="564pt" height="70pt"
 viewBox="0.00 0.00 564.00 70.00" xmlns="http://www.w3.org/2000/svg" xmlns:xlink="http://www.w3.org/1999/xlink">
<g id="graph0" class="graph" transform="scale(1 1) rotate(0) translate(4 66)">
<title>BoardBuilder.CreateStartTile</title>
<polygon fill="white" stroke="transparent" points="-4,4 -4,-66 560,-66 560,4 -4,4"/>
<!-- Node1 -->
<g id="node1" class="node">
<title>Node1</title>
<g id="a_node1"><a xlink:title="Instantiate a start tile and set its parameters">
<polygon fill="#bfbfbf" stroke="black" points="0,-20.5 0,-41.5 168,-41.5 168,-20.5 0,-20.5"/>
<text text-anchor="middle" x="84" y="-27.9" font-family="Helvetica,sans-Serif" font-size="12.00">BoardBuilder.CreateStartTile</text>
</a>
</g>
</g>
<!-- Node2 -->
<g id="node2" class="node">
<title>Node2</title>
<g id="a_node2"><a xlink:href="class_start_tile_script.html#a33514048a06840acdadc966c14cef503" target="_top" xlink:title="Set the character for the start tile">
<polygon fill="white" stroke="black" points="204,-40.5 204,-61.5 368,-61.5 368,-40.5 204,-40.5"/>
<text text-anchor="middle" x="286" y="-47.9" font-family="Helvetica,sans-Serif" font-size="12.00">StartTileScript.SetCharacter</text>
</a>
</g>
</g>
<!-- Node1&#45;&gt;Node2 -->
<g id="edge1" class="edge">
<title>Node1&#45;&gt;Node2</title>
<path fill="none" stroke="midnightblue" d="M168.08,-39.31C176.57,-40.16 185.22,-41.02 193.78,-41.88"/>
<polygon fill="midnightblue" stroke="midnightblue" points="193.49,-45.37 203.79,-42.88 194.18,-38.4 193.49,-45.37"/>
</g>
<!-- Node4 -->
<g id="node4" class="node">
<title>Node4</title>
<g id="a_node4"><a xlink:href="class_board_tile_script.html#a6257d1f00b3732f6d61a4d98b445890c" target="_top" xlink:title="setting the player token that is currently on this tile">
<polygon fill="white" stroke="black" points="210,-0.5 210,-21.5 362,-21.5 362,-0.5 210,-0.5"/>
<text text-anchor="middle" x="286" y="-7.9" font-family="Helvetica,sans-Serif" font-size="12.00">BoardTileScript.SetToken</text>
</a>
</g>
</g>
<!-- Node1&#45;&gt;Node4 -->
<g id="edge3" class="edge">
<title>Node1&#45;&gt;Node4</title>
<path fill="none" stroke="midnightblue" d="M168.08,-22.69C178.57,-21.64 189.32,-20.57 199.84,-19.52"/>
<polygon fill="midnightblue" stroke="midnightblue" points="200.25,-22.99 209.85,-18.52 199.55,-16.03 200.25,-22.99"/>
</g>
<!-- Node3 -->
<g id="node3" class="node">
<title>Node3</title>
<g id="a_node3"><a xlink:href="class_start_tile_script.html#a478e37b4e8befbb49b5729b3362b1f4c" target="_top" xlink:title="Format and set the text displayed on the tile">
<polygon fill="white" stroke="black" points="404,-40.5 404,-61.5 556,-61.5 556,-40.5 404,-40.5"/>
<text text-anchor="middle" x="480" y="-47.9" font-family="Helvetica,sans-Serif" font-size="12.00">StartTileScript.SetTileText</text>
</a>
</g>
</g>
<!-- Node2&#45;&gt;Node3 -->
<g id="edge2" class="edge">
<title>Node2&#45;&gt;Node3</title>
<path fill="none" stroke="midnightblue" d="M368.15,-51C376.59,-51 385.18,-51 393.67,-51"/>
<polygon fill="midnightblue" stroke="midnightblue" points="393.95,-54.5 403.95,-51 393.94,-47.5 393.95,-54.5"/>
</g>
</g>
</svg>
