<?xml version="1.0" encoding="UTF-8" standalone="no"?>
<!DOCTYPE svg PUBLIC "-//W3C//DTD SVG 1.1//EN"
 "http://www.w3.org/Graphics/SVG/1.1/DTD/svg11.dtd">
<!-- Generated by graphviz version 2.47.1 (20210417.1919)
 -->
<!-- Title: Die.Update Pages: 1 -->
<svg width="539pt" height="148pt"
 viewBox="0.00 0.00 539.00 148.00" xmlns="http://www.w3.org/2000/svg" xmlns:xlink="http://www.w3.org/1999/xlink">
<g id="graph0" class="graph" transform="scale(1 1) rotate(0) translate(4 144)">
<title>Die.Update</title>
<polygon fill="white" stroke="transparent" points="-4,4 -4,-144 535,-144 535,4 -4,4"/>
<!-- Node1 -->
<g id="node1" class="node">
<title>Node1</title>
<g id="a_node1"><a xlink:title="If die has been thrown, landed and stopped moving then update die value. If die stops on edge then ro...">
<polygon fill="#bfbfbf" stroke="black" points="0,-58.5 0,-79.5 77,-79.5 77,-58.5 0,-58.5"/>
<text text-anchor="middle" x="38.5" y="-65.9" font-family="Helvetica,sans-Serif" font-size="12.00">Die.Update</text>
</a>
</g>
</g>
<!-- Node2 -->
<g id="node2" class="node">
<title>Node2</title>
<g id="a_node2"><a xlink:href="class_die.html#a69a9f7355c4b76e3fb34747a8ee97b8f" target="_top" xlink:title="Set the current value of the die if on ground 0 if not.">
<polygon fill="white" stroke="black" points="113,-78.5 113,-99.5 234,-99.5 234,-78.5 113,-78.5"/>
<text text-anchor="middle" x="173.5" y="-85.9" font-family="Helvetica,sans-Serif" font-size="12.00">Die.CheckValueDie</text>
</a>
</g>
</g>
<!-- Node1&#45;&gt;Node2 -->
<g id="edge1" class="edge">
<title>Node1&#45;&gt;Node2</title>
<path fill="none" stroke="midnightblue" d="M77.26,-74.68C85.29,-75.89 94.02,-77.2 102.82,-78.52"/>
<polygon fill="midnightblue" stroke="midnightblue" points="102.35,-81.99 112.76,-80.02 103.39,-75.07 102.35,-81.99"/>
</g>
<!-- Node5 -->
<g id="node5" class="node">
<title>Node5</title>
<g id="a_node5"><a xlink:href="class_die.html#ab35c865f0a0084cf8741ea7bcfe1f9f7" target="_top" xlink:title="Roll again in event of die getting stuck on edge">
<polygon fill="white" stroke="black" points="129,-38.5 129,-59.5 218,-59.5 218,-38.5 129,-38.5"/>
<text text-anchor="middle" x="173.5" y="-45.9" font-family="Helvetica,sans-Serif" font-size="12.00">Die.RollAgain</text>
</a>
</g>
</g>
<!-- Node1&#45;&gt;Node5 -->
<g id="edge4" class="edge">
<title>Node1&#45;&gt;Node5</title>
<path fill="none" stroke="midnightblue" d="M77.26,-63.32C90.11,-61.39 104.74,-59.19 118.61,-57.1"/>
<polygon fill="midnightblue" stroke="midnightblue" points="119.17,-60.56 128.54,-55.61 118.13,-53.64 119.17,-60.56"/>
</g>
<!-- Node3 -->
<g id="node3" class="node">
<title>Node3</title>
<g id="a_node3"><a xlink:href="class_die_side.html#aad0dab76f00ebbd4a4d036be82948752" target="_top" xlink:title="Get value on the opposite side of the die">
<polygon fill="white" stroke="black" points="270,-118.5 270,-139.5 407,-139.5 407,-118.5 270,-118.5"/>
<text text-anchor="middle" x="338.5" y="-125.9" font-family="Helvetica,sans-Serif" font-size="12.00">DieSide.GetSideValue</text>
</a>
</g>
</g>
<!-- Node2&#45;&gt;Node3 -->
<g id="edge2" class="edge">
<title>Node2&#45;&gt;Node3</title>
<path fill="none" stroke="midnightblue" d="M217.33,-99.51C238.02,-104.59 263.05,-110.73 284.89,-116.09"/>
<polygon fill="midnightblue" stroke="midnightblue" points="284.13,-119.51 294.68,-118.49 285.8,-112.71 284.13,-119.51"/>
</g>
<!-- Node4 -->
<g id="node4" class="node">
<title>Node4</title>
<g id="a_node4"><a xlink:href="class_die_side.html#a694174e094333dddba56a1fffeb7a00b" target="_top" xlink:title="Is the die side in contact with the board">
<polygon fill="white" stroke="black" points="276,-78.5 276,-99.5 401,-99.5 401,-78.5 276,-78.5"/>
<text text-anchor="middle" x="338.5" y="-85.9" font-family="Helvetica,sans-Serif" font-size="12.00">DieSide.IsOnGround</text>
</a>
</g>
</g>
<!-- Node2&#45;&gt;Node4 -->
<g id="edge3" class="edge">
<title>Node2&#45;&gt;Node4</title>
<path fill="none" stroke="midnightblue" d="M234.27,-89C244.53,-89 255.28,-89 265.82,-89"/>
<polygon fill="midnightblue" stroke="midnightblue" points="265.82,-92.5 275.82,-89 265.82,-85.5 265.82,-92.5"/>
</g>
<!-- Node6 -->
<g id="node6" class="node">
<title>Node6</title>
<g id="a_node6"><a xlink:href="class_die.html#abc11c3d2bf0c0fba1555093eb5a8469e" target="_top" xlink:title="Reset Die to original position">
<polygon fill="white" stroke="black" points="443,-19.5 443,-40.5 531,-40.5 531,-19.5 443,-19.5"/>
<text text-anchor="middle" x="487" y="-26.9" font-family="Helvetica,sans-Serif" font-size="12.00">Die.ResetDie</text>
</a>
</g>
</g>
<!-- Node5&#45;&gt;Node6 -->
<g id="edge5" class="edge">
<title>Node5&#45;&gt;Node6</title>
<path fill="none" stroke="midnightblue" d="M218.14,-46.34C274.41,-42.91 372.21,-36.94 432.78,-33.25"/>
<polygon fill="midnightblue" stroke="midnightblue" points="433.14,-36.73 442.9,-32.63 432.71,-29.74 433.14,-36.73"/>
</g>
<!-- Node7 -->
<g id="node7" class="node">
<title>Node7</title>
<g id="a_node7"><a xlink:href="class_die.html#a4995ecb1a88aa7f1043ae71ba8aa3ef5" target="_top" xlink:title="Roll the die">
<polygon fill="white" stroke="black" points="300,-0.5 300,-21.5 377,-21.5 377,-0.5 300,-0.5"/>
<text text-anchor="middle" x="338.5" y="-7.9" font-family="Helvetica,sans-Serif" font-size="12.00">Die.RollDie</text>
</a>
</g>
</g>
<!-- Node5&#45;&gt;Node7 -->
<g id="edge6" class="edge">
<title>Node5&#45;&gt;Node7</title>
<path fill="none" stroke="midnightblue" d="M218.18,-38.82C240.36,-33.65 267.34,-27.36 290.03,-22.07"/>
<polygon fill="midnightblue" stroke="midnightblue" points="290.85,-25.47 299.79,-19.79 289.26,-18.65 290.85,-25.47"/>
</g>
<!-- Node7&#45;&gt;Node6 -->
<g id="edge7" class="edge">
<title>Node7&#45;&gt;Node6</title>
<path fill="none" stroke="midnightblue" d="M377.23,-15.89C394.18,-18.09 414.48,-20.72 432.93,-23.12"/>
<polygon fill="midnightblue" stroke="midnightblue" points="432.59,-26.6 442.96,-24.42 433.49,-19.66 432.59,-26.6"/>
</g>
</g>
</svg>
