<?xml version="1.0" encoding="UTF-8" standalone="no"?>
<!DOCTYPE svg PUBLIC "-//W3C//DTD SVG 1.1//EN"
 "http://www.w3.org/Graphics/SVG/1.1/DTD/svg11.dtd">
<!-- Generated by graphviz version 2.47.1 (20210417.1919)
 -->
<!-- Title: RoundManager.FixedUpdate Pages: 1 -->
<!--zoomable 350 -->
<svg id="main" version="1.1" xmlns="http://www.w3.org/2000/svg" xmlns:xlink="http://www.w3.org/1999/xlink" xml:space="preserve" onload="init(evt)">
<style type="text/css"><![CDATA[
.edge:hover path { stroke: red; }
.edge:hover polygon { stroke: red; fill: red; }
]]></style>
<script type="text/javascript"><![CDATA[
var edges = document.getElementsByTagName('g');
if (edges && edges.length) {
  for (var i=0;i<edges.length;i++) {
    if (edges[i].id.substr(0,4)=='edge') {
      edges[i].setAttribute('class','edge');
    }
  }
}
]]></script>
        <defs>
                <circle id="rim" cx="0" cy="0" r="7"/>
                <circle id="rim2" cx="0" cy="0" r="3.5"/>
                <g id="zoomPlus">
                        <use xlink:href="#rim" fill="#404040">
                                <set attributeName="fill" to="#808080" begin="zoomplus.mouseover" end="zoomplus.mouseout"/>
                        </use>
                        <path d="M-4,0h8M0,-4v8" fill="none" stroke="white" stroke-width="1.5" pointer-events="none"/>
                </g>
                <g id="zoomMin">
                        <use xlink:href="#rim" fill="#404040">
                                <set attributeName="fill" to="#808080" begin="zoomminus.mouseover" end="zoomminus.mouseout"/>
                        </use>
                        <path d="M-4,0h8" fill="none" stroke="white" stroke-width="1.5" pointer-events="none"/>
                </g>
                <g id="dirArrow">
                        <path fill="none" stroke="white" stroke-width="1.5" d="M0,-3.0v7 M-2.5,-0.5L0,-3.0L2.5,-0.5"/>
                </g>
               <g id="resetDef">
                       <use xlink:href="#rim2" fill="#404040">
                               <set attributeName="fill" to="#808080" begin="reset.mouseover" end="reset.mouseout"/>
                       </use>
               </g>
        </defs>

<script type="text/javascript">
var viewWidth = 1387;
var viewHeight = 350;
var sectionId = 'dynsection-14';
</script>
<script xlink:href="svgpan.js"/>
<svg id="graph" class="graph">
<g id="viewport">
<title>RoundManager.FixedUpdate</title>
<polygon fill="white" stroke="transparent" points="-4,4 -4,-346 1383,-346 1383,4 -4,4"/>
<!-- Node1 -->
<g id="node1" class="node">
<title>Node1</title>
<g id="a_node1"><a xlink:title=" ">
<polygon fill="#bfbfbf" stroke="black" points="0,-220.5 0,-241.5 167,-241.5 167,-220.5 0,-220.5"/>
<text text-anchor="middle" x="83.5" y="-227.9" font-family="Helvetica,sans-Serif" font-size="12.00">RoundManager.FixedUpdate</text>
</a>
</g>
</g>
<!-- Node2 -->
<g id="node2" class="node">
<title>Node2</title>
<g id="a_node2"><a xlink:href="class_round_manager.html#acf674cdec523de9a0f91ab8a7bfcc2ef" target="_top" xlink:title="for waiting the dice to be rolled, get it&#39;s results and display where the player can move to">
<polygon fill="white" stroke="black" points="203,-220.5 203,-241.5 380,-241.5 380,-220.5 203,-220.5"/>
<text text-anchor="middle" x="291.5" y="-227.9" font-family="Helvetica,sans-Serif" font-size="12.00">RoundManager.DiceBehaviour</text>
</a>
</g>
</g>
<!-- Node1&#45;&gt;Node2 -->
<g id="edge1" class="edge">
<title>Node1&#45;&gt;Node2</title>
<path fill="none" stroke="midnightblue" d="M167.1,-231C175.55,-231 184.19,-231 192.78,-231"/>
<polygon fill="midnightblue" stroke="midnightblue" points="192.82,-234.5 202.82,-231 192.82,-227.5 192.82,-234.5"/>
</g>
<!-- Node3 -->
<g id="node3" class="node">
<title>Node3</title>
<g id="a_node3"><a xlink:href="class_turn_controller.html#af16e42b7e61c5a999291327e2e556caa" target="_top" xlink:title=" ">
<polygon fill="white" stroke="black" points="438.5,-320.5 438.5,-341.5 620.5,-341.5 620.5,-320.5 438.5,-320.5"/>
<text text-anchor="middle" x="529.5" y="-327.9" font-family="Helvetica,sans-Serif" font-size="12.00">TurnController.GetCurrentPlayer</text>
</a>
</g>
</g>
<!-- Node2&#45;&gt;Node3 -->
<g id="edge2" class="edge">
<title>Node2&#45;&gt;Node3</title>
<path fill="none" stroke="midnightblue" d="M305.24,-241.77C326.63,-259.24 371.79,-293.58 416,-311 422.72,-313.65 429.81,-315.95 437.03,-317.95"/>
<polygon fill="midnightblue" stroke="midnightblue" points="436.37,-321.39 446.92,-320.49 438.11,-314.61 436.37,-321.39"/>
</g>
<!-- Node4 -->
<g id="node4" class="node">
<title>Node4</title>
<g id="a_node4"><a xlink:href="class_player_master_controller.html#a0447a8a21b5c0f2c94f9d27e0bcd0830" target="_top" xlink:title=" ">
<polygon fill="white" stroke="black" points="416,-280.5 416,-301.5 643,-301.5 643,-280.5 416,-280.5"/>
<text text-anchor="middle" x="529.5" y="-287.9" font-family="Helvetica,sans-Serif" font-size="12.00">PlayerMasterController.GetCurrentRoom</text>
</a>
</g>
</g>
<!-- Node2&#45;&gt;Node4 -->
<g id="edge3" class="edge">
<title>Node2&#45;&gt;Node4</title>
<path fill="none" stroke="midnightblue" d="M321.12,-241.51C345.95,-250.32 382.98,-262.76 416,-271 427.09,-273.77 438.89,-276.3 450.51,-278.57"/>
<polygon fill="midnightblue" stroke="midnightblue" points="450.18,-282.07 460.66,-280.49 451.49,-275.19 450.18,-282.07"/>
</g>
<!-- Node5 -->
<g id="node5" class="node">
<title>Node5</title>
<g id="a_node5"><a xlink:href="class_player_master_controller.html#a6e9a15dbaf465a0477ab5bab27570bde" target="_top" xlink:title="Get the current tile the token is on">
<polygon fill="white" stroke="black" points="441.5,-240.5 441.5,-261.5 617.5,-261.5 617.5,-240.5 441.5,-240.5"/>
<text text-anchor="middle" x="529.5" y="-247.9" font-family="Helvetica,sans-Serif" font-size="12.00">PlayerMasterController.GetTile</text>
</a>
</g>
</g>
<!-- Node2&#45;&gt;Node5 -->
<g id="edge4" class="edge">
<title>Node2&#45;&gt;Node5</title>
<path fill="none" stroke="midnightblue" d="M380.04,-238.42C396.66,-239.83 414.15,-241.31 431.05,-242.74"/>
<polygon fill="midnightblue" stroke="midnightblue" points="431.23,-246.27 441.49,-243.63 431.82,-239.29 431.23,-246.27"/>
</g>
<!-- Node6 -->
<g id="node6" class="node">
<title>Node6</title>
<g id="a_node6"><a xlink:href="class_dice.html#a91e31e11d7028270bebdc80719c64c19" target="_top" xlink:title="Get value of all dice">
<polygon fill="white" stroke="black" points="483,-200.5 483,-221.5 576,-221.5 576,-200.5 483,-200.5"/>
<text text-anchor="middle" x="529.5" y="-207.9" font-family="Helvetica,sans-Serif" font-size="12.00">Dice.GetValue</text>
</a>
</g>
</g>
<!-- Node2&#45;&gt;Node6 -->
<g id="edge5" class="edge">
<title>Node2&#45;&gt;Node6</title>
<path fill="none" stroke="midnightblue" d="M380.04,-223.58C410.98,-220.96 444.92,-218.08 472.53,-215.74"/>
<polygon fill="midnightblue" stroke="midnightblue" points="473.12,-219.21 482.78,-214.87 472.52,-212.23 473.12,-219.21"/>
</g>
<!-- Node9 -->
<g id="node9" class="node">
<title>Node9</title>
<g id="a_node9"><a xlink:href="class_dice.html#ade1dc529eeb31f31e668c595c5748e67" target="_top" xlink:title="Reset the dice">
<polygon fill="white" stroke="black" points="479.5,-160.5 479.5,-181.5 579.5,-181.5 579.5,-160.5 479.5,-160.5"/>
<text text-anchor="middle" x="529.5" y="-167.9" font-family="Helvetica,sans-Serif" font-size="12.00">Dice.ResetDice</text>
</a>
</g>
</g>
<!-- Node2&#45;&gt;Node9 -->
<g id="edge8" class="edge">
<title>Node2&#45;&gt;Node9</title>
<path fill="none" stroke="midnightblue" d="M321.12,-220.49C345.95,-211.68 382.98,-199.24 416,-191 433.22,-186.7 452.13,-182.97 469.47,-179.93"/>
<polygon fill="midnightblue" stroke="midnightblue" points="470.19,-183.35 479.46,-178.22 469.01,-176.45 470.19,-183.35"/>
</g>
<!-- Node15 -->
<g id="node15" class="node">
<title>Node15</title>
<g id="a_node15"><a xlink:href="class_board_manager.html#ad6679de327b4f4b736f06d0d549b72a0" target="_top" xlink:title="Mark and show which tile the player can move to">
<polygon fill="white" stroke="black" points="443.5,-80.5 443.5,-101.5 615.5,-101.5 615.5,-80.5 443.5,-80.5"/>
<text text-anchor="middle" x="529.5" y="-87.9" font-family="Helvetica,sans-Serif" font-size="12.00">BoardManager.ShowMovable</text>
</a>
</g>
</g>
<!-- Node2&#45;&gt;Node15 -->
<g id="edge14" class="edge">
<title>Node2&#45;&gt;Node15</title>
<path fill="none" stroke="midnightblue" d="M307.83,-220.47C330.92,-204.74 376.16,-174.47 416,-151 443.37,-134.88 475.4,-117.98 498.27,-106.24"/>
<polygon fill="midnightblue" stroke="midnightblue" points="500.16,-109.2 507.47,-101.54 496.98,-102.97 500.16,-109.2"/>
</g>
<!-- Node7 -->
<g id="node7" class="node">
<title>Node7</title>
<g id="a_node7"><a xlink:href="class_dice.html#a84cd116dad344495cac8589afc974140" target="_top" xlink:title="Calculate total value of all dice">
<polygon fill="white" stroke="black" points="708.5,-240.5 708.5,-261.5 831.5,-261.5 831.5,-240.5 708.5,-240.5"/>
<text text-anchor="middle" x="770" y="-247.9" font-family="Helvetica,sans-Serif" font-size="12.00">Dice.CalculateValue</text>
</a>
</g>
</g>
<!-- Node6&#45;&gt;Node7 -->
<g id="edge6" class="edge">
<title>Node6&#45;&gt;Node7</title>
<path fill="none" stroke="midnightblue" d="M576.2,-218.67C610.67,-224.45 658.58,-232.48 698.02,-239.1"/>
<polygon fill="midnightblue" stroke="midnightblue" points="697.67,-242.59 708.12,-240.79 698.83,-235.68 697.67,-242.59"/>
</g>
<!-- Node8 -->
<g id="node8" class="node">
<title>Node8</title>
<g id="a_node8"><a xlink:href="class_die.html#ad1f02edcfdd486ab3da75162daab3570" target="_top" xlink:title="Get the value of the die">
<polygon fill="white" stroke="black" points="974,-240.5 974,-261.5 1080,-261.5 1080,-240.5 974,-240.5"/>
<text text-anchor="middle" x="1027" y="-247.9" font-family="Helvetica,sans-Serif" font-size="12.00">Die.GetValueDie</text>
</a>
</g>
</g>
<!-- Node7&#45;&gt;Node8 -->
<g id="edge7" class="edge">
<title>Node7&#45;&gt;Node8</title>
<path fill="none" stroke="midnightblue" d="M831.75,-251C871.6,-251 923.55,-251 963.7,-251"/>
<polygon fill="midnightblue" stroke="midnightblue" points="963.9,-254.5 973.9,-251 963.9,-247.5 963.9,-254.5"/>
</g>
<!-- Node10 -->
<g id="node10" class="node">
<title>Node10</title>
<g id="a_node10"><a xlink:href="class_dice.html#ace4c995eb73b784d1076fde140ce85af" target="_top" xlink:title="Can Dice be reset">
<polygon fill="white" stroke="black" points="721.5,-200.5 721.5,-221.5 818.5,-221.5 818.5,-200.5 721.5,-200.5"/>
<text text-anchor="middle" x="770" y="-207.9" font-family="Helvetica,sans-Serif" font-size="12.00">Dice.CanReset</text>
</a>
</g>
</g>
<!-- Node9&#45;&gt;Node10 -->
<g id="edge9" class="edge">
<title>Node9&#45;&gt;Node10</title>
<path fill="none" stroke="midnightblue" d="M579.63,-179.24C617.84,-185.65 670.96,-194.56 711.22,-201.31"/>
<polygon fill="midnightblue" stroke="midnightblue" points="710.72,-204.77 721.16,-202.98 711.87,-197.87 710.72,-204.77"/>
</g>
<!-- Node12 -->
<g id="node12" class="node">
<title>Node12</title>
<g id="a_node12"><a xlink:href="class_camera_close_up.html#ad31062bdf359a453fc85ebdd71fa1bae" target="_top" xlink:title="Clear camera close up">
<polygon fill="white" stroke="black" points="679,-160.5 679,-181.5 861,-181.5 861,-160.5 679,-160.5"/>
<text text-anchor="middle" x="770" y="-167.9" font-family="Helvetica,sans-Serif" font-size="12.00">CameraCloseUp.ClearCloseUp</text>
</a>
</g>
</g>
<!-- Node9&#45;&gt;Node12 -->
<g id="edge11" class="edge">
<title>Node9&#45;&gt;Node12</title>
<path fill="none" stroke="midnightblue" d="M579.63,-171C605.36,-171 637.84,-171 668.6,-171"/>
<polygon fill="midnightblue" stroke="midnightblue" points="668.96,-174.5 678.96,-171 668.96,-167.5 668.96,-174.5"/>
</g>
<!-- Node14 -->
<g id="node14" class="node">
<title>Node14</title>
<g id="a_node14"><a xlink:href="class_die.html#abc11c3d2bf0c0fba1555093eb5a8469e" target="_top" xlink:title="Reset Die to original position">
<polygon fill="white" stroke="black" points="726,-120.5 726,-141.5 814,-141.5 814,-120.5 726,-120.5"/>
<text text-anchor="middle" x="770" y="-127.9" font-family="Helvetica,sans-Serif" font-size="12.00">Die.ResetDie</text>
</a>
</g>
</g>
<!-- Node9&#45;&gt;Node14 -->
<g id="edge13" class="edge">
<title>Node9&#45;&gt;Node14</title>
<path fill="none" stroke="midnightblue" d="M579.63,-162.76C619.35,-156.1 675.18,-146.74 715.92,-139.9"/>
<polygon fill="midnightblue" stroke="midnightblue" points="716.65,-143.33 725.94,-138.22 715.5,-136.42 716.65,-143.33"/>
</g>
<!-- Node11 -->
<g id="node11" class="node">
<title>Node11</title>
<g id="a_node11"><a xlink:href="class_die.html#a390d46459637fd249926cda472255d84" target="_top" xlink:title="Can the die be reset">
<polygon fill="white" stroke="black" points="972,-200.5 972,-221.5 1082,-221.5 1082,-200.5 972,-200.5"/>
<text text-anchor="middle" x="1027" y="-207.9" font-family="Helvetica,sans-Serif" font-size="12.00">Die.CanResetDie</text>
</a>
</g>
</g>
<!-- Node10&#45;&gt;Node11 -->
<g id="edge10" class="edge">
<title>Node10&#45;&gt;Node11</title>
<path fill="none" stroke="midnightblue" d="M818.66,-211C859.05,-211 917.32,-211 961.81,-211"/>
<polygon fill="midnightblue" stroke="midnightblue" points="961.94,-214.5 971.94,-211 961.94,-207.5 961.94,-214.5"/>
</g>
<!-- Node13 -->
<g id="node13" class="node">
<title>Node13</title>
<g id="a_node13"><a xlink:href="class_camera_close_up.html#ae902d2ccdf969212e0cb84f638f68851" target="_top" xlink:title="Delay then clear close up">
<polygon fill="white" stroke="black" points="921,-160.5 921,-181.5 1133,-181.5 1133,-160.5 921,-160.5"/>
<text text-anchor="middle" x="1027" y="-167.9" font-family="Helvetica,sans-Serif" font-size="12.00">CameraCloseUp.ClearCloseUpDelay</text>
</a>
</g>
</g>
<!-- Node12&#45;&gt;Node13 -->
<g id="edge12" class="edge">
<title>Node12&#45;&gt;Node13</title>
<path fill="none" stroke="midnightblue" d="M861.26,-171C877.16,-171 893.91,-171 910.39,-171"/>
<polygon fill="midnightblue" stroke="midnightblue" points="910.6,-174.5 920.6,-171 910.6,-167.5 910.6,-174.5"/>
</g>
<!-- Node16 -->
<g id="node16" class="node">
<title>Node16</title>
<g id="a_node16"><a xlink:href="class_board_manager.html#a1ea52b667d1dd7ca6b4fa956a19ee26d" target="_top" xlink:title="Perform bfs search for the tiles">
<polygon fill="white" stroke="black" points="713,-80.5 713,-101.5 827,-101.5 827,-80.5 713,-80.5"/>
<text text-anchor="middle" x="770" y="-87.9" font-family="Helvetica,sans-Serif" font-size="12.00">BoardManager.bfs</text>
</a>
</g>
</g>
<!-- Node15&#45;&gt;Node16 -->
<g id="edge15" class="edge">
<title>Node15&#45;&gt;Node16</title>
<path fill="none" stroke="midnightblue" d="M615.59,-91C644.18,-91 675.63,-91 702.57,-91"/>
<polygon fill="midnightblue" stroke="midnightblue" points="702.66,-94.5 712.66,-91 702.66,-87.5 702.66,-94.5"/>
</g>
<!-- Node20 -->
<g id="node20" class="node">
<title>Node20</title>
<g id="a_node20"><a xlink:href="class_board_tile_script.html#a3ff1d3c491fe4d7e421a624ac0b5be6f" target="_top" xlink:title="setting the glow on the tile">
<polygon fill="white" stroke="black" points="697,-40.5 697,-61.5 843,-61.5 843,-40.5 697,-40.5"/>
<text text-anchor="middle" x="770" y="-47.9" font-family="Helvetica,sans-Serif" font-size="12.00">BoardTileScript.GlowTile</text>
</a>
</g>
</g>
<!-- Node15&#45;&gt;Node20 -->
<g id="edge19" class="edge">
<title>Node15&#45;&gt;Node20</title>
<path fill="none" stroke="midnightblue" d="M593.16,-80.49C624.81,-75.18 663.37,-68.72 696.31,-63.19"/>
<polygon fill="midnightblue" stroke="midnightblue" points="697.06,-66.61 706.34,-61.51 695.9,-59.71 697.06,-66.61"/>
</g>
<!-- Node17 -->
<g id="node17" class="node">
<title>Node17</title>
<g id="a_node17"><a xlink:href="class_board_manager.html#ae3af0b08bdfbc0ebcda23950eb935a5d" target="_top" xlink:title="Return array of all neighbours of given tile">
<polygon fill="white" stroke="black" points="929,-120.5 929,-141.5 1125,-141.5 1125,-120.5 929,-120.5"/>
<text text-anchor="middle" x="1027" y="-127.9" font-family="Helvetica,sans-Serif" font-size="12.00">BoardManager.GetTileNeighbours</text>
</a>
</g>
</g>
<!-- Node16&#45;&gt;Node17 -->
<g id="edge16" class="edge">
<title>Node16&#45;&gt;Node17</title>
<path fill="none" stroke="midnightblue" d="M827.13,-99.95C848.94,-103.42 874.13,-107.41 897,-111 913.32,-113.56 930.8,-116.28 947.46,-118.87"/>
<polygon fill="midnightblue" stroke="midnightblue" points="947.29,-122.38 957.71,-120.46 948.36,-115.47 947.29,-122.38"/>
</g>
<!-- Node19 -->
<g id="node19" class="node">
<title>Node19</title>
<g id="a_node19"><a xlink:href="class_board_tile_script.html#aeee5122d5e5b79867f6538ec4d597b6a" target="_top" xlink:title="check if tile is empty">
<polygon fill="white" stroke="black" points="955.5,-80.5 955.5,-101.5 1098.5,-101.5 1098.5,-80.5 955.5,-80.5"/>
<text text-anchor="middle" x="1027" y="-87.9" font-family="Helvetica,sans-Serif" font-size="12.00">BoardTileScript.IsEmpty</text>
</a>
</g>
</g>
<!-- Node16&#45;&gt;Node19 -->
<g id="edge18" class="edge">
<title>Node16&#45;&gt;Node19</title>
<path fill="none" stroke="midnightblue" d="M827.28,-91C861.88,-91 906.78,-91 945.15,-91"/>
<polygon fill="midnightblue" stroke="midnightblue" points="945.27,-94.5 955.27,-91 945.27,-87.5 945.27,-94.5"/>
</g>
<!-- Node18 -->
<g id="node18" class="node">
<title>Node18</title>
<g id="a_node18"><a xlink:href="class_board_manager.html#a6b2b89b5ce622bf45676e6993f8ec216" target="_top" xlink:title="Get a tile from the array using a grid reference.">
<polygon fill="white" stroke="black" points="1193,-120.5 1193,-141.5 1379,-141.5 1379,-120.5 1193,-120.5"/>
<text text-anchor="middle" x="1286" y="-127.9" font-family="Helvetica,sans-Serif" font-size="12.00">BoardManager.GetTileFromGrid</text>
</a>
</g>
</g>
<!-- Node17&#45;&gt;Node18 -->
<g id="edge17" class="edge">
<title>Node17&#45;&gt;Node18</title>
<path fill="none" stroke="midnightblue" d="M1125.16,-131C1143.96,-131 1163.71,-131 1182.66,-131"/>
<polygon fill="midnightblue" stroke="midnightblue" points="1182.8,-134.5 1192.8,-131 1182.8,-127.5 1182.8,-134.5"/>
</g>
<!-- Node21 -->
<g id="node21" class="node">
<title>Node21</title>
<g id="a_node21"><a xlink:href="class_board_tile_effect_handler_script.html#a93e813816ff40b3602de22f87a694766" target="_top" xlink:title="turn off the effect for when player can move to that tile">
<polygon fill="white" stroke="black" points="897,-40.5 897,-61.5 1157,-61.5 1157,-40.5 897,-40.5"/>
<text text-anchor="middle" x="1027" y="-47.9" font-family="Helvetica,sans-Serif" font-size="12.00">BoardTileEffectHandlerScript.ToggleEffect_Off</text>
</a>
</g>
</g>
<!-- Node20&#45;&gt;Node21 -->
<g id="edge20" class="edge">
<title>Node20&#45;&gt;Node21</title>
<path fill="none" stroke="midnightblue" d="M843.05,-51C856.69,-51 871.39,-51 886.3,-51"/>
<polygon fill="midnightblue" stroke="midnightblue" points="886.66,-54.5 896.66,-51 886.66,-47.5 886.66,-54.5"/>
</g>
<!-- Node22 -->
<g id="node22" class="node">
<title>Node22</title>
<g id="a_node22"><a xlink:href="class_board_tile_effect_handler_script.html#a7bf5b2a819cb44463464d5c951bf3143" target="_top" xlink:title="turn on the effect for when player can move to that tile">
<polygon fill="white" stroke="black" points="897,-0.5 897,-21.5 1157,-21.5 1157,-0.5 897,-0.5"/>
<text text-anchor="middle" x="1027" y="-7.9" font-family="Helvetica,sans-Serif" font-size="12.00">BoardTileEffectHandlerScript.ToggleEffect_On</text>
</a>
</g>
</g>
<!-- Node20&#45;&gt;Node22 -->
<g id="edge21" class="edge">
<title>Node20&#45;&gt;Node22</title>
<path fill="none" stroke="midnightblue" d="M837.04,-40.47C856.36,-37.4 877.53,-34.06 897,-31 913.32,-28.44 930.8,-25.72 947.46,-23.13"/>
<polygon fill="midnightblue" stroke="midnightblue" points="948.36,-26.53 957.71,-21.54 947.29,-19.62 948.36,-26.53"/>
</g>
</g>
</svg>
        <g id="navigator" transform="translate(0 0)" fill="#404254">
                <rect fill="#f2f5e9" fill-opacity="0.5" stroke="#606060" stroke-width=".5" x="0" y="0" width="60" height="60"/>
                <use id="zoomplus" xlink:href="#zoomPlus" x="17" y="9" onmousedown="handleZoom(evt,'in')"/>
                <use id="zoomminus" xlink:href="#zoomMin" x="42" y="9" onmousedown="handleZoom(evt,'out')"/>
                <use id="reset" xlink:href="#resetDef" x="30" y="36" onmousedown="handleReset()"/>
                <g id="arrowUp" xlink:href="#dirArrow" transform="translate(30 24)" onmousedown="handlePan(0,-1)">
                  <use xlink:href="#rim" fill="#404040">
                        <set attributeName="fill" to="#808080" begin="arrowUp.mouseover" end="arrowUp.mouseout"/>
                  </use>
                  <path fill="none" stroke="white" stroke-width="1.5" d="M0,-3.0v7 M-2.5,-0.5L0,-3.0L2.5,-0.5"/>
                </g>
                <g id="arrowRight" xlink:href="#dirArrow" transform="rotate(90) translate(36 -43)" onmousedown="handlePan(1,0)">
                  <use xlink:href="#rim" fill="#404040">
                        <set attributeName="fill" to="#808080" begin="arrowRight.mouseover" end="arrowRight.mouseout"/>
                  </use>
                  <path fill="none" stroke="white" stroke-width="1.5" d="M0,-3.0v7 M-2.5,-0.5L0,-3.0L2.5,-0.5"/>
                </g>
                <g id="arrowDown" xlink:href="#dirArrow" transform="rotate(180) translate(-30 -48)" onmousedown="handlePan(0,1)">
                  <use xlink:href="#rim" fill="#404040">
                        <set attributeName="fill" to="#808080" begin="arrowDown.mouseover" end="arrowDown.mouseout"/>
                  </use>
                  <path fill="none" stroke="white" stroke-width="1.5" d="M0,-3.0v7 M-2.5,-0.5L0,-3.0L2.5,-0.5"/>
                </g>
                <g id="arrowLeft" xlink:href="#dirArrow" transform="rotate(270) translate(-36 17)" onmousedown="handlePan(-1,0)">
                  <use xlink:href="#rim" fill="#404040">
                        <set attributeName="fill" to="#808080" begin="arrowLeft.mouseover" end="arrowLeft.mouseout"/>
                  </use>
                  <path fill="none" stroke="white" stroke-width="1.5" d="M0,-3.0v7 M-2.5,-0.5L0,-3.0L2.5,-0.5"/>
                </g>
        </g>
        <svg viewBox="0 0 15 15" width="100%" height="30px" preserveAspectRatio="xMaxYMin meet">
         <g id="arrow_out" transform="scale(0.3 0.3)">
          <a xlink:href="class_round_manager_abb654bc0114fc67d455ed6449d5bda22_cgraph_org.svg" target="_base">
           <rect id="button" ry="5" rx="5" y="6" x="6" height="38" width="38"
                fill="#f2f5e9" fill-opacity="0.5" stroke="#606060" stroke-width="1.0"/>
           <path id="arrow"
             d="M 11.500037,31.436501 C 11.940474,20.09759 22.043105,11.32322 32.158766,21.979434 L 37.068811,17.246167 C 37.068811,17.246167 37.088388,32 37.088388,32 L 22.160133,31.978069 C 22.160133,31.978069 26.997745,27.140456 26.997745,27.140456 C 18.528582,18.264221 13.291696,25.230495 11.500037,31.436501 z"
             style="fill:#404040;"/>
          </a>
         </g>
        </svg>
</svg>
