<?xml version="1.0" encoding="UTF-8" standalone="no"?>
<!DOCTYPE svg PUBLIC "-//W3C//DTD SVG 1.1//EN"
 "http://www.w3.org/Graphics/SVG/1.1/DTD/svg11.dtd">
<!-- Generated by graphviz version 2.47.1 (20210417.1919)
 -->
<!-- Title: BoardBuilder.CreateFreeSuggestionTiles Pages: 1 -->
<svg width="781pt" height="30pt"
 viewBox="0.00 0.00 781.00 30.00" xmlns="http://www.w3.org/2000/svg" xmlns:xlink="http://www.w3.org/1999/xlink">
<g id="graph0" class="graph" transform="scale(1 1) rotate(0) translate(4 26)">
<title>BoardBuilder.CreateFreeSuggestionTiles</title>
<polygon fill="white" stroke="transparent" points="-4,4 -4,-26 777,-26 777,4 -4,4"/>
<!-- Node1 -->
<g id="node1" class="node">
<title>Node1</title>
<g id="a_node1"><a xlink:title="Randomly replace required number of general tiles with FreeAccusation Tiles">
<polygon fill="#bfbfbf" stroke="black" points="540,-0.5 540,-21.5 773,-21.5 773,-0.5 540,-0.5"/>
<text text-anchor="middle" x="656.5" y="-7.9" font-family="Helvetica,sans-Serif" font-size="12.00">BoardBuilder.CreateFreeSuggestionTiles</text>
</a>
</g>
</g>
<!-- Node2 -->
<g id="node2" class="node">
<title>Node2</title>
<g id="a_node2"><a xlink:href="class_board_builder.html#a7a499abdc0c02d659ea6fee6e7836f15" target="_top" xlink:title="Randomly place Free roll / accusation tiles.">
<polygon fill="white" stroke="black" points="328,-0.5 328,-21.5 504,-21.5 504,-0.5 328,-0.5"/>
<text text-anchor="middle" x="416" y="-7.9" font-family="Helvetica,sans-Serif" font-size="12.00">BoardBuilder.PlaceBonusTiles</text>
</a>
</g>
</g>
<!-- Node1&#45;&gt;Node2 -->
<g id="edge1" class="edge">
<title>Node1&#45;&gt;Node2</title>
<path fill="none" stroke="midnightblue" d="M529.63,-11C521.02,-11 512.46,-11 504.13,-11"/>
<polygon fill="midnightblue" stroke="midnightblue" points="529.74,-14.5 539.74,-11 529.74,-7.5 529.74,-14.5"/>
</g>
<!-- Node3 -->
<g id="node3" class="node">
<title>Node3</title>
<g id="a_node3"><a xlink:href="class_board_builder.html#a82e09ea29b1d031cfe2fa3b444c12c99" target="_top" xlink:title="Method to create the board, initialise and place all items and pass references to board manager">
<polygon fill="white" stroke="black" points="161,-0.5 161,-21.5 292,-21.5 292,-0.5 161,-0.5"/>
<text text-anchor="middle" x="226.5" y="-7.9" font-family="Helvetica,sans-Serif" font-size="12.00">BoardBuilder.Initialise</text>
</a>
</g>
</g>
<!-- Node2&#45;&gt;Node3 -->
<g id="edge2" class="edge">
<title>Node2&#45;&gt;Node3</title>
<path fill="none" stroke="midnightblue" d="M317.65,-11C308.98,-11 300.35,-11 292.05,-11"/>
<polygon fill="midnightblue" stroke="midnightblue" points="317.84,-14.5 327.84,-11 317.84,-7.5 317.84,-14.5"/>
</g>
<!-- Node4 -->
<g id="node4" class="node">
<title>Node4</title>
<g id="a_node4"><a xlink:href="class_board_builder.html#a40848d7394ead9e79f4f2dad2d7756b8" target="_top" xlink:title=" ">
<polygon fill="white" stroke="black" points="0,-0.5 0,-21.5 125,-21.5 125,-0.5 0,-0.5"/>
<text text-anchor="middle" x="62.5" y="-7.9" font-family="Helvetica,sans-Serif" font-size="12.00">BoardBuilder.Awake</text>
</a>
</g>
</g>
<!-- Node3&#45;&gt;Node4 -->
<g id="edge3" class="edge">
<title>Node3&#45;&gt;Node4</title>
<path fill="none" stroke="midnightblue" d="M150.3,-11C141.84,-11 133.31,-11 125.05,-11"/>
<polygon fill="midnightblue" stroke="midnightblue" points="150.54,-14.5 160.54,-11 150.54,-7.5 150.54,-14.5"/>
</g>
</g>
</svg>
