<?xml version="1.0" encoding="UTF-8" standalone="no"?>
<!DOCTYPE svg PUBLIC "-//W3C//DTD SVG 1.1//EN"
 "http://www.w3.org/Graphics/SVG/1.1/DTD/svg11.dtd">
<!-- Generated by graphviz version 2.47.1 (20210417.1919)
 -->
<!-- Title: WinScreenScript.OnEnable Pages: 1 -->
<svg width="868pt" height="188pt"
 viewBox="0.00 0.00 868.00 188.00" xmlns="http://www.w3.org/2000/svg" xmlns:xlink="http://www.w3.org/1999/xlink">
<g id="graph0" class="graph" transform="scale(1 1) rotate(0) translate(4 184)">
<title>WinScreenScript.OnEnable</title>
<polygon fill="white" stroke="transparent" points="-4,4 -4,-184 864,-184 864,4 -4,4"/>
<!-- Node1 -->
<g id="node1" class="node">
<title>Node1</title>
<g id="a_node1"><a xlink:title="Update the win screen when enabled">
<polygon fill="#bfbfbf" stroke="black" points="0,-98.5 0,-119.5 160,-119.5 160,-98.5 0,-98.5"/>
<text text-anchor="middle" x="80" y="-105.9" font-family="Helvetica,sans-Serif" font-size="12.00">WinScreenScript.OnEnable</text>
</a>
</g>
</g>
<!-- Node2 -->
<g id="node2" class="node">
<title>Node2</title>
<g id="a_node2"><a xlink:href="class_player_master_controller.html#a12c91851433777ae557a71d9f9a855f0" target="_top" xlink:title=" ">
<polygon fill="white" stroke="black" points="196,-158.5 196,-179.5 405,-179.5 405,-158.5 196,-158.5"/>
<text text-anchor="middle" x="300.5" y="-165.9" font-family="Helvetica,sans-Serif" font-size="12.00">PlayerMasterController.GetCharacter</text>
</a>
</g>
</g>
<!-- Node1&#45;&gt;Node2 -->
<g id="edge1" class="edge">
<title>Node1&#45;&gt;Node2</title>
<path fill="none" stroke="midnightblue" d="M108.07,-119.66C131.16,-128.45 165.38,-140.76 196,-149 206.04,-151.7 216.73,-154.19 227.28,-156.43"/>
<polygon fill="midnightblue" stroke="midnightblue" points="226.82,-159.91 237.32,-158.49 228.23,-153.05 226.82,-159.91"/>
</g>
<!-- Node3 -->
<g id="node3" class="node">
<title>Node3</title>
<g id="a_node3"><a xlink:href="class_round_manager.html#aab3f49a5e05508a8e023a497e763c1c8" target="_top" xlink:title="Gets the player controller for the current player">
<polygon fill="white" stroke="black" points="205.5,-118.5 205.5,-139.5 395.5,-139.5 395.5,-118.5 205.5,-118.5"/>
<text text-anchor="middle" x="300.5" y="-125.9" font-family="Helvetica,sans-Serif" font-size="12.00">RoundManager.GetCurrentPlayer</text>
</a>
</g>
</g>
<!-- Node1&#45;&gt;Node3 -->
<g id="edge2" class="edge">
<title>Node1&#45;&gt;Node3</title>
<path fill="none" stroke="midnightblue" d="M160.19,-116.25C171.53,-117.29 183.33,-118.37 195.06,-119.44"/>
<polygon fill="midnightblue" stroke="midnightblue" points="195.06,-122.95 205.34,-120.38 195.7,-115.98 195.06,-122.95"/>
</g>
<!-- Node5 -->
<g id="node5" class="node">
<title>Node5</title>
<g id="a_node5"><a xlink:href="class_enum_to_string.html#a078a1fb16a0030544fac1b96a90b6b83" target="_top" xlink:title="Get a string value from a valid enum">
<polygon fill="white" stroke="black" points="659,-80.5 659,-101.5 860,-101.5 860,-80.5 659,-80.5"/>
<text text-anchor="middle" x="759.5" y="-87.9" font-family="Helvetica,sans-Serif" font-size="12.00">EnumToString.GetStringFromEnum</text>
</a>
</g>
</g>
<!-- Node1&#45;&gt;Node5 -->
<g id="edge4" class="edge">
<title>Node1&#45;&gt;Node5</title>
<path fill="none" stroke="midnightblue" d="M160.04,-106.9C280.85,-103.69 511.78,-97.55 648.76,-93.92"/>
<polygon fill="midnightblue" stroke="midnightblue" points="648.96,-97.41 658.86,-93.65 648.77,-90.41 648.96,-97.41"/>
</g>
<!-- Node6 -->
<g id="node6" class="node">
<title>Node6</title>
<g id="a_node6"><a xlink:href="class_card_slot.html#a9049dedcebbbc4b2185a2a01d76d4ed5" target="_top" xlink:title=" ">
<polygon fill="white" stroke="black" points="245.5,-40.5 245.5,-61.5 355.5,-61.5 355.5,-40.5 245.5,-40.5"/>
<text text-anchor="middle" x="300.5" y="-47.9" font-family="Helvetica,sans-Serif" font-size="12.00">CardSlot.SetCard</text>
</a>
</g>
</g>
<!-- Node1&#45;&gt;Node6 -->
<g id="edge5" class="edge">
<title>Node1&#45;&gt;Node6</title>
<path fill="none" stroke="midnightblue" d="M116.38,-98.43C139.07,-91.75 169.19,-83.08 196,-76 211.54,-71.9 228.47,-67.69 244.04,-63.94"/>
<polygon fill="midnightblue" stroke="midnightblue" points="245.14,-67.27 254.05,-61.54 243.51,-60.46 245.14,-67.27"/>
</g>
<!-- Node4 -->
<g id="node4" class="node">
<title>Node4</title>
<g id="a_node4"><a xlink:href="class_turn_controller.html#af16e42b7e61c5a999291327e2e556caa" target="_top" xlink:title=" ">
<polygon fill="white" stroke="black" points="441,-118.5 441,-139.5 623,-139.5 623,-118.5 441,-118.5"/>
<text text-anchor="middle" x="532" y="-125.9" font-family="Helvetica,sans-Serif" font-size="12.00">TurnController.GetCurrentPlayer</text>
</a>
</g>
</g>
<!-- Node3&#45;&gt;Node4 -->
<g id="edge3" class="edge">
<title>Node3&#45;&gt;Node4</title>
<path fill="none" stroke="midnightblue" d="M395.51,-129C407.09,-129 418.97,-129 430.64,-129"/>
<polygon fill="midnightblue" stroke="midnightblue" points="430.84,-132.5 440.84,-129 430.84,-125.5 430.84,-132.5"/>
</g>
<!-- Node7 -->
<g id="node7" class="node">
<title>Node7</title>
<g id="a_node7"><a xlink:href="class_card_slot.html#a4690c0753db45ada6b02681269ecfbb1" target="_top" xlink:title=" ">
<polygon fill="white" stroke="black" points="458.5,-40.5 458.5,-61.5 605.5,-61.5 605.5,-40.5 458.5,-40.5"/>
<text text-anchor="middle" x="532" y="-47.9" font-family="Helvetica,sans-Serif" font-size="12.00">CardSlot.SetCardDetails</text>
</a>
</g>
</g>
<!-- Node6&#45;&gt;Node7 -->
<g id="edge6" class="edge">
<title>Node6&#45;&gt;Node7</title>
<path fill="none" stroke="midnightblue" d="M355.6,-51C383.1,-51 417.13,-51 447.87,-51"/>
<polygon fill="midnightblue" stroke="midnightblue" points="448.16,-54.5 458.16,-51 448.16,-47.5 448.16,-54.5"/>
</g>
<!-- Node7&#45;&gt;Node5 -->
<g id="edge9" class="edge">
<title>Node7&#45;&gt;Node5</title>
<path fill="none" stroke="midnightblue" d="M592.25,-61.51C622.04,-66.79 658.32,-73.23 689.37,-78.74"/>
<polygon fill="midnightblue" stroke="midnightblue" points="688.8,-82.19 699.26,-80.49 690.02,-75.3 688.8,-82.19"/>
</g>
<!-- Node8 -->
<g id="node8" class="node">
<title>Node8</title>
<g id="a_node8"><a xlink:href="class_card.html#a25e8366933b176fae41e4d2373be7815" target="_top" xlink:title=" ">
<polygon fill="white" stroke="black" points="698,-40.5 698,-61.5 821,-61.5 821,-40.5 698,-40.5"/>
<text text-anchor="middle" x="759.5" y="-47.9" font-family="Helvetica,sans-Serif" font-size="12.00">Card.GetCardImage</text>
</a>
</g>
</g>
<!-- Node7&#45;&gt;Node8 -->
<g id="edge7" class="edge">
<title>Node7&#45;&gt;Node8</title>
<path fill="none" stroke="midnightblue" d="M605.59,-51C631.85,-51 661.45,-51 687.56,-51"/>
<polygon fill="midnightblue" stroke="midnightblue" points="687.76,-54.5 697.76,-51 687.76,-47.5 687.76,-54.5"/>
</g>
<!-- Node9 -->
<g id="node9" class="node">
<title>Node9</title>
<g id="a_node9"><a xlink:href="class_card.html#a094a5e7ea98cc156ac64e578a987be85" target="_top" xlink:title=" ">
<polygon fill="white" stroke="black" points="701.5,-0.5 701.5,-21.5 817.5,-21.5 817.5,-0.5 701.5,-0.5"/>
<text text-anchor="middle" x="759.5" y="-7.9" font-family="Helvetica,sans-Serif" font-size="12.00">Card.GetCardType</text>
</a>
</g>
</g>
<!-- Node7&#45;&gt;Node9 -->
<g id="edge8" class="edge">
<title>Node7&#45;&gt;Node9</title>
<path fill="none" stroke="midnightblue" d="M592.25,-40.49C622.63,-35.1 659.75,-28.52 691.21,-22.94"/>
<polygon fill="midnightblue" stroke="midnightblue" points="691.97,-26.36 701.21,-21.16 690.75,-19.46 691.97,-26.36"/>
</g>
</g>
</svg>
