<?xml version="1.0" encoding="UTF-8" standalone="no"?>
<!DOCTYPE svg PUBLIC "-//W3C//DTD SVG 1.1//EN"
 "http://www.w3.org/Graphics/SVG/1.1/DTD/svg11.dtd">
<!-- Generated by graphviz version 2.47.1 (20210417.1919)
 -->
<!-- Title: UIHandler.FixedUpdate Pages: 1 -->
<svg width="872pt" height="70pt"
 viewBox="0.00 0.00 872.00 70.00" xmlns="http://www.w3.org/2000/svg" xmlns:xlink="http://www.w3.org/1999/xlink">
<g id="graph0" class="graph" transform="scale(1 1) rotate(0) translate(4 66)">
<title>UIHandler.FixedUpdate</title>
<polygon fill="white" stroke="transparent" points="-4,4 -4,-66 868,-66 868,4 -4,4"/>
<!-- Node1 -->
<g id="node1" class="node">
<title>Node1</title>
<g id="a_node1"><a xlink:title=" ">
<polygon fill="#bfbfbf" stroke="black" points="0,-20.5 0,-41.5 138,-41.5 138,-20.5 0,-20.5"/>
<text text-anchor="middle" x="69" y="-27.9" font-family="Helvetica,sans-Serif" font-size="12.00">UIHandler.FixedUpdate</text>
</a>
</g>
</g>
<!-- Node2 -->
<g id="node2" class="node">
<title>Node2</title>
<g id="a_node2"><a xlink:href="class_player_master_controller.html#a281d37e414bc17c9441964104f039b4a" target="_top" xlink:title="check if the player can take a short cut">
<polygon fill="white" stroke="black" points="174,-40.5 174,-61.5 404,-61.5 404,-40.5 174,-40.5"/>
<text text-anchor="middle" x="289" y="-47.9" font-family="Helvetica,sans-Serif" font-size="12.00">PlayerMasterController.CanTakeShortcut</text>
</a>
</g>
</g>
<!-- Node1&#45;&gt;Node2 -->
<g id="edge1" class="edge">
<title>Node1&#45;&gt;Node2</title>
<path fill="none" stroke="midnightblue" d="M138.08,-37.25C146.25,-38 154.78,-38.78 163.44,-39.57"/>
<polygon fill="midnightblue" stroke="midnightblue" points="163.39,-43.08 173.66,-40.51 164.03,-36.11 163.39,-43.08"/>
</g>
<!-- Node5 -->
<g id="node5" class="node">
<title>Node5</title>
<g id="a_node5"><a xlink:href="class_user_controller.html#a587c55687141d18f375e0504ea4649fa" target="_top" xlink:title="Gets the player controller for the current player">
<polygon fill="white" stroke="black" points="196.5,-0.5 196.5,-21.5 381.5,-21.5 381.5,-0.5 196.5,-0.5"/>
<text text-anchor="middle" x="289" y="-7.9" font-family="Helvetica,sans-Serif" font-size="12.00">UserController.GetCurrentPlayer</text>
</a>
</g>
</g>
<!-- Node1&#45;&gt;Node5 -->
<g id="edge4" class="edge">
<title>Node1&#45;&gt;Node5</title>
<path fill="none" stroke="midnightblue" d="M138.08,-24.75C153.39,-23.35 169.96,-21.83 186.31,-20.33"/>
<polygon fill="midnightblue" stroke="midnightblue" points="186.82,-23.8 196.45,-19.4 186.18,-16.83 186.82,-23.8"/>
</g>
<!-- Node3 -->
<g id="node3" class="node">
<title>Node3</title>
<g id="a_node3"><a xlink:href="class_player_token_script.html#a15c0d40c8748ae3e8f51b12082cf2431" target="_top" xlink:title=" ">
<polygon fill="white" stroke="black" points="440,-40.5 440,-61.5 646,-61.5 646,-40.5 440,-40.5"/>
<text text-anchor="middle" x="543" y="-47.9" font-family="Helvetica,sans-Serif" font-size="12.00">PlayerTokenScript.CanTakeShortcut</text>
</a>
</g>
</g>
<!-- Node2&#45;&gt;Node3 -->
<g id="edge2" class="edge">
<title>Node2&#45;&gt;Node3</title>
<path fill="none" stroke="midnightblue" d="M404.2,-51C412.63,-51 421.12,-51 429.54,-51"/>
<polygon fill="midnightblue" stroke="midnightblue" points="429.75,-54.5 439.75,-51 429.75,-47.5 429.75,-54.5"/>
</g>
<!-- Node4 -->
<g id="node4" class="node">
<title>Node4</title>
<g id="a_node4"><a xlink:href="class_room_script.html#ae66d7fcde6ab8dcbb746309fd6550ae5" target="_top" xlink:title="Does the room have a shortcut tile">
<polygon fill="white" stroke="black" points="700,-40.5 700,-61.5 846,-61.5 846,-40.5 700,-40.5"/>
<text text-anchor="middle" x="773" y="-47.9" font-family="Helvetica,sans-Serif" font-size="12.00">RoomScript.HasShortcut</text>
</a>
</g>
</g>
<!-- Node3&#45;&gt;Node4 -->
<g id="edge3" class="edge">
<title>Node3&#45;&gt;Node4</title>
<path fill="none" stroke="midnightblue" d="M646.33,-51C660.81,-51 675.54,-51 689.58,-51"/>
<polygon fill="midnightblue" stroke="midnightblue" points="689.67,-54.5 699.67,-51 689.67,-47.5 689.67,-54.5"/>
</g>
<!-- Node6 -->
<g id="node6" class="node">
<title>Node6</title>
<g id="a_node6"><a xlink:href="class_round_manager.html#aab3f49a5e05508a8e023a497e763c1c8" target="_top" xlink:title="Gets the player controller for the current player">
<polygon fill="white" stroke="black" points="448,-0.5 448,-21.5 638,-21.5 638,-0.5 448,-0.5"/>
<text text-anchor="middle" x="543" y="-7.9" font-family="Helvetica,sans-Serif" font-size="12.00">RoundManager.GetCurrentPlayer</text>
</a>
</g>
</g>
<!-- Node5&#45;&gt;Node6 -->
<g id="edge5" class="edge">
<title>Node5&#45;&gt;Node6</title>
<path fill="none" stroke="midnightblue" d="M381.69,-11C399.86,-11 419.06,-11 437.61,-11"/>
<polygon fill="midnightblue" stroke="midnightblue" points="437.84,-14.5 447.84,-11 437.84,-7.5 437.84,-14.5"/>
</g>
<!-- Node7 -->
<g id="node7" class="node">
<title>Node7</title>
<g id="a_node7"><a xlink:href="class_turn_controller.html#af16e42b7e61c5a999291327e2e556caa" target="_top" xlink:title=" ">
<polygon fill="white" stroke="black" points="682,-0.5 682,-21.5 864,-21.5 864,-0.5 682,-0.5"/>
<text text-anchor="middle" x="773" y="-7.9" font-family="Helvetica,sans-Serif" font-size="12.00">TurnController.GetCurrentPlayer</text>
</a>
</g>
</g>
<!-- Node6&#45;&gt;Node7 -->
<g id="edge6" class="edge">
<title>Node6&#45;&gt;Node7</title>
<path fill="none" stroke="midnightblue" d="M638.05,-11C649.13,-11 660.48,-11 671.64,-11"/>
<polygon fill="midnightblue" stroke="midnightblue" points="671.83,-14.5 681.83,-11 671.83,-7.5 671.83,-14.5"/>
</g>
</g>
</svg>
