<?xml version="1.0" encoding="UTF-8" standalone="no"?>
<!DOCTYPE svg PUBLIC "-//W3C//DTD SVG 1.1//EN"
 "http://www.w3.org/Graphics/SVG/1.1/DTD/svg11.dtd">
<!-- Generated by graphviz version 2.47.1 (20210417.1919)
 -->
<!-- Title: PlayerMasterController.CanTakeShortcut Pages: 1 -->
<svg width="662pt" height="30pt"
 viewBox="0.00 0.00 662.00 30.00" xmlns="http://www.w3.org/2000/svg" xmlns:xlink="http://www.w3.org/1999/xlink">
<g id="graph0" class="graph" transform="scale(1 1) rotate(0) translate(4 26)">
<title>PlayerMasterController.CanTakeShortcut</title>
<polygon fill="white" stroke="transparent" points="-4,4 -4,-26 658,-26 658,4 -4,4"/>
<!-- Node1 -->
<g id="node1" class="node">
<title>Node1</title>
<g id="a_node1"><a xlink:title="check if the player can take a short cut">
<polygon fill="#bfbfbf" stroke="black" points="0,-0.5 0,-21.5 230,-21.5 230,-0.5 0,-0.5"/>
<text text-anchor="middle" x="115" y="-7.9" font-family="Helvetica,sans-Serif" font-size="12.00">PlayerMasterController.CanTakeShortcut</text>
</a>
</g>
</g>
<!-- Node2 -->
<g id="node2" class="node">
<title>Node2</title>
<g id="a_node2"><a xlink:href="class_player_token_script.html#a15c0d40c8748ae3e8f51b12082cf2431" target="_top" xlink:title=" ">
<polygon fill="white" stroke="black" points="266,-0.5 266,-21.5 472,-21.5 472,-0.5 266,-0.5"/>
<text text-anchor="middle" x="369" y="-7.9" font-family="Helvetica,sans-Serif" font-size="12.00">PlayerTokenScript.CanTakeShortcut</text>
</a>
</g>
</g>
<!-- Node1&#45;&gt;Node2 -->
<g id="edge1" class="edge">
<title>Node1&#45;&gt;Node2</title>
<path fill="none" stroke="midnightblue" d="M230.2,-11C238.63,-11 247.12,-11 255.54,-11"/>
<polygon fill="midnightblue" stroke="midnightblue" points="255.75,-14.5 265.75,-11 255.75,-7.5 255.75,-14.5"/>
</g>
<!-- Node3 -->
<g id="node3" class="node">
<title>Node3</title>
<g id="a_node3"><a xlink:href="class_room_script.html#ae66d7fcde6ab8dcbb746309fd6550ae5" target="_top" xlink:title="Does the room have a shortcut tile">
<polygon fill="white" stroke="black" points="508,-0.5 508,-21.5 654,-21.5 654,-0.5 508,-0.5"/>
<text text-anchor="middle" x="581" y="-7.9" font-family="Helvetica,sans-Serif" font-size="12.00">RoomScript.HasShortcut</text>
</a>
</g>
</g>
<!-- Node2&#45;&gt;Node3 -->
<g id="edge2" class="edge">
<title>Node2&#45;&gt;Node3</title>
<path fill="none" stroke="midnightblue" d="M472.23,-11C480.76,-11 489.31,-11 497.66,-11"/>
<polygon fill="midnightblue" stroke="midnightblue" points="497.74,-14.5 507.74,-11 497.74,-7.5 497.74,-14.5"/>
</g>
</g>
</svg>
