<?xml version="1.0" encoding="UTF-8" standalone="no"?>
<!DOCTYPE svg PUBLIC "-//W3C//DTD SVG 1.1//EN"
 "http://www.w3.org/Graphics/SVG/1.1/DTD/svg11.dtd">
<!-- Generated by graphviz version 2.47.1 (20210417.1919)
 -->
<!-- Title: UserController.MakeAccusation Pages: 1 -->
<svg width="888pt" height="190pt"
 viewBox="0.00 0.00 888.00 190.00" xmlns="http://www.w3.org/2000/svg" xmlns:xlink="http://www.w3.org/1999/xlink">
<g id="graph0" class="graph" transform="scale(1 1) rotate(0) translate(4 186)">
<title>UserController.MakeAccusation</title>
<polygon fill="white" stroke="transparent" points="-4,4 -4,-186 884,-186 884,4 -4,4"/>
<!-- Node1 -->
<g id="node1" class="node">
<title>Node1</title>
<g id="a_node1"><a xlink:title="Makes accusation">
<polygon fill="#bfbfbf" stroke="black" points="0,-100.5 0,-121.5 182,-121.5 182,-100.5 0,-100.5"/>
<text text-anchor="middle" x="91" y="-107.9" font-family="Helvetica,sans-Serif" font-size="12.00">UserController.MakeAccusation</text>
</a>
</g>
</g>
<!-- Node2 -->
<g id="node2" class="node">
<title>Node2</title>
<g id="a_node2"><a xlink:href="class_accusation.html#abba1b95fd7e759eac9efbf52819abd75" target="_top" xlink:title="Passes a list of selected cards">
<polygon fill="white" stroke="black" points="253.5,-120.5 253.5,-141.5 369.5,-141.5 369.5,-120.5 253.5,-120.5"/>
<text text-anchor="middle" x="311.5" y="-127.9" font-family="Helvetica,sans-Serif" font-size="12.00">Accusation.Accuse</text>
</a>
</g>
</g>
<!-- Node1&#45;&gt;Node2 -->
<g id="edge1" class="edge">
<title>Node1&#45;&gt;Node2</title>
<path fill="none" stroke="midnightblue" d="M182.13,-119.25C202.56,-121.12 223.91,-123.07 243.2,-124.84"/>
<polygon fill="midnightblue" stroke="midnightblue" points="243.11,-128.35 253.38,-125.77 243.74,-121.37 243.11,-128.35"/>
</g>
<!-- Node3 -->
<g id="node3" class="node">
<title>Node3</title>
<g id="a_node3"><a xlink:href="class_round_manager.html#ab691cd5cd773e23822b237834b1fcb0a" target="_top" xlink:title="to have the current player to make an accusation eliminates the player if it is wrong wins the game i...">
<polygon fill="white" stroke="black" points="218,-80.5 218,-101.5 405,-101.5 405,-80.5 218,-80.5"/>
<text text-anchor="middle" x="311.5" y="-87.9" font-family="Helvetica,sans-Serif" font-size="12.00">RoundManager.MakeAccusation</text>
</a>
</g>
</g>
<!-- Node1&#45;&gt;Node3 -->
<g id="edge2" class="edge">
<title>Node1&#45;&gt;Node3</title>
<path fill="none" stroke="midnightblue" d="M182.13,-102.75C190.58,-101.98 199.19,-101.19 207.74,-100.41"/>
<polygon fill="midnightblue" stroke="midnightblue" points="208.11,-103.89 217.75,-99.49 207.47,-96.92 208.11,-103.89"/>
</g>
<!-- Node4 -->
<g id="node4" class="node">
<title>Node4</title>
<g id="a_node4"><a xlink:href="class_u_i_handler.html#a2db6b92acd51a72b431b3eacb3884ddd" target="_top" xlink:title="Displays a screen when a player is eliminated">
<polygon fill="white" stroke="black" points="452.5,-160.5 452.5,-181.5 650.5,-181.5 650.5,-160.5 452.5,-160.5"/>
<text text-anchor="middle" x="551.5" y="-167.9" font-family="Helvetica,sans-Serif" font-size="12.00">UIHandler.DisplayPlayerEliminated</text>
</a>
</g>
</g>
<!-- Node3&#45;&gt;Node4 -->
<g id="edge3" class="edge">
<title>Node3&#45;&gt;Node4</title>
<path fill="none" stroke="midnightblue" d="M383.91,-101.64C391.29,-104.13 398.46,-107.21 405,-111 425.69,-123 420.12,-139.34 441,-151 444.95,-153.21 449.09,-155.18 453.36,-156.93"/>
<polygon fill="midnightblue" stroke="midnightblue" points="452.29,-160.27 462.88,-160.46 454.72,-153.7 452.29,-160.27"/>
</g>
<!-- Node5 -->
<g id="node5" class="node">
<title>Node5</title>
<g id="a_node5"><a xlink:href="class_player_master_controller.html#a0dae7cbe3c8b1c8bcb5ca694d9815836" target="_top" xlink:title="eliminate player">
<polygon fill="white" stroke="black" points="441,-120.5 441,-141.5 662,-141.5 662,-120.5 441,-120.5"/>
<text text-anchor="middle" x="551.5" y="-127.9" font-family="Helvetica,sans-Serif" font-size="12.00">PlayerMasterController.EliminatePlayer</text>
</a>
</g>
</g>
<!-- Node3&#45;&gt;Node5 -->
<g id="edge4" class="edge">
<title>Node3&#45;&gt;Node5</title>
<path fill="none" stroke="midnightblue" d="M375.03,-101.51C406.61,-106.82 445.09,-113.28 477.97,-118.81"/>
<polygon fill="midnightblue" stroke="midnightblue" points="477.53,-122.29 487.97,-120.49 478.69,-115.38 477.53,-122.29"/>
</g>
<!-- Node6 -->
<g id="node6" class="node">
<title>Node6</title>
<g id="a_node6"><a xlink:href="class_round_manager.html#aab3f49a5e05508a8e023a497e763c1c8" target="_top" xlink:title="Gets the player controller for the current player">
<polygon fill="white" stroke="black" points="456.5,-80.5 456.5,-101.5 646.5,-101.5 646.5,-80.5 456.5,-80.5"/>
<text text-anchor="middle" x="551.5" y="-87.9" font-family="Helvetica,sans-Serif" font-size="12.00">RoundManager.GetCurrentPlayer</text>
</a>
</g>
</g>
<!-- Node3&#45;&gt;Node6 -->
<g id="edge5" class="edge">
<title>Node3&#45;&gt;Node6</title>
<path fill="none" stroke="midnightblue" d="M405.2,-91C418.62,-91 432.5,-91 446.13,-91"/>
<polygon fill="midnightblue" stroke="midnightblue" points="446.49,-94.5 456.49,-91 446.49,-87.5 446.49,-94.5"/>
</g>
<!-- Node8 -->
<g id="node8" class="node">
<title>Node8</title>
<g id="a_node8"><a xlink:href="class_enum_to_string.html#a078a1fb16a0030544fac1b96a90b6b83" target="_top" xlink:title="Get a string value from a valid enum">
<polygon fill="white" stroke="black" points="451,-40.5 451,-61.5 652,-61.5 652,-40.5 451,-40.5"/>
<text text-anchor="middle" x="551.5" y="-47.9" font-family="Helvetica,sans-Serif" font-size="12.00">EnumToString.GetStringFromEnum</text>
</a>
</g>
</g>
<!-- Node3&#45;&gt;Node8 -->
<g id="edge7" class="edge">
<title>Node3&#45;&gt;Node8</title>
<path fill="none" stroke="midnightblue" d="M375.03,-80.49C406.61,-75.18 445.09,-68.72 477.97,-63.19"/>
<polygon fill="midnightblue" stroke="midnightblue" points="478.69,-66.62 487.97,-61.51 477.53,-59.71 478.69,-66.62"/>
</g>
<!-- Node9 -->
<g id="node9" class="node">
<title>Node9</title>
<g id="a_node9"><a xlink:href="class_card_manager.html#a3aa02d8bc476530b2e8e18019aa8a00e" target="_top" xlink:title="Check if the cards passed matches the answer">
<polygon fill="white" stroke="black" points="466,-0.5 466,-21.5 637,-21.5 637,-0.5 466,-0.5"/>
<text text-anchor="middle" x="551.5" y="-7.9" font-family="Helvetica,sans-Serif" font-size="12.00">CardManager.IsMatchAnswer</text>
</a>
</g>
</g>
<!-- Node3&#45;&gt;Node9 -->
<g id="edge8" class="edge">
<title>Node3&#45;&gt;Node9</title>
<path fill="none" stroke="midnightblue" d="M331.04,-80.48C355.49,-67.06 400.18,-44.02 441,-31 449.65,-28.24 458.82,-25.82 468.02,-23.71"/>
<polygon fill="midnightblue" stroke="midnightblue" points="468.97,-27.08 477.99,-21.53 467.48,-20.24 468.97,-27.08"/>
</g>
<!-- Node7 -->
<g id="node7" class="node">
<title>Node7</title>
<g id="a_node7"><a xlink:href="class_turn_controller.html#af16e42b7e61c5a999291327e2e556caa" target="_top" xlink:title=" ">
<polygon fill="white" stroke="black" points="698,-80.5 698,-101.5 880,-101.5 880,-80.5 698,-80.5"/>
<text text-anchor="middle" x="789" y="-87.9" font-family="Helvetica,sans-Serif" font-size="12.00">TurnController.GetCurrentPlayer</text>
</a>
</g>
</g>
<!-- Node6&#45;&gt;Node7 -->
<g id="edge6" class="edge">
<title>Node6&#45;&gt;Node7</title>
<path fill="none" stroke="midnightblue" d="M646.59,-91C660.07,-91 673.97,-91 687.57,-91"/>
<polygon fill="midnightblue" stroke="midnightblue" points="687.89,-94.5 697.89,-91 687.89,-87.5 687.89,-94.5"/>
</g>
<!-- Node10 -->
<g id="node10" class="node">
<title>Node10</title>
<g id="a_node10"><a xlink:href="class_card.html#a094a5e7ea98cc156ac64e578a987be85" target="_top" xlink:title=" ">
<polygon fill="white" stroke="black" points="731,-0.5 731,-21.5 847,-21.5 847,-0.5 731,-0.5"/>
<text text-anchor="middle" x="789" y="-7.9" font-family="Helvetica,sans-Serif" font-size="12.00">Card.GetCardType</text>
</a>
</g>
</g>
<!-- Node9&#45;&gt;Node10 -->
<g id="edge9" class="edge">
<title>Node9&#45;&gt;Node10</title>
<path fill="none" stroke="midnightblue" d="M637.19,-11C664.66,-11 694.75,-11 720.77,-11"/>
<polygon fill="midnightblue" stroke="midnightblue" points="720.91,-14.5 730.91,-11 720.91,-7.5 720.91,-14.5"/>
</g>
</g>
</svg>
