<?xml version="1.0" encoding="UTF-8" standalone="no"?>
<!DOCTYPE svg PUBLIC "-//W3C//DTD SVG 1.1//EN"
 "http://www.w3.org/Graphics/SVG/1.1/DTD/svg11.dtd">
<!-- Generated by graphviz version 2.47.1 (20210417.1919)
 -->
<!-- Title: ChooseCard Pages: 1 -->
<svg width="106pt" height="172pt"
 viewBox="0.00 0.00 106.00 172.00" xmlns="http://www.w3.org/2000/svg" xmlns:xlink="http://www.w3.org/1999/xlink">
<g id="graph0" class="graph" transform="scale(1 1) rotate(0) translate(4 168)">
<title>ChooseCard</title>
<polygon fill="white" stroke="transparent" points="-4,4 -4,-168 102,-168 102,4 -4,4"/>
<!-- Node1 -->
<g id="node1" class="node">
<title>Node1</title>
<g id="a_node1"><a xlink:title=" ">
<polygon fill="#bfbfbf" stroke="black" points="1.5,-0.5 1.5,-63.5 96.5,-63.5 96.5,-0.5 1.5,-0.5"/>
<text text-anchor="middle" x="49" y="-49.9" font-family="Helvetica,sans-Serif" font-size="12.00">ChooseCard</text>
<polyline fill="none" stroke="black" points="1.5,-42.5 96.5,-42.5 "/>
<text text-anchor="start" x="9.5" y="-28.9" font-family="Helvetica,sans-Serif" font-size="12.00">&#45; cardsToShow</text>
<polyline fill="none" stroke="black" points="1.5,-21.5 96.5,-21.5 "/>
<text text-anchor="start" x="9.5" y="-7.9" font-family="Helvetica,sans-Serif" font-size="12.00">+ go()</text>
</a>
</g>
</g>
<!-- Node2 -->
<g id="node2" class="node">
<title>Node2</title>
<g id="a_node2"><a xlink:title=" ">
<polygon fill="white" stroke="#bfbfbf" points="0,-100.5 0,-163.5 98,-163.5 98,-100.5 0,-100.5"/>
<text text-anchor="middle" x="49" y="-149.9" font-family="Helvetica,sans-Serif" font-size="12.00">MonoBehaviour</text>
<polyline fill="none" stroke="#bfbfbf" points="0,-142.5 98,-142.5 "/>
<text text-anchor="middle" x="49" y="-128.9" font-family="Helvetica,sans-Serif" font-size="12.00"> </text>
<polyline fill="none" stroke="#bfbfbf" points="0,-121.5 98,-121.5 "/>
<text text-anchor="middle" x="49" y="-107.9" font-family="Helvetica,sans-Serif" font-size="12.00"> </text>
</a>
</g>
</g>
<!-- Node2&#45;&gt;Node1 -->
<g id="edge1" class="edge">
<title>Node2&#45;&gt;Node1</title>
<path fill="none" stroke="midnightblue" d="M49,-90.1C49,-81.24 49,-72.01 49,-63.63"/>
<polygon fill="none" stroke="midnightblue" points="45.5,-90.26 49,-100.26 52.5,-90.26 45.5,-90.26"/>
</g>
</g>
</svg>
