<?xml version="1.0" encoding="UTF-8" standalone="no"?>
<!DOCTYPE svg PUBLIC "-//W3C//DTD SVG 1.1//EN"
 "http://www.w3.org/Graphics/SVG/1.1/DTD/svg11.dtd">
<!-- Generated by graphviz version 2.47.1 (20210417.1919)
 -->
<!-- Title: BoardBuilder.PlaceBonusTiles Pages: 1 -->
<!--zoomable 90 -->
<svg id="main" version="1.1" xmlns="http://www.w3.org/2000/svg" xmlns:xlink="http://www.w3.org/1999/xlink" xml:space="preserve" onload="init(evt)">
<style type="text/css"><![CDATA[
.edge:hover path { stroke: red; }
.edge:hover polygon { stroke: red; fill: red; }
]]></style>
<script type="text/javascript"><![CDATA[
var edges = document.getElementsByTagName('g');
if (edges && edges.length) {
  for (var i=0;i<edges.length;i++) {
    if (edges[i].id.substr(0,4)=='edge') {
      edges[i].setAttribute('class','edge');
    }
  }
}
]]></script>
        <defs>
                <circle id="rim" cx="0" cy="0" r="7"/>
                <circle id="rim2" cx="0" cy="0" r="3.5"/>
                <g id="zoomPlus">
                        <use xlink:href="#rim" fill="#404040">
                                <set attributeName="fill" to="#808080" begin="zoomplus.mouseover" end="zoomplus.mouseout"/>
                        </use>
                        <path d="M-4,0h8M0,-4v8" fill="none" stroke="white" stroke-width="1.5" pointer-events="none"/>
                </g>
                <g id="zoomMin">
                        <use xlink:href="#rim" fill="#404040">
                                <set attributeName="fill" to="#808080" begin="zoomminus.mouseover" end="zoomminus.mouseout"/>
                        </use>
                        <path d="M-4,0h8" fill="none" stroke="white" stroke-width="1.5" pointer-events="none"/>
                </g>
                <g id="dirArrow">
                        <path fill="none" stroke="white" stroke-width="1.5" d="M0,-3.0v7 M-2.5,-0.5L0,-3.0L2.5,-0.5"/>
                </g>
               <g id="resetDef">
                       <use xlink:href="#rim2" fill="#404040">
                               <set attributeName="fill" to="#808080" begin="reset.mouseover" end="reset.mouseout"/>
                       </use>
               </g>
        </defs>

<script type="text/javascript">
var viewWidth = 1287;
var viewHeight = 90;
var sectionId = 'dynsection-24';
</script>
<script xlink:href="svgpan.js"/>
<svg id="graph" class="graph">
<g id="viewport">
<title>BoardBuilder.PlaceBonusTiles</title>
<polygon fill="white" stroke="transparent" points="-4,4 -4,-86 1283,-86 1283,4 -4,4"/>
<!-- Node1 -->
<g id="node1" class="node">
<title>Node1</title>
<g id="a_node1"><a xlink:title="Randomly place Free roll / accusation tiles.">
<polygon fill="#bfbfbf" stroke="black" points="0,-20.5 0,-41.5 176,-41.5 176,-20.5 0,-20.5"/>
<text text-anchor="middle" x="88" y="-27.9" font-family="Helvetica,sans-Serif" font-size="12.00">BoardBuilder.PlaceBonusTiles</text>
</a>
</g>
</g>
<!-- Node2 -->
<g id="node2" class="node">
<title>Node2</title>
<g id="a_node2"><a xlink:href="class_board_builder.html#a1ce7b540b58b1e6fde74e064107ae954" target="_top" xlink:title="Randomly replace required number of general tiles with FreeRoll Tiles">
<polygon fill="white" stroke="black" points="231.5,-40.5 231.5,-61.5 425.5,-61.5 425.5,-40.5 231.5,-40.5"/>
<text text-anchor="middle" x="328.5" y="-47.9" font-family="Helvetica,sans-Serif" font-size="12.00">BoardBuilder.CreateFreeRollTiles</text>
</a>
</g>
</g>
<!-- Node1&#45;&gt;Node2 -->
<g id="edge1" class="edge">
<title>Node1&#45;&gt;Node2</title>
<path fill="none" stroke="midnightblue" d="M176.12,-38.31C190.71,-39.53 206,-40.81 221.02,-42.07"/>
<polygon fill="midnightblue" stroke="midnightblue" points="221.1,-45.59 231.36,-42.94 221.69,-38.61 221.1,-45.59"/>
</g>
<!-- Node9 -->
<g id="node9" class="node">
<title>Node9</title>
<g id="a_node9"><a xlink:href="class_board_builder.html#aeeca1094dc5e50c5612bba9336efd9d3" target="_top" xlink:title="Randomly replace required number of general tiles with FreeAccusation Tiles">
<polygon fill="white" stroke="black" points="212,-0.5 212,-21.5 445,-21.5 445,-0.5 212,-0.5"/>
<text text-anchor="middle" x="328.5" y="-7.9" font-family="Helvetica,sans-Serif" font-size="12.00">BoardBuilder.CreateFreeSuggestionTiles</text>
</a>
</g>
</g>
<!-- Node1&#45;&gt;Node9 -->
<g id="edge8" class="edge">
<title>Node1&#45;&gt;Node9</title>
<path fill="none" stroke="midnightblue" d="M176.12,-23.69C184.44,-23 192.98,-22.28 201.58,-21.56"/>
<polygon fill="midnightblue" stroke="midnightblue" points="202,-25.04 211.67,-20.71 201.42,-18.06 202,-25.04"/>
</g>
<!-- Node3 -->
<g id="node3" class="node">
<title>Node3</title>
<g id="a_node3"><a xlink:href="class_board_builder.html#a3e79e20c71a20b8e2feb24d83106ebdb" target="_top" xlink:title="Check for nearby bonus / start tiles in order to space out around the board">
<polygon fill="white" stroke="black" points="485.5,-40.5 485.5,-61.5 670.5,-61.5 670.5,-40.5 485.5,-40.5"/>
<text text-anchor="middle" x="578" y="-47.9" font-family="Helvetica,sans-Serif" font-size="12.00">BoardBuilder.CheckNearbyTiles</text>
</a>
</g>
</g>
<!-- Node2&#45;&gt;Node3 -->
<g id="edge2" class="edge">
<title>Node2&#45;&gt;Node3</title>
<path fill="none" stroke="midnightblue" d="M425.54,-51C441.86,-51 458.85,-51 475.31,-51"/>
<polygon fill="midnightblue" stroke="midnightblue" points="475.48,-54.5 485.48,-51 475.48,-47.5 475.48,-54.5"/>
</g>
<!-- Node8 -->
<g id="node8" class="node">
<title>Node8</title>
<g id="a_node8"><a xlink:href="class_board_manager.html#ad208908578ffda25d87122a34e264b44" target="_top" xlink:title="Create 2d array of all board tiles">
<polygon fill="white" stroke="black" points="481,-0.5 481,-21.5 675,-21.5 675,-0.5 481,-0.5"/>
<text text-anchor="middle" x="578" y="-7.9" font-family="Helvetica,sans-Serif" font-size="12.00">BoardManager.CreateBoardArray</text>
</a>
</g>
</g>
<!-- Node2&#45;&gt;Node8 -->
<g id="edge7" class="edge">
<title>Node2&#45;&gt;Node8</title>
<path fill="none" stroke="midnightblue" d="M394.53,-40.49C427.51,-35.16 467.73,-28.66 502.01,-23.12"/>
<polygon fill="midnightblue" stroke="midnightblue" points="502.66,-26.56 511.98,-21.51 501.55,-19.65 502.66,-26.56"/>
</g>
<!-- Node4 -->
<g id="node4" class="node">
<title>Node4</title>
<g id="a_node4"><a xlink:href="class_board_manager.html#a1ea52b667d1dd7ca6b4fa956a19ee26d" target="_top" xlink:title="Perform bfs search for the tiles">
<polygon fill="white" stroke="black" points="711,-40.5 711,-61.5 825,-61.5 825,-40.5 711,-40.5"/>
<text text-anchor="middle" x="768" y="-47.9" font-family="Helvetica,sans-Serif" font-size="12.00">BoardManager.bfs</text>
</a>
</g>
</g>
<!-- Node3&#45;&gt;Node4 -->
<g id="edge3" class="edge">
<title>Node3&#45;&gt;Node4</title>
<path fill="none" stroke="midnightblue" d="M670.52,-51C680.71,-51 690.94,-51 700.72,-51"/>
<polygon fill="midnightblue" stroke="midnightblue" points="700.74,-54.5 710.74,-51 700.74,-47.5 700.74,-54.5"/>
</g>
<!-- Node5 -->
<g id="node5" class="node">
<title>Node5</title>
<g id="a_node5"><a xlink:href="class_board_manager.html#ae3af0b08bdfbc0ebcda23950eb935a5d" target="_top" xlink:title="Return array of all neighbours of given tile">
<polygon fill="white" stroke="black" points="861,-60.5 861,-81.5 1057,-81.5 1057,-60.5 861,-60.5"/>
<text text-anchor="middle" x="959" y="-67.9" font-family="Helvetica,sans-Serif" font-size="12.00">BoardManager.GetTileNeighbours</text>
</a>
</g>
</g>
<!-- Node4&#45;&gt;Node5 -->
<g id="edge4" class="edge">
<title>Node4&#45;&gt;Node5</title>
<path fill="none" stroke="midnightblue" d="M825.19,-56.95C833.42,-57.82 842.1,-58.74 850.94,-59.67"/>
<polygon fill="midnightblue" stroke="midnightblue" points="850.65,-63.16 860.97,-60.73 851.39,-56.2 850.65,-63.16"/>
</g>
<!-- Node7 -->
<g id="node7" class="node">
<title>Node7</title>
<g id="a_node7"><a xlink:href="class_board_tile_script.html#aeee5122d5e5b79867f6538ec4d597b6a" target="_top" xlink:title="check if tile is empty">
<polygon fill="white" stroke="black" points="887.5,-20.5 887.5,-41.5 1030.5,-41.5 1030.5,-20.5 887.5,-20.5"/>
<text text-anchor="middle" x="959" y="-27.9" font-family="Helvetica,sans-Serif" font-size="12.00">BoardTileScript.IsEmpty</text>
</a>
</g>
</g>
<!-- Node4&#45;&gt;Node7 -->
<g id="edge6" class="edge">
<title>Node4&#45;&gt;Node7</title>
<path fill="none" stroke="midnightblue" d="M825.19,-45.05C841.48,-43.33 859.58,-41.41 877.06,-39.56"/>
<polygon fill="midnightblue" stroke="midnightblue" points="877.68,-43.02 887.26,-38.49 876.95,-36.06 877.68,-43.02"/>
</g>
<!-- Node6 -->
<g id="node6" class="node">
<title>Node6</title>
<g id="a_node6"><a xlink:href="class_board_manager.html#a6b2b89b5ce622bf45676e6993f8ec216" target="_top" xlink:title="Get a tile from the array using a grid reference.">
<polygon fill="white" stroke="black" points="1093,-60.5 1093,-81.5 1279,-81.5 1279,-60.5 1093,-60.5"/>
<text text-anchor="middle" x="1186" y="-67.9" font-family="Helvetica,sans-Serif" font-size="12.00">BoardManager.GetTileFromGrid</text>
</a>
</g>
</g>
<!-- Node5&#45;&gt;Node6 -->
<g id="edge5" class="edge">
<title>Node5&#45;&gt;Node6</title>
<path fill="none" stroke="midnightblue" d="M1057.05,-71C1065.6,-71 1074.27,-71 1082.86,-71"/>
<polygon fill="midnightblue" stroke="midnightblue" points="1082.89,-74.5 1092.89,-71 1082.89,-67.5 1082.89,-74.5"/>
</g>
<!-- Node9&#45;&gt;Node3 -->
<g id="edge9" class="edge">
<title>Node9&#45;&gt;Node3</title>
<path fill="none" stroke="midnightblue" d="M394.53,-21.51C427.51,-26.84 467.73,-33.34 502.01,-38.88"/>
<polygon fill="midnightblue" stroke="midnightblue" points="501.55,-42.35 511.98,-40.49 502.66,-35.44 501.55,-42.35"/>
</g>
<!-- Node9&#45;&gt;Node8 -->
<g id="edge10" class="edge">
<title>Node9&#45;&gt;Node8</title>
<path fill="none" stroke="midnightblue" d="M445.28,-11C453.78,-11 462.32,-11 470.76,-11"/>
<polygon fill="midnightblue" stroke="midnightblue" points="470.98,-14.5 480.98,-11 470.98,-7.5 470.98,-14.5"/>
</g>
</g>
</svg>
        <g id="navigator" transform="translate(0 0)" fill="#404254">
                <rect fill="#f2f5e9" fill-opacity="0.5" stroke="#606060" stroke-width=".5" x="0" y="0" width="60" height="60"/>
                <use id="zoomplus" xlink:href="#zoomPlus" x="17" y="9" onmousedown="handleZoom(evt,'in')"/>
                <use id="zoomminus" xlink:href="#zoomMin" x="42" y="9" onmousedown="handleZoom(evt,'out')"/>
                <use id="reset" xlink:href="#resetDef" x="30" y="36" onmousedown="handleReset()"/>
                <g id="arrowUp" xlink:href="#dirArrow" transform="translate(30 24)" onmousedown="handlePan(0,-1)">
                  <use xlink:href="#rim" fill="#404040">
                        <set attributeName="fill" to="#808080" begin="arrowUp.mouseover" end="arrowUp.mouseout"/>
                  </use>
                  <path fill="none" stroke="white" stroke-width="1.5" d="M0,-3.0v7 M-2.5,-0.5L0,-3.0L2.5,-0.5"/>
                </g>
                <g id="arrowRight" xlink:href="#dirArrow" transform="rotate(90) translate(36 -43)" onmousedown="handlePan(1,0)">
                  <use xlink:href="#rim" fill="#404040">
                        <set attributeName="fill" to="#808080" begin="arrowRight.mouseover" end="arrowRight.mouseout"/>
                  </use>
                  <path fill="none" stroke="white" stroke-width="1.5" d="M0,-3.0v7 M-2.5,-0.5L0,-3.0L2.5,-0.5"/>
                </g>
                <g id="arrowDown" xlink:href="#dirArrow" transform="rotate(180) translate(-30 -48)" onmousedown="handlePan(0,1)">
                  <use xlink:href="#rim" fill="#404040">
                        <set attributeName="fill" to="#808080" begin="arrowDown.mouseover" end="arrowDown.mouseout"/>
                  </use>
                  <path fill="none" stroke="white" stroke-width="1.5" d="M0,-3.0v7 M-2.5,-0.5L0,-3.0L2.5,-0.5"/>
                </g>
                <g id="arrowLeft" xlink:href="#dirArrow" transform="rotate(270) translate(-36 17)" onmousedown="handlePan(-1,0)">
                  <use xlink:href="#rim" fill="#404040">
                        <set attributeName="fill" to="#808080" begin="arrowLeft.mouseover" end="arrowLeft.mouseout"/>
                  </use>
                  <path fill="none" stroke="white" stroke-width="1.5" d="M0,-3.0v7 M-2.5,-0.5L0,-3.0L2.5,-0.5"/>
                </g>
        </g>
        <svg viewBox="0 0 15 15" width="100%" height="30px" preserveAspectRatio="xMaxYMin meet">
         <g id="arrow_out" transform="scale(0.3 0.3)">
          <a xlink:href="class_board_builder_a7a499abdc0c02d659ea6fee6e7836f15_cgraph_org.svg" target="_base">
           <rect id="button" ry="5" rx="5" y="6" x="6" height="38" width="38"
                fill="#f2f5e9" fill-opacity="0.5" stroke="#606060" stroke-width="1.0"/>
           <path id="arrow"
             d="M 11.500037,31.436501 C 11.940474,20.09759 22.043105,11.32322 32.158766,21.979434 L 37.068811,17.246167 C 37.068811,17.246167 37.088388,32 37.088388,32 L 22.160133,31.978069 C 22.160133,31.978069 26.997745,27.140456 26.997745,27.140456 C 18.528582,18.264221 13.291696,25.230495 11.500037,31.436501 z"
             style="fill:#404040;"/>
          </a>
         </g>
        </svg>
</svg>
