<?xml version="1.0" encoding="UTF-8" standalone="no"?>
<!DOCTYPE svg PUBLIC "-//W3C//DTD SVG 1.1//EN"
 "http://www.w3.org/Graphics/SVG/1.1/DTD/svg11.dtd">
<!-- Generated by graphviz version 2.47.1 (20210417.1919)
 -->
<!-- Title: Dice.RollDice Pages: 1 -->
<svg width="334pt" height="30pt"
 viewBox="0.00 0.00 334.00 30.00" xmlns="http://www.w3.org/2000/svg" xmlns:xlink="http://www.w3.org/1999/xlink">
<g id="graph0" class="graph" transform="scale(1 1) rotate(0) translate(4 26)">
<title>Dice.RollDice</title>
<polygon fill="white" stroke="transparent" points="-4,4 -4,-26 330,-26 330,4 -4,4"/>
<!-- Node1 -->
<g id="node1" class="node">
<title>Node1</title>
<g id="a_node1"><a xlink:title="Roll the Dice">
<polygon fill="#bfbfbf" stroke="black" points="0,-0.5 0,-21.5 89,-21.5 89,-0.5 0,-0.5"/>
<text text-anchor="middle" x="44.5" y="-7.9" font-family="Helvetica,sans-Serif" font-size="12.00">Dice.RollDice</text>
</a>
</g>
</g>
<!-- Node2 -->
<g id="node2" class="node">
<title>Node2</title>
<g id="a_node2"><a xlink:href="class_die.html#a4995ecb1a88aa7f1043ae71ba8aa3ef5" target="_top" xlink:title="Roll the die">
<polygon fill="white" stroke="black" points="125,-0.5 125,-21.5 202,-21.5 202,-0.5 125,-0.5"/>
<text text-anchor="middle" x="163.5" y="-7.9" font-family="Helvetica,sans-Serif" font-size="12.00">Die.RollDie</text>
</a>
</g>
</g>
<!-- Node1&#45;&gt;Node2 -->
<g id="edge1" class="edge">
<title>Node1&#45;&gt;Node2</title>
<path fill="none" stroke="midnightblue" d="M89.07,-11C97.38,-11 106.13,-11 114.57,-11"/>
<polygon fill="midnightblue" stroke="midnightblue" points="114.66,-14.5 124.66,-11 114.66,-7.5 114.66,-14.5"/>
</g>
<!-- Node3 -->
<g id="node3" class="node">
<title>Node3</title>
<g id="a_node3"><a xlink:href="class_die.html#abc11c3d2bf0c0fba1555093eb5a8469e" target="_top" xlink:title="Reset Die to original position">
<polygon fill="white" stroke="black" points="238,-0.5 238,-21.5 326,-21.5 326,-0.5 238,-0.5"/>
<text text-anchor="middle" x="282" y="-7.9" font-family="Helvetica,sans-Serif" font-size="12.00">Die.ResetDie</text>
</a>
</g>
</g>
<!-- Node2&#45;&gt;Node3 -->
<g id="edge2" class="edge">
<title>Node2&#45;&gt;Node3</title>
<path fill="none" stroke="midnightblue" d="M202,-11C210.23,-11 219.08,-11 227.79,-11"/>
<polygon fill="midnightblue" stroke="midnightblue" points="227.89,-14.5 237.89,-11 227.89,-7.5 227.89,-14.5"/>
</g>
</g>
</svg>
