<?xml version="1.0" encoding="UTF-8" standalone="no"?>
<!DOCTYPE svg PUBLIC "-//W3C//DTD SVG 1.1//EN"
 "http://www.w3.org/Graphics/SVG/1.1/DTD/svg11.dtd">
<!-- Generated by graphviz version 2.47.1 (20210417.1919)
 -->
<!-- Title: TurnController.SetCurrentPlayerToNext Pages: 1 -->
<svg width="1195pt" height="70pt"
 viewBox="0.00 0.00 1195.00 70.00" xmlns="http://www.w3.org/2000/svg" xmlns:xlink="http://www.w3.org/1999/xlink">
<g id="graph0" class="graph" transform="scale(1 1) rotate(0) translate(4 66)">
<title>TurnController.SetCurrentPlayerToNext</title>
<polygon fill="white" stroke="transparent" points="-4,4 -4,-66 1191,-66 1191,4 -4,4"/>
<!-- Node1 -->
<g id="node1" class="node">
<title>Node1</title>
<g id="a_node1"><a xlink:title=" ">
<polygon fill="#bfbfbf" stroke="black" points="969,-20.5 969,-41.5 1187,-41.5 1187,-20.5 969,-20.5"/>
<text text-anchor="middle" x="1078" y="-27.9" font-family="Helvetica,sans-Serif" font-size="12.00">TurnController.SetCurrentPlayerToNext</text>
</a>
</g>
</g>
<!-- Node2 -->
<g id="node2" class="node">
<title>Node2</title>
<g id="a_node2"><a xlink:href="class_round_manager.html#a29177f2e27c6c4af55dfa3c48d67cfb0" target="_top" xlink:title="Ending the turn. Returns the next player">
<polygon fill="white" stroke="black" points="790,-20.5 790,-41.5 933,-41.5 933,-20.5 790,-20.5"/>
<text text-anchor="middle" x="861.5" y="-27.9" font-family="Helvetica,sans-Serif" font-size="12.00">RoundManager.EndTurn</text>
</a>
</g>
</g>
<!-- Node1&#45;&gt;Node2 -->
<g id="edge1" class="edge">
<title>Node1&#45;&gt;Node2</title>
<path fill="none" stroke="midnightblue" d="M958.63,-31C949.99,-31 941.45,-31 933.23,-31"/>
<polygon fill="midnightblue" stroke="midnightblue" points="958.81,-34.5 968.81,-31 958.81,-27.5 958.81,-34.5"/>
</g>
<!-- Node3 -->
<g id="node3" class="node">
<title>Node3</title>
<g id="a_node3"><a xlink:href="class_user_controller.html#ab90611f541e20c125133d09b62407f41" target="_top" xlink:title="Ends turn">
<polygon fill="white" stroke="black" points="616,-20.5 616,-41.5 754,-41.5 754,-20.5 616,-20.5"/>
<text text-anchor="middle" x="685" y="-27.9" font-family="Helvetica,sans-Serif" font-size="12.00">UserController.EndTurn</text>
</a>
</g>
</g>
<!-- Node2&#45;&gt;Node3 -->
<g id="edge2" class="edge">
<title>Node2&#45;&gt;Node3</title>
<path fill="none" stroke="midnightblue" d="M779.53,-31C771.09,-31 762.57,-31 754.28,-31"/>
<polygon fill="midnightblue" stroke="midnightblue" points="779.78,-34.5 789.78,-31 779.78,-27.5 779.78,-34.5"/>
</g>
<!-- Node4 -->
<g id="node4" class="node">
<title>Node4</title>
<g id="a_node4"><a xlink:href="class_a_i_controller_script.html#a9c386cf1258ad897c9a1068804f07ba0" target="_top" xlink:title="have AI to end turn">
<polygon fill="white" stroke="black" points="425,-40.5 425,-61.5 580,-61.5 580,-40.5 425,-40.5"/>
<text text-anchor="middle" x="502.5" y="-47.9" font-family="Helvetica,sans-Serif" font-size="12.00">AIControllerScript.EndTurn</text>
</a>
</g>
</g>
<!-- Node3&#45;&gt;Node4 -->
<g id="edge3" class="edge">
<title>Node3&#45;&gt;Node4</title>
<path fill="none" stroke="midnightblue" d="M605.61,-39.69C597.21,-40.62 588.68,-41.56 580.3,-42.49"/>
<polygon fill="midnightblue" stroke="midnightblue" points="606.21,-43.14 615.76,-38.56 605.44,-36.18 606.21,-43.14"/>
</g>
<!-- Node7 -->
<g id="node7" class="node">
<title>Node7</title>
<g id="a_node7"><a xlink:href="class_u_i_handler.html#acc06a1dab8566d9e14f7ab3ae1ffea93" target="_top" xlink:title="Ends current player&#39;s turn">
<polygon fill="white" stroke="black" points="445.5,-0.5 445.5,-21.5 559.5,-21.5 559.5,-0.5 445.5,-0.5"/>
<text text-anchor="middle" x="502.5" y="-7.9" font-family="Helvetica,sans-Serif" font-size="12.00">UIHandler.EndTurn</text>
</a>
</g>
</g>
<!-- Node3&#45;&gt;Node7 -->
<g id="edge6" class="edge">
<title>Node3&#45;&gt;Node7</title>
<path fill="none" stroke="midnightblue" d="M605.7,-22.32C590.25,-20.61 574.33,-18.85 559.78,-17.24"/>
<polygon fill="midnightblue" stroke="midnightblue" points="605.44,-25.82 615.76,-23.44 606.21,-18.86 605.44,-25.82"/>
</g>
<!-- Node5 -->
<g id="node5" class="node">
<title>Node5</title>
<g id="a_node5"><a xlink:href="class_a_i_controller_script.html#ac31d9b8dbb75696b181eff1fbef41b97" target="_top" xlink:title="dictates what the AI will do depending on what mode it is in">
<polygon fill="white" stroke="black" points="215,-40.5 215,-61.5 389,-61.5 389,-40.5 215,-40.5"/>
<text text-anchor="middle" x="302" y="-47.9" font-family="Helvetica,sans-Serif" font-size="12.00">AIControllerScript.AIBehaviour</text>
</a>
</g>
</g>
<!-- Node4&#45;&gt;Node5 -->
<g id="edge4" class="edge">
<title>Node4&#45;&gt;Node5</title>
<path fill="none" stroke="midnightblue" d="M414.54,-51C406.1,-51 397.54,-51 389.11,-51"/>
<polygon fill="midnightblue" stroke="midnightblue" points="414.75,-54.5 424.75,-51 414.75,-47.5 414.75,-54.5"/>
</g>
<!-- Node6 -->
<g id="node6" class="node">
<title>Node6</title>
<g id="a_node6"><a xlink:href="class_a_i_controller_script.html#a74dc0e720fafceb873d3b19c12f68d58" target="_top" xlink:title=" ">
<polygon fill="white" stroke="black" points="0,-40.5 0,-61.5 179,-61.5 179,-40.5 0,-40.5"/>
<text text-anchor="middle" x="89.5" y="-47.9" font-family="Helvetica,sans-Serif" font-size="12.00">AIControllerScript.FixedUpdate</text>
</a>
</g>
</g>
<!-- Node5&#45;&gt;Node6 -->
<g id="edge5" class="edge">
<title>Node5&#45;&gt;Node6</title>
<path fill="none" stroke="midnightblue" d="M204.57,-51C196.15,-51 187.67,-51 179.32,-51"/>
<polygon fill="midnightblue" stroke="midnightblue" points="204.77,-54.5 214.77,-51 204.77,-47.5 204.77,-54.5"/>
</g>
</g>
</svg>
