<?xml version="1.0" encoding="UTF-8" standalone="no"?>
<!DOCTYPE svg PUBLIC "-//W3C//DTD SVG 1.1//EN"
 "http://www.w3.org/Graphics/SVG/1.1/DTD/svg11.dtd">
<!-- Generated by graphviz version 2.47.1 (20210417.1919)
 -->
<!-- Title: NotebookButton.setCrossedOut Pages: 1 -->
<svg width="844pt" height="110pt"
 viewBox="0.00 0.00 844.00 110.00" xmlns="http://www.w3.org/2000/svg" xmlns:xlink="http://www.w3.org/1999/xlink">
<g id="graph0" class="graph" transform="scale(1 1) rotate(0) translate(4 106)">
<title>NotebookButton.setCrossedOut</title>
<polygon fill="white" stroke="transparent" points="-4,4 -4,-106 840,-106 840,4 -4,4"/>
<!-- Node1 -->
<g id="node1" class="node">
<title>Node1</title>
<g id="a_node1"><a xlink:title="Set button graphic to crossed through">
<polygon fill="#bfbfbf" stroke="black" points="654,-40.5 654,-61.5 836,-61.5 836,-40.5 654,-40.5"/>
<text text-anchor="middle" x="745" y="-47.9" font-family="Helvetica,sans-Serif" font-size="12.00">NotebookButton.setCrossedOut</text>
</a>
</g>
</g>
<!-- Node2 -->
<g id="node2" class="node">
<title>Node2</title>
<g id="a_node2"><a xlink:href="class_notebook_script.html#a4d3a7148faf9db0faae9b942f01e84b6" target="_top" xlink:title="Refresh all character button status.">
<polygon fill="white" stroke="black" points="418,-80.5 418,-101.5 618,-101.5 618,-80.5 418,-80.5"/>
<text text-anchor="middle" x="518" y="-87.9" font-family="Helvetica,sans-Serif" font-size="12.00">NotebookScript.RefreshCharacters</text>
</a>
</g>
</g>
<!-- Node1&#45;&gt;Node2 -->
<g id="edge1" class="edge">
<title>Node1&#45;&gt;Node2</title>
<path fill="none" stroke="midnightblue" d="M675.02,-63.26C644.03,-68.77 607.84,-75.21 578.11,-80.49"/>
<polygon fill="midnightblue" stroke="midnightblue" points="675.65,-66.71 684.88,-61.51 674.43,-59.81 675.65,-66.71"/>
</g>
<!-- Node5 -->
<g id="node5" class="node">
<title>Node5</title>
<g id="a_node5"><a xlink:href="class_notebook_script.html#a1ad8770915bffe616f448f1b3cff339f" target="_top" xlink:title="Refresh all room button status.">
<polygon fill="white" stroke="black" points="428.5,-40.5 428.5,-61.5 607.5,-61.5 607.5,-40.5 428.5,-40.5"/>
<text text-anchor="middle" x="518" y="-47.9" font-family="Helvetica,sans-Serif" font-size="12.00">NotebookScript.RefreshRooms</text>
</a>
</g>
</g>
<!-- Node1&#45;&gt;Node5 -->
<g id="edge4" class="edge">
<title>Node1&#45;&gt;Node5</title>
<path fill="none" stroke="midnightblue" d="M643.76,-51C631.77,-51 619.59,-51 607.77,-51"/>
<polygon fill="midnightblue" stroke="midnightblue" points="643.78,-54.5 653.78,-51 643.78,-47.5 643.78,-54.5"/>
</g>
<!-- Node6 -->
<g id="node6" class="node">
<title>Node6</title>
<g id="a_node6"><a xlink:href="class_notebook_script.html#a4d45da2c213d4711991232101154510e" target="_top" xlink:title="Refresh all weapon button status.">
<polygon fill="white" stroke="black" points="422,-0.5 422,-21.5 614,-21.5 614,-0.5 422,-0.5"/>
<text text-anchor="middle" x="518" y="-7.9" font-family="Helvetica,sans-Serif" font-size="12.00">NotebookScript.RefreshWeapons</text>
</a>
</g>
</g>
<!-- Node1&#45;&gt;Node6 -->
<g id="edge6" class="edge">
<title>Node1&#45;&gt;Node6</title>
<path fill="none" stroke="midnightblue" d="M675.02,-38.74C644.03,-33.23 607.84,-26.79 578.11,-21.51"/>
<polygon fill="midnightblue" stroke="midnightblue" points="674.43,-42.19 684.88,-40.49 675.65,-35.29 674.43,-42.19"/>
</g>
<!-- Node3 -->
<g id="node3" class="node">
<title>Node3</title>
<g id="a_node3"><a xlink:href="class_notebook_script.html#a3c031d903921e95ac42253bb09f5beec" target="_top" xlink:title="Refresh the notebook UI Object">
<polygon fill="white" stroke="black" points="189,-40.5 189,-61.5 382,-61.5 382,-40.5 189,-40.5"/>
<text text-anchor="middle" x="285.5" y="-47.9" font-family="Helvetica,sans-Serif" font-size="12.00">NotebookScript.RefreshNotebook</text>
</a>
</g>
</g>
<!-- Node2&#45;&gt;Node3 -->
<g id="edge2" class="edge">
<title>Node2&#45;&gt;Node3</title>
<path fill="none" stroke="midnightblue" d="M446.33,-78.74C414.59,-73.23 377.51,-66.79 347.06,-61.51"/>
<polygon fill="midnightblue" stroke="midnightblue" points="445.99,-82.23 456.44,-80.49 447.18,-75.33 445.99,-82.23"/>
</g>
<!-- Node4 -->
<g id="node4" class="node">
<title>Node4</title>
<g id="a_node4"><a xlink:href="class_notebook_script.html#a68c629fcde9476555ad02cc1e884d85f" target="_top" xlink:title="Refresh notebook on enabling">
<polygon fill="white" stroke="black" points="0,-40.5 0,-61.5 153,-61.5 153,-40.5 0,-40.5"/>
<text text-anchor="middle" x="76.5" y="-47.9" font-family="Helvetica,sans-Serif" font-size="12.00">NotebookScript.OnEnable</text>
</a>
</g>
</g>
<!-- Node3&#45;&gt;Node4 -->
<g id="edge3" class="edge">
<title>Node3&#45;&gt;Node4</title>
<path fill="none" stroke="midnightblue" d="M178.76,-51C170.13,-51 161.53,-51 153.19,-51"/>
<polygon fill="midnightblue" stroke="midnightblue" points="178.88,-54.5 188.88,-51 178.88,-47.5 178.88,-54.5"/>
</g>
<!-- Node5&#45;&gt;Node3 -->
<g id="edge5" class="edge">
<title>Node5&#45;&gt;Node3</title>
<path fill="none" stroke="midnightblue" d="M417.87,-51C406.02,-51 393.93,-51 382.13,-51"/>
<polygon fill="midnightblue" stroke="midnightblue" points="418.21,-54.5 428.21,-51 418.21,-47.5 418.21,-54.5"/>
</g>
<!-- Node6&#45;&gt;Node3 -->
<g id="edge7" class="edge">
<title>Node6&#45;&gt;Node3</title>
<path fill="none" stroke="midnightblue" d="M446.33,-23.26C414.59,-28.77 377.51,-35.21 347.06,-40.49"/>
<polygon fill="midnightblue" stroke="midnightblue" points="447.18,-26.67 456.44,-21.51 445.99,-19.77 447.18,-26.67"/>
</g>
</g>
</svg>
