<?xml version="1.0" encoding="UTF-8" standalone="no"?>
<!DOCTYPE svg PUBLIC "-//W3C//DTD SVG 1.1//EN"
 "http://www.w3.org/Graphics/SVG/1.1/DTD/svg11.dtd">
<!-- Generated by graphviz version 2.47.1 (20210417.1919)
 -->
<!-- Title: AIControllerScript.SetAIMode Pages: 1 -->
<svg width="618pt" height="50pt"
 viewBox="0.00 0.00 618.00 50.00" xmlns="http://www.w3.org/2000/svg" xmlns:xlink="http://www.w3.org/1999/xlink">
<g id="graph0" class="graph" transform="scale(1 1) rotate(0) translate(4 46)">
<title>AIControllerScript.SetAIMode</title>
<polygon fill="white" stroke="transparent" points="-4,4 -4,-46 614,-46 614,4 -4,4"/>
<!-- Node1 -->
<g id="node1" class="node">
<title>Node1</title>
<g id="a_node1"><a xlink:title="to set the AI&#39;s mode">
<polygon fill="#bfbfbf" stroke="black" points="0,-0.5 0,-21.5 170,-21.5 170,-0.5 0,-0.5"/>
<text text-anchor="middle" x="85" y="-7.9" font-family="Helvetica,sans-Serif" font-size="12.00">AIControllerScript.SetAIMode</text>
</a>
</g>
</g>
<!-- Node2 -->
<g id="node2" class="node">
<title>Node2</title>
<g id="a_node2"><a xlink:href="class_a_i_controller_script.html#afcb2875a5501f07a7f44d0fa720266f3" target="_top" xlink:title="to delay the time for the next time the AI does something in the Update">
<polygon fill="white" stroke="black" points="206,-20.5 206,-41.5 394,-41.5 394,-20.5 206,-20.5"/>
<text text-anchor="middle" x="300" y="-27.9" font-family="Helvetica,sans-Serif" font-size="12.00">AIControllerScript.DelayDecision</text>
</a>
</g>
</g>
<!-- Node1&#45;&gt;Node2 -->
<g id="edge1" class="edge">
<title>Node1&#45;&gt;Node2</title>
<path fill="none" stroke="midnightblue" d="M170.18,-18.9C178.62,-19.7 187.26,-20.51 195.87,-21.32"/>
<polygon fill="midnightblue" stroke="midnightblue" points="195.66,-24.81 205.95,-22.26 196.32,-17.84 195.66,-24.81"/>
</g>
<!-- Node3 -->
<g id="node3" class="node">
<title>Node3</title>
<g id="a_node3"><a xlink:href="class_a_i_controller_script.html#ab124aec8211aa7b8f00c6ef5db6bc96a" target="_top" xlink:title="for out putting the debug stack if outputDebugText is true, it will out put the the console as well">
<polygon fill="white" stroke="black" points="430,-0.5 430,-21.5 610,-21.5 610,-0.5 430,-0.5"/>
<text text-anchor="middle" x="520" y="-7.9" font-family="Helvetica,sans-Serif" font-size="12.00">AIControllerScript.OutputDebug</text>
</a>
</g>
</g>
<!-- Node1&#45;&gt;Node3 -->
<g id="edge3" class="edge">
<title>Node1&#45;&gt;Node3</title>
<path fill="none" stroke="midnightblue" d="M170,-11C241.43,-11 344.14,-11 419.64,-11"/>
<polygon fill="midnightblue" stroke="midnightblue" points="419.64,-14.5 429.64,-11 419.64,-7.5 419.64,-14.5"/>
</g>
<!-- Node2&#45;&gt;Node3 -->
<g id="edge2" class="edge">
<title>Node2&#45;&gt;Node3</title>
<path fill="none" stroke="midnightblue" d="M394.08,-22.46C402.57,-21.68 411.18,-20.89 419.72,-20.11"/>
<polygon fill="midnightblue" stroke="midnightblue" points="420.05,-23.59 429.69,-19.19 419.41,-16.62 420.05,-23.59"/>
</g>
</g>
</svg>
