<?xml version="1.0" encoding="UTF-8" standalone="no"?>
<!DOCTYPE svg PUBLIC "-//W3C//DTD SVG 1.1//EN"
 "http://www.w3.org/Graphics/SVG/1.1/DTD/svg11.dtd">
<!-- Generated by graphviz version 2.47.1 (20210417.1919)
 -->
<!-- Title: PlayerTokenScript.SetCharacter Pages: 1 -->
<svg width="708pt" height="30pt"
 viewBox="0.00 0.00 708.00 30.00" xmlns="http://www.w3.org/2000/svg" xmlns:xlink="http://www.w3.org/1999/xlink">
<g id="graph0" class="graph" transform="scale(1 1) rotate(0) translate(4 26)">
<title>PlayerTokenScript.SetCharacter</title>
<polygon fill="white" stroke="transparent" points="-4,4 -4,-26 704,-26 704,4 -4,4"/>
<!-- Node1 -->
<g id="node1" class="node">
<title>Node1</title>
<g id="a_node1"><a xlink:title="Setting the character this token will be">
<polygon fill="#bfbfbf" stroke="black" points="0,-0.5 0,-21.5 185,-21.5 185,-0.5 0,-0.5"/>
<text text-anchor="middle" x="92.5" y="-7.9" font-family="Helvetica,sans-Serif" font-size="12.00">PlayerTokenScript.SetCharacter</text>
</a>
</g>
</g>
<!-- Node2 -->
<g id="node2" class="node">
<title>Node2</title>
<g id="a_node2"><a xlink:href="class_player_token_script.html#ad83b16b76e1b0aefbcfe938b64fb1b7f" target="_top" xlink:title="assigns token to the correct player">
<polygon fill="white" stroke="black" points="221,-0.5 221,-21.5 455,-21.5 455,-0.5 221,-0.5"/>
<text text-anchor="middle" x="338" y="-7.9" font-family="Helvetica,sans-Serif" font-size="12.00">PlayerTokenScript.AssignToPlayerMaster</text>
</a>
</g>
</g>
<!-- Node1&#45;&gt;Node2 -->
<g id="edge1" class="edge">
<title>Node1&#45;&gt;Node2</title>
<path fill="none" stroke="midnightblue" d="M185.21,-11C193.54,-11 202.08,-11 210.64,-11"/>
<polygon fill="midnightblue" stroke="midnightblue" points="210.7,-14.5 220.7,-11 210.7,-7.5 210.7,-14.5"/>
</g>
<!-- Node3 -->
<g id="node3" class="node">
<title>Node3</title>
<g id="a_node3"><a xlink:href="class_player_master_controller.html#a12c91851433777ae557a71d9f9a855f0" target="_top" xlink:title=" ">
<polygon fill="white" stroke="black" points="491,-0.5 491,-21.5 700,-21.5 700,-0.5 491,-0.5"/>
<text text-anchor="middle" x="595.5" y="-7.9" font-family="Helvetica,sans-Serif" font-size="12.00">PlayerMasterController.GetCharacter</text>
</a>
</g>
</g>
<!-- Node2&#45;&gt;Node3 -->
<g id="edge2" class="edge">
<title>Node2&#45;&gt;Node3</title>
<path fill="none" stroke="midnightblue" d="M455.16,-11C463.6,-11 472.1,-11 480.52,-11"/>
<polygon fill="midnightblue" stroke="midnightblue" points="480.74,-14.5 490.74,-11 480.74,-7.5 480.74,-14.5"/>
</g>
</g>
</svg>
