<?xml version="1.0" encoding="UTF-8" standalone="no"?>
<!DOCTYPE svg PUBLIC "-//W3C//DTD SVG 1.1//EN"
 "http://www.w3.org/Graphics/SVG/1.1/DTD/svg11.dtd">
<!-- Generated by graphviz version 2.47.1 (20210417.1919)
 -->
<!-- Title: RoomEntryBoardTileScript.ExitRoomDelay Pages: 1 -->
<svg width="511pt" height="110pt"
 viewBox="0.00 0.00 511.00 110.00" xmlns="http://www.w3.org/2000/svg" xmlns:xlink="http://www.w3.org/1999/xlink">
<g id="graph0" class="graph" transform="scale(1 1) rotate(0) translate(4 106)">
<title>RoomEntryBoardTileScript.ExitRoomDelay</title>
<polygon fill="white" stroke="transparent" points="-4,4 -4,-106 507,-106 507,4 -4,4"/>
<!-- Node1 -->
<g id="node1" class="node">
<title>Node1</title>
<g id="a_node1"><a xlink:title="Move player to exit point, open door, exit player, close door, set player moving to target tile.">
<polygon fill="#bfbfbf" stroke="black" points="0,-40.5 0,-61.5 240,-61.5 240,-40.5 0,-40.5"/>
<text text-anchor="middle" x="120" y="-47.9" font-family="Helvetica,sans-Serif" font-size="12.00">RoomEntryBoardTileScript.ExitRoomDelay</text>
</a>
</g>
</g>
<!-- Node2 -->
<g id="node2" class="node">
<title>Node2</title>
<g id="a_node2"><a xlink:href="class_door_script.html#adcc7e56a969266eee3abbbc6cca692da" target="_top" xlink:title="Close the door">
<polygon fill="white" stroke="black" points="322.5,-80.5 322.5,-101.5 456.5,-101.5 456.5,-80.5 322.5,-80.5"/>
<text text-anchor="middle" x="389.5" y="-87.9" font-family="Helvetica,sans-Serif" font-size="12.00">DoorScript.CloseDoor</text>
</a>
</g>
</g>
<!-- Node1&#45;&gt;Node2 -->
<g id="edge1" class="edge">
<title>Node1&#45;&gt;Node2</title>
<path fill="none" stroke="midnightblue" d="M191.28,-61.51C228.51,-67.08 274.28,-73.92 312.36,-79.61"/>
<polygon fill="midnightblue" stroke="midnightblue" points="311.96,-83.09 322.37,-81.11 312.99,-76.17 311.96,-83.09"/>
</g>
<!-- Node3 -->
<g id="node3" class="node">
<title>Node3</title>
<g id="a_node3"><a xlink:href="class_door_script.html#a2d8c537d4f48ea0e2b4c09eb9ef58d87" target="_top" xlink:title="Open the door">
<polygon fill="white" stroke="black" points="324,-40.5 324,-61.5 455,-61.5 455,-40.5 324,-40.5"/>
<text text-anchor="middle" x="389.5" y="-47.9" font-family="Helvetica,sans-Serif" font-size="12.00">DoorScript.OpenDoor</text>
</a>
</g>
</g>
<!-- Node1&#45;&gt;Node3 -->
<g id="edge2" class="edge">
<title>Node1&#45;&gt;Node3</title>
<path fill="none" stroke="midnightblue" d="M240.28,-51C265.17,-51 290.73,-51 313.47,-51"/>
<polygon fill="midnightblue" stroke="midnightblue" points="313.71,-54.5 323.71,-51 313.71,-47.5 313.71,-54.5"/>
</g>
<!-- Node4 -->
<g id="node4" class="node">
<title>Node4</title>
<g id="a_node4"><a xlink:href="class_player_master_controller.html#a31af976c4da1ec6cab348dce10be98f7" target="_top" xlink:title=" ">
<polygon fill="white" stroke="black" points="276,-0.5 276,-21.5 503,-21.5 503,-0.5 276,-0.5"/>
<text text-anchor="middle" x="389.5" y="-7.9" font-family="Helvetica,sans-Serif" font-size="12.00">PlayerMasterController.SetCurrentRoom</text>
</a>
</g>
</g>
<!-- Node1&#45;&gt;Node4 -->
<g id="edge3" class="edge">
<title>Node1&#45;&gt;Node4</title>
<path fill="none" stroke="midnightblue" d="M191.28,-40.49C227.08,-35.14 270.77,-28.6 307.93,-23.05"/>
<polygon fill="midnightblue" stroke="midnightblue" points="308.85,-26.45 318.22,-21.51 307.82,-19.53 308.85,-26.45"/>
</g>
</g>
</svg>
