<?xml version="1.0" encoding="UTF-8" standalone="no"?>
<!DOCTYPE svg PUBLIC "-//W3C//DTD SVG 1.1//EN"
 "http://www.w3.org/Graphics/SVG/1.1/DTD/svg11.dtd">
<!-- Generated by graphviz version 2.47.1 (20210417.1919)
 -->
<!-- Title: NotebookScript.Awake Pages: 1 -->
<svg width="1092pt" height="110pt"
 viewBox="0.00 0.00 1092.00 110.00" xmlns="http://www.w3.org/2000/svg" xmlns:xlink="http://www.w3.org/1999/xlink">
<g id="graph0" class="graph" transform="scale(1 1) rotate(0) translate(4 106)">
<title>NotebookScript.Awake</title>
<polygon fill="white" stroke="transparent" points="-4,4 -4,-106 1088,-106 1088,4 -4,4"/>
<!-- Node1 -->
<g id="node1" class="node">
<title>Node1</title>
<g id="a_node1"><a xlink:title="Initialize notebook on awake">
<polygon fill="#bfbfbf" stroke="black" points="0,-40.5 0,-61.5 137,-61.5 137,-40.5 0,-40.5"/>
<text text-anchor="middle" x="68.5" y="-47.9" font-family="Helvetica,sans-Serif" font-size="12.00">NotebookScript.Awake</text>
</a>
</g>
</g>
<!-- Node2 -->
<g id="node2" class="node">
<title>Node2</title>
<g id="a_node2"><a xlink:href="class_notebook_script.html#a829e34fac5e19bf031c070b44f0fe370" target="_top" xlink:title="Initialize notebook UI">
<polygon fill="white" stroke="black" points="173,-40.5 173,-61.5 367,-61.5 367,-40.5 173,-40.5"/>
<text text-anchor="middle" x="270" y="-47.9" font-family="Helvetica,sans-Serif" font-size="12.00">NotebookScript.initializeNotebook</text>
</a>
</g>
</g>
<!-- Node1&#45;&gt;Node2 -->
<g id="edge1" class="edge">
<title>Node1&#45;&gt;Node2</title>
<path fill="none" stroke="midnightblue" d="M137.04,-51C145.33,-51 153.95,-51 162.64,-51"/>
<polygon fill="midnightblue" stroke="midnightblue" points="162.85,-54.5 172.85,-51 162.85,-47.5 162.85,-54.5"/>
</g>
<!-- Node3 -->
<g id="node3" class="node">
<title>Node3</title>
<g id="a_node3"><a xlink:href="class_notebook_script.html#a0d865d47dca27b4d3e7a0a1a35036efb" target="_top" xlink:title="Create the character buttons">
<polygon fill="white" stroke="black" points="403,-80.5 403,-101.5 631,-101.5 631,-80.5 403,-80.5"/>
<text text-anchor="middle" x="517" y="-87.9" font-family="Helvetica,sans-Serif" font-size="12.00">NotebookScript.CreateCharacterButtons</text>
</a>
</g>
</g>
<!-- Node2&#45;&gt;Node3 -->
<g id="edge2" class="edge">
<title>Node2&#45;&gt;Node3</title>
<path fill="none" stroke="midnightblue" d="M335.37,-61.51C367.88,-66.82 407.49,-73.28 441.33,-78.81"/>
<polygon fill="midnightblue" stroke="midnightblue" points="441.2,-82.33 451.63,-80.49 442.33,-75.43 441.2,-82.33"/>
</g>
<!-- Node6 -->
<g id="node6" class="node">
<title>Node6</title>
<g id="a_node6"><a xlink:href="class_notebook_script.html#a970cdef3e0f21b0cc144fef7088bbeb0" target="_top" xlink:title="Create the room buttons">
<polygon fill="white" stroke="black" points="413,-40.5 413,-61.5 621,-61.5 621,-40.5 413,-40.5"/>
<text text-anchor="middle" x="517" y="-47.9" font-family="Helvetica,sans-Serif" font-size="12.00">NotebookScript.CreateRoomButtons</text>
</a>
</g>
</g>
<!-- Node2&#45;&gt;Node6 -->
<g id="edge5" class="edge">
<title>Node2&#45;&gt;Node6</title>
<path fill="none" stroke="midnightblue" d="M367.13,-51C378.74,-51 390.68,-51 402.52,-51"/>
<polygon fill="midnightblue" stroke="midnightblue" points="402.87,-54.5 412.87,-51 402.87,-47.5 402.87,-54.5"/>
</g>
<!-- Node7 -->
<g id="node7" class="node">
<title>Node7</title>
<g id="a_node7"><a xlink:href="class_notebook_script.html#a32b5d422887498e904d1b820605978eb" target="_top" xlink:title="Create the Weapon buttons">
<polygon fill="white" stroke="black" points="406.5,-0.5 406.5,-21.5 627.5,-21.5 627.5,-0.5 406.5,-0.5"/>
<text text-anchor="middle" x="517" y="-7.9" font-family="Helvetica,sans-Serif" font-size="12.00">NotebookScript.CreateWeaponButtons</text>
</a>
</g>
</g>
<!-- Node2&#45;&gt;Node7 -->
<g id="edge7" class="edge">
<title>Node2&#45;&gt;Node7</title>
<path fill="none" stroke="midnightblue" d="M335.37,-40.49C367.88,-35.18 407.49,-28.72 441.33,-23.19"/>
<polygon fill="midnightblue" stroke="midnightblue" points="442.33,-26.57 451.63,-21.51 441.2,-19.67 442.33,-26.57"/>
</g>
<!-- Node4 -->
<g id="node4" class="node">
<title>Node4</title>
<g id="a_node4"><a xlink:href="class_notebook_button.html#a1767bf6c449e0517fa11a1ced89f6d0d" target="_top" xlink:title="Set the button type">
<polygon fill="white" stroke="black" points="667,-40.5 667,-61.5 847,-61.5 847,-40.5 667,-40.5"/>
<text text-anchor="middle" x="757" y="-47.9" font-family="Helvetica,sans-Serif" font-size="12.00">NotebookButton.SetButtonType</text>
</a>
</g>
</g>
<!-- Node3&#45;&gt;Node4 -->
<g id="edge3" class="edge">
<title>Node3&#45;&gt;Node4</title>
<path fill="none" stroke="midnightblue" d="M580.53,-80.49C612.11,-75.18 650.59,-68.72 683.47,-63.19"/>
<polygon fill="midnightblue" stroke="midnightblue" points="684.19,-66.62 693.47,-61.51 683.03,-59.71 684.19,-66.62"/>
</g>
<!-- Node5 -->
<g id="node5" class="node">
<title>Node5</title>
<g id="a_node5"><a xlink:href="class_enum_to_string.html#a078a1fb16a0030544fac1b96a90b6b83" target="_top" xlink:title="Get a string value from a valid enum">
<polygon fill="white" stroke="black" points="883,-40.5 883,-61.5 1084,-61.5 1084,-40.5 883,-40.5"/>
<text text-anchor="middle" x="983.5" y="-47.9" font-family="Helvetica,sans-Serif" font-size="12.00">EnumToString.GetStringFromEnum</text>
</a>
</g>
</g>
<!-- Node4&#45;&gt;Node5 -->
<g id="edge4" class="edge">
<title>Node4&#45;&gt;Node5</title>
<path fill="none" stroke="midnightblue" d="M847.05,-51C855.5,-51 864.13,-51 872.74,-51"/>
<polygon fill="midnightblue" stroke="midnightblue" points="872.83,-54.5 882.83,-51 872.83,-47.5 872.83,-54.5"/>
</g>
<!-- Node6&#45;&gt;Node4 -->
<g id="edge6" class="edge">
<title>Node6&#45;&gt;Node4</title>
<path fill="none" stroke="midnightblue" d="M621.01,-51C632.76,-51 644.73,-51 656.44,-51"/>
<polygon fill="midnightblue" stroke="midnightblue" points="656.66,-54.5 666.66,-51 656.66,-47.5 656.66,-54.5"/>
</g>
<!-- Node7&#45;&gt;Node4 -->
<g id="edge8" class="edge">
<title>Node7&#45;&gt;Node4</title>
<path fill="none" stroke="midnightblue" d="M580.53,-21.51C612.11,-26.82 650.59,-33.28 683.47,-38.81"/>
<polygon fill="midnightblue" stroke="midnightblue" points="683.03,-42.29 693.47,-40.49 684.19,-35.38 683.03,-42.29"/>
</g>
</g>
</svg>
