<?xml version="1.0" encoding="UTF-8" standalone="no"?>
<!DOCTYPE svg PUBLIC "-//W3C//DTD SVG 1.1//EN"
 "http://www.w3.org/Graphics/SVG/1.1/DTD/svg11.dtd">
<!-- Generated by graphviz version 2.47.1 (20210417.1919)
 -->
<!-- Title: AccusationCardSlot Pages: 1 -->
<svg width="192pt" height="403pt"
 viewBox="0.00 0.00 192.00 403.00" xmlns="http://www.w3.org/2000/svg" xmlns:xlink="http://www.w3.org/1999/xlink">
<g id="graph0" class="graph" transform="scale(1 1) rotate(0) translate(4 399)">
<title>AccusationCardSlot</title>
<polygon fill="white" stroke="transparent" points="-4,4 -4,-399 188,-399 188,4 -4,4"/>
<!-- Node1 -->
<g id="node1" class="node">
<title>Node1</title>
<g id="a_node1"><a xlink:title=" ">
<polygon fill="#bfbfbf" stroke="black" points="0,-0.5 0,-167.5 121,-167.5 121,-0.5 0,-0.5"/>
<text text-anchor="middle" x="60.5" y="-153.9" font-family="Helvetica,sans-Serif" font-size="12.00">AccusationCardSlot</text>
<polyline fill="none" stroke="black" points="0,-146.5 121,-146.5 "/>
<text text-anchor="start" x="8" y="-132.9" font-family="Helvetica,sans-Serif" font-size="12.00">+ img</text>
<text text-anchor="start" x="8" y="-119.9" font-family="Helvetica,sans-Serif" font-size="12.00">+ txt</text>
<text text-anchor="start" x="8" y="-106.9" font-family="Helvetica,sans-Serif" font-size="12.00">+ isVisible</text>
<text text-anchor="start" x="8" y="-93.9" font-family="Helvetica,sans-Serif" font-size="12.00">&#45; initialImage</text>
<text text-anchor="start" x="8" y="-80.9" font-family="Helvetica,sans-Serif" font-size="12.00">&#45; initialText</text>
<polyline fill="none" stroke="black" points="0,-73.5 121,-73.5 "/>
<text text-anchor="start" x="8" y="-59.9" font-family="Helvetica,sans-Serif" font-size="12.00">+ ResetSlot()</text>
<text text-anchor="start" x="8" y="-46.9" font-family="Helvetica,sans-Serif" font-size="12.00">+ SetCard()</text>
<text text-anchor="start" x="8" y="-33.9" font-family="Helvetica,sans-Serif" font-size="12.00">+ SetVisible()</text>
<text text-anchor="start" x="8" y="-20.9" font-family="Helvetica,sans-Serif" font-size="12.00">&#45; Start()</text>
<text text-anchor="start" x="8" y="-7.9" font-family="Helvetica,sans-Serif" font-size="12.00">&#45; SetCardDetails()</text>
</a>
</g>
</g>
<!-- Node2 -->
<g id="node2" class="node">
<title>Node2</title>
<g id="a_node2"><a xlink:title=" ">
<polygon fill="white" stroke="#bfbfbf" points="7.5,-331.5 7.5,-394.5 105.5,-394.5 105.5,-331.5 7.5,-331.5"/>
<text text-anchor="middle" x="56.5" y="-380.9" font-family="Helvetica,sans-Serif" font-size="12.00">MonoBehaviour</text>
<polyline fill="none" stroke="#bfbfbf" points="7.5,-373.5 105.5,-373.5 "/>
<text text-anchor="middle" x="56.5" y="-359.9" font-family="Helvetica,sans-Serif" font-size="12.00"> </text>
<polyline fill="none" stroke="#bfbfbf" points="7.5,-352.5 105.5,-352.5 "/>
<text text-anchor="middle" x="56.5" y="-338.9" font-family="Helvetica,sans-Serif" font-size="12.00"> </text>
</a>
</g>
</g>
<!-- Node2&#45;&gt;Node1 -->
<g id="edge1" class="edge">
<title>Node2&#45;&gt;Node1</title>
<path fill="none" stroke="midnightblue" d="M57.09,-321.08C57.67,-280.87 58.57,-218.37 59.3,-167.77"/>
<polygon fill="none" stroke="midnightblue" points="53.59,-321.25 56.94,-331.3 60.59,-321.35 53.59,-321.25"/>
</g>
<!-- Node3 -->
<g id="node3" class="node">
<title>Node3</title>
<g id="a_node3"><a xlink:href="class_card.html" target="_top" xlink:title=" ">
<polygon fill="white" stroke="black" points="73,-217.5 73,-293.5 184,-293.5 184,-217.5 73,-217.5"/>
<text text-anchor="middle" x="128.5" y="-279.9" font-family="Helvetica,sans-Serif" font-size="12.00">Card</text>
<polyline fill="none" stroke="black" points="73,-272.5 184,-272.5 "/>
<text text-anchor="start" x="81" y="-258.9" font-family="Helvetica,sans-Serif" font-size="12.00">+ names</text>
<polyline fill="none" stroke="black" points="73,-251.5 184,-251.5 "/>
<text text-anchor="start" x="81" y="-237.9" font-family="Helvetica,sans-Serif" font-size="12.00">+ GetCardType()</text>
<text text-anchor="start" x="81" y="-224.9" font-family="Helvetica,sans-Serif" font-size="12.00">+ GetCardImage()</text>
</a>
</g>
</g>
<!-- Node2&#45;&gt;Node3 -->
<g id="edge3" class="edge">
<title>Node2&#45;&gt;Node3</title>
<path fill="none" stroke="midnightblue" d="M82.97,-323.22C89.55,-313.57 96.59,-303.25 103.12,-293.68"/>
<polygon fill="none" stroke="midnightblue" points="80.07,-321.25 77.33,-331.49 85.85,-325.2 80.07,-321.25"/>
</g>
<!-- Node3&#45;&gt;Node1 -->
<g id="edge2" class="edge">
<title>Node3&#45;&gt;Node1</title>
<path fill="none" stroke="#404040" d="M113.58,-217.3C108.97,-205.81 103.66,-192.58 98.23,-179.04"/>
<polygon fill="none" stroke="#404040" points="98.11,-178.76 92.17,-174.68 93.65,-167.62 99.59,-171.7 98.11,-178.76"/>
<text text-anchor="middle" x="121.5" y="-189.4" font-family="Helvetica,sans-Serif" font-size="12.00"> +card</text>
</g>
</g>
</svg>
