<?xml version="1.0" encoding="UTF-8" standalone="no"?>
<!DOCTYPE svg PUBLIC "-//W3C//DTD SVG 1.1//EN"
 "http://www.w3.org/Graphics/SVG/1.1/DTD/svg11.dtd">
<!-- Generated by graphviz version 2.47.1 (20210417.1919)
 -->
<!-- Title: BoardManager.GetTileFromGrid Pages: 1 -->
<!--zoomable 310 -->
<svg id="main" version="1.1" xmlns="http://www.w3.org/2000/svg" xmlns:xlink="http://www.w3.org/1999/xlink" xml:space="preserve" onload="init(evt)">
<style type="text/css"><![CDATA[
.edge:hover path { stroke: red; }
.edge:hover polygon { stroke: red; fill: red; }
]]></style>
<script type="text/javascript"><![CDATA[
var edges = document.getElementsByTagName('g');
if (edges && edges.length) {
  for (var i=0;i<edges.length;i++) {
    if (edges[i].id.substr(0,4)=='edge') {
      edges[i].setAttribute('class','edge');
    }
  }
}
]]></script>
        <defs>
                <circle id="rim" cx="0" cy="0" r="7"/>
                <circle id="rim2" cx="0" cy="0" r="3.5"/>
                <g id="zoomPlus">
                        <use xlink:href="#rim" fill="#404040">
                                <set attributeName="fill" to="#808080" begin="zoomplus.mouseover" end="zoomplus.mouseout"/>
                        </use>
                        <path d="M-4,0h8M0,-4v8" fill="none" stroke="white" stroke-width="1.5" pointer-events="none"/>
                </g>
                <g id="zoomMin">
                        <use xlink:href="#rim" fill="#404040">
                                <set attributeName="fill" to="#808080" begin="zoomminus.mouseover" end="zoomminus.mouseout"/>
                        </use>
                        <path d="M-4,0h8" fill="none" stroke="white" stroke-width="1.5" pointer-events="none"/>
                </g>
                <g id="dirArrow">
                        <path fill="none" stroke="white" stroke-width="1.5" d="M0,-3.0v7 M-2.5,-0.5L0,-3.0L2.5,-0.5"/>
                </g>
               <g id="resetDef">
                       <use xlink:href="#rim2" fill="#404040">
                               <set attributeName="fill" to="#808080" begin="reset.mouseover" end="reset.mouseout"/>
                       </use>
               </g>
        </defs>

<script type="text/javascript">
var viewWidth = 1688;
var viewHeight = 310;
var sectionId = 'dynsection-11';
</script>
<script xlink:href="svgpan.js"/>
<svg id="graph" class="graph">
<g id="viewport">
<title>BoardManager.GetTileFromGrid</title>
<polygon fill="white" stroke="transparent" points="-4,4 -4,-306 1684,-306 1684,4 -4,4"/>
<!-- Node1 -->
<g id="node1" class="node">
<title>Node1</title>
<g id="a_node1"><a xlink:title="Get a tile from the array using a grid reference.">
<polygon fill="#bfbfbf" stroke="black" points="1494,-140.5 1494,-161.5 1680,-161.5 1680,-140.5 1494,-140.5"/>
<text text-anchor="middle" x="1587" y="-147.9" font-family="Helvetica,sans-Serif" font-size="12.00">BoardManager.GetTileFromGrid</text>
</a>
</g>
</g>
<!-- Node2 -->
<g id="node2" class="node">
<title>Node2</title>
<g id="a_node2"><a xlink:href="class_board_manager.html#ae3af0b08bdfbc0ebcda23950eb935a5d" target="_top" xlink:title="Return array of all neighbours of given tile">
<polygon fill="white" stroke="black" points="1262,-179.5 1262,-200.5 1458,-200.5 1458,-179.5 1262,-179.5"/>
<text text-anchor="middle" x="1360" y="-186.9" font-family="Helvetica,sans-Serif" font-size="12.00">BoardManager.GetTileNeighbours</text>
</a>
</g>
</g>
<!-- Node1&#45;&gt;Node2 -->
<g id="edge1" class="edge">
<title>Node1&#45;&gt;Node2</title>
<path fill="none" stroke="midnightblue" d="M1515.4,-163.24C1485.33,-168.45 1450.6,-174.47 1421.7,-179.48"/>
<polygon fill="midnightblue" stroke="midnightblue" points="1516.15,-166.66 1525.41,-161.5 1514.96,-159.76 1516.15,-166.66"/>
</g>
<!-- Node18 -->
<g id="node18" class="node">
<title>Node18</title>
<g id="a_node18"><a xlink:href="class_board_manager.html#a11591587bdea96f6792097007c4f6e6f" target="_top" xlink:title="Print Array for Testing">
<polygon fill="white" stroke="black" points="1076,-140.5 1076,-161.5 1226,-161.5 1226,-140.5 1076,-140.5"/>
<text text-anchor="middle" x="1151" y="-147.9" font-family="Helvetica,sans-Serif" font-size="12.00">BoardManager.PrintArray</text>
</a>
</g>
</g>
<!-- Node1&#45;&gt;Node18 -->
<g id="edge19" class="edge">
<title>Node1&#45;&gt;Node18</title>
<path fill="none" stroke="midnightblue" d="M1483.5,-151C1404.5,-151 1297.13,-151 1226.26,-151"/>
<polygon fill="midnightblue" stroke="midnightblue" points="1483.96,-154.5 1493.96,-151 1483.96,-147.5 1483.96,-154.5"/>
</g>
<!-- Node19 -->
<g id="node19" class="node">
<title>Node19</title>
<g id="a_node19"><a xlink:href="class_shortcut_test_u_i.html#a348c3a480e18ee735a31915ef7956bc0" target="_top" xlink:title="Assign required variables">
<polygon fill="white" stroke="black" points="1300,-101.5 1300,-122.5 1420,-122.5 1420,-101.5 1300,-101.5"/>
<text text-anchor="middle" x="1360" y="-108.9" font-family="Helvetica,sans-Serif" font-size="12.00">ShortcutTestUI.Start</text>
</a>
</g>
</g>
<!-- Node1&#45;&gt;Node19 -->
<g id="edge20" class="edge">
<title>Node1&#45;&gt;Node19</title>
<path fill="none" stroke="midnightblue" d="M1515.24,-138.73C1484.66,-133.43 1449.29,-127.3 1420.14,-122.25"/>
<polygon fill="midnightblue" stroke="midnightblue" points="1514.96,-142.24 1525.41,-140.5 1516.15,-135.34 1514.96,-142.24"/>
</g>
<!-- Node3 -->
<g id="node3" class="node">
<title>Node3</title>
<g id="a_node3"><a xlink:href="class_board_manager.html#a1ea52b667d1dd7ca6b4fa956a19ee26d" target="_top" xlink:title="Perform bfs search for the tiles">
<polygon fill="white" stroke="black" points="1094,-180.5 1094,-201.5 1208,-201.5 1208,-180.5 1094,-180.5"/>
<text text-anchor="middle" x="1151" y="-187.9" font-family="Helvetica,sans-Serif" font-size="12.00">BoardManager.bfs</text>
</a>
</g>
</g>
<!-- Node2&#45;&gt;Node3 -->
<g id="edge2" class="edge">
<title>Node2&#45;&gt;Node3</title>
<path fill="none" stroke="midnightblue" d="M1251.51,-190.52C1236.56,-190.59 1221.72,-190.66 1208.24,-190.73"/>
<polygon fill="midnightblue" stroke="midnightblue" points="1251.88,-194.02 1261.86,-190.47 1251.85,-187.02 1251.88,-194.02"/>
</g>
<!-- Node2&#45;&gt;Node18 -->
<g id="edge18" class="edge">
<title>Node2&#45;&gt;Node18</title>
<path fill="none" stroke="midnightblue" d="M1293.33,-177.63C1265.83,-172.45 1234.2,-166.49 1207.84,-161.52"/>
<polygon fill="midnightblue" stroke="midnightblue" points="1292.78,-181.09 1303.26,-179.5 1294.08,-174.21 1292.78,-181.09"/>
</g>
<!-- Node4 -->
<g id="node4" class="node">
<title>Node4</title>
<g id="a_node4"><a xlink:href="class_board_builder.html#a3e79e20c71a20b8e2feb24d83106ebdb" target="_top" xlink:title="Check for nearby bonus / start tiles in order to space out around the board">
<polygon fill="white" stroke="black" points="855,-240.5 855,-261.5 1040,-261.5 1040,-240.5 855,-240.5"/>
<text text-anchor="middle" x="947.5" y="-247.9" font-family="Helvetica,sans-Serif" font-size="12.00">BoardBuilder.CheckNearbyTiles</text>
</a>
</g>
</g>
<!-- Node3&#45;&gt;Node4 -->
<g id="edge3" class="edge">
<title>Node3&#45;&gt;Node4</title>
<path fill="none" stroke="midnightblue" d="M1104.55,-204.53C1068.08,-215.39 1017.6,-230.42 984.04,-240.42"/>
<polygon fill="midnightblue" stroke="midnightblue" points="1105.85,-207.8 1114.44,-201.59 1103.86,-201.09 1105.85,-207.8"/>
</g>
<!-- Node10 -->
<g id="node10" class="node">
<title>Node10</title>
<g id="a_node10"><a xlink:href="class_board_manager.html#ad6679de327b4f4b736f06d0d549b72a0" target="_top" xlink:title="Mark and show which tile the player can move to">
<polygon fill="white" stroke="black" points="861.5,-120.5 861.5,-141.5 1033.5,-141.5 1033.5,-120.5 861.5,-120.5"/>
<text text-anchor="middle" x="947.5" y="-127.9" font-family="Helvetica,sans-Serif" font-size="12.00">BoardManager.ShowMovable</text>
</a>
</g>
</g>
<!-- Node3&#45;&gt;Node10 -->
<g id="edge10" class="edge">
<title>Node3&#45;&gt;Node10</title>
<path fill="none" stroke="midnightblue" d="M1100.22,-177.84C1092.11,-175.61 1083.81,-173.28 1076,-171 1043.49,-161.51 1006.59,-149.83 980.88,-141.55"/>
<polygon fill="midnightblue" stroke="midnightblue" points="1099.41,-181.25 1109.98,-180.5 1101.25,-174.49 1099.41,-181.25"/>
</g>
<!-- Node5 -->
<g id="node5" class="node">
<title>Node5</title>
<g id="a_node5"><a xlink:href="class_board_builder.html#a1ce7b540b58b1e6fde74e064107ae954" target="_top" xlink:title="Randomly replace required number of general tiles with FreeRoll Tiles">
<polygon fill="white" stroke="black" points="582.5,-280.5 582.5,-301.5 776.5,-301.5 776.5,-280.5 582.5,-280.5"/>
<text text-anchor="middle" x="679.5" y="-287.9" font-family="Helvetica,sans-Serif" font-size="12.00">BoardBuilder.CreateFreeRollTiles</text>
</a>
</g>
</g>
<!-- Node4&#45;&gt;Node5 -->
<g id="edge4" class="edge">
<title>Node4&#45;&gt;Node5</title>
<path fill="none" stroke="midnightblue" d="M870.02,-263.15C853.22,-265.78 835.51,-268.51 819,-271 798.1,-274.15 775.41,-277.47 754.56,-280.48"/>
<polygon fill="midnightblue" stroke="midnightblue" points="871.01,-266.54 880.35,-261.53 869.93,-259.62 871.01,-266.54"/>
</g>
<!-- Node9 -->
<g id="node9" class="node">
<title>Node9</title>
<g id="a_node9"><a xlink:href="class_board_builder.html#aeeca1094dc5e50c5612bba9336efd9d3" target="_top" xlink:title="Randomly replace required number of general tiles with FreeAccusation Tiles">
<polygon fill="white" stroke="black" points="563,-240.5 563,-261.5 796,-261.5 796,-240.5 563,-240.5"/>
<text text-anchor="middle" x="679.5" y="-247.9" font-family="Helvetica,sans-Serif" font-size="12.00">BoardBuilder.CreateFreeSuggestionTiles</text>
</a>
</g>
</g>
<!-- Node4&#45;&gt;Node9 -->
<g id="edge8" class="edge">
<title>Node4&#45;&gt;Node9</title>
<path fill="none" stroke="midnightblue" d="M844.64,-251C828.79,-251 812.31,-251 796.17,-251"/>
<polygon fill="midnightblue" stroke="midnightblue" points="844.96,-254.5 854.96,-251 844.96,-247.5 844.96,-254.5"/>
</g>
<!-- Node6 -->
<g id="node6" class="node">
<title>Node6</title>
<g id="a_node6"><a xlink:href="class_board_builder.html#a7a499abdc0c02d659ea6fee6e7836f15" target="_top" xlink:title="Randomly place Free roll / accusation tiles.">
<polygon fill="white" stroke="black" points="328,-260.5 328,-281.5 504,-281.5 504,-260.5 328,-260.5"/>
<text text-anchor="middle" x="416" y="-267.9" font-family="Helvetica,sans-Serif" font-size="12.00">BoardBuilder.PlaceBonusTiles</text>
</a>
</g>
</g>
<!-- Node5&#45;&gt;Node6 -->
<g id="edge5" class="edge">
<title>Node5&#45;&gt;Node6</title>
<path fill="none" stroke="midnightblue" d="M572,-282.85C549.53,-281.14 526.07,-279.34 504.4,-277.68"/>
<polygon fill="midnightblue" stroke="midnightblue" points="572,-286.37 582.24,-283.64 572.54,-279.39 572,-286.37"/>
</g>
<!-- Node7 -->
<g id="node7" class="node">
<title>Node7</title>
<g id="a_node7"><a xlink:href="class_board_builder.html#a82e09ea29b1d031cfe2fa3b444c12c99" target="_top" xlink:title="Method to create the board, initialise and place all items and pass references to board manager">
<polygon fill="white" stroke="black" points="161,-260.5 161,-281.5 292,-281.5 292,-260.5 161,-260.5"/>
<text text-anchor="middle" x="226.5" y="-267.9" font-family="Helvetica,sans-Serif" font-size="12.00">BoardBuilder.Initialise</text>
</a>
</g>
</g>
<!-- Node6&#45;&gt;Node7 -->
<g id="edge6" class="edge">
<title>Node6&#45;&gt;Node7</title>
<path fill="none" stroke="midnightblue" d="M317.65,-271C308.98,-271 300.35,-271 292.05,-271"/>
<polygon fill="midnightblue" stroke="midnightblue" points="317.84,-274.5 327.84,-271 317.84,-267.5 317.84,-274.5"/>
</g>
<!-- Node8 -->
<g id="node8" class="node">
<title>Node8</title>
<g id="a_node8"><a xlink:href="class_board_builder.html#a40848d7394ead9e79f4f2dad2d7756b8" target="_top" xlink:title=" ">
<polygon fill="white" stroke="black" points="0,-260.5 0,-281.5 125,-281.5 125,-260.5 0,-260.5"/>
<text text-anchor="middle" x="62.5" y="-267.9" font-family="Helvetica,sans-Serif" font-size="12.00">BoardBuilder.Awake</text>
</a>
</g>
</g>
<!-- Node7&#45;&gt;Node8 -->
<g id="edge7" class="edge">
<title>Node7&#45;&gt;Node8</title>
<path fill="none" stroke="midnightblue" d="M150.3,-271C141.84,-271 133.31,-271 125.05,-271"/>
<polygon fill="midnightblue" stroke="midnightblue" points="150.54,-274.5 160.54,-271 150.54,-267.5 150.54,-274.5"/>
</g>
<!-- Node9&#45;&gt;Node6 -->
<g id="edge9" class="edge">
<title>Node9&#45;&gt;Node6</title>
<path fill="none" stroke="midnightblue" d="M552.49,-260.64C536.11,-261.89 519.63,-263.15 504.09,-264.34"/>
<polygon fill="midnightblue" stroke="midnightblue" points="552.96,-264.11 562.66,-259.86 552.42,-257.13 552.96,-264.11"/>
</g>
<!-- Node11 -->
<g id="node11" class="node">
<title>Node11</title>
<g id="a_node11"><a xlink:href="class_round_manager.html#acf674cdec523de9a0f91ab8a7bfcc2ef" target="_top" xlink:title="for waiting the dice to be rolled, get it&#39;s results and display where the player can move to">
<polygon fill="white" stroke="black" points="591,-200.5 591,-221.5 768,-221.5 768,-200.5 591,-200.5"/>
<text text-anchor="middle" x="679.5" y="-207.9" font-family="Helvetica,sans-Serif" font-size="12.00">RoundManager.DiceBehaviour</text>
</a>
</g>
</g>
<!-- Node10&#45;&gt;Node11 -->
<g id="edge11" class="edge">
<title>Node10&#45;&gt;Node11</title>
<path fill="none" stroke="midnightblue" d="M919.67,-146.51C894.49,-160.36 855.36,-180.09 819,-191 802.83,-195.85 785.23,-199.55 768.17,-202.35"/>
<polygon fill="midnightblue" stroke="midnightblue" points="921.57,-149.45 928.6,-141.52 918.16,-143.34 921.57,-149.45"/>
</g>
<!-- Node13 -->
<g id="node13" class="node">
<title>Node13</title>
<g id="a_node13"><a xlink:href="class_player_master_controller.html#ac150dd296b7ff1b7b5a856cbdf5af8bf" target="_top" xlink:title="calls the boardManager to display all the tiles that it can move to according to the range of it&#39;s mo...">
<polygon fill="white" stroke="black" points="540,-160.5 540,-181.5 819,-181.5 819,-160.5 540,-160.5"/>
<text text-anchor="middle" x="679.5" y="-167.9" font-family="Helvetica,sans-Serif" font-size="12.00">PlayerMasterController.DisplayBoardMovableTiles</text>
</a>
</g>
</g>
<!-- Node10&#45;&gt;Node13 -->
<g id="edge13" class="edge">
<title>Node10&#45;&gt;Node13</title>
<path fill="none" stroke="midnightblue" d="M870.02,-143.15C853.22,-145.78 835.51,-148.51 819,-151 798.1,-154.15 775.41,-157.47 754.56,-160.48"/>
<polygon fill="midnightblue" stroke="midnightblue" points="871.01,-146.54 880.35,-141.53 869.93,-139.62 871.01,-146.54"/>
</g>
<!-- Node14 -->
<g id="node14" class="node">
<title>Node14</title>
<g id="a_node14"><a xlink:href="class_anson_test_script.html#a445d27a921ade2f0e76054a3b7cc4245" target="_top" xlink:title=" ">
<polygon fill="white" stroke="black" points="593,-120.5 593,-141.5 766,-141.5 766,-120.5 593,-120.5"/>
<text text-anchor="middle" x="679.5" y="-127.9" font-family="Helvetica,sans-Serif" font-size="12.00">AnsonTestScript.FixedUpdate</text>
</a>
</g>
</g>
<!-- Node10&#45;&gt;Node14 -->
<g id="edge14" class="edge">
<title>Node10&#45;&gt;Node14</title>
<path fill="none" stroke="midnightblue" d="M851.14,-131C823.4,-131 793.29,-131 766.19,-131"/>
<polygon fill="midnightblue" stroke="midnightblue" points="851.24,-134.5 861.24,-131 851.24,-127.5 851.24,-134.5"/>
</g>
<!-- Node15 -->
<g id="node15" class="node">
<title>Node15</title>
<g id="a_node15"><a xlink:href="class_player_movement_test_script.html#a1c247cfdee35d3a1c1d3a81fd579b426" target="_top" xlink:title=" ">
<polygon fill="white" stroke="black" points="566,-80.5 566,-101.5 793,-101.5 793,-80.5 566,-80.5"/>
<text text-anchor="middle" x="679.5" y="-87.9" font-family="Helvetica,sans-Serif" font-size="12.00">PlayerMovementTestScript.FixedUpdate</text>
</a>
</g>
</g>
<!-- Node10&#45;&gt;Node15 -->
<g id="edge15" class="edge">
<title>Node10&#45;&gt;Node15</title>
<path fill="none" stroke="midnightblue" d="M870.02,-118.85C853.22,-116.22 835.51,-113.49 819,-111 798.1,-107.85 775.41,-104.53 754.56,-101.52"/>
<polygon fill="midnightblue" stroke="midnightblue" points="869.93,-122.38 880.35,-120.47 871.01,-115.46 869.93,-122.38"/>
</g>
<!-- Node16 -->
<g id="node16" class="node">
<title>Node16</title>
<g id="a_node16"><a xlink:href="class_testing___movement_script.html#a8bd90f3857ba3610ef23e0a5d7e4879a" target="_top" xlink:title="give a select value for the player roll">
<polygon fill="white" stroke="black" points="583,-40.5 583,-61.5 776,-61.5 776,-40.5 583,-40.5"/>
<text text-anchor="middle" x="679.5" y="-47.9" font-family="Helvetica,sans-Serif" font-size="12.00">Testing_MovementScript.GiveRoll</text>
</a>
</g>
</g>
<!-- Node10&#45;&gt;Node16 -->
<g id="edge16" class="edge">
<title>Node10&#45;&gt;Node16</title>
<path fill="none" stroke="midnightblue" d="M919.67,-115.49C894.49,-101.64 855.36,-81.91 819,-71 805.39,-66.91 790.76,-63.65 776.3,-61.05"/>
<polygon fill="midnightblue" stroke="midnightblue" points="918.16,-118.66 928.6,-120.48 921.57,-112.55 918.16,-118.66"/>
</g>
<!-- Node17 -->
<g id="node17" class="node">
<title>Node17</title>
<g id="a_node17"><a xlink:href="class_board_manager.html#a7607382dac3371733cee2f30a8ba6f25" target="_top" xlink:title="Show movable tiles">
<polygon fill="white" stroke="black" points="593.5,-0.5 593.5,-21.5 765.5,-21.5 765.5,-0.5 593.5,-0.5"/>
<text text-anchor="middle" x="679.5" y="-7.9" font-family="Helvetica,sans-Serif" font-size="12.00">BoardManager.ShowMovable</text>
</a>
</g>
</g>
<!-- Node10&#45;&gt;Node17 -->
<g id="edge17" class="edge">
<title>Node10&#45;&gt;Node17</title>
<path fill="none" stroke="midnightblue" d="M929.66,-112.89C906.95,-89.73 864.12,-50.3 819,-31 802.36,-23.88 783.67,-19.21 765.54,-16.17"/>
<polygon fill="midnightblue" stroke="midnightblue" points="927.37,-115.56 936.82,-120.35 932.42,-110.71 927.37,-115.56"/>
</g>
<!-- Node12 -->
<g id="node12" class="node">
<title>Node12</title>
<g id="a_node12"><a xlink:href="class_round_manager.html#abb654bc0114fc67d455ed6449d5bda22" target="_top" xlink:title=" ">
<polygon fill="white" stroke="black" points="332.5,-200.5 332.5,-221.5 499.5,-221.5 499.5,-200.5 332.5,-200.5"/>
<text text-anchor="middle" x="416" y="-207.9" font-family="Helvetica,sans-Serif" font-size="12.00">RoundManager.FixedUpdate</text>
</a>
</g>
</g>
<!-- Node11&#45;&gt;Node12 -->
<g id="edge12" class="edge">
<title>Node11&#45;&gt;Node12</title>
<path fill="none" stroke="midnightblue" d="M580.6,-211C553.97,-211 525.4,-211 499.71,-211"/>
<polygon fill="midnightblue" stroke="midnightblue" points="580.7,-214.5 590.7,-211 580.7,-207.5 580.7,-214.5"/>
</g>
</g>
</svg>
        <g id="navigator" transform="translate(0 0)" fill="#404254">
                <rect fill="#f2f5e9" fill-opacity="0.5" stroke="#606060" stroke-width=".5" x="0" y="0" width="60" height="60"/>
                <use id="zoomplus" xlink:href="#zoomPlus" x="17" y="9" onmousedown="handleZoom(evt,'in')"/>
                <use id="zoomminus" xlink:href="#zoomMin" x="42" y="9" onmousedown="handleZoom(evt,'out')"/>
                <use id="reset" xlink:href="#resetDef" x="30" y="36" onmousedown="handleReset()"/>
                <g id="arrowUp" xlink:href="#dirArrow" transform="translate(30 24)" onmousedown="handlePan(0,-1)">
                  <use xlink:href="#rim" fill="#404040">
                        <set attributeName="fill" to="#808080" begin="arrowUp.mouseover" end="arrowUp.mouseout"/>
                  </use>
                  <path fill="none" stroke="white" stroke-width="1.5" d="M0,-3.0v7 M-2.5,-0.5L0,-3.0L2.5,-0.5"/>
                </g>
                <g id="arrowRight" xlink:href="#dirArrow" transform="rotate(90) translate(36 -43)" onmousedown="handlePan(1,0)">
                  <use xlink:href="#rim" fill="#404040">
                        <set attributeName="fill" to="#808080" begin="arrowRight.mouseover" end="arrowRight.mouseout"/>
                  </use>
                  <path fill="none" stroke="white" stroke-width="1.5" d="M0,-3.0v7 M-2.5,-0.5L0,-3.0L2.5,-0.5"/>
                </g>
                <g id="arrowDown" xlink:href="#dirArrow" transform="rotate(180) translate(-30 -48)" onmousedown="handlePan(0,1)">
                  <use xlink:href="#rim" fill="#404040">
                        <set attributeName="fill" to="#808080" begin="arrowDown.mouseover" end="arrowDown.mouseout"/>
                  </use>
                  <path fill="none" stroke="white" stroke-width="1.5" d="M0,-3.0v7 M-2.5,-0.5L0,-3.0L2.5,-0.5"/>
                </g>
                <g id="arrowLeft" xlink:href="#dirArrow" transform="rotate(270) translate(-36 17)" onmousedown="handlePan(-1,0)">
                  <use xlink:href="#rim" fill="#404040">
                        <set attributeName="fill" to="#808080" begin="arrowLeft.mouseover" end="arrowLeft.mouseout"/>
                  </use>
                  <path fill="none" stroke="white" stroke-width="1.5" d="M0,-3.0v7 M-2.5,-0.5L0,-3.0L2.5,-0.5"/>
                </g>
        </g>
        <svg viewBox="0 0 15 15" width="100%" height="30px" preserveAspectRatio="xMaxYMin meet">
         <g id="arrow_out" transform="scale(0.3 0.3)">
          <a xlink:href="class_board_manager_a6b2b89b5ce622bf45676e6993f8ec216_icgraph_org.svg" target="_base">
           <rect id="button" ry="5" rx="5" y="6" x="6" height="38" width="38"
                fill="#f2f5e9" fill-opacity="0.5" stroke="#606060" stroke-width="1.0"/>
           <path id="arrow"
             d="M 11.500037,31.436501 C 11.940474,20.09759 22.043105,11.32322 32.158766,21.979434 L 37.068811,17.246167 C 37.068811,17.246167 37.088388,32 37.088388,32 L 22.160133,31.978069 C 22.160133,31.978069 26.997745,27.140456 26.997745,27.140456 C 18.528582,18.264221 13.291696,25.230495 11.500037,31.436501 z"
             style="fill:#404040;"/>
          </a>
         </g>
        </svg>
</svg>
