<?xml version="1.0" encoding="UTF-8" standalone="no"?>
<!DOCTYPE svg PUBLIC "-//W3C//DTD SVG 1.1//EN"
 "http://www.w3.org/Graphics/SVG/1.1/DTD/svg11.dtd">
<!-- Generated by graphviz version 2.47.1 (20210417.1919)
 -->
<!-- Title: FreeRollBoardTileScript Pages: 1 -->
<svg width="151pt" height="493pt"
 viewBox="0.00 0.00 151.00 493.00" xmlns="http://www.w3.org/2000/svg" xmlns:xlink="http://www.w3.org/1999/xlink">
<g id="graph0" class="graph" transform="scale(1 1) rotate(0) translate(4 489)">
<title>FreeRollBoardTileScript</title>
<polygon fill="white" stroke="transparent" points="-4,4 -4,-489 147,-489 147,4 -4,4"/>
<!-- Node1 -->
<g id="node1" class="node">
<title>Node1</title>
<g id="a_node1"><a xlink:title="Script for the free suggestion board tile Gameobject">
<polygon fill="#bfbfbf" stroke="black" points="0,-0.5 0,-63.5 143,-63.5 143,-0.5 0,-0.5"/>
<text text-anchor="middle" x="71.5" y="-49.9" font-family="Helvetica,sans-Serif" font-size="12.00">FreeRollBoardTileScript</text>
<polyline fill="none" stroke="black" points="0,-42.5 143,-42.5 "/>
<text text-anchor="middle" x="71.5" y="-28.9" font-family="Helvetica,sans-Serif" font-size="12.00"> </text>
<polyline fill="none" stroke="black" points="0,-21.5 143,-21.5 "/>
<text text-anchor="middle" x="71.5" y="-7.9" font-family="Helvetica,sans-Serif" font-size="12.00"> </text>
</a>
</g>
</g>
<!-- Node2 -->
<g id="node2" class="node">
<title>Node2</title>
<g id="a_node2"><a xlink:href="class_board_tile_script.html" target="_top" xlink:title="Super class for all tiles">
<polygon fill="white" stroke="black" points="0,-100.5 0,-384.5 143,-384.5 143,-100.5 0,-100.5"/>
<text text-anchor="middle" x="71.5" y="-370.9" font-family="Helvetica,sans-Serif" font-size="12.00">BoardTileScript</text>
<polyline fill="none" stroke="black" points="0,-363.5 143,-363.5 "/>
<text text-anchor="start" x="8" y="-349.9" font-family="Helvetica,sans-Serif" font-size="12.00">+ GridPosition</text>
<text text-anchor="start" x="8" y="-336.9" font-family="Helvetica,sans-Serif" font-size="12.00">+ TileType</text>
<text text-anchor="start" x="8" y="-323.9" font-family="Helvetica,sans-Serif" font-size="12.00">+ PlayerToken</text>
<text text-anchor="start" x="8" y="-310.9" font-family="Helvetica,sans-Serif" font-size="12.00">+ BoardManager</text>
<text text-anchor="start" x="8" y="-297.9" font-family="Helvetica,sans-Serif" font-size="12.00">&#45; gridPosition</text>
<text text-anchor="start" x="8" y="-284.9" font-family="Helvetica,sans-Serif" font-size="12.00">&#45; tileType</text>
<text text-anchor="start" x="8" y="-271.9" font-family="Helvetica,sans-Serif" font-size="12.00">&#45; boardTileEffectHandler</text>
<text text-anchor="start" x="8" y="-258.9" font-family="Helvetica,sans-Serif" font-size="12.00">&#45; playerToken</text>
<text text-anchor="start" x="8" y="-245.9" font-family="Helvetica,sans-Serif" font-size="12.00">&#45; boardManager</text>
<polyline fill="none" stroke="black" points="0,-238.5 143,-238.5 "/>
<text text-anchor="start" x="8" y="-224.9" font-family="Helvetica,sans-Serif" font-size="12.00">+ ClearTile()</text>
<text text-anchor="start" x="8" y="-211.9" font-family="Helvetica,sans-Serif" font-size="12.00">+ SelectTile()</text>
<text text-anchor="start" x="8" y="-198.9" font-family="Helvetica,sans-Serif" font-size="12.00">+ GlowTile()</text>
<text text-anchor="start" x="8" y="-185.9" font-family="Helvetica,sans-Serif" font-size="12.00">+ SetToken()</text>
<text text-anchor="start" x="8" y="-172.9" font-family="Helvetica,sans-Serif" font-size="12.00">+ IsEmpty()</text>
<text text-anchor="start" x="8" y="-159.9" font-family="Helvetica,sans-Serif" font-size="12.00">+ GetTileNeighbours()</text>
<text text-anchor="start" x="8" y="-146.9" font-family="Helvetica,sans-Serif" font-size="12.00">+ CanMove()</text>
<text text-anchor="start" x="8" y="-133.9" font-family="Helvetica,sans-Serif" font-size="12.00">+ ToString()</text>
<text text-anchor="start" x="8" y="-120.9" font-family="Helvetica,sans-Serif" font-size="12.00"># Init()</text>
<text text-anchor="start" x="8" y="-107.9" font-family="Helvetica,sans-Serif" font-size="12.00">&#45; Start()</text>
</a>
</g>
</g>
<!-- Node2&#45;&gt;Node1 -->
<g id="edge1" class="edge">
<title>Node2&#45;&gt;Node1</title>
<path fill="none" stroke="midnightblue" d="M71.5,-90.13C71.5,-80.49 71.5,-71.53 71.5,-63.69"/>
<polygon fill="none" stroke="midnightblue" points="68,-90.41 71.5,-100.41 75,-90.41 68,-90.41"/>
</g>
<!-- Node3 -->
<g id="node3" class="node">
<title>Node3</title>
<g id="a_node3"><a xlink:title=" ">
<polygon fill="white" stroke="#bfbfbf" points="22.5,-421.5 22.5,-484.5 120.5,-484.5 120.5,-421.5 22.5,-421.5"/>
<text text-anchor="middle" x="71.5" y="-470.9" font-family="Helvetica,sans-Serif" font-size="12.00">MonoBehaviour</text>
<polyline fill="none" stroke="#bfbfbf" points="22.5,-463.5 120.5,-463.5 "/>
<text text-anchor="middle" x="71.5" y="-449.9" font-family="Helvetica,sans-Serif" font-size="12.00"> </text>
<polyline fill="none" stroke="#bfbfbf" points="22.5,-442.5 120.5,-442.5 "/>
<text text-anchor="middle" x="71.5" y="-428.9" font-family="Helvetica,sans-Serif" font-size="12.00"> </text>
</a>
</g>
</g>
<!-- Node3&#45;&gt;Node2 -->
<g id="edge2" class="edge">
<title>Node3&#45;&gt;Node2</title>
<path fill="none" stroke="midnightblue" d="M71.5,-411.07C71.5,-402.95 71.5,-394.01 71.5,-384.61"/>
<polygon fill="none" stroke="midnightblue" points="68,-411.24 71.5,-421.24 75,-411.24 68,-411.24"/>
</g>
</g>
</svg>
