<?xml version="1.0" encoding="UTF-8" standalone="no"?>
<!DOCTYPE svg PUBLIC "-//W3C//DTD SVG 1.1//EN"
 "http://www.w3.org/Graphics/SVG/1.1/DTD/svg11.dtd">
<!-- Generated by graphviz version 2.47.1 (20210417.1919)
 -->
<!-- Title: RoundManager.MakeSuggestion Pages: 1 -->
<svg width="1931pt" height="405pt"
 viewBox="0.00 0.00 1931.00 405.00" xmlns="http://www.w3.org/2000/svg" xmlns:xlink="http://www.w3.org/1999/xlink">
<g id="graph0" class="graph" transform="scale(1 1) rotate(0) translate(4 401)">
<title>RoundManager.MakeSuggestion</title>
<polygon fill="white" stroke="transparent" points="-4,4 -4,-401 1927,-401 1927,4 -4,4"/>
<!-- Node1 -->
<g id="node1" class="node">
<title>Node1</title>
<g id="a_node1"><a xlink:title="Iterate through the rest of the players searching for if 1 or more of the cards were found">
<polygon fill="#bfbfbf" stroke="black" points="0,-138.5 0,-159.5 188,-159.5 188,-138.5 0,-138.5"/>
<text text-anchor="middle" x="94" y="-145.9" font-family="Helvetica,sans-Serif" font-size="12.00">RoundManager.MakeSuggestion</text>
</a>
</g>
</g>
<!-- Node2 -->
<g id="node2" class="node">
<title>Node2</title>
<g id="a_node2"><a xlink:href="class_round_manager.html#a780da336fd16dcaee0f00306578f13b4" target="_top" xlink:title=" ">
<polygon fill="white" stroke="black" points="253,-234.5 253,-255.5 419,-255.5 419,-234.5 253,-234.5"/>
<text text-anchor="middle" x="336" y="-241.9" font-family="Helvetica,sans-Serif" font-size="12.00">RoundManager.AIShowCard</text>
</a>
</g>
</g>
<!-- Node1&#45;&gt;Node2 -->
<g id="edge1" class="edge">
<title>Node1&#45;&gt;Node2</title>
<path fill="none" stroke="midnightblue" d="M110.98,-159.74C134.68,-175.21 180.97,-203.69 224,-220 236.71,-224.82 250.6,-228.85 264.13,-232.17"/>
<polygon fill="midnightblue" stroke="midnightblue" points="263.35,-235.59 273.89,-234.47 264.96,-228.77 263.35,-235.59"/>
</g>
<!-- Node4 -->
<g id="node4" class="node">
<title>Node4</title>
<g id="a_node4"><a xlink:href="class_player_master_controller.html#a12c91851433777ae557a71d9f9a855f0" target="_top" xlink:title=" ">
<polygon fill="white" stroke="black" points="725,-157.5 725,-178.5 934,-178.5 934,-157.5 725,-157.5"/>
<text text-anchor="middle" x="829.5" y="-164.9" font-family="Helvetica,sans-Serif" font-size="12.00">PlayerMasterController.GetCharacter</text>
</a>
</g>
</g>
<!-- Node1&#45;&gt;Node4 -->
<g id="edge30" class="edge">
<title>Node1&#45;&gt;Node4</title>
<path fill="none" stroke="midnightblue" d="M188.01,-151.95C200.12,-152.32 212.35,-152.67 224,-153 394.97,-157.77 593.16,-162.55 714.67,-165.39"/>
<polygon fill="midnightblue" stroke="midnightblue" points="714.66,-168.89 724.74,-165.62 714.82,-161.89 714.66,-168.89"/>
</g>
<!-- Node5 -->
<g id="node5" class="node">
<title>Node5</title>
<g id="a_node5"><a xlink:href="class_enum_to_string.html#a078a1fb16a0030544fac1b96a90b6b83" target="_top" xlink:title="Get a string value from a valid enum">
<polygon fill="white" stroke="black" points="1272,-277.5 1272,-298.5 1473,-298.5 1473,-277.5 1272,-277.5"/>
<text text-anchor="middle" x="1372.5" y="-284.9" font-family="Helvetica,sans-Serif" font-size="12.00">EnumToString.GetStringFromEnum</text>
</a>
</g>
</g>
<!-- Node1&#45;&gt;Node5 -->
<g id="edge32" class="edge">
<title>Node1&#45;&gt;Node5</title>
<path fill="none" stroke="midnightblue" d="M103.31,-159.83C122,-183.33 169.99,-239.01 224,-265 370.76,-335.61 422.64,-325 585.5,-325 585.5,-325 585.5,-325 830.5,-325 982.05,-325 1156.92,-310.37 1265.86,-299.51"/>
<polygon fill="midnightblue" stroke="midnightblue" points="1266.26,-302.99 1275.86,-298.5 1265.56,-296.02 1266.26,-302.99"/>
</g>
<!-- Node6 -->
<g id="node6" class="node">
<title>Node6</title>
<g id="a_node6"><a xlink:href="class_round_manager.html#a6cf32ad7ffd3cafc902ae5faeb7605f8" target="_top" xlink:title="removing a card from the player&#39;s To Guess List notify the AI if a player finished showing a suggeste...">
<polygon fill="white" stroke="black" points="735.5,-197.5 735.5,-218.5 923.5,-218.5 923.5,-197.5 735.5,-197.5"/>
<text text-anchor="middle" x="829.5" y="-204.9" font-family="Helvetica,sans-Serif" font-size="12.00">RoundManager.NotifySuggestion</text>
</a>
</g>
</g>
<!-- Node1&#45;&gt;Node6 -->
<g id="edge33" class="edge">
<title>Node1&#45;&gt;Node6</title>
<path fill="none" stroke="midnightblue" d="M155.55,-159.53C177.11,-162.98 201.58,-166.54 224,-169 399.35,-188.21 604.44,-198.99 725.01,-204.14"/>
<polygon fill="midnightblue" stroke="midnightblue" points="725.19,-207.65 735.33,-204.58 725.49,-200.66 725.19,-207.65"/>
</g>
<!-- Node19 -->
<g id="node19" class="node">
<title>Node19</title>
<g id="a_node19"><a xlink:href="class_u_i_handler.html#a81884a614bffa4b024ed137552033f7f" target="_top" xlink:title="Dispal a panel for a player to choose which card to show">
<polygon fill="white" stroke="black" points="498,-118.5 498,-139.5 675,-139.5 675,-118.5 498,-118.5"/>
<text text-anchor="middle" x="586.5" y="-125.9" font-family="Helvetica,sans-Serif" font-size="12.00">UIHandler.DisplayChoicePanel</text>
</a>
</g>
</g>
<!-- Node1&#45;&gt;Node19 -->
<g id="edge22" class="edge">
<title>Node1&#45;&gt;Node19</title>
<path fill="none" stroke="midnightblue" d="M188.12,-145.2C273.78,-141.71 400.36,-136.55 487.52,-132.99"/>
<polygon fill="midnightblue" stroke="midnightblue" points="487.84,-136.49 497.69,-132.58 487.55,-129.49 487.84,-136.49"/>
</g>
<!-- Node21 -->
<g id="node21" class="node">
<title>Node21</title>
<g id="a_node21"><a xlink:href="class_u_i_handler.html#a1f0729c8102e73f3d97c1f078b9f9d52" target="_top" xlink:title="Dispalys text on screen">
<polygon fill="white" stroke="black" points="253.5,-80.5 253.5,-101.5 418.5,-101.5 418.5,-80.5 253.5,-80.5"/>
<text text-anchor="middle" x="336" y="-87.9" font-family="Helvetica,sans-Serif" font-size="12.00">UIHandler.DisplayOutputText</text>
</a>
</g>
</g>
<!-- Node1&#45;&gt;Node21 -->
<g id="edge27" class="edge">
<title>Node1&#45;&gt;Node21</title>
<path fill="none" stroke="midnightblue" d="M135.02,-138.44C160.46,-131.81 194.11,-123.19 224,-116 241.18,-111.87 259.9,-107.57 277,-103.73"/>
<polygon fill="midnightblue" stroke="midnightblue" points="277.86,-107.13 286.85,-101.53 276.33,-100.29 277.86,-107.13"/>
</g>
<!-- Node23 -->
<g id="node23" class="node">
<title>Node23</title>
<g id="a_node23"><a xlink:href="class_u_i_handler.html#abe1710aca2abe4dbb489f0c49a3af879" target="_top" xlink:title="To display the View Blocker can include the name of the player that needs it&#39;s attention">
<polygon fill="white" stroke="black" points="248,-40.5 248,-61.5 424,-61.5 424,-40.5 248,-40.5"/>
<text text-anchor="middle" x="336" y="-47.9" font-family="Helvetica,sans-Serif" font-size="12.00">UIHandler.DisplayViewBlocker</text>
</a>
</g>
</g>
<!-- Node1&#45;&gt;Node23 -->
<g id="edge29" class="edge">
<title>Node1&#45;&gt;Node23</title>
<path fill="none" stroke="midnightblue" d="M108.81,-138.28C131.51,-121.22 178.7,-88.1 224,-71 231.15,-68.3 238.7,-65.96 246.36,-63.93"/>
<polygon fill="midnightblue" stroke="midnightblue" points="247.23,-67.32 256.1,-61.52 245.55,-60.52 247.23,-67.32"/>
</g>
<!-- Node24 -->
<g id="node24" class="node">
<title>Node24</title>
<g id="a_node24"><a xlink:href="class_turn_controller.html#a1eddf50c785325b5e873312d1fcd6380" target="_top" xlink:title=" ">
<polygon fill="white" stroke="black" points="224,-0.5 224,-21.5 448,-21.5 448,-0.5 224,-0.5"/>
<text text-anchor="middle" x="336" y="-7.9" font-family="Helvetica,sans-Serif" font-size="12.00">TurnController.GetRestOfPlayersInOrder</text>
</a>
</g>
</g>
<!-- Node1&#45;&gt;Node24 -->
<g id="edge31" class="edge">
<title>Node1&#45;&gt;Node24</title>
<path fill="none" stroke="midnightblue" d="M103.01,-138.4C121.46,-114.8 169.59,-57.93 224,-31 228.71,-28.67 233.64,-26.61 238.71,-24.79"/>
<polygon fill="midnightblue" stroke="midnightblue" points="240.17,-27.99 248.6,-21.57 238,-21.34 240.17,-27.99"/>
</g>
<!-- Node3 -->
<g id="node3" class="node">
<title>Node3</title>
<g id="a_node3"><a xlink:href="class_u_i_handler.html#a4009ca74f59111933be2a637c7835e18" target="_top" xlink:title="Displays a card from a player that has it">
<polygon fill="white" stroke="black" points="523.5,-234.5 523.5,-255.5 649.5,-255.5 649.5,-234.5 523.5,-234.5"/>
<text text-anchor="middle" x="586.5" y="-241.9" font-family="Helvetica,sans-Serif" font-size="12.00">UIHandler.ShowCard</text>
</a>
</g>
</g>
<!-- Node2&#45;&gt;Node3 -->
<g id="edge2" class="edge">
<title>Node2&#45;&gt;Node3</title>
<path fill="none" stroke="midnightblue" d="M419.06,-245C449.41,-245 483.57,-245 513.01,-245"/>
<polygon fill="midnightblue" stroke="midnightblue" points="513.21,-248.5 523.21,-245 513.21,-241.5 513.21,-248.5"/>
</g>
<!-- Node3&#45;&gt;Node4 -->
<g id="edge3" class="edge">
<title>Node3&#45;&gt;Node4</title>
<path fill="none" stroke="midnightblue" d="M609.38,-234.3C636.1,-221.63 682.93,-200.64 725,-188 734.04,-185.28 743.64,-182.85 753.21,-180.69"/>
<polygon fill="midnightblue" stroke="midnightblue" points="754.1,-184.08 763.14,-178.55 752.62,-177.24 754.1,-184.08"/>
</g>
<!-- Node3&#45;&gt;Node5 -->
<g id="edge4" class="edge">
<title>Node3&#45;&gt;Node5</title>
<path fill="none" stroke="midnightblue" d="M649.67,-248.41C782.35,-255.69 1094.69,-272.82 1261.68,-281.98"/>
<polygon fill="midnightblue" stroke="midnightblue" points="1261.8,-285.49 1271.97,-282.54 1262.18,-278.5 1261.8,-285.49"/>
</g>
<!-- Node3&#45;&gt;Node6 -->
<g id="edge5" class="edge">
<title>Node3&#45;&gt;Node6</title>
<path fill="none" stroke="midnightblue" d="M649.56,-235.47C680.15,-230.78 717.36,-225.06 749.92,-220.06"/>
<polygon fill="midnightblue" stroke="midnightblue" points="750.5,-223.52 759.86,-218.54 749.44,-216.6 750.5,-223.52"/>
</g>
<!-- Node15 -->
<g id="node15" class="node">
<title>Node15</title>
<g id="a_node15"><a xlink:href="class_card_slot.html#a9049dedcebbbc4b2185a2a01d76d4ed5" target="_top" xlink:title=" ">
<polygon fill="white" stroke="black" points="774.5,-275.5 774.5,-296.5 884.5,-296.5 884.5,-275.5 774.5,-275.5"/>
<text text-anchor="middle" x="829.5" y="-282.9" font-family="Helvetica,sans-Serif" font-size="12.00">CardSlot.SetCard</text>
</a>
</g>
</g>
<!-- Node3&#45;&gt;Node15 -->
<g id="edge17" class="edge">
<title>Node3&#45;&gt;Node15</title>
<path fill="none" stroke="midnightblue" d="M649.25,-255.51C684.41,-261.49 728.41,-268.97 764.01,-275.03"/>
<polygon fill="midnightblue" stroke="midnightblue" points="763.85,-278.55 774.29,-276.78 765.02,-271.65 763.85,-278.55"/>
</g>
<!-- Node7 -->
<g id="node7" class="node">
<title>Node7</title>
<g id="a_node7"><a xlink:href="class_round_manager.html#aab3f49a5e05508a8e023a497e763c1c8" target="_top" xlink:title="Gets the player controller for the current player">
<polygon fill="white" stroke="black" points="1003,-119.5 1003,-140.5 1193,-140.5 1193,-119.5 1003,-119.5"/>
<text text-anchor="middle" x="1098" y="-126.9" font-family="Helvetica,sans-Serif" font-size="12.00">RoundManager.GetCurrentPlayer</text>
</a>
</g>
</g>
<!-- Node6&#45;&gt;Node7 -->
<g id="edge6" class="edge">
<title>Node6&#45;&gt;Node7</title>
<path fill="none" stroke="midnightblue" d="M911.62,-197.45C919.42,-194.93 927.02,-191.83 934,-188 954.4,-176.81 949.41,-160.83 970,-150 977.23,-146.2 984.99,-143.07 992.98,-140.51"/>
<polygon fill="midnightblue" stroke="midnightblue" points="994.2,-143.8 1002.83,-137.65 992.25,-137.08 994.2,-143.8"/>
</g>
<!-- Node9 -->
<g id="node9" class="node">
<title>Node9</title>
<g id="a_node9"><a xlink:href="class_a_i_controller_script.html#a208f5afe4102ff2ca04a03a425d76279" target="_top" xlink:title="for the round manager to notify that another player finished picking a card to show">
<polygon fill="white" stroke="black" points="998,-199.5 998,-220.5 1198,-220.5 1198,-199.5 998,-199.5"/>
<text text-anchor="middle" x="1098" y="-206.9" font-family="Helvetica,sans-Serif" font-size="12.00">AIControllerScript.NotifySuggestion</text>
</a>
</g>
</g>
<!-- Node6&#45;&gt;Node9 -->
<g id="edge8" class="edge">
<title>Node6&#45;&gt;Node9</title>
<path fill="none" stroke="midnightblue" d="M923.71,-208.7C944.44,-208.86 966.6,-209.02 987.91,-209.18"/>
<polygon fill="midnightblue" stroke="midnightblue" points="987.93,-212.68 997.95,-209.26 987.98,-205.68 987.93,-212.68"/>
</g>
<!-- Node13 -->
<g id="node13" class="node">
<title>Node13</title>
<g id="a_node13"><a xlink:href="class_player_master_controller.html#a16dbaeb841ba29cdc8b7cb3b3bc86d99" target="_top" xlink:title="Remove a card from ToGuessCard">
<polygon fill="white" stroke="black" points="970,-159.5 970,-180.5 1226,-180.5 1226,-159.5 970,-159.5"/>
<text text-anchor="middle" x="1098" y="-166.9" font-family="Helvetica,sans-Serif" font-size="12.00">PlayerMasterController.RemoveToGuessCard</text>
</a>
</g>
</g>
<!-- Node6&#45;&gt;Node13 -->
<g id="edge15" class="edge">
<title>Node6&#45;&gt;Node13</title>
<path fill="none" stroke="midnightblue" d="M904.38,-197.47C938.03,-192.67 978.03,-186.96 1012.83,-182"/>
<polygon fill="midnightblue" stroke="midnightblue" points="1013.57,-185.43 1022.98,-180.56 1012.58,-178.5 1013.57,-185.43"/>
</g>
<!-- Node8 -->
<g id="node8" class="node">
<title>Node8</title>
<g id="a_node8"><a xlink:href="class_turn_controller.html#af16e42b7e61c5a999291327e2e556caa" target="_top" xlink:title=" ">
<polygon fill="white" stroke="black" points="1281.5,-119.5 1281.5,-140.5 1463.5,-140.5 1463.5,-119.5 1281.5,-119.5"/>
<text text-anchor="middle" x="1372.5" y="-126.9" font-family="Helvetica,sans-Serif" font-size="12.00">TurnController.GetCurrentPlayer</text>
</a>
</g>
</g>
<!-- Node7&#45;&gt;Node8 -->
<g id="edge7" class="edge">
<title>Node7&#45;&gt;Node8</title>
<path fill="none" stroke="midnightblue" d="M1193.16,-130C1218.42,-130 1245.82,-130 1271.39,-130"/>
<polygon fill="midnightblue" stroke="midnightblue" points="1271.47,-133.5 1281.47,-130 1271.47,-126.5 1271.47,-133.5"/>
</g>
<!-- Node9&#45;&gt;Node5 -->
<g id="edge9" class="edge">
<title>Node9&#45;&gt;Node5</title>
<path fill="none" stroke="midnightblue" d="M1186.18,-220.57C1199.93,-224.08 1213.67,-228.76 1226,-235 1245.37,-244.79 1242.56,-258.34 1262,-268 1266.69,-270.33 1271.62,-272.4 1276.68,-274.22"/>
<polygon fill="midnightblue" stroke="midnightblue" points="1275.95,-277.66 1286.54,-277.44 1278.12,-271.01 1275.95,-277.66"/>
</g>
<!-- Node10 -->
<g id="node10" class="node">
<title>Node10</title>
<g id="a_node10"><a xlink:href="class_a_i_controller_script.html#ab124aec8211aa7b8f00c6ef5db6bc96a" target="_top" xlink:title="for out putting the debug stack if outputDebugText is true, it will out put the the console as well">
<polygon fill="white" stroke="black" points="1743,-237.5 1743,-258.5 1923,-258.5 1923,-237.5 1743,-237.5"/>
<text text-anchor="middle" x="1833" y="-244.9" font-family="Helvetica,sans-Serif" font-size="12.00">AIControllerScript.OutputDebug</text>
</a>
</g>
</g>
<!-- Node9&#45;&gt;Node10 -->
<g id="edge10" class="edge">
<title>Node9&#45;&gt;Node10</title>
<path fill="none" stroke="midnightblue" d="M1198.23,-209.02C1318.8,-208.73 1528.27,-211.13 1707,-228 1726.29,-229.82 1747.12,-232.76 1766.13,-235.83"/>
<polygon fill="midnightblue" stroke="midnightblue" points="1765.76,-239.31 1776.19,-237.49 1766.9,-232.41 1765.76,-239.31"/>
</g>
<!-- Node11 -->
<g id="node11" class="node">
<title>Node11</title>
<g id="a_node11"><a xlink:href="class_a_i_controller_script.html#aaee909cd0f0ffdedd8d8425607d7ccb5" target="_top" xlink:title="to set the AI&#39;s mode">
<polygon fill="white" stroke="black" points="1287.5,-237.5 1287.5,-258.5 1457.5,-258.5 1457.5,-237.5 1287.5,-237.5"/>
<text text-anchor="middle" x="1372.5" y="-244.9" font-family="Helvetica,sans-Serif" font-size="12.00">AIControllerScript.SetAIMode</text>
</a>
</g>
</g>
<!-- Node9&#45;&gt;Node11 -->
<g id="edge11" class="edge">
<title>Node9&#45;&gt;Node11</title>
<path fill="none" stroke="midnightblue" d="M1174.54,-220.53C1209.1,-225.35 1250.2,-231.08 1285.89,-236.06"/>
<polygon fill="midnightblue" stroke="midnightblue" points="1285.42,-239.53 1295.81,-237.44 1286.39,-232.6 1285.42,-239.53"/>
</g>
<!-- Node11&#45;&gt;Node10 -->
<g id="edge14" class="edge">
<title>Node11&#45;&gt;Node10</title>
<path fill="none" stroke="midnightblue" d="M1436.33,-258.55C1461.9,-262.34 1491.78,-266.14 1519,-268 1602.36,-273.7 1623.71,-274.62 1707,-268 1726.96,-266.41 1748.55,-263.42 1768.08,-260.23"/>
<polygon fill="midnightblue" stroke="midnightblue" points="1768.8,-263.66 1778.08,-258.55 1767.64,-256.75 1768.8,-263.66"/>
</g>
<!-- Node12 -->
<g id="node12" class="node">
<title>Node12</title>
<g id="a_node12"><a xlink:href="class_a_i_controller_script.html#afcb2875a5501f07a7f44d0fa720266f3" target="_top" xlink:title="to delay the time for the next time the AI does something in the Update">
<polygon fill="white" stroke="black" points="1519,-237.5 1519,-258.5 1707,-258.5 1707,-237.5 1519,-237.5"/>
<text text-anchor="middle" x="1613" y="-244.9" font-family="Helvetica,sans-Serif" font-size="12.00">AIControllerScript.DelayDecision</text>
</a>
</g>
</g>
<!-- Node11&#45;&gt;Node12 -->
<g id="edge12" class="edge">
<title>Node11&#45;&gt;Node12</title>
<path fill="none" stroke="midnightblue" d="M1457.59,-248C1474.18,-248 1491.77,-248 1508.9,-248"/>
<polygon fill="midnightblue" stroke="midnightblue" points="1508.93,-251.5 1518.93,-248 1508.93,-244.5 1508.93,-251.5"/>
</g>
<!-- Node12&#45;&gt;Node10 -->
<g id="edge13" class="edge">
<title>Node12&#45;&gt;Node10</title>
<path fill="none" stroke="midnightblue" d="M1707.08,-248C1715.48,-248 1724,-248 1732.44,-248"/>
<polygon fill="midnightblue" stroke="midnightblue" points="1732.69,-251.5 1742.69,-248 1732.69,-244.5 1732.69,-251.5"/>
</g>
<!-- Node14 -->
<g id="node14" class="node">
<title>Node14</title>
<g id="a_node14"><a xlink:href="class_player_stats_script.html#a9cfb94bd7661f4120b9ea69c025bd368" target="_top" xlink:title="remove a selected card from To Guess List">
<polygon fill="white" stroke="black" points="1262,-159.5 1262,-180.5 1483,-180.5 1483,-159.5 1262,-159.5"/>
<text text-anchor="middle" x="1372.5" y="-166.9" font-family="Helvetica,sans-Serif" font-size="12.00">PlayerStatsScript.RemoveToGessCard</text>
</a>
</g>
</g>
<!-- Node13&#45;&gt;Node14 -->
<g id="edge16" class="edge">
<title>Node13&#45;&gt;Node14</title>
<path fill="none" stroke="midnightblue" d="M1226.08,-170C1234.56,-170 1243.09,-170 1251.54,-170"/>
<polygon fill="midnightblue" stroke="midnightblue" points="1251.79,-173.5 1261.79,-170 1251.79,-166.5 1251.79,-173.5"/>
</g>
<!-- Node16 -->
<g id="node16" class="node">
<title>Node16</title>
<g id="a_node16"><a xlink:href="class_card_slot.html#a4690c0753db45ada6b02681269ecfbb1" target="_top" xlink:title=" ">
<polygon fill="white" stroke="black" points="1024.5,-353.5 1024.5,-374.5 1171.5,-374.5 1171.5,-353.5 1024.5,-353.5"/>
<text text-anchor="middle" x="1098" y="-360.9" font-family="Helvetica,sans-Serif" font-size="12.00">CardSlot.SetCardDetails</text>
</a>
</g>
</g>
<!-- Node15&#45;&gt;Node16 -->
<g id="edge18" class="edge">
<title>Node15&#45;&gt;Node16</title>
<path fill="none" stroke="midnightblue" d="M866.44,-296.52C914.23,-310.5 998.72,-335.23 1051.07,-350.56"/>
<polygon fill="midnightblue" stroke="midnightblue" points="1050.2,-353.95 1060.78,-353.4 1052.16,-347.23 1050.2,-353.95"/>
</g>
<!-- Node16&#45;&gt;Node5 -->
<g id="edge21" class="edge">
<title>Node16&#45;&gt;Node5</title>
<path fill="none" stroke="midnightblue" d="M1162.43,-353.48C1182.87,-349.56 1205.54,-344.67 1226,-339 1242.39,-334.46 1245.96,-331.68 1262,-326 1284.82,-317.92 1310.38,-309.04 1331.06,-301.9"/>
<polygon fill="midnightblue" stroke="midnightblue" points="1332.47,-305.11 1340.78,-298.54 1330.19,-298.5 1332.47,-305.11"/>
</g>
<!-- Node17 -->
<g id="node17" class="node">
<title>Node17</title>
<g id="a_node17"><a xlink:href="class_card.html#a25e8366933b176fae41e4d2373be7815" target="_top" xlink:title=" ">
<polygon fill="white" stroke="black" points="1311,-375.5 1311,-396.5 1434,-396.5 1434,-375.5 1311,-375.5"/>
<text text-anchor="middle" x="1372.5" y="-382.9" font-family="Helvetica,sans-Serif" font-size="12.00">Card.GetCardImage</text>
</a>
</g>
</g>
<!-- Node16&#45;&gt;Node17 -->
<g id="edge19" class="edge">
<title>Node16&#45;&gt;Node17</title>
<path fill="none" stroke="midnightblue" d="M1171.67,-369.87C1211.55,-373.09 1260.81,-377.06 1300.44,-380.26"/>
<polygon fill="midnightblue" stroke="midnightblue" points="1300.31,-383.76 1310.56,-381.08 1300.87,-376.79 1300.31,-383.76"/>
</g>
<!-- Node18 -->
<g id="node18" class="node">
<title>Node18</title>
<g id="a_node18"><a xlink:href="class_card.html#a094a5e7ea98cc156ac64e578a987be85" target="_top" xlink:title=" ">
<polygon fill="white" stroke="black" points="1314.5,-335.5 1314.5,-356.5 1430.5,-356.5 1430.5,-335.5 1314.5,-335.5"/>
<text text-anchor="middle" x="1372.5" y="-342.9" font-family="Helvetica,sans-Serif" font-size="12.00">Card.GetCardType</text>
</a>
</g>
</g>
<!-- Node16&#45;&gt;Node18 -->
<g id="edge20" class="edge">
<title>Node16&#45;&gt;Node18</title>
<path fill="none" stroke="midnightblue" d="M1171.67,-359.2C1212.8,-356.48 1263.9,-353.11 1304.13,-350.45"/>
<polygon fill="midnightblue" stroke="midnightblue" points="1304.36,-353.94 1314.11,-349.79 1303.9,-346.96 1304.36,-353.94"/>
</g>
<!-- Node19&#45;&gt;Node4 -->
<g id="edge23" class="edge">
<title>Node19&#45;&gt;Node4</title>
<path fill="none" stroke="midnightblue" d="M652.4,-139.5C683.61,-144.55 721.19,-150.63 753.6,-155.88"/>
<polygon fill="midnightblue" stroke="midnightblue" points="753.05,-159.34 763.48,-157.48 754.17,-152.43 753.05,-159.34"/>
</g>
<!-- Node19&#45;&gt;Node5 -->
<g id="edge25" class="edge">
<title>Node19&#45;&gt;Node5</title>
<path fill="none" stroke="midnightblue" d="M643.61,-118.46C782.46,-93.74 1137.3,-39.24 1226,-110 1282.3,-154.92 1209.98,-218.19 1262,-268 1263.3,-269.24 1264.64,-270.42 1266.03,-271.53"/>
<polygon fill="midnightblue" stroke="midnightblue" points="1264.21,-274.53 1274.44,-277.28 1268.16,-268.75 1264.21,-274.53"/>
</g>
<!-- Node19&#45;&gt;Node7 -->
<g id="edge24" class="edge">
<title>Node19&#45;&gt;Node7</title>
<path fill="none" stroke="midnightblue" d="M675.09,-129.17C763.21,-129.34 899.1,-129.61 992.73,-129.8"/>
<polygon fill="midnightblue" stroke="midnightblue" points="992.78,-133.3 1002.79,-129.82 992.8,-126.3 992.78,-133.3"/>
</g>
<!-- Node20 -->
<g id="node20" class="node">
<title>Node20</title>
<g id="a_node20"><a xlink:href="class_card_slot.html#af678d8249e4d52bb791b47d4ed75e7f3" target="_top" xlink:title="Makes the card slot visible and its game object active">
<polygon fill="white" stroke="black" points="769.5,-41.5 769.5,-62.5 889.5,-62.5 889.5,-41.5 769.5,-41.5"/>
<text text-anchor="middle" x="829.5" y="-48.9" font-family="Helvetica,sans-Serif" font-size="12.00">CardSlot.SetVisible</text>
</a>
</g>
</g>
<!-- Node19&#45;&gt;Node20 -->
<g id="edge26" class="edge">
<title>Node19&#45;&gt;Node20</title>
<path fill="none" stroke="midnightblue" d="M664.34,-118.43C672.88,-115.93 681.28,-112.83 689,-109 708.18,-99.48 706.03,-86.92 725,-77 735.69,-71.41 747.65,-67.05 759.54,-63.65"/>
<polygon fill="midnightblue" stroke="midnightblue" points="760.71,-66.96 769.48,-61.01 758.92,-60.19 760.71,-66.96"/>
</g>
<!-- Node22 -->
<g id="node22" class="node">
<title>Node22</title>
<g id="a_node22"><a xlink:href="class_u_i_handler.html#a25f316e553a6f1b60fb6c04a8dc23613" target="_top" xlink:title="Dispalys text on screen">
<polygon fill="white" stroke="black" points="484,-78.5 484,-99.5 689,-99.5 689,-78.5 484,-78.5"/>
<text text-anchor="middle" x="586.5" y="-85.9" font-family="Helvetica,sans-Serif" font-size="12.00">UIHandler.DisplayOutputTextRoutine</text>
</a>
</g>
</g>
<!-- Node21&#45;&gt;Node22 -->
<g id="edge28" class="edge">
<title>Node21&#45;&gt;Node22</title>
<path fill="none" stroke="midnightblue" d="M418.71,-90.34C436.26,-90.2 455.09,-90.05 473.56,-89.9"/>
<polygon fill="midnightblue" stroke="midnightblue" points="473.8,-93.4 483.77,-89.82 473.74,-86.4 473.8,-93.4"/>
</g>
</g>
</svg>
