<?xml version="1.0" encoding="UTF-8" standalone="no"?>
<!DOCTYPE svg PUBLIC "-//W3C//DTD SVG 1.1//EN"
 "http://www.w3.org/Graphics/SVG/1.1/DTD/svg11.dtd">
<!-- Generated by graphviz version 2.47.1 (20210417.1919)
 -->
<!-- Title: UIHandler.TakeShortcutButton Pages: 1 -->
<svg width="1046pt" height="30pt"
 viewBox="0.00 0.00 1046.00 30.00" xmlns="http://www.w3.org/2000/svg" xmlns:xlink="http://www.w3.org/1999/xlink">
<g id="graph0" class="graph" transform="scale(1 1) rotate(0) translate(4 26)">
<title>UIHandler.TakeShortcutButton</title>
<polygon fill="white" stroke="transparent" points="-4,4 -4,-26 1042,-26 1042,4 -4,4"/>
<!-- Node1 -->
<g id="node1" class="node">
<title>Node1</title>
<g id="a_node1"><a xlink:title="Button for taking a shortcut">
<polygon fill="#bfbfbf" stroke="black" points="0,-0.5 0,-21.5 173,-21.5 173,-0.5 0,-0.5"/>
<text text-anchor="middle" x="86.5" y="-7.9" font-family="Helvetica,sans-Serif" font-size="12.00">UIHandler.TakeShortcutButton</text>
</a>
</g>
</g>
<!-- Node2 -->
<g id="node2" class="node">
<title>Node2</title>
<g id="a_node2"><a xlink:href="class_user_controller.html#a5141fbe53b6605d5431a4125ce8a1277" target="_top" xlink:title="Takes the shortcut">
<polygon fill="white" stroke="black" points="209,-0.5 209,-21.5 373,-21.5 373,-0.5 209,-0.5"/>
<text text-anchor="middle" x="291" y="-7.9" font-family="Helvetica,sans-Serif" font-size="12.00">UserController.TakeShortcut</text>
</a>
</g>
</g>
<!-- Node1&#45;&gt;Node2 -->
<g id="edge1" class="edge">
<title>Node1&#45;&gt;Node2</title>
<path fill="none" stroke="midnightblue" d="M173.08,-11C181.62,-11 190.31,-11 198.89,-11"/>
<polygon fill="midnightblue" stroke="midnightblue" points="198.92,-14.5 208.91,-11 198.91,-7.5 198.92,-14.5"/>
</g>
<!-- Node3 -->
<g id="node3" class="node">
<title>Node3</title>
<g id="a_node3"><a xlink:href="class_user_controller.html#a587c55687141d18f375e0504ea4649fa" target="_top" xlink:title="Gets the player controller for the current player">
<polygon fill="white" stroke="black" points="409,-0.5 409,-21.5 594,-21.5 594,-0.5 409,-0.5"/>
<text text-anchor="middle" x="501.5" y="-7.9" font-family="Helvetica,sans-Serif" font-size="12.00">UserController.GetCurrentPlayer</text>
</a>
</g>
</g>
<!-- Node2&#45;&gt;Node3 -->
<g id="edge2" class="edge">
<title>Node2&#45;&gt;Node3</title>
<path fill="none" stroke="midnightblue" d="M373.21,-11C381.59,-11 390.18,-11 398.75,-11"/>
<polygon fill="midnightblue" stroke="midnightblue" points="398.79,-14.5 408.79,-11 398.79,-7.5 398.79,-14.5"/>
</g>
<!-- Node4 -->
<g id="node4" class="node">
<title>Node4</title>
<g id="a_node4"><a xlink:href="class_round_manager.html#aab3f49a5e05508a8e023a497e763c1c8" target="_top" xlink:title="Gets the player controller for the current player">
<polygon fill="white" stroke="black" points="630,-0.5 630,-21.5 820,-21.5 820,-0.5 630,-0.5"/>
<text text-anchor="middle" x="725" y="-7.9" font-family="Helvetica,sans-Serif" font-size="12.00">RoundManager.GetCurrentPlayer</text>
</a>
</g>
</g>
<!-- Node3&#45;&gt;Node4 -->
<g id="edge3" class="edge">
<title>Node3&#45;&gt;Node4</title>
<path fill="none" stroke="midnightblue" d="M594.19,-11C602.66,-11 611.28,-11 619.85,-11"/>
<polygon fill="midnightblue" stroke="midnightblue" points="619.87,-14.5 629.87,-11 619.87,-7.5 619.87,-14.5"/>
</g>
<!-- Node5 -->
<g id="node5" class="node">
<title>Node5</title>
<g id="a_node5"><a xlink:href="class_turn_controller.html#af16e42b7e61c5a999291327e2e556caa" target="_top" xlink:title=" ">
<polygon fill="white" stroke="black" points="856,-0.5 856,-21.5 1038,-21.5 1038,-0.5 856,-0.5"/>
<text text-anchor="middle" x="947" y="-7.9" font-family="Helvetica,sans-Serif" font-size="12.00">TurnController.GetCurrentPlayer</text>
</a>
</g>
</g>
<!-- Node4&#45;&gt;Node5 -->
<g id="edge4" class="edge">
<title>Node4&#45;&gt;Node5</title>
<path fill="none" stroke="midnightblue" d="M820.26,-11C828.63,-11 837.13,-11 845.55,-11"/>
<polygon fill="midnightblue" stroke="midnightblue" points="845.78,-14.5 855.78,-11 845.78,-7.5 845.78,-14.5"/>
</g>
</g>
</svg>
