<?xml version="1.0" encoding="UTF-8" standalone="no"?>
<!DOCTYPE svg PUBLIC "-//W3C//DTD SVG 1.1//EN"
 "http://www.w3.org/Graphics/SVG/1.1/DTD/svg11.dtd">
<!-- Generated by graphviz version 2.47.1 (20210417.1919)
 -->
<!-- Title: BoardManager.CreateBoardArray Pages: 1 -->
<svg width="1011pt" height="90pt"
 viewBox="0.00 0.00 1011.00 90.00" xmlns="http://www.w3.org/2000/svg" xmlns:xlink="http://www.w3.org/1999/xlink">
<g id="graph0" class="graph" transform="scale(1 1) rotate(0) translate(4 86)">
<title>BoardManager.CreateBoardArray</title>
<polygon fill="white" stroke="transparent" points="-4,4 -4,-86 1007,-86 1007,4 -4,4"/>
<!-- Node1 -->
<g id="node1" class="node">
<title>Node1</title>
<g id="a_node1"><a xlink:title="Create 2d array of all board tiles">
<polygon fill="#bfbfbf" stroke="black" points="809,-20.5 809,-41.5 1003,-41.5 1003,-20.5 809,-20.5"/>
<text text-anchor="middle" x="906" y="-27.9" font-family="Helvetica,sans-Serif" font-size="12.00">BoardManager.CreateBoardArray</text>
</a>
</g>
</g>
<!-- Node2 -->
<g id="node2" class="node">
<title>Node2</title>
<g id="a_node2"><a xlink:href="class_board_builder.html#a1ce7b540b58b1e6fde74e064107ae954" target="_top" xlink:title="Randomly replace required number of general tiles with FreeRoll Tiles">
<polygon fill="white" stroke="black" points="559.5,-60.5 559.5,-81.5 753.5,-81.5 753.5,-60.5 559.5,-60.5"/>
<text text-anchor="middle" x="656.5" y="-67.9" font-family="Helvetica,sans-Serif" font-size="12.00">BoardBuilder.CreateFreeRollTiles</text>
</a>
</g>
</g>
<!-- Node1&#45;&gt;Node2 -->
<g id="edge1" class="edge">
<title>Node1&#45;&gt;Node2</title>
<path fill="none" stroke="midnightblue" d="M830.01,-43.12C795.73,-48.66 755.5,-55.16 722.52,-60.49"/>
<polygon fill="midnightblue" stroke="midnightblue" points="830.66,-46.56 839.97,-41.51 829.54,-39.65 830.66,-46.56"/>
</g>
<!-- Node4 -->
<g id="node4" class="node">
<title>Node4</title>
<g id="a_node4"><a xlink:href="class_board_builder.html#a82e09ea29b1d031cfe2fa3b444c12c99" target="_top" xlink:title="Method to create the board, initialise and place all items and pass references to board manager">
<polygon fill="white" stroke="black" points="161,-0.5 161,-21.5 292,-21.5 292,-0.5 161,-0.5"/>
<text text-anchor="middle" x="226.5" y="-7.9" font-family="Helvetica,sans-Serif" font-size="12.00">BoardBuilder.Initialise</text>
</a>
</g>
</g>
<!-- Node1&#45;&gt;Node4 -->
<g id="edge7" class="edge">
<title>Node1&#45;&gt;Node4</title>
<path fill="none" stroke="midnightblue" d="M838.04,-18.86C817.27,-15.63 794.25,-12.6 773,-11 599.71,2.05 394.57,-3.61 292.28,-7.86"/>
<polygon fill="midnightblue" stroke="midnightblue" points="837.61,-22.34 848.04,-20.45 838.71,-15.42 837.61,-22.34"/>
</g>
<!-- Node6 -->
<g id="node6" class="node">
<title>Node6</title>
<g id="a_node6"><a xlink:href="class_board_builder.html#aeeca1094dc5e50c5612bba9336efd9d3" target="_top" xlink:title="Randomly replace required number of general tiles with FreeAccusation Tiles">
<polygon fill="white" stroke="black" points="540,-20.5 540,-41.5 773,-41.5 773,-20.5 540,-20.5"/>
<text text-anchor="middle" x="656.5" y="-27.9" font-family="Helvetica,sans-Serif" font-size="12.00">BoardBuilder.CreateFreeSuggestionTiles</text>
</a>
</g>
</g>
<!-- Node1&#45;&gt;Node6 -->
<g id="edge5" class="edge">
<title>Node1&#45;&gt;Node6</title>
<path fill="none" stroke="midnightblue" d="M798.75,-31C790.32,-31 781.79,-31 773.3,-31"/>
<polygon fill="midnightblue" stroke="midnightblue" points="798.96,-34.5 808.96,-31 798.96,-27.5 798.96,-34.5"/>
</g>
<!-- Node3 -->
<g id="node3" class="node">
<title>Node3</title>
<g id="a_node3"><a xlink:href="class_board_builder.html#a7a499abdc0c02d659ea6fee6e7836f15" target="_top" xlink:title="Randomly place Free roll / accusation tiles.">
<polygon fill="white" stroke="black" points="328,-20.5 328,-41.5 504,-41.5 504,-20.5 328,-20.5"/>
<text text-anchor="middle" x="416" y="-27.9" font-family="Helvetica,sans-Serif" font-size="12.00">BoardBuilder.PlaceBonusTiles</text>
</a>
</g>
</g>
<!-- Node2&#45;&gt;Node3 -->
<g id="edge2" class="edge">
<title>Node2&#45;&gt;Node3</title>
<path fill="none" stroke="midnightblue" d="M582.81,-58.81C549.87,-53.28 511.3,-46.82 479.66,-41.51"/>
<polygon fill="midnightblue" stroke="midnightblue" points="582.4,-62.29 592.84,-60.49 583.55,-55.38 582.4,-62.29"/>
</g>
<!-- Node3&#45;&gt;Node4 -->
<g id="edge3" class="edge">
<title>Node3&#45;&gt;Node4</title>
<path fill="none" stroke="midnightblue" d="M317.65,-20.62C308.98,-19.69 300.35,-18.77 292.05,-17.89"/>
<polygon fill="midnightblue" stroke="midnightblue" points="317.52,-24.12 327.84,-21.7 318.26,-17.16 317.52,-24.12"/>
</g>
<!-- Node5 -->
<g id="node5" class="node">
<title>Node5</title>
<g id="a_node5"><a xlink:href="class_board_builder.html#a40848d7394ead9e79f4f2dad2d7756b8" target="_top" xlink:title=" ">
<polygon fill="white" stroke="black" points="0,-0.5 0,-21.5 125,-21.5 125,-0.5 0,-0.5"/>
<text text-anchor="middle" x="62.5" y="-7.9" font-family="Helvetica,sans-Serif" font-size="12.00">BoardBuilder.Awake</text>
</a>
</g>
</g>
<!-- Node4&#45;&gt;Node5 -->
<g id="edge4" class="edge">
<title>Node4&#45;&gt;Node5</title>
<path fill="none" stroke="midnightblue" d="M150.3,-11C141.84,-11 133.31,-11 125.05,-11"/>
<polygon fill="midnightblue" stroke="midnightblue" points="150.54,-14.5 160.54,-11 150.54,-7.5 150.54,-14.5"/>
</g>
<!-- Node6&#45;&gt;Node3 -->
<g id="edge6" class="edge">
<title>Node6&#45;&gt;Node3</title>
<path fill="none" stroke="midnightblue" d="M529.63,-31C521.02,-31 512.46,-31 504.13,-31"/>
<polygon fill="midnightblue" stroke="midnightblue" points="529.74,-34.5 539.74,-31 529.74,-27.5 529.74,-34.5"/>
</g>
</g>
</svg>
