<?xml version="1.0" encoding="UTF-8" standalone="no"?>
<!DOCTYPE svg PUBLIC "-//W3C//DTD SVG 1.1//EN"
 "http://www.w3.org/Graphics/SVG/1.1/DTD/svg11.dtd">
<!-- Generated by graphviz version 2.47.1 (20210417.1919)
 -->
<!-- Title: RoomEntryBoardTileScript.Start Pages: 1 -->
<svg width="468pt" height="110pt"
 viewBox="0.00 0.00 468.00 110.00" xmlns="http://www.w3.org/2000/svg" xmlns:xlink="http://www.w3.org/1999/xlink">
<g id="graph0" class="graph" transform="scale(1 1) rotate(0) translate(4 106)">
<title>RoomEntryBoardTileScript.Start</title>
<polygon fill="white" stroke="transparent" points="-4,4 -4,-106 464,-106 464,4 -4,4"/>
<!-- Node1 -->
<g id="node1" class="node">
<title>Node1</title>
<g id="a_node1"><a xlink:title="Set required Variables">
<polygon fill="#bfbfbf" stroke="black" points="0,-40.5 0,-61.5 184,-61.5 184,-40.5 0,-40.5"/>
<text text-anchor="middle" x="92" y="-47.9" font-family="Helvetica,sans-Serif" font-size="12.00">RoomEntryBoardTileScript.Start</text>
</a>
</g>
</g>
<!-- Node2 -->
<g id="node2" class="node">
<title>Node2</title>
<g id="a_node2"><a xlink:href="class_room_entry_board_tile_script.html#ac32d28fe8815d6b9c2a7271d145ad24a" target="_top" xlink:title="Set the reference to the closest door on the board">
<polygon fill="white" stroke="black" points="238,-80.5 238,-101.5 442,-101.5 442,-80.5 238,-80.5"/>
<text text-anchor="middle" x="340" y="-87.9" font-family="Helvetica,sans-Serif" font-size="12.00">RoomEntryBoardTileScript.GetDoor</text>
</a>
</g>
</g>
<!-- Node1&#45;&gt;Node2 -->
<g id="edge1" class="edge">
<title>Node1&#45;&gt;Node2</title>
<path fill="none" stroke="midnightblue" d="M157.63,-61.51C190.41,-66.84 230.39,-73.34 264.47,-78.88"/>
<polygon fill="midnightblue" stroke="midnightblue" points="263.94,-82.34 274.37,-80.49 265.06,-75.43 263.94,-82.34"/>
</g>
<!-- Node3 -->
<g id="node3" class="node">
<title>Node3</title>
<g id="a_node3"><a xlink:href="class_room_entry_board_tile_script.html#a9c64a40265b2c0f2771f945e993639d6" target="_top" xlink:title="Set reference to the closest room entry point on the board">
<polygon fill="white" stroke="black" points="224.5,-40.5 224.5,-61.5 455.5,-61.5 455.5,-40.5 224.5,-40.5"/>
<text text-anchor="middle" x="340" y="-47.9" font-family="Helvetica,sans-Serif" font-size="12.00">RoomEntryBoardTileScript.GetEntryPoint</text>
</a>
</g>
</g>
<!-- Node1&#45;&gt;Node3 -->
<g id="edge2" class="edge">
<title>Node1&#45;&gt;Node3</title>
<path fill="none" stroke="midnightblue" d="M184.25,-51C193.99,-51 204.02,-51 214.07,-51"/>
<polygon fill="midnightblue" stroke="midnightblue" points="214.11,-54.5 224.11,-51 214.11,-47.5 214.11,-54.5"/>
</g>
<!-- Node4 -->
<g id="node4" class="node">
<title>Node4</title>
<g id="a_node4"><a xlink:href="class_room_entry_board_tile_script.html#ae14f33e8fb193fd2113d29b5803f42e5" target="_top" xlink:title="Set the reference to the entry tilse roomScript">
<polygon fill="white" stroke="black" points="220,-0.5 220,-21.5 460,-21.5 460,-0.5 220,-0.5"/>
<text text-anchor="middle" x="340" y="-7.9" font-family="Helvetica,sans-Serif" font-size="12.00">RoomEntryBoardTileScript.GetRoomScript</text>
</a>
</g>
</g>
<!-- Node1&#45;&gt;Node4 -->
<g id="edge3" class="edge">
<title>Node1&#45;&gt;Node4</title>
<path fill="none" stroke="midnightblue" d="M157.63,-40.49C190.41,-35.16 230.39,-28.66 264.47,-23.12"/>
<polygon fill="midnightblue" stroke="midnightblue" points="265.06,-26.57 274.37,-21.51 263.94,-19.66 265.06,-26.57"/>
</g>
</g>
</svg>
