<?xml version="1.0" encoding="UTF-8" standalone="no"?>
<!DOCTYPE svg PUBLIC "-//W3C//DTD SVG 1.1//EN"
 "http://www.w3.org/Graphics/SVG/1.1/DTD/svg11.dtd">
<!-- Generated by graphviz version 2.47.1 (20210417.1919)
 -->
<!-- Title: AIControllerScript.DelayDecision Pages: 1 -->
<!--zoomable 489 -->
<svg id="main" version="1.1" xmlns="http://www.w3.org/2000/svg" xmlns:xlink="http://www.w3.org/1999/xlink" xml:space="preserve" onload="init(evt)">
<style type="text/css"><![CDATA[
.edge:hover path { stroke: red; }
.edge:hover polygon { stroke: red; fill: red; }
]]></style>
<script type="text/javascript"><![CDATA[
var edges = document.getElementsByTagName('g');
if (edges && edges.length) {
  for (var i=0;i<edges.length;i++) {
    if (edges[i].id.substr(0,4)=='edge') {
      edges[i].setAttribute('class','edge');
    }
  }
}
]]></script>
        <defs>
                <circle id="rim" cx="0" cy="0" r="7"/>
                <circle id="rim2" cx="0" cy="0" r="3.5"/>
                <g id="zoomPlus">
                        <use xlink:href="#rim" fill="#404040">
                                <set attributeName="fill" to="#808080" begin="zoomplus.mouseover" end="zoomplus.mouseout"/>
                        </use>
                        <path d="M-4,0h8M0,-4v8" fill="none" stroke="white" stroke-width="1.5" pointer-events="none"/>
                </g>
                <g id="zoomMin">
                        <use xlink:href="#rim" fill="#404040">
                                <set attributeName="fill" to="#808080" begin="zoomminus.mouseover" end="zoomminus.mouseout"/>
                        </use>
                        <path d="M-4,0h8" fill="none" stroke="white" stroke-width="1.5" pointer-events="none"/>
                </g>
                <g id="dirArrow">
                        <path fill="none" stroke="white" stroke-width="1.5" d="M0,-3.0v7 M-2.5,-0.5L0,-3.0L2.5,-0.5"/>
                </g>
               <g id="resetDef">
                       <use xlink:href="#rim2" fill="#404040">
                               <set attributeName="fill" to="#808080" begin="reset.mouseover" end="reset.mouseout"/>
                       </use>
               </g>
        </defs>

<script type="text/javascript">
var viewWidth = 2408;
var viewHeight = 489;
var sectionId = 'dynsection-24';
</script>
<script xlink:href="svgpan.js"/>
<svg id="graph" class="graph">
<g id="viewport">
<title>AIControllerScript.DelayDecision</title>
<polygon fill="white" stroke="transparent" points="-4,4 -4,-485.02 2404,-485.02 2404,4 -4,4"/>
<!-- Node1 -->
<g id="node1" class="node">
<title>Node1</title>
<g id="a_node1"><a xlink:title="to delay the time for the next time the AI does something in the Update">
<polygon fill="#bfbfbf" stroke="black" points="2212,-284.5 2212,-305.5 2400,-305.5 2400,-284.5 2212,-284.5"/>
<text text-anchor="middle" x="2306" y="-291.9" font-family="Helvetica,sans-Serif" font-size="12.00">AIControllerScript.DelayDecision</text>
</a>
</g>
</g>
<!-- Node2 -->
<g id="node2" class="node">
<title>Node2</title>
<g id="a_node2"><a xlink:href="class_a_i_controller_script.html#a7be5eb284c6258672e70af128f8638df" target="_top" xlink:title="Decides that cards to accuse based on the To Guess List">
<polygon fill="white" stroke="black" points="1756,-459.5 1756,-480.5 1970,-480.5 1970,-459.5 1756,-459.5"/>
<text text-anchor="middle" x="1863" y="-466.9" font-family="Helvetica,sans-Serif" font-size="12.00">AIControllerScript.Decide_Accusation</text>
</a>
</g>
</g>
<!-- Node1&#45;&gt;Node2 -->
<g id="edge1" class="edge">
<title>Node1&#45;&gt;Node2</title>
<path fill="none" stroke="midnightblue" d="M2283.87,-311.93C2259.2,-331.06 2216.57,-362.1 2176,-382 2089.44,-424.47 2063.35,-425.9 1970,-450 1956.31,-453.53 1941.47,-456.72 1927.36,-459.46"/>
<polygon fill="midnightblue" stroke="midnightblue" points="2286.11,-314.63 2291.82,-305.7 2281.79,-309.12 2286.11,-314.63"/>
</g>
<!-- Node5 -->
<g id="node5" class="node">
<title>Node5</title>
<g id="a_node5"><a xlink:href="class_a_i_controller_script.html#af04897fa0ae4ed5e472dea79bce8d7df" target="_top" xlink:title="Decides where the AI should move to this should match the flow chart of the AI">
<polygon fill="white" stroke="black" points="1758,-419.5 1758,-440.5 1968,-440.5 1968,-419.5 1758,-419.5"/>
<text text-anchor="middle" x="1863" y="-426.9" font-family="Helvetica,sans-Serif" font-size="12.00">AIControllerScript.Decide_Movement</text>
</a>
</g>
</g>
<!-- Node1&#45;&gt;Node5 -->
<g id="edge4" class="edge">
<title>Node1&#45;&gt;Node5</title>
<path fill="none" stroke="midnightblue" d="M2265.9,-309.05C2203.73,-331.11 2078.28,-374.51 1970,-405 1951.34,-410.25 1930.64,-415.31 1912.51,-419.48"/>
<polygon fill="midnightblue" stroke="midnightblue" points="2267.44,-312.22 2275.68,-305.57 2265.09,-305.62 2267.44,-312.22"/>
</g>
<!-- Node6 -->
<g id="node6" class="node">
<title>Node6</title>
<g id="a_node6"><a xlink:href="class_a_i_controller_script.html#affdf86fa313c46463a9a5a2b20020a17" target="_top" xlink:title="Decides what the AI should suggest this should match the flow chart of the AI">
<polygon fill="white" stroke="black" points="425,-32.5 425,-53.5 640,-53.5 640,-32.5 425,-32.5"/>
<text text-anchor="middle" x="532.5" y="-39.9" font-family="Helvetica,sans-Serif" font-size="12.00">AIControllerScript.Decide_Suggestion</text>
</a>
</g>
</g>
<!-- Node1&#45;&gt;Node6 -->
<g id="edge6" class="edge">
<title>Node1&#45;&gt;Node6</title>
<path fill="none" stroke="midnightblue" d="M2290.86,-275.94C2240.66,-210.65 2063.26,0 1864,0 1864,0 1864,0 988,0 850.49,0 690.61,-19.75 601.84,-32.48"/>
<polygon fill="midnightblue" stroke="midnightblue" points="2288.26,-278.3 2297.09,-284.15 2293.84,-274.07 2288.26,-278.3"/>
</g>
<!-- Node7 -->
<g id="node7" class="node">
<title>Node7</title>
<g id="a_node7"><a xlink:href="class_a_i_controller_script.html#aaee909cd0f0ffdedd8d8425607d7ccb5" target="_top" xlink:title="to set the AI&#39;s mode">
<polygon fill="white" stroke="black" points="2006,-265.5 2006,-286.5 2176,-286.5 2176,-265.5 2006,-265.5"/>
<text text-anchor="middle" x="2091" y="-272.9" font-family="Helvetica,sans-Serif" font-size="12.00">AIControllerScript.SetAIMode</text>
</a>
</g>
</g>
<!-- Node1&#45;&gt;Node7 -->
<g id="edge8" class="edge">
<title>Node1&#45;&gt;Node7</title>
<path fill="none" stroke="midnightblue" d="M2201.83,-285.8C2193.25,-285.03 2184.63,-284.26 2176.21,-283.51"/>
<polygon fill="midnightblue" stroke="midnightblue" points="2201.61,-289.29 2211.88,-286.69 2202.24,-282.32 2201.61,-289.29"/>
</g>
<!-- Node3 -->
<g id="node3" class="node">
<title>Node3</title>
<g id="a_node3"><a xlink:href="class_a_i_controller_script.html#ac31d9b8dbb75696b181eff1fbef41b97" target="_top" xlink:title="dictates what the AI will do depending on what mode it is in">
<polygon fill="white" stroke="black" points="215,-285.5 215,-306.5 389,-306.5 389,-285.5 215,-285.5"/>
<text text-anchor="middle" x="302" y="-292.9" font-family="Helvetica,sans-Serif" font-size="12.00">AIControllerScript.AIBehaviour</text>
</a>
</g>
</g>
<!-- Node2&#45;&gt;Node3 -->
<g id="edge2" class="edge">
<title>Node2&#45;&gt;Node3</title>
<path fill="none" stroke="midnightblue" d="M1745.45,-470C1656.22,-470 1530.09,-470 1419.5,-470 1419.5,-470 1419.5,-470 766.5,-470 614.1,-470 560.35,-509.04 425,-439 365.29,-408.11 322.68,-334.34 308.31,-306.7"/>
<polygon fill="midnightblue" stroke="midnightblue" points="1745.6,-473.5 1755.6,-470 1745.6,-466.5 1745.6,-473.5"/>
</g>
<!-- Node4 -->
<g id="node4" class="node">
<title>Node4</title>
<g id="a_node4"><a xlink:href="class_a_i_controller_script.html#a74dc0e720fafceb873d3b19c12f68d58" target="_top" xlink:title=" ">
<polygon fill="white" stroke="black" points="0,-285.5 0,-306.5 179,-306.5 179,-285.5 0,-285.5"/>
<text text-anchor="middle" x="89.5" y="-292.9" font-family="Helvetica,sans-Serif" font-size="12.00">AIControllerScript.FixedUpdate</text>
</a>
</g>
</g>
<!-- Node3&#45;&gt;Node4 -->
<g id="edge3" class="edge">
<title>Node3&#45;&gt;Node4</title>
<path fill="none" stroke="midnightblue" d="M204.57,-296C196.15,-296 187.67,-296 179.32,-296"/>
<polygon fill="midnightblue" stroke="midnightblue" points="204.77,-299.5 214.77,-296 204.77,-292.5 204.77,-299.5"/>
</g>
<!-- Node5&#45;&gt;Node3 -->
<g id="edge5" class="edge">
<title>Node5&#45;&gt;Node3</title>
<path fill="none" stroke="midnightblue" d="M1747.68,-430.8C1658.33,-431.36 1531.01,-432 1419.5,-432 1419.5,-432 1419.5,-432 766.5,-432 614.35,-432 564.76,-468.15 425,-408 372.44,-385.38 327.88,-330.25 310.63,-306.82"/>
<polygon fill="midnightblue" stroke="midnightblue" points="1747.86,-434.3 1757.84,-430.74 1747.82,-427.3 1747.86,-434.3"/>
</g>
<!-- Node6&#45;&gt;Node3 -->
<g id="edge7" class="edge">
<title>Node6&#45;&gt;Node3</title>
<path fill="none" stroke="midnightblue" d="M432.43,-58.14C429.86,-59.63 427.37,-61.24 425,-63 345.53,-121.8 313.22,-247.79 305.14,-285.27"/>
<polygon fill="midnightblue" stroke="midnightblue" points="434.13,-61.2 441.47,-53.57 430.97,-54.95 434.13,-61.2"/>
</g>
<!-- Node7&#45;&gt;Node2 -->
<g id="edge12" class="edge">
<title>Node7&#45;&gt;Node2</title>
<path fill="none" stroke="midnightblue" d="M2082.11,-296.49C2066.69,-333.62 2028.79,-411.75 1970,-450 1964.19,-453.78 1957.85,-456.88 1951.25,-459.43"/>
<polygon fill="midnightblue" stroke="midnightblue" points="2085.54,-297.35 2086.03,-286.76 2079.05,-294.74 2085.54,-297.35"/>
</g>
<!-- Node7&#45;&gt;Node3 -->
<g id="edge9" class="edge">
<title>Node7&#45;&gt;Node3</title>
<path fill="none" stroke="midnightblue" d="M2065.12,-291.91C2041.62,-306.02 2004.87,-325.78 1970,-335 1548.16,-446.56 1426.34,-394 990,-394 990,-394 990,-394 766.5,-394 598.92,-394 404.49,-331.92 332.1,-306.58"/>
<polygon fill="midnightblue" stroke="midnightblue" points="2067.04,-294.83 2073.74,-286.62 2063.39,-288.86 2067.04,-294.83"/>
</g>
<!-- Node7&#45;&gt;Node5 -->
<g id="edge13" class="edge">
<title>Node7&#45;&gt;Node5</title>
<path fill="none" stroke="midnightblue" d="M2070.66,-293.38C2053.11,-309.5 2026.87,-334.46 2006,-358 1988.54,-377.69 1992.09,-390.7 1970,-405 1960.32,-411.27 1949.23,-415.97 1937.96,-419.49"/>
<polygon fill="midnightblue" stroke="midnightblue" points="2073.03,-295.96 2078.06,-286.64 2068.31,-290.79 2073.03,-295.96"/>
</g>
<!-- Node7&#45;&gt;Node6 -->
<g id="edge14" class="edge">
<title>Node7&#45;&gt;Node6</title>
<path fill="none" stroke="midnightblue" d="M2079.37,-256.49C2061.39,-225.61 2021.79,-166.18 1970,-139 1739.42,-17.97 932.47,-30.36 640.21,-39.16"/>
<polygon fill="midnightblue" stroke="midnightblue" points="2076.47,-258.47 2084.44,-265.44 2082.56,-255.02 2076.47,-258.47"/>
</g>
<!-- Node8 -->
<g id="node8" class="node">
<title>Node8</title>
<g id="a_node8"><a xlink:href="class_a_i_controller_script.html#af05eaa86fd4cfef3b4b0b79b0883322c" target="_top" xlink:title="the AI enter this when it is thinking to decide what to do this should match the flow chart of the AI">
<polygon fill="white" stroke="black" points="1551.5,-226.5 1551.5,-247.5 1700.5,-247.5 1700.5,-226.5 1551.5,-226.5"/>
<text text-anchor="middle" x="1626" y="-233.9" font-family="Helvetica,sans-Serif" font-size="12.00">AIControllerScript.AIThink</text>
</a>
</g>
</g>
<!-- Node7&#45;&gt;Node8 -->
<g id="edge10" class="edge">
<title>Node7&#45;&gt;Node8</title>
<path fill="none" stroke="midnightblue" d="M1995.64,-264.6C1986.98,-263.67 1978.33,-262.79 1970,-262 1877.27,-253.22 1770.19,-245.85 1700.68,-241.44"/>
<polygon fill="midnightblue" stroke="midnightblue" points="1995.48,-268.1 2005.8,-265.71 1996.24,-261.15 1995.48,-268.1"/>
</g>
<!-- Node9 -->
<g id="node9" class="node">
<title>Node9</title>
<g id="a_node9"><a xlink:href="class_a_i_controller_script.html#a9c386cf1258ad897c9a1068804f07ba0" target="_top" xlink:title="have AI to end turn">
<polygon fill="white" stroke="black" points="690,-285.5 690,-306.5 845,-306.5 845,-285.5 690,-285.5"/>
<text text-anchor="middle" x="767.5" y="-292.9" font-family="Helvetica,sans-Serif" font-size="12.00">AIControllerScript.EndTurn</text>
</a>
</g>
</g>
<!-- Node7&#45;&gt;Node9 -->
<g id="edge15" class="edge">
<title>Node7&#45;&gt;Node9</title>
<path fill="none" stroke="midnightblue" d="M1995.93,-276C1902.38,-276 1754.77,-276 1627,-276 1627,-276 1627,-276 1211,-276 1082.57,-276 933.4,-284.51 845.19,-290.43"/>
<polygon fill="midnightblue" stroke="midnightblue" points="1995.94,-279.5 2005.94,-276 1995.94,-272.5 1995.94,-279.5"/>
</g>
<!-- Node10 -->
<g id="node10" class="node">
<title>Node10</title>
<g id="a_node10"><a xlink:href="class_a_i_test_script.html#acf1d66cab2a4099b11dac18aa2532377" target="_top" xlink:title=" ">
<polygon fill="white" stroke="black" points="1788.5,-28.5 1788.5,-49.5 1937.5,-49.5 1937.5,-28.5 1788.5,-28.5"/>
<text text-anchor="middle" x="1863" y="-35.9" font-family="Helvetica,sans-Serif" font-size="12.00">AITestScript.HaveAIMove</text>
</a>
</g>
</g>
<!-- Node7&#45;&gt;Node10 -->
<g id="edge17" class="edge">
<title>Node7&#45;&gt;Node10</title>
<path fill="none" stroke="midnightblue" d="M2084.41,-255.29C2071.73,-212.45 2036.6,-113.97 1970,-64 1960.47,-56.85 1949.21,-51.71 1937.65,-48.01"/>
<polygon fill="midnightblue" stroke="midnightblue" points="2081.11,-256.48 2087.22,-265.14 2087.84,-254.56 2081.11,-256.48"/>
</g>
<!-- Node11 -->
<g id="node11" class="node">
<title>Node11</title>
<g id="a_node11"><a xlink:href="class_a_i_controller_script.html#a208f5afe4102ff2ca04a03a425d76279" target="_top" xlink:title="for the round manager to notify that another player finished picking a card to show">
<polygon fill="white" stroke="black" points="1763,-148.5 1763,-169.5 1963,-169.5 1963,-148.5 1763,-148.5"/>
<text text-anchor="middle" x="1863" y="-155.9" font-family="Helvetica,sans-Serif" font-size="12.00">AIControllerScript.NotifySuggestion</text>
</a>
</g>
</g>
<!-- Node7&#45;&gt;Node11 -->
<g id="edge18" class="edge">
<title>Node7&#45;&gt;Node11</title>
<path fill="none" stroke="midnightblue" d="M2072.17,-258.34C2050.06,-237.46 2010.35,-203.14 1970,-184 1957.02,-177.84 1942.4,-173.14 1928.26,-169.57"/>
<polygon fill="midnightblue" stroke="midnightblue" points="2069.85,-260.97 2079.48,-265.37 2074.7,-255.92 2069.85,-260.97"/>
</g>
<!-- Node20 -->
<g id="node20" class="node">
<title>Node20</title>
<g id="a_node20"><a xlink:href="class_a_i_controller_script.html#a1584ffc08f2ea88236ad6df47319636b" target="_top" xlink:title="have AI to roll">
<polygon fill="white" stroke="black" points="1341,-188.5 1341,-209.5 1496,-209.5 1496,-188.5 1341,-188.5"/>
<text text-anchor="middle" x="1418.5" y="-195.9" font-family="Helvetica,sans-Serif" font-size="12.00">AIControllerScript.RollDice</text>
</a>
</g>
</g>
<!-- Node7&#45;&gt;Node20 -->
<g id="edge30" class="edge">
<title>Node7&#45;&gt;Node20</title>
<path fill="none" stroke="midnightblue" d="M2050.01,-262.29C2026.89,-254.88 1997.1,-246.21 1970,-241 1803.15,-208.96 1603.44,-201.15 1496.36,-199.38"/>
<polygon fill="midnightblue" stroke="midnightblue" points="2049.22,-265.71 2059.81,-265.48 2051.38,-259.05 2049.22,-265.71"/>
</g>
<!-- Node21 -->
<g id="node21" class="node">
<title>Node21</title>
<g id="a_node21"><a xlink:href="class_a_i_controller_script.html#acb4af4c99bf1e7610b45d9f81457d625" target="_top" xlink:title="have AI to start turn">
<polygon fill="white" stroke="black" points="1784,-304.5 1784,-325.5 1942,-325.5 1942,-304.5 1784,-304.5"/>
<text text-anchor="middle" x="1863" y="-311.9" font-family="Helvetica,sans-Serif" font-size="12.00">AIControllerScript.StartTurn</text>
</a>
</g>
</g>
<!-- Node7&#45;&gt;Node21 -->
<g id="edge32" class="edge">
<title>Node7&#45;&gt;Node21</title>
<path fill="none" stroke="midnightblue" d="M2019.09,-288.24C1988.88,-293.45 1954,-299.47 1924.97,-304.48"/>
<polygon fill="midnightblue" stroke="midnightblue" points="2019.88,-291.65 2029.14,-286.5 2018.69,-284.75 2019.88,-291.65"/>
</g>
<!-- Node8&#45;&gt;Node3 -->
<g id="edge11" class="edge">
<title>Node8&#45;&gt;Node3</title>
<path fill="none" stroke="midnightblue" d="M1541.16,-237.32C1457.91,-237.61 1326.64,-238 1213,-238 1213,-238 1213,-238 766.5,-238 615.26,-238 438.38,-268.78 353.49,-285.5"/>
<polygon fill="midnightblue" stroke="midnightblue" points="1541.33,-240.82 1551.32,-237.29 1541.31,-233.82 1541.33,-240.82"/>
</g>
<!-- Node9&#45;&gt;Node3 -->
<g id="edge16" class="edge">
<title>Node9&#45;&gt;Node3</title>
<path fill="none" stroke="midnightblue" d="M679.79,-296C596.69,-296 472,-296 389.11,-296"/>
<polygon fill="midnightblue" stroke="midnightblue" points="679.96,-299.5 689.96,-296 679.96,-292.5 679.96,-299.5"/>
</g>
<!-- Node12 -->
<g id="node12" class="node">
<title>Node12</title>
<g id="a_node12"><a xlink:href="class_round_manager.html#a6cf32ad7ffd3cafc902ae5faeb7605f8" target="_top" xlink:title="removing a card from the player&#39;s To Guess List notify the AI if a player finished showing a suggeste...">
<polygon fill="white" stroke="black" points="1532,-148.5 1532,-169.5 1720,-169.5 1720,-148.5 1532,-148.5"/>
<text text-anchor="middle" x="1626" y="-155.9" font-family="Helvetica,sans-Serif" font-size="12.00">RoundManager.NotifySuggestion</text>
</a>
</g>
</g>
<!-- Node11&#45;&gt;Node12 -->
<g id="edge19" class="edge">
<title>Node11&#45;&gt;Node12</title>
<path fill="none" stroke="midnightblue" d="M1752.44,-159C1741.71,-159 1730.9,-159 1720.35,-159"/>
<polygon fill="midnightblue" stroke="midnightblue" points="1752.68,-162.5 1762.68,-159 1752.68,-155.5 1752.68,-162.5"/>
</g>
<!-- Node13 -->
<g id="node13" class="node">
<title>Node13</title>
<g id="a_node13"><a xlink:href="class_round_manager.html#a596fc1c822ebb74dad8d238b15b1ea3a" target="_top" xlink:title="Iterate through the rest of the players searching for if 1 or more of the cards were found">
<polygon fill="white" stroke="black" points="895,-112.5 895,-133.5 1083,-133.5 1083,-112.5 895,-112.5"/>
<text text-anchor="middle" x="989" y="-119.9" font-family="Helvetica,sans-Serif" font-size="12.00">RoundManager.MakeSuggestion</text>
</a>
</g>
</g>
<!-- Node12&#45;&gt;Node13 -->
<g id="edge20" class="edge">
<title>Node12&#45;&gt;Node13</title>
<path fill="none" stroke="midnightblue" d="M1521.51,-158.93C1419.1,-158.05 1257.94,-154.53 1119,-142 1096.9,-140.01 1072.82,-136.76 1051.51,-133.5"/>
<polygon fill="midnightblue" stroke="midnightblue" points="1521.52,-162.43 1531.55,-159.01 1521.57,-155.43 1521.52,-162.43"/>
</g>
<!-- Node17 -->
<g id="node17" class="node">
<title>Node17</title>
<g id="a_node17"><a xlink:href="class_u_i_handler.html#a4009ca74f59111933be2a637c7835e18" target="_top" xlink:title="Displays a card from a player that has it">
<polygon fill="white" stroke="black" points="1355.5,-110.5 1355.5,-131.5 1481.5,-131.5 1481.5,-110.5 1355.5,-110.5"/>
<text text-anchor="middle" x="1418.5" y="-117.9" font-family="Helvetica,sans-Serif" font-size="12.00">UIHandler.ShowCard</text>
</a>
</g>
</g>
<!-- Node12&#45;&gt;Node17 -->
<g id="edge26" class="edge">
<title>Node12&#45;&gt;Node17</title>
<path fill="none" stroke="midnightblue" d="M1558.13,-146.63C1531.8,-141.77 1501.87,-136.23 1476.58,-131.56"/>
<polygon fill="midnightblue" stroke="midnightblue" points="1557.56,-150.09 1568.03,-148.47 1558.83,-143.21 1557.56,-150.09"/>
</g>
<!-- Node14 -->
<g id="node14" class="node">
<title>Node14</title>
<g id="a_node14"><a xlink:href="class_suggestion_test.html#ac6fed8b504eb8b103cb5c38fa895edf3" target="_top" xlink:title="get test choices and make suggestion">
<polygon fill="white" stroke="black" points="437.5,-112.5 437.5,-133.5 627.5,-133.5 627.5,-112.5 437.5,-112.5"/>
<text text-anchor="middle" x="532.5" y="-119.9" font-family="Helvetica,sans-Serif" font-size="12.00">SuggestionTest.MakeSuggestion</text>
</a>
</g>
</g>
<!-- Node13&#45;&gt;Node14 -->
<g id="edge21" class="edge">
<title>Node13&#45;&gt;Node14</title>
<path fill="none" stroke="midnightblue" d="M884.69,-123C807.41,-123 702.59,-123 627.62,-123"/>
<polygon fill="midnightblue" stroke="midnightblue" points="884.93,-126.5 894.93,-123 884.93,-119.5 884.93,-126.5"/>
</g>
<!-- Node15 -->
<g id="node15" class="node">
<title>Node15</title>
<g id="a_node15"><a xlink:href="class_user_controller.html#a6230816eec4c8be9bda248a166d7b9bd" target="_top" xlink:title="Makes suggestion">
<polygon fill="white" stroke="black" points="676,-73.5 676,-94.5 859,-94.5 859,-73.5 676,-73.5"/>
<text text-anchor="middle" x="767.5" y="-80.9" font-family="Helvetica,sans-Serif" font-size="12.00">UserController.MakeSuggestion</text>
</a>
</g>
</g>
<!-- Node13&#45;&gt;Node15 -->
<g id="edge22" class="edge">
<title>Node13&#45;&gt;Node15</title>
<path fill="none" stroke="midnightblue" d="M918.75,-110.7C889.5,-105.5 855.79,-99.51 827.72,-94.52"/>
<polygon fill="midnightblue" stroke="midnightblue" points="918.43,-114.19 928.89,-112.5 919.66,-107.3 918.43,-114.19"/>
</g>
<!-- Node15&#45;&gt;Node6 -->
<g id="edge24" class="edge">
<title>Node15&#45;&gt;Node6</title>
<path fill="none" stroke="midnightblue" d="M696.79,-71.73C663.89,-65.94 625.01,-59.1 593.45,-53.55"/>
<polygon fill="midnightblue" stroke="midnightblue" points="696.34,-75.21 706.8,-73.49 697.56,-68.31 696.34,-75.21"/>
</g>
<!-- Node15&#45;&gt;Node14 -->
<g id="edge25" class="edge">
<title>Node15&#45;&gt;Node14</title>
<path fill="none" stroke="midnightblue" d="M693.8,-96.17C662.57,-101.4 626.41,-107.45 596.36,-112.48"/>
<polygon fill="midnightblue" stroke="midnightblue" points="694.47,-99.61 703.75,-94.5 693.31,-92.7 694.47,-99.61"/>
</g>
<!-- Node16 -->
<g id="node16" class="node">
<title>Node16</title>
<g id="a_node16"><a xlink:href="class_u_i_handler.html#ae6960c4c231f0e85718af2150449bb1f" target="_top" xlink:title="Hides the suggestion panel">
<polygon fill="white" stroke="black" points="447,-72.5 447,-93.5 618,-93.5 618,-72.5 447,-72.5"/>
<text text-anchor="middle" x="532.5" y="-79.9" font-family="Helvetica,sans-Serif" font-size="12.00">UIHandler.ConfirmSuggestion</text>
</a>
</g>
</g>
<!-- Node15&#45;&gt;Node16 -->
<g id="edge23" class="edge">
<title>Node15&#45;&gt;Node16</title>
<path fill="none" stroke="midnightblue" d="M665.47,-83.57C649.74,-83.5 633.62,-83.43 618.29,-83.36"/>
<polygon fill="midnightblue" stroke="midnightblue" points="665.73,-87.07 675.75,-83.61 665.76,-80.07 665.73,-87.07"/>
</g>
<!-- Node18 -->
<g id="node18" class="node">
<title>Node18</title>
<g id="a_node18"><a xlink:href="class_round_manager.html#a780da336fd16dcaee0f00306578f13b4" target="_top" xlink:title=" ">
<polygon fill="white" stroke="black" points="1129,-111.5 1129,-132.5 1295,-132.5 1295,-111.5 1129,-111.5"/>
<text text-anchor="middle" x="1212" y="-118.9" font-family="Helvetica,sans-Serif" font-size="12.00">RoundManager.AIShowCard</text>
</a>
</g>
</g>
<!-- Node17&#45;&gt;Node18 -->
<g id="edge27" class="edge">
<title>Node17&#45;&gt;Node18</title>
<path fill="none" stroke="midnightblue" d="M1344.92,-121.35C1328.85,-121.43 1311.7,-121.52 1295.27,-121.6"/>
<polygon fill="midnightblue" stroke="midnightblue" points="1345.33,-124.85 1355.31,-121.3 1345.29,-117.85 1345.33,-124.85"/>
</g>
<!-- Node19 -->
<g id="node19" class="node">
<title>Node19</title>
<g id="a_node19"><a xlink:href="class_u_i_handler.html#a7e471e88a4baaa1993d0a85035c38016" target="_top" xlink:title="After pressing a card to choose pass this card to show it">
<polygon fill="white" stroke="black" points="1125.5,-71.5 1125.5,-92.5 1298.5,-92.5 1298.5,-71.5 1125.5,-71.5"/>
<text text-anchor="middle" x="1212" y="-78.9" font-family="Helvetica,sans-Serif" font-size="12.00">UIHandler.ShowSelectedCard</text>
</a>
</g>
</g>
<!-- Node17&#45;&gt;Node19 -->
<g id="edge29" class="edge">
<title>Node17&#45;&gt;Node19</title>
<path fill="none" stroke="midnightblue" d="M1352.26,-108.56C1325.18,-103.39 1294.09,-97.47 1268.17,-92.52"/>
<polygon fill="midnightblue" stroke="midnightblue" points="1351.95,-112.06 1362.43,-110.5 1353.26,-105.19 1351.95,-112.06"/>
</g>
<!-- Node18&#45;&gt;Node13 -->
<g id="edge28" class="edge">
<title>Node18&#45;&gt;Node13</title>
<path fill="none" stroke="midnightblue" d="M1118.52,-122.42C1106.82,-122.47 1094.85,-122.53 1083.15,-122.58"/>
<polygon fill="midnightblue" stroke="midnightblue" points="1118.72,-125.92 1128.71,-122.37 1118.69,-118.92 1118.72,-125.92"/>
</g>
<!-- Node20&#45;&gt;Node3 -->
<g id="edge31" class="edge">
<title>Node20&#45;&gt;Node3</title>
<path fill="none" stroke="midnightblue" d="M1330.64,-199.32C1244.26,-199.61 1107.98,-200 990,-200 990,-200 990,-200 766.5,-200 614.35,-200 570.28,-178.79 425,-224 381.79,-237.44 337.67,-268.76 316.27,-285.31"/>
<polygon fill="midnightblue" stroke="midnightblue" points="1330.67,-202.82 1340.66,-199.29 1330.65,-195.82 1330.67,-202.82"/>
</g>
<!-- Node22 -->
<g id="node22" class="node">
<title>Node22</title>
<g id="a_node22"><a xlink:href="class_a_i_controller_script.html#a606c498cbb805d816c1b06f94631a960" target="_top" xlink:title="to activate the AI or not set which player the AI is controlling">
<polygon fill="white" stroke="black" points="1545.5,-304.5 1545.5,-325.5 1706.5,-325.5 1706.5,-304.5 1545.5,-304.5"/>
<text text-anchor="middle" x="1626" y="-311.9" font-family="Helvetica,sans-Serif" font-size="12.00">AIControllerScript.SetActive</text>
</a>
</g>
</g>
<!-- Node21&#45;&gt;Node22 -->
<g id="edge33" class="edge">
<title>Node21&#45;&gt;Node22</title>
<path fill="none" stroke="midnightblue" d="M1773.73,-315C1751.66,-315 1728.13,-315 1706.51,-315"/>
<polygon fill="midnightblue" stroke="midnightblue" points="1773.75,-318.5 1783.75,-315 1773.75,-311.5 1773.75,-318.5"/>
</g>
<!-- Node23 -->
<g id="node23" class="node">
<title>Node23</title>
<g id="a_node23"><a xlink:href="class_round_manager.html#acf644ae21a6f9ebc2a476fc8603e18fc" target="_top" xlink:title="Method for starting the turn">
<polygon fill="white" stroke="black" points="1345,-304.5 1345,-325.5 1492,-325.5 1492,-304.5 1345,-304.5"/>
<text text-anchor="middle" x="1418.5" y="-311.9" font-family="Helvetica,sans-Serif" font-size="12.00">RoundManager.StartTurn</text>
</a>
</g>
</g>
<!-- Node22&#45;&gt;Node23 -->
<g id="edge34" class="edge">
<title>Node22&#45;&gt;Node23</title>
<path fill="none" stroke="midnightblue" d="M1534.92,-315C1520.62,-315 1505.98,-315 1492.15,-315"/>
<polygon fill="midnightblue" stroke="midnightblue" points="1535.25,-318.5 1545.25,-315 1535.25,-311.5 1535.25,-318.5"/>
</g>
<!-- Node24 -->
<g id="node24" class="node">
<title>Node24</title>
<g id="a_node24"><a xlink:href="class_round_manager.html#a29177f2e27c6c4af55dfa3c48d67cfb0" target="_top" xlink:title="Ending the turn. Returns the next player">
<polygon fill="white" stroke="black" points="1140.5,-344.5 1140.5,-365.5 1283.5,-365.5 1283.5,-344.5 1140.5,-344.5"/>
<text text-anchor="middle" x="1212" y="-351.9" font-family="Helvetica,sans-Serif" font-size="12.00">RoundManager.EndTurn</text>
</a>
</g>
</g>
<!-- Node23&#45;&gt;Node24 -->
<g id="edge35" class="edge">
<title>Node23&#45;&gt;Node24</title>
<path fill="none" stroke="midnightblue" d="M1353.71,-327.48C1325.79,-332.94 1293.39,-339.28 1266.73,-344.49"/>
<polygon fill="midnightblue" stroke="midnightblue" points="1354.63,-330.86 1363.77,-325.51 1353.28,-323.99 1354.63,-330.86"/>
</g>
<!-- Node27 -->
<g id="node27" class="node">
<title>Node27</title>
<g id="a_node27"><a xlink:href="class_game_manager_script.html#a12cbaf1ff00804887619c07c7267cf31" target="_top" xlink:title="starting and initialing the game and it&#39;s components">
<polygon fill="white" stroke="black" points="1119,-304.5 1119,-325.5 1305,-325.5 1305,-304.5 1119,-304.5"/>
<text text-anchor="middle" x="1212" y="-311.9" font-family="Helvetica,sans-Serif" font-size="12.00">GameManagerScript.StartGame</text>
</a>
</g>
</g>
<!-- Node23&#45;&gt;Node27 -->
<g id="edge39" class="edge">
<title>Node23&#45;&gt;Node27</title>
<path fill="none" stroke="midnightblue" d="M1334.76,-315C1325,-315 1315,-315 1305.12,-315"/>
<polygon fill="midnightblue" stroke="midnightblue" points="1334.83,-318.5 1344.83,-315 1334.83,-311.5 1334.83,-318.5"/>
</g>
<!-- Node25 -->
<g id="node25" class="node">
<title>Node25</title>
<g id="a_node25"><a xlink:href="class_user_controller.html#ab90611f541e20c125133d09b62407f41" target="_top" xlink:title="Ends turn">
<polygon fill="white" stroke="black" points="920,-344.5 920,-365.5 1058,-365.5 1058,-344.5 920,-344.5"/>
<text text-anchor="middle" x="989" y="-351.9" font-family="Helvetica,sans-Serif" font-size="12.00">UserController.EndTurn</text>
</a>
</g>
</g>
<!-- Node24&#45;&gt;Node25 -->
<g id="edge36" class="edge">
<title>Node24&#45;&gt;Node25</title>
<path fill="none" stroke="midnightblue" d="M1130.46,-355C1106.81,-355 1081.17,-355 1058.36,-355"/>
<polygon fill="midnightblue" stroke="midnightblue" points="1130.47,-358.5 1140.47,-355 1130.47,-351.5 1130.47,-358.5"/>
</g>
<!-- Node25&#45;&gt;Node9 -->
<g id="edge37" class="edge">
<title>Node25&#45;&gt;Node9</title>
<path fill="none" stroke="midnightblue" d="M925.17,-342.27C915.04,-339.99 904.71,-337.54 895,-335 862.31,-326.46 825.45,-314.87 799.99,-306.55"/>
<polygon fill="midnightblue" stroke="midnightblue" points="924.67,-345.74 935.18,-344.48 926.17,-338.91 924.67,-345.74"/>
</g>
<!-- Node26 -->
<g id="node26" class="node">
<title>Node26</title>
<g id="a_node26"><a xlink:href="class_u_i_handler.html#acc06a1dab8566d9e14f7ab3ae1ffea93" target="_top" xlink:title="Ends current player&#39;s turn">
<polygon fill="white" stroke="black" points="710.5,-344.5 710.5,-365.5 824.5,-365.5 824.5,-344.5 710.5,-344.5"/>
<text text-anchor="middle" x="767.5" y="-351.9" font-family="Helvetica,sans-Serif" font-size="12.00">UIHandler.EndTurn</text>
</a>
</g>
</g>
<!-- Node25&#45;&gt;Node26 -->
<g id="edge38" class="edge">
<title>Node25&#45;&gt;Node26</title>
<path fill="none" stroke="midnightblue" d="M909.55,-355C881.46,-355 850.38,-355 824.56,-355"/>
<polygon fill="midnightblue" stroke="midnightblue" points="909.75,-358.5 919.75,-355 909.75,-351.5 909.75,-358.5"/>
</g>
<!-- Node28 -->
<g id="node28" class="node">
<title>Node28</title>
<g id="a_node28"><a xlink:href="class_suggestion_test.html#a904e4481863c3e620574eba37c993a26" target="_top" xlink:title=" ">
<polygon fill="white" stroke="black" points="926,-304.5 926,-325.5 1052,-325.5 1052,-304.5 926,-304.5"/>
<text text-anchor="middle" x="989" y="-311.9" font-family="Helvetica,sans-Serif" font-size="12.00">SuggestionTest.Start</text>
</a>
</g>
</g>
<!-- Node27&#45;&gt;Node28 -->
<g id="edge40" class="edge">
<title>Node27&#45;&gt;Node28</title>
<path fill="none" stroke="midnightblue" d="M1108.8,-315C1089.44,-315 1069.75,-315 1052.1,-315"/>
<polygon fill="midnightblue" stroke="midnightblue" points="1108.88,-318.5 1118.88,-315 1108.88,-311.5 1108.88,-318.5"/>
</g>
</g>
</svg>
        <g id="navigator" transform="translate(0 0)" fill="#404254">
                <rect fill="#f2f5e9" fill-opacity="0.5" stroke="#606060" stroke-width=".5" x="0" y="0" width="60" height="60"/>
                <use id="zoomplus" xlink:href="#zoomPlus" x="17" y="9" onmousedown="handleZoom(evt,'in')"/>
                <use id="zoomminus" xlink:href="#zoomMin" x="42" y="9" onmousedown="handleZoom(evt,'out')"/>
                <use id="reset" xlink:href="#resetDef" x="30" y="36" onmousedown="handleReset()"/>
                <g id="arrowUp" xlink:href="#dirArrow" transform="translate(30 24)" onmousedown="handlePan(0,-1)">
                  <use xlink:href="#rim" fill="#404040">
                        <set attributeName="fill" to="#808080" begin="arrowUp.mouseover" end="arrowUp.mouseout"/>
                  </use>
                  <path fill="none" stroke="white" stroke-width="1.5" d="M0,-3.0v7 M-2.5,-0.5L0,-3.0L2.5,-0.5"/>
                </g>
                <g id="arrowRight" xlink:href="#dirArrow" transform="rotate(90) translate(36 -43)" onmousedown="handlePan(1,0)">
                  <use xlink:href="#rim" fill="#404040">
                        <set attributeName="fill" to="#808080" begin="arrowRight.mouseover" end="arrowRight.mouseout"/>
                  </use>
                  <path fill="none" stroke="white" stroke-width="1.5" d="M0,-3.0v7 M-2.5,-0.5L0,-3.0L2.5,-0.5"/>
                </g>
                <g id="arrowDown" xlink:href="#dirArrow" transform="rotate(180) translate(-30 -48)" onmousedown="handlePan(0,1)">
                  <use xlink:href="#rim" fill="#404040">
                        <set attributeName="fill" to="#808080" begin="arrowDown.mouseover" end="arrowDown.mouseout"/>
                  </use>
                  <path fill="none" stroke="white" stroke-width="1.5" d="M0,-3.0v7 M-2.5,-0.5L0,-3.0L2.5,-0.5"/>
                </g>
                <g id="arrowLeft" xlink:href="#dirArrow" transform="rotate(270) translate(-36 17)" onmousedown="handlePan(-1,0)">
                  <use xlink:href="#rim" fill="#404040">
                        <set attributeName="fill" to="#808080" begin="arrowLeft.mouseover" end="arrowLeft.mouseout"/>
                  </use>
                  <path fill="none" stroke="white" stroke-width="1.5" d="M0,-3.0v7 M-2.5,-0.5L0,-3.0L2.5,-0.5"/>
                </g>
        </g>
        <svg viewBox="0 0 15 15" width="100%" height="30px" preserveAspectRatio="xMaxYMin meet">
         <g id="arrow_out" transform="scale(0.3 0.3)">
          <a xlink:href="class_a_i_controller_script_afcb2875a5501f07a7f44d0fa720266f3_icgraph_org.svg" target="_base">
           <rect id="button" ry="5" rx="5" y="6" x="6" height="38" width="38"
                fill="#f2f5e9" fill-opacity="0.5" stroke="#606060" stroke-width="1.0"/>
           <path id="arrow"
             d="M 11.500037,31.436501 C 11.940474,20.09759 22.043105,11.32322 32.158766,21.979434 L 37.068811,17.246167 C 37.068811,17.246167 37.088388,32 37.088388,32 L 22.160133,31.978069 C 22.160133,31.978069 26.997745,27.140456 26.997745,27.140456 C 18.528582,18.264221 13.291696,25.230495 11.500037,31.436501 z"
             style="fill:#404040;"/>
          </a>
         </g>
        </svg>
</svg>
