<?xml version="1.0" encoding="UTF-8" standalone="no"?>
<!DOCTYPE svg PUBLIC "-//W3C//DTD SVG 1.1//EN"
 "http://www.w3.org/Graphics/SVG/1.1/DTD/svg11.dtd">
<!-- Generated by graphviz version 2.47.1 (20210417.1919)
 -->
<!-- Title: UIHandler.DisplayNotePad Pages: 1 -->
<svg width="1547pt" height="110pt"
 viewBox="0.00 0.00 1547.00 110.00" xmlns="http://www.w3.org/2000/svg" xmlns:xlink="http://www.w3.org/1999/xlink">
<g id="graph0" class="graph" transform="scale(1 1) rotate(0) translate(4 106)">
<title>UIHandler.DisplayNotePad</title>
<polygon fill="white" stroke="transparent" points="-4,4 -4,-106 1543,-106 1543,4 -4,4"/>
<!-- Node1 -->
<g id="node1" class="node">
<title>Node1</title>
<g id="a_node1"><a xlink:title="Displays the notepad">
<polygon fill="#bfbfbf" stroke="black" points="1383,-20.5 1383,-41.5 1539,-41.5 1539,-20.5 1383,-20.5"/>
<text text-anchor="middle" x="1461" y="-27.9" font-family="Helvetica,sans-Serif" font-size="12.00">UIHandler.DisplayNotePad</text>
</a>
</g>
</g>
<!-- Node2 -->
<g id="node2" class="node">
<title>Node2</title>
<g id="a_node2"><a xlink:href="class_u_i_handler.html#ac072319b13f11e5ac215a0ed6ab11aa9" target="_top" xlink:title="Resets UI for the next player">
<polygon fill="white" stroke="black" points="1203.5,-40.5 1203.5,-61.5 1338.5,-61.5 1338.5,-40.5 1203.5,-40.5"/>
<text text-anchor="middle" x="1271" y="-47.9" font-family="Helvetica,sans-Serif" font-size="12.00">UIHandler.InitialiseTurn</text>
</a>
</g>
</g>
<!-- Node1&#45;&gt;Node2 -->
<g id="edge1" class="edge">
<title>Node1&#45;&gt;Node2</title>
<path fill="none" stroke="midnightblue" d="M1372.93,-40.26C1361.41,-41.49 1349.76,-42.73 1338.66,-43.91"/>
<polygon fill="midnightblue" stroke="midnightblue" points="1373.42,-43.73 1382.99,-39.19 1372.68,-36.77 1373.42,-43.73"/>
</g>
<!-- Node12 -->
<g id="node12" class="node">
<title>Node12</title>
<g id="a_node12"><a xlink:href="class_u_i_handler.html#a77ee1447ad780f3d08c3f6113ea4fcb0" target="_top" xlink:title="Displays the notepad">
<polygon fill="white" stroke="black" points="1195,-0.5 1195,-21.5 1347,-21.5 1347,-0.5 1195,-0.5"/>
<text text-anchor="middle" x="1271" y="-7.9" font-family="Helvetica,sans-Serif" font-size="12.00">UIHandler.ToggleNotepad</text>
</a>
</g>
</g>
<!-- Node1&#45;&gt;Node12 -->
<g id="edge11" class="edge">
<title>Node1&#45;&gt;Node12</title>
<path fill="none" stroke="midnightblue" d="M1372.91,-21.74C1364.28,-20.82 1355.56,-19.89 1347.07,-18.99"/>
<polygon fill="midnightblue" stroke="midnightblue" points="1372.68,-25.23 1382.99,-22.81 1373.42,-18.27 1372.68,-25.23"/>
</g>
<!-- Node3 -->
<g id="node3" class="node">
<title>Node3</title>
<g id="a_node3"><a xlink:href="class_round_manager.html#acf644ae21a6f9ebc2a476fc8603e18fc" target="_top" xlink:title="Method for starting the turn">
<polygon fill="white" stroke="black" points="1012,-40.5 1012,-61.5 1159,-61.5 1159,-40.5 1012,-40.5"/>
<text text-anchor="middle" x="1085.5" y="-47.9" font-family="Helvetica,sans-Serif" font-size="12.00">RoundManager.StartTurn</text>
</a>
</g>
</g>
<!-- Node2&#45;&gt;Node3 -->
<g id="edge2" class="edge">
<title>Node2&#45;&gt;Node3</title>
<path fill="none" stroke="midnightblue" d="M1193.27,-51C1182.02,-51 1170.46,-51 1159.29,-51"/>
<polygon fill="midnightblue" stroke="midnightblue" points="1193.49,-54.5 1203.49,-51 1193.49,-47.5 1193.49,-54.5"/>
</g>
<!-- Node4 -->
<g id="node4" class="node">
<title>Node4</title>
<g id="a_node4"><a xlink:href="class_round_manager.html#a29177f2e27c6c4af55dfa3c48d67cfb0" target="_top" xlink:title="Ending the turn. Returns the next player">
<polygon fill="white" stroke="black" points="811.5,-60.5 811.5,-81.5 954.5,-81.5 954.5,-60.5 811.5,-60.5"/>
<text text-anchor="middle" x="883" y="-67.9" font-family="Helvetica,sans-Serif" font-size="12.00">RoundManager.EndTurn</text>
</a>
</g>
</g>
<!-- Node3&#45;&gt;Node4 -->
<g id="edge3" class="edge">
<title>Node3&#45;&gt;Node4</title>
<path fill="none" stroke="midnightblue" d="M1001.69,-59.26C986.1,-60.82 969.93,-62.43 954.74,-63.94"/>
<polygon fill="midnightblue" stroke="midnightblue" points="1002.23,-62.72 1011.83,-58.25 1001.53,-55.76 1002.23,-62.72"/>
</g>
<!-- Node10 -->
<g id="node10" class="node">
<title>Node10</title>
<g id="a_node10"><a xlink:href="class_game_manager_script.html#a12cbaf1ff00804887619c07c7267cf31" target="_top" xlink:title="starting and initialing the game and it&#39;s components">
<polygon fill="white" stroke="black" points="790,-20.5 790,-41.5 976,-41.5 976,-20.5 790,-20.5"/>
<text text-anchor="middle" x="883" y="-27.9" font-family="Helvetica,sans-Serif" font-size="12.00">GameManagerScript.StartGame</text>
</a>
</g>
</g>
<!-- Node3&#45;&gt;Node10 -->
<g id="edge9" class="edge">
<title>Node3&#45;&gt;Node10</title>
<path fill="none" stroke="midnightblue" d="M1001.71,-42.74C993.32,-41.9 984.77,-41.05 976.29,-40.21"/>
<polygon fill="midnightblue" stroke="midnightblue" points="1001.53,-46.24 1011.83,-43.75 1002.23,-39.28 1001.53,-46.24"/>
</g>
<!-- Node5 -->
<g id="node5" class="node">
<title>Node5</title>
<g id="a_node5"><a xlink:href="class_user_controller.html#ab90611f541e20c125133d09b62407f41" target="_top" xlink:title="Ends turn">
<polygon fill="white" stroke="black" points="616,-60.5 616,-81.5 754,-81.5 754,-60.5 616,-60.5"/>
<text text-anchor="middle" x="685" y="-67.9" font-family="Helvetica,sans-Serif" font-size="12.00">UserController.EndTurn</text>
</a>
</g>
</g>
<!-- Node4&#45;&gt;Node5 -->
<g id="edge4" class="edge">
<title>Node4&#45;&gt;Node5</title>
<path fill="none" stroke="midnightblue" d="M801.07,-71C785.44,-71 769.21,-71 754.04,-71"/>
<polygon fill="midnightblue" stroke="midnightblue" points="801.24,-74.5 811.24,-71 801.24,-67.5 801.24,-74.5"/>
</g>
<!-- Node6 -->
<g id="node6" class="node">
<title>Node6</title>
<g id="a_node6"><a xlink:href="class_a_i_controller_script.html#a9c386cf1258ad897c9a1068804f07ba0" target="_top" xlink:title="have AI to end turn">
<polygon fill="white" stroke="black" points="425,-80.5 425,-101.5 580,-101.5 580,-80.5 425,-80.5"/>
<text text-anchor="middle" x="502.5" y="-87.9" font-family="Helvetica,sans-Serif" font-size="12.00">AIControllerScript.EndTurn</text>
</a>
</g>
</g>
<!-- Node5&#45;&gt;Node6 -->
<g id="edge5" class="edge">
<title>Node5&#45;&gt;Node6</title>
<path fill="none" stroke="midnightblue" d="M605.61,-79.69C597.21,-80.62 588.68,-81.56 580.3,-82.49"/>
<polygon fill="midnightblue" stroke="midnightblue" points="606.21,-83.14 615.76,-78.56 605.44,-76.18 606.21,-83.14"/>
</g>
<!-- Node9 -->
<g id="node9" class="node">
<title>Node9</title>
<g id="a_node9"><a xlink:href="class_u_i_handler.html#acc06a1dab8566d9e14f7ab3ae1ffea93" target="_top" xlink:title="Ends current player&#39;s turn">
<polygon fill="white" stroke="black" points="445.5,-40.5 445.5,-61.5 559.5,-61.5 559.5,-40.5 445.5,-40.5"/>
<text text-anchor="middle" x="502.5" y="-47.9" font-family="Helvetica,sans-Serif" font-size="12.00">UIHandler.EndTurn</text>
</a>
</g>
</g>
<!-- Node5&#45;&gt;Node9 -->
<g id="edge8" class="edge">
<title>Node5&#45;&gt;Node9</title>
<path fill="none" stroke="midnightblue" d="M605.7,-62.32C590.25,-60.61 574.33,-58.85 559.78,-57.24"/>
<polygon fill="midnightblue" stroke="midnightblue" points="605.44,-65.82 615.76,-63.44 606.21,-58.86 605.44,-65.82"/>
</g>
<!-- Node7 -->
<g id="node7" class="node">
<title>Node7</title>
<g id="a_node7"><a xlink:href="class_a_i_controller_script.html#ac31d9b8dbb75696b181eff1fbef41b97" target="_top" xlink:title="dictates what the AI will do depending on what mode it is in">
<polygon fill="white" stroke="black" points="215,-80.5 215,-101.5 389,-101.5 389,-80.5 215,-80.5"/>
<text text-anchor="middle" x="302" y="-87.9" font-family="Helvetica,sans-Serif" font-size="12.00">AIControllerScript.AIBehaviour</text>
</a>
</g>
</g>
<!-- Node6&#45;&gt;Node7 -->
<g id="edge6" class="edge">
<title>Node6&#45;&gt;Node7</title>
<path fill="none" stroke="midnightblue" d="M414.54,-91C406.1,-91 397.54,-91 389.11,-91"/>
<polygon fill="midnightblue" stroke="midnightblue" points="414.75,-94.5 424.75,-91 414.75,-87.5 414.75,-94.5"/>
</g>
<!-- Node8 -->
<g id="node8" class="node">
<title>Node8</title>
<g id="a_node8"><a xlink:href="class_a_i_controller_script.html#a74dc0e720fafceb873d3b19c12f68d58" target="_top" xlink:title=" ">
<polygon fill="white" stroke="black" points="0,-80.5 0,-101.5 179,-101.5 179,-80.5 0,-80.5"/>
<text text-anchor="middle" x="89.5" y="-87.9" font-family="Helvetica,sans-Serif" font-size="12.00">AIControllerScript.FixedUpdate</text>
</a>
</g>
</g>
<!-- Node7&#45;&gt;Node8 -->
<g id="edge7" class="edge">
<title>Node7&#45;&gt;Node8</title>
<path fill="none" stroke="midnightblue" d="M204.57,-91C196.15,-91 187.67,-91 179.32,-91"/>
<polygon fill="midnightblue" stroke="midnightblue" points="204.77,-94.5 214.77,-91 204.77,-87.5 204.77,-94.5"/>
</g>
<!-- Node11 -->
<g id="node11" class="node">
<title>Node11</title>
<g id="a_node11"><a xlink:href="class_suggestion_test.html#a904e4481863c3e620574eba37c993a26" target="_top" xlink:title=" ">
<polygon fill="white" stroke="black" points="622,-20.5 622,-41.5 748,-41.5 748,-20.5 622,-20.5"/>
<text text-anchor="middle" x="685" y="-27.9" font-family="Helvetica,sans-Serif" font-size="12.00">SuggestionTest.Start</text>
</a>
</g>
</g>
<!-- Node10&#45;&gt;Node11 -->
<g id="edge10" class="edge">
<title>Node10&#45;&gt;Node11</title>
<path fill="none" stroke="midnightblue" d="M779.48,-31C768.79,-31 758.17,-31 748.14,-31"/>
<polygon fill="midnightblue" stroke="midnightblue" points="779.74,-34.5 789.74,-31 779.74,-27.5 779.74,-34.5"/>
</g>
</g>
</svg>
