<?xml version="1.0" encoding="UTF-8" standalone="no"?>
<!DOCTYPE svg PUBLIC "-//W3C//DTD SVG 1.1//EN"
 "http://www.w3.org/Graphics/SVG/1.1/DTD/svg11.dtd">
<!-- Generated by graphviz version 2.47.1 (20210417.1919)
 -->
<!-- Title: DisplayDiceValue Pages: 1 -->
<svg width="473pt" height="902pt"
 viewBox="0.00 0.00 472.50 902.00" xmlns="http://www.w3.org/2000/svg" xmlns:xlink="http://www.w3.org/1999/xlink">
<g id="graph0" class="graph" transform="scale(1 1) rotate(0) translate(4 898)">
<title>DisplayDiceValue</title>
<polygon fill="white" stroke="transparent" points="-4,4 -4,-898 468.5,-898 468.5,4 -4,4"/>
<!-- Node1 -->
<g id="node1" class="node">
<title>Node1</title>
<g id="a_node1"><a xlink:title="Script for Dice test script">
<polygon fill="#bfbfbf" stroke="black" points="0,-0.5 0,-115.5 110,-115.5 110,-0.5 0,-0.5"/>
<text text-anchor="middle" x="55" y="-101.9" font-family="Helvetica,sans-Serif" font-size="12.00">DisplayDiceValue</text>
<polyline fill="none" stroke="black" points="0,-94.5 110,-94.5 "/>
<text text-anchor="start" x="8" y="-80.9" font-family="Helvetica,sans-Serif" font-size="12.00">&#45; rollButton</text>
<text text-anchor="start" x="8" y="-67.9" font-family="Helvetica,sans-Serif" font-size="12.00">&#45; resetButton</text>
<text text-anchor="start" x="8" y="-54.9" font-family="Helvetica,sans-Serif" font-size="12.00">&#45; diceDisplay</text>
<text text-anchor="start" x="8" y="-41.9" font-family="Helvetica,sans-Serif" font-size="12.00">&#45; dieValue</text>
<polyline fill="none" stroke="black" points="0,-34.5 110,-34.5 "/>
<text text-anchor="start" x="8" y="-20.9" font-family="Helvetica,sans-Serif" font-size="12.00">&#45; Start()</text>
<text text-anchor="start" x="8" y="-7.9" font-family="Helvetica,sans-Serif" font-size="12.00">&#45; Update()</text>
</a>
</g>
</g>
<!-- Node2 -->
<g id="node2" class="node">
<title>Node2</title>
<g id="a_node2"><a xlink:title=" ">
<polygon fill="white" stroke="#bfbfbf" points="119,-830.5 119,-893.5 217,-893.5 217,-830.5 119,-830.5"/>
<text text-anchor="middle" x="168" y="-879.9" font-family="Helvetica,sans-Serif" font-size="12.00">MonoBehaviour</text>
<polyline fill="none" stroke="#bfbfbf" points="119,-872.5 217,-872.5 "/>
<text text-anchor="middle" x="168" y="-858.9" font-family="Helvetica,sans-Serif" font-size="12.00"> </text>
<polyline fill="none" stroke="#bfbfbf" points="119,-851.5 217,-851.5 "/>
<text text-anchor="middle" x="168" y="-837.9" font-family="Helvetica,sans-Serif" font-size="12.00"> </text>
</a>
</g>
</g>
<!-- Node2&#45;&gt;Node1 -->
<g id="edge1" class="edge">
<title>Node2&#45;&gt;Node1</title>
<path fill="none" stroke="midnightblue" d="M110.22,-832.73C75.89,-811.47 39,-778.69 39,-736 39,-736 39,-736 39,-254.5 39,-207.68 43.62,-154.75 47.89,-115.79"/>
<polygon fill="none" stroke="midnightblue" points="108.48,-835.77 118.86,-837.88 112.07,-829.76 108.48,-835.77"/>
</g>
<!-- Node3 -->
<g id="node3" class="node">
<title>Node3</title>
<g id="a_node3"><a xlink:href="class_dice.html" target="_top" xlink:title="Script for the Dice Gameobject">
<polygon fill="white" stroke="black" points="91,-165.5 91,-345.5 219,-345.5 219,-165.5 91,-165.5"/>
<text text-anchor="middle" x="155" y="-331.9" font-family="Helvetica,sans-Serif" font-size="12.00">Dice</text>
<polyline fill="none" stroke="black" points="91,-324.5 219,-324.5 "/>
<text text-anchor="start" x="99" y="-310.9" font-family="Helvetica,sans-Serif" font-size="12.00">&#45; diceValue</text>
<text text-anchor="start" x="99" y="-297.9" font-family="Helvetica,sans-Serif" font-size="12.00">&#45; setCloseUpCamera</text>
<polyline fill="none" stroke="black" points="91,-290.5 219,-290.5 "/>
<text text-anchor="start" x="99" y="-276.9" font-family="Helvetica,sans-Serif" font-size="12.00">+ RollDice()</text>
<text text-anchor="start" x="99" y="-263.9" font-family="Helvetica,sans-Serif" font-size="12.00">+ ResetDice()</text>
<text text-anchor="start" x="99" y="-250.9" font-family="Helvetica,sans-Serif" font-size="12.00">+ CanReset()</text>
<text text-anchor="start" x="99" y="-237.9" font-family="Helvetica,sans-Serif" font-size="12.00">+ CalculateValue()</text>
<text text-anchor="start" x="99" y="-224.9" font-family="Helvetica,sans-Serif" font-size="12.00">+ GetValue()</text>
<text text-anchor="start" x="99" y="-211.9" font-family="Helvetica,sans-Serif" font-size="12.00">+ ReadyToRoll()</text>
<text text-anchor="start" x="99" y="-198.9" font-family="Helvetica,sans-Serif" font-size="12.00">&#45; Start()</text>
<text text-anchor="start" x="99" y="-185.9" font-family="Helvetica,sans-Serif" font-size="12.00">&#45; Initialise()</text>
<text text-anchor="start" x="99" y="-172.9" font-family="Helvetica,sans-Serif" font-size="12.00">&#45; Update()</text>
</a>
</g>
</g>
<!-- Node2&#45;&gt;Node3 -->
<g id="edge3" class="edge">
<title>Node2&#45;&gt;Node3</title>
<path fill="none" stroke="midnightblue" d="M138.86,-821.84C133.19,-812.74 127.83,-802.83 124,-793 59.68,-627.75 60.54,-568.74 96,-395 99.35,-378.61 104.71,-361.76 110.86,-345.7"/>
<polygon fill="none" stroke="midnightblue" points="135.96,-823.8 144.35,-830.28 141.83,-819.99 135.96,-823.8"/>
</g>
<!-- Node4 -->
<g id="node4" class="node">
<title>Node4</title>
<g id="a_node4"><a xlink:href="class_camera_close_up.html" target="_top" xlink:title="Script to control the camera close up shots">
<polygon fill="white" stroke="black" points="105.5,-395.5 105.5,-627.5 254.5,-627.5 254.5,-395.5 105.5,-395.5"/>
<text text-anchor="middle" x="180" y="-613.9" font-family="Helvetica,sans-Serif" font-size="12.00">CameraCloseUp</text>
<polyline fill="none" stroke="black" points="105.5,-606.5 254.5,-606.5 "/>
<text text-anchor="start" x="113.5" y="-592.9" font-family="Helvetica,sans-Serif" font-size="12.00">&#45; moveSpeed</text>
<text text-anchor="start" x="113.5" y="-579.9" font-family="Helvetica,sans-Serif" font-size="12.00">&#45; testKeys</text>
<text text-anchor="start" x="113.5" y="-566.9" font-family="Helvetica,sans-Serif" font-size="12.00">&#45; kb</text>
<text text-anchor="start" x="113.5" y="-553.9" font-family="Helvetica,sans-Serif" font-size="12.00">&#45; initialCameraPosition</text>
<text text-anchor="start" x="113.5" y="-540.9" font-family="Helvetica,sans-Serif" font-size="12.00">&#45; currentCameraTarget</text>
<polyline fill="none" stroke="black" points="105.5,-533.5 254.5,-533.5 "/>
<text text-anchor="start" x="113.5" y="-519.9" font-family="Helvetica,sans-Serif" font-size="12.00">+ SetCloseUp()</text>
<text text-anchor="start" x="113.5" y="-506.9" font-family="Helvetica,sans-Serif" font-size="12.00">+ ClearCloseUp()</text>
<text text-anchor="start" x="113.5" y="-493.9" font-family="Helvetica,sans-Serif" font-size="12.00">+ ClearCloseUp()</text>
<text text-anchor="start" x="113.5" y="-480.9" font-family="Helvetica,sans-Serif" font-size="12.00">+ SetCharacterCloseUp()</text>
<text text-anchor="start" x="113.5" y="-467.9" font-family="Helvetica,sans-Serif" font-size="12.00">~ SetRoomCloseUp()</text>
<text text-anchor="start" x="113.5" y="-454.9" font-family="Helvetica,sans-Serif" font-size="12.00">&#45; Start()</text>
<text text-anchor="start" x="113.5" y="-441.9" font-family="Helvetica,sans-Serif" font-size="12.00">&#45; Update()</text>
<text text-anchor="start" x="113.5" y="-428.9" font-family="Helvetica,sans-Serif" font-size="12.00">&#45; GetCameraPosition()</text>
<text text-anchor="start" x="113.5" y="-415.9" font-family="Helvetica,sans-Serif" font-size="12.00">&#45; ClearCloseUpDelay()</text>
<text text-anchor="start" x="113.5" y="-402.9" font-family="Helvetica,sans-Serif" font-size="12.00">&#45; TestSetCamera()</text>
</a>
</g>
</g>
<!-- Node2&#45;&gt;Node4 -->
<g id="edge5" class="edge">
<title>Node2&#45;&gt;Node4</title>
<path fill="none" stroke="midnightblue" d="M144.32,-821.25C140.05,-812.26 136.25,-802.53 134,-793 121.27,-739.09 128.55,-678.53 140.74,-627.51"/>
<polygon fill="none" stroke="midnightblue" points="141.27,-822.97 148.89,-830.33 147.52,-819.83 141.27,-822.97"/>
</g>
<!-- Node5 -->
<g id="node5" class="node">
<title>Node5</title>
<g id="a_node5"><a xlink:href="class_close_up_point_script.html" target="_top" xlink:title="Script for camera close up point Gameobject">
<polygon fill="white" stroke="black" points="143.5,-690.5 143.5,-779.5 300.5,-779.5 300.5,-690.5 143.5,-690.5"/>
<text text-anchor="middle" x="222" y="-765.9" font-family="Helvetica,sans-Serif" font-size="12.00">CloseUpPointScript</text>
<polyline fill="none" stroke="black" points="143.5,-758.5 300.5,-758.5 "/>
<text text-anchor="start" x="151.5" y="-744.9" font-family="Helvetica,sans-Serif" font-size="12.00">&#45; closeUpPointName</text>
<polyline fill="none" stroke="black" points="143.5,-737.5 300.5,-737.5 "/>
<text text-anchor="start" x="151.5" y="-723.9" font-family="Helvetica,sans-Serif" font-size="12.00">+ SetCloseUpPointName()</text>
<text text-anchor="start" x="151.5" y="-710.9" font-family="Helvetica,sans-Serif" font-size="12.00">+ GetCloseUpPointName()</text>
<text text-anchor="start" x="151.5" y="-697.9" font-family="Helvetica,sans-Serif" font-size="12.00">+ GetCameraPosition()</text>
</a>
</g>
</g>
<!-- Node2&#45;&gt;Node5 -->
<g id="edge7" class="edge">
<title>Node2&#45;&gt;Node5</title>
<path fill="none" stroke="midnightblue" d="M185.2,-821.18C190.88,-808.05 197.21,-793.37 203.01,-779.96"/>
<polygon fill="none" stroke="midnightblue" points="181.96,-819.85 181.21,-830.42 188.39,-822.63 181.96,-819.85"/>
</g>
<!-- Node6 -->
<g id="node6" class="node">
<title>Node6</title>
<g id="a_node6"><a xlink:href="class_die.html" target="_top" xlink:title="Script for the Die Gameobject">
<polygon fill="white" stroke="black" points="272.5,-395.5 272.5,-627.5 385.5,-627.5 385.5,-395.5 272.5,-395.5"/>
<text text-anchor="middle" x="329" y="-613.9" font-family="Helvetica,sans-Serif" font-size="12.00">Die</text>
<polyline fill="none" stroke="black" points="272.5,-606.5 385.5,-606.5 "/>
<text text-anchor="start" x="280.5" y="-592.9" font-family="Helvetica,sans-Serif" font-size="12.00">&#45; dieRigidbody</text>
<text text-anchor="start" x="280.5" y="-579.9" font-family="Helvetica,sans-Serif" font-size="12.00">&#45; hasLanded</text>
<text text-anchor="start" x="280.5" y="-566.9" font-family="Helvetica,sans-Serif" font-size="12.00">&#45; isThrown</text>
<text text-anchor="start" x="280.5" y="-553.9" font-family="Helvetica,sans-Serif" font-size="12.00">&#45; initialPosition</text>
<text text-anchor="start" x="280.5" y="-540.9" font-family="Helvetica,sans-Serif" font-size="12.00">&#45; dieValue</text>
<polyline fill="none" stroke="black" points="272.5,-533.5 385.5,-533.5 "/>
<text text-anchor="start" x="280.5" y="-519.9" font-family="Helvetica,sans-Serif" font-size="12.00">+ RollDie()</text>
<text text-anchor="start" x="280.5" y="-506.9" font-family="Helvetica,sans-Serif" font-size="12.00">+ IsReadyToRoll()</text>
<text text-anchor="start" x="280.5" y="-493.9" font-family="Helvetica,sans-Serif" font-size="12.00">+ CanResetDie()</text>
<text text-anchor="start" x="280.5" y="-480.9" font-family="Helvetica,sans-Serif" font-size="12.00">+ ResetDie()</text>
<text text-anchor="start" x="280.5" y="-467.9" font-family="Helvetica,sans-Serif" font-size="12.00">+ GetValueDie()</text>
<text text-anchor="start" x="280.5" y="-454.9" font-family="Helvetica,sans-Serif" font-size="12.00">&#45; Start()</text>
<text text-anchor="start" x="280.5" y="-441.9" font-family="Helvetica,sans-Serif" font-size="12.00">&#45; Initialise()</text>
<text text-anchor="start" x="280.5" y="-428.9" font-family="Helvetica,sans-Serif" font-size="12.00">&#45; Update()</text>
<text text-anchor="start" x="280.5" y="-415.9" font-family="Helvetica,sans-Serif" font-size="12.00">&#45; RollAgain()</text>
<text text-anchor="start" x="280.5" y="-402.9" font-family="Helvetica,sans-Serif" font-size="12.00">&#45; CheckValueDie()</text>
</a>
</g>
</g>
<!-- Node2&#45;&gt;Node6 -->
<g id="edge9" class="edge">
<title>Node2&#45;&gt;Node6</title>
<path fill="none" stroke="midnightblue" d="M227.04,-847.53C256.65,-837.58 290.15,-820.78 309,-793 341.35,-745.33 348.13,-682.01 346.03,-627.6"/>
<polygon fill="none" stroke="midnightblue" points="225.66,-844.3 217.18,-850.65 227.77,-850.98 225.66,-844.3"/>
</g>
<!-- Node7 -->
<g id="node7" class="node">
<title>Node7</title>
<g id="a_node7"><a xlink:href="class_die_side.html" target="_top" xlink:title="Script for die side Gameobject">
<polygon fill="white" stroke="black" points="357.5,-677.5 357.5,-792.5 464.5,-792.5 464.5,-677.5 357.5,-677.5"/>
<text text-anchor="middle" x="411" y="-778.9" font-family="Helvetica,sans-Serif" font-size="12.00">DieSide</text>
<polyline fill="none" stroke="black" points="357.5,-771.5 464.5,-771.5 "/>
<text text-anchor="start" x="365.5" y="-757.9" font-family="Helvetica,sans-Serif" font-size="12.00">&#45; value</text>
<text text-anchor="start" x="365.5" y="-744.9" font-family="Helvetica,sans-Serif" font-size="12.00">&#45; isOnGround</text>
<polyline fill="none" stroke="black" points="357.5,-737.5 464.5,-737.5 "/>
<text text-anchor="start" x="365.5" y="-723.9" font-family="Helvetica,sans-Serif" font-size="12.00">+ IsOnGround()</text>
<text text-anchor="start" x="365.5" y="-710.9" font-family="Helvetica,sans-Serif" font-size="12.00">+ GetSideValue()</text>
<text text-anchor="start" x="365.5" y="-697.9" font-family="Helvetica,sans-Serif" font-size="12.00">&#45; OnTriggerStay()</text>
<text text-anchor="start" x="365.5" y="-684.9" font-family="Helvetica,sans-Serif" font-size="12.00">&#45; OnTriggerExit()</text>
</a>
</g>
</g>
<!-- Node2&#45;&gt;Node7 -->
<g id="edge11" class="edge">
<title>Node2&#45;&gt;Node7</title>
<path fill="none" stroke="midnightblue" d="M227.28,-853C262.87,-846.18 307.9,-833.86 343,-812 351.57,-806.67 359.69,-799.94 367.14,-792.7"/>
<polygon fill="none" stroke="midnightblue" points="226.25,-849.63 217.03,-854.86 227.5,-856.52 226.25,-849.63"/>
</g>
<!-- Node3&#45;&gt;Node1 -->
<g id="edge2" class="edge">
<title>Node3&#45;&gt;Node1</title>
<path fill="none" stroke="#404040" d="M109.39,-165.33C102.7,-152.25 95.9,-138.95 89.48,-126.4"/>
<polygon fill="none" stroke="#404040" points="89.41,-126.27 83.12,-122.75 83.95,-115.59 90.24,-119.11 89.41,-126.27"/>
<text text-anchor="middle" x="115" y="-137.4" font-family="Helvetica,sans-Serif" font-size="12.00"> &#45;dice</text>
</g>
<!-- Node4&#45;&gt;Node3 -->
<g id="edge4" class="edge">
<title>Node4&#45;&gt;Node3</title>
<path fill="none" stroke="#404040" d="M168.67,-395.39C167.44,-382.89 166.19,-370.23 164.98,-357.91"/>
<polygon fill="none" stroke="#404040" points="164.96,-357.66 160.39,-352.08 163.78,-345.72 168.35,-351.3 164.96,-357.66"/>
<text text-anchor="middle" x="205" y="-367.4" font-family="Helvetica,sans-Serif" font-size="12.00"> &#45;mainCamera</text>
</g>
<!-- Node5&#45;&gt;Node4 -->
<g id="edge6" class="edge">
<title>Node5&#45;&gt;Node4</title>
<path fill="none" stroke="#404040" d="M213.7,-690.24C210.88,-675.35 207.56,-657.86 204.13,-639.78"/>
<polygon fill="none" stroke="#404040" points="204.1,-639.62 199.06,-634.47 201.87,-627.83 206.92,-632.98 204.1,-639.62"/>
<text text-anchor="middle" x="249.5" y="-649.4" font-family="Helvetica,sans-Serif" font-size="12.00"> &#45;closeUpPoints</text>
</g>
<!-- Node6&#45;&gt;Node3 -->
<g id="edge8" class="edge">
<title>Node6&#45;&gt;Node3</title>
<path fill="none" stroke="#404040" d="M272.29,-403.36C264.2,-389.86 255.67,-376.43 247,-364 240.76,-355.05 233.91,-345.97 226.85,-337.07"/>
<polygon fill="none" stroke="#404040" points="226.67,-336.84 219.79,-334.68 219.14,-327.5 226.02,-329.66 226.67,-336.84"/>
<text text-anchor="middle" x="270" y="-367.4" font-family="Helvetica,sans-Serif" font-size="12.00"> &#45;dice</text>
</g>
<!-- Node7&#45;&gt;Node6 -->
<g id="edge10" class="edge">
<title>Node7&#45;&gt;Node6</title>
<path fill="none" stroke="#404040" d="M389.99,-677.25C385.58,-665.33 380.76,-652.31 375.82,-638.98"/>
<polygon fill="none" stroke="#404040" points="375.82,-638.98 369.99,-634.74 371.66,-627.72 377.49,-631.96 375.82,-638.98"/>
<text text-anchor="middle" x="410.5" y="-649.4" font-family="Helvetica,sans-Serif" font-size="12.00"> &#45;dieSides</text>
</g>
</g>
</svg>
