<?xml version="1.0" encoding="UTF-8" standalone="no"?>
<!DOCTYPE svg PUBLIC "-//W3C//DTD SVG 1.1//EN"
 "http://www.w3.org/Graphics/SVG/1.1/DTD/svg11.dtd">
<!-- Generated by graphviz version 2.47.1 (20210417.1919)
 -->
<!-- Title: UserSelectionScript.ClearCurrentTile Pages: 1 -->
<svg width="675pt" height="30pt"
 viewBox="0.00 0.00 675.00 30.00" xmlns="http://www.w3.org/2000/svg" xmlns:xlink="http://www.w3.org/1999/xlink">
<g id="graph0" class="graph" transform="scale(1 1) rotate(0) translate(4 26)">
<title>UserSelectionScript.ClearCurrentTile</title>
<polygon fill="white" stroke="transparent" points="-4,4 -4,-26 671,-26 671,4 -4,4"/>
<!-- Node1 -->
<g id="node1" class="node">
<title>Node1</title>
<g id="a_node1"><a xlink:title="reset the effects on the current tile">
<polygon fill="#bfbfbf" stroke="black" points="0,-0.5 0,-21.5 209,-21.5 209,-0.5 0,-0.5"/>
<text text-anchor="middle" x="104.5" y="-7.9" font-family="Helvetica,sans-Serif" font-size="12.00">UserSelectionScript.ClearCurrentTile</text>
</a>
</g>
</g>
<!-- Node2 -->
<g id="node2" class="node">
<title>Node2</title>
<g id="a_node2"><a xlink:href="class_board_tile_script.html#a58615feb64c22a128cc22b7e0276ad5f" target="_top" xlink:title="disable the select effect on the tile">
<polygon fill="white" stroke="black" points="245,-0.5 245,-21.5 394,-21.5 394,-0.5 245,-0.5"/>
<text text-anchor="middle" x="319.5" y="-7.9" font-family="Helvetica,sans-Serif" font-size="12.00">BoardTileScript.ClearTile</text>
</a>
</g>
</g>
<!-- Node1&#45;&gt;Node2 -->
<g id="edge1" class="edge">
<title>Node1&#45;&gt;Node2</title>
<path fill="none" stroke="midnightblue" d="M209.19,-11C217.77,-11 226.37,-11 234.77,-11"/>
<polygon fill="midnightblue" stroke="midnightblue" points="234.9,-14.5 244.9,-11 234.9,-7.5 234.9,-14.5"/>
</g>
<!-- Node3 -->
<g id="node3" class="node">
<title>Node3</title>
<g id="a_node3"><a xlink:href="class_board_tile_effect_handler_script.html#a6c3a5ab97fa7a4abb76cd58d8df67964" target="_top" xlink:title="disable the glow box effect for when the cursor hovering on it">
<polygon fill="white" stroke="black" points="430,-0.5 430,-21.5 667,-21.5 667,-0.5 430,-0.5"/>
<text text-anchor="middle" x="548.5" y="-7.9" font-family="Helvetica,sans-Serif" font-size="12.00">BoardTileEffectHandlerScript.DeselectTile</text>
</a>
</g>
</g>
<!-- Node2&#45;&gt;Node3 -->
<g id="edge2" class="edge">
<title>Node2&#45;&gt;Node3</title>
<path fill="none" stroke="midnightblue" d="M394.2,-11C402.39,-11 410.89,-11 419.51,-11"/>
<polygon fill="midnightblue" stroke="midnightblue" points="419.67,-14.5 429.67,-11 419.67,-7.5 419.67,-14.5"/>
</g>
</g>
</svg>
