<?xml version="1.0" encoding="UTF-8" standalone="no"?>
<!DOCTYPE svg PUBLIC "-//W3C//DTD SVG 1.1//EN"
 "http://www.w3.org/Graphics/SVG/1.1/DTD/svg11.dtd">
<!-- Generated by graphviz version 2.47.1 (20210417.1919)
 -->
<!-- Title: DoorScript.OpenDoor Pages: 1 -->
<svg width="446pt" height="70pt"
 viewBox="0.00 0.00 446.00 70.00" xmlns="http://www.w3.org/2000/svg" xmlns:xlink="http://www.w3.org/1999/xlink">
<g id="graph0" class="graph" transform="scale(1 1) rotate(0) translate(4 66)">
<title>DoorScript.OpenDoor</title>
<polygon fill="white" stroke="transparent" points="-4,4 -4,-66 442,-66 442,4 -4,4"/>
<!-- Node1 -->
<g id="node1" class="node">
<title>Node1</title>
<g id="a_node1"><a xlink:title="Open the door">
<polygon fill="#bfbfbf" stroke="black" points="307,-20.5 307,-41.5 438,-41.5 438,-20.5 307,-20.5"/>
<text text-anchor="middle" x="372.5" y="-27.9" font-family="Helvetica,sans-Serif" font-size="12.00">DoorScript.OpenDoor</text>
</a>
</g>
</g>
<!-- Node2 -->
<g id="node2" class="node">
<title>Node2</title>
<g id="a_node2"><a xlink:href="class_room_entry_board_tile_script.html#a72d3a7835dcd42fc00e6c6caf0d1e174" target="_top" xlink:title="Open door, pause start player entry, pause then close door">
<polygon fill="white" stroke="black" points="0,-40.5 0,-61.5 271,-61.5 271,-40.5 0,-40.5"/>
<text text-anchor="middle" x="135.5" y="-47.9" font-family="Helvetica,sans-Serif" font-size="12.00">RoomEntryBoardTileScript.EnterRoomAnimation</text>
</a>
</g>
</g>
<!-- Node1&#45;&gt;Node2 -->
<g id="edge1" class="edge">
<title>Node1&#45;&gt;Node2</title>
<path fill="none" stroke="midnightblue" d="M296.8,-37.36C285.01,-38.36 272.56,-39.42 260.01,-40.49"/>
<polygon fill="midnightblue" stroke="midnightblue" points="297.31,-40.83 306.97,-36.49 296.71,-33.85 297.31,-40.83"/>
</g>
<!-- Node3 -->
<g id="node3" class="node">
<title>Node3</title>
<g id="a_node3"><a xlink:href="class_room_entry_board_tile_script.html#a89563c1c09bdf5bb73347dd676a10f2d" target="_top" xlink:title="Move player to exit point, open door, exit player, close door, set player moving to target tile.">
<polygon fill="white" stroke="black" points="15.5,-0.5 15.5,-21.5 255.5,-21.5 255.5,-0.5 15.5,-0.5"/>
<text text-anchor="middle" x="135.5" y="-7.9" font-family="Helvetica,sans-Serif" font-size="12.00">RoomEntryBoardTileScript.ExitRoomDelay</text>
</a>
</g>
</g>
<!-- Node1&#45;&gt;Node3 -->
<g id="edge2" class="edge">
<title>Node1&#45;&gt;Node3</title>
<path fill="none" stroke="midnightblue" d="M296.71,-24.63C283.68,-23.53 269.83,-22.35 255.95,-21.17"/>
<polygon fill="midnightblue" stroke="midnightblue" points="296.71,-28.15 306.97,-25.51 297.31,-21.17 296.71,-28.15"/>
</g>
</g>
</svg>
