<?xml version="1.0" encoding="UTF-8" standalone="no"?>
<!DOCTYPE svg PUBLIC "-//W3C//DTD SVG 1.1//EN"
 "http://www.w3.org/Graphics/SVG/1.1/DTD/svg11.dtd">
<!-- Generated by graphviz version 2.47.1 (20210417.1919)
 -->
<!-- Title: UserSelectionScript Pages: 1 -->
<svg width="132pt" height="198pt"
 viewBox="0.00 0.00 132.00 198.00" xmlns="http://www.w3.org/2000/svg" xmlns:xlink="http://www.w3.org/1999/xlink">
<g id="graph0" class="graph" transform="scale(1 1) rotate(0) translate(4 194)">
<title>UserSelectionScript</title>
<polygon fill="white" stroke="transparent" points="-4,4 -4,-194 128,-194 128,4 -4,4"/>
<!-- Node1 -->
<g id="node1" class="node">
<title>Node1</title>
<g id="a_node1"><a xlink:title="for setting the tile effect the cursor is hovering on">
<polygon fill="#bfbfbf" stroke="black" points="0,-0.5 0,-89.5 124,-89.5 124,-0.5 0,-0.5"/>
<text text-anchor="middle" x="62" y="-75.9" font-family="Helvetica,sans-Serif" font-size="12.00">UserSelectionScript</text>
<polyline fill="none" stroke="black" points="0,-68.5 124,-68.5 "/>
<text text-anchor="start" x="8" y="-54.9" font-family="Helvetica,sans-Serif" font-size="12.00">&#45; currentTile</text>
<polyline fill="none" stroke="black" points="0,-47.5 124,-47.5 "/>
<text text-anchor="start" x="8" y="-33.9" font-family="Helvetica,sans-Serif" font-size="12.00">+ ClearCurrentTile()</text>
<text text-anchor="start" x="8" y="-20.9" font-family="Helvetica,sans-Serif" font-size="12.00">+ SelectCurrentTile()</text>
<text text-anchor="start" x="8" y="-7.9" font-family="Helvetica,sans-Serif" font-size="12.00">+ GetCurrentTile()</text>
</a>
</g>
</g>
<!-- Node2 -->
<g id="node2" class="node">
<title>Node2</title>
<g id="a_node2"><a xlink:title=" ">
<polygon fill="white" stroke="#bfbfbf" points="13,-126.5 13,-189.5 111,-189.5 111,-126.5 13,-126.5"/>
<text text-anchor="middle" x="62" y="-175.9" font-family="Helvetica,sans-Serif" font-size="12.00">MonoBehaviour</text>
<polyline fill="none" stroke="#bfbfbf" points="13,-168.5 111,-168.5 "/>
<text text-anchor="middle" x="62" y="-154.9" font-family="Helvetica,sans-Serif" font-size="12.00"> </text>
<polyline fill="none" stroke="#bfbfbf" points="13,-147.5 111,-147.5 "/>
<text text-anchor="middle" x="62" y="-133.9" font-family="Helvetica,sans-Serif" font-size="12.00"> </text>
</a>
</g>
</g>
<!-- Node2&#45;&gt;Node1 -->
<g id="edge1" class="edge">
<title>Node2&#45;&gt;Node1</title>
<path fill="none" stroke="midnightblue" d="M62,-116.21C62,-107.62 62,-98.52 62,-89.82"/>
<polygon fill="none" stroke="midnightblue" points="58.5,-116.37 62,-126.37 65.5,-116.37 58.5,-116.37"/>
</g>
</g>
</svg>
