<?xml version="1.0" encoding="UTF-8" standalone="no"?>
<!DOCTYPE svg PUBLIC "-//W3C//DTD SVG 1.1//EN"
 "http://www.w3.org/Graphics/SVG/1.1/DTD/svg11.dtd">
<!-- Generated by graphviz version 2.47.1 (20210417.1919)
 -->
<!-- Title: CardManager.DealCardsToPlayers Pages: 1 -->
<svg width="764pt" height="30pt"
 viewBox="0.00 0.00 764.00 30.00" xmlns="http://www.w3.org/2000/svg" xmlns:xlink="http://www.w3.org/1999/xlink">
<g id="graph0" class="graph" transform="scale(1 1) rotate(0) translate(4 26)">
<title>CardManager.DealCardsToPlayers</title>
<polygon fill="white" stroke="transparent" points="-4,4 -4,-26 760,-26 760,4 -4,4"/>
<!-- Node1 -->
<g id="node1" class="node">
<title>Node1</title>
<g id="a_node1"><a xlink:title="shuffles and deal the cards to players">
<polygon fill="#bfbfbf" stroke="black" points="554,-0.5 554,-21.5 756,-21.5 756,-0.5 554,-0.5"/>
<text text-anchor="middle" x="655" y="-7.9" font-family="Helvetica,sans-Serif" font-size="12.00">CardManager.DealCardsToPlayers</text>
</a>
</g>
</g>
<!-- Node2 -->
<g id="node2" class="node">
<title>Node2</title>
<g id="a_node2"><a xlink:href="class_card_manager.html#a246ee5512607a457900121c510a5e9f2" target="_top" xlink:title="Selects random answer cards and deal cards to players">
<polygon fill="white" stroke="black" points="384,-0.5 384,-21.5 518,-21.5 518,-0.5 384,-0.5"/>
<text text-anchor="middle" x="451" y="-7.9" font-family="Helvetica,sans-Serif" font-size="12.00">CardManager.Initialise</text>
</a>
</g>
</g>
<!-- Node1&#45;&gt;Node2 -->
<g id="edge1" class="edge">
<title>Node1&#45;&gt;Node2</title>
<path fill="none" stroke="midnightblue" d="M543.69,-11C535.02,-11 526.45,-11 518.22,-11"/>
<polygon fill="midnightblue" stroke="midnightblue" points="543.89,-14.5 553.89,-11 543.89,-7.5 543.89,-14.5"/>
</g>
<!-- Node3 -->
<g id="node3" class="node">
<title>Node3</title>
<g id="a_node3"><a xlink:href="class_game_manager_script.html#a12cbaf1ff00804887619c07c7267cf31" target="_top" xlink:title="starting and initialing the game and it&#39;s components">
<polygon fill="white" stroke="black" points="162,-0.5 162,-21.5 348,-21.5 348,-0.5 162,-0.5"/>
<text text-anchor="middle" x="255" y="-7.9" font-family="Helvetica,sans-Serif" font-size="12.00">GameManagerScript.StartGame</text>
</a>
</g>
</g>
<!-- Node2&#45;&gt;Node3 -->
<g id="edge2" class="edge">
<title>Node2&#45;&gt;Node3</title>
<path fill="none" stroke="midnightblue" d="M373.64,-11C365.22,-11 356.59,-11 348.01,-11"/>
<polygon fill="midnightblue" stroke="midnightblue" points="373.78,-14.5 383.78,-11 373.78,-7.5 373.78,-14.5"/>
</g>
<!-- Node4 -->
<g id="node4" class="node">
<title>Node4</title>
<g id="a_node4"><a xlink:href="class_suggestion_test.html#a904e4481863c3e620574eba37c993a26" target="_top" xlink:title=" ">
<polygon fill="white" stroke="black" points="0,-0.5 0,-21.5 126,-21.5 126,-0.5 0,-0.5"/>
<text text-anchor="middle" x="63" y="-7.9" font-family="Helvetica,sans-Serif" font-size="12.00">SuggestionTest.Start</text>
</a>
</g>
</g>
<!-- Node3&#45;&gt;Node4 -->
<g id="edge3" class="edge">
<title>Node3&#45;&gt;Node4</title>
<path fill="none" stroke="midnightblue" d="M151.57,-11C142.9,-11 134.3,-11 126.08,-11"/>
<polygon fill="midnightblue" stroke="midnightblue" points="151.78,-14.5 161.78,-11 151.78,-7.5 151.78,-14.5"/>
</g>
</g>
</svg>
