<?xml version="1.0" encoding="UTF-8" standalone="no"?>
<!DOCTYPE svg PUBLIC "-//W3C//DTD SVG 1.1//EN"
 "http://www.w3.org/Graphics/SVG/1.1/DTD/svg11.dtd">
<!-- Generated by graphviz version 2.47.1 (20210417.1919)
 -->
<!-- Title: RoomEntryPoint Pages: 1 -->
<svg width="109pt" height="185pt"
 viewBox="0.00 0.00 109.00 185.00" xmlns="http://www.w3.org/2000/svg" xmlns:xlink="http://www.w3.org/1999/xlink">
<g id="graph0" class="graph" transform="scale(1 1) rotate(0) translate(4 181)">
<title>RoomEntryPoint</title>
<polygon fill="white" stroke="transparent" points="-4,4 -4,-181 105,-181 105,4 -4,4"/>
<!-- Node1 -->
<g id="node1" class="node">
<title>Node1</title>
<g id="a_node1"><a xlink:title="Class for the room entry point Gameobject">
<polygon fill="#bfbfbf" stroke="black" points="0,-0.5 0,-76.5 101,-76.5 101,-0.5 0,-0.5"/>
<text text-anchor="middle" x="50.5" y="-62.9" font-family="Helvetica,sans-Serif" font-size="12.00">RoomEntryPoint</text>
<polyline fill="none" stroke="black" points="0,-55.5 101,-55.5 "/>
<text text-anchor="start" x="8" y="-41.9" font-family="Helvetica,sans-Serif" font-size="12.00">+ RoomScript</text>
<text text-anchor="start" x="8" y="-28.9" font-family="Helvetica,sans-Serif" font-size="12.00">&#45; roomScript</text>
<polyline fill="none" stroke="black" points="0,-21.5 101,-21.5 "/>
<text text-anchor="middle" x="50.5" y="-7.9" font-family="Helvetica,sans-Serif" font-size="12.00"> </text>
</a>
</g>
</g>
<!-- Node2 -->
<g id="node2" class="node">
<title>Node2</title>
<g id="a_node2"><a xlink:title=" ">
<polygon fill="white" stroke="#bfbfbf" points="1.5,-113.5 1.5,-176.5 99.5,-176.5 99.5,-113.5 1.5,-113.5"/>
<text text-anchor="middle" x="50.5" y="-162.9" font-family="Helvetica,sans-Serif" font-size="12.00">MonoBehaviour</text>
<polyline fill="none" stroke="#bfbfbf" points="1.5,-155.5 99.5,-155.5 "/>
<text text-anchor="middle" x="50.5" y="-141.9" font-family="Helvetica,sans-Serif" font-size="12.00"> </text>
<polyline fill="none" stroke="#bfbfbf" points="1.5,-134.5 99.5,-134.5 "/>
<text text-anchor="middle" x="50.5" y="-120.9" font-family="Helvetica,sans-Serif" font-size="12.00"> </text>
</a>
</g>
</g>
<!-- Node2&#45;&gt;Node1 -->
<g id="edge1" class="edge">
<title>Node2&#45;&gt;Node1</title>
<path fill="none" stroke="midnightblue" d="M50.5,-103.39C50.5,-94.54 50.5,-85.23 50.5,-76.53"/>
<polygon fill="none" stroke="midnightblue" points="47,-103.49 50.5,-113.49 54,-103.49 47,-103.49"/>
</g>
</g>
</svg>
