<?xml version="1.0" encoding="UTF-8" standalone="no"?>
<!DOCTYPE svg PUBLIC "-//W3C//DTD SVG 1.1//EN"
 "http://www.w3.org/Graphics/SVG/1.1/DTD/svg11.dtd">
<!-- Generated by graphviz version 2.47.1 (20210417.1919)
 -->
<!-- Title: CameraCloseUp.Update Pages: 1 -->
<!--zoomable 110 -->
<svg id="main" version="1.1" xmlns="http://www.w3.org/2000/svg" xmlns:xlink="http://www.w3.org/1999/xlink" xml:space="preserve" onload="init(evt)">
<style type="text/css"><![CDATA[
.edge:hover path { stroke: red; }
.edge:hover polygon { stroke: red; fill: red; }
]]></style>
<script type="text/javascript"><![CDATA[
var edges = document.getElementsByTagName('g');
if (edges && edges.length) {
  for (var i=0;i<edges.length;i++) {
    if (edges[i].id.substr(0,4)=='edge') {
      edges[i].setAttribute('class','edge');
    }
  }
}
]]></script>
        <defs>
                <circle id="rim" cx="0" cy="0" r="7"/>
                <circle id="rim2" cx="0" cy="0" r="3.5"/>
                <g id="zoomPlus">
                        <use xlink:href="#rim" fill="#404040">
                                <set attributeName="fill" to="#808080" begin="zoomplus.mouseover" end="zoomplus.mouseout"/>
                        </use>
                        <path d="M-4,0h8M0,-4v8" fill="none" stroke="white" stroke-width="1.5" pointer-events="none"/>
                </g>
                <g id="zoomMin">
                        <use xlink:href="#rim" fill="#404040">
                                <set attributeName="fill" to="#808080" begin="zoomminus.mouseover" end="zoomminus.mouseout"/>
                        </use>
                        <path d="M-4,0h8" fill="none" stroke="white" stroke-width="1.5" pointer-events="none"/>
                </g>
                <g id="dirArrow">
                        <path fill="none" stroke="white" stroke-width="1.5" d="M0,-3.0v7 M-2.5,-0.5L0,-3.0L2.5,-0.5"/>
                </g>
               <g id="resetDef">
                       <use xlink:href="#rim2" fill="#404040">
                               <set attributeName="fill" to="#808080" begin="reset.mouseover" end="reset.mouseout"/>
                       </use>
               </g>
        </defs>

<script type="text/javascript">
var viewWidth = 684;
var viewHeight = 110;
var sectionId = 'dynsection-12';
</script>
<script xlink:href="svgpan.js"/>
<svg id="graph" class="graph">
<g id="viewport">
<title>CameraCloseUp.Update</title>
<polygon fill="white" stroke="transparent" points="-4,4 -4,-106 680,-106 680,4 -4,4"/>
<!-- Node1 -->
<g id="node1" class="node">
<title>Node1</title>
<g id="a_node1"><a xlink:title="If test keys = true &#45; numpad / numbers control close ups lerp camera position towards close up point ...">
<polygon fill="#bfbfbf" stroke="black" points="0,-20.5 0,-41.5 146,-41.5 146,-20.5 0,-20.5"/>
<text text-anchor="middle" x="73" y="-27.9" font-family="Helvetica,sans-Serif" font-size="12.00">CameraCloseUp.Update</text>
</a>
</g>
</g>
<!-- Node2 -->
<g id="node2" class="node">
<title>Node2</title>
<g id="a_node2"><a xlink:href="class_camera_close_up.html#a684c25133060e7ff6e1d462b0504c590" target="_top" xlink:title="Get the camera location target from point">
<polygon fill="white" stroke="black" points="182,-40.5 182,-61.5 394,-61.5 394,-40.5 182,-40.5"/>
<text text-anchor="middle" x="288" y="-47.9" font-family="Helvetica,sans-Serif" font-size="12.00">CameraCloseUp.GetCameraPosition</text>
</a>
</g>
</g>
<!-- Node1&#45;&gt;Node2 -->
<g id="edge1" class="edge">
<title>Node1&#45;&gt;Node2</title>
<path fill="none" stroke="midnightblue" d="M146.11,-37.77C154.35,-38.54 162.9,-39.35 171.53,-40.16"/>
<polygon fill="midnightblue" stroke="midnightblue" points="171.4,-43.66 181.68,-41.11 172.05,-36.69 171.4,-43.66"/>
</g>
<!-- Node5 -->
<g id="node5" class="node">
<title>Node5</title>
<g id="a_node5"><a xlink:href="class_camera_close_up.html#a2a7e3969d2c696d94a6f0f6bf8b3c56a" target="_top" xlink:title="For testing camera close ups">
<polygon fill="white" stroke="black" points="192.5,-0.5 192.5,-21.5 383.5,-21.5 383.5,-0.5 192.5,-0.5"/>
<text text-anchor="middle" x="288" y="-7.9" font-family="Helvetica,sans-Serif" font-size="12.00">CameraCloseUp.TestSetCamera</text>
</a>
</g>
</g>
<!-- Node1&#45;&gt;Node5 -->
<g id="edge4" class="edge">
<title>Node1&#45;&gt;Node5</title>
<path fill="none" stroke="midnightblue" d="M146.11,-24.23C157.71,-23.14 169.92,-21.99 182.1,-20.85"/>
<polygon fill="midnightblue" stroke="midnightblue" points="182.68,-24.31 192.31,-19.89 182.02,-17.34 182.68,-24.31"/>
</g>
<!-- Node3 -->
<g id="node3" class="node">
<title>Node3</title>
<g id="a_node3"><a xlink:href="class_close_up_point_script.html#ad04e4644ab071f53a3ddcd5942a748b4" target="_top" xlink:title="Get the camera position (transform position)">
<polygon fill="white" stroke="black" points="439.5,-80.5 439.5,-101.5 666.5,-101.5 666.5,-80.5 439.5,-80.5"/>
<text text-anchor="middle" x="553" y="-87.9" font-family="Helvetica,sans-Serif" font-size="12.00">CloseUpPointScript.GetCameraPosition</text>
</a>
</g>
</g>
<!-- Node2&#45;&gt;Node3 -->
<g id="edge2" class="edge">
<title>Node2&#45;&gt;Node3</title>
<path fill="none" stroke="midnightblue" d="M358.1,-61.51C393.3,-66.86 436.26,-73.4 472.78,-78.95"/>
<polygon fill="midnightblue" stroke="midnightblue" points="472.49,-82.45 482.91,-80.49 473.55,-75.53 472.49,-82.45"/>
</g>
<!-- Node4 -->
<g id="node4" class="node">
<title>Node4</title>
<g id="a_node4"><a xlink:href="class_close_up_point_script.html#adadb4a1edcd0b052fb32ef82ece4405e" target="_top" xlink:title="Get the close up point">
<polygon fill="white" stroke="black" points="430,-40.5 430,-61.5 676,-61.5 676,-40.5 430,-40.5"/>
<text text-anchor="middle" x="553" y="-47.9" font-family="Helvetica,sans-Serif" font-size="12.00">CloseUpPointScript.GetCloseUpPointName</text>
</a>
</g>
</g>
<!-- Node2&#45;&gt;Node4 -->
<g id="edge3" class="edge">
<title>Node2&#45;&gt;Node4</title>
<path fill="none" stroke="midnightblue" d="M394.08,-51C402.51,-51 411.09,-51 419.68,-51"/>
<polygon fill="midnightblue" stroke="midnightblue" points="419.76,-54.5 429.76,-51 419.76,-47.5 419.76,-54.5"/>
</g>
<!-- Node6 -->
<g id="node6" class="node">
<title>Node6</title>
<g id="a_node6"><a xlink:href="class_camera_close_up.html#a1d70afa00d6f67abee342c029af88fcf" target="_top" xlink:title="Set close up point">
<polygon fill="white" stroke="black" points="467,-0.5 467,-21.5 639,-21.5 639,-0.5 467,-0.5"/>
<text text-anchor="middle" x="553" y="-7.9" font-family="Helvetica,sans-Serif" font-size="12.00">CameraCloseUp.SetCloseUp</text>
</a>
</g>
</g>
<!-- Node5&#45;&gt;Node6 -->
<g id="edge5" class="edge">
<title>Node5&#45;&gt;Node6</title>
<path fill="none" stroke="midnightblue" d="M383.58,-11C407.42,-11 433.02,-11 456.88,-11"/>
<polygon fill="midnightblue" stroke="midnightblue" points="456.99,-14.5 466.99,-11 456.99,-7.5 456.99,-14.5"/>
</g>
</g>
</svg>
        <g id="navigator" transform="translate(0 0)" fill="#404254">
                <rect fill="#f2f5e9" fill-opacity="0.5" stroke="#606060" stroke-width=".5" x="0" y="0" width="60" height="60"/>
                <use id="zoomplus" xlink:href="#zoomPlus" x="17" y="9" onmousedown="handleZoom(evt,'in')"/>
                <use id="zoomminus" xlink:href="#zoomMin" x="42" y="9" onmousedown="handleZoom(evt,'out')"/>
                <use id="reset" xlink:href="#resetDef" x="30" y="36" onmousedown="handleReset()"/>
                <g id="arrowUp" xlink:href="#dirArrow" transform="translate(30 24)" onmousedown="handlePan(0,-1)">
                  <use xlink:href="#rim" fill="#404040">
                        <set attributeName="fill" to="#808080" begin="arrowUp.mouseover" end="arrowUp.mouseout"/>
                  </use>
                  <path fill="none" stroke="white" stroke-width="1.5" d="M0,-3.0v7 M-2.5,-0.5L0,-3.0L2.5,-0.5"/>
                </g>
                <g id="arrowRight" xlink:href="#dirArrow" transform="rotate(90) translate(36 -43)" onmousedown="handlePan(1,0)">
                  <use xlink:href="#rim" fill="#404040">
                        <set attributeName="fill" to="#808080" begin="arrowRight.mouseover" end="arrowRight.mouseout"/>
                  </use>
                  <path fill="none" stroke="white" stroke-width="1.5" d="M0,-3.0v7 M-2.5,-0.5L0,-3.0L2.5,-0.5"/>
                </g>
                <g id="arrowDown" xlink:href="#dirArrow" transform="rotate(180) translate(-30 -48)" onmousedown="handlePan(0,1)">
                  <use xlink:href="#rim" fill="#404040">
                        <set attributeName="fill" to="#808080" begin="arrowDown.mouseover" end="arrowDown.mouseout"/>
                  </use>
                  <path fill="none" stroke="white" stroke-width="1.5" d="M0,-3.0v7 M-2.5,-0.5L0,-3.0L2.5,-0.5"/>
                </g>
                <g id="arrowLeft" xlink:href="#dirArrow" transform="rotate(270) translate(-36 17)" onmousedown="handlePan(-1,0)">
                  <use xlink:href="#rim" fill="#404040">
                        <set attributeName="fill" to="#808080" begin="arrowLeft.mouseover" end="arrowLeft.mouseout"/>
                  </use>
                  <path fill="none" stroke="white" stroke-width="1.5" d="M0,-3.0v7 M-2.5,-0.5L0,-3.0L2.5,-0.5"/>
                </g>
        </g>
        <svg viewBox="0 0 15 15" width="100%" height="30px" preserveAspectRatio="xMaxYMin meet">
         <g id="arrow_out" transform="scale(0.3 0.3)">
          <a xlink:href="class_camera_close_up_ab267d3e10045453ca402ae9c82069a01_cgraph_org.svg" target="_base">
           <rect id="button" ry="5" rx="5" y="6" x="6" height="38" width="38"
                fill="#f2f5e9" fill-opacity="0.5" stroke="#606060" stroke-width="1.0"/>
           <path id="arrow"
             d="M 11.500037,31.436501 C 11.940474,20.09759 22.043105,11.32322 32.158766,21.979434 L 37.068811,17.246167 C 37.068811,17.246167 37.088388,32 37.088388,32 L 22.160133,31.978069 C 22.160133,31.978069 26.997745,27.140456 26.997745,27.140456 C 18.528582,18.264221 13.291696,25.230495 11.500037,31.436501 z"
             style="fill:#404040;"/>
          </a>
         </g>
        </svg>
</svg>
