<?xml version="1.0" encoding="UTF-8" standalone="no"?>
<!DOCTYPE svg PUBLIC "-//W3C//DTD SVG 1.1//EN"
 "http://www.w3.org/Graphics/SVG/1.1/DTD/svg11.dtd">
<!-- Generated by graphviz version 2.47.1 (20210417.1919)
 -->
<!-- Title: RoomScript.GetRoomFromString Pages: 1 -->
<svg width="973pt" height="110pt"
 viewBox="0.00 0.00 973.00 110.00" xmlns="http://www.w3.org/2000/svg" xmlns:xlink="http://www.w3.org/1999/xlink">
<g id="graph0" class="graph" transform="scale(1 1) rotate(0) translate(4 106)">
<title>RoomScript.GetRoomFromString</title>
<polygon fill="white" stroke="transparent" points="-4,4 -4,-106 969,-106 969,4 -4,4"/>
<!-- Node1 -->
<g id="node1" class="node">
<title>Node1</title>
<g id="a_node1"><a xlink:title="Get Room Enum from string">
<polygon fill="#bfbfbf" stroke="black" points="774,-40.5 774,-61.5 965,-61.5 965,-40.5 774,-40.5"/>
<text text-anchor="middle" x="869.5" y="-47.9" font-family="Helvetica,sans-Serif" font-size="12.00">RoomScript.GetRoomFromString</text>
</a>
</g>
</g>
<!-- Node2 -->
<g id="node2" class="node">
<title>Node2</title>
<g id="a_node2"><a xlink:href="class_board_builder.html#a03451888fabe0fefe9bb547dd510ac1d" target="_top" xlink:title="Instantiate a roomEntrance tile and set its parameters">
<polygon fill="white" stroke="black" points="514,-80.5 514,-101.5 735,-101.5 735,-80.5 514,-80.5"/>
<text text-anchor="middle" x="624.5" y="-87.9" font-family="Helvetica,sans-Serif" font-size="12.00">BoardBuilder.CreateRoomEntranceTile</text>
</a>
</g>
</g>
<!-- Node1&#45;&gt;Node2 -->
<g id="edge1" class="edge">
<title>Node1&#45;&gt;Node2</title>
<path fill="none" stroke="midnightblue" d="M794.44,-63.19C760.87,-68.72 721.58,-75.18 689.34,-80.49"/>
<polygon fill="midnightblue" stroke="midnightblue" points="795.36,-66.59 804.65,-61.51 794.22,-59.68 795.36,-66.59"/>
</g>
<!-- Node6 -->
<g id="node6" class="node">
<title>Node6</title>
<g id="a_node6"><a xlink:href="class_board_builder.html#aa03504edb607b14737199d2e66b4ce07" target="_top" xlink:title="Instantiate a shortcut tile and set its parameters">
<polygon fill="white" stroke="black" points="531.5,-40.5 531.5,-61.5 717.5,-61.5 717.5,-40.5 531.5,-40.5"/>
<text text-anchor="middle" x="624.5" y="-47.9" font-family="Helvetica,sans-Serif" font-size="12.00">BoardBuilder.CreateShortcutTile</text>
</a>
</g>
</g>
<!-- Node1&#45;&gt;Node6 -->
<g id="edge5" class="edge">
<title>Node1&#45;&gt;Node6</title>
<path fill="none" stroke="midnightblue" d="M763.43,-51C748.28,-51 732.78,-51 717.89,-51"/>
<polygon fill="midnightblue" stroke="midnightblue" points="763.85,-54.5 773.85,-51 763.85,-47.5 763.85,-54.5"/>
</g>
<!-- Node7 -->
<g id="node7" class="node">
<title>Node7</title>
<g id="a_node7"><a xlink:href="class_move_tokens_test_script.html#ad7e6dce3665f334d61eaad8371ca84b8" target="_top" xlink:title="Set the current room to move tokens to">
<polygon fill="white" stroke="black" points="511,-0.5 511,-21.5 738,-21.5 738,-0.5 511,-0.5"/>
<text text-anchor="middle" x="624.5" y="-7.9" font-family="Helvetica,sans-Serif" font-size="12.00">MoveTokensTestScript.SetCurrentRoom</text>
</a>
</g>
</g>
<!-- Node1&#45;&gt;Node7 -->
<g id="edge7" class="edge">
<title>Node1&#45;&gt;Node7</title>
<path fill="none" stroke="midnightblue" d="M794.44,-38.81C760.87,-33.28 721.58,-26.82 689.34,-21.51"/>
<polygon fill="midnightblue" stroke="midnightblue" points="794.22,-42.32 804.65,-40.49 795.36,-35.41 794.22,-42.32"/>
</g>
<!-- Node3 -->
<g id="node3" class="node">
<title>Node3</title>
<g id="a_node3"><a xlink:href="class_board_builder.html#a3a24e59815a2273a921875c2cb7781f2" target="_top" xlink:title="Build the board using various helper methods">
<polygon fill="white" stroke="black" points="328,-60.5 328,-81.5 475,-81.5 475,-60.5 328,-60.5"/>
<text text-anchor="middle" x="401.5" y="-67.9" font-family="Helvetica,sans-Serif" font-size="12.00">BoardBuilder.BuildBoard</text>
</a>
</g>
</g>
<!-- Node2&#45;&gt;Node3 -->
<g id="edge2" class="edge">
<title>Node2&#45;&gt;Node3</title>
<path fill="none" stroke="midnightblue" d="M503.82,-80.17C494.1,-79.29 484.48,-78.42 475.26,-77.58"/>
<polygon fill="midnightblue" stroke="midnightblue" points="503.7,-83.67 513.97,-81.09 504.33,-76.7 503.7,-83.67"/>
</g>
<!-- Node4 -->
<g id="node4" class="node">
<title>Node4</title>
<g id="a_node4"><a xlink:href="class_board_builder.html#a82e09ea29b1d031cfe2fa3b444c12c99" target="_top" xlink:title="Method to create the board, initialise and place all items and pass references to board manager">
<polygon fill="white" stroke="black" points="161,-60.5 161,-81.5 292,-81.5 292,-60.5 161,-60.5"/>
<text text-anchor="middle" x="226.5" y="-67.9" font-family="Helvetica,sans-Serif" font-size="12.00">BoardBuilder.Initialise</text>
</a>
</g>
</g>
<!-- Node3&#45;&gt;Node4 -->
<g id="edge3" class="edge">
<title>Node3&#45;&gt;Node4</title>
<path fill="none" stroke="midnightblue" d="M317.83,-71C309.24,-71 300.59,-71 292.23,-71"/>
<polygon fill="midnightblue" stroke="midnightblue" points="317.88,-74.5 327.88,-71 317.88,-67.5 317.88,-74.5"/>
</g>
<!-- Node5 -->
<g id="node5" class="node">
<title>Node5</title>
<g id="a_node5"><a xlink:href="class_board_builder.html#a40848d7394ead9e79f4f2dad2d7756b8" target="_top" xlink:title=" ">
<polygon fill="white" stroke="black" points="0,-60.5 0,-81.5 125,-81.5 125,-60.5 0,-60.5"/>
<text text-anchor="middle" x="62.5" y="-67.9" font-family="Helvetica,sans-Serif" font-size="12.00">BoardBuilder.Awake</text>
</a>
</g>
</g>
<!-- Node4&#45;&gt;Node5 -->
<g id="edge4" class="edge">
<title>Node4&#45;&gt;Node5</title>
<path fill="none" stroke="midnightblue" d="M150.3,-71C141.84,-71 133.31,-71 125.05,-71"/>
<polygon fill="midnightblue" stroke="midnightblue" points="150.54,-74.5 160.54,-71 150.54,-67.5 150.54,-74.5"/>
</g>
<!-- Node6&#45;&gt;Node3 -->
<g id="edge6" class="edge">
<title>Node6&#45;&gt;Node3</title>
<path fill="none" stroke="midnightblue" d="M521.23,-60.26C505.73,-61.66 490,-63.08 475.3,-64.41"/>
<polygon fill="midnightblue" stroke="midnightblue" points="521.73,-63.72 531.38,-59.34 521.1,-56.75 521.73,-63.72"/>
</g>
</g>
</svg>
