<?xml version="1.0" encoding="UTF-8" standalone="no"?>
<!DOCTYPE svg PUBLIC "-//W3C//DTD SVG 1.1//EN"
 "http://www.w3.org/Graphics/SVG/1.1/DTD/svg11.dtd">
<!-- Generated by graphviz version 2.47.1 (20210417.1919)
 -->
<!-- Title: PlayerMasterController.GetToGuessCards Pages: 1 -->
<svg width="1171pt" height="109pt"
 viewBox="0.00 0.00 1171.00 109.00" xmlns="http://www.w3.org/2000/svg" xmlns:xlink="http://www.w3.org/1999/xlink">
<g id="graph0" class="graph" transform="scale(1 1) rotate(0) translate(4 105)">
<title>PlayerMasterController.GetToGuessCards</title>
<polygon fill="white" stroke="transparent" points="-4,4 -4,-105 1167,-105 1167,4 -4,4"/>
<!-- Node1 -->
<g id="node1" class="node">
<title>Node1</title>
<g id="a_node1"><a xlink:title=" ">
<polygon fill="#bfbfbf" stroke="black" points="926,-39.5 926,-60.5 1163,-60.5 1163,-39.5 926,-39.5"/>
<text text-anchor="middle" x="1044.5" y="-46.9" font-family="Helvetica,sans-Serif" font-size="12.00">PlayerMasterController.GetToGuessCards</text>
</a>
</g>
</g>
<!-- Node2 -->
<g id="node2" class="node">
<title>Node2</title>
<g id="a_node2"><a xlink:href="class_a_i_controller_script.html#a0bfee235827ff618fa3325164969c2a4" target="_top" xlink:title="check if the AI is comfident enough to accuse this should match the flow chart of the AI">
<polygon fill="white" stroke="black" points="697,-79.5 697,-100.5 869,-100.5 869,-79.5 697,-79.5"/>
<text text-anchor="middle" x="783" y="-86.9" font-family="Helvetica,sans-Serif" font-size="12.00">AIControllerScript.CanAccuse</text>
</a>
</g>
</g>
<!-- Node1&#45;&gt;Node2 -->
<g id="edge1" class="edge">
<title>Node1&#45;&gt;Node2</title>
<path fill="none" stroke="midnightblue" d="M965.33,-62.05C929.29,-67.6 886.9,-74.14 852.18,-79.49"/>
<polygon fill="midnightblue" stroke="midnightblue" points="965.97,-65.49 975.32,-60.51 964.9,-58.57 965.97,-65.49"/>
</g>
<!-- Node6 -->
<g id="node6" class="node">
<title>Node6</title>
<g id="a_node6"><a xlink:href="class_a_i_controller_script.html#a7be5eb284c6258672e70af128f8638df" target="_top" xlink:title="Decides that cards to accuse based on the To Guess List">
<polygon fill="white" stroke="black" points="676,-39.5 676,-60.5 890,-60.5 890,-39.5 676,-39.5"/>
<text text-anchor="middle" x="783" y="-46.9" font-family="Helvetica,sans-Serif" font-size="12.00">AIControllerScript.Decide_Accusation</text>
</a>
</g>
</g>
<!-- Node1&#45;&gt;Node6 -->
<g id="edge5" class="edge">
<title>Node1&#45;&gt;Node6</title>
<path fill="none" stroke="midnightblue" d="M915.8,-50C907.19,-50 898.57,-50 890.09,-50"/>
<polygon fill="midnightblue" stroke="midnightblue" points="915.9,-53.5 925.9,-50 915.9,-46.5 915.9,-53.5"/>
</g>
<!-- Node7 -->
<g id="node7" class="node">
<title>Node7</title>
<g id="a_node7"><a xlink:href="class_a_i_controller_script.html#affdf86fa313c46463a9a5a2b20020a17" target="_top" xlink:title="Decides what the AI should suggest this should match the flow chart of the AI">
<polygon fill="white" stroke="black" points="425,-0.5 425,-21.5 640,-21.5 640,-0.5 425,-0.5"/>
<text text-anchor="middle" x="532.5" y="-7.9" font-family="Helvetica,sans-Serif" font-size="12.00">AIControllerScript.Decide_Suggestion</text>
</a>
</g>
</g>
<!-- Node1&#45;&gt;Node7 -->
<g id="edge7" class="edge">
<title>Node1&#45;&gt;Node7</title>
<path fill="none" stroke="midnightblue" d="M961.32,-38.12C938.28,-35.11 913.2,-32.13 890,-30 806.21,-22.32 711.04,-17.44 640.12,-14.55"/>
<polygon fill="midnightblue" stroke="midnightblue" points="961.02,-41.61 971.4,-39.45 961.94,-34.67 961.02,-41.61"/>
</g>
<!-- Node3 -->
<g id="node3" class="node">
<title>Node3</title>
<g id="a_node3"><a xlink:href="class_a_i_controller_script.html#af05eaa86fd4cfef3b4b0b79b0883322c" target="_top" xlink:title="the AI enter this when it is thinking to decide what to do this should match the flow chart of the AI">
<polygon fill="white" stroke="black" points="458,-78.5 458,-99.5 607,-99.5 607,-78.5 458,-78.5"/>
<text text-anchor="middle" x="532.5" y="-85.9" font-family="Helvetica,sans-Serif" font-size="12.00">AIControllerScript.AIThink</text>
</a>
</g>
</g>
<!-- Node2&#45;&gt;Node3 -->
<g id="edge2" class="edge">
<title>Node2&#45;&gt;Node3</title>
<path fill="none" stroke="midnightblue" d="M686.48,-89.62C660.24,-89.51 632.19,-89.4 607.36,-89.3"/>
<polygon fill="midnightblue" stroke="midnightblue" points="686.81,-93.12 696.83,-89.66 686.84,-86.12 686.81,-93.12"/>
</g>
<!-- Node4 -->
<g id="node4" class="node">
<title>Node4</title>
<g id="a_node4"><a xlink:href="class_a_i_controller_script.html#ac31d9b8dbb75696b181eff1fbef41b97" target="_top" xlink:title="dictates what the AI will do depending on what mode it is in">
<polygon fill="white" stroke="black" points="215,-39.5 215,-60.5 389,-60.5 389,-39.5 215,-39.5"/>
<text text-anchor="middle" x="302" y="-46.9" font-family="Helvetica,sans-Serif" font-size="12.00">AIControllerScript.AIBehaviour</text>
</a>
</g>
</g>
<!-- Node3&#45;&gt;Node4 -->
<g id="edge3" class="edge">
<title>Node3&#45;&gt;Node4</title>
<path fill="none" stroke="midnightblue" d="M459.81,-76.76C429.27,-71.55 393.99,-65.53 364.64,-60.52"/>
<polygon fill="midnightblue" stroke="midnightblue" points="459.52,-80.26 469.97,-78.5 460.7,-73.36 459.52,-80.26"/>
</g>
<!-- Node5 -->
<g id="node5" class="node">
<title>Node5</title>
<g id="a_node5"><a xlink:href="class_a_i_controller_script.html#a74dc0e720fafceb873d3b19c12f68d58" target="_top" xlink:title=" ">
<polygon fill="white" stroke="black" points="0,-39.5 0,-60.5 179,-60.5 179,-39.5 0,-39.5"/>
<text text-anchor="middle" x="89.5" y="-46.9" font-family="Helvetica,sans-Serif" font-size="12.00">AIControllerScript.FixedUpdate</text>
</a>
</g>
</g>
<!-- Node4&#45;&gt;Node5 -->
<g id="edge4" class="edge">
<title>Node4&#45;&gt;Node5</title>
<path fill="none" stroke="midnightblue" d="M204.57,-50C196.15,-50 187.67,-50 179.32,-50"/>
<polygon fill="midnightblue" stroke="midnightblue" points="204.77,-53.5 214.77,-50 204.77,-46.5 204.77,-53.5"/>
</g>
<!-- Node6&#45;&gt;Node4 -->
<g id="edge6" class="edge">
<title>Node6&#45;&gt;Node4</title>
<path fill="none" stroke="midnightblue" d="M665.73,-50C580.41,-50 466.41,-50 389.15,-50"/>
<polygon fill="midnightblue" stroke="midnightblue" points="665.99,-53.5 675.99,-50 665.99,-46.5 665.99,-53.5"/>
</g>
<!-- Node7&#45;&gt;Node4 -->
<g id="edge8" class="edge">
<title>Node7&#45;&gt;Node4</title>
<path fill="none" stroke="midnightblue" d="M459.81,-23.24C429.27,-28.45 393.99,-34.47 364.64,-39.48"/>
<polygon fill="midnightblue" stroke="midnightblue" points="460.7,-26.64 469.97,-21.5 459.52,-19.74 460.7,-26.64"/>
</g>
</g>
</svg>
