<?xml version="1.0" encoding="UTF-8" standalone="no"?>
<!DOCTYPE svg PUBLIC "-//W3C//DTD SVG 1.1//EN"
 "http://www.w3.org/Graphics/SVG/1.1/DTD/svg11.dtd">
<!-- Generated by graphviz version 2.47.1 (20210417.1919)
 -->
<!-- Title: CardManager.FindCard Pages: 1 -->
<svg width="1891pt" height="211pt"
 viewBox="0.00 0.00 1891.00 210.81" xmlns="http://www.w3.org/2000/svg" xmlns:xlink="http://www.w3.org/1999/xlink">
<g id="graph0" class="graph" transform="scale(1 1) rotate(0) translate(4 206.81)">
<title>CardManager.FindCard</title>
<polygon fill="white" stroke="transparent" points="-4,4 -4,-206.81 1887,-206.81 1887,4 -4,4"/>
<!-- Node1 -->
<g id="node1" class="node">
<title>Node1</title>
<g id="a_node1"><a xlink:title="Looks for the specified weapon card">
<polygon fill="#bfbfbf" stroke="black" points="1741,-63.31 1741,-84.31 1883,-84.31 1883,-63.31 1741,-63.31"/>
<text text-anchor="middle" x="1812" y="-70.71" font-family="Helvetica,sans-Serif" font-size="12.00">CardManager.FindCard</text>
</a>
</g>
</g>
<!-- Node2 -->
<g id="node2" class="node">
<title>Node2</title>
<g id="a_node2"><a xlink:href="class_u_i_handler.html#a99048b81a1303baba7efd44095c0f235" target="_top" xlink:title="Displays Suggestion menu, set the room if in a room">
<polygon fill="white" stroke="black" points="1508,-143.31 1508,-164.31 1705,-164.31 1705,-143.31 1508,-143.31"/>
<text text-anchor="middle" x="1606.5" y="-150.71" font-family="Helvetica,sans-Serif" font-size="12.00">UIHandler.DisplayMenuSuggestion</text>
</a>
</g>
</g>
<!-- Node1&#45;&gt;Node2 -->
<g id="edge1" class="edge">
<title>Node1&#45;&gt;Node2</title>
<path fill="none" stroke="midnightblue" d="M1787.46,-90C1766.64,-103.6 1735.01,-122.56 1705,-133.81 1694.89,-137.6 1683.9,-140.73 1673.07,-143.3"/>
<polygon fill="midnightblue" stroke="midnightblue" points="1789.55,-92.81 1795.94,-84.36 1785.68,-86.98 1789.55,-92.81"/>
</g>
<!-- Node11 -->
<g id="node11" class="node">
<title>Node11</title>
<g id="a_node11"><a xlink:href="class_suggestion_test.html#ac6fed8b504eb8b103cb5c38fa895edf3" target="_top" xlink:title="get test choices and make suggestion">
<polygon fill="white" stroke="black" points="1269.5,-23.31 1269.5,-44.31 1459.5,-44.31 1459.5,-23.31 1269.5,-23.31"/>
<text text-anchor="middle" x="1364.5" y="-30.71" font-family="Helvetica,sans-Serif" font-size="12.00">SuggestionTest.MakeSuggestion</text>
</a>
</g>
</g>
<!-- Node1&#45;&gt;Node11 -->
<g id="edge10" class="edge">
<title>Node1&#45;&gt;Node11</title>
<path fill="none" stroke="midnightblue" d="M1789.34,-57.08C1768.89,-42.41 1736.71,-22.16 1705,-13.81 1600.23,13.78 1471.22,-8.46 1406.56,-23.27"/>
<polygon fill="midnightblue" stroke="midnightblue" points="1787.48,-60.05 1797.61,-63.16 1791.64,-54.42 1787.48,-60.05"/>
</g>
<!-- Node12 -->
<g id="node12" class="node">
<title>Node12</title>
<g id="a_node12"><a xlink:href="class_user_controller.html#a16a0eca976cd0f767ab444ba8d96c4a8" target="_top" xlink:title="Sets character for suggestions and accusation">
<polygon fill="white" stroke="black" points="1524.5,-103.31 1524.5,-124.31 1688.5,-124.31 1688.5,-103.31 1524.5,-103.31"/>
<text text-anchor="middle" x="1606.5" y="-110.71" font-family="Helvetica,sans-Serif" font-size="12.00">UserController.SetCharacter</text>
</a>
</g>
</g>
<!-- Node1&#45;&gt;Node12 -->
<g id="edge11" class="edge">
<title>Node1&#45;&gt;Node12</title>
<path fill="none" stroke="midnightblue" d="M1747.52,-86.29C1719.74,-91.75 1687.5,-98.09 1660.96,-103.3"/>
<polygon fill="midnightblue" stroke="midnightblue" points="1748.4,-89.68 1757.53,-84.32 1747.05,-82.81 1748.4,-89.68"/>
</g>
<!-- Node15 -->
<g id="node15" class="node">
<title>Node15</title>
<g id="a_node15"><a xlink:href="class_user_controller.html#a75e6950fdc74e232061ab078c36b9069" target="_top" xlink:title="Sets room for suggestions and accusation">
<polygon fill="white" stroke="black" points="1534.5,-63.31 1534.5,-84.31 1678.5,-84.31 1678.5,-63.31 1534.5,-63.31"/>
<text text-anchor="middle" x="1606.5" y="-70.71" font-family="Helvetica,sans-Serif" font-size="12.00">UserController.SetRoom</text>
</a>
</g>
</g>
<!-- Node1&#45;&gt;Node15 -->
<g id="edge17" class="edge">
<title>Node1&#45;&gt;Node15</title>
<path fill="none" stroke="midnightblue" d="M1730.93,-73.81C1713.69,-73.81 1695.58,-73.81 1678.7,-73.81"/>
<polygon fill="midnightblue" stroke="midnightblue" points="1730.97,-77.31 1740.97,-73.81 1730.97,-70.31 1730.97,-77.31"/>
</g>
<!-- Node16 -->
<g id="node16" class="node">
<title>Node16</title>
<g id="a_node16"><a xlink:href="class_user_controller.html#aea1bd5d7b45854e5113b459a2b11dd35" target="_top" xlink:title="Sets weapon for suggestions and accusation">
<polygon fill="white" stroke="black" points="1528,-23.31 1528,-44.31 1685,-44.31 1685,-23.31 1528,-23.31"/>
<text text-anchor="middle" x="1606.5" y="-30.71" font-family="Helvetica,sans-Serif" font-size="12.00">UserController.SetWeapon</text>
</a>
</g>
</g>
<!-- Node1&#45;&gt;Node16 -->
<g id="edge21" class="edge">
<title>Node1&#45;&gt;Node16</title>
<path fill="none" stroke="midnightblue" d="M1747.52,-61.33C1719.74,-55.87 1687.5,-49.54 1660.96,-44.32"/>
<polygon fill="midnightblue" stroke="midnightblue" points="1747.05,-64.81 1757.53,-63.3 1748.4,-57.94 1747.05,-64.81"/>
</g>
<!-- Node3 -->
<g id="node3" class="node">
<title>Node3</title>
<g id="a_node3"><a xlink:href="class_u_i_handler.html#a52241b6fefb8a446c2c000202216bfd2" target="_top" xlink:title="Makes suggestion when the button is pressed">
<polygon fill="white" stroke="black" points="1268.5,-143.31 1268.5,-164.31 1460.5,-164.31 1460.5,-143.31 1268.5,-143.31"/>
<text text-anchor="middle" x="1364.5" y="-150.71" font-family="Helvetica,sans-Serif" font-size="12.00">UIHandler.MakeSuggestionButton</text>
</a>
</g>
</g>
<!-- Node2&#45;&gt;Node3 -->
<g id="edge2" class="edge">
<title>Node2&#45;&gt;Node3</title>
<path fill="none" stroke="midnightblue" d="M1497.6,-153.81C1485.3,-153.81 1472.82,-153.81 1460.7,-153.81"/>
<polygon fill="midnightblue" stroke="midnightblue" points="1497.88,-157.31 1507.88,-153.81 1497.88,-150.31 1497.88,-157.31"/>
</g>
<!-- Node4 -->
<g id="node4" class="node">
<title>Node4</title>
<g id="a_node4"><a xlink:href="class_round_manager.html#afb3821e66d79eeb0991f620ced62940a" target="_top" xlink:title="Maek suggestion after a delay time, used for free suggestion tile">
<polygon fill="white" stroke="black" points="1070,-143.31 1070,-164.31 1221,-164.31 1221,-143.31 1070,-143.31"/>
<text text-anchor="middle" x="1145.5" y="-150.71" font-family="Helvetica,sans-Serif" font-size="12.00">RoundManager.DelaySug</text>
</a>
</g>
</g>
<!-- Node3&#45;&gt;Node4 -->
<g id="edge3" class="edge">
<title>Node3&#45;&gt;Node4</title>
<path fill="none" stroke="midnightblue" d="M1258.27,-153.81C1245.7,-153.81 1233.07,-153.81 1221.06,-153.81"/>
<polygon fill="midnightblue" stroke="midnightblue" points="1258.32,-157.31 1268.32,-153.81 1258.32,-150.31 1258.32,-157.31"/>
</g>
<!-- Node5 -->
<g id="node5" class="node">
<title>Node5</title>
<g id="a_node5"><a xlink:href="class_round_manager.html#adfd4f66436e06c12a25c9236b629f369" target="_top" xlink:title="moving the current player to the selected tile">
<polygon fill="white" stroke="black" points="873,-143.31 873,-164.31 1034,-164.31 1034,-143.31 873,-143.31"/>
<text text-anchor="middle" x="953.5" y="-150.71" font-family="Helvetica,sans-Serif" font-size="12.00">RoundManager.MovePlayer</text>
</a>
</g>
</g>
<!-- Node4&#45;&gt;Node5 -->
<g id="edge4" class="edge">
<title>Node4&#45;&gt;Node5</title>
<path fill="none" stroke="midnightblue" d="M1059.67,-153.81C1051.19,-153.81 1042.59,-153.81 1034.16,-153.81"/>
<polygon fill="midnightblue" stroke="midnightblue" points="1059.95,-157.31 1069.95,-153.81 1059.95,-150.31 1059.95,-157.31"/>
</g>
<!-- Node6 -->
<g id="node6" class="node">
<title>Node6</title>
<g id="a_node6"><a xlink:href="class_user_controller.html#af896aefe0262e0d8f07fa5f18592877d" target="_top" xlink:title="Selects a tile for player movement">
<polygon fill="white" stroke="black" points="691,-143.31 691,-164.31 837,-164.31 837,-143.31 691,-143.31"/>
<text text-anchor="middle" x="764" y="-150.71" font-family="Helvetica,sans-Serif" font-size="12.00">UserController.SelectTile</text>
</a>
</g>
</g>
<!-- Node5&#45;&gt;Node6 -->
<g id="edge5" class="edge">
<title>Node5&#45;&gt;Node6</title>
<path fill="none" stroke="midnightblue" d="M862.9,-153.81C854.29,-153.81 845.62,-153.81 837.2,-153.81"/>
<polygon fill="midnightblue" stroke="midnightblue" points="862.98,-157.31 872.98,-153.81 862.98,-150.31 862.98,-157.31"/>
</g>
<!-- Node7 -->
<g id="node7" class="node">
<title>Node7</title>
<g id="a_node7"><a xlink:href="class_a_i_controller_script.html#af04897fa0ae4ed5e472dea79bce8d7df" target="_top" xlink:title="Decides where the AI should move to this should match the flow chart of the AI">
<polygon fill="white" stroke="black" points="435,-141.31 435,-162.31 645,-162.31 645,-141.31 435,-141.31"/>
<text text-anchor="middle" x="540" y="-148.71" font-family="Helvetica,sans-Serif" font-size="12.00">AIControllerScript.Decide_Movement</text>
</a>
</g>
</g>
<!-- Node6&#45;&gt;Node7 -->
<g id="edge6" class="edge">
<title>Node6&#45;&gt;Node7</title>
<path fill="none" stroke="midnightblue" d="M680.88,-153.07C669.31,-152.97 657.29,-152.86 645.37,-152.75"/>
<polygon fill="midnightblue" stroke="midnightblue" points="680.89,-156.57 690.92,-153.16 680.95,-149.57 680.89,-156.57"/>
</g>
<!-- Node10 -->
<g id="node10" class="node">
<title>Node10</title>
<g id="a_node10"><a xlink:href="class_user_input_control_script.html#a13be570929e27dad6d3d452ccd5f52eb" target="_top" xlink:title="move player token to the tile the cursor is on">
<polygon fill="white" stroke="black" points="425,-181.31 425,-202.31 655,-202.31 655,-181.31 425,-181.31"/>
<text text-anchor="middle" x="540" y="-188.71" font-family="Helvetica,sans-Serif" font-size="12.00">UserInputControlScript.MovePlayerToken</text>
</a>
</g>
</g>
<!-- Node6&#45;&gt;Node10 -->
<g id="edge9" class="edge">
<title>Node6&#45;&gt;Node10</title>
<path fill="none" stroke="midnightblue" d="M691.51,-166.05C662.89,-170.95 630.23,-176.54 602.66,-181.26"/>
<polygon fill="midnightblue" stroke="midnightblue" points="692.19,-169.48 701.46,-164.35 691.01,-162.58 692.19,-169.48"/>
</g>
<!-- Node8 -->
<g id="node8" class="node">
<title>Node8</title>
<g id="a_node8"><a xlink:href="class_a_i_controller_script.html#ac31d9b8dbb75696b181eff1fbef41b97" target="_top" xlink:title="dictates what the AI will do depending on what mode it is in">
<polygon fill="white" stroke="black" points="215,-102.31 215,-123.31 389,-123.31 389,-102.31 215,-102.31"/>
<text text-anchor="middle" x="302" y="-109.71" font-family="Helvetica,sans-Serif" font-size="12.00">AIControllerScript.AIBehaviour</text>
</a>
</g>
</g>
<!-- Node7&#45;&gt;Node8 -->
<g id="edge7" class="edge">
<title>Node7&#45;&gt;Node8</title>
<path fill="none" stroke="midnightblue" d="M465.36,-139.64C433.73,-134.41 397.11,-128.36 366.67,-123.33"/>
<polygon fill="midnightblue" stroke="midnightblue" points="465.01,-143.13 475.45,-141.31 466.15,-136.22 465.01,-143.13"/>
</g>
<!-- Node9 -->
<g id="node9" class="node">
<title>Node9</title>
<g id="a_node9"><a xlink:href="class_a_i_controller_script.html#a74dc0e720fafceb873d3b19c12f68d58" target="_top" xlink:title=" ">
<polygon fill="white" stroke="black" points="0,-102.31 0,-123.31 179,-123.31 179,-102.31 0,-102.31"/>
<text text-anchor="middle" x="89.5" y="-109.71" font-family="Helvetica,sans-Serif" font-size="12.00">AIControllerScript.FixedUpdate</text>
</a>
</g>
</g>
<!-- Node8&#45;&gt;Node9 -->
<g id="edge8" class="edge">
<title>Node8&#45;&gt;Node9</title>
<path fill="none" stroke="midnightblue" d="M204.57,-112.81C196.15,-112.81 187.67,-112.81 179.32,-112.81"/>
<polygon fill="midnightblue" stroke="midnightblue" points="204.77,-116.31 214.77,-112.81 204.77,-109.31 204.77,-116.31"/>
</g>
<!-- Node12&#45;&gt;Node11 -->
<g id="edge16" class="edge">
<title>Node12&#45;&gt;Node11</title>
<path fill="none" stroke="midnightblue" d="M1519.78,-99.6C1515.7,-97.88 1511.75,-95.96 1508,-93.81 1487.25,-81.92 1492.85,-65.52 1472,-53.81 1465.19,-49.99 1457.79,-46.88 1450.17,-44.35"/>
<polygon fill="midnightblue" stroke="midnightblue" points="1518.88,-103 1529.48,-103.24 1521.35,-96.45 1518.88,-103"/>
</g>
<!-- Node13 -->
<g id="node13" class="node">
<title>Node13</title>
<g id="a_node13"><a xlink:href="class_a_i_controller_script.html#a7be5eb284c6258672e70af128f8638df" target="_top" xlink:title="Decides that cards to accuse based on the To Guess List">
<polygon fill="white" stroke="black" points="1257.5,-63.31 1257.5,-84.31 1471.5,-84.31 1471.5,-63.31 1257.5,-63.31"/>
<text text-anchor="middle" x="1364.5" y="-70.71" font-family="Helvetica,sans-Serif" font-size="12.00">AIControllerScript.Decide_Accusation</text>
</a>
</g>
</g>
<!-- Node12&#45;&gt;Node13 -->
<g id="edge12" class="edge">
<title>Node12&#45;&gt;Node13</title>
<path fill="none" stroke="midnightblue" d="M1532.35,-101.62C1499.2,-96.09 1460.39,-89.63 1428.55,-84.32"/>
<polygon fill="midnightblue" stroke="midnightblue" points="1532,-105.11 1542.44,-103.3 1533.15,-98.2 1532,-105.11"/>
</g>
<!-- Node14 -->
<g id="node14" class="node">
<title>Node14</title>
<g id="a_node14"><a xlink:href="class_a_i_controller_script.html#affdf86fa313c46463a9a5a2b20020a17" target="_top" xlink:title="Decides what the AI should suggest this should match the flow chart of the AI">
<polygon fill="white" stroke="black" points="1257,-103.31 1257,-124.31 1472,-124.31 1472,-103.31 1257,-103.31"/>
<text text-anchor="middle" x="1364.5" y="-110.71" font-family="Helvetica,sans-Serif" font-size="12.00">AIControllerScript.Decide_Suggestion</text>
</a>
</g>
</g>
<!-- Node12&#45;&gt;Node14 -->
<g id="edge14" class="edge">
<title>Node12&#45;&gt;Node14</title>
<path fill="none" stroke="midnightblue" d="M1513.93,-113.81C1500.28,-113.81 1486.12,-113.81 1472.2,-113.81"/>
<polygon fill="midnightblue" stroke="midnightblue" points="1514.25,-117.31 1524.25,-113.81 1514.25,-110.31 1514.25,-117.31"/>
</g>
<!-- Node13&#45;&gt;Node8 -->
<g id="edge13" class="edge">
<title>Node13&#45;&gt;Node8</title>
<path fill="none" stroke="midnightblue" d="M1247.06,-74.25C1165.22,-74.52 1053.17,-74.81 954.5,-74.81 954.5,-74.81 954.5,-74.81 763,-74.81 628.98,-74.81 473.73,-91.03 382.2,-102.28"/>
<polygon fill="midnightblue" stroke="midnightblue" points="1247.16,-77.75 1257.14,-74.21 1247.13,-70.75 1247.16,-77.75"/>
</g>
<!-- Node14&#45;&gt;Node8 -->
<g id="edge15" class="edge">
<title>Node14&#45;&gt;Node8</title>
<path fill="none" stroke="midnightblue" d="M1246.64,-113.37C1164.84,-113.1 1053,-112.81 954.5,-112.81 954.5,-112.81 954.5,-112.81 763,-112.81 632.63,-112.81 481.47,-112.81 389.05,-112.81"/>
<polygon fill="midnightblue" stroke="midnightblue" points="1246.7,-116.87 1256.72,-113.41 1246.73,-109.87 1246.7,-116.87"/>
</g>
<!-- Node15&#45;&gt;Node11 -->
<g id="edge20" class="edge">
<title>Node15&#45;&gt;Node11</title>
<path fill="none" stroke="midnightblue" d="M1532.35,-61.62C1499.2,-56.09 1460.39,-49.63 1428.55,-44.32"/>
<polygon fill="midnightblue" stroke="midnightblue" points="1532,-65.11 1542.44,-63.3 1533.15,-58.2 1532,-65.11"/>
</g>
<!-- Node15&#45;&gt;Node13 -->
<g id="edge18" class="edge">
<title>Node15&#45;&gt;Node13</title>
<path fill="none" stroke="midnightblue" d="M1524.17,-73.81C1507.38,-73.81 1489.46,-73.81 1471.93,-73.81"/>
<polygon fill="midnightblue" stroke="midnightblue" points="1524.47,-77.31 1534.47,-73.81 1524.47,-70.31 1524.47,-77.31"/>
</g>
<!-- Node15&#45;&gt;Node14 -->
<g id="edge19" class="edge">
<title>Node15&#45;&gt;Node14</title>
<path fill="none" stroke="midnightblue" d="M1532.35,-86C1499.2,-91.53 1460.39,-98 1428.55,-103.3"/>
<polygon fill="midnightblue" stroke="midnightblue" points="1533.15,-89.42 1542.44,-84.32 1532,-82.51 1533.15,-89.42"/>
</g>
<!-- Node16&#45;&gt;Node11 -->
<g id="edge24" class="edge">
<title>Node16&#45;&gt;Node11</title>
<path fill="none" stroke="midnightblue" d="M1517.82,-33.81C1498.88,-33.81 1478.77,-33.81 1459.6,-33.81"/>
<polygon fill="midnightblue" stroke="midnightblue" points="1517.91,-37.31 1527.91,-33.81 1517.91,-30.31 1517.91,-37.31"/>
</g>
<!-- Node16&#45;&gt;Node13 -->
<g id="edge22" class="edge">
<title>Node16&#45;&gt;Node13</title>
<path fill="none" stroke="midnightblue" d="M1532.35,-46C1499.2,-51.53 1460.39,-58 1428.55,-63.3"/>
<polygon fill="midnightblue" stroke="midnightblue" points="1533.15,-49.42 1542.44,-44.32 1532,-42.51 1533.15,-49.42"/>
</g>
<!-- Node16&#45;&gt;Node14 -->
<g id="edge23" class="edge">
<title>Node16&#45;&gt;Node14</title>
<path fill="none" stroke="midnightblue" d="M1519.78,-48.03C1515.7,-49.74 1511.75,-51.66 1508,-53.81 1487.25,-65.7 1492.85,-82.1 1472,-93.81 1465.19,-97.63 1457.79,-100.74 1450.17,-103.27"/>
<polygon fill="midnightblue" stroke="midnightblue" points="1521.35,-51.18 1529.48,-44.38 1518.88,-44.62 1521.35,-51.18"/>
</g>
</g>
</svg>
