<?xml version="1.0" encoding="UTF-8" standalone="no"?>
<!DOCTYPE svg PUBLIC "-//W3C//DTD SVG 1.1//EN"
 "http://www.w3.org/Graphics/SVG/1.1/DTD/svg11.dtd">
<!-- Generated by graphviz version 2.47.1 (20210417.1919)
 -->
<!-- Title: RoundManager.AIShowCard Pages: 1 -->
<!--zoomable 268 -->
<svg id="main" version="1.1" xmlns="http://www.w3.org/2000/svg" xmlns:xlink="http://www.w3.org/1999/xlink" xml:space="preserve" onload="init(evt)">
<style type="text/css"><![CDATA[
.edge:hover path { stroke: red; }
.edge:hover polygon { stroke: red; fill: red; }
]]></style>
<script type="text/javascript"><![CDATA[
var edges = document.getElementsByTagName('g');
if (edges && edges.length) {
  for (var i=0;i<edges.length;i++) {
    if (edges[i].id.substr(0,4)=='edge') {
      edges[i].setAttribute('class','edge');
    }
  }
}
]]></script>
        <defs>
                <circle id="rim" cx="0" cy="0" r="7"/>
                <circle id="rim2" cx="0" cy="0" r="3.5"/>
                <g id="zoomPlus">
                        <use xlink:href="#rim" fill="#404040">
                                <set attributeName="fill" to="#808080" begin="zoomplus.mouseover" end="zoomplus.mouseout"/>
                        </use>
                        <path d="M-4,0h8M0,-4v8" fill="none" stroke="white" stroke-width="1.5" pointer-events="none"/>
                </g>
                <g id="zoomMin">
                        <use xlink:href="#rim" fill="#404040">
                                <set attributeName="fill" to="#808080" begin="zoomminus.mouseover" end="zoomminus.mouseout"/>
                        </use>
                        <path d="M-4,0h8" fill="none" stroke="white" stroke-width="1.5" pointer-events="none"/>
                </g>
                <g id="dirArrow">
                        <path fill="none" stroke="white" stroke-width="1.5" d="M0,-3.0v7 M-2.5,-0.5L0,-3.0L2.5,-0.5"/>
                </g>
               <g id="resetDef">
                       <use xlink:href="#rim2" fill="#404040">
                               <set attributeName="fill" to="#808080" begin="reset.mouseover" end="reset.mouseout"/>
                       </use>
               </g>
        </defs>

<script type="text/javascript">
var viewWidth = 1570;
var viewHeight = 268;
var sectionId = 'dynsection-2';
</script>
<script xlink:href="svgpan.js"/>
<svg id="graph" class="graph">
<g id="viewport">
<title>RoundManager.AIShowCard</title>
<polygon fill="white" stroke="transparent" points="-4,4 -4,-264 1566,-264 1566,4 -4,4"/>
<!-- Node1 -->
<g id="node1" class="node">
<title>Node1</title>
<g id="a_node1"><a xlink:title=" ">
<polygon fill="#bfbfbf" stroke="black" points="0,-177.5 0,-198.5 166,-198.5 166,-177.5 0,-177.5"/>
<text text-anchor="middle" x="83" y="-184.9" font-family="Helvetica,sans-Serif" font-size="12.00">RoundManager.AIShowCard</text>
</a>
</g>
</g>
<!-- Node2 -->
<g id="node2" class="node">
<title>Node2</title>
<g id="a_node2"><a xlink:href="class_u_i_handler.html#a4009ca74f59111933be2a637c7835e18" target="_top" xlink:title="Displays a card from a player that has it">
<polygon fill="white" stroke="black" points="202,-177.5 202,-198.5 328,-198.5 328,-177.5 202,-177.5"/>
<text text-anchor="middle" x="265" y="-184.9" font-family="Helvetica,sans-Serif" font-size="12.00">UIHandler.ShowCard</text>
</a>
</g>
</g>
<!-- Node1&#45;&gt;Node2 -->
<g id="edge1" class="edge">
<title>Node1&#45;&gt;Node2</title>
<path fill="none" stroke="midnightblue" d="M166.1,-188C174.67,-188 183.33,-188 191.78,-188"/>
<polygon fill="midnightblue" stroke="midnightblue" points="191.96,-191.5 201.96,-188 191.96,-184.5 191.96,-191.5"/>
</g>
<!-- Node3 -->
<g id="node3" class="node">
<title>Node3</title>
<g id="a_node3"><a xlink:href="class_player_master_controller.html#a12c91851433777ae557a71d9f9a855f0" target="_top" xlink:title=" ">
<polygon fill="white" stroke="black" points="364,-237.5 364,-258.5 573,-258.5 573,-237.5 364,-237.5"/>
<text text-anchor="middle" x="468.5" y="-244.9" font-family="Helvetica,sans-Serif" font-size="12.00">PlayerMasterController.GetCharacter</text>
</a>
</g>
</g>
<!-- Node2&#45;&gt;Node3 -->
<g id="edge2" class="edge">
<title>Node2&#45;&gt;Node3</title>
<path fill="none" stroke="midnightblue" d="M288.51,-198.67C308.09,-207.59 337.4,-220.09 364,-228 373.11,-230.71 382.79,-233.15 392.43,-235.3"/>
<polygon fill="midnightblue" stroke="midnightblue" points="391.92,-238.78 402.43,-237.45 393.39,-231.93 391.92,-238.78"/>
</g>
<!-- Node4 -->
<g id="node4" class="node">
<title>Node4</title>
<g id="a_node4"><a xlink:href="class_enum_to_string.html#a078a1fb16a0030544fac1b96a90b6b83" target="_top" xlink:title="Get a string value from a valid enum">
<polygon fill="white" stroke="black" points="911,-158.5 911,-179.5 1112,-179.5 1112,-158.5 911,-158.5"/>
<text text-anchor="middle" x="1011.5" y="-165.9" font-family="Helvetica,sans-Serif" font-size="12.00">EnumToString.GetStringFromEnum</text>
</a>
</g>
</g>
<!-- Node2&#45;&gt;Node4 -->
<g id="edge3" class="edge">
<title>Node2&#45;&gt;Node4</title>
<path fill="none" stroke="midnightblue" d="M328.2,-186.41C454.38,-183.19 741.92,-175.85 900.48,-171.81"/>
<polygon fill="midnightblue" stroke="midnightblue" points="900.83,-175.3 910.74,-171.55 900.65,-168.3 900.83,-175.3"/>
</g>
<!-- Node5 -->
<g id="node5" class="node">
<title>Node5</title>
<g id="a_node5"><a xlink:href="class_round_manager.html#a6cf32ad7ffd3cafc902ae5faeb7605f8" target="_top" xlink:title="removing a card from the player&#39;s To Guess List notify the AI if a player finished showing a suggeste...">
<polygon fill="white" stroke="black" points="374.5,-87.5 374.5,-108.5 562.5,-108.5 562.5,-87.5 374.5,-87.5"/>
<text text-anchor="middle" x="468.5" y="-94.9" font-family="Helvetica,sans-Serif" font-size="12.00">RoundManager.NotifySuggestion</text>
</a>
</g>
</g>
<!-- Node2&#45;&gt;Node5 -->
<g id="edge4" class="edge">
<title>Node2&#45;&gt;Node5</title>
<path fill="none" stroke="midnightblue" d="M289.51,-177.5C325.36,-161.49 393.81,-130.91 434.59,-112.7"/>
<polygon fill="midnightblue" stroke="midnightblue" points="436.13,-115.85 443.83,-108.57 433.27,-109.46 436.13,-115.85"/>
</g>
<!-- Node14 -->
<g id="node14" class="node">
<title>Node14</title>
<g id="a_node14"><a xlink:href="class_card_slot.html#a9049dedcebbbc4b2185a2a01d76d4ed5" target="_top" xlink:title=" ">
<polygon fill="white" stroke="black" points="413.5,-197.5 413.5,-218.5 523.5,-218.5 523.5,-197.5 413.5,-197.5"/>
<text text-anchor="middle" x="468.5" y="-204.9" font-family="Helvetica,sans-Serif" font-size="12.00">CardSlot.SetCard</text>
</a>
</g>
</g>
<!-- Node2&#45;&gt;Node14 -->
<g id="edge16" class="edge">
<title>Node2&#45;&gt;Node14</title>
<path fill="none" stroke="midnightblue" d="M328.1,-194.16C351.98,-196.53 379.27,-199.24 403.34,-201.63"/>
<polygon fill="midnightblue" stroke="midnightblue" points="403.14,-205.13 413.44,-202.63 403.83,-198.16 403.14,-205.13"/>
</g>
<!-- Node6 -->
<g id="node6" class="node">
<title>Node6</title>
<g id="a_node6"><a xlink:href="class_round_manager.html#aab3f49a5e05508a8e023a497e763c1c8" target="_top" xlink:title="Gets the player controller for the current player">
<polygon fill="white" stroke="black" points="642,-19.5 642,-40.5 832,-40.5 832,-19.5 642,-19.5"/>
<text text-anchor="middle" x="737" y="-26.9" font-family="Helvetica,sans-Serif" font-size="12.00">RoundManager.GetCurrentPlayer</text>
</a>
</g>
</g>
<!-- Node5&#45;&gt;Node6 -->
<g id="edge5" class="edge">
<title>Node5&#45;&gt;Node6</title>
<path fill="none" stroke="midnightblue" d="M500.27,-87.5C528.36,-78.16 571.15,-64.53 609,-55 627.29,-50.4 647.23,-46.12 665.78,-42.46"/>
<polygon fill="midnightblue" stroke="midnightblue" points="666.48,-45.89 675.63,-40.55 665.15,-39.02 666.48,-45.89"/>
</g>
<!-- Node8 -->
<g id="node8" class="node">
<title>Node8</title>
<g id="a_node8"><a xlink:href="class_a_i_controller_script.html#a208f5afe4102ff2ca04a03a425d76279" target="_top" xlink:title="for the round manager to notify that another player finished picking a card to show">
<polygon fill="white" stroke="black" points="637,-109.5 637,-130.5 837,-130.5 837,-109.5 637,-109.5"/>
<text text-anchor="middle" x="737" y="-116.9" font-family="Helvetica,sans-Serif" font-size="12.00">AIControllerScript.NotifySuggestion</text>
</a>
</g>
</g>
<!-- Node5&#45;&gt;Node8 -->
<g id="edge7" class="edge">
<title>Node5&#45;&gt;Node8</title>
<path fill="none" stroke="midnightblue" d="M562.71,-105.69C583.44,-107.41 605.6,-109.24 626.91,-110.99"/>
<polygon fill="midnightblue" stroke="midnightblue" points="626.7,-114.49 636.95,-111.82 627.28,-107.51 626.7,-114.49"/>
</g>
<!-- Node12 -->
<g id="node12" class="node">
<title>Node12</title>
<g id="a_node12"><a xlink:href="class_player_master_controller.html#a16dbaeb841ba29cdc8b7cb3b3bc86d99" target="_top" xlink:title="Remove a card from ToGuessCard">
<polygon fill="white" stroke="black" points="609,-64.5 609,-85.5 865,-85.5 865,-64.5 609,-64.5"/>
<text text-anchor="middle" x="737" y="-71.9" font-family="Helvetica,sans-Serif" font-size="12.00">PlayerMasterController.RemoveToGuessCard</text>
</a>
</g>
</g>
<!-- Node5&#45;&gt;Node12 -->
<g id="edge14" class="edge">
<title>Node5&#45;&gt;Node12</title>
<path fill="none" stroke="midnightblue" d="M562.71,-89.96C576.12,-88.8 590.12,-87.59 604.1,-86.38"/>
<polygon fill="midnightblue" stroke="midnightblue" points="604.61,-89.85 614.27,-85.51 604.01,-82.88 604.61,-89.85"/>
</g>
<!-- Node7 -->
<g id="node7" class="node">
<title>Node7</title>
<g id="a_node7"><a xlink:href="class_turn_controller.html#af16e42b7e61c5a999291327e2e556caa" target="_top" xlink:title=" ">
<polygon fill="white" stroke="black" points="920.5,-0.5 920.5,-21.5 1102.5,-21.5 1102.5,-0.5 920.5,-0.5"/>
<text text-anchor="middle" x="1011.5" y="-7.9" font-family="Helvetica,sans-Serif" font-size="12.00">TurnController.GetCurrentPlayer</text>
</a>
</g>
</g>
<!-- Node6&#45;&gt;Node7 -->
<g id="edge6" class="edge">
<title>Node6&#45;&gt;Node7</title>
<path fill="none" stroke="midnightblue" d="M832.16,-23.43C857.42,-21.67 884.82,-19.76 910.39,-17.98"/>
<polygon fill="midnightblue" stroke="midnightblue" points="910.74,-21.46 920.47,-17.28 910.25,-14.48 910.74,-21.46"/>
</g>
<!-- Node8&#45;&gt;Node4 -->
<g id="edge8" class="edge">
<title>Node8&#45;&gt;Node4</title>
<path fill="none" stroke="midnightblue" d="M796.46,-130.51C839.06,-138.17 896.91,-148.58 941.74,-156.63"/>
<polygon fill="midnightblue" stroke="midnightblue" points="941.21,-160.1 951.67,-158.42 942.45,-153.21 941.21,-160.1"/>
</g>
<!-- Node9 -->
<g id="node9" class="node">
<title>Node9</title>
<g id="a_node9"><a xlink:href="class_a_i_controller_script.html#ab124aec8211aa7b8f00c6ef5db6bc96a" target="_top" xlink:title="for out putting the debug stack if outputDebugText is true, it will out put the the console as well">
<polygon fill="white" stroke="black" points="1382,-118.5 1382,-139.5 1562,-139.5 1562,-118.5 1382,-118.5"/>
<text text-anchor="middle" x="1472" y="-125.9" font-family="Helvetica,sans-Serif" font-size="12.00">AIControllerScript.OutputDebug</text>
</a>
</g>
</g>
<!-- Node8&#45;&gt;Node9 -->
<g id="edge9" class="edge">
<title>Node8&#45;&gt;Node9</title>
<path fill="none" stroke="midnightblue" d="M837.07,-112.24C858.16,-110.89 880.31,-109.7 901,-109 1098.67,-102.34 1148.84,-93.33 1346,-109 1365.96,-110.59 1387.55,-113.58 1407.08,-116.77"/>
<polygon fill="midnightblue" stroke="midnightblue" points="1406.64,-120.25 1417.08,-118.45 1407.8,-113.34 1406.64,-120.25"/>
</g>
<!-- Node10 -->
<g id="node10" class="node">
<title>Node10</title>
<g id="a_node10"><a xlink:href="class_a_i_controller_script.html#aaee909cd0f0ffdedd8d8425607d7ccb5" target="_top" xlink:title="to set the AI&#39;s mode">
<polygon fill="white" stroke="black" points="926.5,-118.5 926.5,-139.5 1096.5,-139.5 1096.5,-118.5 926.5,-118.5"/>
<text text-anchor="middle" x="1011.5" y="-125.9" font-family="Helvetica,sans-Serif" font-size="12.00">AIControllerScript.SetAIMode</text>
</a>
</g>
</g>
<!-- Node8&#45;&gt;Node10 -->
<g id="edge10" class="edge">
<title>Node8&#45;&gt;Node10</title>
<path fill="none" stroke="midnightblue" d="M837.15,-123.27C862.94,-124.13 890.66,-125.04 916.19,-125.89"/>
<polygon fill="midnightblue" stroke="midnightblue" points="916.13,-129.38 926.24,-126.22 916.36,-122.39 916.13,-129.38"/>
</g>
<!-- Node10&#45;&gt;Node9 -->
<g id="edge13" class="edge">
<title>Node10&#45;&gt;Node9</title>
<path fill="none" stroke="midnightblue" d="M1075.33,-139.55C1100.9,-143.34 1130.78,-147.14 1158,-149 1241.36,-154.7 1262.71,-155.62 1346,-149 1365.96,-147.41 1387.55,-144.42 1407.08,-141.23"/>
<polygon fill="midnightblue" stroke="midnightblue" points="1407.8,-144.66 1417.08,-139.55 1406.64,-137.75 1407.8,-144.66"/>
</g>
<!-- Node11 -->
<g id="node11" class="node">
<title>Node11</title>
<g id="a_node11"><a xlink:href="class_a_i_controller_script.html#afcb2875a5501f07a7f44d0fa720266f3" target="_top" xlink:title="to delay the time for the next time the AI does something in the Update">
<polygon fill="white" stroke="black" points="1158,-118.5 1158,-139.5 1346,-139.5 1346,-118.5 1158,-118.5"/>
<text text-anchor="middle" x="1252" y="-125.9" font-family="Helvetica,sans-Serif" font-size="12.00">AIControllerScript.DelayDecision</text>
</a>
</g>
</g>
<!-- Node10&#45;&gt;Node11 -->
<g id="edge11" class="edge">
<title>Node10&#45;&gt;Node11</title>
<path fill="none" stroke="midnightblue" d="M1096.59,-129C1113.18,-129 1130.77,-129 1147.9,-129"/>
<polygon fill="midnightblue" stroke="midnightblue" points="1147.93,-132.5 1157.93,-129 1147.93,-125.5 1147.93,-132.5"/>
</g>
<!-- Node11&#45;&gt;Node9 -->
<g id="edge12" class="edge">
<title>Node11&#45;&gt;Node9</title>
<path fill="none" stroke="midnightblue" d="M1346.08,-129C1354.48,-129 1363,-129 1371.44,-129"/>
<polygon fill="midnightblue" stroke="midnightblue" points="1371.69,-132.5 1381.69,-129 1371.69,-125.5 1371.69,-132.5"/>
</g>
<!-- Node13 -->
<g id="node13" class="node">
<title>Node13</title>
<g id="a_node13"><a xlink:href="class_player_stats_script.html#a9cfb94bd7661f4120b9ea69c025bd368" target="_top" xlink:title="remove a selected card from To Guess List">
<polygon fill="white" stroke="black" points="901,-40.5 901,-61.5 1122,-61.5 1122,-40.5 901,-40.5"/>
<text text-anchor="middle" x="1011.5" y="-47.9" font-family="Helvetica,sans-Serif" font-size="12.00">PlayerStatsScript.RemoveToGessCard</text>
</a>
</g>
</g>
<!-- Node12&#45;&gt;Node13 -->
<g id="edge15" class="edge">
<title>Node12&#45;&gt;Node13</title>
<path fill="none" stroke="midnightblue" d="M857.52,-64.47C868.58,-63.5 879.79,-62.51 890.85,-61.54"/>
<polygon fill="midnightblue" stroke="midnightblue" points="891.3,-65.01 900.95,-60.65 890.69,-58.04 891.3,-65.01"/>
</g>
<!-- Node15 -->
<g id="node15" class="node">
<title>Node15</title>
<g id="a_node15"><a xlink:href="class_card_slot.html#a4690c0753db45ada6b02681269ecfbb1" target="_top" xlink:title=" ">
<polygon fill="white" stroke="black" points="663.5,-197.5 663.5,-218.5 810.5,-218.5 810.5,-197.5 663.5,-197.5"/>
<text text-anchor="middle" x="737" y="-204.9" font-family="Helvetica,sans-Serif" font-size="12.00">CardSlot.SetCardDetails</text>
</a>
</g>
</g>
<!-- Node14&#45;&gt;Node15 -->
<g id="edge17" class="edge">
<title>Node14&#45;&gt;Node15</title>
<path fill="none" stroke="midnightblue" d="M523.75,-208C560.87,-208 610.79,-208 652.89,-208"/>
<polygon fill="midnightblue" stroke="midnightblue" points="653.13,-211.5 663.13,-208 653.13,-204.5 653.13,-211.5"/>
</g>
<!-- Node15&#45;&gt;Node4 -->
<g id="edge20" class="edge">
<title>Node15&#45;&gt;Node4</title>
<path fill="none" stroke="midnightblue" d="M810.67,-197.6C846.41,-192.48 889.67,-186.29 926.79,-180.98"/>
<polygon fill="midnightblue" stroke="midnightblue" points="927.69,-184.39 937.09,-179.51 926.69,-177.46 927.69,-184.39"/>
</g>
<!-- Node16 -->
<g id="node16" class="node">
<title>Node16</title>
<g id="a_node16"><a xlink:href="class_card.html#a25e8366933b176fae41e4d2373be7815" target="_top" xlink:title=" ">
<polygon fill="white" stroke="black" points="950,-238.5 950,-259.5 1073,-259.5 1073,-238.5 950,-238.5"/>
<text text-anchor="middle" x="1011.5" y="-245.9" font-family="Helvetica,sans-Serif" font-size="12.00">Card.GetCardImage</text>
</a>
</g>
</g>
<!-- Node15&#45;&gt;Node16 -->
<g id="edge18" class="edge">
<title>Node15&#45;&gt;Node16</title>
<path fill="none" stroke="midnightblue" d="M807.82,-218.51C848.23,-224.59 898.97,-232.22 939.57,-238.33"/>
<polygon fill="midnightblue" stroke="midnightblue" points="939.25,-241.82 949.66,-239.85 940.29,-234.9 939.25,-241.82"/>
</g>
<!-- Node17 -->
<g id="node17" class="node">
<title>Node17</title>
<g id="a_node17"><a xlink:href="class_card.html#a094a5e7ea98cc156ac64e578a987be85" target="_top" xlink:title=" ">
<polygon fill="white" stroke="black" points="953.5,-198.5 953.5,-219.5 1069.5,-219.5 1069.5,-198.5 953.5,-198.5"/>
<text text-anchor="middle" x="1011.5" y="-205.9" font-family="Helvetica,sans-Serif" font-size="12.00">Card.GetCardType</text>
</a>
</g>
</g>
<!-- Node15&#45;&gt;Node17 -->
<g id="edge19" class="edge">
<title>Node15&#45;&gt;Node17</title>
<path fill="none" stroke="midnightblue" d="M810.67,-208.27C851.71,-208.42 902.68,-208.6 942.87,-208.75"/>
<polygon fill="midnightblue" stroke="midnightblue" points="943.1,-212.25 953.11,-208.79 943.12,-205.25 943.1,-212.25"/>
</g>
</g>
</svg>
        <g id="navigator" transform="translate(0 0)" fill="#404254">
                <rect fill="#f2f5e9" fill-opacity="0.5" stroke="#606060" stroke-width=".5" x="0" y="0" width="60" height="60"/>
                <use id="zoomplus" xlink:href="#zoomPlus" x="17" y="9" onmousedown="handleZoom(evt,'in')"/>
                <use id="zoomminus" xlink:href="#zoomMin" x="42" y="9" onmousedown="handleZoom(evt,'out')"/>
                <use id="reset" xlink:href="#resetDef" x="30" y="36" onmousedown="handleReset()"/>
                <g id="arrowUp" xlink:href="#dirArrow" transform="translate(30 24)" onmousedown="handlePan(0,-1)">
                  <use xlink:href="#rim" fill="#404040">
                        <set attributeName="fill" to="#808080" begin="arrowUp.mouseover" end="arrowUp.mouseout"/>
                  </use>
                  <path fill="none" stroke="white" stroke-width="1.5" d="M0,-3.0v7 M-2.5,-0.5L0,-3.0L2.5,-0.5"/>
                </g>
                <g id="arrowRight" xlink:href="#dirArrow" transform="rotate(90) translate(36 -43)" onmousedown="handlePan(1,0)">
                  <use xlink:href="#rim" fill="#404040">
                        <set attributeName="fill" to="#808080" begin="arrowRight.mouseover" end="arrowRight.mouseout"/>
                  </use>
                  <path fill="none" stroke="white" stroke-width="1.5" d="M0,-3.0v7 M-2.5,-0.5L0,-3.0L2.5,-0.5"/>
                </g>
                <g id="arrowDown" xlink:href="#dirArrow" transform="rotate(180) translate(-30 -48)" onmousedown="handlePan(0,1)">
                  <use xlink:href="#rim" fill="#404040">
                        <set attributeName="fill" to="#808080" begin="arrowDown.mouseover" end="arrowDown.mouseout"/>
                  </use>
                  <path fill="none" stroke="white" stroke-width="1.5" d="M0,-3.0v7 M-2.5,-0.5L0,-3.0L2.5,-0.5"/>
                </g>
                <g id="arrowLeft" xlink:href="#dirArrow" transform="rotate(270) translate(-36 17)" onmousedown="handlePan(-1,0)">
                  <use xlink:href="#rim" fill="#404040">
                        <set attributeName="fill" to="#808080" begin="arrowLeft.mouseover" end="arrowLeft.mouseout"/>
                  </use>
                  <path fill="none" stroke="white" stroke-width="1.5" d="M0,-3.0v7 M-2.5,-0.5L0,-3.0L2.5,-0.5"/>
                </g>
        </g>
        <svg viewBox="0 0 15 15" width="100%" height="30px" preserveAspectRatio="xMaxYMin meet">
         <g id="arrow_out" transform="scale(0.3 0.3)">
          <a xlink:href="class_round_manager_a780da336fd16dcaee0f00306578f13b4_cgraph_org.svg" target="_base">
           <rect id="button" ry="5" rx="5" y="6" x="6" height="38" width="38"
                fill="#f2f5e9" fill-opacity="0.5" stroke="#606060" stroke-width="1.0"/>
           <path id="arrow"
             d="M 11.500037,31.436501 C 11.940474,20.09759 22.043105,11.32322 32.158766,21.979434 L 37.068811,17.246167 C 37.068811,17.246167 37.088388,32 37.088388,32 L 22.160133,31.978069 C 22.160133,31.978069 26.997745,27.140456 26.997745,27.140456 C 18.528582,18.264221 13.291696,25.230495 11.500037,31.436501 z"
             style="fill:#404040;"/>
          </a>
         </g>
        </svg>
</svg>
