<?xml version="1.0" encoding="UTF-8" standalone="no"?>
<!DOCTYPE svg PUBLIC "-//W3C//DTD SVG 1.1//EN"
 "http://www.w3.org/Graphics/SVG/1.1/DTD/svg11.dtd">
<!-- Generated by graphviz version 2.47.1 (20210417.1919)
 -->
<!-- Title: BoardTileEffectHandlerScript.ToggleEffect_On Pages: 1 -->
<svg width="2132pt" height="350pt"
 viewBox="0.00 0.00 2132.00 350.00" xmlns="http://www.w3.org/2000/svg" xmlns:xlink="http://www.w3.org/1999/xlink">
<g id="graph0" class="graph" transform="scale(1 1) rotate(0) translate(4 346)">
<title>BoardTileEffectHandlerScript.ToggleEffect_On</title>
<polygon fill="white" stroke="transparent" points="-4,4 -4,-346 2128,-346 2128,4 -4,4"/>
<!-- Node1 -->
<g id="node1" class="node">
<title>Node1</title>
<g id="a_node1"><a xlink:title="turn on the effect for when player can move to that tile">
<polygon fill="#bfbfbf" stroke="black" points="1864,-140.5 1864,-161.5 2124,-161.5 2124,-140.5 1864,-140.5"/>
<text text-anchor="middle" x="1994" y="-147.9" font-family="Helvetica,sans-Serif" font-size="12.00">BoardTileEffectHandlerScript.ToggleEffect_On</text>
</a>
</g>
</g>
<!-- Node2 -->
<g id="node2" class="node">
<title>Node2</title>
<g id="a_node2"><a xlink:href="class_board_tile_script.html#a3ff1d3c491fe4d7e421a624ac0b5be6f" target="_top" xlink:title="setting the glow on the tile">
<polygon fill="white" stroke="black" points="1682,-140.5 1682,-161.5 1828,-161.5 1828,-140.5 1682,-140.5"/>
<text text-anchor="middle" x="1755" y="-147.9" font-family="Helvetica,sans-Serif" font-size="12.00">BoardTileScript.GlowTile</text>
</a>
</g>
</g>
<!-- Node1&#45;&gt;Node2 -->
<g id="edge1" class="edge">
<title>Node1&#45;&gt;Node2</title>
<path fill="none" stroke="midnightblue" d="M1853.47,-151C1844.77,-151 1836.22,-151 1828.02,-151"/>
<polygon fill="midnightblue" stroke="midnightblue" points="1853.75,-154.5 1863.75,-151 1853.75,-147.5 1853.75,-154.5"/>
</g>
<!-- Node3 -->
<g id="node3" class="node">
<title>Node3</title>
<g id="a_node3"><a xlink:href="class_board_manager.html#a653d38723d03f890d38a1b68a855c569" target="_top" xlink:title="Clear all movable tiles">
<polygon fill="white" stroke="black" points="1474.5,-100.5 1474.5,-121.5 1645.5,-121.5 1645.5,-100.5 1474.5,-100.5"/>
<text text-anchor="middle" x="1560" y="-107.9" font-family="Helvetica,sans-Serif" font-size="12.00">BoardManager.ClearMovable</text>
</a>
</g>
</g>
<!-- Node2&#45;&gt;Node3 -->
<g id="edge2" class="edge">
<title>Node2&#45;&gt;Node3</title>
<path fill="none" stroke="midnightblue" d="M1693.45,-138.45C1667.18,-133.01 1636.76,-126.7 1611.7,-121.51"/>
<polygon fill="midnightblue" stroke="midnightblue" points="1692.79,-141.89 1703.29,-140.49 1694.21,-135.03 1692.79,-141.89"/>
</g>
<!-- Node20 -->
<g id="node20" class="node">
<title>Node20</title>
<g id="a_node20"><a xlink:href="class_board_manager.html#ad6679de327b4f4b736f06d0d549b72a0" target="_top" xlink:title="Mark and show which tile the player can move to">
<polygon fill="white" stroke="black" points="1474,-200.5 1474,-221.5 1646,-221.5 1646,-200.5 1474,-200.5"/>
<text text-anchor="middle" x="1560" y="-207.9" font-family="Helvetica,sans-Serif" font-size="12.00">BoardManager.ShowMovable</text>
</a>
</g>
</g>
<!-- Node2&#45;&gt;Node20 -->
<g id="edge20" class="edge">
<title>Node2&#45;&gt;Node20</title>
<path fill="none" stroke="midnightblue" d="M1710.02,-164.67C1675.12,-175.52 1627.05,-190.47 1595.04,-200.42"/>
<polygon fill="midnightblue" stroke="midnightblue" points="1711.43,-167.9 1719.94,-161.59 1709.35,-161.22 1711.43,-167.9"/>
</g>
<!-- Node4 -->
<g id="node4" class="node">
<title>Node4</title>
<g id="a_node4"><a xlink:href="class_testing___movement_script.html#a8bd90f3857ba3610ef23e0a5d7e4879a" target="_top" xlink:title="give a select value for the player roll">
<polygon fill="white" stroke="black" points="1202,-120.5 1202,-141.5 1395,-141.5 1395,-120.5 1202,-120.5"/>
<text text-anchor="middle" x="1298.5" y="-127.9" font-family="Helvetica,sans-Serif" font-size="12.00">Testing_MovementScript.GiveRoll</text>
</a>
</g>
</g>
<!-- Node3&#45;&gt;Node4 -->
<g id="edge3" class="edge">
<title>Node3&#45;&gt;Node4</title>
<path fill="none" stroke="midnightblue" d="M1464.18,-118.31C1441.72,-120.04 1417.74,-121.89 1395.24,-123.62"/>
<polygon fill="midnightblue" stroke="midnightblue" points="1464.69,-121.78 1474.39,-117.52 1464.15,-114.8 1464.69,-121.78"/>
</g>
<!-- Node5 -->
<g id="node5" class="node">
<title>Node5</title>
<g id="a_node5"><a xlink:href="class_round_manager.html#adfd4f66436e06c12a25c9236b629f369" target="_top" xlink:title="moving the current player to the selected tile">
<polygon fill="white" stroke="black" points="1218,-80.5 1218,-101.5 1379,-101.5 1379,-80.5 1218,-80.5"/>
<text text-anchor="middle" x="1298.5" y="-87.9" font-family="Helvetica,sans-Serif" font-size="12.00">RoundManager.MovePlayer</text>
</a>
</g>
</g>
<!-- Node3&#45;&gt;Node5 -->
<g id="edge4" class="edge">
<title>Node3&#45;&gt;Node5</title>
<path fill="none" stroke="midnightblue" d="M1464.22,-103.69C1436.29,-101.54 1406.03,-99.21 1379.15,-97.14"/>
<polygon fill="midnightblue" stroke="midnightblue" points="1464.15,-107.2 1474.39,-104.48 1464.69,-100.22 1464.15,-107.2"/>
</g>
<!-- Node11 -->
<g id="node11" class="node">
<title>Node11</title>
<g id="a_node11"><a xlink:href="class_board_manager.html#a7607382dac3371733cee2f30a8ba6f25" target="_top" xlink:title="Show movable tiles">
<polygon fill="white" stroke="black" points="1212.5,-160.5 1212.5,-181.5 1384.5,-181.5 1384.5,-160.5 1212.5,-160.5"/>
<text text-anchor="middle" x="1298.5" y="-167.9" font-family="Helvetica,sans-Serif" font-size="12.00">BoardManager.ShowMovable</text>
</a>
</g>
</g>
<!-- Node3&#45;&gt;Node11 -->
<g id="edge10" class="edge">
<title>Node3&#45;&gt;Node11</title>
<path fill="none" stroke="midnightblue" d="M1521.88,-125.16C1498.18,-133.72 1466.64,-144.25 1438,-151 1420.86,-155.04 1402.31,-158.39 1384.54,-161.13"/>
<polygon fill="midnightblue" stroke="midnightblue" points="1523.34,-128.35 1531.52,-121.62 1520.93,-121.78 1523.34,-128.35"/>
</g>
<!-- Node12 -->
<g id="node12" class="node">
<title>Node12</title>
<g id="a_node12"><a xlink:href="class_round_manager.html#acf644ae21a6f9ebc2a476fc8603e18fc" target="_top" xlink:title="Method for starting the turn">
<polygon fill="white" stroke="black" points="1225,-40.5 1225,-61.5 1372,-61.5 1372,-40.5 1225,-40.5"/>
<text text-anchor="middle" x="1298.5" y="-47.9" font-family="Helvetica,sans-Serif" font-size="12.00">RoundManager.StartTurn</text>
</a>
</g>
</g>
<!-- Node3&#45;&gt;Node12 -->
<g id="edge11" class="edge">
<title>Node3&#45;&gt;Node12</title>
<path fill="none" stroke="midnightblue" d="M1521.88,-96.84C1498.18,-88.28 1466.64,-77.75 1438,-71 1416.84,-66.01 1393.54,-62.07 1372.19,-59.05"/>
<polygon fill="midnightblue" stroke="midnightblue" points="1520.93,-100.22 1531.52,-100.38 1523.34,-93.65 1520.93,-100.22"/>
</g>
<!-- Node19 -->
<g id="node19" class="node">
<title>Node19</title>
<g id="a_node19"><a xlink:href="class_player_token_script.html#acadae9824e11bd147d2c65cbb86ea89d" target="_top" xlink:title=" ">
<polygon fill="white" stroke="black" points="1206,-0.5 1206,-21.5 1391,-21.5 1391,-0.5 1206,-0.5"/>
<text text-anchor="middle" x="1298.5" y="-7.9" font-family="Helvetica,sans-Serif" font-size="12.00">PlayerTokenScript.TakeShortcut</text>
</a>
</g>
</g>
<!-- Node3&#45;&gt;Node19 -->
<g id="edge19" class="edge">
<title>Node3&#45;&gt;Node19</title>
<path fill="none" stroke="midnightblue" d="M1539.06,-93.74C1516.26,-75.03 1477.02,-45.86 1438,-31 1423.24,-25.38 1407.05,-21.33 1391.1,-18.4"/>
<polygon fill="midnightblue" stroke="midnightblue" points="1537.04,-96.62 1546.96,-100.35 1541.53,-91.25 1537.04,-96.62"/>
</g>
<!-- Node6 -->
<g id="node6" class="node">
<title>Node6</title>
<g id="a_node6"><a xlink:href="class_user_controller.html#af896aefe0262e0d8f07fa5f18592877d" target="_top" xlink:title="Selects a tile for player movement">
<polygon fill="white" stroke="black" points="957,-80.5 957,-101.5 1103,-101.5 1103,-80.5 957,-80.5"/>
<text text-anchor="middle" x="1030" y="-87.9" font-family="Helvetica,sans-Serif" font-size="12.00">UserController.SelectTile</text>
</a>
</g>
</g>
<!-- Node5&#45;&gt;Node6 -->
<g id="edge5" class="edge">
<title>Node5&#45;&gt;Node6</title>
<path fill="none" stroke="midnightblue" d="M1207.52,-91C1173.6,-91 1135.49,-91 1103.38,-91"/>
<polygon fill="midnightblue" stroke="midnightblue" points="1207.9,-94.5 1217.9,-91 1207.9,-87.5 1207.9,-94.5"/>
</g>
<!-- Node7 -->
<g id="node7" class="node">
<title>Node7</title>
<g id="a_node7"><a xlink:href="class_a_i_controller_script.html#af04897fa0ae4ed5e472dea79bce8d7df" target="_top" xlink:title="Decides where the AI should move to this should match the flow chart of the AI">
<polygon fill="white" stroke="black" points="425,-99.5 425,-120.5 635,-120.5 635,-99.5 425,-99.5"/>
<text text-anchor="middle" x="530" y="-106.9" font-family="Helvetica,sans-Serif" font-size="12.00">AIControllerScript.Decide_Movement</text>
</a>
</g>
</g>
<!-- Node6&#45;&gt;Node7 -->
<g id="edge6" class="edge">
<title>Node6&#45;&gt;Node7</title>
<path fill="none" stroke="midnightblue" d="M963.81,-103.18C943.74,-106.4 921.53,-109.41 901,-111 811.5,-117.95 709.45,-117.01 635.23,-114.73"/>
<polygon fill="midnightblue" stroke="midnightblue" points="964.48,-106.62 973.78,-101.55 963.34,-99.71 964.48,-106.62"/>
</g>
<!-- Node10 -->
<g id="node10" class="node">
<title>Node10</title>
<g id="a_node10"><a xlink:href="class_user_input_control_script.html#a13be570929e27dad6d3d452ccd5f52eb" target="_top" xlink:title="move player token to the tile the cursor is on">
<polygon fill="white" stroke="black" points="671,-80.5 671,-101.5 901,-101.5 901,-80.5 671,-80.5"/>
<text text-anchor="middle" x="786" y="-87.9" font-family="Helvetica,sans-Serif" font-size="12.00">UserInputControlScript.MovePlayerToken</text>
</a>
</g>
</g>
<!-- Node6&#45;&gt;Node10 -->
<g id="edge9" class="edge">
<title>Node6&#45;&gt;Node10</title>
<path fill="none" stroke="midnightblue" d="M946.69,-91C931.98,-91 916.43,-91 901.02,-91"/>
<polygon fill="midnightblue" stroke="midnightblue" points="946.72,-94.5 956.72,-91 946.72,-87.5 946.72,-94.5"/>
</g>
<!-- Node8 -->
<g id="node8" class="node">
<title>Node8</title>
<g id="a_node8"><a xlink:href="class_a_i_controller_script.html#ac31d9b8dbb75696b181eff1fbef41b97" target="_top" xlink:title="dictates what the AI will do depending on what mode it is in">
<polygon fill="white" stroke="black" points="215,-40.5 215,-61.5 389,-61.5 389,-40.5 215,-40.5"/>
<text text-anchor="middle" x="302" y="-47.9" font-family="Helvetica,sans-Serif" font-size="12.00">AIControllerScript.AIBehaviour</text>
</a>
</g>
</g>
<!-- Node7&#45;&gt;Node8 -->
<g id="edge7" class="edge">
<title>Node7&#45;&gt;Node8</title>
<path fill="none" stroke="midnightblue" d="M478.86,-96.91C438.1,-86.27 381.33,-71.45 343.43,-61.56"/>
<polygon fill="midnightblue" stroke="midnightblue" points="478.04,-100.31 488.6,-99.45 479.8,-93.54 478.04,-100.31"/>
</g>
<!-- Node9 -->
<g id="node9" class="node">
<title>Node9</title>
<g id="a_node9"><a xlink:href="class_a_i_controller_script.html#a74dc0e720fafceb873d3b19c12f68d58" target="_top" xlink:title=" ">
<polygon fill="white" stroke="black" points="0,-40.5 0,-61.5 179,-61.5 179,-40.5 0,-40.5"/>
<text text-anchor="middle" x="89.5" y="-47.9" font-family="Helvetica,sans-Serif" font-size="12.00">AIControllerScript.FixedUpdate</text>
</a>
</g>
</g>
<!-- Node8&#45;&gt;Node9 -->
<g id="edge8" class="edge">
<title>Node8&#45;&gt;Node9</title>
<path fill="none" stroke="midnightblue" d="M204.57,-51C196.15,-51 187.67,-51 179.32,-51"/>
<polygon fill="midnightblue" stroke="midnightblue" points="204.77,-54.5 214.77,-51 204.77,-47.5 204.77,-54.5"/>
</g>
<!-- Node13 -->
<g id="node13" class="node">
<title>Node13</title>
<g id="a_node13"><a xlink:href="class_round_manager.html#a29177f2e27c6c4af55dfa3c48d67cfb0" target="_top" xlink:title="Ending the turn. Returns the next player">
<polygon fill="white" stroke="black" points="958.5,-0.5 958.5,-21.5 1101.5,-21.5 1101.5,-0.5 958.5,-0.5"/>
<text text-anchor="middle" x="1030" y="-7.9" font-family="Helvetica,sans-Serif" font-size="12.00">RoundManager.EndTurn</text>
</a>
</g>
</g>
<!-- Node12&#45;&gt;Node13 -->
<g id="edge12" class="edge">
<title>Node12&#45;&gt;Node13</title>
<path fill="none" stroke="midnightblue" d="M1214.79,-39.22C1196.42,-36.55 1177.04,-33.71 1159,-31 1138.98,-27.99 1117.22,-24.63 1097.41,-21.53"/>
<polygon fill="midnightblue" stroke="midnightblue" points="1214.48,-42.71 1224.88,-40.67 1215.48,-35.78 1214.48,-42.71"/>
</g>
<!-- Node17 -->
<g id="node17" class="node">
<title>Node17</title>
<g id="a_node17"><a xlink:href="class_game_manager_script.html#a12cbaf1ff00804887619c07c7267cf31" target="_top" xlink:title="starting and initialing the game and it&#39;s components">
<polygon fill="white" stroke="black" points="937,-40.5 937,-61.5 1123,-61.5 1123,-40.5 937,-40.5"/>
<text text-anchor="middle" x="1030" y="-47.9" font-family="Helvetica,sans-Serif" font-size="12.00">GameManagerScript.StartGame</text>
</a>
</g>
</g>
<!-- Node12&#45;&gt;Node17 -->
<g id="edge17" class="edge">
<title>Node12&#45;&gt;Node17</title>
<path fill="none" stroke="midnightblue" d="M1214.6,-51C1185.65,-51 1152.97,-51 1123.3,-51"/>
<polygon fill="midnightblue" stroke="midnightblue" points="1214.68,-54.5 1224.68,-51 1214.68,-47.5 1214.68,-54.5"/>
</g>
<!-- Node14 -->
<g id="node14" class="node">
<title>Node14</title>
<g id="a_node14"><a xlink:href="class_user_controller.html#ab90611f541e20c125133d09b62407f41" target="_top" xlink:title="Ends turn">
<polygon fill="white" stroke="black" points="717,-0.5 717,-21.5 855,-21.5 855,-0.5 717,-0.5"/>
<text text-anchor="middle" x="786" y="-7.9" font-family="Helvetica,sans-Serif" font-size="12.00">UserController.EndTurn</text>
</a>
</g>
</g>
<!-- Node13&#45;&gt;Node14 -->
<g id="edge13" class="edge">
<title>Node13&#45;&gt;Node14</title>
<path fill="none" stroke="midnightblue" d="M948.28,-11C918.11,-11 884.17,-11 855.23,-11"/>
<polygon fill="midnightblue" stroke="midnightblue" points="948.35,-14.5 958.35,-11 948.35,-7.5 948.35,-14.5"/>
</g>
<!-- Node15 -->
<g id="node15" class="node">
<title>Node15</title>
<g id="a_node15"><a xlink:href="class_a_i_controller_script.html#a9c386cf1258ad897c9a1068804f07ba0" target="_top" xlink:title="have AI to end turn">
<polygon fill="white" stroke="black" points="452.5,-0.5 452.5,-21.5 607.5,-21.5 607.5,-0.5 452.5,-0.5"/>
<text text-anchor="middle" x="530" y="-7.9" font-family="Helvetica,sans-Serif" font-size="12.00">AIControllerScript.EndTurn</text>
</a>
</g>
</g>
<!-- Node14&#45;&gt;Node15 -->
<g id="edge14" class="edge">
<title>Node14&#45;&gt;Node15</title>
<path fill="none" stroke="midnightblue" d="M706.88,-11C675.38,-11 639.14,-11 607.78,-11"/>
<polygon fill="midnightblue" stroke="midnightblue" points="706.93,-14.5 716.93,-11 706.93,-7.5 706.93,-14.5"/>
</g>
<!-- Node16 -->
<g id="node16" class="node">
<title>Node16</title>
<g id="a_node16"><a xlink:href="class_u_i_handler.html#acc06a1dab8566d9e14f7ab3ae1ffea93" target="_top" xlink:title="Ends current player&#39;s turn">
<polygon fill="white" stroke="black" points="473,-40.5 473,-61.5 587,-61.5 587,-40.5 473,-40.5"/>
<text text-anchor="middle" x="530" y="-47.9" font-family="Helvetica,sans-Serif" font-size="12.00">UIHandler.EndTurn</text>
</a>
</g>
</g>
<!-- Node14&#45;&gt;Node16 -->
<g id="edge16" class="edge">
<title>Node14&#45;&gt;Node16</title>
<path fill="none" stroke="midnightblue" d="M708.04,-23.12C669.19,-29.24 622.91,-36.53 587.41,-42.12"/>
<polygon fill="midnightblue" stroke="midnightblue" points="708.93,-26.52 718.26,-21.51 707.84,-19.61 708.93,-26.52"/>
</g>
<!-- Node15&#45;&gt;Node8 -->
<g id="edge15" class="edge">
<title>Node15&#45;&gt;Node8</title>
<path fill="none" stroke="midnightblue" d="M459.71,-23.26C428.59,-28.77 392.23,-35.21 362.37,-40.49"/>
<polygon fill="midnightblue" stroke="midnightblue" points="460.38,-26.7 469.62,-21.51 459.16,-19.81 460.38,-26.7"/>
</g>
<!-- Node18 -->
<g id="node18" class="node">
<title>Node18</title>
<g id="a_node18"><a xlink:href="class_suggestion_test.html#a904e4481863c3e620574eba37c993a26" target="_top" xlink:title=" ">
<polygon fill="white" stroke="black" points="723,-40.5 723,-61.5 849,-61.5 849,-40.5 723,-40.5"/>
<text text-anchor="middle" x="786" y="-47.9" font-family="Helvetica,sans-Serif" font-size="12.00">SuggestionTest.Start</text>
</a>
</g>
</g>
<!-- Node17&#45;&gt;Node18 -->
<g id="edge18" class="edge">
<title>Node17&#45;&gt;Node18</title>
<path fill="none" stroke="midnightblue" d="M926.8,-51C900.46,-51 872.91,-51 849.3,-51"/>
<polygon fill="midnightblue" stroke="midnightblue" points="926.82,-54.5 936.82,-51 926.82,-47.5 926.82,-54.5"/>
</g>
<!-- Node20&#45;&gt;Node4 -->
<g id="edge26" class="edge">
<title>Node20&#45;&gt;Node4</title>
<path fill="none" stroke="midnightblue" d="M1533.33,-195.26C1509.5,-181.39 1472.59,-161.77 1438,-151 1424.31,-146.74 1409.58,-143.38 1395.01,-140.73"/>
<polygon fill="midnightblue" stroke="midnightblue" points="1531.7,-198.37 1542.09,-200.44 1535.27,-192.34 1531.7,-198.37"/>
</g>
<!-- Node20&#45;&gt;Node11 -->
<g id="edge27" class="edge">
<title>Node20&#45;&gt;Node11</title>
<path fill="none" stroke="midnightblue" d="M1486.97,-198.85C1470.86,-196.2 1453.86,-193.46 1438,-191 1417.35,-187.8 1394.95,-184.5 1374.3,-181.52"/>
<polygon fill="midnightblue" stroke="midnightblue" points="1486.42,-202.3 1496.86,-200.48 1487.56,-195.4 1486.42,-202.3"/>
</g>
<!-- Node21 -->
<g id="node21" class="node">
<title>Node21</title>
<g id="a_node21"><a xlink:href="class_round_manager.html#acf674cdec523de9a0f91ab8a7bfcc2ef" target="_top" xlink:title="for waiting the dice to be rolled, get it&#39;s results and display where the player can move to">
<polygon fill="white" stroke="black" points="1210,-200.5 1210,-221.5 1387,-221.5 1387,-200.5 1210,-200.5"/>
<text text-anchor="middle" x="1298.5" y="-207.9" font-family="Helvetica,sans-Serif" font-size="12.00">RoundManager.DiceBehaviour</text>
</a>
</g>
</g>
<!-- Node20&#45;&gt;Node21 -->
<g id="edge21" class="edge">
<title>Node20&#45;&gt;Node21</title>
<path fill="none" stroke="midnightblue" d="M1463.46,-211C1438.47,-211 1411.66,-211 1387.1,-211"/>
<polygon fill="midnightblue" stroke="midnightblue" points="1463.67,-214.5 1473.67,-211 1463.67,-207.5 1463.67,-214.5"/>
</g>
<!-- Node23 -->
<g id="node23" class="node">
<title>Node23</title>
<g id="a_node23"><a xlink:href="class_player_master_controller.html#ac150dd296b7ff1b7b5a856cbdf5af8bf" target="_top" xlink:title="calls the boardManager to display all the tiles that it can move to according to the range of it&#39;s mo...">
<polygon fill="white" stroke="black" points="1159,-320.5 1159,-341.5 1438,-341.5 1438,-320.5 1159,-320.5"/>
<text text-anchor="middle" x="1298.5" y="-327.9" font-family="Helvetica,sans-Serif" font-size="12.00">PlayerMasterController.DisplayBoardMovableTiles</text>
</a>
</g>
</g>
<!-- Node20&#45;&gt;Node23 -->
<g id="edge23" class="edge">
<title>Node20&#45;&gt;Node23</title>
<path fill="none" stroke="midnightblue" d="M1543.21,-229.12C1521.87,-252.3 1481.46,-291.74 1438,-311 1429.45,-314.79 1420.34,-317.89 1411.03,-320.43"/>
<polygon fill="midnightblue" stroke="midnightblue" points="1545.84,-231.43 1549.94,-221.66 1540.64,-226.74 1545.84,-231.43"/>
</g>
<!-- Node24 -->
<g id="node24" class="node">
<title>Node24</title>
<g id="a_node24"><a xlink:href="class_anson_test_script.html#a445d27a921ade2f0e76054a3b7cc4245" target="_top" xlink:title=" ">
<polygon fill="white" stroke="black" points="1212,-280.5 1212,-301.5 1385,-301.5 1385,-280.5 1212,-280.5"/>
<text text-anchor="middle" x="1298.5" y="-287.9" font-family="Helvetica,sans-Serif" font-size="12.00">AnsonTestScript.FixedUpdate</text>
</a>
</g>
</g>
<!-- Node20&#45;&gt;Node24 -->
<g id="edge24" class="edge">
<title>Node20&#45;&gt;Node24</title>
<path fill="none" stroke="midnightblue" d="M1533.33,-226.74C1509.5,-240.61 1472.59,-260.23 1438,-271 1421.18,-276.24 1402.78,-280.11 1385.05,-282.98"/>
<polygon fill="midnightblue" stroke="midnightblue" points="1535.27,-229.66 1542.09,-221.56 1531.7,-223.63 1535.27,-229.66"/>
</g>
<!-- Node25 -->
<g id="node25" class="node">
<title>Node25</title>
<g id="a_node25"><a xlink:href="class_player_movement_test_script.html#a1c247cfdee35d3a1c1d3a81fd579b426" target="_top" xlink:title=" ">
<polygon fill="white" stroke="black" points="1185,-240.5 1185,-261.5 1412,-261.5 1412,-240.5 1185,-240.5"/>
<text text-anchor="middle" x="1298.5" y="-247.9" font-family="Helvetica,sans-Serif" font-size="12.00">PlayerMovementTestScript.FixedUpdate</text>
</a>
</g>
</g>
<!-- Node20&#45;&gt;Node25 -->
<g id="edge25" class="edge">
<title>Node20&#45;&gt;Node25</title>
<path fill="none" stroke="midnightblue" d="M1486.97,-223.15C1470.86,-225.8 1453.86,-228.54 1438,-231 1417.35,-234.2 1394.95,-237.5 1374.3,-240.48"/>
<polygon fill="midnightblue" stroke="midnightblue" points="1487.56,-226.6 1496.86,-221.52 1486.42,-219.7 1487.56,-226.6"/>
</g>
<!-- Node22 -->
<g id="node22" class="node">
<title>Node22</title>
<g id="a_node22"><a xlink:href="class_round_manager.html#abb654bc0114fc67d455ed6449d5bda22" target="_top" xlink:title=" ">
<polygon fill="white" stroke="black" points="946.5,-200.5 946.5,-221.5 1113.5,-221.5 1113.5,-200.5 946.5,-200.5"/>
<text text-anchor="middle" x="1030" y="-207.9" font-family="Helvetica,sans-Serif" font-size="12.00">RoundManager.FixedUpdate</text>
</a>
</g>
</g>
<!-- Node21&#45;&gt;Node22 -->
<g id="edge22" class="edge">
<title>Node21&#45;&gt;Node22</title>
<path fill="none" stroke="midnightblue" d="M1199.59,-211C1171.38,-211 1140.9,-211 1113.71,-211"/>
<polygon fill="midnightblue" stroke="midnightblue" points="1199.87,-214.5 1209.87,-211 1199.87,-207.5 1199.87,-214.5"/>
</g>
</g>
</svg>
