<?xml version="1.0" encoding="UTF-8" standalone="no"?>
<!DOCTYPE svg PUBLIC "-//W3C//DTD SVG 1.1//EN"
 "http://www.w3.org/Graphics/SVG/1.1/DTD/svg11.dtd">
<!-- Generated by graphviz version 2.47.1 (20210417.1919)
 -->
<!-- Title: CardSlot.SetCardDetails Pages: 1 -->
<svg width="392pt" height="110pt"
 viewBox="0.00 0.00 392.00 110.00" xmlns="http://www.w3.org/2000/svg" xmlns:xlink="http://www.w3.org/1999/xlink">
<g id="graph0" class="graph" transform="scale(1 1) rotate(0) translate(4 106)">
<title>CardSlot.SetCardDetails</title>
<polygon fill="white" stroke="transparent" points="-4,4 -4,-106 388,-106 388,4 -4,4"/>
<!-- Node1 -->
<g id="node1" class="node">
<title>Node1</title>
<g id="a_node1"><a xlink:title=" ">
<polygon fill="#bfbfbf" stroke="black" points="0,-40.5 0,-61.5 147,-61.5 147,-40.5 0,-40.5"/>
<text text-anchor="middle" x="73.5" y="-47.9" font-family="Helvetica,sans-Serif" font-size="12.00">CardSlot.SetCardDetails</text>
</a>
</g>
</g>
<!-- Node2 -->
<g id="node2" class="node">
<title>Node2</title>
<g id="a_node2"><a xlink:href="class_card.html#a25e8366933b176fae41e4d2373be7815" target="_top" xlink:title=" ">
<polygon fill="white" stroke="black" points="222,-80.5 222,-101.5 345,-101.5 345,-80.5 222,-80.5"/>
<text text-anchor="middle" x="283.5" y="-87.9" font-family="Helvetica,sans-Serif" font-size="12.00">Card.GetCardImage</text>
</a>
</g>
</g>
<!-- Node1&#45;&gt;Node2 -->
<g id="edge1" class="edge">
<title>Node1&#45;&gt;Node2</title>
<path fill="none" stroke="midnightblue" d="M129.15,-61.51C156.39,-66.75 189.51,-73.12 217.99,-78.59"/>
<polygon fill="midnightblue" stroke="midnightblue" points="217.37,-82.04 227.85,-80.49 218.7,-75.17 217.37,-82.04"/>
</g>
<!-- Node3 -->
<g id="node3" class="node">
<title>Node3</title>
<g id="a_node3"><a xlink:href="class_card.html#a094a5e7ea98cc156ac64e578a987be85" target="_top" xlink:title=" ">
<polygon fill="white" stroke="black" points="225.5,-40.5 225.5,-61.5 341.5,-61.5 341.5,-40.5 225.5,-40.5"/>
<text text-anchor="middle" x="283.5" y="-47.9" font-family="Helvetica,sans-Serif" font-size="12.00">Card.GetCardType</text>
</a>
</g>
</g>
<!-- Node1&#45;&gt;Node3 -->
<g id="edge2" class="edge">
<title>Node1&#45;&gt;Node3</title>
<path fill="none" stroke="midnightblue" d="M147.25,-51C169.3,-51 193.41,-51 215.09,-51"/>
<polygon fill="midnightblue" stroke="midnightblue" points="215.19,-54.5 225.19,-51 215.19,-47.5 215.19,-54.5"/>
</g>
<!-- Node4 -->
<g id="node4" class="node">
<title>Node4</title>
<g id="a_node4"><a xlink:href="class_enum_to_string.html#a078a1fb16a0030544fac1b96a90b6b83" target="_top" xlink:title="Get a string value from a valid enum">
<polygon fill="white" stroke="black" points="183,-0.5 183,-21.5 384,-21.5 384,-0.5 183,-0.5"/>
<text text-anchor="middle" x="283.5" y="-7.9" font-family="Helvetica,sans-Serif" font-size="12.00">EnumToString.GetStringFromEnum</text>
</a>
</g>
</g>
<!-- Node1&#45;&gt;Node4 -->
<g id="edge3" class="edge">
<title>Node1&#45;&gt;Node4</title>
<path fill="none" stroke="midnightblue" d="M129.15,-40.49C156.39,-35.25 189.51,-28.88 217.99,-23.41"/>
<polygon fill="midnightblue" stroke="midnightblue" points="218.7,-26.83 227.85,-21.51 217.37,-19.96 218.7,-26.83"/>
</g>
</g>
</svg>
