<?xml version="1.0" encoding="UTF-8" standalone="no"?>
<!DOCTYPE svg PUBLIC "-//W3C//DTD SVG 1.1//EN"
 "http://www.w3.org/Graphics/SVG/1.1/DTD/svg11.dtd">
<!-- Generated by graphviz version 2.47.1 (20210417.1919)
 -->
<!-- Title: PlayerTokenScript.MoveToken Pages: 1 -->
<svg width="1490pt" height="90pt"
 viewBox="0.00 0.00 1490.00 90.00" xmlns="http://www.w3.org/2000/svg" xmlns:xlink="http://www.w3.org/1999/xlink">
<g id="graph0" class="graph" transform="scale(1 1) rotate(0) translate(4 86)">
<title>PlayerTokenScript.MoveToken</title>
<polygon fill="white" stroke="transparent" points="-4,4 -4,-86 1486,-86 1486,4 -4,4"/>
<!-- Node1 -->
<g id="node1" class="node">
<title>Node1</title>
<g id="a_node1"><a xlink:title=" ">
<polygon fill="#bfbfbf" stroke="black" points="1306,-20.5 1306,-41.5 1482,-41.5 1482,-20.5 1306,-20.5"/>
<text text-anchor="middle" x="1394" y="-27.9" font-family="Helvetica,sans-Serif" font-size="12.00">PlayerTokenScript.MoveToken</text>
</a>
</g>
</g>
<!-- Node2 -->
<g id="node2" class="node">
<title>Node2</title>
<g id="a_node2"><a xlink:href="class_player_master_controller.html#a9b23c4d50fabbc44dbba2b0db542efce" target="_top" xlink:title="moving the player to a certain tile">
<polygon fill="white" stroke="black" points="1070,-40.5 1070,-61.5 1270,-61.5 1270,-40.5 1070,-40.5"/>
<text text-anchor="middle" x="1170" y="-47.9" font-family="Helvetica,sans-Serif" font-size="12.00">PlayerMasterController.MovePlayer</text>
</a>
</g>
</g>
<!-- Node1&#45;&gt;Node2 -->
<g id="edge1" class="edge">
<title>Node1&#45;&gt;Node2</title>
<path fill="none" stroke="midnightblue" d="M1295.7,-39.77C1287.3,-40.52 1278.78,-41.29 1270.35,-42.05"/>
<polygon fill="midnightblue" stroke="midnightblue" points="1296.25,-43.23 1305.9,-38.85 1295.62,-36.26 1296.25,-43.23"/>
</g>
<!-- Node10 -->
<g id="node10" class="node">
<title>Node10</title>
<g id="a_node10"><a xlink:href="class_player_token_script.html#aabf6e085b41ef90234c5580c48389200" target="_top" xlink:title=" ">
<polygon fill="white" stroke="black" points="1093,-0.5 1093,-21.5 1247,-21.5 1247,-0.5 1093,-0.5"/>
<text text-anchor="middle" x="1170" y="-7.9" font-family="Helvetica,sans-Serif" font-size="12.00">PlayerTokenScript.Update</text>
</a>
</g>
</g>
<!-- Node1&#45;&gt;Node10 -->
<g id="edge9" class="edge">
<title>Node1&#45;&gt;Node10</title>
<path fill="none" stroke="midnightblue" d="M1295.8,-22.24C1279.47,-20.77 1262.74,-19.27 1247.05,-17.85"/>
<polygon fill="midnightblue" stroke="midnightblue" points="1295.62,-25.74 1305.9,-23.15 1296.25,-18.77 1295.62,-25.74"/>
</g>
<!-- Node3 -->
<g id="node3" class="node">
<title>Node3</title>
<g id="a_node3"><a xlink:href="class_shortcut_test_u_i.html#a3012692eeb4658dc688e82b431cc10f6" target="_top" xlink:title="Enter a room">
<polygon fill="white" stroke="black" points="876,-60.5 876,-81.5 1031,-81.5 1031,-60.5 876,-60.5"/>
<text text-anchor="middle" x="953.5" y="-67.9" font-family="Helvetica,sans-Serif" font-size="12.00">ShortcutTestUI.EnterRoom</text>
</a>
</g>
</g>
<!-- Node2&#45;&gt;Node3 -->
<g id="edge2" class="edge">
<title>Node2&#45;&gt;Node3</title>
<path fill="none" stroke="midnightblue" d="M1059.79,-61.18C1050.07,-62.09 1040.37,-62.99 1031.02,-63.87"/>
<polygon fill="midnightblue" stroke="midnightblue" points="1060.28,-64.65 1069.91,-60.24 1059.63,-57.68 1060.28,-64.65"/>
</g>
<!-- Node4 -->
<g id="node4" class="node">
<title>Node4</title>
<g id="a_node4"><a xlink:href="class_round_manager.html#adfd4f66436e06c12a25c9236b629f369" target="_top" xlink:title="moving the current player to the selected tile">
<polygon fill="white" stroke="black" points="873,-20.5 873,-41.5 1034,-41.5 1034,-20.5 873,-20.5"/>
<text text-anchor="middle" x="953.5" y="-27.9" font-family="Helvetica,sans-Serif" font-size="12.00">RoundManager.MovePlayer</text>
</a>
</g>
</g>
<!-- Node2&#45;&gt;Node4 -->
<g id="edge3" class="edge">
<title>Node2&#45;&gt;Node4</title>
<path fill="none" stroke="midnightblue" d="M1059.8,-40.82C1051.18,-40.01 1042.57,-39.21 1034.21,-38.43"/>
<polygon fill="midnightblue" stroke="midnightblue" points="1059.63,-44.32 1069.91,-41.76 1060.28,-37.35 1059.63,-44.32"/>
</g>
<!-- Node5 -->
<g id="node5" class="node">
<title>Node5</title>
<g id="a_node5"><a xlink:href="class_user_controller.html#af896aefe0262e0d8f07fa5f18592877d" target="_top" xlink:title="Selects a tile for player movement">
<polygon fill="white" stroke="black" points="691,-20.5 691,-41.5 837,-41.5 837,-20.5 691,-20.5"/>
<text text-anchor="middle" x="764" y="-27.9" font-family="Helvetica,sans-Serif" font-size="12.00">UserController.SelectTile</text>
</a>
</g>
</g>
<!-- Node4&#45;&gt;Node5 -->
<g id="edge4" class="edge">
<title>Node4&#45;&gt;Node5</title>
<path fill="none" stroke="midnightblue" d="M862.9,-31C854.29,-31 845.62,-31 837.2,-31"/>
<polygon fill="midnightblue" stroke="midnightblue" points="862.98,-34.5 872.98,-31 862.98,-27.5 862.98,-34.5"/>
</g>
<!-- Node6 -->
<g id="node6" class="node">
<title>Node6</title>
<g id="a_node6"><a xlink:href="class_a_i_controller_script.html#af04897fa0ae4ed5e472dea79bce8d7df" target="_top" xlink:title="Decides where the AI should move to this should match the flow chart of the AI">
<polygon fill="white" stroke="black" points="435,-40.5 435,-61.5 645,-61.5 645,-40.5 435,-40.5"/>
<text text-anchor="middle" x="540" y="-47.9" font-family="Helvetica,sans-Serif" font-size="12.00">AIControllerScript.Decide_Movement</text>
</a>
</g>
</g>
<!-- Node5&#45;&gt;Node6 -->
<g id="edge5" class="edge">
<title>Node5&#45;&gt;Node6</title>
<path fill="none" stroke="midnightblue" d="M680.88,-38.4C669.31,-39.44 657.29,-40.52 645.37,-41.6"/>
<polygon fill="midnightblue" stroke="midnightblue" points="681.28,-41.88 690.92,-37.49 680.65,-34.9 681.28,-41.88"/>
</g>
<!-- Node9 -->
<g id="node9" class="node">
<title>Node9</title>
<g id="a_node9"><a xlink:href="class_user_input_control_script.html#a13be570929e27dad6d3d452ccd5f52eb" target="_top" xlink:title="move player token to the tile the cursor is on">
<polygon fill="white" stroke="black" points="425,-0.5 425,-21.5 655,-21.5 655,-0.5 425,-0.5"/>
<text text-anchor="middle" x="540" y="-7.9" font-family="Helvetica,sans-Serif" font-size="12.00">UserInputControlScript.MovePlayerToken</text>
</a>
</g>
</g>
<!-- Node5&#45;&gt;Node9 -->
<g id="edge8" class="edge">
<title>Node5&#45;&gt;Node9</title>
<path fill="none" stroke="midnightblue" d="M680.79,-23.59C672.37,-22.83 663.71,-22.05 655.03,-21.27"/>
<polygon fill="midnightblue" stroke="midnightblue" points="680.65,-27.1 690.92,-24.51 681.28,-20.12 680.65,-27.1"/>
</g>
<!-- Node7 -->
<g id="node7" class="node">
<title>Node7</title>
<g id="a_node7"><a xlink:href="class_a_i_controller_script.html#ac31d9b8dbb75696b181eff1fbef41b97" target="_top" xlink:title="dictates what the AI will do depending on what mode it is in">
<polygon fill="white" stroke="black" points="215,-40.5 215,-61.5 389,-61.5 389,-40.5 215,-40.5"/>
<text text-anchor="middle" x="302" y="-47.9" font-family="Helvetica,sans-Serif" font-size="12.00">AIControllerScript.AIBehaviour</text>
</a>
</g>
</g>
<!-- Node6&#45;&gt;Node7 -->
<g id="edge6" class="edge">
<title>Node6&#45;&gt;Node7</title>
<path fill="none" stroke="midnightblue" d="M424.8,-51C412.87,-51 400.88,-51 389.33,-51"/>
<polygon fill="midnightblue" stroke="midnightblue" points="424.8,-54.5 434.8,-51 424.8,-47.5 424.8,-54.5"/>
</g>
<!-- Node8 -->
<g id="node8" class="node">
<title>Node8</title>
<g id="a_node8"><a xlink:href="class_a_i_controller_script.html#a74dc0e720fafceb873d3b19c12f68d58" target="_top" xlink:title=" ">
<polygon fill="white" stroke="black" points="0,-40.5 0,-61.5 179,-61.5 179,-40.5 0,-40.5"/>
<text text-anchor="middle" x="89.5" y="-47.9" font-family="Helvetica,sans-Serif" font-size="12.00">AIControllerScript.FixedUpdate</text>
</a>
</g>
</g>
<!-- Node7&#45;&gt;Node8 -->
<g id="edge7" class="edge">
<title>Node7&#45;&gt;Node8</title>
<path fill="none" stroke="midnightblue" d="M204.57,-51C196.15,-51 187.67,-51 179.32,-51"/>
<polygon fill="midnightblue" stroke="midnightblue" points="204.77,-54.5 214.77,-51 204.77,-47.5 204.77,-54.5"/>
</g>
</g>
</svg>
