<?xml version="1.0" encoding="UTF-8" standalone="no"?>
<!DOCTYPE svg PUBLIC "-//W3C//DTD SVG 1.1//EN"
 "http://www.w3.org/Graphics/SVG/1.1/DTD/svg11.dtd">
<!-- Generated by graphviz version 2.47.1 (20210417.1919)
 -->
<!-- Title: AIControllerScript.OutputDebug Pages: 1 -->
<svg width="2657pt" height="640pt"
 viewBox="0.00 0.00 2657.00 640.00" xmlns="http://www.w3.org/2000/svg" xmlns:xlink="http://www.w3.org/1999/xlink">
<g id="graph0" class="graph" transform="scale(1 1) rotate(0) translate(4 636)">
<title>AIControllerScript.OutputDebug</title>
<polygon fill="white" stroke="transparent" points="-4,4 -4,-636 2653,-636 2653,4 -4,4"/>
<!-- Node1 -->
<g id="node1" class="node">
<title>Node1</title>
<g id="a_node1"><a xlink:title="for out putting the debug stack if outputDebugText is true, it will out put the the console as well">
<polygon fill="#bfbfbf" stroke="black" points="2469,-456.5 2469,-477.5 2649,-477.5 2649,-456.5 2469,-456.5"/>
<text text-anchor="middle" x="2559" y="-463.9" font-family="Helvetica,sans-Serif" font-size="12.00">AIControllerScript.OutputDebug</text>
</a>
</g>
</g>
<!-- Node2 -->
<g id="node2" class="node">
<title>Node2</title>
<g id="a_node2"><a xlink:href="class_a_i_controller_script.html#ac31d9b8dbb75696b181eff1fbef41b97" target="_top" xlink:title="dictates what the AI will do depending on what mode it is in">
<polygon fill="white" stroke="black" points="234.5,-337.5 234.5,-358.5 408.5,-358.5 408.5,-337.5 234.5,-337.5"/>
<text text-anchor="middle" x="321.5" y="-344.9" font-family="Helvetica,sans-Serif" font-size="12.00">AIControllerScript.AIBehaviour</text>
</a>
</g>
</g>
<!-- Node1&#45;&gt;Node2 -->
<g id="edge1" class="edge">
<title>Node1&#45;&gt;Node2</title>
<path fill="none" stroke="midnightblue" d="M2519.47,-481C2495,-489.39 2462.49,-499.64 2433,-506 2297.74,-535.17 2262.37,-544 2124,-544 2124,-544 2124,-544 805.5,-544 650.11,-544 603.12,-538.24 464,-469 406.13,-440.19 352.32,-382.55 331.54,-358.7"/>
<polygon fill="midnightblue" stroke="midnightblue" points="2520.8,-484.24 2529.1,-477.65 2518.5,-477.63 2520.8,-484.24"/>
</g>
<!-- Node4 -->
<g id="node4" class="node">
<title>Node4</title>
<g id="a_node4"><a xlink:href="class_a_i_controller_script.html#af05eaa86fd4cfef3b4b0b79b0883322c" target="_top" xlink:title="the AI enter this when it is thinking to decide what to do this should match the flow chart of the AI">
<polygon fill="white" stroke="black" points="1819.5,-572.5 1819.5,-593.5 1968.5,-593.5 1968.5,-572.5 1819.5,-572.5"/>
<text text-anchor="middle" x="1894" y="-579.9" font-family="Helvetica,sans-Serif" font-size="12.00">AIControllerScript.AIThink</text>
</a>
</g>
</g>
<!-- Node1&#45;&gt;Node4 -->
<g id="edge3" class="edge">
<title>Node1&#45;&gt;Node4</title>
<path fill="none" stroke="midnightblue" d="M2540.78,-484.77C2518.32,-506.61 2476.72,-542.64 2433,-558 2349.52,-587.33 2095.45,-586.96 1968.63,-584.77"/>
<polygon fill="midnightblue" stroke="midnightblue" points="2543.27,-487.23 2547.9,-477.7 2538.34,-482.27 2543.27,-487.23"/>
</g>
<!-- Node5 -->
<g id="node5" class="node">
<title>Node5</title>
<g id="a_node5"><a xlink:href="class_a_i_controller_script.html#a0bfee235827ff618fa3325164969c2a4" target="_top" xlink:title="check if the AI is comfident enough to accuse this should match the flow chart of the AI">
<polygon fill="white" stroke="black" points="2037,-610.5 2037,-631.5 2209,-631.5 2209,-610.5 2037,-610.5"/>
<text text-anchor="middle" x="2123" y="-617.9" font-family="Helvetica,sans-Serif" font-size="12.00">AIControllerScript.CanAccuse</text>
</a>
</g>
</g>
<!-- Node1&#45;&gt;Node5 -->
<g id="edge5" class="edge">
<title>Node1&#45;&gt;Node5</title>
<path fill="none" stroke="midnightblue" d="M2545.95,-486.46C2526.39,-516.08 2484.66,-571.62 2433,-596 2362.79,-629.13 2273.59,-632.87 2209.1,-629.81"/>
<polygon fill="midnightblue" stroke="midnightblue" points="2549.04,-488.13 2551.51,-477.82 2543.15,-484.34 2549.04,-488.13"/>
</g>
<!-- Node6 -->
<g id="node6" class="node">
<title>Node6</title>
<g id="a_node6"><a xlink:href="class_a_i_controller_script.html#af04897fa0ae4ed5e472dea79bce8d7df" target="_top" xlink:title="Decides where the AI should move to this should match the flow chart of the AI">
<polygon fill="white" stroke="black" points="1789,-456.5 1789,-477.5 1999,-477.5 1999,-456.5 1789,-456.5"/>
<text text-anchor="middle" x="1894" y="-463.9" font-family="Helvetica,sans-Serif" font-size="12.00">AIControllerScript.Decide_Movement</text>
</a>
</g>
</g>
<!-- Node1&#45;&gt;Node6 -->
<g id="edge7" class="edge">
<title>Node1&#45;&gt;Node6</title>
<path fill="none" stroke="midnightblue" d="M2458.71,-467C2335.12,-467 2125.01,-467 1999.18,-467"/>
<polygon fill="midnightblue" stroke="midnightblue" points="2458.93,-470.5 2468.93,-467 2458.93,-463.5 2458.93,-470.5"/>
</g>
<!-- Node7 -->
<g id="node7" class="node">
<title>Node7</title>
<g id="a_node7"><a xlink:href="class_a_i_controller_script.html#afcb2875a5501f07a7f44d0fa720266f3" target="_top" xlink:title="to delay the time for the next time the AI does something in the Update">
<polygon fill="white" stroke="black" points="2245,-376.5 2245,-397.5 2433,-397.5 2433,-376.5 2245,-376.5"/>
<text text-anchor="middle" x="2339" y="-383.9" font-family="Helvetica,sans-Serif" font-size="12.00">AIControllerScript.DelayDecision</text>
</a>
</g>
</g>
<!-- Node1&#45;&gt;Node7 -->
<g id="edge9" class="edge">
<title>Node1&#45;&gt;Node7</title>
<path fill="none" stroke="midnightblue" d="M2519.46,-452.86C2476.32,-437.03 2407.39,-411.73 2368.72,-397.54"/>
<polygon fill="midnightblue" stroke="midnightblue" points="2518.46,-456.22 2529.05,-456.38 2520.87,-449.65 2518.46,-456.22"/>
</g>
<!-- Node10 -->
<g id="node10" class="node">
<title>Node10</title>
<g id="a_node10"><a xlink:href="class_a_i_controller_script.html#aaee909cd0f0ffdedd8d8425607d7ccb5" target="_top" xlink:title="to set the AI&#39;s mode">
<polygon fill="white" stroke="black" points="2038,-337.5 2038,-358.5 2208,-358.5 2208,-337.5 2038,-337.5"/>
<text text-anchor="middle" x="2123" y="-344.9" font-family="Helvetica,sans-Serif" font-size="12.00">AIControllerScript.SetAIMode</text>
</a>
</g>
</g>
<!-- Node1&#45;&gt;Node10 -->
<g id="edge51" class="edge">
<title>Node1&#45;&gt;Node10</title>
<path fill="none" stroke="midnightblue" d="M2542.13,-448.69C2520.28,-424.96 2478.46,-384.53 2433,-367 2360.79,-339.15 2272.04,-336.62 2208.22,-339.74"/>
<polygon fill="midnightblue" stroke="midnightblue" points="2539.71,-451.23 2548.99,-456.33 2544.91,-446.55 2539.71,-451.23"/>
</g>
<!-- Node13 -->
<g id="node13" class="node">
<title>Node13</title>
<g id="a_node13"><a xlink:href="class_a_i_controller_script.html#a208f5afe4102ff2ca04a03a425d76279" target="_top" xlink:title="for the round manager to notify that another player finished picking a card to show">
<polygon fill="white" stroke="black" points="1794,-106.5 1794,-127.5 1994,-127.5 1994,-106.5 1794,-106.5"/>
<text text-anchor="middle" x="1894" y="-113.9" font-family="Helvetica,sans-Serif" font-size="12.00">AIControllerScript.NotifySuggestion</text>
</a>
</g>
</g>
<!-- Node1&#45;&gt;Node13 -->
<g id="edge47" class="edge">
<title>Node1&#45;&gt;Node13</title>
<path fill="none" stroke="midnightblue" d="M2545.34,-447.99C2504.84,-389.1 2371.55,-209.59 2209,-142 2141.08,-113.76 2057.86,-108.29 1994.16,-109.47"/>
<polygon fill="midnightblue" stroke="midnightblue" points="2542.52,-450.07 2551.03,-456.37 2548.31,-446.13 2542.52,-450.07"/>
</g>
<!-- Node24 -->
<g id="node24" class="node">
<title>Node24</title>
<g id="a_node24"><a xlink:href="class_a_i_controller_script.html#a606c498cbb805d816c1b06f94631a960" target="_top" xlink:title="to activate the AI or not set which player the AI is controlling">
<polygon fill="white" stroke="black" points="1576.5,-436.5 1576.5,-457.5 1737.5,-457.5 1737.5,-436.5 1576.5,-436.5"/>
<text text-anchor="middle" x="1657" y="-443.9" font-family="Helvetica,sans-Serif" font-size="12.00">AIControllerScript.SetActive</text>
</a>
</g>
</g>
<!-- Node1&#45;&gt;Node24 -->
<g id="edge50" class="edge">
<title>Node1&#45;&gt;Node24</title>
<path fill="none" stroke="midnightblue" d="M2473.86,-478.78C2331.5,-496.58 2034.42,-524.48 1787,-487 1750.37,-481.45 1709.82,-467.51 1684.14,-457.66"/>
<polygon fill="midnightblue" stroke="midnightblue" points="2474.36,-482.25 2483.84,-477.52 2473.48,-475.3 2474.36,-482.25"/>
</g>
<!-- Node31 -->
<g id="node31" class="node">
<title>Node31</title>
<g id="a_node31"><a xlink:href="class_a_i_controller_script.html#af0dd8e39267e3e139524f59fb9c858b4" target="_top" xlink:title="to output the current status and previous status of the AI">
<polygon fill="white" stroke="black" points="215,-143.5 215,-164.5 428,-164.5 428,-143.5 215,-143.5"/>
<text text-anchor="middle" x="321.5" y="-150.9" font-family="Helvetica,sans-Serif" font-size="12.00">AIControllerScript.OutputDebugStatus</text>
</a>
</g>
</g>
<!-- Node1&#45;&gt;Node31 -->
<g id="edge48" class="edge">
<title>Node1&#45;&gt;Node31</title>
<path fill="none" stroke="midnightblue" d="M2554.75,-446.19C2545.34,-392.23 2513.44,-245.87 2433,-158 2328.85,-44.23 2278.25,0 2124,0 2124,0 2124,0 805.5,0 651.55,0 606.84,-0.59 464,-58 410.84,-79.37 357.41,-123.08 334.33,-143.3"/>
<polygon fill="midnightblue" stroke="midnightblue" points="2551.33,-446.96 2556.43,-456.25 2558.23,-445.81 2551.33,-446.96"/>
</g>
<!-- Node3 -->
<g id="node3" class="node">
<title>Node3</title>
<g id="a_node3"><a xlink:href="class_a_i_controller_script.html#a74dc0e720fafceb873d3b19c12f68d58" target="_top" xlink:title=" ">
<polygon fill="white" stroke="black" points="0,-163.5 0,-184.5 179,-184.5 179,-163.5 0,-163.5"/>
<text text-anchor="middle" x="89.5" y="-170.9" font-family="Helvetica,sans-Serif" font-size="12.00">AIControllerScript.FixedUpdate</text>
</a>
</g>
</g>
<!-- Node2&#45;&gt;Node3 -->
<g id="edge2" class="edge">
<title>Node2&#45;&gt;Node3</title>
<path fill="none" stroke="midnightblue" d="M298.46,-331.33C251.66,-295.92 143.43,-214.05 104.65,-184.7"/>
<polygon fill="midnightblue" stroke="midnightblue" points="296.37,-334.14 306.46,-337.38 300.6,-328.55 296.37,-334.14"/>
</g>
<!-- Node4&#45;&gt;Node2 -->
<g id="edge4" class="edge">
<title>Node4&#45;&gt;Node2</title>
<path fill="none" stroke="midnightblue" d="M1809.07,-582.69C1720.81,-582.4 1577.89,-582 1454.5,-582 1454.5,-582 1454.5,-582 805.5,-582 653.35,-582 595.74,-634.13 464,-558 381.97,-510.6 337.78,-394.19 325.84,-358.55"/>
<polygon fill="midnightblue" stroke="midnightblue" points="1809.28,-586.2 1819.29,-582.73 1809.31,-579.2 1809.28,-586.2"/>
</g>
<!-- Node5&#45;&gt;Node4 -->
<g id="edge6" class="edge">
<title>Node5&#45;&gt;Node4</title>
<path fill="none" stroke="midnightblue" d="M2048.9,-608.76C2019.63,-603.86 1986.24,-598.27 1958.05,-593.56"/>
<polygon fill="midnightblue" stroke="midnightblue" points="2048.63,-612.27 2059.07,-610.47 2049.78,-605.36 2048.63,-612.27"/>
</g>
<!-- Node6&#45;&gt;Node2 -->
<g id="edge8" class="edge">
<title>Node6&#45;&gt;Node2</title>
<path fill="none" stroke="midnightblue" d="M1807.56,-478.81C1719.32,-489.96 1577.56,-505 1454.5,-505 1454.5,-505 1454.5,-505 805.5,-505 615.49,-505 403.11,-393.75 340.67,-358.54"/>
<polygon fill="midnightblue" stroke="midnightblue" points="1808.04,-482.27 1817.52,-477.53 1807.15,-475.33 1808.04,-482.27"/>
</g>
<!-- Node7&#45;&gt;Node6 -->
<g id="edge12" class="edge">
<title>Node7&#45;&gt;Node6</title>
<path fill="none" stroke="midnightblue" d="M2269.62,-399.35C2182.86,-415.02 2034.72,-441.77 1953.15,-456.5"/>
<polygon fill="midnightblue" stroke="midnightblue" points="2270.41,-402.76 2279.63,-397.54 2269.17,-395.87 2270.41,-402.76"/>
</g>
<!-- Node8 -->
<g id="node8" class="node">
<title>Node8</title>
<g id="a_node8"><a xlink:href="class_a_i_controller_script.html#a7be5eb284c6258672e70af128f8638df" target="_top" xlink:title="Decides that cards to accuse based on the To Guess List">
<polygon fill="white" stroke="black" points="1787,-376.5 1787,-397.5 2001,-397.5 2001,-376.5 1787,-376.5"/>
<text text-anchor="middle" x="1894" y="-383.9" font-family="Helvetica,sans-Serif" font-size="12.00">AIControllerScript.Decide_Accusation</text>
</a>
</g>
</g>
<!-- Node7&#45;&gt;Node8 -->
<g id="edge10" class="edge">
<title>Node7&#45;&gt;Node8</title>
<path fill="none" stroke="midnightblue" d="M2234.68,-387C2164.52,-387 2072,-387 2001.24,-387"/>
<polygon fill="midnightblue" stroke="midnightblue" points="2234.86,-390.5 2244.86,-387 2234.86,-383.5 2234.86,-390.5"/>
</g>
<!-- Node9 -->
<g id="node9" class="node">
<title>Node9</title>
<g id="a_node9"><a xlink:href="class_a_i_controller_script.html#affdf86fa313c46463a9a5a2b20020a17" target="_top" xlink:title="Decides what the AI should suggest this should match the flow chart of the AI">
<polygon fill="white" stroke="black" points="464,-165.5 464,-186.5 679,-186.5 679,-165.5 464,-165.5"/>
<text text-anchor="middle" x="571.5" y="-172.9" font-family="Helvetica,sans-Serif" font-size="12.00">AIControllerScript.Decide_Suggestion</text>
</a>
</g>
</g>
<!-- Node7&#45;&gt;Node9 -->
<g id="edge13" class="edge">
<title>Node7&#45;&gt;Node9</title>
<path fill="none" stroke="midnightblue" d="M2319.98,-369.29C2262.96,-315.24 2079.36,-156 1895,-156 1895,-156 1895,-156 1027,-156 907.93,-156 771.49,-162.94 679.43,-168.64"/>
<polygon fill="midnightblue" stroke="midnightblue" points="2317.82,-372.07 2327.46,-376.47 2322.67,-367.02 2317.82,-372.07"/>
</g>
<!-- Node7&#45;&gt;Node10 -->
<g id="edge15" class="edge">
<title>Node7&#45;&gt;Node10</title>
<path fill="none" stroke="midnightblue" d="M2270.48,-374.7C2241.97,-369.5 2209.1,-363.51 2181.73,-358.52"/>
<polygon fill="midnightblue" stroke="midnightblue" points="2269.9,-378.15 2280.37,-376.5 2271.16,-371.26 2269.9,-378.15"/>
</g>
<!-- Node8&#45;&gt;Node2 -->
<g id="edge11" class="edge">
<title>Node8&#45;&gt;Node2</title>
<path fill="none" stroke="midnightblue" d="M1776.62,-387C1688.25,-387 1563.72,-387 1454.5,-387 1454.5,-387 1454.5,-387 805.5,-387 663.54,-387 498.86,-370.05 403.1,-358.5"/>
<polygon fill="midnightblue" stroke="midnightblue" points="1776.67,-390.5 1786.67,-387 1776.67,-383.5 1776.67,-390.5"/>
</g>
<!-- Node9&#45;&gt;Node2 -->
<g id="edge14" class="edge">
<title>Node9&#45;&gt;Node2</title>
<path fill="none" stroke="midnightblue" d="M547.05,-192.26C496.75,-227.15 379.66,-308.35 337.76,-337.42"/>
<polygon fill="midnightblue" stroke="midnightblue" points="549.14,-195.08 555.36,-186.5 545.15,-189.32 549.14,-195.08"/>
</g>
<!-- Node10&#45;&gt;Node2 -->
<g id="edge16" class="edge">
<title>Node10&#45;&gt;Node2</title>
<path fill="none" stroke="midnightblue" d="M2032.13,-336.26C1938.79,-325.1 1788.43,-310 1658,-310 1658,-310 1658,-310 1250,-310 940.17,-310 572.61,-331.43 408.76,-342.1"/>
<polygon fill="midnightblue" stroke="midnightblue" points="2031.76,-339.74 2042.11,-337.47 2032.6,-332.79 2031.76,-339.74"/>
</g>
<!-- Node10&#45;&gt;Node4 -->
<g id="edge17" class="edge">
<title>Node10&#45;&gt;Node4</title>
<path fill="none" stroke="midnightblue" d="M2106.84,-366.8C2084.55,-394.12 2041.22,-445.98 2001,-487 1969.02,-519.62 1928.25,-554.94 1907.85,-572.23"/>
<polygon fill="midnightblue" stroke="midnightblue" points="2109.72,-368.81 2113.3,-358.84 2104.28,-364.4 2109.72,-368.81"/>
</g>
<!-- Node10&#45;&gt;Node6 -->
<g id="edge19" class="edge">
<title>Node10&#45;&gt;Node6</title>
<path fill="none" stroke="midnightblue" d="M2098.79,-364.74C2081.41,-377.51 2057.24,-395.78 2037,-413 2020.24,-427.26 2020.6,-437 2001,-447 1993.49,-450.83 1985.35,-453.93 1977.03,-456.44"/>
<polygon fill="midnightblue" stroke="midnightblue" points="2101.19,-367.32 2107.2,-358.59 2097.06,-361.66 2101.19,-367.32"/>
</g>
<!-- Node10&#45;&gt;Node8 -->
<g id="edge18" class="edge">
<title>Node10&#45;&gt;Node8</title>
<path fill="none" stroke="midnightblue" d="M2050.78,-360.24C2020.44,-365.45 1985.4,-371.47 1956.24,-376.48"/>
<polygon fill="midnightblue" stroke="midnightblue" points="2051.61,-363.65 2060.87,-358.5 2050.42,-356.75 2051.61,-363.65"/>
</g>
<!-- Node10&#45;&gt;Node9 -->
<g id="edge20" class="edge">
<title>Node10&#45;&gt;Node9</title>
<path fill="none" stroke="midnightblue" d="M2109.7,-328.71C2090.42,-300.35 2050.14,-248.25 2001,-225 1862.64,-159.55 1811.07,-194 1658,-194 1658,-194 1658,-194 1027,-194 907.96,-194 771.51,-187.76 679.44,-182.63"/>
<polygon fill="midnightblue" stroke="midnightblue" points="2106.98,-330.94 2115.42,-337.34 2112.82,-327.07 2106.98,-330.94"/>
</g>
<!-- Node11 -->
<g id="node11" class="node">
<title>Node11</title>
<g id="a_node11"><a xlink:href="class_a_i_controller_script.html#a9c386cf1258ad897c9a1068804f07ba0" target="_top" xlink:title="have AI to end turn">
<polygon fill="white" stroke="black" points="729,-337.5 729,-358.5 884,-358.5 884,-337.5 729,-337.5"/>
<text text-anchor="middle" x="806.5" y="-344.9" font-family="Helvetica,sans-Serif" font-size="12.00">AIControllerScript.EndTurn</text>
</a>
</g>
</g>
<!-- Node10&#45;&gt;Node11 -->
<g id="edge21" class="edge">
<title>Node10&#45;&gt;Node11</title>
<path fill="none" stroke="midnightblue" d="M2027.73,-348C1933.98,-348 1786.05,-348 1658,-348 1658,-348 1658,-348 1250,-348 1121.71,-348 972.49,-348 884.24,-348"/>
<polygon fill="midnightblue" stroke="midnightblue" points="2027.75,-351.5 2037.75,-348 2027.75,-344.5 2027.75,-351.5"/>
</g>
<!-- Node12 -->
<g id="node12" class="node">
<title>Node12</title>
<g id="a_node12"><a xlink:href="class_a_i_test_script.html#acf1d66cab2a4099b11dac18aa2532377" target="_top" xlink:title=" ">
<polygon fill="white" stroke="black" points="1819.5,-260.5 1819.5,-281.5 1968.5,-281.5 1968.5,-260.5 1819.5,-260.5"/>
<text text-anchor="middle" x="1894" y="-267.9" font-family="Helvetica,sans-Serif" font-size="12.00">AITestScript.HaveAIMove</text>
</a>
</g>
</g>
<!-- Node10&#45;&gt;Node12 -->
<g id="edge23" class="edge">
<title>Node10&#45;&gt;Node12</title>
<path fill="none" stroke="midnightblue" d="M2091.25,-333.01C2067.13,-321.7 2032.49,-306.39 2001,-296 1983.94,-290.37 1964.95,-285.48 1947.8,-281.55"/>
<polygon fill="midnightblue" stroke="midnightblue" points="2090.05,-336.32 2100.58,-337.44 2093.05,-329.99 2090.05,-336.32"/>
</g>
<!-- Node10&#45;&gt;Node13 -->
<g id="edge24" class="edge">
<title>Node10&#45;&gt;Node13</title>
<path fill="none" stroke="midnightblue" d="M2111.59,-328.61C2092.91,-295.14 2050.94,-225.73 2001,-180 1976.05,-157.16 1941.52,-138.51 1918.74,-127.59"/>
<polygon fill="midnightblue" stroke="midnightblue" points="2108.55,-330.34 2116.43,-337.41 2114.68,-326.96 2108.55,-330.34"/>
</g>
<!-- Node22 -->
<g id="node22" class="node">
<title>Node22</title>
<g id="a_node22"><a xlink:href="class_a_i_controller_script.html#a1584ffc08f2ea88236ad6df47319636b" target="_top" xlink:title="have AI to roll">
<polygon fill="white" stroke="black" points="1579.5,-241.5 1579.5,-262.5 1734.5,-262.5 1734.5,-241.5 1579.5,-241.5"/>
<text text-anchor="middle" x="1657" y="-248.9" font-family="Helvetica,sans-Serif" font-size="12.00">AIControllerScript.RollDice</text>
</a>
</g>
</g>
<!-- Node10&#45;&gt;Node22 -->
<g id="edge36" class="edge">
<title>Node10&#45;&gt;Node22</title>
<path fill="none" stroke="midnightblue" d="M2106.79,-329.84C2085.82,-306.36 2045.54,-266.65 2001,-251 1902.4,-216.36 1777.79,-229.68 1709.17,-241.49"/>
<polygon fill="midnightblue" stroke="midnightblue" points="2104.17,-332.15 2113.38,-337.4 2109.45,-327.56 2104.17,-332.15"/>
</g>
<!-- Node23 -->
<g id="node23" class="node">
<title>Node23</title>
<g id="a_node23"><a xlink:href="class_a_i_controller_script.html#acb4af4c99bf1e7610b45d9f81457d625" target="_top" xlink:title="have AI to start turn">
<polygon fill="white" stroke="black" points="1815,-416.5 1815,-437.5 1973,-437.5 1973,-416.5 1815,-416.5"/>
<text text-anchor="middle" x="1894" y="-423.9" font-family="Helvetica,sans-Serif" font-size="12.00">AIControllerScript.StartTurn</text>
</a>
</g>
</g>
<!-- Node10&#45;&gt;Node23 -->
<g id="edge38" class="edge">
<title>Node10&#45;&gt;Node23</title>
<path fill="none" stroke="midnightblue" d="M2095.35,-363.58C2071.4,-376.94 2034.88,-395.77 2001,-407 1989.62,-410.77 1977.31,-413.91 1965.24,-416.49"/>
<polygon fill="midnightblue" stroke="midnightblue" points="2097.21,-366.54 2104.19,-358.57 2093.77,-360.45 2097.21,-366.54"/>
</g>
<!-- Node11&#45;&gt;Node2 -->
<g id="edge22" class="edge">
<title>Node11&#45;&gt;Node2</title>
<path fill="none" stroke="midnightblue" d="M718.78,-348C631.11,-348 496.41,-348 408.87,-348"/>
<polygon fill="midnightblue" stroke="midnightblue" points="718.97,-351.5 728.97,-348 718.97,-344.5 718.97,-351.5"/>
</g>
<!-- Node14 -->
<g id="node14" class="node">
<title>Node14</title>
<g id="a_node14"><a xlink:href="class_round_manager.html#a6cf32ad7ffd3cafc902ae5faeb7605f8" target="_top" xlink:title="removing a card from the player&#39;s To Guess List notify the AI if a player finished showing a suggeste...">
<polygon fill="white" stroke="black" points="1563,-86.5 1563,-107.5 1751,-107.5 1751,-86.5 1563,-86.5"/>
<text text-anchor="middle" x="1657" y="-93.9" font-family="Helvetica,sans-Serif" font-size="12.00">RoundManager.NotifySuggestion</text>
</a>
</g>
</g>
<!-- Node13&#45;&gt;Node14 -->
<g id="edge25" class="edge">
<title>Node13&#45;&gt;Node14</title>
<path fill="none" stroke="midnightblue" d="M1783.44,-107.68C1772.71,-106.76 1761.9,-105.84 1751.35,-104.94"/>
<polygon fill="midnightblue" stroke="midnightblue" points="1783.42,-111.19 1793.68,-108.55 1784.01,-104.21 1783.42,-111.19"/>
</g>
<!-- Node15 -->
<g id="node15" class="node">
<title>Node15</title>
<g id="a_node15"><a xlink:href="class_round_manager.html#a596fc1c822ebb74dad8d238b15b1ea3a" target="_top" xlink:title="Iterate through the rest of the players searching for if 1 or more of the cards were found">
<polygon fill="white" stroke="black" points="934,-87.5 934,-108.5 1122,-108.5 1122,-87.5 934,-87.5"/>
<text text-anchor="middle" x="1028" y="-94.9" font-family="Helvetica,sans-Serif" font-size="12.00">RoundManager.MakeSuggestion</text>
</a>
</g>
</g>
<!-- Node14&#45;&gt;Node15 -->
<g id="edge26" class="edge">
<title>Node14&#45;&gt;Node15</title>
<path fill="none" stroke="midnightblue" d="M1601.53,-84.35C1509.61,-64.86 1318.07,-32.17 1158,-57 1120.84,-62.76 1079.74,-77.34 1054.14,-87.46"/>
<polygon fill="midnightblue" stroke="midnightblue" points="1600.93,-87.8 1611.44,-86.49 1602.4,-80.96 1600.93,-87.8"/>
</g>
<!-- Node19 -->
<g id="node19" class="node">
<title>Node19</title>
<g id="a_node19"><a xlink:href="class_u_i_handler.html#a4009ca74f59111933be2a637c7835e18" target="_top" xlink:title="Displays a card from a player that has it">
<polygon fill="white" stroke="black" points="1390.5,-86.5 1390.5,-107.5 1516.5,-107.5 1516.5,-86.5 1390.5,-86.5"/>
<text text-anchor="middle" x="1453.5" y="-93.9" font-family="Helvetica,sans-Serif" font-size="12.00">UIHandler.ShowCard</text>
</a>
</g>
</g>
<!-- Node14&#45;&gt;Node19 -->
<g id="edge32" class="edge">
<title>Node14&#45;&gt;Node19</title>
<path fill="none" stroke="midnightblue" d="M1552.61,-97C1540.34,-97 1528.12,-97 1516.68,-97"/>
<polygon fill="midnightblue" stroke="midnightblue" points="1552.92,-100.5 1562.92,-97 1552.92,-93.5 1552.92,-100.5"/>
</g>
<!-- Node16 -->
<g id="node16" class="node">
<title>Node16</title>
<g id="a_node16"><a xlink:href="class_suggestion_test.html#ac6fed8b504eb8b103cb5c38fa895edf3" target="_top" xlink:title="get test choices and make suggestion">
<polygon fill="white" stroke="black" points="476.5,-67.5 476.5,-88.5 666.5,-88.5 666.5,-67.5 476.5,-67.5"/>
<text text-anchor="middle" x="571.5" y="-74.9" font-family="Helvetica,sans-Serif" font-size="12.00">SuggestionTest.MakeSuggestion</text>
</a>
</g>
</g>
<!-- Node15&#45;&gt;Node16 -->
<g id="edge27" class="edge">
<title>Node15&#45;&gt;Node16</title>
<path fill="none" stroke="midnightblue" d="M923.69,-93.45C846.41,-90.05 741.59,-85.44 666.62,-82.14"/>
<polygon fill="midnightblue" stroke="midnightblue" points="923.78,-96.96 933.93,-93.9 924.09,-89.97 923.78,-96.96"/>
</g>
<!-- Node17 -->
<g id="node17" class="node">
<title>Node17</title>
<g id="a_node17"><a xlink:href="class_user_controller.html#a6230816eec4c8be9bda248a166d7b9bd" target="_top" xlink:title="Makes suggestion">
<polygon fill="white" stroke="black" points="715,-106.5 715,-127.5 898,-127.5 898,-106.5 715,-106.5"/>
<text text-anchor="middle" x="806.5" y="-113.9" font-family="Helvetica,sans-Serif" font-size="12.00">UserController.MakeSuggestion</text>
</a>
</g>
</g>
<!-- Node15&#45;&gt;Node17 -->
<g id="edge28" class="edge">
<title>Node15&#45;&gt;Node17</title>
<path fill="none" stroke="midnightblue" d="M923.9,-106.92C915.35,-107.66 906.74,-108.41 898.28,-109.14"/>
<polygon fill="midnightblue" stroke="midnightblue" points="924.25,-110.41 933.91,-106.06 923.65,-103.43 924.25,-110.41"/>
</g>
<!-- Node17&#45;&gt;Node9 -->
<g id="edge30" class="edge">
<title>Node17&#45;&gt;Node9</title>
<path fill="none" stroke="midnightblue" d="M754.07,-130.02C712.03,-140.67 653.34,-155.53 614.19,-165.44"/>
<polygon fill="midnightblue" stroke="midnightblue" points="755.01,-133.4 763.84,-127.55 753.29,-126.61 755.01,-133.4"/>
</g>
<!-- Node17&#45;&gt;Node16 -->
<g id="edge31" class="edge">
<title>Node17&#45;&gt;Node16</title>
<path fill="none" stroke="midnightblue" d="M732.8,-104.83C701.57,-99.6 665.41,-93.55 635.36,-88.52"/>
<polygon fill="midnightblue" stroke="midnightblue" points="732.31,-108.3 742.75,-106.5 733.47,-101.39 732.31,-108.3"/>
</g>
<!-- Node18 -->
<g id="node18" class="node">
<title>Node18</title>
<g id="a_node18"><a xlink:href="class_u_i_handler.html#ae6960c4c231f0e85718af2150449bb1f" target="_top" xlink:title="Hides the suggestion panel">
<polygon fill="white" stroke="black" points="486,-107.5 486,-128.5 657,-128.5 657,-107.5 486,-107.5"/>
<text text-anchor="middle" x="571.5" y="-114.9" font-family="Helvetica,sans-Serif" font-size="12.00">UIHandler.ConfirmSuggestion</text>
</a>
</g>
</g>
<!-- Node17&#45;&gt;Node18 -->
<g id="edge29" class="edge">
<title>Node17&#45;&gt;Node18</title>
<path fill="none" stroke="midnightblue" d="M704.47,-117.43C688.74,-117.5 672.62,-117.57 657.29,-117.64"/>
<polygon fill="midnightblue" stroke="midnightblue" points="704.76,-120.93 714.75,-117.39 704.73,-113.93 704.76,-120.93"/>
</g>
<!-- Node20 -->
<g id="node20" class="node">
<title>Node20</title>
<g id="a_node20"><a xlink:href="class_round_manager.html#a780da336fd16dcaee0f00306578f13b4" target="_top" xlink:title=" ">
<polygon fill="white" stroke="black" points="1168,-106.5 1168,-127.5 1334,-127.5 1334,-106.5 1168,-106.5"/>
<text text-anchor="middle" x="1251" y="-113.9" font-family="Helvetica,sans-Serif" font-size="12.00">RoundManager.AIShowCard</text>
</a>
</g>
</g>
<!-- Node19&#45;&gt;Node20 -->
<g id="edge33" class="edge">
<title>Node19&#45;&gt;Node20</title>
<path fill="none" stroke="midnightblue" d="M1380.22,-104.21C1365.24,-105.7 1349.36,-107.29 1334.05,-108.82"/>
<polygon fill="midnightblue" stroke="midnightblue" points="1380.83,-107.67 1390.43,-103.19 1380.14,-100.7 1380.83,-107.67"/>
</g>
<!-- Node21 -->
<g id="node21" class="node">
<title>Node21</title>
<g id="a_node21"><a xlink:href="class_u_i_handler.html#a7e471e88a4baaa1993d0a85035c38016" target="_top" xlink:title="After pressing a card to choose pass this card to show it">
<polygon fill="white" stroke="black" points="1164.5,-66.5 1164.5,-87.5 1337.5,-87.5 1337.5,-66.5 1164.5,-66.5"/>
<text text-anchor="middle" x="1251" y="-73.9" font-family="Helvetica,sans-Serif" font-size="12.00">UIHandler.ShowSelectedCard</text>
</a>
</g>
</g>
<!-- Node19&#45;&gt;Node21 -->
<g id="edge35" class="edge">
<title>Node19&#45;&gt;Node21</title>
<path fill="none" stroke="midnightblue" d="M1380.09,-89.78C1366.33,-88.4 1351.83,-86.96 1337.71,-85.55"/>
<polygon fill="midnightblue" stroke="midnightblue" points="1380.14,-93.3 1390.43,-90.81 1380.83,-86.33 1380.14,-93.3"/>
</g>
<!-- Node20&#45;&gt;Node15 -->
<g id="edge34" class="edge">
<title>Node20&#45;&gt;Node15</title>
<path fill="none" stroke="midnightblue" d="M1157.52,-109.05C1145.82,-108.04 1133.85,-107.01 1122.15,-106.01"/>
<polygon fill="midnightblue" stroke="midnightblue" points="1157.44,-112.56 1167.71,-109.93 1158.04,-105.58 1157.44,-112.56"/>
</g>
<!-- Node22&#45;&gt;Node2 -->
<g id="edge37" class="edge">
<title>Node22&#45;&gt;Node2</title>
<path fill="none" stroke="midnightblue" d="M1569.36,-258.43C1487.59,-263.95 1361.53,-271 1252,-271 1252,-271 1252,-271 805.5,-271 653.35,-271 612.67,-262.65 464,-295 420.42,-304.48 372.32,-324.74 344.92,-337.29"/>
<polygon fill="midnightblue" stroke="midnightblue" points="1569.61,-261.92 1579.35,-257.75 1569.14,-254.94 1569.61,-261.92"/>
</g>
<!-- Node23&#45;&gt;Node24 -->
<g id="edge39" class="edge">
<title>Node23&#45;&gt;Node24</title>
<path fill="none" stroke="midnightblue" d="M1804.73,-434.51C1782.66,-436.39 1759.13,-438.39 1737.51,-440.23"/>
<polygon fill="midnightblue" stroke="midnightblue" points="1805.08,-438 1814.75,-433.66 1804.49,-431.02 1805.08,-438"/>
</g>
<!-- Node25 -->
<g id="node25" class="node">
<title>Node25</title>
<g id="a_node25"><a xlink:href="class_round_manager.html#acf644ae21a6f9ebc2a476fc8603e18fc" target="_top" xlink:title="Method for starting the turn">
<polygon fill="white" stroke="black" points="1380,-436.5 1380,-457.5 1527,-457.5 1527,-436.5 1380,-436.5"/>
<text text-anchor="middle" x="1453.5" y="-443.9" font-family="Helvetica,sans-Serif" font-size="12.00">RoundManager.StartTurn</text>
</a>
</g>
</g>
<!-- Node24&#45;&gt;Node25 -->
<g id="edge40" class="edge">
<title>Node24&#45;&gt;Node25</title>
<path fill="none" stroke="midnightblue" d="M1566.36,-447C1553.2,-447 1539.78,-447 1527.01,-447"/>
<polygon fill="midnightblue" stroke="midnightblue" points="1566.36,-450.5 1576.36,-447 1566.36,-443.5 1566.36,-450.5"/>
</g>
<!-- Node26 -->
<g id="node26" class="node">
<title>Node26</title>
<g id="a_node26"><a xlink:href="class_round_manager.html#a29177f2e27c6c4af55dfa3c48d67cfb0" target="_top" xlink:title="Ending the turn. Returns the next player">
<polygon fill="white" stroke="black" points="1179.5,-415.5 1179.5,-436.5 1322.5,-436.5 1322.5,-415.5 1179.5,-415.5"/>
<text text-anchor="middle" x="1251" y="-422.9" font-family="Helvetica,sans-Serif" font-size="12.00">RoundManager.EndTurn</text>
</a>
</g>
</g>
<!-- Node25&#45;&gt;Node26 -->
<g id="edge41" class="edge">
<title>Node25&#45;&gt;Node26</title>
<path fill="none" stroke="midnightblue" d="M1369.69,-438.33C1354.1,-436.69 1337.93,-435 1322.74,-433.41"/>
<polygon fill="midnightblue" stroke="midnightblue" points="1369.52,-441.83 1379.83,-439.39 1370.25,-434.87 1369.52,-441.83"/>
</g>
<!-- Node29 -->
<g id="node29" class="node">
<title>Node29</title>
<g id="a_node29"><a xlink:href="class_game_manager_script.html#a12cbaf1ff00804887619c07c7267cf31" target="_top" xlink:title="starting and initialing the game and it&#39;s components">
<polygon fill="white" stroke="black" points="1158,-455.5 1158,-476.5 1344,-476.5 1344,-455.5 1158,-455.5"/>
<text text-anchor="middle" x="1251" y="-462.9" font-family="Helvetica,sans-Serif" font-size="12.00">GameManagerScript.StartGame</text>
</a>
</g>
</g>
<!-- Node25&#45;&gt;Node29 -->
<g id="edge45" class="edge">
<title>Node25&#45;&gt;Node29</title>
<path fill="none" stroke="midnightblue" d="M1369.71,-454.85C1361.32,-455.64 1352.77,-456.45 1344.29,-457.25"/>
<polygon fill="midnightblue" stroke="midnightblue" points="1370.21,-458.31 1379.83,-453.89 1369.55,-451.35 1370.21,-458.31"/>
</g>
<!-- Node27 -->
<g id="node27" class="node">
<title>Node27</title>
<g id="a_node27"><a xlink:href="class_user_controller.html#ab90611f541e20c125133d09b62407f41" target="_top" xlink:title="Ends turn">
<polygon fill="white" stroke="black" points="959,-415.5 959,-436.5 1097,-436.5 1097,-415.5 959,-415.5"/>
<text text-anchor="middle" x="1028" y="-422.9" font-family="Helvetica,sans-Serif" font-size="12.00">UserController.EndTurn</text>
</a>
</g>
</g>
<!-- Node26&#45;&gt;Node27 -->
<g id="edge42" class="edge">
<title>Node26&#45;&gt;Node27</title>
<path fill="none" stroke="midnightblue" d="M1169.46,-426C1145.81,-426 1120.17,-426 1097.36,-426"/>
<polygon fill="midnightblue" stroke="midnightblue" points="1169.47,-429.5 1179.47,-426 1169.47,-422.5 1169.47,-429.5"/>
</g>
<!-- Node27&#45;&gt;Node11 -->
<g id="edge43" class="edge">
<title>Node27&#45;&gt;Node11</title>
<path fill="none" stroke="midnightblue" d="M987.8,-412.07C944.68,-396.75 876.32,-372.45 837.33,-358.6"/>
<polygon fill="midnightblue" stroke="midnightblue" points="986.8,-415.43 997.4,-415.48 989.15,-408.83 986.8,-415.43"/>
</g>
<!-- Node28 -->
<g id="node28" class="node">
<title>Node28</title>
<g id="a_node28"><a xlink:href="class_u_i_handler.html#acc06a1dab8566d9e14f7ab3ae1ffea93" target="_top" xlink:title="Ends current player&#39;s turn">
<polygon fill="white" stroke="black" points="749.5,-415.5 749.5,-436.5 863.5,-436.5 863.5,-415.5 749.5,-415.5"/>
<text text-anchor="middle" x="806.5" y="-422.9" font-family="Helvetica,sans-Serif" font-size="12.00">UIHandler.EndTurn</text>
</a>
</g>
</g>
<!-- Node27&#45;&gt;Node28 -->
<g id="edge44" class="edge">
<title>Node27&#45;&gt;Node28</title>
<path fill="none" stroke="midnightblue" d="M948.55,-426C920.46,-426 889.38,-426 863.56,-426"/>
<polygon fill="midnightblue" stroke="midnightblue" points="948.75,-429.5 958.75,-426 948.75,-422.5 948.75,-429.5"/>
</g>
<!-- Node30 -->
<g id="node30" class="node">
<title>Node30</title>
<g id="a_node30"><a xlink:href="class_suggestion_test.html#a904e4481863c3e620574eba37c993a26" target="_top" xlink:title=" ">
<polygon fill="white" stroke="black" points="965,-455.5 965,-476.5 1091,-476.5 1091,-455.5 965,-455.5"/>
<text text-anchor="middle" x="1028" y="-462.9" font-family="Helvetica,sans-Serif" font-size="12.00">SuggestionTest.Start</text>
</a>
</g>
</g>
<!-- Node29&#45;&gt;Node30 -->
<g id="edge46" class="edge">
<title>Node29&#45;&gt;Node30</title>
<path fill="none" stroke="midnightblue" d="M1147.8,-466C1128.44,-466 1108.75,-466 1091.1,-466"/>
<polygon fill="midnightblue" stroke="midnightblue" points="1147.88,-469.5 1157.88,-466 1147.88,-462.5 1147.88,-469.5"/>
</g>
<!-- Node31&#45;&gt;Node3 -->
<g id="edge49" class="edge">
<title>Node31&#45;&gt;Node3</title>
<path fill="none" stroke="midnightblue" d="M204.84,-164.06C196.24,-164.81 187.65,-165.55 179.25,-166.28"/>
<polygon fill="midnightblue" stroke="midnightblue" points="205.27,-167.53 214.92,-163.18 204.66,-160.56 205.27,-167.53"/>
</g>
</g>
</svg>
