<?xml version="1.0" encoding="UTF-8" standalone="no"?>
<!DOCTYPE svg PUBLIC "-//W3C//DTD SVG 1.1//EN"
 "http://www.w3.org/Graphics/SVG/1.1/DTD/svg11.dtd">
<!-- Generated by graphviz version 2.47.1 (20210417.1919)
 -->
<!-- Title: PlayerStatsScript.FindCard Pages: 1 -->
<svg width="589pt" height="70pt"
 viewBox="0.00 0.00 589.00 70.00" xmlns="http://www.w3.org/2000/svg" xmlns:xlink="http://www.w3.org/1999/xlink">
<g id="graph0" class="graph" transform="scale(1 1) rotate(0) translate(4 66)">
<title>PlayerStatsScript.FindCard</title>
<polygon fill="white" stroke="transparent" points="-4,4 -4,-66 585,-66 585,4 -4,4"/>
<!-- Node1 -->
<g id="node1" class="node">
<title>Node1</title>
<g id="a_node1"><a xlink:title="find if the player has a certain card returns the card that&#39;s found">
<polygon fill="#bfbfbf" stroke="black" points="421,-20.5 421,-41.5 581,-41.5 581,-20.5 421,-20.5"/>
<text text-anchor="middle" x="501" y="-27.9" font-family="Helvetica,sans-Serif" font-size="12.00">PlayerStatsScript.FindCard</text>
</a>
</g>
</g>
<!-- Node2 -->
<g id="node2" class="node">
<title>Node2</title>
<g id="a_node2"><a xlink:href="class_player_master_controller.html#a2f3000f8cf5edfbfc03b6a8bce6cf06c" target="_top" xlink:title="check if the player has a card in his deck from the given list of cards it will return the cards and ...">
<polygon fill="white" stroke="black" points="197,-40.5 197,-61.5 385,-61.5 385,-40.5 197,-40.5"/>
<text text-anchor="middle" x="291" y="-47.9" font-family="Helvetica,sans-Serif" font-size="12.00">PlayerMasterController.FindCard</text>
</a>
</g>
</g>
<!-- Node1&#45;&gt;Node2 -->
<g id="edge1" class="edge">
<title>Node1&#45;&gt;Node2</title>
<path fill="none" stroke="midnightblue" d="M410.62,-39.59C402.24,-40.4 393.72,-41.22 385.3,-42.03"/>
<polygon fill="midnightblue" stroke="midnightblue" points="411.15,-43.06 420.77,-38.62 410.48,-36.09 411.15,-43.06"/>
</g>
<!-- Node4 -->
<g id="node4" class="node">
<title>Node4</title>
<g id="a_node4"><a xlink:href="class_player_stats_script.html#a52b81eededa282574178d4eb2efa1a1d" target="_top" xlink:title="find if the player has a certain card from a passed list returns the list of cards that the player ha...">
<polygon fill="white" stroke="black" points="211,-0.5 211,-21.5 371,-21.5 371,-0.5 211,-0.5"/>
<text text-anchor="middle" x="291" y="-7.9" font-family="Helvetica,sans-Serif" font-size="12.00">PlayerStatsScript.FindCard</text>
</a>
</g>
</g>
<!-- Node1&#45;&gt;Node4 -->
<g id="edge3" class="edge">
<title>Node1&#45;&gt;Node4</title>
<path fill="none" stroke="midnightblue" d="M410.74,-22.42C397.53,-21.15 383.99,-19.85 371.01,-18.6"/>
<polygon fill="midnightblue" stroke="midnightblue" points="410.48,-25.91 420.77,-23.38 411.15,-18.94 410.48,-25.91"/>
</g>
<!-- Node3 -->
<g id="node3" class="node">
<title>Node3</title>
<g id="a_node3"><a xlink:href="class_anson_test_script.html#a5aa5459561a7c1f7cb500dd10193bae2" target="_top" xlink:title=" ">
<polygon fill="white" stroke="black" points="0,-40.5 0,-61.5 161,-61.5 161,-40.5 0,-40.5"/>
<text text-anchor="middle" x="80.5" y="-47.9" font-family="Helvetica,sans-Serif" font-size="12.00">AnsonTestScript.FindCards</text>
</a>
</g>
</g>
<!-- Node2&#45;&gt;Node3 -->
<g id="edge2" class="edge">
<title>Node2&#45;&gt;Node3</title>
<path fill="none" stroke="midnightblue" d="M186.72,-51C178.19,-51 169.64,-51 161.32,-51"/>
<polygon fill="midnightblue" stroke="midnightblue" points="186.73,-54.5 196.73,-51 186.73,-47.5 186.73,-54.5"/>
</g>
</g>
</svg>
