<?xml version="1.0" encoding="UTF-8" standalone="no"?>
<!DOCTYPE svg PUBLIC "-//W3C//DTD SVG 1.1//EN"
 "http://www.w3.org/Graphics/SVG/1.1/DTD/svg11.dtd">
<!-- Generated by graphviz version 2.47.1 (20210417.1919)
 -->
<!-- Title: UserController.GetCurrentPlayer Pages: 1 -->
<svg width="1946pt" height="209pt"
 viewBox="0.00 0.00 1946.00 209.00" xmlns="http://www.w3.org/2000/svg" xmlns:xlink="http://www.w3.org/1999/xlink">
<g id="graph0" class="graph" transform="scale(1 1) rotate(0) translate(4 205)">
<title>UserController.GetCurrentPlayer</title>
<polygon fill="white" stroke="transparent" points="-4,4 -4,-205 1942,-205 1942,4 -4,4"/>
<!-- Node1 -->
<g id="node1" class="node">
<title>Node1</title>
<g id="a_node1"><a xlink:title="Gets the player controller for the current player">
<polygon fill="#bfbfbf" stroke="black" points="1753,-79.5 1753,-100.5 1938,-100.5 1938,-79.5 1753,-79.5"/>
<text text-anchor="middle" x="1845.5" y="-86.9" font-family="Helvetica,sans-Serif" font-size="12.00">UserController.GetCurrentPlayer</text>
</a>
</g>
</g>
<!-- Node2 -->
<g id="node2" class="node">
<title>Node2</title>
<g id="a_node2"><a xlink:href="class_u_i_handler.html#a99048b81a1303baba7efd44095c0f235" target="_top" xlink:title="Displays Suggestion menu, set the room if in a room">
<polygon fill="white" stroke="black" points="1520,-159.5 1520,-180.5 1717,-180.5 1717,-159.5 1520,-159.5"/>
<text text-anchor="middle" x="1618.5" y="-166.9" font-family="Helvetica,sans-Serif" font-size="12.00">UIHandler.DisplayMenuSuggestion</text>
</a>
</g>
</g>
<!-- Node1&#45;&gt;Node2 -->
<g id="edge1" class="edge">
<title>Node1&#45;&gt;Node2</title>
<path fill="none" stroke="midnightblue" d="M1816.64,-105.48C1791.33,-118.96 1752.61,-138.16 1717,-150 1705.85,-153.71 1693.74,-156.86 1681.98,-159.48"/>
<polygon fill="midnightblue" stroke="midnightblue" points="1818.51,-108.45 1825.65,-100.62 1815.18,-102.29 1818.51,-108.45"/>
</g>
<!-- Node11 -->
<g id="node11" class="node">
<title>Node11</title>
<g id="a_node11"><a xlink:href="class_u_i_handler.html#ab35722a35c0035fb164d984c49cec4de" target="_top" xlink:title=" ">
<polygon fill="white" stroke="black" points="1549.5,-119.5 1549.5,-140.5 1687.5,-140.5 1687.5,-119.5 1549.5,-119.5"/>
<text text-anchor="middle" x="1618.5" y="-126.9" font-family="Helvetica,sans-Serif" font-size="12.00">UIHandler.FixedUpdate</text>
</a>
</g>
</g>
<!-- Node1&#45;&gt;Node11 -->
<g id="edge10" class="edge">
<title>Node1&#45;&gt;Node11</title>
<path fill="none" stroke="midnightblue" d="M1775.52,-102.26C1744.53,-107.77 1708.34,-114.21 1678.61,-119.49"/>
<polygon fill="midnightblue" stroke="midnightblue" points="1776.15,-105.71 1785.38,-100.51 1774.93,-98.81 1776.15,-105.71"/>
</g>
<!-- Node12 -->
<g id="node12" class="node">
<title>Node12</title>
<g id="a_node12"><a xlink:href="class_u_i_handler.html#ac072319b13f11e5ac215a0ed6ab11aa9" target="_top" xlink:title="Resets UI for the next player">
<polygon fill="white" stroke="black" points="1551,-79.5 1551,-100.5 1686,-100.5 1686,-79.5 1551,-79.5"/>
<text text-anchor="middle" x="1618.5" y="-86.9" font-family="Helvetica,sans-Serif" font-size="12.00">UIHandler.InitialiseTurn</text>
</a>
</g>
</g>
<!-- Node1&#45;&gt;Node12 -->
<g id="edge11" class="edge">
<title>Node1&#45;&gt;Node12</title>
<path fill="none" stroke="midnightblue" d="M1742.95,-90C1723.67,-90 1703.95,-90 1686.09,-90"/>
<polygon fill="midnightblue" stroke="midnightblue" points="1742.98,-93.5 1752.98,-90 1742.98,-86.5 1742.98,-93.5"/>
</g>
<!-- Node20 -->
<g id="node20" class="node">
<title>Node20</title>
<g id="a_node20"><a xlink:href="class_u_i_handler.html#a94a29c2949506b7cd0de99509a6673b5" target="_top" xlink:title="Starting behaviour">
<polygon fill="white" stroke="black" points="1314,-40.5 1314,-61.5 1462,-61.5 1462,-40.5 1314,-40.5"/>
<text text-anchor="middle" x="1388" y="-47.9" font-family="Helvetica,sans-Serif" font-size="12.00">UIHandler.StartBehaviour</text>
</a>
</g>
</g>
<!-- Node1&#45;&gt;Node20 -->
<g id="edge20" class="edge">
<title>Node1&#45;&gt;Node20</title>
<path fill="none" stroke="midnightblue" d="M1775.31,-77.89C1756.45,-74.93 1735.98,-72.03 1717,-70 1629.66,-60.64 1528.7,-55.67 1462.12,-53.19"/>
<polygon fill="midnightblue" stroke="midnightblue" points="1774.88,-81.36 1785.3,-79.48 1775.98,-74.45 1774.88,-81.36"/>
</g>
<!-- Node21 -->
<g id="node21" class="node">
<title>Node21</title>
<g id="a_node21"><a xlink:href="class_user_controller.html#a5141fbe53b6605d5431a4125ce8a1277" target="_top" xlink:title="Takes the shortcut">
<polygon fill="white" stroke="black" points="1536.5,-1.5 1536.5,-22.5 1700.5,-22.5 1700.5,-1.5 1536.5,-1.5"/>
<text text-anchor="middle" x="1618.5" y="-8.9" font-family="Helvetica,sans-Serif" font-size="12.00">UserController.TakeShortcut</text>
</a>
</g>
</g>
<!-- Node1&#45;&gt;Node21 -->
<g id="edge22" class="edge">
<title>Node1&#45;&gt;Node21</title>
<path fill="none" stroke="midnightblue" d="M1812.66,-75.27C1787.15,-63.84 1750.26,-48.12 1717,-37 1700.76,-31.57 1682.66,-26.64 1666.51,-22.61"/>
<polygon fill="midnightblue" stroke="midnightblue" points="1811.29,-78.49 1821.84,-79.42 1814.17,-72.11 1811.29,-78.49"/>
</g>
<!-- Node3 -->
<g id="node3" class="node">
<title>Node3</title>
<g id="a_node3"><a xlink:href="class_u_i_handler.html#a52241b6fefb8a446c2c000202216bfd2" target="_top" xlink:title="Makes suggestion when the button is pressed">
<polygon fill="white" stroke="black" points="1292,-159.5 1292,-180.5 1484,-180.5 1484,-159.5 1292,-159.5"/>
<text text-anchor="middle" x="1388" y="-166.9" font-family="Helvetica,sans-Serif" font-size="12.00">UIHandler.MakeSuggestionButton</text>
</a>
</g>
</g>
<!-- Node2&#45;&gt;Node3 -->
<g id="edge2" class="edge">
<title>Node2&#45;&gt;Node3</title>
<path fill="none" stroke="midnightblue" d="M1509.86,-170C1501.24,-170 1492.58,-170 1484.06,-170"/>
<polygon fill="midnightblue" stroke="midnightblue" points="1509.93,-173.5 1519.93,-170 1509.93,-166.5 1509.93,-173.5"/>
</g>
<!-- Node4 -->
<g id="node4" class="node">
<title>Node4</title>
<g id="a_node4"><a xlink:href="class_round_manager.html#afb3821e66d79eeb0991f620ced62940a" target="_top" xlink:title="Maek suggestion after a delay time, used for free suggestion tile">
<polygon fill="white" stroke="black" points="1087.5,-159.5 1087.5,-180.5 1238.5,-180.5 1238.5,-159.5 1087.5,-159.5"/>
<text text-anchor="middle" x="1163" y="-166.9" font-family="Helvetica,sans-Serif" font-size="12.00">RoundManager.DelaySug</text>
</a>
</g>
</g>
<!-- Node3&#45;&gt;Node4 -->
<g id="edge3" class="edge">
<title>Node3&#45;&gt;Node4</title>
<path fill="none" stroke="midnightblue" d="M1281.75,-170C1267.2,-170 1252.51,-170 1238.67,-170"/>
<polygon fill="midnightblue" stroke="midnightblue" points="1281.78,-173.5 1291.78,-170 1281.78,-166.5 1281.78,-173.5"/>
</g>
<!-- Node5 -->
<g id="node5" class="node">
<title>Node5</title>
<g id="a_node5"><a xlink:href="class_round_manager.html#adfd4f66436e06c12a25c9236b629f369" target="_top" xlink:title="moving the current player to the selected tile">
<polygon fill="white" stroke="black" points="873,-159.5 873,-180.5 1034,-180.5 1034,-159.5 873,-159.5"/>
<text text-anchor="middle" x="953.5" y="-166.9" font-family="Helvetica,sans-Serif" font-size="12.00">RoundManager.MovePlayer</text>
</a>
</g>
</g>
<!-- Node4&#45;&gt;Node5 -->
<g id="edge4" class="edge">
<title>Node4&#45;&gt;Node5</title>
<path fill="none" stroke="midnightblue" d="M1077.12,-170C1062.88,-170 1048.16,-170 1034.06,-170"/>
<polygon fill="midnightblue" stroke="midnightblue" points="1077.38,-173.5 1087.38,-170 1077.38,-166.5 1077.38,-173.5"/>
</g>
<!-- Node6 -->
<g id="node6" class="node">
<title>Node6</title>
<g id="a_node6"><a xlink:href="class_user_controller.html#af896aefe0262e0d8f07fa5f18592877d" target="_top" xlink:title="Selects a tile for player movement">
<polygon fill="white" stroke="black" points="691,-159.5 691,-180.5 837,-180.5 837,-159.5 691,-159.5"/>
<text text-anchor="middle" x="764" y="-166.9" font-family="Helvetica,sans-Serif" font-size="12.00">UserController.SelectTile</text>
</a>
</g>
</g>
<!-- Node5&#45;&gt;Node6 -->
<g id="edge5" class="edge">
<title>Node5&#45;&gt;Node6</title>
<path fill="none" stroke="midnightblue" d="M862.9,-170C854.29,-170 845.62,-170 837.2,-170"/>
<polygon fill="midnightblue" stroke="midnightblue" points="862.98,-173.5 872.98,-170 862.98,-166.5 862.98,-173.5"/>
</g>
<!-- Node7 -->
<g id="node7" class="node">
<title>Node7</title>
<g id="a_node7"><a xlink:href="class_a_i_controller_script.html#af04897fa0ae4ed5e472dea79bce8d7df" target="_top" xlink:title="Decides where the AI should move to this should match the flow chart of the AI">
<polygon fill="white" stroke="black" points="435,-179.5 435,-200.5 645,-200.5 645,-179.5 435,-179.5"/>
<text text-anchor="middle" x="540" y="-186.9" font-family="Helvetica,sans-Serif" font-size="12.00">AIControllerScript.Decide_Movement</text>
</a>
</g>
</g>
<!-- Node6&#45;&gt;Node7 -->
<g id="edge6" class="edge">
<title>Node6&#45;&gt;Node7</title>
<path fill="none" stroke="midnightblue" d="M680.88,-177.4C669.31,-178.44 657.29,-179.52 645.37,-180.6"/>
<polygon fill="midnightblue" stroke="midnightblue" points="681.28,-180.88 690.92,-176.49 680.65,-173.9 681.28,-180.88"/>
</g>
<!-- Node10 -->
<g id="node10" class="node">
<title>Node10</title>
<g id="a_node10"><a xlink:href="class_user_input_control_script.html#a13be570929e27dad6d3d452ccd5f52eb" target="_top" xlink:title="move player token to the tile the cursor is on">
<polygon fill="white" stroke="black" points="425,-139.5 425,-160.5 655,-160.5 655,-139.5 425,-139.5"/>
<text text-anchor="middle" x="540" y="-146.9" font-family="Helvetica,sans-Serif" font-size="12.00">UserInputControlScript.MovePlayerToken</text>
</a>
</g>
</g>
<!-- Node6&#45;&gt;Node10 -->
<g id="edge9" class="edge">
<title>Node6&#45;&gt;Node10</title>
<path fill="none" stroke="midnightblue" d="M680.79,-162.59C672.37,-161.83 663.71,-161.05 655.03,-160.27"/>
<polygon fill="midnightblue" stroke="midnightblue" points="680.65,-166.1 690.92,-163.51 681.28,-159.12 680.65,-166.1"/>
</g>
<!-- Node8 -->
<g id="node8" class="node">
<title>Node8</title>
<g id="a_node8"><a xlink:href="class_a_i_controller_script.html#ac31d9b8dbb75696b181eff1fbef41b97" target="_top" xlink:title="dictates what the AI will do depending on what mode it is in">
<polygon fill="white" stroke="black" points="215,-139.5 215,-160.5 389,-160.5 389,-139.5 215,-139.5"/>
<text text-anchor="middle" x="302" y="-146.9" font-family="Helvetica,sans-Serif" font-size="12.00">AIControllerScript.AIBehaviour</text>
</a>
</g>
</g>
<!-- Node7&#45;&gt;Node8 -->
<g id="edge7" class="edge">
<title>Node7&#45;&gt;Node8</title>
<path fill="none" stroke="midnightblue" d="M467.07,-177.81C434.47,-172.28 396.31,-165.82 365,-160.51"/>
<polygon fill="midnightblue" stroke="midnightblue" points="466.55,-181.27 476.99,-179.49 467.72,-174.37 466.55,-181.27"/>
</g>
<!-- Node9 -->
<g id="node9" class="node">
<title>Node9</title>
<g id="a_node9"><a xlink:href="class_a_i_controller_script.html#a74dc0e720fafceb873d3b19c12f68d58" target="_top" xlink:title=" ">
<polygon fill="white" stroke="black" points="0,-139.5 0,-160.5 179,-160.5 179,-139.5 0,-139.5"/>
<text text-anchor="middle" x="89.5" y="-146.9" font-family="Helvetica,sans-Serif" font-size="12.00">AIControllerScript.FixedUpdate</text>
</a>
</g>
</g>
<!-- Node8&#45;&gt;Node9 -->
<g id="edge8" class="edge">
<title>Node8&#45;&gt;Node9</title>
<path fill="none" stroke="midnightblue" d="M204.57,-150C196.15,-150 187.67,-150 179.32,-150"/>
<polygon fill="midnightblue" stroke="midnightblue" points="204.77,-153.5 214.77,-150 204.77,-146.5 204.77,-153.5"/>
</g>
<!-- Node13 -->
<g id="node13" class="node">
<title>Node13</title>
<g id="a_node13"><a xlink:href="class_round_manager.html#acf644ae21a6f9ebc2a476fc8603e18fc" target="_top" xlink:title="Method for starting the turn">
<polygon fill="white" stroke="black" points="1314.5,-80.5 1314.5,-101.5 1461.5,-101.5 1461.5,-80.5 1314.5,-80.5"/>
<text text-anchor="middle" x="1388" y="-87.9" font-family="Helvetica,sans-Serif" font-size="12.00">RoundManager.StartTurn</text>
</a>
</g>
</g>
<!-- Node12&#45;&gt;Node13 -->
<g id="edge12" class="edge">
<title>Node12&#45;&gt;Node13</title>
<path fill="none" stroke="midnightblue" d="M1540.46,-90.34C1515.05,-90.45 1486.87,-90.57 1461.78,-90.68"/>
<polygon fill="midnightblue" stroke="midnightblue" points="1540.81,-93.84 1550.79,-90.29 1540.78,-86.84 1540.81,-93.84"/>
</g>
<!-- Node14 -->
<g id="node14" class="node">
<title>Node14</title>
<g id="a_node14"><a xlink:href="class_round_manager.html#a29177f2e27c6c4af55dfa3c48d67cfb0" target="_top" xlink:title="Ending the turn. Returns the next player">
<polygon fill="white" stroke="black" points="1091.5,-80.5 1091.5,-101.5 1234.5,-101.5 1234.5,-80.5 1091.5,-80.5"/>
<text text-anchor="middle" x="1163" y="-87.9" font-family="Helvetica,sans-Serif" font-size="12.00">RoundManager.EndTurn</text>
</a>
</g>
</g>
<!-- Node13&#45;&gt;Node14 -->
<g id="edge13" class="edge">
<title>Node13&#45;&gt;Node14</title>
<path fill="none" stroke="midnightblue" d="M1304.27,-91C1281.41,-91 1256.82,-91 1234.71,-91"/>
<polygon fill="midnightblue" stroke="midnightblue" points="1304.29,-94.5 1314.29,-91 1304.29,-87.5 1304.29,-94.5"/>
</g>
<!-- Node18 -->
<g id="node18" class="node">
<title>Node18</title>
<g id="a_node18"><a xlink:href="class_game_manager_script.html#a12cbaf1ff00804887619c07c7267cf31" target="_top" xlink:title="starting and initialing the game and it&#39;s components">
<polygon fill="white" stroke="black" points="1070,-40.5 1070,-61.5 1256,-61.5 1256,-40.5 1070,-40.5"/>
<text text-anchor="middle" x="1163" y="-47.9" font-family="Helvetica,sans-Serif" font-size="12.00">GameManagerScript.StartGame</text>
</a>
</g>
</g>
<!-- Node13&#45;&gt;Node18 -->
<g id="edge18" class="edge">
<title>Node13&#45;&gt;Node18</title>
<path fill="none" stroke="midnightblue" d="M1318.23,-78.67C1287.61,-73.17 1251.92,-66.77 1222.59,-61.51"/>
<polygon fill="midnightblue" stroke="midnightblue" points="1317.95,-82.17 1328.41,-80.49 1319.18,-75.28 1317.95,-82.17"/>
</g>
<!-- Node15 -->
<g id="node15" class="node">
<title>Node15</title>
<g id="a_node15"><a xlink:href="class_user_controller.html#ab90611f541e20c125133d09b62407f41" target="_top" xlink:title="Ends turn">
<polygon fill="white" stroke="black" points="884.5,-80.5 884.5,-101.5 1022.5,-101.5 1022.5,-80.5 884.5,-80.5"/>
<text text-anchor="middle" x="953.5" y="-87.9" font-family="Helvetica,sans-Serif" font-size="12.00">UserController.EndTurn</text>
</a>
</g>
</g>
<!-- Node14&#45;&gt;Node15 -->
<g id="edge14" class="edge">
<title>Node14&#45;&gt;Node15</title>
<path fill="none" stroke="midnightblue" d="M1081.44,-91C1062.04,-91 1041.51,-91 1022.74,-91"/>
<polygon fill="midnightblue" stroke="midnightblue" points="1081.46,-94.5 1091.46,-91 1081.46,-87.5 1081.46,-94.5"/>
</g>
<!-- Node16 -->
<g id="node16" class="node">
<title>Node16</title>
<g id="a_node16"><a xlink:href="class_a_i_controller_script.html#a9c386cf1258ad897c9a1068804f07ba0" target="_top" xlink:title="have AI to end turn">
<polygon fill="white" stroke="black" points="462.5,-99.5 462.5,-120.5 617.5,-120.5 617.5,-99.5 462.5,-99.5"/>
<text text-anchor="middle" x="540" y="-106.9" font-family="Helvetica,sans-Serif" font-size="12.00">AIControllerScript.EndTurn</text>
</a>
</g>
</g>
<!-- Node15&#45;&gt;Node16 -->
<g id="edge15" class="edge">
<title>Node15&#45;&gt;Node16</title>
<path fill="none" stroke="midnightblue" d="M873.93,-94.63C800.23,-98.03 690.7,-103.09 617.63,-106.46"/>
<polygon fill="midnightblue" stroke="midnightblue" points="874.26,-98.12 884.09,-94.16 873.94,-91.12 874.26,-98.12"/>
</g>
<!-- Node17 -->
<g id="node17" class="node">
<title>Node17</title>
<g id="a_node17"><a xlink:href="class_u_i_handler.html#acc06a1dab8566d9e14f7ab3ae1ffea93" target="_top" xlink:title="Ends current player&#39;s turn">
<polygon fill="white" stroke="black" points="707,-60.5 707,-81.5 821,-81.5 821,-60.5 707,-60.5"/>
<text text-anchor="middle" x="764" y="-67.9" font-family="Helvetica,sans-Serif" font-size="12.00">UIHandler.EndTurn</text>
</a>
</g>
</g>
<!-- Node15&#45;&gt;Node17 -->
<g id="edge17" class="edge">
<title>Node15&#45;&gt;Node17</title>
<path fill="none" stroke="midnightblue" d="M873.95,-82.62C856.22,-80.73 837.75,-78.76 821.17,-76.99"/>
<polygon fill="midnightblue" stroke="midnightblue" points="873.96,-86.14 884.28,-83.72 874.71,-79.18 873.96,-86.14"/>
</g>
<!-- Node16&#45;&gt;Node8 -->
<g id="edge16" class="edge">
<title>Node16&#45;&gt;Node8</title>
<path fill="none" stroke="midnightblue" d="M467.07,-122.19C434.47,-127.72 396.31,-134.18 365,-139.49"/>
<polygon fill="midnightblue" stroke="midnightblue" points="467.72,-125.63 476.99,-120.51 466.55,-118.73 467.72,-125.63"/>
</g>
<!-- Node19 -->
<g id="node19" class="node">
<title>Node19</title>
<g id="a_node19"><a xlink:href="class_suggestion_test.html#a904e4481863c3e620574eba37c993a26" target="_top" xlink:title=" ">
<polygon fill="white" stroke="black" points="890.5,-40.5 890.5,-61.5 1016.5,-61.5 1016.5,-40.5 890.5,-40.5"/>
<text text-anchor="middle" x="953.5" y="-47.9" font-family="Helvetica,sans-Serif" font-size="12.00">SuggestionTest.Start</text>
</a>
</g>
</g>
<!-- Node18&#45;&gt;Node19 -->
<g id="edge19" class="edge">
<title>Node18&#45;&gt;Node19</title>
<path fill="none" stroke="midnightblue" d="M1059.64,-51C1044.96,-51 1030.24,-51 1016.67,-51"/>
<polygon fill="midnightblue" stroke="midnightblue" points="1059.78,-54.5 1069.78,-51 1059.78,-47.5 1059.78,-54.5"/>
</g>
<!-- Node20&#45;&gt;Node18 -->
<g id="edge21" class="edge">
<title>Node20&#45;&gt;Node18</title>
<path fill="none" stroke="midnightblue" d="M1303.91,-51C1288.4,-51 1272.09,-51 1256.32,-51"/>
<polygon fill="midnightblue" stroke="midnightblue" points="1303.98,-54.5 1313.98,-51 1303.98,-47.5 1303.98,-54.5"/>
</g>
<!-- Node22 -->
<g id="node22" class="node">
<title>Node22</title>
<g id="a_node22"><a xlink:href="class_u_i_handler.html#a22b216d36344557c94a5b5c3eef79d8f" target="_top" xlink:title="Button for taking a shortcut">
<polygon fill="white" stroke="black" points="1301.5,-0.5 1301.5,-21.5 1474.5,-21.5 1474.5,-0.5 1301.5,-0.5"/>
<text text-anchor="middle" x="1388" y="-7.9" font-family="Helvetica,sans-Serif" font-size="12.00">UIHandler.TakeShortcutButton</text>
</a>
</g>
</g>
<!-- Node21&#45;&gt;Node22 -->
<g id="edge23" class="edge">
<title>Node21&#45;&gt;Node22</title>
<path fill="none" stroke="midnightblue" d="M1525.86,-11.6C1508.94,-11.52 1491.32,-11.45 1474.58,-11.37"/>
<polygon fill="midnightblue" stroke="midnightblue" points="1526.28,-15.1 1536.3,-11.64 1526.31,-8.1 1526.28,-15.1"/>
</g>
</g>
</svg>
