<?xml version="1.0" encoding="UTF-8" standalone="no"?>
<!DOCTYPE svg PUBLIC "-//W3C//DTD SVG 1.1//EN"
 "http://www.w3.org/Graphics/SVG/1.1/DTD/svg11.dtd">
<!-- Generated by graphviz version 2.47.1 (20210417.1919)
 -->
<!-- Title: RoundManager.MovePlayer Pages: 1 -->
<!--zoomable 455 -->
<svg id="main" version="1.1" xmlns="http://www.w3.org/2000/svg" xmlns:xlink="http://www.w3.org/1999/xlink" xml:space="preserve" onload="init(evt)">
<style type="text/css"><![CDATA[
.edge:hover path { stroke: red; }
.edge:hover polygon { stroke: red; fill: red; }
]]></style>
<script type="text/javascript"><![CDATA[
var edges = document.getElementsByTagName('g');
if (edges && edges.length) {
  for (var i=0;i<edges.length;i++) {
    if (edges[i].id.substr(0,4)=='edge') {
      edges[i].setAttribute('class','edge');
    }
  }
}
]]></script>
        <defs>
                <circle id="rim" cx="0" cy="0" r="7"/>
                <circle id="rim2" cx="0" cy="0" r="3.5"/>
                <g id="zoomPlus">
                        <use xlink:href="#rim" fill="#404040">
                                <set attributeName="fill" to="#808080" begin="zoomplus.mouseover" end="zoomplus.mouseout"/>
                        </use>
                        <path d="M-4,0h8M0,-4v8" fill="none" stroke="white" stroke-width="1.5" pointer-events="none"/>
                </g>
                <g id="zoomMin">
                        <use xlink:href="#rim" fill="#404040">
                                <set attributeName="fill" to="#808080" begin="zoomminus.mouseover" end="zoomminus.mouseout"/>
                        </use>
                        <path d="M-4,0h8" fill="none" stroke="white" stroke-width="1.5" pointer-events="none"/>
                </g>
                <g id="dirArrow">
                        <path fill="none" stroke="white" stroke-width="1.5" d="M0,-3.0v7 M-2.5,-0.5L0,-3.0L2.5,-0.5"/>
                </g>
               <g id="resetDef">
                       <use xlink:href="#rim2" fill="#404040">
                               <set attributeName="fill" to="#808080" begin="reset.mouseover" end="reset.mouseout"/>
                       </use>
               </g>
        </defs>

<script type="text/javascript">
var viewWidth = 1666;
var viewHeight = 455;
var sectionId = 'dynsection-21';
</script>
<script xlink:href="svgpan.js"/>
<svg id="graph" class="graph">
<g id="viewport">
<title>RoundManager.MovePlayer</title>
<polygon fill="white" stroke="transparent" points="-4,4 -4,-451 1662,-451 1662,4 -4,4"/>
<!-- Node1 -->
<g id="node1" class="node">
<title>Node1</title>
<g id="a_node1"><a xlink:title="moving the current player to the selected tile">
<polygon fill="#bfbfbf" stroke="black" points="0,-217.5 0,-238.5 161,-238.5 161,-217.5 0,-217.5"/>
<text text-anchor="middle" x="80.5" y="-224.9" font-family="Helvetica,sans-Serif" font-size="12.00">RoundManager.MovePlayer</text>
</a>
</g>
</g>
<!-- Node2 -->
<g id="node2" class="node">
<title>Node2</title>
<g id="a_node2"><a xlink:href="class_board_manager.html#a653d38723d03f890d38a1b68a855c569" target="_top" xlink:title="Clear all movable tiles">
<polygon fill="white" stroke="black" points="211.5,-365.5 211.5,-386.5 382.5,-386.5 382.5,-365.5 211.5,-365.5"/>
<text text-anchor="middle" x="297" y="-372.9" font-family="Helvetica,sans-Serif" font-size="12.00">BoardManager.ClearMovable</text>
</a>
</g>
</g>
<!-- Node1&#45;&gt;Node2 -->
<g id="edge1" class="edge">
<title>Node1&#45;&gt;Node2</title>
<path fill="none" stroke="midnightblue" d="M90.36,-238.57C108.48,-259.61 151.87,-307.21 197,-336 213.75,-346.68 233.82,-355.43 251.5,-361.99"/>
<polygon fill="midnightblue" stroke="midnightblue" points="250.44,-365.33 261.04,-365.41 252.81,-358.74 250.44,-365.33"/>
</g>
<!-- Node6 -->
<g id="node6" class="node">
<title>Node6</title>
<g id="a_node6"><a xlink:href="class_round_manager.html#a8d52738f26bc5b5eea98f8e3dd213744" target="_top" xlink:title="roll dice after a delay time, used for free roll tile">
<polygon fill="white" stroke="black" points="222.5,-305.5 222.5,-326.5 371.5,-326.5 371.5,-305.5 222.5,-305.5"/>
<text text-anchor="middle" x="297" y="-312.9" font-family="Helvetica,sans-Serif" font-size="12.00">RoundManager.DelayRoll</text>
</a>
</g>
</g>
<!-- Node1&#45;&gt;Node6 -->
<g id="edge5" class="edge">
<title>Node1&#45;&gt;Node6</title>
<path fill="none" stroke="midnightblue" d="M97.69,-238.55C119.47,-252.33 159.78,-276.42 197,-291 208.72,-295.59 221.56,-299.56 233.99,-302.9"/>
<polygon fill="midnightblue" stroke="midnightblue" points="233.29,-306.33 243.84,-305.44 235.03,-299.55 233.29,-306.33"/>
</g>
<!-- Node17 -->
<g id="node17" class="node">
<title>Node17</title>
<g id="a_node17"><a xlink:href="class_round_manager.html#afb3821e66d79eeb0991f620ced62940a" target="_top" xlink:title="Maek suggestion after a delay time, used for free suggestion tile">
<polygon fill="white" stroke="black" points="221.5,-217.5 221.5,-238.5 372.5,-238.5 372.5,-217.5 221.5,-217.5"/>
<text text-anchor="middle" x="297" y="-224.9" font-family="Helvetica,sans-Serif" font-size="12.00">RoundManager.DelaySug</text>
</a>
</g>
</g>
<!-- Node1&#45;&gt;Node17 -->
<g id="edge17" class="edge">
<title>Node1&#45;&gt;Node17</title>
<path fill="none" stroke="midnightblue" d="M161.07,-228C177.36,-228 194.56,-228 211.04,-228"/>
<polygon fill="midnightblue" stroke="midnightblue" points="211.18,-231.5 221.18,-228 211.18,-224.5 211.18,-231.5"/>
</g>
<!-- Node19 -->
<g id="node19" class="node">
<title>Node19</title>
<g id="a_node19"><a xlink:href="class_turn_controller.html#af16e42b7e61c5a999291327e2e556caa" target="_top" xlink:title=" ">
<polygon fill="white" stroke="black" points="1461,-247.5 1461,-268.5 1643,-268.5 1643,-247.5 1461,-247.5"/>
<text text-anchor="middle" x="1552" y="-254.9" font-family="Helvetica,sans-Serif" font-size="12.00">TurnController.GetCurrentPlayer</text>
</a>
</g>
</g>
<!-- Node1&#45;&gt;Node19 -->
<g id="edge27" class="edge">
<title>Node1&#45;&gt;Node19</title>
<path fill="none" stroke="midnightblue" d="M136.58,-238.51C155.66,-241.89 177.22,-245.43 197,-248 343.44,-267.06 380.33,-277 528,-277 528,-277 528,-277 1071.5,-277 1202.66,-277 1353.84,-269.81 1450.81,-264.28"/>
<polygon fill="midnightblue" stroke="midnightblue" points="1451.12,-267.77 1460.9,-263.7 1450.71,-260.78 1451.12,-267.77"/>
</g>
<!-- Node24 -->
<g id="node24" class="node">
<title>Node24</title>
<g id="a_node24"><a xlink:href="class_player_master_controller.html#a0447a8a21b5c0f2c94f9d27e0bcd0830" target="_top" xlink:title=" ">
<polygon fill="white" stroke="black" points="957,-69.5 957,-90.5 1184,-90.5 1184,-69.5 957,-69.5"/>
<text text-anchor="middle" x="1070.5" y="-76.9" font-family="Helvetica,sans-Serif" font-size="12.00">PlayerMasterController.GetCurrentRoom</text>
</a>
</g>
</g>
<!-- Node1&#45;&gt;Node24 -->
<g id="edge28" class="edge">
<title>Node1&#45;&gt;Node24</title>
<path fill="none" stroke="midnightblue" d="M141.73,-217.48C159.52,-214.4 179.04,-211.04 197,-208 301.82,-190.26 327.9,-185.03 433,-169 627.46,-139.34 855.94,-108.32 979.37,-91.89"/>
<polygon fill="midnightblue" stroke="midnightblue" points="980.07,-95.32 989.52,-90.53 979.15,-88.38 980.07,-95.32"/>
</g>
<!-- Node26 -->
<g id="node26" class="node">
<title>Node26</title>
<g id="a_node26"><a xlink:href="class_player_token_script.html#a98d00a98b6bf03a74b59a9127e951cfe" target="_top" xlink:title=" ">
<polygon fill="white" stroke="black" points="215,-81.5 215,-102.5 379,-102.5 379,-81.5 215,-81.5"/>
<text text-anchor="middle" x="297" y="-88.9" font-family="Helvetica,sans-Serif" font-size="12.00">PlayerTokenScript.IsInRoom</text>
</a>
</g>
</g>
<!-- Node1&#45;&gt;Node26 -->
<g id="edge29" class="edge">
<title>Node1&#45;&gt;Node26</title>
<path fill="none" stroke="midnightblue" d="M89.44,-217.26C106.52,-194.98 149.09,-143.58 197,-117 205.34,-112.37 214.55,-108.59 223.89,-105.49"/>
<polygon fill="midnightblue" stroke="midnightblue" points="225.11,-108.78 233.65,-102.51 223.06,-102.09 225.11,-108.78"/>
</g>
<!-- Node27 -->
<g id="node27" class="node">
<title>Node27</title>
<g id="a_node27"><a xlink:href="class_player_master_controller.html#a9b23c4d50fabbc44dbba2b0db542efce" target="_top" xlink:title="moving the player to a certain tile">
<polygon fill="white" stroke="black" points="197,-41.5 197,-62.5 397,-62.5 397,-41.5 197,-41.5"/>
<text text-anchor="middle" x="297" y="-48.9" font-family="Helvetica,sans-Serif" font-size="12.00">PlayerMasterController.MovePlayer</text>
</a>
</g>
</g>
<!-- Node1&#45;&gt;Node27 -->
<g id="edge30" class="edge">
<title>Node1&#45;&gt;Node27</title>
<path fill="none" stroke="midnightblue" d="M86.11,-217.16C98.95,-188.33 138.14,-109.43 197,-72 200.18,-69.98 203.53,-68.15 206.99,-66.5"/>
<polygon fill="midnightblue" stroke="midnightblue" points="208.53,-69.66 216.39,-62.56 205.81,-63.2 208.53,-69.66"/>
</g>
<!-- Node3 -->
<g id="node3" class="node">
<title>Node3</title>
<g id="a_node3"><a xlink:href="class_board_tile_script.html#a3ff1d3c491fe4d7e421a624ac0b5be6f" target="_top" xlink:title="setting the glow on the tile">
<polygon fill="white" stroke="black" points="456,-385.5 456,-406.5 602,-406.5 602,-385.5 456,-385.5"/>
<text text-anchor="middle" x="529" y="-392.9" font-family="Helvetica,sans-Serif" font-size="12.00">BoardTileScript.GlowTile</text>
</a>
</g>
</g>
<!-- Node2&#45;&gt;Node3 -->
<g id="edge2" class="edge">
<title>Node2&#45;&gt;Node3</title>
<path fill="none" stroke="midnightblue" d="M382.66,-383.36C403.26,-385.15 425.26,-387.07 445.75,-388.85"/>
<polygon fill="midnightblue" stroke="midnightblue" points="445.72,-392.36 455.99,-389.74 446.33,-385.38 445.72,-392.36"/>
</g>
<!-- Node4 -->
<g id="node4" class="node">
<title>Node4</title>
<g id="a_node4"><a xlink:href="class_board_tile_effect_handler_script.html#a93e813816ff40b3602de22f87a694766" target="_top" xlink:title="turn off the effect for when player can move to that tile">
<polygon fill="white" stroke="black" points="661,-425.5 661,-446.5 921,-446.5 921,-425.5 661,-425.5"/>
<text text-anchor="middle" x="791" y="-432.9" font-family="Helvetica,sans-Serif" font-size="12.00">BoardTileEffectHandlerScript.ToggleEffect_Off</text>
</a>
</g>
</g>
<!-- Node3&#45;&gt;Node4 -->
<g id="edge3" class="edge">
<title>Node3&#45;&gt;Node4</title>
<path fill="none" stroke="midnightblue" d="M598.31,-406.51C633.11,-411.86 675.58,-418.4 711.69,-423.95"/>
<polygon fill="midnightblue" stroke="midnightblue" points="711.28,-427.43 721.69,-425.49 712.34,-420.51 711.28,-427.43"/>
</g>
<!-- Node5 -->
<g id="node5" class="node">
<title>Node5</title>
<g id="a_node5"><a xlink:href="class_board_tile_effect_handler_script.html#a7bf5b2a819cb44463464d5c951bf3143" target="_top" xlink:title="turn on the effect for when player can move to that tile">
<polygon fill="white" stroke="black" points="661,-385.5 661,-406.5 921,-406.5 921,-385.5 661,-385.5"/>
<text text-anchor="middle" x="791" y="-392.9" font-family="Helvetica,sans-Serif" font-size="12.00">BoardTileEffectHandlerScript.ToggleEffect_On</text>
</a>
</g>
</g>
<!-- Node3&#45;&gt;Node5 -->
<g id="edge4" class="edge">
<title>Node3&#45;&gt;Node5</title>
<path fill="none" stroke="midnightblue" d="M602.08,-396C617.26,-396 633.77,-396 650.49,-396"/>
<polygon fill="midnightblue" stroke="midnightblue" points="650.92,-399.5 660.92,-396 650.92,-392.5 650.92,-399.5"/>
</g>
<!-- Node7 -->
<g id="node7" class="node">
<title>Node7</title>
<g id="a_node7"><a xlink:href="class_round_manager.html#ab795c17242b95ab2cef508da5daa2593" target="_top" xlink:title="Rolls dice, will not roll if the player has rolled aready. Pass true to forcfully roll it">
<polygon fill="white" stroke="black" points="457,-305.5 457,-326.5 601,-326.5 601,-305.5 457,-305.5"/>
<text text-anchor="middle" x="529" y="-312.9" font-family="Helvetica,sans-Serif" font-size="12.00">RoundManager.RollDice</text>
</a>
</g>
</g>
<!-- Node6&#45;&gt;Node7 -->
<g id="edge6" class="edge">
<title>Node6&#45;&gt;Node7</title>
<path fill="none" stroke="midnightblue" d="M371.72,-316C395.52,-316 422.04,-316 446.37,-316"/>
<polygon fill="midnightblue" stroke="midnightblue" points="446.66,-319.5 456.66,-316 446.66,-312.5 446.66,-319.5"/>
</g>
<!-- Node8 -->
<g id="node8" class="node">
<title>Node8</title>
<g id="a_node8"><a xlink:href="class_round_manager.html#a5cfea3b56a7576ad02c82c27bb0c6ba7" target="_top" xlink:title="reset the dice after a time delay">
<polygon fill="white" stroke="black" points="698.5,-345.5 698.5,-366.5 883.5,-366.5 883.5,-345.5 698.5,-345.5"/>
<text text-anchor="middle" x="791" y="-352.9" font-family="Helvetica,sans-Serif" font-size="12.00">RoundManager.DelayResetDice</text>
</a>
</g>
</g>
<!-- Node7&#45;&gt;Node8 -->
<g id="edge7" class="edge">
<title>Node7&#45;&gt;Node8</title>
<path fill="none" stroke="midnightblue" d="M598.31,-326.51C633.11,-331.86 675.58,-338.4 711.69,-343.95"/>
<polygon fill="midnightblue" stroke="midnightblue" points="711.28,-347.43 721.69,-345.49 712.34,-340.51 711.28,-347.43"/>
</g>
<!-- Node15 -->
<g id="node15" class="node">
<title>Node15</title>
<g id="a_node15"><a xlink:href="class_dice.html#a333ed52f536c0e7748fafe9422b179b5" target="_top" xlink:title="Roll the Dice">
<polygon fill="white" stroke="black" points="746.5,-305.5 746.5,-326.5 835.5,-326.5 835.5,-305.5 746.5,-305.5"/>
<text text-anchor="middle" x="791" y="-312.9" font-family="Helvetica,sans-Serif" font-size="12.00">Dice.RollDice</text>
</a>
</g>
</g>
<!-- Node7&#45;&gt;Node15 -->
<g id="edge14" class="edge">
<title>Node7&#45;&gt;Node15</title>
<path fill="none" stroke="midnightblue" d="M601.05,-316C643.69,-316 697.08,-316 736.22,-316"/>
<polygon fill="midnightblue" stroke="midnightblue" points="736.35,-319.5 746.35,-316 736.35,-312.5 736.35,-319.5"/>
</g>
<!-- Node9 -->
<g id="node9" class="node">
<title>Node9</title>
<g id="a_node9"><a xlink:href="class_dice.html#ade1dc529eeb31f31e668c595c5748e67" target="_top" xlink:title="Reset the dice">
<polygon fill="white" stroke="black" points="1020.5,-345.5 1020.5,-366.5 1120.5,-366.5 1120.5,-345.5 1020.5,-345.5"/>
<text text-anchor="middle" x="1070.5" y="-352.9" font-family="Helvetica,sans-Serif" font-size="12.00">Dice.ResetDice</text>
</a>
</g>
</g>
<!-- Node8&#45;&gt;Node9 -->
<g id="edge8" class="edge">
<title>Node8&#45;&gt;Node9</title>
<path fill="none" stroke="midnightblue" d="M883.63,-356C925.34,-356 973.48,-356 1010.33,-356"/>
<polygon fill="midnightblue" stroke="midnightblue" points="1010.4,-359.5 1020.4,-356 1010.4,-352.5 1010.4,-359.5"/>
</g>
<!-- Node10 -->
<g id="node10" class="node">
<title>Node10</title>
<g id="a_node10"><a xlink:href="class_dice.html#ace4c995eb73b784d1076fde140ce85af" target="_top" xlink:title="Can Dice be reset">
<polygon fill="white" stroke="black" points="1266.5,-385.5 1266.5,-406.5 1363.5,-406.5 1363.5,-385.5 1266.5,-385.5"/>
<text text-anchor="middle" x="1315" y="-392.9" font-family="Helvetica,sans-Serif" font-size="12.00">Dice.CanReset</text>
</a>
</g>
</g>
<!-- Node9&#45;&gt;Node10 -->
<g id="edge9" class="edge">
<title>Node9&#45;&gt;Node10</title>
<path fill="none" stroke="midnightblue" d="M1120.57,-364.09C1159.82,-370.57 1214.94,-379.66 1256.3,-386.48"/>
<polygon fill="midnightblue" stroke="midnightblue" points="1255.8,-389.95 1266.24,-388.12 1256.94,-383.04 1255.8,-389.95"/>
</g>
<!-- Node12 -->
<g id="node12" class="node">
<title>Node12</title>
<g id="a_node12"><a xlink:href="class_camera_close_up.html#ad31062bdf359a453fc85ebdd71fa1bae" target="_top" xlink:title="Clear camera close up">
<polygon fill="white" stroke="black" points="1224,-345.5 1224,-366.5 1406,-366.5 1406,-345.5 1224,-345.5"/>
<text text-anchor="middle" x="1315" y="-352.9" font-family="Helvetica,sans-Serif" font-size="12.00">CameraCloseUp.ClearCloseUp</text>
</a>
</g>
</g>
<!-- Node9&#45;&gt;Node12 -->
<g id="edge11" class="edge">
<title>Node9&#45;&gt;Node12</title>
<path fill="none" stroke="midnightblue" d="M1120.57,-356C1147.3,-356 1181.38,-356 1213.46,-356"/>
<polygon fill="midnightblue" stroke="midnightblue" points="1213.8,-359.5 1223.8,-356 1213.8,-352.5 1213.8,-359.5"/>
</g>
<!-- Node14 -->
<g id="node14" class="node">
<title>Node14</title>
<g id="a_node14"><a xlink:href="class_die.html#abc11c3d2bf0c0fba1555093eb5a8469e" target="_top" xlink:title="Reset Die to original position">
<polygon fill="white" stroke="black" points="1271,-305.5 1271,-326.5 1359,-326.5 1359,-305.5 1271,-305.5"/>
<text text-anchor="middle" x="1315" y="-312.9" font-family="Helvetica,sans-Serif" font-size="12.00">Die.ResetDie</text>
</a>
</g>
</g>
<!-- Node9&#45;&gt;Node14 -->
<g id="edge13" class="edge">
<title>Node9&#45;&gt;Node14</title>
<path fill="none" stroke="midnightblue" d="M1120.57,-347.91C1161.23,-341.2 1218.91,-331.68 1260.7,-324.79"/>
<polygon fill="midnightblue" stroke="midnightblue" points="1261.39,-328.22 1270.69,-323.14 1260.25,-321.32 1261.39,-328.22"/>
</g>
<!-- Node11 -->
<g id="node11" class="node">
<title>Node11</title>
<g id="a_node11"><a xlink:href="class_die.html#a390d46459637fd249926cda472255d84" target="_top" xlink:title="Can the die be reset">
<polygon fill="white" stroke="black" points="1497,-385.5 1497,-406.5 1607,-406.5 1607,-385.5 1497,-385.5"/>
<text text-anchor="middle" x="1552" y="-392.9" font-family="Helvetica,sans-Serif" font-size="12.00">Die.CanResetDie</text>
</a>
</g>
</g>
<!-- Node10&#45;&gt;Node11 -->
<g id="edge10" class="edge">
<title>Node10&#45;&gt;Node11</title>
<path fill="none" stroke="midnightblue" d="M1363.56,-396C1399.01,-396 1447.83,-396 1486.76,-396"/>
<polygon fill="midnightblue" stroke="midnightblue" points="1486.94,-399.5 1496.94,-396 1486.94,-392.5 1486.94,-399.5"/>
</g>
<!-- Node13 -->
<g id="node13" class="node">
<title>Node13</title>
<g id="a_node13"><a xlink:href="class_camera_close_up.html#ae902d2ccdf969212e0cb84f638f68851" target="_top" xlink:title="Delay then clear close up">
<polygon fill="white" stroke="black" points="1446,-345.5 1446,-366.5 1658,-366.5 1658,-345.5 1446,-345.5"/>
<text text-anchor="middle" x="1552" y="-352.9" font-family="Helvetica,sans-Serif" font-size="12.00">CameraCloseUp.ClearCloseUpDelay</text>
</a>
</g>
</g>
<!-- Node12&#45;&gt;Node13 -->
<g id="edge12" class="edge">
<title>Node12&#45;&gt;Node13</title>
<path fill="none" stroke="midnightblue" d="M1406.19,-356C1415.79,-356 1425.66,-356 1435.5,-356"/>
<polygon fill="midnightblue" stroke="midnightblue" points="1435.74,-359.5 1445.74,-356 1435.74,-352.5 1435.74,-359.5"/>
</g>
<!-- Node16 -->
<g id="node16" class="node">
<title>Node16</title>
<g id="a_node16"><a xlink:href="class_die.html#a4995ecb1a88aa7f1043ae71ba8aa3ef5" target="_top" xlink:title="Roll the die">
<polygon fill="white" stroke="black" points="1032,-305.5 1032,-326.5 1109,-326.5 1109,-305.5 1032,-305.5"/>
<text text-anchor="middle" x="1070.5" y="-312.9" font-family="Helvetica,sans-Serif" font-size="12.00">Die.RollDie</text>
</a>
</g>
</g>
<!-- Node15&#45;&gt;Node16 -->
<g id="edge15" class="edge">
<title>Node15&#45;&gt;Node16</title>
<path fill="none" stroke="midnightblue" d="M835.66,-316C886.32,-316 969.55,-316 1021.85,-316"/>
<polygon fill="midnightblue" stroke="midnightblue" points="1021.88,-319.5 1031.88,-316 1021.88,-312.5 1021.88,-319.5"/>
</g>
<!-- Node16&#45;&gt;Node14 -->
<g id="edge16" class="edge">
<title>Node16&#45;&gt;Node14</title>
<path fill="none" stroke="midnightblue" d="M1109.12,-316C1149.82,-316 1215.01,-316 1260.9,-316"/>
<polygon fill="midnightblue" stroke="midnightblue" points="1260.97,-319.5 1270.97,-316 1260.97,-312.5 1260.97,-319.5"/>
</g>
<!-- Node18 -->
<g id="node18" class="node">
<title>Node18</title>
<g id="a_node18"><a xlink:href="class_round_manager.html#aab3f49a5e05508a8e023a497e763c1c8" target="_top" xlink:title="Gets the player controller for the current player">
<polygon fill="white" stroke="black" points="1220,-227.5 1220,-248.5 1410,-248.5 1410,-227.5 1220,-227.5"/>
<text text-anchor="middle" x="1315" y="-234.9" font-family="Helvetica,sans-Serif" font-size="12.00">RoundManager.GetCurrentPlayer</text>
</a>
</g>
</g>
<!-- Node17&#45;&gt;Node18 -->
<g id="edge18" class="edge">
<title>Node17&#45;&gt;Node18</title>
<path fill="none" stroke="midnightblue" d="M372.71,-228.74C551.4,-230.49 1003.84,-234.95 1209.45,-236.97"/>
<polygon fill="midnightblue" stroke="midnightblue" points="1209.61,-240.47 1219.65,-237.07 1209.68,-233.47 1209.61,-240.47"/>
</g>
<!-- Node20 -->
<g id="node20" class="node">
<title>Node20</title>
<g id="a_node20"><a xlink:href="class_u_i_handler.html#a52241b6fefb8a446c2c000202216bfd2" target="_top" xlink:title="Makes suggestion when the button is pressed">
<polygon fill="white" stroke="black" points="433,-178.5 433,-199.5 625,-199.5 625,-178.5 433,-178.5"/>
<text text-anchor="middle" x="529" y="-185.9" font-family="Helvetica,sans-Serif" font-size="12.00">UIHandler.MakeSuggestionButton</text>
</a>
</g>
</g>
<!-- Node17&#45;&gt;Node20 -->
<g id="edge20" class="edge">
<title>Node17&#45;&gt;Node20</title>
<path fill="none" stroke="midnightblue" d="M359.94,-217.5C389.46,-212.49 424.97,-206.47 455.72,-201.26"/>
<polygon fill="midnightblue" stroke="midnightblue" points="456.68,-204.64 465.95,-199.52 455.51,-197.74 456.68,-204.64"/>
</g>
<!-- Node18&#45;&gt;Node19 -->
<g id="edge19" class="edge">
<title>Node18&#45;&gt;Node19</title>
<path fill="none" stroke="midnightblue" d="M1410.23,-246.02C1423.56,-247.15 1437.31,-248.32 1450.74,-249.47"/>
<polygon fill="midnightblue" stroke="midnightblue" points="1450.69,-252.98 1460.95,-250.34 1451.28,-246 1450.69,-252.98"/>
</g>
<!-- Node21 -->
<g id="node21" class="node">
<title>Node21</title>
<g id="a_node21"><a xlink:href="class_u_i_handler.html#a99048b81a1303baba7efd44095c0f235" target="_top" xlink:title="Displays Suggestion menu, set the room if in a room">
<polygon fill="white" stroke="black" points="692.5,-159.5 692.5,-180.5 889.5,-180.5 889.5,-159.5 692.5,-159.5"/>
<text text-anchor="middle" x="791" y="-166.9" font-family="Helvetica,sans-Serif" font-size="12.00">UIHandler.DisplayMenuSuggestion</text>
</a>
</g>
</g>
<!-- Node20&#45;&gt;Node21 -->
<g id="edge21" class="edge">
<title>Node20&#45;&gt;Node21</title>
<path fill="none" stroke="midnightblue" d="M625.34,-182.03C643.89,-180.68 663.45,-179.25 682.37,-177.87"/>
<polygon fill="midnightblue" stroke="midnightblue" points="682.78,-181.34 692.5,-177.13 682.27,-174.36 682.78,-181.34"/>
</g>
<!-- Node22 -->
<g id="node22" class="node">
<title>Node22</title>
<g id="a_node22"><a xlink:href="class_card_manager.html#a124d7d9ab3a0e7c22ca64c15da76d4b1" target="_top" xlink:title="Looks for the specified weapon card">
<polygon fill="white" stroke="black" points="999.5,-149.5 999.5,-170.5 1141.5,-170.5 1141.5,-149.5 999.5,-149.5"/>
<text text-anchor="middle" x="1070.5" y="-156.9" font-family="Helvetica,sans-Serif" font-size="12.00">CardManager.FindCard</text>
</a>
</g>
</g>
<!-- Node21&#45;&gt;Node22 -->
<g id="edge22" class="edge">
<title>Node21&#45;&gt;Node22</title>
<path fill="none" stroke="midnightblue" d="M889.84,-166.47C922.22,-165.31 957.87,-164.02 988.82,-162.91"/>
<polygon fill="midnightblue" stroke="midnightblue" points="989.26,-166.39 999.12,-162.54 989,-159.4 989.26,-166.39"/>
</g>
<!-- Node23 -->
<g id="node23" class="node">
<title>Node23</title>
<g id="a_node23"><a xlink:href="class_user_controller.html#a587c55687141d18f375e0504ea4649fa" target="_top" xlink:title="Gets the player controller for the current player">
<polygon fill="white" stroke="black" points="978,-189.5 978,-210.5 1163,-210.5 1163,-189.5 978,-189.5"/>
<text text-anchor="middle" x="1070.5" y="-196.9" font-family="Helvetica,sans-Serif" font-size="12.00">UserController.GetCurrentPlayer</text>
</a>
</g>
</g>
<!-- Node21&#45;&gt;Node23 -->
<g id="edge23" class="edge">
<title>Node21&#45;&gt;Node23</title>
<path fill="none" stroke="midnightblue" d="M889.45,-180.53C914.81,-183.28 942.21,-186.24 967.79,-189"/>
<polygon fill="midnightblue" stroke="midnightblue" points="967.55,-192.5 977.87,-190.09 968.31,-185.54 967.55,-192.5"/>
</g>
<!-- Node21&#45;&gt;Node24 -->
<g id="edge25" class="edge">
<title>Node21&#45;&gt;Node24</title>
<path fill="none" stroke="midnightblue" d="M887.52,-159.47C899.28,-155.9 910.75,-151.2 921,-145 942.92,-131.75 934.98,-113.08 957,-100 960.5,-97.92 964.16,-96.05 967.93,-94.36"/>
<polygon fill="midnightblue" stroke="midnightblue" points="969.52,-97.49 977.51,-90.54 966.93,-90.99 969.52,-97.49"/>
</g>
<!-- Node25 -->
<g id="node25" class="node">
<title>Node25</title>
<g id="a_node25"><a xlink:href="class_suggestion.html#aec2e9ce82ae5f51cea7570bc6dafa43a" target="_top" xlink:title=" ">
<polygon fill="white" stroke="black" points="996,-109.5 996,-130.5 1145,-130.5 1145,-109.5 996,-109.5"/>
<text text-anchor="middle" x="1070.5" y="-116.9" font-family="Helvetica,sans-Serif" font-size="12.00">Suggestion.SetSugRoom</text>
</a>
</g>
</g>
<!-- Node21&#45;&gt;Node25 -->
<g id="edge26" class="edge">
<title>Node21&#45;&gt;Node25</title>
<path fill="none" stroke="midnightblue" d="M849.64,-159.46C881.32,-153.69 921.32,-146.41 957,-140 970.83,-137.51 985.61,-134.87 999.77,-132.35"/>
<polygon fill="midnightblue" stroke="midnightblue" points="1000.71,-135.74 1009.94,-130.54 999.48,-128.85 1000.71,-135.74"/>
</g>
<!-- Node23&#45;&gt;Node18 -->
<g id="edge24" class="edge">
<title>Node23&#45;&gt;Node18</title>
<path fill="none" stroke="midnightblue" d="M1138.73,-210.53C1169.08,-215.29 1205.12,-220.94 1236.59,-225.87"/>
<polygon fill="midnightblue" stroke="midnightblue" points="1236.22,-229.35 1246.64,-227.44 1237.3,-222.44 1236.22,-229.35"/>
</g>
<!-- Node28 -->
<g id="node28" class="node">
<title>Node28</title>
<g id="a_node28"><a xlink:href="class_player_token_script.html#af62557bd1edf071efadf23c84f0db1ad" target="_top" xlink:title=" ">
<polygon fill="white" stroke="black" points="441,-40.5 441,-61.5 617,-61.5 617,-40.5 441,-40.5"/>
<text text-anchor="middle" x="529" y="-47.9" font-family="Helvetica,sans-Serif" font-size="12.00">PlayerTokenScript.MoveToken</text>
</a>
</g>
</g>
<!-- Node27&#45;&gt;Node28 -->
<g id="edge31" class="edge">
<title>Node27&#45;&gt;Node28</title>
<path fill="none" stroke="midnightblue" d="M397.21,-51.57C408.29,-51.52 419.56,-51.47 430.62,-51.42"/>
<polygon fill="midnightblue" stroke="midnightblue" points="430.71,-54.92 440.69,-51.38 430.68,-47.92 430.71,-54.92"/>
</g>
<!-- Node29 -->
<g id="node29" class="node">
<title>Node29</title>
<g id="a_node29"><a xlink:href="class_camera_close_up.html#aee634e08987ea079413fd67b737b2c5d" target="_top" xlink:title="Set camera close up to character">
<polygon fill="white" stroke="black" points="679,-40.5 679,-61.5 903,-61.5 903,-40.5 679,-40.5"/>
<text text-anchor="middle" x="791" y="-47.9" font-family="Helvetica,sans-Serif" font-size="12.00">CameraCloseUp.SetCharacterCloseUp</text>
</a>
</g>
</g>
<!-- Node28&#45;&gt;Node29 -->
<g id="edge32" class="edge">
<title>Node28&#45;&gt;Node29</title>
<path fill="none" stroke="midnightblue" d="M617.3,-51C633.82,-51 651.39,-51 668.74,-51"/>
<polygon fill="midnightblue" stroke="midnightblue" points="668.92,-54.5 678.92,-51 668.92,-47.5 668.92,-54.5"/>
</g>
<!-- Node31 -->
<g id="node31" class="node">
<title>Node31</title>
<g id="a_node31"><a xlink:href="class_board_tile_script.html#a6257d1f00b3732f6d61a4d98b445890c" target="_top" xlink:title="setting the player token that is currently on this tile">
<polygon fill="white" stroke="black" points="715,-0.5 715,-21.5 867,-21.5 867,-0.5 715,-0.5"/>
<text text-anchor="middle" x="791" y="-7.9" font-family="Helvetica,sans-Serif" font-size="12.00">BoardTileScript.SetToken</text>
</a>
</g>
</g>
<!-- Node28&#45;&gt;Node31 -->
<g id="edge34" class="edge">
<title>Node28&#45;&gt;Node31</title>
<path fill="none" stroke="midnightblue" d="M598.31,-40.49C633.11,-35.14 675.58,-28.6 711.69,-23.05"/>
<polygon fill="midnightblue" stroke="midnightblue" points="712.34,-26.49 721.69,-21.51 711.28,-19.57 712.34,-26.49"/>
</g>
<!-- Node30 -->
<g id="node30" class="node">
<title>Node30</title>
<g id="a_node30"><a xlink:href="class_camera_close_up.html#a1d70afa00d6f67abee342c029af88fcf" target="_top" xlink:title="Set close up point">
<polygon fill="white" stroke="black" points="984.5,-29.5 984.5,-50.5 1156.5,-50.5 1156.5,-29.5 984.5,-29.5"/>
<text text-anchor="middle" x="1070.5" y="-36.9" font-family="Helvetica,sans-Serif" font-size="12.00">CameraCloseUp.SetCloseUp</text>
</a>
</g>
</g>
<!-- Node29&#45;&gt;Node30 -->
<g id="edge33" class="edge">
<title>Node29&#45;&gt;Node30</title>
<path fill="none" stroke="midnightblue" d="M903.27,-46.59C926.78,-45.66 951.39,-44.68 974.25,-43.78"/>
<polygon fill="midnightblue" stroke="midnightblue" points="974.42,-47.27 984.27,-43.38 974.14,-40.28 974.42,-47.27"/>
</g>
</g>
</svg>
        <g id="navigator" transform="translate(0 0)" fill="#404254">
                <rect fill="#f2f5e9" fill-opacity="0.5" stroke="#606060" stroke-width=".5" x="0" y="0" width="60" height="60"/>
                <use id="zoomplus" xlink:href="#zoomPlus" x="17" y="9" onmousedown="handleZoom(evt,'in')"/>
                <use id="zoomminus" xlink:href="#zoomMin" x="42" y="9" onmousedown="handleZoom(evt,'out')"/>
                <use id="reset" xlink:href="#resetDef" x="30" y="36" onmousedown="handleReset()"/>
                <g id="arrowUp" xlink:href="#dirArrow" transform="translate(30 24)" onmousedown="handlePan(0,-1)">
                  <use xlink:href="#rim" fill="#404040">
                        <set attributeName="fill" to="#808080" begin="arrowUp.mouseover" end="arrowUp.mouseout"/>
                  </use>
                  <path fill="none" stroke="white" stroke-width="1.5" d="M0,-3.0v7 M-2.5,-0.5L0,-3.0L2.5,-0.5"/>
                </g>
                <g id="arrowRight" xlink:href="#dirArrow" transform="rotate(90) translate(36 -43)" onmousedown="handlePan(1,0)">
                  <use xlink:href="#rim" fill="#404040">
                        <set attributeName="fill" to="#808080" begin="arrowRight.mouseover" end="arrowRight.mouseout"/>
                  </use>
                  <path fill="none" stroke="white" stroke-width="1.5" d="M0,-3.0v7 M-2.5,-0.5L0,-3.0L2.5,-0.5"/>
                </g>
                <g id="arrowDown" xlink:href="#dirArrow" transform="rotate(180) translate(-30 -48)" onmousedown="handlePan(0,1)">
                  <use xlink:href="#rim" fill="#404040">
                        <set attributeName="fill" to="#808080" begin="arrowDown.mouseover" end="arrowDown.mouseout"/>
                  </use>
                  <path fill="none" stroke="white" stroke-width="1.5" d="M0,-3.0v7 M-2.5,-0.5L0,-3.0L2.5,-0.5"/>
                </g>
                <g id="arrowLeft" xlink:href="#dirArrow" transform="rotate(270) translate(-36 17)" onmousedown="handlePan(-1,0)">
                  <use xlink:href="#rim" fill="#404040">
                        <set attributeName="fill" to="#808080" begin="arrowLeft.mouseover" end="arrowLeft.mouseout"/>
                  </use>
                  <path fill="none" stroke="white" stroke-width="1.5" d="M0,-3.0v7 M-2.5,-0.5L0,-3.0L2.5,-0.5"/>
                </g>
        </g>
        <svg viewBox="0 0 15 15" width="100%" height="30px" preserveAspectRatio="xMaxYMin meet">
         <g id="arrow_out" transform="scale(0.3 0.3)">
          <a xlink:href="class_round_manager_adfd4f66436e06c12a25c9236b629f369_cgraph_org.svg" target="_base">
           <rect id="button" ry="5" rx="5" y="6" x="6" height="38" width="38"
                fill="#f2f5e9" fill-opacity="0.5" stroke="#606060" stroke-width="1.0"/>
           <path id="arrow"
             d="M 11.500037,31.436501 C 11.940474,20.09759 22.043105,11.32322 32.158766,21.979434 L 37.068811,17.246167 C 37.068811,17.246167 37.088388,32 37.088388,32 L 22.160133,31.978069 C 22.160133,31.978069 26.997745,27.140456 26.997745,27.140456 C 18.528582,18.264221 13.291696,25.230495 11.500037,31.436501 z"
             style="fill:#404040;"/>
          </a>
         </g>
        </svg>
</svg>
