<?xml version="1.0" encoding="UTF-8" standalone="no"?>
<!DOCTYPE svg PUBLIC "-//W3C//DTD SVG 1.1//EN"
 "http://www.w3.org/Graphics/SVG/1.1/DTD/svg11.dtd">
<!-- Generated by graphviz version 2.47.1 (20210417.1919)
 -->
<!-- Title: BoardBuilder.CreateFreeRollTiles Pages: 1 -->
<svg width="1036pt" height="90pt"
 viewBox="0.00 0.00 1036.00 90.00" xmlns="http://www.w3.org/2000/svg" xmlns:xlink="http://www.w3.org/1999/xlink">
<g id="graph0" class="graph" transform="scale(1 1) rotate(0) translate(4 86)">
<title>BoardBuilder.CreateFreeRollTiles</title>
<polygon fill="white" stroke="transparent" points="-4,4 -4,-86 1032,-86 1032,4 -4,4"/>
<!-- Node1 -->
<g id="node1" class="node">
<title>Node1</title>
<g id="a_node1"><a xlink:title="Randomly replace required number of general tiles with FreeRoll Tiles">
<polygon fill="#bfbfbf" stroke="black" points="0,-20.5 0,-41.5 194,-41.5 194,-20.5 0,-20.5"/>
<text text-anchor="middle" x="97" y="-27.9" font-family="Helvetica,sans-Serif" font-size="12.00">BoardBuilder.CreateFreeRollTiles</text>
</a>
</g>
</g>
<!-- Node2 -->
<g id="node2" class="node">
<title>Node2</title>
<g id="a_node2"><a xlink:href="class_board_builder.html#a3e79e20c71a20b8e2feb24d83106ebdb" target="_top" xlink:title="Check for nearby bonus / start tiles in order to space out around the board">
<polygon fill="white" stroke="black" points="234.5,-40.5 234.5,-61.5 419.5,-61.5 419.5,-40.5 234.5,-40.5"/>
<text text-anchor="middle" x="327" y="-47.9" font-family="Helvetica,sans-Serif" font-size="12.00">BoardBuilder.CheckNearbyTiles</text>
</a>
</g>
</g>
<!-- Node1&#45;&gt;Node2 -->
<g id="edge1" class="edge">
<title>Node1&#45;&gt;Node2</title>
<path fill="none" stroke="midnightblue" d="M194.03,-39.42C204.07,-40.3 214.3,-41.2 224.4,-42.09"/>
<polygon fill="midnightblue" stroke="midnightblue" points="224.18,-45.58 234.45,-42.97 224.79,-38.61 224.18,-45.58"/>
</g>
<!-- Node7 -->
<g id="node7" class="node">
<title>Node7</title>
<g id="a_node7"><a xlink:href="class_board_manager.html#ad208908578ffda25d87122a34e264b44" target="_top" xlink:title="Create 2d array of all board tiles">
<polygon fill="white" stroke="black" points="230,-0.5 230,-21.5 424,-21.5 424,-0.5 230,-0.5"/>
<text text-anchor="middle" x="327" y="-7.9" font-family="Helvetica,sans-Serif" font-size="12.00">BoardManager.CreateBoardArray</text>
</a>
</g>
</g>
<!-- Node1&#45;&gt;Node7 -->
<g id="edge6" class="edge">
<title>Node1&#45;&gt;Node7</title>
<path fill="none" stroke="midnightblue" d="M194.03,-22.58C202.52,-21.83 211.14,-21.08 219.7,-20.32"/>
<polygon fill="midnightblue" stroke="midnightblue" points="220.06,-23.81 229.71,-19.45 219.45,-16.83 220.06,-23.81"/>
</g>
<!-- Node3 -->
<g id="node3" class="node">
<title>Node3</title>
<g id="a_node3"><a xlink:href="class_board_manager.html#a1ea52b667d1dd7ca6b4fa956a19ee26d" target="_top" xlink:title="Perform bfs search for the tiles">
<polygon fill="white" stroke="black" points="460,-40.5 460,-61.5 574,-61.5 574,-40.5 460,-40.5"/>
<text text-anchor="middle" x="517" y="-47.9" font-family="Helvetica,sans-Serif" font-size="12.00">BoardManager.bfs</text>
</a>
</g>
</g>
<!-- Node2&#45;&gt;Node3 -->
<g id="edge2" class="edge">
<title>Node2&#45;&gt;Node3</title>
<path fill="none" stroke="midnightblue" d="M419.52,-51C429.71,-51 439.94,-51 449.72,-51"/>
<polygon fill="midnightblue" stroke="midnightblue" points="449.74,-54.5 459.74,-51 449.74,-47.5 449.74,-54.5"/>
</g>
<!-- Node4 -->
<g id="node4" class="node">
<title>Node4</title>
<g id="a_node4"><a xlink:href="class_board_manager.html#ae3af0b08bdfbc0ebcda23950eb935a5d" target="_top" xlink:title="Return array of all neighbours of given tile">
<polygon fill="white" stroke="black" points="610,-60.5 610,-81.5 806,-81.5 806,-60.5 610,-60.5"/>
<text text-anchor="middle" x="708" y="-67.9" font-family="Helvetica,sans-Serif" font-size="12.00">BoardManager.GetTileNeighbours</text>
</a>
</g>
</g>
<!-- Node3&#45;&gt;Node4 -->
<g id="edge3" class="edge">
<title>Node3&#45;&gt;Node4</title>
<path fill="none" stroke="midnightblue" d="M574.19,-56.95C582.42,-57.82 591.1,-58.74 599.94,-59.67"/>
<polygon fill="midnightblue" stroke="midnightblue" points="599.65,-63.16 609.97,-60.73 600.39,-56.2 599.65,-63.16"/>
</g>
<!-- Node6 -->
<g id="node6" class="node">
<title>Node6</title>
<g id="a_node6"><a xlink:href="class_board_tile_script.html#aeee5122d5e5b79867f6538ec4d597b6a" target="_top" xlink:title="check if tile is empty">
<polygon fill="white" stroke="black" points="636.5,-20.5 636.5,-41.5 779.5,-41.5 779.5,-20.5 636.5,-20.5"/>
<text text-anchor="middle" x="708" y="-27.9" font-family="Helvetica,sans-Serif" font-size="12.00">BoardTileScript.IsEmpty</text>
</a>
</g>
</g>
<!-- Node3&#45;&gt;Node6 -->
<g id="edge5" class="edge">
<title>Node3&#45;&gt;Node6</title>
<path fill="none" stroke="midnightblue" d="M574.19,-45.05C590.48,-43.33 608.58,-41.41 626.06,-39.56"/>
<polygon fill="midnightblue" stroke="midnightblue" points="626.68,-43.02 636.26,-38.49 625.95,-36.06 626.68,-43.02"/>
</g>
<!-- Node5 -->
<g id="node5" class="node">
<title>Node5</title>
<g id="a_node5"><a xlink:href="class_board_manager.html#a6b2b89b5ce622bf45676e6993f8ec216" target="_top" xlink:title="Get a tile from the array using a grid reference.">
<polygon fill="white" stroke="black" points="842,-60.5 842,-81.5 1028,-81.5 1028,-60.5 842,-60.5"/>
<text text-anchor="middle" x="935" y="-67.9" font-family="Helvetica,sans-Serif" font-size="12.00">BoardManager.GetTileFromGrid</text>
</a>
</g>
</g>
<!-- Node4&#45;&gt;Node5 -->
<g id="edge4" class="edge">
<title>Node4&#45;&gt;Node5</title>
<path fill="none" stroke="midnightblue" d="M806.05,-71C814.6,-71 823.27,-71 831.86,-71"/>
<polygon fill="midnightblue" stroke="midnightblue" points="831.89,-74.5 841.89,-71 831.89,-67.5 831.89,-74.5"/>
</g>
</g>
</svg>
