<?xml version="1.0" encoding="UTF-8" standalone="no"?>
<!DOCTYPE svg PUBLIC "-//W3C//DTD SVG 1.1//EN"
 "http://www.w3.org/Graphics/SVG/1.1/DTD/svg11.dtd">
<!-- Generated by graphviz version 2.47.1 (20210417.1919)
 -->
<!-- Title: AIControllerScript.NotifySuggestion Pages: 1 -->
<svg width="885pt" height="146pt"
 viewBox="0.00 0.00 885.00 146.00" xmlns="http://www.w3.org/2000/svg" xmlns:xlink="http://www.w3.org/1999/xlink">
<g id="graph0" class="graph" transform="scale(1 1) rotate(0) translate(4 142)">
<title>AIControllerScript.NotifySuggestion</title>
<polygon fill="white" stroke="transparent" points="-4,4 -4,-142 881,-142 881,4 -4,4"/>
<!-- Node1 -->
<g id="node1" class="node">
<title>Node1</title>
<g id="a_node1"><a xlink:title="for the round manager to notify that another player finished picking a card to show">
<polygon fill="#bfbfbf" stroke="black" points="0,-77.5 0,-98.5 200,-98.5 200,-77.5 0,-77.5"/>
<text text-anchor="middle" x="100" y="-84.9" font-family="Helvetica,sans-Serif" font-size="12.00">AIControllerScript.NotifySuggestion</text>
</a>
</g>
</g>
<!-- Node2 -->
<g id="node2" class="node">
<title>Node2</title>
<g id="a_node2"><a xlink:href="class_enum_to_string.html#a078a1fb16a0030544fac1b96a90b6b83" target="_top" xlink:title="Get a string value from a valid enum">
<polygon fill="white" stroke="black" points="236,-116.5 236,-137.5 437,-137.5 437,-116.5 236,-116.5"/>
<text text-anchor="middle" x="336.5" y="-123.9" font-family="Helvetica,sans-Serif" font-size="12.00">EnumToString.GetStringFromEnum</text>
</a>
</g>
</g>
<!-- Node1&#45;&gt;Node2 -->
<g id="edge1" class="edge">
<title>Node1&#45;&gt;Node2</title>
<path fill="none" stroke="midnightblue" d="M164.15,-98.5C194.38,-103.53 230.77,-109.58 262.21,-114.81"/>
<polygon fill="midnightblue" stroke="midnightblue" points="261.8,-118.29 272.24,-116.48 262.95,-111.39 261.8,-118.29"/>
</g>
<!-- Node3 -->
<g id="node3" class="node">
<title>Node3</title>
<g id="a_node3"><a xlink:href="class_a_i_controller_script.html#ab124aec8211aa7b8f00c6ef5db6bc96a" target="_top" xlink:title="for out putting the debug stack if outputDebugText is true, it will out put the the console as well">
<polygon fill="white" stroke="black" points="697,-39.5 697,-60.5 877,-60.5 877,-39.5 697,-39.5"/>
<text text-anchor="middle" x="787" y="-46.9" font-family="Helvetica,sans-Serif" font-size="12.00">AIControllerScript.OutputDebug</text>
</a>
</g>
</g>
<!-- Node1&#45;&gt;Node3 -->
<g id="edge2" class="edge">
<title>Node1&#45;&gt;Node3</title>
<path fill="none" stroke="midnightblue" d="M200.24,-85.34C312.26,-81.92 499.89,-74.96 661,-63 669.37,-62.38 678.04,-61.65 686.74,-60.86"/>
<polygon fill="midnightblue" stroke="midnightblue" points="687.32,-64.32 696.95,-59.91 686.67,-57.35 687.32,-64.32"/>
</g>
<!-- Node4 -->
<g id="node4" class="node">
<title>Node4</title>
<g id="a_node4"><a xlink:href="class_a_i_controller_script.html#aaee909cd0f0ffdedd8d8425607d7ccb5" target="_top" xlink:title="to set the AI&#39;s mode">
<polygon fill="white" stroke="black" points="251.5,-38.5 251.5,-59.5 421.5,-59.5 421.5,-38.5 251.5,-38.5"/>
<text text-anchor="middle" x="336.5" y="-45.9" font-family="Helvetica,sans-Serif" font-size="12.00">AIControllerScript.SetAIMode</text>
</a>
</g>
</g>
<!-- Node1&#45;&gt;Node4 -->
<g id="edge3" class="edge">
<title>Node1&#45;&gt;Node4</title>
<path fill="none" stroke="midnightblue" d="M164.15,-77.5C194.38,-72.47 230.77,-66.42 262.21,-61.19"/>
<polygon fill="midnightblue" stroke="midnightblue" points="262.95,-64.61 272.24,-59.52 261.8,-57.71 262.95,-64.61"/>
</g>
<!-- Node4&#45;&gt;Node3 -->
<g id="edge6" class="edge">
<title>Node4&#45;&gt;Node3</title>
<path fill="none" stroke="midnightblue" d="M421.6,-49.19C496.88,-49.36 607.34,-49.6 686.89,-49.78"/>
<polygon fill="midnightblue" stroke="midnightblue" points="686.91,-53.28 696.92,-49.8 686.93,-46.28 686.91,-53.28"/>
</g>
<!-- Node5 -->
<g id="node5" class="node">
<title>Node5</title>
<g id="a_node5"><a xlink:href="class_a_i_controller_script.html#afcb2875a5501f07a7f44d0fa720266f3" target="_top" xlink:title="to delay the time for the next time the AI does something in the Update">
<polygon fill="white" stroke="black" points="473,-0.5 473,-21.5 661,-21.5 661,-0.5 473,-0.5"/>
<text text-anchor="middle" x="567" y="-7.9" font-family="Helvetica,sans-Serif" font-size="12.00">AIControllerScript.DelayDecision</text>
</a>
</g>
</g>
<!-- Node4&#45;&gt;Node5 -->
<g id="edge4" class="edge">
<title>Node4&#45;&gt;Node5</title>
<path fill="none" stroke="midnightblue" d="M400.85,-38.47C429.2,-33.75 462.82,-28.16 492.29,-23.26"/>
<polygon fill="midnightblue" stroke="midnightblue" points="493.24,-26.65 502.53,-21.56 492.09,-19.74 493.24,-26.65"/>
</g>
<!-- Node5&#45;&gt;Node3 -->
<g id="edge5" class="edge">
<title>Node5&#45;&gt;Node3</title>
<path fill="none" stroke="midnightblue" d="M626.71,-21.5C654.57,-26.49 688.05,-32.48 717.11,-37.68"/>
<polygon fill="midnightblue" stroke="midnightblue" points="716.73,-41.16 727.19,-39.48 717.96,-34.27 716.73,-41.16"/>
</g>
</g>
</svg>
