<?xml version="1.0" encoding="UTF-8" standalone="no"?>
<!DOCTYPE svg PUBLIC "-//W3C//DTD SVG 1.1//EN"
 "http://www.w3.org/Graphics/SVG/1.1/DTD/svg11.dtd">
<!-- Generated by graphviz version 2.47.1 (20210417.1919)
 -->
<!-- Title: AIControllerScript.CanAccuse Pages: 1 -->
<svg width="453pt" height="110pt"
 viewBox="0.00 0.00 453.00 110.00" xmlns="http://www.w3.org/2000/svg" xmlns:xlink="http://www.w3.org/1999/xlink">
<g id="graph0" class="graph" transform="scale(1 1) rotate(0) translate(4 106)">
<title>AIControllerScript.CanAccuse</title>
<polygon fill="white" stroke="transparent" points="-4,4 -4,-106 449,-106 449,4 -4,4"/>
<!-- Node1 -->
<g id="node1" class="node">
<title>Node1</title>
<g id="a_node1"><a xlink:title="check if the AI is comfident enough to accuse this should match the flow chart of the AI">
<polygon fill="#bfbfbf" stroke="black" points="0,-40.5 0,-61.5 172,-61.5 172,-40.5 0,-40.5"/>
<text text-anchor="middle" x="86" y="-47.9" font-family="Helvetica,sans-Serif" font-size="12.00">AIControllerScript.CanAccuse</text>
</a>
</g>
</g>
<!-- Node2 -->
<g id="node2" class="node">
<title>Node2</title>
<g id="a_node2"><a xlink:href="class_player_master_controller.html#a4d2390b678a0d24484551a62a5332c75" target="_top" xlink:title=" ">
<polygon fill="white" stroke="black" points="208,-80.5 208,-101.5 445,-101.5 445,-80.5 208,-80.5"/>
<text text-anchor="middle" x="326.5" y="-87.9" font-family="Helvetica,sans-Serif" font-size="12.00">PlayerMasterController.GetToGuessCards</text>
</a>
</g>
</g>
<!-- Node1&#45;&gt;Node2 -->
<g id="edge1" class="edge">
<title>Node1&#45;&gt;Node2</title>
<path fill="none" stroke="midnightblue" d="M149.66,-61.51C181.31,-66.82 219.87,-73.28 252.81,-78.81"/>
<polygon fill="midnightblue" stroke="midnightblue" points="252.4,-82.29 262.84,-80.49 253.56,-75.39 252.4,-82.29"/>
</g>
<!-- Node3 -->
<g id="node3" class="node">
<title>Node3</title>
<g id="a_node3"><a xlink:href="class_a_i_controller_script.html#a68e87147ee3eff77870c974edbb2e7ea" target="_top" xlink:title="Load player&#39;s guess list">
<polygon fill="white" stroke="black" points="224.5,-40.5 224.5,-61.5 428.5,-61.5 428.5,-40.5 224.5,-40.5"/>
<text text-anchor="middle" x="326.5" y="-47.9" font-family="Helvetica,sans-Serif" font-size="12.00">AIControllerScript.LoadToGuessList</text>
</a>
</g>
</g>
<!-- Node1&#45;&gt;Node3 -->
<g id="edge2" class="edge">
<title>Node1&#45;&gt;Node3</title>
<path fill="none" stroke="midnightblue" d="M172.09,-51C185.66,-51 199.87,-51 213.93,-51"/>
<polygon fill="midnightblue" stroke="midnightblue" points="214.13,-54.5 224.13,-51 214.13,-47.5 214.13,-54.5"/>
</g>
<!-- Node4 -->
<g id="node4" class="node">
<title>Node4</title>
<g id="a_node4"><a xlink:href="class_a_i_controller_script.html#ab124aec8211aa7b8f00c6ef5db6bc96a" target="_top" xlink:title="for out putting the debug stack if outputDebugText is true, it will out put the the console as well">
<polygon fill="white" stroke="black" points="236.5,-0.5 236.5,-21.5 416.5,-21.5 416.5,-0.5 236.5,-0.5"/>
<text text-anchor="middle" x="326.5" y="-7.9" font-family="Helvetica,sans-Serif" font-size="12.00">AIControllerScript.OutputDebug</text>
</a>
</g>
</g>
<!-- Node1&#45;&gt;Node4 -->
<g id="edge3" class="edge">
<title>Node1&#45;&gt;Node4</title>
<path fill="none" stroke="midnightblue" d="M149.66,-40.49C181.31,-35.18 219.87,-28.72 252.81,-23.19"/>
<polygon fill="midnightblue" stroke="midnightblue" points="253.56,-26.61 262.84,-21.51 252.4,-19.71 253.56,-26.61"/>
</g>
</g>
</svg>
