<?xml version="1.0" encoding="UTF-8" standalone="no"?>
<!DOCTYPE svg PUBLIC "-//W3C//DTD SVG 1.1//EN"
 "http://www.w3.org/Graphics/SVG/1.1/DTD/svg11.dtd">
<!-- Generated by graphviz version 2.47.1 (20210417.1919)
 -->
<!-- Title: RoundManager.EndTurn Pages: 1 -->
<!--zoomable 662 -->
<svg id="main" version="1.1" xmlns="http://www.w3.org/2000/svg" xmlns:xlink="http://www.w3.org/1999/xlink" xml:space="preserve" onload="init(evt)">
<style type="text/css"><![CDATA[
.edge:hover path { stroke: red; }
.edge:hover polygon { stroke: red; fill: red; }
]]></style>
<script type="text/javascript"><![CDATA[
var edges = document.getElementsByTagName('g');
if (edges && edges.length) {
  for (var i=0;i<edges.length;i++) {
    if (edges[i].id.substr(0,4)=='edge') {
      edges[i].setAttribute('class','edge');
    }
  }
}
]]></script>
        <defs>
                <circle id="rim" cx="0" cy="0" r="7"/>
                <circle id="rim2" cx="0" cy="0" r="3.5"/>
                <g id="zoomPlus">
                        <use xlink:href="#rim" fill="#404040">
                                <set attributeName="fill" to="#808080" begin="zoomplus.mouseover" end="zoomplus.mouseout"/>
                        </use>
                        <path d="M-4,0h8M0,-4v8" fill="none" stroke="white" stroke-width="1.5" pointer-events="none"/>
                </g>
                <g id="zoomMin">
                        <use xlink:href="#rim" fill="#404040">
                                <set attributeName="fill" to="#808080" begin="zoomminus.mouseover" end="zoomminus.mouseout"/>
                        </use>
                        <path d="M-4,0h8" fill="none" stroke="white" stroke-width="1.5" pointer-events="none"/>
                </g>
                <g id="dirArrow">
                        <path fill="none" stroke="white" stroke-width="1.5" d="M0,-3.0v7 M-2.5,-0.5L0,-3.0L2.5,-0.5"/>
                </g>
               <g id="resetDef">
                       <use xlink:href="#rim2" fill="#404040">
                               <set attributeName="fill" to="#808080" begin="reset.mouseover" end="reset.mouseout"/>
                       </use>
               </g>
        </defs>

<script type="text/javascript">
var viewWidth = 1610;
var viewHeight = 662;
var sectionId = 'dynsection-12';
</script>
<script xlink:href="svgpan.js"/>
<svg id="graph" class="graph">
<g id="viewport">
<title>RoundManager.EndTurn</title>
<polygon fill="white" stroke="transparent" points="-4,4 -4,-658 1606,-658 1606,4 -4,4"/>
<!-- Node1 -->
<g id="node1" class="node">
<title>Node1</title>
<g id="a_node1"><a xlink:title="Ending the turn. Returns the next player">
<polygon fill="#bfbfbf" stroke="black" points="0,-513.5 0,-534.5 143,-534.5 143,-513.5 0,-513.5"/>
<text text-anchor="middle" x="71.5" y="-520.9" font-family="Helvetica,sans-Serif" font-size="12.00">RoundManager.EndTurn</text>
</a>
</g>
</g>
<!-- Node2 -->
<g id="node2" class="node">
<title>Node2</title>
<g id="a_node2"><a xlink:href="class_camera_close_up.html#ad31062bdf359a453fc85ebdd71fa1bae" target="_top" xlink:title="Clear camera close up">
<polygon fill="white" stroke="black" points="434.5,-632.5 434.5,-653.5 616.5,-653.5 616.5,-632.5 434.5,-632.5"/>
<text text-anchor="middle" x="525.5" y="-639.9" font-family="Helvetica,sans-Serif" font-size="12.00">CameraCloseUp.ClearCloseUp</text>
</a>
</g>
</g>
<!-- Node1&#45;&gt;Node2 -->
<g id="edge1" class="edge">
<title>Node1&#45;&gt;Node2</title>
<path fill="none" stroke="midnightblue" d="M82.82,-534.67C100.59,-552.31 138.97,-587.16 179,-603 257.54,-634.07 353.39,-643.13 424.2,-644.96"/>
<polygon fill="midnightblue" stroke="midnightblue" points="424.38,-648.46 434.46,-645.17 424.53,-641.46 424.38,-648.46"/>
</g>
<!-- Node4 -->
<g id="node4" class="node">
<title>Node4</title>
<g id="a_node4"><a xlink:href="class_round_manager.html#aab3f49a5e05508a8e023a497e763c1c8" target="_top" xlink:title="Gets the player controller for the current player">
<polygon fill="white" stroke="black" points="937,-375.5 937,-396.5 1127,-396.5 1127,-375.5 937,-375.5"/>
<text text-anchor="middle" x="1032" y="-382.9" font-family="Helvetica,sans-Serif" font-size="12.00">RoundManager.GetCurrentPlayer</text>
</a>
</g>
</g>
<!-- Node1&#45;&gt;Node4 -->
<g id="edge3" class="edge">
<title>Node1&#45;&gt;Node4</title>
<path fill="none" stroke="midnightblue" d="M143.24,-525.18C311.64,-527.28 732.19,-528.09 866,-487 923.57,-469.32 981.44,-426.86 1010.94,-403.01"/>
<polygon fill="midnightblue" stroke="midnightblue" points="1013.32,-405.58 1018.83,-396.53 1008.88,-400.17 1013.32,-405.58"/>
</g>
<!-- Node6 -->
<g id="node6" class="node">
<title>Node6</title>
<g id="a_node6"><a xlink:href="class_dice.html#ade1dc529eeb31f31e668c595c5748e67" target="_top" xlink:title="Reset the dice">
<polygon fill="white" stroke="black" points="238,-572.5 238,-593.5 338,-593.5 338,-572.5 238,-572.5"/>
<text text-anchor="middle" x="288" y="-579.9" font-family="Helvetica,sans-Serif" font-size="12.00">Dice.ResetDice</text>
</a>
</g>
</g>
<!-- Node1&#45;&gt;Node6 -->
<g id="edge5" class="edge">
<title>Node1&#45;&gt;Node6</title>
<path fill="none" stroke="midnightblue" d="M110.85,-534.55C146.58,-544.38 200,-559.07 238.64,-569.7"/>
<polygon fill="midnightblue" stroke="midnightblue" points="238.05,-573.17 248.62,-572.44 239.91,-566.42 238.05,-573.17"/>
</g>
<!-- Node10 -->
<g id="node10" class="node">
<title>Node10</title>
<g id="a_node10"><a xlink:href="class_turn_controller.html#ade13993ccd7681d71cec356829df0f18" target="_top" xlink:title=" ">
<polygon fill="white" stroke="black" points="179,-474.5 179,-495.5 397,-495.5 397,-474.5 179,-474.5"/>
<text text-anchor="middle" x="288" y="-481.9" font-family="Helvetica,sans-Serif" font-size="12.00">TurnController.SetCurrentPlayerToNext</text>
</a>
</g>
</g>
<!-- Node1&#45;&gt;Node10 -->
<g id="edge10" class="edge">
<title>Node1&#45;&gt;Node10</title>
<path fill="none" stroke="midnightblue" d="M130.26,-513.5C157.68,-508.51 190.62,-502.52 219.22,-497.32"/>
<polygon fill="midnightblue" stroke="midnightblue" points="219.92,-500.75 229.13,-495.52 218.67,-493.87 219.92,-500.75"/>
</g>
<!-- Node11 -->
<g id="node11" class="node">
<title>Node11</title>
<g id="a_node11"><a xlink:href="class_round_manager.html#acf644ae21a6f9ebc2a476fc8603e18fc" target="_top" xlink:title="Method for starting the turn">
<polygon fill="white" stroke="black" points="214.5,-237.5 214.5,-258.5 361.5,-258.5 361.5,-237.5 214.5,-237.5"/>
<text text-anchor="middle" x="288" y="-244.9" font-family="Helvetica,sans-Serif" font-size="12.00">RoundManager.StartTurn</text>
</a>
</g>
</g>
<!-- Node1&#45;&gt;Node11 -->
<g id="edge11" class="edge">
<title>Node1&#45;&gt;Node11</title>
<path fill="none" stroke="midnightblue" d="M80.91,-513.18C113.41,-471.36 231.08,-319.95 272.47,-266.69"/>
<polygon fill="midnightblue" stroke="midnightblue" points="275.28,-268.79 278.65,-258.74 269.75,-264.49 275.28,-268.79"/>
</g>
<!-- Node3 -->
<g id="node3" class="node">
<title>Node3</title>
<g id="a_node3"><a xlink:href="class_camera_close_up.html#ae902d2ccdf969212e0cb84f638f68851" target="_top" xlink:title="Delay then clear close up">
<polygon fill="white" stroke="black" points="654,-632.5 654,-653.5 866,-653.5 866,-632.5 654,-632.5"/>
<text text-anchor="middle" x="760" y="-639.9" font-family="Helvetica,sans-Serif" font-size="12.00">CameraCloseUp.ClearCloseUpDelay</text>
</a>
</g>
</g>
<!-- Node2&#45;&gt;Node3 -->
<g id="edge2" class="edge">
<title>Node2&#45;&gt;Node3</title>
<path fill="none" stroke="midnightblue" d="M616.72,-643C625.53,-643 634.55,-643 643.57,-643"/>
<polygon fill="midnightblue" stroke="midnightblue" points="643.73,-646.5 653.73,-643 643.73,-639.5 643.73,-646.5"/>
</g>
<!-- Node5 -->
<g id="node5" class="node">
<title>Node5</title>
<g id="a_node5"><a xlink:href="class_turn_controller.html#af16e42b7e61c5a999291327e2e556caa" target="_top" xlink:title=" ">
<polygon fill="white" stroke="black" points="1201,-286.5 1201,-307.5 1383,-307.5 1383,-286.5 1201,-286.5"/>
<text text-anchor="middle" x="1292" y="-293.9" font-family="Helvetica,sans-Serif" font-size="12.00">TurnController.GetCurrentPlayer</text>
</a>
</g>
</g>
<!-- Node4&#45;&gt;Node5 -->
<g id="edge4" class="edge">
<title>Node4&#45;&gt;Node5</title>
<path fill="none" stroke="midnightblue" d="M1063.61,-375.44C1110.26,-359.35 1199.17,-328.68 1250.91,-310.83"/>
<polygon fill="midnightblue" stroke="midnightblue" points="1252.12,-314.11 1260.43,-307.55 1249.84,-307.5 1252.12,-314.11"/>
</g>
<!-- Node6&#45;&gt;Node2 -->
<g id="edge8" class="edge">
<title>Node6&#45;&gt;Node2</title>
<path fill="none" stroke="midnightblue" d="M324.66,-593.5C353.71,-601.91 395.85,-613.79 433,-623 443.05,-625.49 453.75,-627.98 464.17,-630.31"/>
<polygon fill="midnightblue" stroke="midnightblue" points="463.52,-633.75 474.04,-632.5 465.04,-626.92 463.52,-633.75"/>
</g>
<!-- Node7 -->
<g id="node7" class="node">
<title>Node7</title>
<g id="a_node7"><a xlink:href="class_dice.html#ace4c995eb73b784d1076fde140ce85af" target="_top" xlink:title="Can Dice be reset">
<polygon fill="white" stroke="black" points="477,-552.5 477,-573.5 574,-573.5 574,-552.5 477,-552.5"/>
<text text-anchor="middle" x="525.5" y="-559.9" font-family="Helvetica,sans-Serif" font-size="12.00">Dice.CanReset</text>
</a>
</g>
</g>
<!-- Node6&#45;&gt;Node7 -->
<g id="edge6" class="edge">
<title>Node6&#45;&gt;Node7</title>
<path fill="none" stroke="midnightblue" d="M338.08,-578.83C375.53,-575.65 427.23,-571.26 466.68,-567.91"/>
<polygon fill="midnightblue" stroke="midnightblue" points="467.02,-571.39 476.69,-567.06 466.43,-564.42 467.02,-571.39"/>
</g>
<!-- Node9 -->
<g id="node9" class="node">
<title>Node9</title>
<g id="a_node9"><a xlink:href="class_die.html#abc11c3d2bf0c0fba1555093eb5a8469e" target="_top" xlink:title="Reset Die to original position">
<polygon fill="white" stroke="black" points="481.5,-592.5 481.5,-613.5 569.5,-613.5 569.5,-592.5 481.5,-592.5"/>
<text text-anchor="middle" x="525.5" y="-599.9" font-family="Helvetica,sans-Serif" font-size="12.00">Die.ResetDie</text>
</a>
</g>
</g>
<!-- Node6&#45;&gt;Node9 -->
<g id="edge9" class="edge">
<title>Node6&#45;&gt;Node9</title>
<path fill="none" stroke="midnightblue" d="M338.08,-587.17C377.02,-590.48 431.36,-595.09 471.32,-598.48"/>
<polygon fill="midnightblue" stroke="midnightblue" points="471.16,-601.98 481.42,-599.34 471.75,-595.01 471.16,-601.98"/>
</g>
<!-- Node8 -->
<g id="node8" class="node">
<title>Node8</title>
<g id="a_node8"><a xlink:href="class_die.html#a390d46459637fd249926cda472255d84" target="_top" xlink:title="Can the die be reset">
<polygon fill="white" stroke="black" points="705,-552.5 705,-573.5 815,-573.5 815,-552.5 705,-552.5"/>
<text text-anchor="middle" x="760" y="-559.9" font-family="Helvetica,sans-Serif" font-size="12.00">Die.CanResetDie</text>
</a>
</g>
</g>
<!-- Node7&#45;&gt;Node8 -->
<g id="edge7" class="edge">
<title>Node7&#45;&gt;Node8</title>
<path fill="none" stroke="midnightblue" d="M574.11,-563C608.99,-563 656.71,-563 694.94,-563"/>
<polygon fill="midnightblue" stroke="midnightblue" points="694.94,-566.5 704.94,-563 694.94,-559.5 694.94,-566.5"/>
</g>
<!-- Node11&#45;&gt;Node4 -->
<g id="edge19" class="edge">
<title>Node11&#45;&gt;Node4</title>
<path fill="none" stroke="midnightblue" d="M295.64,-258.65C313.88,-287 367.77,-364.92 433,-405 519.91,-458.41 552.94,-453.09 654,-467 747.34,-479.85 774.22,-488.31 866,-467 919.75,-454.52 976.18,-421.94 1007.13,-402.11"/>
<polygon fill="midnightblue" stroke="midnightblue" points="1009.06,-405.03 1015.53,-396.64 1005.24,-399.17 1009.06,-405.03"/>
</g>
<!-- Node11&#45;&gt;Node5 -->
<g id="edge20" class="edge">
<title>Node11&#45;&gt;Node5</title>
<path fill="none" stroke="midnightblue" d="M361.66,-242.59C435.29,-237.39 552.49,-229.92 654,-227 748.18,-224.29 772.09,-219.32 866,-227 998.23,-237.82 1151.3,-267.26 1232.82,-284.32"/>
<polygon fill="midnightblue" stroke="midnightblue" points="1232.37,-287.8 1242.88,-286.44 1233.81,-280.95 1232.37,-287.8"/>
</g>
<!-- Node12 -->
<g id="node12" class="node">
<title>Node12</title>
<g id="a_node12"><a xlink:href="class_board_manager.html#a653d38723d03f890d38a1b68a855c569" target="_top" xlink:title="Clear all movable tiles">
<polygon fill="white" stroke="black" points="440,-118.5 440,-139.5 611,-139.5 611,-118.5 440,-118.5"/>
<text text-anchor="middle" x="525.5" y="-125.9" font-family="Helvetica,sans-Serif" font-size="12.00">BoardManager.ClearMovable</text>
</a>
</g>
</g>
<!-- Node11&#45;&gt;Node12 -->
<g id="edge12" class="edge">
<title>Node11&#45;&gt;Node12</title>
<path fill="none" stroke="midnightblue" d="M301.11,-237.19C324.71,-216.72 379.27,-172.27 433,-149 438.78,-146.5 444.9,-144.29 451.13,-142.36"/>
<polygon fill="midnightblue" stroke="midnightblue" points="452.33,-145.65 460.98,-139.53 450.4,-138.93 452.33,-145.65"/>
</g>
<!-- Node16 -->
<g id="node16" class="node">
<title>Node16</title>
<g id="a_node16"><a xlink:href="class_u_i_handler.html#affac6b69bae9622fe2d5ef41990456aa" target="_top" xlink:title="Display the list of cards">
<polygon fill="white" stroke="black" points="457,-78.5 457,-99.5 594,-99.5 594,-78.5 457,-78.5"/>
<text text-anchor="middle" x="525.5" y="-85.9" font-family="Helvetica,sans-Serif" font-size="12.00">UIHandler.DisplayDeck</text>
</a>
</g>
</g>
<!-- Node11&#45;&gt;Node16 -->
<g id="edge16" class="edge">
<title>Node11&#45;&gt;Node16</title>
<path fill="none" stroke="midnightblue" d="M296.68,-237.27C316.17,-210.86 370.51,-142.45 433,-109 437.54,-106.57 442.36,-104.43 447.32,-102.56"/>
<polygon fill="midnightblue" stroke="midnightblue" points="448.66,-105.8 456.99,-99.26 446.4,-99.17 448.66,-105.8"/>
</g>
<!-- Node18 -->
<g id="node18" class="node">
<title>Node18</title>
<g id="a_node18"><a xlink:href="class_u_i_handler.html#abe1710aca2abe4dbb489f0c49a3af879" target="_top" xlink:title="To display the View Blocker can include the name of the player that needs it&#39;s attention">
<polygon fill="white" stroke="black" points="437.5,-38.5 437.5,-59.5 613.5,-59.5 613.5,-38.5 437.5,-38.5"/>
<text text-anchor="middle" x="525.5" y="-45.9" font-family="Helvetica,sans-Serif" font-size="12.00">UIHandler.DisplayViewBlocker</text>
</a>
</g>
</g>
<!-- Node11&#45;&gt;Node18 -->
<g id="edge18" class="edge">
<title>Node11&#45;&gt;Node18</title>
<path fill="none" stroke="midnightblue" d="M294.15,-237.46C310.02,-206.17 361.44,-113.29 433,-69 436.4,-66.89 440,-65.01 443.71,-63.32"/>
<polygon fill="midnightblue" stroke="midnightblue" points="445.2,-66.49 453.17,-59.51 442.58,-60 445.2,-66.49"/>
</g>
<!-- Node19 -->
<g id="node19" class="node">
<title>Node19</title>
<g id="a_node19"><a xlink:href="class_player_master_controller.html#a0a7dd34344c455ef5a0d84c2f7c4a4d6" target="_top" xlink:title=" ">
<polygon fill="white" stroke="black" points="433,-374.5 433,-395.5 618,-395.5 618,-374.5 433,-374.5"/>
<text text-anchor="middle" x="525.5" y="-381.9" font-family="Helvetica,sans-Serif" font-size="12.00">PlayerMasterController.GetDeck</text>
</a>
</g>
</g>
<!-- Node11&#45;&gt;Node19 -->
<g id="edge21" class="edge">
<title>Node11&#45;&gt;Node19</title>
<path fill="none" stroke="midnightblue" d="M299.53,-258.66C322.01,-280.81 377.2,-332.08 433,-360 442.06,-364.53 452.04,-368.33 461.99,-371.48"/>
<polygon fill="midnightblue" stroke="midnightblue" points="461.3,-374.93 471.89,-374.43 463.3,-368.22 461.3,-374.93"/>
</g>
<!-- Node20 -->
<g id="node20" class="node">
<title>Node20</title>
<g id="a_node20"><a xlink:href="class_enum_to_string.html#a078a1fb16a0030544fac1b96a90b6b83" target="_top" xlink:title="Get a string value from a valid enum">
<polygon fill="white" stroke="black" points="659.5,-436.5 659.5,-457.5 860.5,-457.5 860.5,-436.5 659.5,-436.5"/>
<text text-anchor="middle" x="760" y="-443.9" font-family="Helvetica,sans-Serif" font-size="12.00">EnumToString.GetStringFromEnum</text>
</a>
</g>
</g>
<!-- Node11&#45;&gt;Node20 -->
<g id="edge22" class="edge">
<title>Node11&#45;&gt;Node20</title>
<path fill="none" stroke="midnightblue" d="M304.66,-258.66C330.33,-275.65 383.48,-308.8 433,-327 511.79,-355.95 549.86,-315.98 618,-365 643.87,-383.61 628,-408.58 654,-427 656.57,-428.82 659.25,-430.48 662.03,-432.01"/>
<polygon fill="midnightblue" stroke="midnightblue" points="660.67,-435.24 671.2,-436.41 663.7,-428.93 660.67,-435.24"/>
</g>
<!-- Node21 -->
<g id="node21" class="node">
<title>Node21</title>
<g id="a_node21"><a xlink:href="class_u_i_handler.html#ac072319b13f11e5ac215a0ed6ab11aa9" target="_top" xlink:title="Resets UI for the next player">
<polygon fill="white" stroke="black" points="458,-296.5 458,-317.5 593,-317.5 593,-296.5 458,-296.5"/>
<text text-anchor="middle" x="525.5" y="-303.9" font-family="Helvetica,sans-Serif" font-size="12.00">UIHandler.InitialiseTurn</text>
</a>
</g>
</g>
<!-- Node11&#45;&gt;Node21 -->
<g id="edge23" class="edge">
<title>Node11&#45;&gt;Node21</title>
<path fill="none" stroke="midnightblue" d="M331.1,-258.55C370.66,-268.46 429.98,-283.32 472.49,-293.97"/>
<polygon fill="midnightblue" stroke="midnightblue" points="471.81,-297.41 482.37,-296.44 473.52,-290.62 471.81,-297.41"/>
</g>
<!-- Node27 -->
<g id="node27" class="node">
<title>Node27</title>
<g id="a_node27"><a xlink:href="class_a_i_controller_script.html#a606c498cbb805d816c1b06f94631a960" target="_top" xlink:title="to activate the AI or not set which player the AI is controlling">
<polygon fill="white" stroke="black" points="445,-158.5 445,-179.5 606,-179.5 606,-158.5 445,-158.5"/>
<text text-anchor="middle" x="525.5" y="-165.9" font-family="Helvetica,sans-Serif" font-size="12.00">AIControllerScript.SetActive</text>
</a>
</g>
</g>
<!-- Node11&#45;&gt;Node27 -->
<g id="edge31" class="edge">
<title>Node11&#45;&gt;Node27</title>
<path fill="none" stroke="midnightblue" d="M315.02,-237.41C343.67,-225.96 391.21,-207.51 433,-194 445.86,-189.84 459.88,-185.78 472.99,-182.18"/>
<polygon fill="midnightblue" stroke="midnightblue" points="474.07,-185.51 482.81,-179.52 472.24,-178.76 474.07,-185.51"/>
</g>
<!-- Node13 -->
<g id="node13" class="node">
<title>Node13</title>
<g id="a_node13"><a xlink:href="class_board_tile_script.html#a3ff1d3c491fe4d7e421a624ac0b5be6f" target="_top" xlink:title="setting the glow on the tile">
<polygon fill="white" stroke="black" points="687,-40.5 687,-61.5 833,-61.5 833,-40.5 687,-40.5"/>
<text text-anchor="middle" x="760" y="-47.9" font-family="Helvetica,sans-Serif" font-size="12.00">BoardTileScript.GlowTile</text>
</a>
</g>
</g>
<!-- Node12&#45;&gt;Node13 -->
<g id="edge13" class="edge">
<title>Node12&#45;&gt;Node13</title>
<path fill="none" stroke="midnightblue" d="M594.39,-118.41C602.58,-115.91 610.64,-112.82 618,-109 637.27,-99 634.83,-86.17 654,-76 662.81,-71.32 672.5,-67.51 682.33,-64.4"/>
<polygon fill="midnightblue" stroke="midnightblue" points="683.55,-67.69 692.16,-61.53 681.58,-60.97 683.55,-67.69"/>
</g>
<!-- Node14 -->
<g id="node14" class="node">
<title>Node14</title>
<g id="a_node14"><a xlink:href="class_board_tile_effect_handler_script.html#a93e813816ff40b3602de22f87a694766" target="_top" xlink:title="turn off the effect for when player can move to that tile">
<polygon fill="white" stroke="black" points="902,-40.5 902,-61.5 1162,-61.5 1162,-40.5 902,-40.5"/>
<text text-anchor="middle" x="1032" y="-47.9" font-family="Helvetica,sans-Serif" font-size="12.00">BoardTileEffectHandlerScript.ToggleEffect_Off</text>
</a>
</g>
</g>
<!-- Node13&#45;&gt;Node14 -->
<g id="edge14" class="edge">
<title>Node13&#45;&gt;Node14</title>
<path fill="none" stroke="midnightblue" d="M833,-51C851.18,-51 871.31,-51 891.59,-51"/>
<polygon fill="midnightblue" stroke="midnightblue" points="891.86,-54.5 901.86,-51 891.86,-47.5 891.86,-54.5"/>
</g>
<!-- Node15 -->
<g id="node15" class="node">
<title>Node15</title>
<g id="a_node15"><a xlink:href="class_board_tile_effect_handler_script.html#a7bf5b2a819cb44463464d5c951bf3143" target="_top" xlink:title="turn on the effect for when player can move to that tile">
<polygon fill="white" stroke="black" points="902,-0.5 902,-21.5 1162,-21.5 1162,-0.5 902,-0.5"/>
<text text-anchor="middle" x="1032" y="-7.9" font-family="Helvetica,sans-Serif" font-size="12.00">BoardTileEffectHandlerScript.ToggleEffect_On</text>
</a>
</g>
</g>
<!-- Node13&#45;&gt;Node15 -->
<g id="edge15" class="edge">
<title>Node13&#45;&gt;Node15</title>
<path fill="none" stroke="midnightblue" d="M831.94,-40.49C868.23,-35.11 912.55,-28.55 950.16,-22.98"/>
<polygon fill="midnightblue" stroke="midnightblue" points="950.69,-26.44 960.07,-21.51 949.66,-19.51 950.69,-26.44"/>
</g>
<!-- Node17 -->
<g id="node17" class="node">
<title>Node17</title>
<g id="a_node17"><a xlink:href="class_card_slot.html#af678d8249e4d52bb791b47d4ed75e7f3" target="_top" xlink:title="Makes the card slot visible and its game object active">
<polygon fill="white" stroke="black" points="700,-0.5 700,-21.5 820,-21.5 820,-0.5 700,-0.5"/>
<text text-anchor="middle" x="760" y="-7.9" font-family="Helvetica,sans-Serif" font-size="12.00">CardSlot.SetVisible</text>
</a>
</g>
</g>
<!-- Node16&#45;&gt;Node17 -->
<g id="edge17" class="edge">
<title>Node16&#45;&gt;Node17</title>
<path fill="none" stroke="midnightblue" d="M594.18,-79.06C602.49,-76.45 610.64,-73.16 618,-69 638.26,-57.57 633.59,-42.16 654,-31 664.98,-24.99 677.47,-20.77 689.91,-17.79"/>
<polygon fill="midnightblue" stroke="midnightblue" points="690.79,-21.18 699.84,-15.67 689.33,-14.34 690.79,-21.18"/>
</g>
<!-- Node21&#45;&gt;Node20 -->
<g id="edge29" class="edge">
<title>Node21&#45;&gt;Node20</title>
<path fill="none" stroke="midnightblue" d="M593.35,-317.2C602.37,-320.78 610.93,-325.58 618,-332 651.42,-362.37 619.42,-397.97 654,-427 655.79,-428.5 657.66,-429.91 659.59,-431.22"/>
<polygon fill="midnightblue" stroke="midnightblue" points="658.05,-434.37 668.46,-436.38 661.58,-428.32 658.05,-434.37"/>
</g>
<!-- Node22 -->
<g id="node22" class="node">
<title>Node22</title>
<g id="a_node22"><a xlink:href="class_u_i_handler.html#abe1c78d110b0a4374daed98df71fcff1" target="_top" xlink:title="Displays the notepad">
<polygon fill="white" stroke="black" points="682,-396.5 682,-417.5 838,-417.5 838,-396.5 682,-396.5"/>
<text text-anchor="middle" x="760" y="-403.9" font-family="Helvetica,sans-Serif" font-size="12.00">UIHandler.DisplayNotePad</text>
</a>
</g>
</g>
<!-- Node21&#45;&gt;Node22 -->
<g id="edge24" class="edge">
<title>Node21&#45;&gt;Node22</title>
<path fill="none" stroke="midnightblue" d="M589.32,-317.63C599.5,-321.14 609.48,-325.8 618,-332 641.62,-349.19 629.72,-370.75 654,-387 659.65,-390.78 665.83,-393.89 672.27,-396.44"/>
<polygon fill="midnightblue" stroke="midnightblue" points="671.28,-399.8 681.87,-399.79 673.58,-393.19 671.28,-399.8"/>
</g>
<!-- Node23 -->
<g id="node23" class="node">
<title>Node23</title>
<g id="a_node23"><a xlink:href="class_u_i_handler.html#a2db6b92acd51a72b431b3eacb3884ddd" target="_top" xlink:title="Displays a screen when a player is eliminated">
<polygon fill="white" stroke="black" points="661,-356.5 661,-377.5 859,-377.5 859,-356.5 661,-356.5"/>
<text text-anchor="middle" x="760" y="-363.9" font-family="Helvetica,sans-Serif" font-size="12.00">UIHandler.DisplayPlayerEliminated</text>
</a>
</g>
</g>
<!-- Node21&#45;&gt;Node23 -->
<g id="edge25" class="edge">
<title>Node21&#45;&gt;Node23</title>
<path fill="none" stroke="midnightblue" d="M569.67,-317.58C585.06,-321.67 602.42,-326.65 618,-332 634.39,-337.63 637.4,-342.02 654,-347 663.1,-349.73 672.76,-352.17 682.4,-354.32"/>
<polygon fill="midnightblue" stroke="midnightblue" points="681.89,-357.79 692.4,-356.47 683.36,-350.95 681.89,-357.79"/>
</g>
<!-- Node24 -->
<g id="node24" class="node">
<title>Node24</title>
<g id="a_node24"><a xlink:href="class_player_master_controller.html#a12c91851433777ae557a71d9f9a855f0" target="_top" xlink:title=" ">
<polygon fill="white" stroke="black" points="655.5,-236.5 655.5,-257.5 864.5,-257.5 864.5,-236.5 655.5,-236.5"/>
<text text-anchor="middle" x="760" y="-243.9" font-family="Helvetica,sans-Serif" font-size="12.00">PlayerMasterController.GetCharacter</text>
</a>
</g>
</g>
<!-- Node21&#45;&gt;Node24 -->
<g id="edge26" class="edge">
<title>Node21&#45;&gt;Node24</title>
<path fill="none" stroke="midnightblue" d="M556.62,-296.47C582.28,-287.75 620.25,-275.48 654,-267 664.79,-264.29 676.28,-261.75 687.56,-259.46"/>
<polygon fill="midnightblue" stroke="midnightblue" points="688.26,-262.88 697.39,-257.5 686.9,-256.02 688.26,-262.88"/>
</g>
<!-- Node25 -->
<g id="node25" class="node">
<title>Node25</title>
<g id="a_node25"><a xlink:href="class_user_controller.html#a587c55687141d18f375e0504ea4649fa" target="_top" xlink:title="Gets the player controller for the current player">
<polygon fill="white" stroke="black" points="667.5,-276.5 667.5,-297.5 852.5,-297.5 852.5,-276.5 667.5,-276.5"/>
<text text-anchor="middle" x="760" y="-283.9" font-family="Helvetica,sans-Serif" font-size="12.00">UserController.GetCurrentPlayer</text>
</a>
</g>
</g>
<!-- Node21&#45;&gt;Node25 -->
<g id="edge27" class="edge">
<title>Node21&#45;&gt;Node25</title>
<path fill="none" stroke="midnightblue" d="M593.13,-301.27C613.05,-299.55 635.37,-297.63 657.02,-295.77"/>
<polygon fill="midnightblue" stroke="midnightblue" points="657.58,-299.24 667.24,-294.89 656.98,-292.26 657.58,-299.24"/>
</g>
<!-- Node26 -->
<g id="node26" class="node">
<title>Node26</title>
<g id="a_node26"><a xlink:href="class_u_i_handler.html#a33d33813339ed163ad4ab8708226f911" target="_top" xlink:title="Updates the current turn text">
<polygon fill="white" stroke="black" points="664.5,-316.5 664.5,-337.5 855.5,-337.5 855.5,-316.5 664.5,-316.5"/>
<text text-anchor="middle" x="760" y="-323.9" font-family="Helvetica,sans-Serif" font-size="12.00">UIHandler.UpdateCurrentTurnText</text>
</a>
</g>
</g>
<!-- Node21&#45;&gt;Node26 -->
<g id="edge30" class="edge">
<title>Node21&#45;&gt;Node26</title>
<path fill="none" stroke="midnightblue" d="M593.13,-312.73C612.15,-314.37 633.36,-316.19 654.09,-317.98"/>
<polygon fill="midnightblue" stroke="midnightblue" points="653.95,-321.48 664.21,-318.85 654.55,-314.5 653.95,-321.48"/>
</g>
<!-- Node25&#45;&gt;Node4 -->
<g id="edge28" class="edge">
<title>Node25&#45;&gt;Node4</title>
<path fill="none" stroke="midnightblue" d="M829.99,-297.5C842.13,-300.09 854.54,-303.24 866,-307 916.81,-323.69 972.16,-352.6 1004.1,-370.44"/>
<polygon fill="midnightblue" stroke="midnightblue" points="1002.42,-373.51 1012.85,-375.37 1005.86,-367.41 1002.42,-373.51"/>
</g>
<!-- Node27&#45;&gt;Node24 -->
<g id="edge32" class="edge">
<title>Node27&#45;&gt;Node24</title>
<path fill="none" stroke="midnightblue" d="M557.86,-179.52C599.2,-193.39 672.03,-217.82 717.79,-233.17"/>
<polygon fill="midnightblue" stroke="midnightblue" points="716.8,-236.54 727.4,-236.4 719.03,-229.9 716.8,-236.54"/>
</g>
<!-- Node28 -->
<g id="node28" class="node">
<title>Node28</title>
<g id="a_node28"><a xlink:href="class_a_i_controller_script.html#ab124aec8211aa7b8f00c6ef5db6bc96a" target="_top" xlink:title="for out putting the debug stack if outputDebugText is true, it will out put the the console as well">
<polygon fill="white" stroke="black" points="1422,-117.5 1422,-138.5 1602,-138.5 1602,-117.5 1422,-117.5"/>
<text text-anchor="middle" x="1512" y="-124.9" font-family="Helvetica,sans-Serif" font-size="12.00">AIControllerScript.OutputDebug</text>
</a>
</g>
</g>
<!-- Node27&#45;&gt;Node28 -->
<g id="edge33" class="edge">
<title>Node27&#45;&gt;Node28</title>
<path fill="none" stroke="midnightblue" d="M596.67,-158.46C604.13,-155.95 611.39,-152.84 618,-149 638.68,-136.98 632.15,-118.73 654,-109 788.56,-49.07 1227.46,-93.19 1419.57,-116.27"/>
<polygon fill="midnightblue" stroke="midnightblue" points="1419.29,-119.76 1429.64,-117.49 1420.13,-112.81 1419.29,-119.76"/>
</g>
<!-- Node29 -->
<g id="node29" class="node">
<title>Node29</title>
<g id="a_node29"><a xlink:href="class_a_i_controller_script.html#acb4af4c99bf1e7610b45d9f81457d625" target="_top" xlink:title="have AI to start turn">
<polygon fill="white" stroke="black" points="681,-118.5 681,-139.5 839,-139.5 839,-118.5 681,-118.5"/>
<text text-anchor="middle" x="760" y="-125.9" font-family="Helvetica,sans-Serif" font-size="12.00">AIControllerScript.StartTurn</text>
</a>
</g>
</g>
<!-- Node27&#45;&gt;Node29 -->
<g id="edge34" class="edge">
<title>Node27&#45;&gt;Node29</title>
<path fill="none" stroke="midnightblue" d="M587.59,-158.49C618.3,-153.21 655.71,-146.77 687.73,-141.26"/>
<polygon fill="midnightblue" stroke="midnightblue" points="688.66,-144.65 697.92,-139.51 687.47,-137.75 688.66,-144.65"/>
</g>
<!-- Node32 -->
<g id="node32" class="node">
<title>Node32</title>
<g id="a_node32"><a xlink:href="class_player_master_controller.html#a59a900c17a29aece6fab552e723e22a6" target="_top" xlink:title=" ">
<polygon fill="white" stroke="black" points="668.5,-158.5 668.5,-179.5 851.5,-179.5 851.5,-158.5 668.5,-158.5"/>
<text text-anchor="middle" x="760" y="-165.9" font-family="Helvetica,sans-Serif" font-size="12.00">PlayerMasterController.ToString</text>
</a>
</g>
</g>
<!-- Node27&#45;&gt;Node32 -->
<g id="edge39" class="edge">
<title>Node27&#45;&gt;Node32</title>
<path fill="none" stroke="midnightblue" d="M606.19,-169C622.89,-169 640.71,-169 658.07,-169"/>
<polygon fill="midnightblue" stroke="midnightblue" points="658.23,-172.5 668.23,-169 658.23,-165.5 658.23,-172.5"/>
</g>
<!-- Node30 -->
<g id="node30" class="node">
<title>Node30</title>
<g id="a_node30"><a xlink:href="class_a_i_controller_script.html#aaee909cd0f0ffdedd8d8425607d7ccb5" target="_top" xlink:title="to set the AI&#39;s mode">
<polygon fill="white" stroke="black" points="947,-118.5 947,-139.5 1117,-139.5 1117,-118.5 947,-118.5"/>
<text text-anchor="middle" x="1032" y="-125.9" font-family="Helvetica,sans-Serif" font-size="12.00">AIControllerScript.SetAIMode</text>
</a>
</g>
</g>
<!-- Node29&#45;&gt;Node30 -->
<g id="edge35" class="edge">
<title>Node29&#45;&gt;Node30</title>
<path fill="none" stroke="midnightblue" d="M839.1,-129C869.59,-129 904.83,-129 936.72,-129"/>
<polygon fill="midnightblue" stroke="midnightblue" points="936.95,-132.5 946.95,-129 936.95,-125.5 936.95,-132.5"/>
</g>
<!-- Node30&#45;&gt;Node28 -->
<g id="edge38" class="edge">
<title>Node30&#45;&gt;Node28</title>
<path fill="none" stroke="midnightblue" d="M1117.08,-128.82C1199.28,-128.65 1324.44,-128.39 1411.54,-128.21"/>
<polygon fill="midnightblue" stroke="midnightblue" points="1411.71,-131.71 1421.71,-128.19 1411.7,-124.71 1411.71,-131.71"/>
</g>
<!-- Node31 -->
<g id="node31" class="node">
<title>Node31</title>
<g id="a_node31"><a xlink:href="class_a_i_controller_script.html#afcb2875a5501f07a7f44d0fa720266f3" target="_top" xlink:title="to delay the time for the next time the AI does something in the Update">
<polygon fill="white" stroke="black" points="1198,-156.5 1198,-177.5 1386,-177.5 1386,-156.5 1198,-156.5"/>
<text text-anchor="middle" x="1292" y="-163.9" font-family="Helvetica,sans-Serif" font-size="12.00">AIControllerScript.DelayDecision</text>
</a>
</g>
</g>
<!-- Node30&#45;&gt;Node31 -->
<g id="edge36" class="edge">
<title>Node30&#45;&gt;Node31</title>
<path fill="none" stroke="midnightblue" d="M1104.52,-139.53C1136.96,-144.31 1175.49,-149.99 1209.08,-154.93"/>
<polygon fill="midnightblue" stroke="midnightblue" points="1208.93,-158.45 1219.34,-156.44 1209.95,-151.52 1208.93,-158.45"/>
</g>
<!-- Node31&#45;&gt;Node28 -->
<g id="edge37" class="edge">
<title>Node31&#45;&gt;Node28</title>
<path fill="none" stroke="midnightblue" d="M1351.71,-156.5C1379.57,-151.51 1413.05,-145.52 1442.11,-140.32"/>
<polygon fill="midnightblue" stroke="midnightblue" points="1442.96,-143.73 1452.19,-138.52 1441.73,-136.84 1442.96,-143.73"/>
</g>
</g>
</svg>
        <g id="navigator" transform="translate(0 0)" fill="#404254">
                <rect fill="#f2f5e9" fill-opacity="0.5" stroke="#606060" stroke-width=".5" x="0" y="0" width="60" height="60"/>
                <use id="zoomplus" xlink:href="#zoomPlus" x="17" y="9" onmousedown="handleZoom(evt,'in')"/>
                <use id="zoomminus" xlink:href="#zoomMin" x="42" y="9" onmousedown="handleZoom(evt,'out')"/>
                <use id="reset" xlink:href="#resetDef" x="30" y="36" onmousedown="handleReset()"/>
                <g id="arrowUp" xlink:href="#dirArrow" transform="translate(30 24)" onmousedown="handlePan(0,-1)">
                  <use xlink:href="#rim" fill="#404040">
                        <set attributeName="fill" to="#808080" begin="arrowUp.mouseover" end="arrowUp.mouseout"/>
                  </use>
                  <path fill="none" stroke="white" stroke-width="1.5" d="M0,-3.0v7 M-2.5,-0.5L0,-3.0L2.5,-0.5"/>
                </g>
                <g id="arrowRight" xlink:href="#dirArrow" transform="rotate(90) translate(36 -43)" onmousedown="handlePan(1,0)">
                  <use xlink:href="#rim" fill="#404040">
                        <set attributeName="fill" to="#808080" begin="arrowRight.mouseover" end="arrowRight.mouseout"/>
                  </use>
                  <path fill="none" stroke="white" stroke-width="1.5" d="M0,-3.0v7 M-2.5,-0.5L0,-3.0L2.5,-0.5"/>
                </g>
                <g id="arrowDown" xlink:href="#dirArrow" transform="rotate(180) translate(-30 -48)" onmousedown="handlePan(0,1)">
                  <use xlink:href="#rim" fill="#404040">
                        <set attributeName="fill" to="#808080" begin="arrowDown.mouseover" end="arrowDown.mouseout"/>
                  </use>
                  <path fill="none" stroke="white" stroke-width="1.5" d="M0,-3.0v7 M-2.5,-0.5L0,-3.0L2.5,-0.5"/>
                </g>
                <g id="arrowLeft" xlink:href="#dirArrow" transform="rotate(270) translate(-36 17)" onmousedown="handlePan(-1,0)">
                  <use xlink:href="#rim" fill="#404040">
                        <set attributeName="fill" to="#808080" begin="arrowLeft.mouseover" end="arrowLeft.mouseout"/>
                  </use>
                  <path fill="none" stroke="white" stroke-width="1.5" d="M0,-3.0v7 M-2.5,-0.5L0,-3.0L2.5,-0.5"/>
                </g>
        </g>
        <svg viewBox="0 0 15 15" width="100%" height="30px" preserveAspectRatio="xMaxYMin meet">
         <g id="arrow_out" transform="scale(0.3 0.3)">
          <a xlink:href="class_round_manager_a29177f2e27c6c4af55dfa3c48d67cfb0_cgraph_org.svg" target="_base">
           <rect id="button" ry="5" rx="5" y="6" x="6" height="38" width="38"
                fill="#f2f5e9" fill-opacity="0.5" stroke="#606060" stroke-width="1.0"/>
           <path id="arrow"
             d="M 11.500037,31.436501 C 11.940474,20.09759 22.043105,11.32322 32.158766,21.979434 L 37.068811,17.246167 C 37.068811,17.246167 37.088388,32 37.088388,32 L 22.160133,31.978069 C 22.160133,31.978069 26.997745,27.140456 26.997745,27.140456 C 18.528582,18.264221 13.291696,25.230495 11.500037,31.436501 z"
             style="fill:#404040;"/>
          </a>
         </g>
        </svg>
</svg>
