<?xml version="1.0" encoding="UTF-8" standalone="no"?>
<!DOCTYPE svg PUBLIC "-//W3C//DTD SVG 1.1//EN"
 "http://www.w3.org/Graphics/SVG/1.1/DTD/svg11.dtd">
<!-- Generated by graphviz version 2.47.1 (20210417.1919)
 -->
<!-- Title: RoundManager.DiceBehaviour Pages: 1 -->
<!--zoomable 350 -->
<svg id="main" version="1.1" xmlns="http://www.w3.org/2000/svg" xmlns:xlink="http://www.w3.org/1999/xlink" xml:space="preserve" onload="init(evt)">
<style type="text/css"><![CDATA[
.edge:hover path { stroke: red; }
.edge:hover polygon { stroke: red; fill: red; }
]]></style>
<script type="text/javascript"><![CDATA[
var edges = document.getElementsByTagName('g');
if (edges && edges.length) {
  for (var i=0;i<edges.length;i++) {
    if (edges[i].id.substr(0,4)=='edge') {
      edges[i].setAttribute('class','edge');
    }
  }
}
]]></script>
        <defs>
                <circle id="rim" cx="0" cy="0" r="7"/>
                <circle id="rim2" cx="0" cy="0" r="3.5"/>
                <g id="zoomPlus">
                        <use xlink:href="#rim" fill="#404040">
                                <set attributeName="fill" to="#808080" begin="zoomplus.mouseover" end="zoomplus.mouseout"/>
                        </use>
                        <path d="M-4,0h8M0,-4v8" fill="none" stroke="white" stroke-width="1.5" pointer-events="none"/>
                </g>
                <g id="zoomMin">
                        <use xlink:href="#rim" fill="#404040">
                                <set attributeName="fill" to="#808080" begin="zoomminus.mouseover" end="zoomminus.mouseout"/>
                        </use>
                        <path d="M-4,0h8" fill="none" stroke="white" stroke-width="1.5" pointer-events="none"/>
                </g>
                <g id="dirArrow">
                        <path fill="none" stroke="white" stroke-width="1.5" d="M0,-3.0v7 M-2.5,-0.5L0,-3.0L2.5,-0.5"/>
                </g>
               <g id="resetDef">
                       <use xlink:href="#rim2" fill="#404040">
                               <set attributeName="fill" to="#808080" begin="reset.mouseover" end="reset.mouseout"/>
                       </use>
               </g>
        </defs>

<script type="text/javascript">
var viewWidth = 1184;
var viewHeight = 350;
var sectionId = 'dynsection-10';
</script>
<script xlink:href="svgpan.js"/>
<svg id="graph" class="graph">
<g id="viewport">
<title>RoundManager.DiceBehaviour</title>
<polygon fill="white" stroke="transparent" points="-4,4 -4,-346 1180,-346 1180,4 -4,4"/>
<!-- Node1 -->
<g id="node1" class="node">
<title>Node1</title>
<g id="a_node1"><a xlink:title="for waiting the dice to be rolled, get it&#39;s results and display where the player can move to">
<polygon fill="#bfbfbf" stroke="black" points="0,-220.5 0,-241.5 177,-241.5 177,-220.5 0,-220.5"/>
<text text-anchor="middle" x="88.5" y="-227.9" font-family="Helvetica,sans-Serif" font-size="12.00">RoundManager.DiceBehaviour</text>
</a>
</g>
</g>
<!-- Node2 -->
<g id="node2" class="node">
<title>Node2</title>
<g id="a_node2"><a xlink:href="class_turn_controller.html#af16e42b7e61c5a999291327e2e556caa" target="_top" xlink:title=" ">
<polygon fill="white" stroke="black" points="235.5,-320.5 235.5,-341.5 417.5,-341.5 417.5,-320.5 235.5,-320.5"/>
<text text-anchor="middle" x="326.5" y="-327.9" font-family="Helvetica,sans-Serif" font-size="12.00">TurnController.GetCurrentPlayer</text>
</a>
</g>
</g>
<!-- Node1&#45;&gt;Node2 -->
<g id="edge1" class="edge">
<title>Node1&#45;&gt;Node2</title>
<path fill="none" stroke="midnightblue" d="M102.24,-241.77C123.63,-259.24 168.79,-293.58 213,-311 219.72,-313.65 226.81,-315.95 234.03,-317.95"/>
<polygon fill="midnightblue" stroke="midnightblue" points="233.37,-321.39 243.92,-320.49 235.11,-314.61 233.37,-321.39"/>
</g>
<!-- Node3 -->
<g id="node3" class="node">
<title>Node3</title>
<g id="a_node3"><a xlink:href="class_player_master_controller.html#a0447a8a21b5c0f2c94f9d27e0bcd0830" target="_top" xlink:title=" ">
<polygon fill="white" stroke="black" points="213,-280.5 213,-301.5 440,-301.5 440,-280.5 213,-280.5"/>
<text text-anchor="middle" x="326.5" y="-287.9" font-family="Helvetica,sans-Serif" font-size="12.00">PlayerMasterController.GetCurrentRoom</text>
</a>
</g>
</g>
<!-- Node1&#45;&gt;Node3 -->
<g id="edge2" class="edge">
<title>Node1&#45;&gt;Node3</title>
<path fill="none" stroke="midnightblue" d="M118.12,-241.51C142.95,-250.32 179.98,-262.76 213,-271 224.09,-273.77 235.89,-276.3 247.51,-278.57"/>
<polygon fill="midnightblue" stroke="midnightblue" points="247.18,-282.07 257.66,-280.49 248.49,-275.19 247.18,-282.07"/>
</g>
<!-- Node4 -->
<g id="node4" class="node">
<title>Node4</title>
<g id="a_node4"><a xlink:href="class_player_master_controller.html#a6e9a15dbaf465a0477ab5bab27570bde" target="_top" xlink:title="Get the current tile the token is on">
<polygon fill="white" stroke="black" points="238.5,-240.5 238.5,-261.5 414.5,-261.5 414.5,-240.5 238.5,-240.5"/>
<text text-anchor="middle" x="326.5" y="-247.9" font-family="Helvetica,sans-Serif" font-size="12.00">PlayerMasterController.GetTile</text>
</a>
</g>
</g>
<!-- Node1&#45;&gt;Node4 -->
<g id="edge3" class="edge">
<title>Node1&#45;&gt;Node4</title>
<path fill="none" stroke="midnightblue" d="M177.04,-238.42C193.66,-239.83 211.15,-241.31 228.05,-242.74"/>
<polygon fill="midnightblue" stroke="midnightblue" points="228.23,-246.27 238.49,-243.63 228.82,-239.29 228.23,-246.27"/>
</g>
<!-- Node5 -->
<g id="node5" class="node">
<title>Node5</title>
<g id="a_node5"><a xlink:href="class_dice.html#a91e31e11d7028270bebdc80719c64c19" target="_top" xlink:title="Get value of all dice">
<polygon fill="white" stroke="black" points="280,-200.5 280,-221.5 373,-221.5 373,-200.5 280,-200.5"/>
<text text-anchor="middle" x="326.5" y="-207.9" font-family="Helvetica,sans-Serif" font-size="12.00">Dice.GetValue</text>
</a>
</g>
</g>
<!-- Node1&#45;&gt;Node5 -->
<g id="edge4" class="edge">
<title>Node1&#45;&gt;Node5</title>
<path fill="none" stroke="midnightblue" d="M177.04,-223.58C207.98,-220.96 241.92,-218.08 269.53,-215.74"/>
<polygon fill="midnightblue" stroke="midnightblue" points="270.12,-219.21 279.78,-214.87 269.52,-212.23 270.12,-219.21"/>
</g>
<!-- Node8 -->
<g id="node8" class="node">
<title>Node8</title>
<g id="a_node8"><a xlink:href="class_dice.html#ade1dc529eeb31f31e668c595c5748e67" target="_top" xlink:title="Reset the dice">
<polygon fill="white" stroke="black" points="276.5,-160.5 276.5,-181.5 376.5,-181.5 376.5,-160.5 276.5,-160.5"/>
<text text-anchor="middle" x="326.5" y="-167.9" font-family="Helvetica,sans-Serif" font-size="12.00">Dice.ResetDice</text>
</a>
</g>
</g>
<!-- Node1&#45;&gt;Node8 -->
<g id="edge7" class="edge">
<title>Node1&#45;&gt;Node8</title>
<path fill="none" stroke="midnightblue" d="M118.12,-220.49C142.95,-211.68 179.98,-199.24 213,-191 230.22,-186.7 249.13,-182.97 266.47,-179.93"/>
<polygon fill="midnightblue" stroke="midnightblue" points="267.19,-183.35 276.46,-178.22 266.01,-176.45 267.19,-183.35"/>
</g>
<!-- Node14 -->
<g id="node14" class="node">
<title>Node14</title>
<g id="a_node14"><a xlink:href="class_board_manager.html#ad6679de327b4f4b736f06d0d549b72a0" target="_top" xlink:title="Mark and show which tile the player can move to">
<polygon fill="white" stroke="black" points="240.5,-80.5 240.5,-101.5 412.5,-101.5 412.5,-80.5 240.5,-80.5"/>
<text text-anchor="middle" x="326.5" y="-87.9" font-family="Helvetica,sans-Serif" font-size="12.00">BoardManager.ShowMovable</text>
</a>
</g>
</g>
<!-- Node1&#45;&gt;Node14 -->
<g id="edge13" class="edge">
<title>Node1&#45;&gt;Node14</title>
<path fill="none" stroke="midnightblue" d="M104.83,-220.47C127.92,-204.74 173.16,-174.47 213,-151 240.37,-134.88 272.4,-117.98 295.27,-106.24"/>
<polygon fill="midnightblue" stroke="midnightblue" points="297.16,-109.2 304.47,-101.54 293.98,-102.97 297.16,-109.2"/>
</g>
<!-- Node6 -->
<g id="node6" class="node">
<title>Node6</title>
<g id="a_node6"><a xlink:href="class_dice.html#a84cd116dad344495cac8589afc974140" target="_top" xlink:title="Calculate total value of all dice">
<polygon fill="white" stroke="black" points="505.5,-240.5 505.5,-261.5 628.5,-261.5 628.5,-240.5 505.5,-240.5"/>
<text text-anchor="middle" x="567" y="-247.9" font-family="Helvetica,sans-Serif" font-size="12.00">Dice.CalculateValue</text>
</a>
</g>
</g>
<!-- Node5&#45;&gt;Node6 -->
<g id="edge5" class="edge">
<title>Node5&#45;&gt;Node6</title>
<path fill="none" stroke="midnightblue" d="M373.2,-218.67C407.67,-224.45 455.58,-232.48 495.02,-239.1"/>
<polygon fill="midnightblue" stroke="midnightblue" points="494.67,-242.59 505.12,-240.79 495.83,-235.68 494.67,-242.59"/>
</g>
<!-- Node7 -->
<g id="node7" class="node">
<title>Node7</title>
<g id="a_node7"><a xlink:href="class_die.html#ad1f02edcfdd486ab3da75162daab3570" target="_top" xlink:title="Get the value of the die">
<polygon fill="white" stroke="black" points="771,-240.5 771,-261.5 877,-261.5 877,-240.5 771,-240.5"/>
<text text-anchor="middle" x="824" y="-247.9" font-family="Helvetica,sans-Serif" font-size="12.00">Die.GetValueDie</text>
</a>
</g>
</g>
<!-- Node6&#45;&gt;Node7 -->
<g id="edge6" class="edge">
<title>Node6&#45;&gt;Node7</title>
<path fill="none" stroke="midnightblue" d="M628.75,-251C668.6,-251 720.55,-251 760.7,-251"/>
<polygon fill="midnightblue" stroke="midnightblue" points="760.9,-254.5 770.9,-251 760.9,-247.5 760.9,-254.5"/>
</g>
<!-- Node9 -->
<g id="node9" class="node">
<title>Node9</title>
<g id="a_node9"><a xlink:href="class_dice.html#ace4c995eb73b784d1076fde140ce85af" target="_top" xlink:title="Can Dice be reset">
<polygon fill="white" stroke="black" points="518.5,-200.5 518.5,-221.5 615.5,-221.5 615.5,-200.5 518.5,-200.5"/>
<text text-anchor="middle" x="567" y="-207.9" font-family="Helvetica,sans-Serif" font-size="12.00">Dice.CanReset</text>
</a>
</g>
</g>
<!-- Node8&#45;&gt;Node9 -->
<g id="edge8" class="edge">
<title>Node8&#45;&gt;Node9</title>
<path fill="none" stroke="midnightblue" d="M376.63,-179.24C414.84,-185.65 467.96,-194.56 508.22,-201.31"/>
<polygon fill="midnightblue" stroke="midnightblue" points="507.72,-204.77 518.16,-202.98 508.87,-197.87 507.72,-204.77"/>
</g>
<!-- Node11 -->
<g id="node11" class="node">
<title>Node11</title>
<g id="a_node11"><a xlink:href="class_camera_close_up.html#ad31062bdf359a453fc85ebdd71fa1bae" target="_top" xlink:title="Clear camera close up">
<polygon fill="white" stroke="black" points="476,-160.5 476,-181.5 658,-181.5 658,-160.5 476,-160.5"/>
<text text-anchor="middle" x="567" y="-167.9" font-family="Helvetica,sans-Serif" font-size="12.00">CameraCloseUp.ClearCloseUp</text>
</a>
</g>
</g>
<!-- Node8&#45;&gt;Node11 -->
<g id="edge10" class="edge">
<title>Node8&#45;&gt;Node11</title>
<path fill="none" stroke="midnightblue" d="M376.63,-171C402.36,-171 434.84,-171 465.6,-171"/>
<polygon fill="midnightblue" stroke="midnightblue" points="465.96,-174.5 475.96,-171 465.96,-167.5 465.96,-174.5"/>
</g>
<!-- Node13 -->
<g id="node13" class="node">
<title>Node13</title>
<g id="a_node13"><a xlink:href="class_die.html#abc11c3d2bf0c0fba1555093eb5a8469e" target="_top" xlink:title="Reset Die to original position">
<polygon fill="white" stroke="black" points="523,-120.5 523,-141.5 611,-141.5 611,-120.5 523,-120.5"/>
<text text-anchor="middle" x="567" y="-127.9" font-family="Helvetica,sans-Serif" font-size="12.00">Die.ResetDie</text>
</a>
</g>
</g>
<!-- Node8&#45;&gt;Node13 -->
<g id="edge12" class="edge">
<title>Node8&#45;&gt;Node13</title>
<path fill="none" stroke="midnightblue" d="M376.63,-162.76C416.35,-156.1 472.18,-146.74 512.92,-139.9"/>
<polygon fill="midnightblue" stroke="midnightblue" points="513.65,-143.33 522.94,-138.22 512.5,-136.42 513.65,-143.33"/>
</g>
<!-- Node10 -->
<g id="node10" class="node">
<title>Node10</title>
<g id="a_node10"><a xlink:href="class_die.html#a390d46459637fd249926cda472255d84" target="_top" xlink:title="Can the die be reset">
<polygon fill="white" stroke="black" points="769,-200.5 769,-221.5 879,-221.5 879,-200.5 769,-200.5"/>
<text text-anchor="middle" x="824" y="-207.9" font-family="Helvetica,sans-Serif" font-size="12.00">Die.CanResetDie</text>
</a>
</g>
</g>
<!-- Node9&#45;&gt;Node10 -->
<g id="edge9" class="edge">
<title>Node9&#45;&gt;Node10</title>
<path fill="none" stroke="midnightblue" d="M615.66,-211C656.05,-211 714.32,-211 758.81,-211"/>
<polygon fill="midnightblue" stroke="midnightblue" points="758.94,-214.5 768.94,-211 758.94,-207.5 758.94,-214.5"/>
</g>
<!-- Node12 -->
<g id="node12" class="node">
<title>Node12</title>
<g id="a_node12"><a xlink:href="class_camera_close_up.html#ae902d2ccdf969212e0cb84f638f68851" target="_top" xlink:title="Delay then clear close up">
<polygon fill="white" stroke="black" points="718,-160.5 718,-181.5 930,-181.5 930,-160.5 718,-160.5"/>
<text text-anchor="middle" x="824" y="-167.9" font-family="Helvetica,sans-Serif" font-size="12.00">CameraCloseUp.ClearCloseUpDelay</text>
</a>
</g>
</g>
<!-- Node11&#45;&gt;Node12 -->
<g id="edge11" class="edge">
<title>Node11&#45;&gt;Node12</title>
<path fill="none" stroke="midnightblue" d="M658.26,-171C674.16,-171 690.91,-171 707.39,-171"/>
<polygon fill="midnightblue" stroke="midnightblue" points="707.6,-174.5 717.6,-171 707.6,-167.5 707.6,-174.5"/>
</g>
<!-- Node15 -->
<g id="node15" class="node">
<title>Node15</title>
<g id="a_node15"><a xlink:href="class_board_manager.html#a1ea52b667d1dd7ca6b4fa956a19ee26d" target="_top" xlink:title="Perform bfs search for the tiles">
<polygon fill="white" stroke="black" points="510,-80.5 510,-101.5 624,-101.5 624,-80.5 510,-80.5"/>
<text text-anchor="middle" x="567" y="-87.9" font-family="Helvetica,sans-Serif" font-size="12.00">BoardManager.bfs</text>
</a>
</g>
</g>
<!-- Node14&#45;&gt;Node15 -->
<g id="edge14" class="edge">
<title>Node14&#45;&gt;Node15</title>
<path fill="none" stroke="midnightblue" d="M412.59,-91C441.18,-91 472.63,-91 499.57,-91"/>
<polygon fill="midnightblue" stroke="midnightblue" points="499.66,-94.5 509.66,-91 499.66,-87.5 499.66,-94.5"/>
</g>
<!-- Node19 -->
<g id="node19" class="node">
<title>Node19</title>
<g id="a_node19"><a xlink:href="class_board_tile_script.html#a3ff1d3c491fe4d7e421a624ac0b5be6f" target="_top" xlink:title="setting the glow on the tile">
<polygon fill="white" stroke="black" points="494,-40.5 494,-61.5 640,-61.5 640,-40.5 494,-40.5"/>
<text text-anchor="middle" x="567" y="-47.9" font-family="Helvetica,sans-Serif" font-size="12.00">BoardTileScript.GlowTile</text>
</a>
</g>
</g>
<!-- Node14&#45;&gt;Node19 -->
<g id="edge18" class="edge">
<title>Node14&#45;&gt;Node19</title>
<path fill="none" stroke="midnightblue" d="M390.16,-80.49C421.81,-75.18 460.37,-68.72 493.31,-63.19"/>
<polygon fill="midnightblue" stroke="midnightblue" points="494.06,-66.61 503.34,-61.51 492.9,-59.71 494.06,-66.61"/>
</g>
<!-- Node16 -->
<g id="node16" class="node">
<title>Node16</title>
<g id="a_node16"><a xlink:href="class_board_manager.html#ae3af0b08bdfbc0ebcda23950eb935a5d" target="_top" xlink:title="Return array of all neighbours of given tile">
<polygon fill="white" stroke="black" points="726,-120.5 726,-141.5 922,-141.5 922,-120.5 726,-120.5"/>
<text text-anchor="middle" x="824" y="-127.9" font-family="Helvetica,sans-Serif" font-size="12.00">BoardManager.GetTileNeighbours</text>
</a>
</g>
</g>
<!-- Node15&#45;&gt;Node16 -->
<g id="edge15" class="edge">
<title>Node15&#45;&gt;Node16</title>
<path fill="none" stroke="midnightblue" d="M624.13,-99.95C645.94,-103.42 671.13,-107.41 694,-111 710.32,-113.56 727.8,-116.28 744.46,-118.87"/>
<polygon fill="midnightblue" stroke="midnightblue" points="744.29,-122.38 754.71,-120.46 745.36,-115.47 744.29,-122.38"/>
</g>
<!-- Node18 -->
<g id="node18" class="node">
<title>Node18</title>
<g id="a_node18"><a xlink:href="class_board_tile_script.html#aeee5122d5e5b79867f6538ec4d597b6a" target="_top" xlink:title="check if tile is empty">
<polygon fill="white" stroke="black" points="752.5,-80.5 752.5,-101.5 895.5,-101.5 895.5,-80.5 752.5,-80.5"/>
<text text-anchor="middle" x="824" y="-87.9" font-family="Helvetica,sans-Serif" font-size="12.00">BoardTileScript.IsEmpty</text>
</a>
</g>
</g>
<!-- Node15&#45;&gt;Node18 -->
<g id="edge17" class="edge">
<title>Node15&#45;&gt;Node18</title>
<path fill="none" stroke="midnightblue" d="M624.28,-91C658.88,-91 703.78,-91 742.15,-91"/>
<polygon fill="midnightblue" stroke="midnightblue" points="742.27,-94.5 752.27,-91 742.27,-87.5 742.27,-94.5"/>
</g>
<!-- Node17 -->
<g id="node17" class="node">
<title>Node17</title>
<g id="a_node17"><a xlink:href="class_board_manager.html#a6b2b89b5ce622bf45676e6993f8ec216" target="_top" xlink:title="Get a tile from the array using a grid reference.">
<polygon fill="white" stroke="black" points="990,-120.5 990,-141.5 1176,-141.5 1176,-120.5 990,-120.5"/>
<text text-anchor="middle" x="1083" y="-127.9" font-family="Helvetica,sans-Serif" font-size="12.00">BoardManager.GetTileFromGrid</text>
</a>
</g>
</g>
<!-- Node16&#45;&gt;Node17 -->
<g id="edge16" class="edge">
<title>Node16&#45;&gt;Node17</title>
<path fill="none" stroke="midnightblue" d="M922.16,-131C940.96,-131 960.71,-131 979.66,-131"/>
<polygon fill="midnightblue" stroke="midnightblue" points="979.8,-134.5 989.8,-131 979.8,-127.5 979.8,-134.5"/>
</g>
<!-- Node20 -->
<g id="node20" class="node">
<title>Node20</title>
<g id="a_node20"><a xlink:href="class_board_tile_effect_handler_script.html#a93e813816ff40b3602de22f87a694766" target="_top" xlink:title="turn off the effect for when player can move to that tile">
<polygon fill="white" stroke="black" points="694,-40.5 694,-61.5 954,-61.5 954,-40.5 694,-40.5"/>
<text text-anchor="middle" x="824" y="-47.9" font-family="Helvetica,sans-Serif" font-size="12.00">BoardTileEffectHandlerScript.ToggleEffect_Off</text>
</a>
</g>
</g>
<!-- Node19&#45;&gt;Node20 -->
<g id="edge19" class="edge">
<title>Node19&#45;&gt;Node20</title>
<path fill="none" stroke="midnightblue" d="M640.05,-51C653.69,-51 668.39,-51 683.3,-51"/>
<polygon fill="midnightblue" stroke="midnightblue" points="683.66,-54.5 693.66,-51 683.66,-47.5 683.66,-54.5"/>
</g>
<!-- Node21 -->
<g id="node21" class="node">
<title>Node21</title>
<g id="a_node21"><a xlink:href="class_board_tile_effect_handler_script.html#a7bf5b2a819cb44463464d5c951bf3143" target="_top" xlink:title="turn on the effect for when player can move to that tile">
<polygon fill="white" stroke="black" points="694,-0.5 694,-21.5 954,-21.5 954,-0.5 694,-0.5"/>
<text text-anchor="middle" x="824" y="-7.9" font-family="Helvetica,sans-Serif" font-size="12.00">BoardTileEffectHandlerScript.ToggleEffect_On</text>
</a>
</g>
</g>
<!-- Node19&#45;&gt;Node21 -->
<g id="edge20" class="edge">
<title>Node19&#45;&gt;Node21</title>
<path fill="none" stroke="midnightblue" d="M634.04,-40.47C653.36,-37.4 674.53,-34.06 694,-31 710.32,-28.44 727.8,-25.72 744.46,-23.13"/>
<polygon fill="midnightblue" stroke="midnightblue" points="745.36,-26.53 754.71,-21.54 744.29,-19.62 745.36,-26.53"/>
</g>
</g>
</svg>
        <g id="navigator" transform="translate(0 0)" fill="#404254">
                <rect fill="#f2f5e9" fill-opacity="0.5" stroke="#606060" stroke-width=".5" x="0" y="0" width="60" height="60"/>
                <use id="zoomplus" xlink:href="#zoomPlus" x="17" y="9" onmousedown="handleZoom(evt,'in')"/>
                <use id="zoomminus" xlink:href="#zoomMin" x="42" y="9" onmousedown="handleZoom(evt,'out')"/>
                <use id="reset" xlink:href="#resetDef" x="30" y="36" onmousedown="handleReset()"/>
                <g id="arrowUp" xlink:href="#dirArrow" transform="translate(30 24)" onmousedown="handlePan(0,-1)">
                  <use xlink:href="#rim" fill="#404040">
                        <set attributeName="fill" to="#808080" begin="arrowUp.mouseover" end="arrowUp.mouseout"/>
                  </use>
                  <path fill="none" stroke="white" stroke-width="1.5" d="M0,-3.0v7 M-2.5,-0.5L0,-3.0L2.5,-0.5"/>
                </g>
                <g id="arrowRight" xlink:href="#dirArrow" transform="rotate(90) translate(36 -43)" onmousedown="handlePan(1,0)">
                  <use xlink:href="#rim" fill="#404040">
                        <set attributeName="fill" to="#808080" begin="arrowRight.mouseover" end="arrowRight.mouseout"/>
                  </use>
                  <path fill="none" stroke="white" stroke-width="1.5" d="M0,-3.0v7 M-2.5,-0.5L0,-3.0L2.5,-0.5"/>
                </g>
                <g id="arrowDown" xlink:href="#dirArrow" transform="rotate(180) translate(-30 -48)" onmousedown="handlePan(0,1)">
                  <use xlink:href="#rim" fill="#404040">
                        <set attributeName="fill" to="#808080" begin="arrowDown.mouseover" end="arrowDown.mouseout"/>
                  </use>
                  <path fill="none" stroke="white" stroke-width="1.5" d="M0,-3.0v7 M-2.5,-0.5L0,-3.0L2.5,-0.5"/>
                </g>
                <g id="arrowLeft" xlink:href="#dirArrow" transform="rotate(270) translate(-36 17)" onmousedown="handlePan(-1,0)">
                  <use xlink:href="#rim" fill="#404040">
                        <set attributeName="fill" to="#808080" begin="arrowLeft.mouseover" end="arrowLeft.mouseout"/>
                  </use>
                  <path fill="none" stroke="white" stroke-width="1.5" d="M0,-3.0v7 M-2.5,-0.5L0,-3.0L2.5,-0.5"/>
                </g>
        </g>
        <svg viewBox="0 0 15 15" width="100%" height="30px" preserveAspectRatio="xMaxYMin meet">
         <g id="arrow_out" transform="scale(0.3 0.3)">
          <a xlink:href="class_round_manager_acf674cdec523de9a0f91ab8a7bfcc2ef_cgraph_org.svg" target="_base">
           <rect id="button" ry="5" rx="5" y="6" x="6" height="38" width="38"
                fill="#f2f5e9" fill-opacity="0.5" stroke="#606060" stroke-width="1.0"/>
           <path id="arrow"
             d="M 11.500037,31.436501 C 11.940474,20.09759 22.043105,11.32322 32.158766,21.979434 L 37.068811,17.246167 C 37.068811,17.246167 37.088388,32 37.088388,32 L 22.160133,31.978069 C 22.160133,31.978069 26.997745,27.140456 26.997745,27.140456 C 18.528582,18.264221 13.291696,25.230495 11.500037,31.436501 z"
             style="fill:#404040;"/>
          </a>
         </g>
        </svg>
</svg>
