<?xml version="1.0" encoding="UTF-8" standalone="no"?>
<!DOCTYPE svg PUBLIC "-//W3C//DTD SVG 1.1//EN"
 "http://www.w3.org/Graphics/SVG/1.1/DTD/svg11.dtd">
<!-- Generated by graphviz version 2.47.1 (20210417.1919)
 -->
<!-- Title: ExitGameScript Pages: 1 -->
<svg width="118pt" height="172pt"
 viewBox="0.00 0.00 118.00 172.00" xmlns="http://www.w3.org/2000/svg" xmlns:xlink="http://www.w3.org/1999/xlink">
<g id="graph0" class="graph" transform="scale(1 1) rotate(0) translate(4 168)">
<title>ExitGameScript</title>
<polygon fill="white" stroke="transparent" points="-4,4 -4,-168 114,-168 114,4 -4,4"/>
<!-- Node1 -->
<g id="node1" class="node">
<title>Node1</title>
<g id="a_node1"><a xlink:title=" ">
<polygon fill="#bfbfbf" stroke="black" points="0,-0.5 0,-63.5 110,-63.5 110,-0.5 0,-0.5"/>
<text text-anchor="middle" x="55" y="-49.9" font-family="Helvetica,sans-Serif" font-size="12.00">ExitGameScript</text>
<polyline fill="none" stroke="black" points="0,-42.5 110,-42.5 "/>
<text text-anchor="middle" x="55" y="-28.9" font-family="Helvetica,sans-Serif" font-size="12.00"> </text>
<polyline fill="none" stroke="black" points="0,-21.5 110,-21.5 "/>
<text text-anchor="start" x="8" y="-7.9" font-family="Helvetica,sans-Serif" font-size="12.00">+ ReturnToMenu()</text>
</a>
</g>
</g>
<!-- Node2 -->
<g id="node2" class="node">
<title>Node2</title>
<g id="a_node2"><a xlink:title=" ">
<polygon fill="white" stroke="#bfbfbf" points="6,-100.5 6,-163.5 104,-163.5 104,-100.5 6,-100.5"/>
<text text-anchor="middle" x="55" y="-149.9" font-family="Helvetica,sans-Serif" font-size="12.00">MonoBehaviour</text>
<polyline fill="none" stroke="#bfbfbf" points="6,-142.5 104,-142.5 "/>
<text text-anchor="middle" x="55" y="-128.9" font-family="Helvetica,sans-Serif" font-size="12.00"> </text>
<polyline fill="none" stroke="#bfbfbf" points="6,-121.5 104,-121.5 "/>
<text text-anchor="middle" x="55" y="-107.9" font-family="Helvetica,sans-Serif" font-size="12.00"> </text>
</a>
</g>
</g>
<!-- Node2&#45;&gt;Node1 -->
<g id="edge1" class="edge">
<title>Node2&#45;&gt;Node1</title>
<path fill="none" stroke="midnightblue" d="M55,-90.1C55,-81.24 55,-72.01 55,-63.63"/>
<polygon fill="none" stroke="midnightblue" points="51.5,-90.26 55,-100.26 58.5,-90.26 51.5,-90.26"/>
</g>
</g>
</svg>
