<?xml version="1.0" encoding="UTF-8" standalone="no"?>
<!DOCTYPE svg PUBLIC "-//W3C//DTD SVG 1.1//EN"
 "http://www.w3.org/Graphics/SVG/1.1/DTD/svg11.dtd">
<!-- Generated by graphviz version 2.47.1 (20210417.1919)
 -->
<!-- Title: RoomScript.Start Pages: 1 -->
<svg width="303pt" height="70pt"
 viewBox="0.00 0.00 303.00 70.00" xmlns="http://www.w3.org/2000/svg" xmlns:xlink="http://www.w3.org/1999/xlink">
<g id="graph0" class="graph" transform="scale(1 1) rotate(0) translate(4 66)">
<title>RoomScript.Start</title>
<polygon fill="white" stroke="transparent" points="-4,4 -4,-66 299,-66 299,4 -4,4"/>
<!-- Node1 -->
<g id="node1" class="node">
<title>Node1</title>
<g id="a_node1"><a xlink:title="Set required variables">
<polygon fill="#bfbfbf" stroke="black" points="0,-20.5 0,-41.5 107,-41.5 107,-20.5 0,-20.5"/>
<text text-anchor="middle" x="53.5" y="-27.9" font-family="Helvetica,sans-Serif" font-size="12.00">RoomScript.Start</text>
</a>
</g>
</g>
<!-- Node2 -->
<g id="node2" class="node">
<title>Node2</title>
<g id="a_node2"><a xlink:href="class_room_script.html#afdf6318e292ff6c9da3002950c5dd498" target="_top" xlink:title="Gets all entry tiles">
<polygon fill="white" stroke="black" points="143,-40.5 143,-61.5 295,-61.5 295,-40.5 143,-40.5"/>
<text text-anchor="middle" x="219" y="-47.9" font-family="Helvetica,sans-Serif" font-size="12.00">RoomScript.GetEntryTiles</text>
</a>
</g>
</g>
<!-- Node1&#45;&gt;Node2 -->
<g id="edge1" class="edge">
<title>Node1&#45;&gt;Node2</title>
<path fill="none" stroke="midnightblue" d="M107.13,-37.44C115.32,-38.44 123.95,-39.5 132.64,-40.56"/>
<polygon fill="midnightblue" stroke="midnightblue" points="132.49,-44.07 142.84,-41.81 133.34,-37.12 132.49,-44.07"/>
</g>
<!-- Node3 -->
<g id="node3" class="node">
<title>Node3</title>
<g id="a_node3"><a xlink:href="class_room_script.html#aeef60b1341cc0a72587a8d5a1e5b7cfa" target="_top" xlink:title="Set shortcut tile of script">
<polygon fill="white" stroke="black" points="147.5,-0.5 147.5,-21.5 290.5,-21.5 290.5,-0.5 147.5,-0.5"/>
<text text-anchor="middle" x="219" y="-7.9" font-family="Helvetica,sans-Serif" font-size="12.00">RoomScript.GetShortcut</text>
</a>
</g>
</g>
<!-- Node1&#45;&gt;Node3 -->
<g id="edge2" class="edge">
<title>Node1&#45;&gt;Node3</title>
<path fill="none" stroke="midnightblue" d="M107.13,-24.56C116.72,-23.39 126.93,-22.14 137.12,-20.89"/>
<polygon fill="midnightblue" stroke="midnightblue" points="137.78,-24.34 147.28,-19.65 136.93,-17.39 137.78,-24.34"/>
</g>
</g>
</svg>
