<?xml version="1.0" encoding="UTF-8" standalone="no"?>
<!DOCTYPE svg PUBLIC "-//W3C//DTD SVG 1.1//EN"
 "http://www.w3.org/Graphics/SVG/1.1/DTD/svg11.dtd">
<!-- Generated by graphviz version 2.47.1 (20210417.1919)
 -->
<!-- Title: Card Pages: 1 -->
<svg width="377pt" height="350pt"
 viewBox="0.00 0.00 377.00 350.00" xmlns="http://www.w3.org/2000/svg" xmlns:xlink="http://www.w3.org/1999/xlink">
<g id="graph0" class="graph" transform="scale(1 1) rotate(0) translate(4 346)">
<title>Card</title>
<polygon fill="white" stroke="transparent" points="-4,4 -4,-346 373,-346 373,4 -4,4"/>
<!-- Node1 -->
<g id="node1" class="node">
<title>Node1</title>
<g id="a_node1"><a xlink:title=" ">
<polygon fill="#bfbfbf" stroke="black" points="129,-165.5 129,-241.5 240,-241.5 240,-165.5 129,-165.5"/>
<text text-anchor="middle" x="184.5" y="-227.9" font-family="Helvetica,sans-Serif" font-size="12.00">Card</text>
<polyline fill="none" stroke="black" points="129,-220.5 240,-220.5 "/>
<text text-anchor="start" x="137" y="-206.9" font-family="Helvetica,sans-Serif" font-size="12.00">+ names</text>
<polyline fill="none" stroke="black" points="129,-199.5 240,-199.5 "/>
<text text-anchor="start" x="137" y="-185.9" font-family="Helvetica,sans-Serif" font-size="12.00">+ GetCardType()</text>
<text text-anchor="start" x="137" y="-172.9" font-family="Helvetica,sans-Serif" font-size="12.00">+ GetCardImage()</text>
</a>
</g>
</g>
<!-- Node3 -->
<g id="node3" class="node">
<title>Node3</title>
<g id="a_node3"><a xlink:href="class_character_card.html" target="_top" xlink:title=" ">
<polygon fill="white" stroke="black" points="0,-0.5 0,-128.5 111,-128.5 111,-0.5 0,-0.5"/>
<text text-anchor="middle" x="55.5" y="-114.9" font-family="Helvetica,sans-Serif" font-size="12.00">CharacterCard</text>
<polyline fill="none" stroke="black" points="0,-107.5 111,-107.5 "/>
<text text-anchor="start" x="8" y="-93.9" font-family="Helvetica,sans-Serif" font-size="12.00">+ characterEnum</text>
<text text-anchor="start" x="8" y="-80.9" font-family="Helvetica,sans-Serif" font-size="12.00">&#45; cardImage</text>
<polyline fill="none" stroke="black" points="0,-73.5 111,-73.5 "/>
<text text-anchor="start" x="8" y="-59.9" font-family="Helvetica,sans-Serif" font-size="12.00">+ Equals()</text>
<text text-anchor="start" x="8" y="-46.9" font-family="Helvetica,sans-Serif" font-size="12.00">+ GetCardType()</text>
<text text-anchor="start" x="8" y="-33.9" font-family="Helvetica,sans-Serif" font-size="12.00">+ GetHashCode()</text>
<text text-anchor="start" x="8" y="-20.9" font-family="Helvetica,sans-Serif" font-size="12.00">+ GetCardImage()</text>
<text text-anchor="start" x="8" y="-7.9" font-family="Helvetica,sans-Serif" font-size="12.00">&#45; Awake()</text>
</a>
</g>
</g>
<!-- Node1&#45;&gt;Node3 -->
<g id="edge2" class="edge">
<title>Node1&#45;&gt;Node3</title>
<path fill="none" stroke="midnightblue" d="M142.46,-157.85C132.45,-147.22 121.6,-135.7 111.09,-124.53"/>
<polygon fill="none" stroke="midnightblue" points="140.19,-160.54 149.59,-165.43 145.28,-155.75 140.19,-160.54"/>
</g>
<!-- Node4 -->
<g id="node4" class="node">
<title>Node4</title>
<g id="a_node4"><a xlink:href="class_room_card.html" target="_top" xlink:title=" ">
<polygon fill="white" stroke="black" points="129,-0.5 129,-128.5 240,-128.5 240,-0.5 129,-0.5"/>
<text text-anchor="middle" x="184.5" y="-114.9" font-family="Helvetica,sans-Serif" font-size="12.00">RoomCard</text>
<polyline fill="none" stroke="black" points="129,-107.5 240,-107.5 "/>
<text text-anchor="start" x="137" y="-93.9" font-family="Helvetica,sans-Serif" font-size="12.00">+ room</text>
<text text-anchor="start" x="137" y="-80.9" font-family="Helvetica,sans-Serif" font-size="12.00">&#45; cardImage</text>
<polyline fill="none" stroke="black" points="129,-73.5 240,-73.5 "/>
<text text-anchor="start" x="137" y="-59.9" font-family="Helvetica,sans-Serif" font-size="12.00">+ Equals()</text>
<text text-anchor="start" x="137" y="-46.9" font-family="Helvetica,sans-Serif" font-size="12.00">+ GetCardType()</text>
<text text-anchor="start" x="137" y="-33.9" font-family="Helvetica,sans-Serif" font-size="12.00">+ GetHashCode()</text>
<text text-anchor="start" x="137" y="-20.9" font-family="Helvetica,sans-Serif" font-size="12.00">+ GetCardImage()</text>
<text text-anchor="start" x="137" y="-7.9" font-family="Helvetica,sans-Serif" font-size="12.00">&#45; Awake()</text>
</a>
</g>
</g>
<!-- Node1&#45;&gt;Node4 -->
<g id="edge3" class="edge">
<title>Node1&#45;&gt;Node4</title>
<path fill="none" stroke="midnightblue" d="M184.5,-155.27C184.5,-146.72 184.5,-137.67 184.5,-128.74"/>
<polygon fill="none" stroke="midnightblue" points="181,-155.43 184.5,-165.43 188,-155.43 181,-155.43"/>
</g>
<!-- Node5 -->
<g id="node5" class="node">
<title>Node5</title>
<g id="a_node5"><a xlink:href="class_weapon_card.html" target="_top" xlink:title=" ">
<polygon fill="white" stroke="black" points="258,-0.5 258,-128.5 369,-128.5 369,-0.5 258,-0.5"/>
<text text-anchor="middle" x="313.5" y="-114.9" font-family="Helvetica,sans-Serif" font-size="12.00">WeaponCard</text>
<polyline fill="none" stroke="black" points="258,-107.5 369,-107.5 "/>
<text text-anchor="start" x="266" y="-93.9" font-family="Helvetica,sans-Serif" font-size="12.00">+ weaponEnum</text>
<text text-anchor="start" x="266" y="-80.9" font-family="Helvetica,sans-Serif" font-size="12.00">&#45; cardImage</text>
<polyline fill="none" stroke="black" points="258,-73.5 369,-73.5 "/>
<text text-anchor="start" x="266" y="-59.9" font-family="Helvetica,sans-Serif" font-size="12.00">+ Equals()</text>
<text text-anchor="start" x="266" y="-46.9" font-family="Helvetica,sans-Serif" font-size="12.00">+ GetCardType()</text>
<text text-anchor="start" x="266" y="-33.9" font-family="Helvetica,sans-Serif" font-size="12.00">+ GetHashCode()</text>
<text text-anchor="start" x="266" y="-20.9" font-family="Helvetica,sans-Serif" font-size="12.00">+ GetCardImage()</text>
<text text-anchor="start" x="266" y="-7.9" font-family="Helvetica,sans-Serif" font-size="12.00">&#45; Awake()</text>
</a>
</g>
</g>
<!-- Node1&#45;&gt;Node5 -->
<g id="edge4" class="edge">
<title>Node1&#45;&gt;Node5</title>
<path fill="none" stroke="midnightblue" d="M226.54,-157.85C236.55,-147.22 247.4,-135.7 257.91,-124.53"/>
<polygon fill="none" stroke="midnightblue" points="223.72,-155.75 219.41,-165.43 228.81,-160.54 223.72,-155.75"/>
</g>
<!-- Node2 -->
<g id="node2" class="node">
<title>Node2</title>
<g id="a_node2"><a xlink:title=" ">
<polygon fill="white" stroke="#bfbfbf" points="135.5,-278.5 135.5,-341.5 233.5,-341.5 233.5,-278.5 135.5,-278.5"/>
<text text-anchor="middle" x="184.5" y="-327.9" font-family="Helvetica,sans-Serif" font-size="12.00">MonoBehaviour</text>
<polyline fill="none" stroke="#bfbfbf" points="135.5,-320.5 233.5,-320.5 "/>
<text text-anchor="middle" x="184.5" y="-306.9" font-family="Helvetica,sans-Serif" font-size="12.00"> </text>
<polyline fill="none" stroke="#bfbfbf" points="135.5,-299.5 233.5,-299.5 "/>
<text text-anchor="middle" x="184.5" y="-285.9" font-family="Helvetica,sans-Serif" font-size="12.00"> </text>
</a>
</g>
</g>
<!-- Node2&#45;&gt;Node1 -->
<g id="edge1" class="edge">
<title>Node2&#45;&gt;Node1</title>
<path fill="none" stroke="midnightblue" d="M184.5,-268.39C184.5,-259.54 184.5,-250.23 184.5,-241.53"/>
<polygon fill="none" stroke="midnightblue" points="181,-268.49 184.5,-278.49 188,-268.49 181,-268.49"/>
</g>
</g>
</svg>
