<?xml version="1.0" encoding="UTF-8" standalone="no"?>
<!DOCTYPE svg PUBLIC "-//W3C//DTD SVG 1.1//EN"
 "http://www.w3.org/Graphics/SVG/1.1/DTD/svg11.dtd">
<!-- Generated by graphviz version 2.47.1 (20210417.1919)
 -->
<!-- Title: NotebookScript.CreateCharacterButtons Pages: 1 -->
<svg width="689pt" height="30pt"
 viewBox="0.00 0.00 689.00 30.00" xmlns="http://www.w3.org/2000/svg" xmlns:xlink="http://www.w3.org/1999/xlink">
<g id="graph0" class="graph" transform="scale(1 1) rotate(0) translate(4 26)">
<title>NotebookScript.CreateCharacterButtons</title>
<polygon fill="white" stroke="transparent" points="-4,4 -4,-26 685,-26 685,4 -4,4"/>
<!-- Node1 -->
<g id="node1" class="node">
<title>Node1</title>
<g id="a_node1"><a xlink:title="Create the character buttons">
<polygon fill="#bfbfbf" stroke="black" points="0,-0.5 0,-21.5 228,-21.5 228,-0.5 0,-0.5"/>
<text text-anchor="middle" x="114" y="-7.9" font-family="Helvetica,sans-Serif" font-size="12.00">NotebookScript.CreateCharacterButtons</text>
</a>
</g>
</g>
<!-- Node2 -->
<g id="node2" class="node">
<title>Node2</title>
<g id="a_node2"><a xlink:href="class_notebook_button.html#a1767bf6c449e0517fa11a1ced89f6d0d" target="_top" xlink:title="Set the button type">
<polygon fill="white" stroke="black" points="264,-0.5 264,-21.5 444,-21.5 444,-0.5 264,-0.5"/>
<text text-anchor="middle" x="354" y="-7.9" font-family="Helvetica,sans-Serif" font-size="12.00">NotebookButton.SetButtonType</text>
</a>
</g>
</g>
<!-- Node1&#45;&gt;Node2 -->
<g id="edge1" class="edge">
<title>Node1&#45;&gt;Node2</title>
<path fill="none" stroke="midnightblue" d="M228.08,-11C236.6,-11 245.17,-11 253.6,-11"/>
<polygon fill="midnightblue" stroke="midnightblue" points="253.81,-14.5 263.81,-11 253.81,-7.5 253.81,-14.5"/>
</g>
<!-- Node3 -->
<g id="node3" class="node">
<title>Node3</title>
<g id="a_node3"><a xlink:href="class_enum_to_string.html#a078a1fb16a0030544fac1b96a90b6b83" target="_top" xlink:title="Get a string value from a valid enum">
<polygon fill="white" stroke="black" points="480,-0.5 480,-21.5 681,-21.5 681,-0.5 480,-0.5"/>
<text text-anchor="middle" x="580.5" y="-7.9" font-family="Helvetica,sans-Serif" font-size="12.00">EnumToString.GetStringFromEnum</text>
</a>
</g>
</g>
<!-- Node2&#45;&gt;Node3 -->
<g id="edge2" class="edge">
<title>Node2&#45;&gt;Node3</title>
<path fill="none" stroke="midnightblue" d="M444.05,-11C452.5,-11 461.13,-11 469.74,-11"/>
<polygon fill="midnightblue" stroke="midnightblue" points="469.83,-14.5 479.83,-11 469.83,-7.5 469.83,-14.5"/>
</g>
</g>
</svg>
