<?xml version="1.0" encoding="UTF-8" standalone="no"?>
<!DOCTYPE svg PUBLIC "-//W3C//DTD SVG 1.1//EN"
 "http://www.w3.org/Graphics/SVG/1.1/DTD/svg11.dtd">
<!-- Generated by graphviz version 2.47.1 (20210417.1919)
 -->
<!-- Title: GameControls Pages: 1 -->
<!--zoomable 497 -->
<svg id="main" version="1.1" xmlns="http://www.w3.org/2000/svg" xmlns:xlink="http://www.w3.org/1999/xlink" xml:space="preserve" onload="init(evt)">
<style type="text/css"><![CDATA[
.edge:hover path { stroke: red; }
.edge:hover polygon { stroke: red; fill: red; }
]]></style>
<script type="text/javascript"><![CDATA[
var edges = document.getElementsByTagName('g');
if (edges && edges.length) {
  for (var i=0;i<edges.length;i++) {
    if (edges[i].id.substr(0,4)=='edge') {
      edges[i].setAttribute('class','edge');
    }
  }
}
]]></script>
        <defs>
                <circle id="rim" cx="0" cy="0" r="7"/>
                <circle id="rim2" cx="0" cy="0" r="3.5"/>
                <g id="zoomPlus">
                        <use xlink:href="#rim" fill="#404040">
                                <set attributeName="fill" to="#808080" begin="zoomplus.mouseover" end="zoomplus.mouseout"/>
                        </use>
                        <path d="M-4,0h8M0,-4v8" fill="none" stroke="white" stroke-width="1.5" pointer-events="none"/>
                </g>
                <g id="zoomMin">
                        <use xlink:href="#rim" fill="#404040">
                                <set attributeName="fill" to="#808080" begin="zoomminus.mouseover" end="zoomminus.mouseout"/>
                        </use>
                        <path d="M-4,0h8" fill="none" stroke="white" stroke-width="1.5" pointer-events="none"/>
                </g>
                <g id="dirArrow">
                        <path fill="none" stroke="white" stroke-width="1.5" d="M0,-3.0v7 M-2.5,-0.5L0,-3.0L2.5,-0.5"/>
                </g>
               <g id="resetDef">
                       <use xlink:href="#rim2" fill="#404040">
                               <set attributeName="fill" to="#808080" begin="reset.mouseover" end="reset.mouseout"/>
                       </use>
               </g>
        </defs>

<script type="text/javascript">
var viewWidth = 502;
var viewHeight = 497;
var sectionId = 'dynsection-1';
</script>
<script xlink:href="svgpan.js"/>
<svg id="graph" class="graph">
<g id="viewport">
<title>GameControls</title>
<polygon fill="white" stroke="transparent" points="-4,4 -4,-493 498,-493 498,4 -4,4"/>
<!-- Node1 -->
<g id="node1" class="node">
<title>Node1</title>
<g id="a_node1"><a xlink:title=" ">
<polygon fill="#bfbfbf" stroke="black" points="90.5,-0.5 90.5,-297.5 281.5,-297.5 281.5,-0.5 90.5,-0.5"/>
<text text-anchor="middle" x="186" y="-283.9" font-family="Helvetica,sans-Serif" font-size="12.00">GameControls</text>
<polyline fill="none" stroke="black" points="90.5,-276.5 281.5,-276.5 "/>
<text text-anchor="start" x="98.5" y="-262.9" font-family="Helvetica,sans-Serif" font-size="12.00">+ asset</text>
<text text-anchor="start" x="98.5" y="-249.9" font-family="Helvetica,sans-Serif" font-size="12.00">+ bindingMask</text>
<text text-anchor="start" x="98.5" y="-236.9" font-family="Helvetica,sans-Serif" font-size="12.00">+ devices</text>
<text text-anchor="start" x="98.5" y="-223.9" font-family="Helvetica,sans-Serif" font-size="12.00">+ controlSchemes</text>
<text text-anchor="start" x="98.5" y="-210.9" font-family="Helvetica,sans-Serif" font-size="12.00">+ PlayerMap</text>
<text text-anchor="start" x="98.5" y="-197.9" font-family="Helvetica,sans-Serif" font-size="12.00">&#45; m_PlayerMap</text>
<text text-anchor="start" x="98.5" y="-184.9" font-family="Helvetica,sans-Serif" font-size="12.00">&#45; m_PlayerMap_MouseMoving</text>
<text text-anchor="start" x="98.5" y="-171.9" font-family="Helvetica,sans-Serif" font-size="12.00">&#45; m_PlayerMap_ControllerMoving</text>
<text text-anchor="start" x="98.5" y="-158.9" font-family="Helvetica,sans-Serif" font-size="12.00">&#45; m_PlayerMap_MoveToken</text>
<text text-anchor="start" x="98.5" y="-145.9" font-family="Helvetica,sans-Serif" font-size="12.00">&#45; m_PlayerMap_TestButton1</text>
<text text-anchor="start" x="98.5" y="-132.9" font-family="Helvetica,sans-Serif" font-size="12.00">&#45; m_PlayerMap_TestButton2</text>
<text text-anchor="start" x="98.5" y="-119.9" font-family="Helvetica,sans-Serif" font-size="12.00">&#45; m_PlayerMap_TestButton3</text>
<text text-anchor="start" x="98.5" y="-106.9" font-family="Helvetica,sans-Serif" font-size="12.00">&#45; m_PlayerMap_TestButton4</text>
<polyline fill="none" stroke="black" points="90.5,-99.5 281.5,-99.5 "/>
<text text-anchor="start" x="98.5" y="-85.9" font-family="Helvetica,sans-Serif" font-size="12.00">+ GameControls()</text>
<text text-anchor="start" x="98.5" y="-72.9" font-family="Helvetica,sans-Serif" font-size="12.00">+ Dispose()</text>
<text text-anchor="start" x="98.5" y="-59.9" font-family="Helvetica,sans-Serif" font-size="12.00">+ Contains()</text>
<text text-anchor="start" x="98.5" y="-46.9" font-family="Helvetica,sans-Serif" font-size="12.00">+ GetEnumerator()</text>
<text text-anchor="start" x="98.5" y="-33.9" font-family="Helvetica,sans-Serif" font-size="12.00">+ Enable()</text>
<text text-anchor="start" x="98.5" y="-20.9" font-family="Helvetica,sans-Serif" font-size="12.00">+ Disable()</text>
<text text-anchor="start" x="98.5" y="-7.9" font-family="Helvetica,sans-Serif" font-size="12.00">&#45; GetEnumerator()</text>
</a>
</g>
</g>
<!-- Node2 -->
<g id="node2" class="node">
<title>Node2</title>
<g id="a_node2"><a xlink:title=" ">
<polygon fill="white" stroke="#bfbfbf" points="0,-386.5 0,-449.5 128,-449.5 128,-386.5 0,-386.5"/>
<text text-anchor="middle" x="64" y="-435.9" font-family="Helvetica,sans-Serif" font-size="12.00">IInputActionCollection</text>
<polyline fill="none" stroke="#bfbfbf" points="0,-428.5 128,-428.5 "/>
<text text-anchor="middle" x="64" y="-414.9" font-family="Helvetica,sans-Serif" font-size="12.00"> </text>
<polyline fill="none" stroke="#bfbfbf" points="0,-407.5 128,-407.5 "/>
<text text-anchor="middle" x="64" y="-393.9" font-family="Helvetica,sans-Serif" font-size="12.00"> </text>
</a>
</g>
</g>
<!-- Node2&#45;&gt;Node1 -->
<g id="edge1" class="edge">
<title>Node2&#45;&gt;Node1</title>
<path fill="none" stroke="midnightblue" d="M82.19,-377.18C92.12,-355.45 105.1,-327.04 118.51,-297.71"/>
<polygon fill="none" stroke="midnightblue" points="78.97,-375.82 77.99,-386.37 85.33,-378.73 78.97,-375.82"/>
</g>
<!-- Node3 -->
<g id="node3" class="node">
<title>Node3</title>
<g id="a_node3"><a xlink:title=" ">
<polygon fill="white" stroke="#bfbfbf" points="146.5,-386.5 146.5,-449.5 225.5,-449.5 225.5,-386.5 146.5,-386.5"/>
<text text-anchor="middle" x="186" y="-435.9" font-family="Helvetica,sans-Serif" font-size="12.00">IDisposable</text>
<polyline fill="none" stroke="#bfbfbf" points="146.5,-428.5 225.5,-428.5 "/>
<text text-anchor="middle" x="186" y="-414.9" font-family="Helvetica,sans-Serif" font-size="12.00"> </text>
<polyline fill="none" stroke="#bfbfbf" points="146.5,-407.5 225.5,-407.5 "/>
<text text-anchor="middle" x="186" y="-393.9" font-family="Helvetica,sans-Serif" font-size="12.00"> </text>
</a>
</g>
</g>
<!-- Node3&#45;&gt;Node1 -->
<g id="edge2" class="edge">
<title>Node3&#45;&gt;Node1</title>
<path fill="none" stroke="midnightblue" d="M186,-376.3C186,-354.69 186,-326.65 186,-297.71"/>
<polygon fill="none" stroke="midnightblue" points="182.5,-376.37 186,-386.37 189.5,-376.37 182.5,-376.37"/>
</g>
<!-- Node4 -->
<g id="node4" class="node">
<title>Node4</title>
<g id="a_node4"><a xlink:href="interface_game_controls_1_1_i_player_map_actions.html" target="_top" xlink:title=" ">
<polygon fill="white" stroke="black" points="243.5,-347.5 243.5,-488.5 436.5,-488.5 436.5,-347.5 243.5,-347.5"/>
<text text-anchor="middle" x="340" y="-474.9" font-family="Helvetica,sans-Serif" font-size="12.00">GameControls.IPlayerMapActions</text>
<polyline fill="none" stroke="black" points="243.5,-467.5 436.5,-467.5 "/>
<text text-anchor="middle" x="340" y="-453.9" font-family="Helvetica,sans-Serif" font-size="12.00"> </text>
<polyline fill="none" stroke="black" points="243.5,-446.5 436.5,-446.5 "/>
<text text-anchor="start" x="251.5" y="-432.9" font-family="Helvetica,sans-Serif" font-size="12.00">+ OnMouseMoving()</text>
<text text-anchor="start" x="251.5" y="-419.9" font-family="Helvetica,sans-Serif" font-size="12.00">+ OnControllerMoving()</text>
<text text-anchor="start" x="251.5" y="-406.9" font-family="Helvetica,sans-Serif" font-size="12.00">+ OnMoveToken()</text>
<text text-anchor="start" x="251.5" y="-393.9" font-family="Helvetica,sans-Serif" font-size="12.00">+ OnTestButton1()</text>
<text text-anchor="start" x="251.5" y="-380.9" font-family="Helvetica,sans-Serif" font-size="12.00">+ OnTestButton2()</text>
<text text-anchor="start" x="251.5" y="-367.9" font-family="Helvetica,sans-Serif" font-size="12.00">+ OnTestButton3()</text>
<text text-anchor="start" x="251.5" y="-354.9" font-family="Helvetica,sans-Serif" font-size="12.00">+ OnTestButton4()</text>
</a>
</g>
</g>
<!-- Node4&#45;&gt;Node1 -->
<g id="edge3" class="edge">
<title>Node4&#45;&gt;Node1</title>
<path fill="none" stroke="#404040" d="M299.74,-347.2C292.64,-334.89 284.99,-321.63 277.14,-308.02"/>
<polygon fill="none" stroke="#404040" points="277.1,-307.95 270.64,-304.75 271.11,-297.55 277.57,-300.75 277.1,-307.95"/>
<text text-anchor="middle" x="389.5" y="-319.4" font-family="Helvetica,sans-Serif" font-size="12.00"> &#45;m_PlayerMapActionsCallbackInterface</text>
</g>
</g>
</svg>
        <g id="navigator" transform="translate(0 0)" fill="#404254">
                <rect fill="#f2f5e9" fill-opacity="0.5" stroke="#606060" stroke-width=".5" x="0" y="0" width="60" height="60"/>
                <use id="zoomplus" xlink:href="#zoomPlus" x="17" y="9" onmousedown="handleZoom(evt,'in')"/>
                <use id="zoomminus" xlink:href="#zoomMin" x="42" y="9" onmousedown="handleZoom(evt,'out')"/>
                <use id="reset" xlink:href="#resetDef" x="30" y="36" onmousedown="handleReset()"/>
                <g id="arrowUp" xlink:href="#dirArrow" transform="translate(30 24)" onmousedown="handlePan(0,-1)">
                  <use xlink:href="#rim" fill="#404040">
                        <set attributeName="fill" to="#808080" begin="arrowUp.mouseover" end="arrowUp.mouseout"/>
                  </use>
                  <path fill="none" stroke="white" stroke-width="1.5" d="M0,-3.0v7 M-2.5,-0.5L0,-3.0L2.5,-0.5"/>
                </g>
                <g id="arrowRight" xlink:href="#dirArrow" transform="rotate(90) translate(36 -43)" onmousedown="handlePan(1,0)">
                  <use xlink:href="#rim" fill="#404040">
                        <set attributeName="fill" to="#808080" begin="arrowRight.mouseover" end="arrowRight.mouseout"/>
                  </use>
                  <path fill="none" stroke="white" stroke-width="1.5" d="M0,-3.0v7 M-2.5,-0.5L0,-3.0L2.5,-0.5"/>
                </g>
                <g id="arrowDown" xlink:href="#dirArrow" transform="rotate(180) translate(-30 -48)" onmousedown="handlePan(0,1)">
                  <use xlink:href="#rim" fill="#404040">
                        <set attributeName="fill" to="#808080" begin="arrowDown.mouseover" end="arrowDown.mouseout"/>
                  </use>
                  <path fill="none" stroke="white" stroke-width="1.5" d="M0,-3.0v7 M-2.5,-0.5L0,-3.0L2.5,-0.5"/>
                </g>
                <g id="arrowLeft" xlink:href="#dirArrow" transform="rotate(270) translate(-36 17)" onmousedown="handlePan(-1,0)">
                  <use xlink:href="#rim" fill="#404040">
                        <set attributeName="fill" to="#808080" begin="arrowLeft.mouseover" end="arrowLeft.mouseout"/>
                  </use>
                  <path fill="none" stroke="white" stroke-width="1.5" d="M0,-3.0v7 M-2.5,-0.5L0,-3.0L2.5,-0.5"/>
                </g>
        </g>
        <svg viewBox="0 0 15 15" width="100%" height="30px" preserveAspectRatio="xMaxYMin meet">
         <g id="arrow_out" transform="scale(0.3 0.3)">
          <a xlink:href="class_game_controls__coll__graph_org.svg" target="_base">
           <rect id="button" ry="5" rx="5" y="6" x="6" height="38" width="38"
                fill="#f2f5e9" fill-opacity="0.5" stroke="#606060" stroke-width="1.0"/>
           <path id="arrow"
             d="M 11.500037,31.436501 C 11.940474,20.09759 22.043105,11.32322 32.158766,21.979434 L 37.068811,17.246167 C 37.068811,17.246167 37.088388,32 37.088388,32 L 22.160133,31.978069 C 22.160133,31.978069 26.997745,27.140456 26.997745,27.140456 C 18.528582,18.264221 13.291696,25.230495 11.500037,31.436501 z"
             style="fill:#404040;"/>
          </a>
         </g>
        </svg>
</svg>
