<?xml version="1.0" encoding="UTF-8" standalone="no"?>
<!DOCTYPE svg PUBLIC "-//W3C//DTD SVG 1.1//EN"
 "http://www.w3.org/Graphics/SVG/1.1/DTD/svg11.dtd">
<!-- Generated by graphviz version 2.47.1 (20210417.1919)
 -->
<!-- Title: AIControllerScript.SetActive Pages: 1 -->
<svg width="1060pt" height="148pt"
 viewBox="0.00 0.00 1060.00 148.00" xmlns="http://www.w3.org/2000/svg" xmlns:xlink="http://www.w3.org/1999/xlink">
<g id="graph0" class="graph" transform="scale(1 1) rotate(0) translate(4 144)">
<title>AIControllerScript.SetActive</title>
<polygon fill="white" stroke="transparent" points="-4,4 -4,-144 1056,-144 1056,4 -4,4"/>
<!-- Node1 -->
<g id="node1" class="node">
<title>Node1</title>
<g id="a_node1"><a xlink:title="to activate the AI or not set which player the AI is controlling">
<polygon fill="#bfbfbf" stroke="black" points="0,-59.5 0,-80.5 161,-80.5 161,-59.5 0,-59.5"/>
<text text-anchor="middle" x="80.5" y="-66.9" font-family="Helvetica,sans-Serif" font-size="12.00">AIControllerScript.SetActive</text>
</a>
</g>
</g>
<!-- Node2 -->
<g id="node2" class="node">
<title>Node2</title>
<g id="a_node2"><a xlink:href="class_player_master_controller.html#a12c91851433777ae557a71d9f9a855f0" target="_top" xlink:title=" ">
<polygon fill="white" stroke="black" points="197,-118.5 197,-139.5 406,-139.5 406,-118.5 197,-118.5"/>
<text text-anchor="middle" x="301.5" y="-125.9" font-family="Helvetica,sans-Serif" font-size="12.00">PlayerMasterController.GetCharacter</text>
</a>
</g>
</g>
<!-- Node1&#45;&gt;Node2 -->
<g id="edge1" class="edge">
<title>Node1&#45;&gt;Node2</title>
<path fill="none" stroke="midnightblue" d="M115.74,-80.56C138.66,-87.51 169.54,-96.65 197,-104 212.45,-108.14 229.29,-112.34 244.8,-116.08"/>
<polygon fill="midnightblue" stroke="midnightblue" points="244.24,-119.54 254.78,-118.47 245.87,-112.74 244.24,-119.54"/>
</g>
<!-- Node3 -->
<g id="node3" class="node">
<title>Node3</title>
<g id="a_node3"><a xlink:href="class_a_i_controller_script.html#ab124aec8211aa7b8f00c6ef5db6bc96a" target="_top" xlink:title="for out putting the debug stack if outputDebugText is true, it will out put the the console as well">
<polygon fill="white" stroke="black" points="872,-41.5 872,-62.5 1052,-62.5 1052,-41.5 872,-41.5"/>
<text text-anchor="middle" x="962" y="-48.9" font-family="Helvetica,sans-Serif" font-size="12.00">AIControllerScript.OutputDebug</text>
</a>
</g>
</g>
<!-- Node1&#45;&gt;Node3 -->
<g id="edge2" class="edge">
<title>Node1&#45;&gt;Node3</title>
<path fill="none" stroke="midnightblue" d="M161.18,-72.53C298.93,-76.23 590.42,-81.04 836,-65 844.37,-64.45 853.05,-63.78 861.75,-63.02"/>
<polygon fill="midnightblue" stroke="midnightblue" points="862.31,-66.49 871.96,-62.11 861.69,-59.52 862.31,-66.49"/>
</g>
<!-- Node4 -->
<g id="node4" class="node">
<title>Node4</title>
<g id="a_node4"><a xlink:href="class_a_i_controller_script.html#acb4af4c99bf1e7610b45d9f81457d625" target="_top" xlink:title="have AI to start turn">
<polygon fill="white" stroke="black" points="222.5,-40.5 222.5,-61.5 380.5,-61.5 380.5,-40.5 222.5,-40.5"/>
<text text-anchor="middle" x="301.5" y="-47.9" font-family="Helvetica,sans-Serif" font-size="12.00">AIControllerScript.StartTurn</text>
</a>
</g>
</g>
<!-- Node1&#45;&gt;Node4 -->
<g id="edge3" class="edge">
<title>Node1&#45;&gt;Node4</title>
<path fill="none" stroke="midnightblue" d="M161.18,-63.09C177.69,-61.65 195.18,-60.14 211.98,-58.68"/>
<polygon fill="midnightblue" stroke="midnightblue" points="212.68,-62.13 222.34,-57.78 212.08,-55.16 212.68,-62.13"/>
</g>
<!-- Node7 -->
<g id="node7" class="node">
<title>Node7</title>
<g id="a_node7"><a xlink:href="class_player_master_controller.html#a59a900c17a29aece6fab552e723e22a6" target="_top" xlink:title=" ">
<polygon fill="white" stroke="black" points="210,-0.5 210,-21.5 393,-21.5 393,-0.5 210,-0.5"/>
<text text-anchor="middle" x="301.5" y="-7.9" font-family="Helvetica,sans-Serif" font-size="12.00">PlayerMasterController.ToString</text>
</a>
</g>
</g>
<!-- Node1&#45;&gt;Node7 -->
<g id="edge8" class="edge">
<title>Node1&#45;&gt;Node7</title>
<path fill="none" stroke="midnightblue" d="M109.19,-59.48C132.39,-50.94 166.51,-39.05 197,-31 207.12,-28.33 217.89,-25.85 228.51,-23.61"/>
<polygon fill="midnightblue" stroke="midnightblue" points="229.53,-26.98 238.62,-21.54 228.12,-20.12 229.53,-26.98"/>
</g>
<!-- Node5 -->
<g id="node5" class="node">
<title>Node5</title>
<g id="a_node5"><a xlink:href="class_a_i_controller_script.html#aaee909cd0f0ffdedd8d8425607d7ccb5" target="_top" xlink:title="to set the AI&#39;s mode">
<polygon fill="white" stroke="black" points="442,-40.5 442,-61.5 612,-61.5 612,-40.5 442,-40.5"/>
<text text-anchor="middle" x="527" y="-47.9" font-family="Helvetica,sans-Serif" font-size="12.00">AIControllerScript.SetAIMode</text>
</a>
</g>
</g>
<!-- Node4&#45;&gt;Node5 -->
<g id="edge4" class="edge">
<title>Node4&#45;&gt;Node5</title>
<path fill="none" stroke="midnightblue" d="M380.67,-51C397.04,-51 414.46,-51 431.35,-51"/>
<polygon fill="midnightblue" stroke="midnightblue" points="431.79,-54.5 441.79,-51 431.79,-47.5 431.79,-54.5"/>
</g>
<!-- Node5&#45;&gt;Node3 -->
<g id="edge7" class="edge">
<title>Node5&#45;&gt;Node3</title>
<path fill="none" stroke="midnightblue" d="M612,-51.19C683.43,-51.36 786.14,-51.6 861.64,-51.77"/>
<polygon fill="midnightblue" stroke="midnightblue" points="861.64,-55.27 871.64,-51.79 861.65,-48.27 861.64,-55.27"/>
</g>
<!-- Node6 -->
<g id="node6" class="node">
<title>Node6</title>
<g id="a_node6"><a xlink:href="class_a_i_controller_script.html#afcb2875a5501f07a7f44d0fa720266f3" target="_top" xlink:title="to delay the time for the next time the AI does something in the Update">
<polygon fill="white" stroke="black" points="648,-2.5 648,-23.5 836,-23.5 836,-2.5 648,-2.5"/>
<text text-anchor="middle" x="742" y="-9.9" font-family="Helvetica,sans-Serif" font-size="12.00">AIControllerScript.DelayDecision</text>
</a>
</g>
</g>
<!-- Node5&#45;&gt;Node6 -->
<g id="edge5" class="edge">
<title>Node5&#45;&gt;Node6</title>
<path fill="none" stroke="midnightblue" d="M587.05,-40.47C613.37,-35.77 644.54,-30.21 671.93,-25.32"/>
<polygon fill="midnightblue" stroke="midnightblue" points="672.61,-28.76 681.84,-23.56 671.38,-21.87 672.61,-28.76"/>
</g>
<!-- Node6&#45;&gt;Node3 -->
<g id="edge6" class="edge">
<title>Node6&#45;&gt;Node3</title>
<path fill="none" stroke="midnightblue" d="M801.71,-23.5C829.57,-28.49 863.05,-34.48 892.11,-39.68"/>
<polygon fill="midnightblue" stroke="midnightblue" points="891.73,-43.16 902.19,-41.48 892.96,-36.27 891.73,-43.16"/>
</g>
</g>
</svg>
