<?xml version="1.0" encoding="UTF-8" standalone="no"?>
<!DOCTYPE svg PUBLIC "-//W3C//DTD SVG 1.1//EN"
 "http://www.w3.org/Graphics/SVG/1.1/DTD/svg11.dtd">
<!-- Generated by graphviz version 2.47.1 (20210417.1919)
 -->
<!-- Title: UserController.SetWeapon Pages: 1 -->
<svg width="841pt" height="110pt"
 viewBox="0.00 0.00 841.00 110.00" xmlns="http://www.w3.org/2000/svg" xmlns:xlink="http://www.w3.org/1999/xlink">
<g id="graph0" class="graph" transform="scale(1 1) rotate(0) translate(4 106)">
<title>UserController.SetWeapon</title>
<polygon fill="white" stroke="transparent" points="-4,4 -4,-106 837,-106 837,4 -4,4"/>
<!-- Node1 -->
<g id="node1" class="node">
<title>Node1</title>
<g id="a_node1"><a xlink:title="Sets weapon for suggestions and accusation">
<polygon fill="#bfbfbf" stroke="black" points="676,-40.5 676,-61.5 833,-61.5 833,-40.5 676,-40.5"/>
<text text-anchor="middle" x="754.5" y="-47.9" font-family="Helvetica,sans-Serif" font-size="12.00">UserController.SetWeapon</text>
</a>
</g>
</g>
<!-- Node2 -->
<g id="node2" class="node">
<title>Node2</title>
<g id="a_node2"><a xlink:href="class_a_i_controller_script.html#a7be5eb284c6258672e70af128f8638df" target="_top" xlink:title="Decides that cards to accuse based on the To Guess List">
<polygon fill="white" stroke="black" points="425.5,-80.5 425.5,-101.5 639.5,-101.5 639.5,-80.5 425.5,-80.5"/>
<text text-anchor="middle" x="532.5" y="-87.9" font-family="Helvetica,sans-Serif" font-size="12.00">AIControllerScript.Decide_Accusation</text>
</a>
</g>
</g>
<!-- Node1&#45;&gt;Node2 -->
<g id="edge1" class="edge">
<title>Node1&#45;&gt;Node2</title>
<path fill="none" stroke="midnightblue" d="M685.66,-63.33C655.45,-68.83 620.24,-75.23 591.3,-80.49"/>
<polygon fill="midnightblue" stroke="midnightblue" points="686.49,-66.74 695.7,-61.51 685.23,-59.85 686.49,-66.74"/>
</g>
<!-- Node5 -->
<g id="node5" class="node">
<title>Node5</title>
<g id="a_node5"><a xlink:href="class_a_i_controller_script.html#affdf86fa313c46463a9a5a2b20020a17" target="_top" xlink:title="Decides what the AI should suggest this should match the flow chart of the AI">
<polygon fill="white" stroke="black" points="425,-40.5 425,-61.5 640,-61.5 640,-40.5 425,-40.5"/>
<text text-anchor="middle" x="532.5" y="-47.9" font-family="Helvetica,sans-Serif" font-size="12.00">AIControllerScript.Decide_Suggestion</text>
</a>
</g>
</g>
<!-- Node1&#45;&gt;Node5 -->
<g id="edge4" class="edge">
<title>Node1&#45;&gt;Node5</title>
<path fill="none" stroke="midnightblue" d="M665.73,-51C657.28,-51 648.65,-51 640.04,-51"/>
<polygon fill="midnightblue" stroke="midnightblue" points="665.94,-54.5 675.94,-51 665.94,-47.5 665.94,-54.5"/>
</g>
<!-- Node6 -->
<g id="node6" class="node">
<title>Node6</title>
<g id="a_node6"><a xlink:href="class_suggestion_test.html#ac6fed8b504eb8b103cb5c38fa895edf3" target="_top" xlink:title="get test choices and make suggestion">
<polygon fill="white" stroke="black" points="437.5,-0.5 437.5,-21.5 627.5,-21.5 627.5,-0.5 437.5,-0.5"/>
<text text-anchor="middle" x="532.5" y="-7.9" font-family="Helvetica,sans-Serif" font-size="12.00">SuggestionTest.MakeSuggestion</text>
</a>
</g>
</g>
<!-- Node1&#45;&gt;Node6 -->
<g id="edge6" class="edge">
<title>Node1&#45;&gt;Node6</title>
<path fill="none" stroke="midnightblue" d="M685.66,-38.67C655.45,-33.17 620.24,-26.77 591.3,-21.51"/>
<polygon fill="midnightblue" stroke="midnightblue" points="685.23,-42.15 695.7,-40.49 686.49,-35.26 685.23,-42.15"/>
</g>
<!-- Node3 -->
<g id="node3" class="node">
<title>Node3</title>
<g id="a_node3"><a xlink:href="class_a_i_controller_script.html#ac31d9b8dbb75696b181eff1fbef41b97" target="_top" xlink:title="dictates what the AI will do depending on what mode it is in">
<polygon fill="white" stroke="black" points="215,-60.5 215,-81.5 389,-81.5 389,-60.5 215,-60.5"/>
<text text-anchor="middle" x="302" y="-67.9" font-family="Helvetica,sans-Serif" font-size="12.00">AIControllerScript.AIBehaviour</text>
</a>
</g>
</g>
<!-- Node2&#45;&gt;Node3 -->
<g id="edge2" class="edge">
<title>Node2&#45;&gt;Node3</title>
<path fill="none" stroke="midnightblue" d="M415.03,-80.81C406.3,-80.04 397.59,-79.28 389.1,-78.54"/>
<polygon fill="midnightblue" stroke="midnightblue" points="415.01,-84.32 425.28,-81.7 415.62,-77.34 415.01,-84.32"/>
</g>
<!-- Node4 -->
<g id="node4" class="node">
<title>Node4</title>
<g id="a_node4"><a xlink:href="class_a_i_controller_script.html#a74dc0e720fafceb873d3b19c12f68d58" target="_top" xlink:title=" ">
<polygon fill="white" stroke="black" points="0,-60.5 0,-81.5 179,-81.5 179,-60.5 0,-60.5"/>
<text text-anchor="middle" x="89.5" y="-67.9" font-family="Helvetica,sans-Serif" font-size="12.00">AIControllerScript.FixedUpdate</text>
</a>
</g>
</g>
<!-- Node3&#45;&gt;Node4 -->
<g id="edge3" class="edge">
<title>Node3&#45;&gt;Node4</title>
<path fill="none" stroke="midnightblue" d="M204.57,-71C196.15,-71 187.67,-71 179.32,-71"/>
<polygon fill="midnightblue" stroke="midnightblue" points="204.77,-74.5 214.77,-71 204.77,-67.5 204.77,-74.5"/>
</g>
<!-- Node5&#45;&gt;Node3 -->
<g id="edge5" class="edge">
<title>Node5&#45;&gt;Node3</title>
<path fill="none" stroke="midnightblue" d="M414.82,-61.21C406.19,-61.97 397.58,-62.72 389.18,-63.46"/>
<polygon fill="midnightblue" stroke="midnightblue" points="415.29,-64.69 424.94,-60.33 414.68,-57.71 415.29,-64.69"/>
</g>
</g>
</svg>
