<?xml version="1.0" encoding="UTF-8" standalone="no"?>
<!DOCTYPE svg PUBLIC "-//W3C//DTD SVG 1.1//EN"
 "http://www.w3.org/Graphics/SVG/1.1/DTD/svg11.dtd">
<!-- Generated by graphviz version 2.47.1 (20210417.1919)
 -->
<!-- Title: NotebookButton.SetButtonType Pages: 1 -->
<svg width="855pt" height="110pt"
 viewBox="0.00 0.00 855.00 110.00" xmlns="http://www.w3.org/2000/svg" xmlns:xlink="http://www.w3.org/1999/xlink">
<g id="graph0" class="graph" transform="scale(1 1) rotate(0) translate(4 106)">
<title>NotebookButton.SetButtonType</title>
<polygon fill="white" stroke="transparent" points="-4,4 -4,-106 851,-106 851,4 -4,4"/>
<!-- Node1 -->
<g id="node1" class="node">
<title>Node1</title>
<g id="a_node1"><a xlink:title="Set the button type">
<polygon fill="#bfbfbf" stroke="black" points="667,-40.5 667,-61.5 847,-61.5 847,-40.5 667,-40.5"/>
<text text-anchor="middle" x="757" y="-47.9" font-family="Helvetica,sans-Serif" font-size="12.00">NotebookButton.SetButtonType</text>
</a>
</g>
</g>
<!-- Node2 -->
<g id="node2" class="node">
<title>Node2</title>
<g id="a_node2"><a xlink:href="class_notebook_script.html#a0d865d47dca27b4d3e7a0a1a35036efb" target="_top" xlink:title="Create the character buttons">
<polygon fill="white" stroke="black" points="403,-80.5 403,-101.5 631,-101.5 631,-80.5 403,-80.5"/>
<text text-anchor="middle" x="517" y="-87.9" font-family="Helvetica,sans-Serif" font-size="12.00">NotebookScript.CreateCharacterButtons</text>
</a>
</g>
</g>
<!-- Node1&#45;&gt;Node2 -->
<g id="edge1" class="edge">
<title>Node1&#45;&gt;Node2</title>
<path fill="none" stroke="midnightblue" d="M683.46,-63.19C650.59,-68.72 612.1,-75.18 580.53,-80.49"/>
<polygon fill="midnightblue" stroke="midnightblue" points="684.19,-66.62 693.47,-61.51 683.03,-59.72 684.19,-66.62"/>
</g>
<!-- Node5 -->
<g id="node5" class="node">
<title>Node5</title>
<g id="a_node5"><a xlink:href="class_notebook_script.html#a970cdef3e0f21b0cc144fef7088bbeb0" target="_top" xlink:title="Create the room buttons">
<polygon fill="white" stroke="black" points="413,-40.5 413,-61.5 621,-61.5 621,-40.5 413,-40.5"/>
<text text-anchor="middle" x="517" y="-47.9" font-family="Helvetica,sans-Serif" font-size="12.00">NotebookScript.CreateRoomButtons</text>
</a>
</g>
</g>
<!-- Node1&#45;&gt;Node5 -->
<g id="edge4" class="edge">
<title>Node1&#45;&gt;Node5</title>
<path fill="none" stroke="midnightblue" d="M656.48,-51C644.76,-51 632.78,-51 621.01,-51"/>
<polygon fill="midnightblue" stroke="midnightblue" points="656.7,-54.5 666.7,-51 656.7,-47.5 656.7,-54.5"/>
</g>
<!-- Node6 -->
<g id="node6" class="node">
<title>Node6</title>
<g id="a_node6"><a xlink:href="class_notebook_script.html#a32b5d422887498e904d1b820605978eb" target="_top" xlink:title="Create the Weapon buttons">
<polygon fill="white" stroke="black" points="406.5,-0.5 406.5,-21.5 627.5,-21.5 627.5,-0.5 406.5,-0.5"/>
<text text-anchor="middle" x="517" y="-7.9" font-family="Helvetica,sans-Serif" font-size="12.00">NotebookScript.CreateWeaponButtons</text>
</a>
</g>
</g>
<!-- Node1&#45;&gt;Node6 -->
<g id="edge6" class="edge">
<title>Node1&#45;&gt;Node6</title>
<path fill="none" stroke="midnightblue" d="M683.46,-38.81C650.59,-33.28 612.1,-26.82 580.53,-21.51"/>
<polygon fill="midnightblue" stroke="midnightblue" points="683.03,-42.28 693.47,-40.49 684.19,-35.38 683.03,-42.28"/>
</g>
<!-- Node3 -->
<g id="node3" class="node">
<title>Node3</title>
<g id="a_node3"><a xlink:href="class_notebook_script.html#a829e34fac5e19bf031c070b44f0fe370" target="_top" xlink:title="Initialize notebook UI">
<polygon fill="white" stroke="black" points="173,-40.5 173,-61.5 367,-61.5 367,-40.5 173,-40.5"/>
<text text-anchor="middle" x="270" y="-47.9" font-family="Helvetica,sans-Serif" font-size="12.00">NotebookScript.initializeNotebook</text>
</a>
</g>
</g>
<!-- Node2&#45;&gt;Node3 -->
<g id="edge2" class="edge">
<title>Node2&#45;&gt;Node3</title>
<path fill="none" stroke="midnightblue" d="M441.33,-78.81C407.49,-73.28 367.87,-66.82 335.37,-61.51"/>
<polygon fill="midnightblue" stroke="midnightblue" points="441.2,-82.33 451.63,-80.49 442.32,-75.42 441.2,-82.33"/>
</g>
<!-- Node4 -->
<g id="node4" class="node">
<title>Node4</title>
<g id="a_node4"><a xlink:href="class_notebook_script.html#ad7fb4caee1659d66f551b02983ef9d4c" target="_top" xlink:title="Initialize notebook on awake">
<polygon fill="white" stroke="black" points="0,-40.5 0,-61.5 137,-61.5 137,-40.5 0,-40.5"/>
<text text-anchor="middle" x="68.5" y="-47.9" font-family="Helvetica,sans-Serif" font-size="12.00">NotebookScript.Awake</text>
</a>
</g>
</g>
<!-- Node3&#45;&gt;Node4 -->
<g id="edge3" class="edge">
<title>Node3&#45;&gt;Node4</title>
<path fill="none" stroke="midnightblue" d="M162.58,-51C153.93,-51 145.34,-51 137.09,-51"/>
<polygon fill="midnightblue" stroke="midnightblue" points="162.76,-54.5 172.76,-51 162.76,-47.5 162.76,-54.5"/>
</g>
<!-- Node5&#45;&gt;Node3 -->
<g id="edge5" class="edge">
<title>Node5&#45;&gt;Node3</title>
<path fill="none" stroke="midnightblue" d="M402.8,-51C390.85,-51 378.78,-51 367.04,-51"/>
<polygon fill="midnightblue" stroke="midnightblue" points="402.81,-54.5 412.81,-51 402.81,-47.5 402.81,-54.5"/>
</g>
<!-- Node6&#45;&gt;Node3 -->
<g id="edge7" class="edge">
<title>Node6&#45;&gt;Node3</title>
<path fill="none" stroke="midnightblue" d="M441.33,-23.19C407.49,-28.72 367.87,-35.18 335.37,-40.49"/>
<polygon fill="midnightblue" stroke="midnightblue" points="442.32,-26.58 451.63,-21.51 441.2,-19.67 442.32,-26.58"/>
</g>
</g>
</svg>
