<?xml version="1.0" encoding="UTF-8" standalone="no"?>
<!DOCTYPE svg PUBLIC "-//W3C//DTD SVG 1.1//EN"
 "http://www.w3.org/Graphics/SVG/1.1/DTD/svg11.dtd">
<!-- Generated by graphviz version 2.47.1 (20210417.1919)
 -->
<!-- Title: BoardBuilder.CheckNearbyTiles Pages: 1 -->
<svg width="1002pt" height="70pt"
 viewBox="0.00 0.00 1002.00 70.00" xmlns="http://www.w3.org/2000/svg" xmlns:xlink="http://www.w3.org/1999/xlink">
<g id="graph0" class="graph" transform="scale(1 1) rotate(0) translate(4 66)">
<title>BoardBuilder.CheckNearbyTiles</title>
<polygon fill="white" stroke="transparent" points="-4,4 -4,-66 998,-66 998,4 -4,4"/>
<!-- Node1 -->
<g id="node1" class="node">
<title>Node1</title>
<g id="a_node1"><a xlink:title="Check for nearby bonus / start tiles in order to space out around the board">
<polygon fill="#bfbfbf" stroke="black" points="809,-20.5 809,-41.5 994,-41.5 994,-20.5 809,-20.5"/>
<text text-anchor="middle" x="901.5" y="-27.9" font-family="Helvetica,sans-Serif" font-size="12.00">BoardBuilder.CheckNearbyTiles</text>
</a>
</g>
</g>
<!-- Node2 -->
<g id="node2" class="node">
<title>Node2</title>
<g id="a_node2"><a xlink:href="class_board_builder.html#a1ce7b540b58b1e6fde74e064107ae954" target="_top" xlink:title="Randomly replace required number of general tiles with FreeRoll Tiles">
<polygon fill="white" stroke="black" points="559.5,-40.5 559.5,-61.5 753.5,-61.5 753.5,-40.5 559.5,-40.5"/>
<text text-anchor="middle" x="656.5" y="-47.9" font-family="Helvetica,sans-Serif" font-size="12.00">BoardBuilder.CreateFreeRollTiles</text>
</a>
</g>
</g>
<!-- Node1&#45;&gt;Node2 -->
<g id="edge1" class="edge">
<title>Node1&#45;&gt;Node2</title>
<path fill="none" stroke="midnightblue" d="M798.75,-39.37C783.87,-40.6 768.57,-41.86 753.8,-43.07"/>
<polygon fill="midnightblue" stroke="midnightblue" points="799.3,-42.84 808.98,-38.53 798.72,-35.86 799.3,-42.84"/>
</g>
<!-- Node6 -->
<g id="node6" class="node">
<title>Node6</title>
<g id="a_node6"><a xlink:href="class_board_builder.html#aeeca1094dc5e50c5612bba9336efd9d3" target="_top" xlink:title="Randomly replace required number of general tiles with FreeAccusation Tiles">
<polygon fill="white" stroke="black" points="540,-0.5 540,-21.5 773,-21.5 773,-0.5 540,-0.5"/>
<text text-anchor="middle" x="656.5" y="-7.9" font-family="Helvetica,sans-Serif" font-size="12.00">BoardBuilder.CreateFreeSuggestionTiles</text>
</a>
</g>
</g>
<!-- Node1&#45;&gt;Node6 -->
<g id="edge5" class="edge">
<title>Node1&#45;&gt;Node6</title>
<path fill="none" stroke="midnightblue" d="M798.74,-22.62C790.28,-21.93 781.7,-21.22 773.15,-20.52"/>
<polygon fill="midnightblue" stroke="midnightblue" points="798.72,-26.14 808.98,-23.47 799.3,-19.16 798.72,-26.14"/>
</g>
<!-- Node3 -->
<g id="node3" class="node">
<title>Node3</title>
<g id="a_node3"><a xlink:href="class_board_builder.html#a7a499abdc0c02d659ea6fee6e7836f15" target="_top" xlink:title="Randomly place Free roll / accusation tiles.">
<polygon fill="white" stroke="black" points="328,-20.5 328,-41.5 504,-41.5 504,-20.5 328,-20.5"/>
<text text-anchor="middle" x="416" y="-27.9" font-family="Helvetica,sans-Serif" font-size="12.00">BoardBuilder.PlaceBonusTiles</text>
</a>
</g>
</g>
<!-- Node2&#45;&gt;Node3 -->
<g id="edge2" class="edge">
<title>Node2&#45;&gt;Node3</title>
<path fill="none" stroke="midnightblue" d="M548.86,-42.06C533.87,-40.8 518.62,-39.52 504.06,-38.3"/>
<polygon fill="midnightblue" stroke="midnightblue" points="548.92,-45.57 559.18,-42.92 549.51,-38.6 548.92,-45.57"/>
</g>
<!-- Node4 -->
<g id="node4" class="node">
<title>Node4</title>
<g id="a_node4"><a xlink:href="class_board_builder.html#a82e09ea29b1d031cfe2fa3b444c12c99" target="_top" xlink:title="Method to create the board, initialise and place all items and pass references to board manager">
<polygon fill="white" stroke="black" points="161,-20.5 161,-41.5 292,-41.5 292,-20.5 161,-20.5"/>
<text text-anchor="middle" x="226.5" y="-27.9" font-family="Helvetica,sans-Serif" font-size="12.00">BoardBuilder.Initialise</text>
</a>
</g>
</g>
<!-- Node3&#45;&gt;Node4 -->
<g id="edge3" class="edge">
<title>Node3&#45;&gt;Node4</title>
<path fill="none" stroke="midnightblue" d="M317.65,-31C308.98,-31 300.35,-31 292.05,-31"/>
<polygon fill="midnightblue" stroke="midnightblue" points="317.84,-34.5 327.84,-31 317.84,-27.5 317.84,-34.5"/>
</g>
<!-- Node5 -->
<g id="node5" class="node">
<title>Node5</title>
<g id="a_node5"><a xlink:href="class_board_builder.html#a40848d7394ead9e79f4f2dad2d7756b8" target="_top" xlink:title=" ">
<polygon fill="white" stroke="black" points="0,-20.5 0,-41.5 125,-41.5 125,-20.5 0,-20.5"/>
<text text-anchor="middle" x="62.5" y="-27.9" font-family="Helvetica,sans-Serif" font-size="12.00">BoardBuilder.Awake</text>
</a>
</g>
</g>
<!-- Node4&#45;&gt;Node5 -->
<g id="edge4" class="edge">
<title>Node4&#45;&gt;Node5</title>
<path fill="none" stroke="midnightblue" d="M150.3,-31C141.84,-31 133.31,-31 125.05,-31"/>
<polygon fill="midnightblue" stroke="midnightblue" points="150.54,-34.5 160.54,-31 150.54,-27.5 150.54,-34.5"/>
</g>
<!-- Node6&#45;&gt;Node3 -->
<g id="edge6" class="edge">
<title>Node6&#45;&gt;Node3</title>
<path fill="none" stroke="midnightblue" d="M529.63,-21.56C521.02,-22.28 512.46,-22.99 504.13,-23.69"/>
<polygon fill="midnightblue" stroke="midnightblue" points="530.07,-25.03 539.74,-20.71 529.49,-18.06 530.07,-25.03"/>
</g>
</g>
</svg>
