<?xml version="1.0" encoding="UTF-8" standalone="no"?>
<!DOCTYPE svg PUBLIC "-//W3C//DTD SVG 1.1//EN"
 "http://www.w3.org/Graphics/SVG/1.1/DTD/svg11.dtd">
<!-- Generated by graphviz version 2.47.1 (20210417.1919)
 -->
<!-- Title: DeckAnimation Pages: 1 -->
<svg width="106pt" height="224pt"
 viewBox="0.00 0.00 106.00 224.00" xmlns="http://www.w3.org/2000/svg" xmlns:xlink="http://www.w3.org/1999/xlink">
<g id="graph0" class="graph" transform="scale(1 1) rotate(0) translate(4 220)">
<title>DeckAnimation</title>
<polygon fill="white" stroke="transparent" points="-4,4 -4,-220 102,-220 102,4 -4,4"/>
<!-- Node1 -->
<g id="node1" class="node">
<title>Node1</title>
<g id="a_node1"><a xlink:title="Class for the deck animation">
<polygon fill="#bfbfbf" stroke="black" points="0.5,-0.5 0.5,-115.5 97.5,-115.5 97.5,-0.5 0.5,-0.5"/>
<text text-anchor="middle" x="49" y="-101.9" font-family="Helvetica,sans-Serif" font-size="12.00">DeckAnimation</text>
<polyline fill="none" stroke="black" points="0.5,-94.5 97.5,-94.5 "/>
<text text-anchor="start" x="8.5" y="-80.9" font-family="Helvetica,sans-Serif" font-size="12.00">&#45; isUp</text>
<text text-anchor="start" x="8.5" y="-67.9" font-family="Helvetica,sans-Serif" font-size="12.00">&#45; stayUp</text>
<text text-anchor="start" x="8.5" y="-54.9" font-family="Helvetica,sans-Serif" font-size="12.00">&#45; deckAnimator</text>
<polyline fill="none" stroke="black" points="0.5,-47.5 97.5,-47.5 "/>
<text text-anchor="start" x="8.5" y="-33.9" font-family="Helvetica,sans-Serif" font-size="12.00">+ GoUp()</text>
<text text-anchor="start" x="8.5" y="-20.9" font-family="Helvetica,sans-Serif" font-size="12.00">+ GoDown()</text>
<text text-anchor="start" x="8.5" y="-7.9" font-family="Helvetica,sans-Serif" font-size="12.00">&#45; Start()</text>
</a>
</g>
</g>
<!-- Node2 -->
<g id="node2" class="node">
<title>Node2</title>
<g id="a_node2"><a xlink:title=" ">
<polygon fill="white" stroke="#bfbfbf" points="0,-152.5 0,-215.5 98,-215.5 98,-152.5 0,-152.5"/>
<text text-anchor="middle" x="49" y="-201.9" font-family="Helvetica,sans-Serif" font-size="12.00">MonoBehaviour</text>
<polyline fill="none" stroke="#bfbfbf" points="0,-194.5 98,-194.5 "/>
<text text-anchor="middle" x="49" y="-180.9" font-family="Helvetica,sans-Serif" font-size="12.00"> </text>
<polyline fill="none" stroke="#bfbfbf" points="0,-173.5 98,-173.5 "/>
<text text-anchor="middle" x="49" y="-159.9" font-family="Helvetica,sans-Serif" font-size="12.00"> </text>
</a>
</g>
</g>
<!-- Node2&#45;&gt;Node1 -->
<g id="edge1" class="edge">
<title>Node2&#45;&gt;Node1</title>
<path fill="none" stroke="midnightblue" d="M49,-142.09C49,-133.7 49,-124.73 49,-115.89"/>
<polygon fill="none" stroke="midnightblue" points="45.5,-142.35 49,-152.35 52.5,-142.35 45.5,-142.35"/>
</g>
</g>
</svg>
