<?xml version="1.0" encoding="UTF-8" standalone="no"?>
<!DOCTYPE svg PUBLIC "-//W3C//DTD SVG 1.1//EN"
 "http://www.w3.org/Graphics/SVG/1.1/DTD/svg11.dtd">
<!-- Generated by graphviz version 2.47.1 (20210417.1919)
 -->
<!-- Title: UIHandler.ShowSelectedCard Pages: 1 -->
<!--zoomable 344 -->
<svg id="main" version="1.1" xmlns="http://www.w3.org/2000/svg" xmlns:xlink="http://www.w3.org/1999/xlink" xml:space="preserve" onload="init(evt)">
<style type="text/css"><![CDATA[
.edge:hover path { stroke: red; }
.edge:hover polygon { stroke: red; fill: red; }
]]></style>
<script type="text/javascript"><![CDATA[
var edges = document.getElementsByTagName('g');
if (edges && edges.length) {
  for (var i=0;i<edges.length;i++) {
    if (edges[i].id.substr(0,4)=='edge') {
      edges[i].setAttribute('class','edge');
    }
  }
}
]]></script>
        <defs>
                <circle id="rim" cx="0" cy="0" r="7"/>
                <circle id="rim2" cx="0" cy="0" r="3.5"/>
                <g id="zoomPlus">
                        <use xlink:href="#rim" fill="#404040">
                                <set attributeName="fill" to="#808080" begin="zoomplus.mouseover" end="zoomplus.mouseout"/>
                        </use>
                        <path d="M-4,0h8M0,-4v8" fill="none" stroke="white" stroke-width="1.5" pointer-events="none"/>
                </g>
                <g id="zoomMin">
                        <use xlink:href="#rim" fill="#404040">
                                <set attributeName="fill" to="#808080" begin="zoomminus.mouseover" end="zoomminus.mouseout"/>
                        </use>
                        <path d="M-4,0h8" fill="none" stroke="white" stroke-width="1.5" pointer-events="none"/>
                </g>
                <g id="dirArrow">
                        <path fill="none" stroke="white" stroke-width="1.5" d="M0,-3.0v7 M-2.5,-0.5L0,-3.0L2.5,-0.5"/>
                </g>
               <g id="resetDef">
                       <use xlink:href="#rim2" fill="#404040">
                               <set attributeName="fill" to="#808080" begin="reset.mouseover" end="reset.mouseout"/>
                       </use>
               </g>
        </defs>

<script type="text/javascript">
var viewWidth = 1627;
var viewHeight = 344;
var sectionId = 'dynsection-27';
</script>
<script xlink:href="svgpan.js"/>
<svg id="graph" class="graph">
<g id="viewport">
<title>UIHandler.ShowSelectedCard</title>
<polygon fill="white" stroke="transparent" points="-4,4 -4,-340 1623,-340 1623,4 -4,4"/>
<!-- Node1 -->
<g id="node1" class="node">
<title>Node1</title>
<g id="a_node1"><a xlink:title="After pressing a card to choose pass this card to show it">
<polygon fill="#bfbfbf" stroke="black" points="0,-236.5 0,-257.5 173,-257.5 173,-236.5 0,-236.5"/>
<text text-anchor="middle" x="86.5" y="-243.9" font-family="Helvetica,sans-Serif" font-size="12.00">UIHandler.ShowSelectedCard</text>
</a>
</g>
</g>
<!-- Node2 -->
<g id="node2" class="node">
<title>Node2</title>
<g id="a_node2"><a xlink:href="class_u_i_handler.html#abe1710aca2abe4dbb489f0c49a3af879" target="_top" xlink:title="To display the View Blocker can include the name of the player that needs it&#39;s attention">
<polygon fill="white" stroke="black" points="209,-314.5 209,-335.5 385,-335.5 385,-314.5 209,-314.5"/>
<text text-anchor="middle" x="297" y="-321.9" font-family="Helvetica,sans-Serif" font-size="12.00">UIHandler.DisplayViewBlocker</text>
</a>
</g>
</g>
<!-- Node1&#45;&gt;Node2 -->
<g id="edge1" class="edge">
<title>Node1&#45;&gt;Node2</title>
<path fill="none" stroke="midnightblue" d="M109.54,-257.66C133.61,-269.06 173.49,-287.22 209,-300 220.55,-304.16 233.16,-308.11 245.09,-311.59"/>
<polygon fill="midnightblue" stroke="midnightblue" points="244.35,-315.01 254.93,-314.39 246.27,-308.28 244.35,-315.01"/>
</g>
<!-- Node3 -->
<g id="node3" class="node">
<title>Node3</title>
<g id="a_node3"><a xlink:href="class_player_master_controller.html#a12c91851433777ae557a71d9f9a855f0" target="_top" xlink:title=" ">
<polygon fill="white" stroke="black" points="421,-236.5 421,-257.5 630,-257.5 630,-236.5 421,-236.5"/>
<text text-anchor="middle" x="525.5" y="-243.9" font-family="Helvetica,sans-Serif" font-size="12.00">PlayerMasterController.GetCharacter</text>
</a>
</g>
</g>
<!-- Node1&#45;&gt;Node3 -->
<g id="edge2" class="edge">
<title>Node1&#45;&gt;Node3</title>
<path fill="none" stroke="midnightblue" d="M173.06,-247C240.81,-247 336.08,-247 410.33,-247"/>
<polygon fill="midnightblue" stroke="midnightblue" points="410.67,-250.5 420.67,-247 410.67,-243.5 410.67,-250.5"/>
</g>
<!-- Node4 -->
<g id="node4" class="node">
<title>Node4</title>
<g id="a_node4"><a xlink:href="class_round_manager.html#aab3f49a5e05508a8e023a497e763c1c8" target="_top" xlink:title="Gets the player controller for the current player">
<polygon fill="white" stroke="black" points="699,-38.5 699,-59.5 889,-59.5 889,-38.5 699,-38.5"/>
<text text-anchor="middle" x="794" y="-45.9" font-family="Helvetica,sans-Serif" font-size="12.00">RoundManager.GetCurrentPlayer</text>
</a>
</g>
</g>
<!-- Node1&#45;&gt;Node4 -->
<g id="edge3" class="edge">
<title>Node1&#45;&gt;Node4</title>
<path fill="none" stroke="midnightblue" d="M108.41,-236.42C132.49,-224.33 173.32,-204.14 209,-188 302.11,-145.89 322.39,-125.82 421,-99 509.61,-74.9 613.39,-62.18 688.79,-55.62"/>
<polygon fill="midnightblue" stroke="midnightblue" points="689.1,-59.1 698.77,-54.77 688.51,-52.13 689.1,-59.1"/>
</g>
<!-- Node6 -->
<g id="node6" class="node">
<title>Node6</title>
<g id="a_node6"><a xlink:href="class_enum_to_string.html#a078a1fb16a0030544fac1b96a90b6b83" target="_top" xlink:title="Get a string value from a valid enum">
<polygon fill="white" stroke="black" points="968,-238.5 968,-259.5 1169,-259.5 1169,-238.5 968,-238.5"/>
<text text-anchor="middle" x="1068.5" y="-245.9" font-family="Helvetica,sans-Serif" font-size="12.00">EnumToString.GetStringFromEnum</text>
</a>
</g>
</g>
<!-- Node1&#45;&gt;Node6 -->
<g id="edge5" class="edge">
<title>Node1&#45;&gt;Node6</title>
<path fill="none" stroke="midnightblue" d="M170.42,-257.52C183.31,-258.88 196.5,-260.1 209,-261 477.5,-280.23 794.41,-266.36 957.81,-256.52"/>
<polygon fill="midnightblue" stroke="midnightblue" points="958.1,-260.01 967.87,-255.9 957.68,-253.02 958.1,-260.01"/>
</g>
<!-- Node7 -->
<g id="node7" class="node">
<title>Node7</title>
<g id="a_node7"><a xlink:href="class_u_i_handler.html#a4009ca74f59111933be2a637c7835e18" target="_top" xlink:title="Displays a card from a player that has it">
<polygon fill="white" stroke="black" points="234,-197.5 234,-218.5 360,-218.5 360,-197.5 234,-197.5"/>
<text text-anchor="middle" x="297" y="-204.9" font-family="Helvetica,sans-Serif" font-size="12.00">UIHandler.ShowCard</text>
</a>
</g>
</g>
<!-- Node1&#45;&gt;Node7 -->
<g id="edge6" class="edge">
<title>Node1&#45;&gt;Node7</title>
<path fill="none" stroke="midnightblue" d="M143.65,-236.5C170.18,-231.53 202.04,-225.58 229.75,-220.39"/>
<polygon fill="midnightblue" stroke="midnightblue" points="230.57,-223.8 239.75,-218.52 229.28,-216.92 230.57,-223.8"/>
</g>
<!-- Node5 -->
<g id="node5" class="node">
<title>Node5</title>
<g id="a_node5"><a xlink:href="class_turn_controller.html#af16e42b7e61c5a999291327e2e556caa" target="_top" xlink:title=" ">
<polygon fill="white" stroke="black" points="977.5,-0.5 977.5,-21.5 1159.5,-21.5 1159.5,-0.5 977.5,-0.5"/>
<text text-anchor="middle" x="1068.5" y="-7.9" font-family="Helvetica,sans-Serif" font-size="12.00">TurnController.GetCurrentPlayer</text>
</a>
</g>
</g>
<!-- Node4&#45;&gt;Node5 -->
<g id="edge4" class="edge">
<title>Node4&#45;&gt;Node5</title>
<path fill="none" stroke="midnightblue" d="M870.54,-38.47C905.1,-33.65 946.2,-27.92 981.89,-22.94"/>
<polygon fill="midnightblue" stroke="midnightblue" points="982.39,-26.4 991.81,-21.56 981.42,-19.47 982.39,-26.4"/>
</g>
<!-- Node7&#45;&gt;Node3 -->
<g id="edge7" class="edge">
<title>Node7&#45;&gt;Node3</title>
<path fill="none" stroke="midnightblue" d="M359,-218.5C388.07,-223.51 423.04,-229.53 453.32,-234.74"/>
<polygon fill="midnightblue" stroke="midnightblue" points="452.95,-238.23 463.4,-236.48 454.13,-231.33 452.95,-238.23"/>
</g>
<!-- Node7&#45;&gt;Node6 -->
<g id="edge8" class="edge">
<title>Node7&#45;&gt;Node6</title>
<path fill="none" stroke="midnightblue" d="M360.32,-211.32C490.78,-218.27 794.07,-234.43 957.87,-243.16"/>
<polygon fill="midnightblue" stroke="midnightblue" points="957.8,-246.66 967.97,-243.7 958.17,-239.67 957.8,-246.66"/>
</g>
<!-- Node8 -->
<g id="node8" class="node">
<title>Node8</title>
<g id="a_node8"><a xlink:href="class_round_manager.html#a6cf32ad7ffd3cafc902ae5faeb7605f8" target="_top" xlink:title="removing a card from the player&#39;s To Guess List notify the AI if a player finished showing a suggeste...">
<polygon fill="white" stroke="black" points="431.5,-108.5 431.5,-129.5 619.5,-129.5 619.5,-108.5 431.5,-108.5"/>
<text text-anchor="middle" x="525.5" y="-115.9" font-family="Helvetica,sans-Serif" font-size="12.00">RoundManager.NotifySuggestion</text>
</a>
</g>
</g>
<!-- Node7&#45;&gt;Node8 -->
<g id="edge9" class="edge">
<title>Node7&#45;&gt;Node8</title>
<path fill="none" stroke="midnightblue" d="M317.58,-197.36C341.49,-184.67 383.39,-163.36 421,-149 437.36,-142.76 455.58,-137.07 472.13,-132.36"/>
<polygon fill="midnightblue" stroke="midnightblue" points="473.49,-135.62 482.18,-129.57 471.61,-128.88 473.49,-135.62"/>
</g>
<!-- Node15 -->
<g id="node15" class="node">
<title>Node15</title>
<g id="a_node15"><a xlink:href="class_card_slot.html#a9049dedcebbbc4b2185a2a01d76d4ed5" target="_top" xlink:title=" ">
<polygon fill="white" stroke="black" points="470.5,-158.5 470.5,-179.5 580.5,-179.5 580.5,-158.5 470.5,-158.5"/>
<text text-anchor="middle" x="525.5" y="-165.9" font-family="Helvetica,sans-Serif" font-size="12.00">CardSlot.SetCard</text>
</a>
</g>
</g>
<!-- Node7&#45;&gt;Node15 -->
<g id="edge20" class="edge">
<title>Node7&#45;&gt;Node15</title>
<path fill="none" stroke="midnightblue" d="M359,-197.5C390.33,-192.1 428.49,-185.53 460.27,-180.06"/>
<polygon fill="midnightblue" stroke="midnightblue" points="461.09,-183.47 470.35,-178.32 459.9,-176.57 461.09,-183.47"/>
</g>
<!-- Node8&#45;&gt;Node4 -->
<g id="edge10" class="edge">
<title>Node8&#45;&gt;Node4</title>
<path fill="none" stroke="midnightblue" d="M551.76,-108.32C579.37,-97.03 625.12,-79.45 666,-69 677.32,-66.11 689.32,-63.56 701.25,-61.34"/>
<polygon fill="midnightblue" stroke="midnightblue" points="702.01,-64.76 711.24,-59.55 700.78,-57.87 702.01,-64.76"/>
</g>
<!-- Node9 -->
<g id="node9" class="node">
<title>Node9</title>
<g id="a_node9"><a xlink:href="class_a_i_controller_script.html#a208f5afe4102ff2ca04a03a425d76279" target="_top" xlink:title="for the round manager to notify that another player finished picking a card to show">
<polygon fill="white" stroke="black" points="694,-78.5 694,-99.5 894,-99.5 894,-78.5 694,-78.5"/>
<text text-anchor="middle" x="794" y="-85.9" font-family="Helvetica,sans-Serif" font-size="12.00">AIControllerScript.NotifySuggestion</text>
</a>
</g>
</g>
<!-- Node8&#45;&gt;Node9 -->
<g id="edge11" class="edge">
<title>Node8&#45;&gt;Node9</title>
<path fill="none" stroke="midnightblue" d="M619.71,-108.51C642.2,-105.98 666.36,-103.26 689.3,-100.67"/>
<polygon fill="midnightblue" stroke="midnightblue" points="689.85,-104.13 699.39,-99.54 689.06,-97.18 689.85,-104.13"/>
</g>
<!-- Node13 -->
<g id="node13" class="node">
<title>Node13</title>
<g id="a_node13"><a xlink:href="class_player_master_controller.html#a16dbaeb841ba29cdc8b7cb3b3bc86d99" target="_top" xlink:title="Remove a card from ToGuessCard">
<polygon fill="white" stroke="black" points="666,-118.5 666,-139.5 922,-139.5 922,-118.5 666,-118.5"/>
<text text-anchor="middle" x="794" y="-125.9" font-family="Helvetica,sans-Serif" font-size="12.00">PlayerMasterController.RemoveToGuessCard</text>
</a>
</g>
</g>
<!-- Node8&#45;&gt;Node13 -->
<g id="edge18" class="edge">
<title>Node8&#45;&gt;Node13</title>
<path fill="none" stroke="midnightblue" d="M619.71,-122.5C631.32,-122.93 643.37,-123.39 655.48,-123.84"/>
<polygon fill="midnightblue" stroke="midnightblue" points="655.52,-127.34 665.65,-124.22 655.79,-120.35 655.52,-127.34"/>
</g>
<!-- Node9&#45;&gt;Node6 -->
<g id="edge12" class="edge">
<title>Node9&#45;&gt;Node6</title>
<path fill="none" stroke="midnightblue" d="M894.3,-93.2C904.42,-96.85 913.93,-101.95 922,-109 963.94,-145.62 916.51,-191.87 958,-229 959.54,-230.38 961.14,-231.67 962.8,-232.9"/>
<polygon fill="midnightblue" stroke="midnightblue" points="961.17,-236.01 971.49,-238.39 964.91,-230.09 961.17,-236.01"/>
</g>
<!-- Node10 -->
<g id="node10" class="node">
<title>Node10</title>
<g id="a_node10"><a xlink:href="class_a_i_controller_script.html#ab124aec8211aa7b8f00c6ef5db6bc96a" target="_top" xlink:title="for out putting the debug stack if outputDebugText is true, it will out put the the console as well">
<polygon fill="white" stroke="black" points="1439,-41.5 1439,-62.5 1619,-62.5 1619,-41.5 1439,-41.5"/>
<text text-anchor="middle" x="1529" y="-48.9" font-family="Helvetica,sans-Serif" font-size="12.00">AIControllerScript.OutputDebug</text>
</a>
</g>
</g>
<!-- Node9&#45;&gt;Node10 -->
<g id="edge13" class="edge">
<title>Node9&#45;&gt;Node10</title>
<path fill="none" stroke="midnightblue" d="M894.12,-87.49C1014.57,-85.14 1223.93,-79.4 1403,-66 1412.29,-65.3 1421.96,-64.45 1431.62,-63.51"/>
<polygon fill="midnightblue" stroke="midnightblue" points="1432.07,-66.99 1441.67,-62.51 1431.37,-60.02 1432.07,-66.99"/>
</g>
<!-- Node11 -->
<g id="node11" class="node">
<title>Node11</title>
<g id="a_node11"><a xlink:href="class_a_i_controller_script.html#aaee909cd0f0ffdedd8d8425607d7ccb5" target="_top" xlink:title="to set the AI&#39;s mode">
<polygon fill="white" stroke="black" points="983.5,-40.5 983.5,-61.5 1153.5,-61.5 1153.5,-40.5 983.5,-40.5"/>
<text text-anchor="middle" x="1068.5" y="-47.9" font-family="Helvetica,sans-Serif" font-size="12.00">AIControllerScript.SetAIMode</text>
</a>
</g>
</g>
<!-- Node9&#45;&gt;Node11 -->
<g id="edge14" class="edge">
<title>Node9&#45;&gt;Node11</title>
<path fill="none" stroke="midnightblue" d="M870.54,-78.47C905.1,-73.65 946.2,-67.92 981.89,-62.94"/>
<polygon fill="midnightblue" stroke="midnightblue" points="982.39,-66.4 991.81,-61.56 981.42,-59.47 982.39,-66.4"/>
</g>
<!-- Node11&#45;&gt;Node10 -->
<g id="edge17" class="edge">
<title>Node11&#45;&gt;Node10</title>
<path fill="none" stroke="midnightblue" d="M1153.6,-51.18C1231.27,-51.35 1346.72,-51.6 1428.86,-51.78"/>
<polygon fill="midnightblue" stroke="midnightblue" points="1428.95,-55.28 1438.96,-51.81 1428.97,-48.28 1428.95,-55.28"/>
</g>
<!-- Node12 -->
<g id="node12" class="node">
<title>Node12</title>
<g id="a_node12"><a xlink:href="class_a_i_controller_script.html#afcb2875a5501f07a7f44d0fa720266f3" target="_top" xlink:title="to delay the time for the next time the AI does something in the Update">
<polygon fill="white" stroke="black" points="1215,-2.5 1215,-23.5 1403,-23.5 1403,-2.5 1215,-2.5"/>
<text text-anchor="middle" x="1309" y="-9.9" font-family="Helvetica,sans-Serif" font-size="12.00">AIControllerScript.DelayDecision</text>
</a>
</g>
</g>
<!-- Node11&#45;&gt;Node12 -->
<g id="edge15" class="edge">
<title>Node11&#45;&gt;Node12</title>
<path fill="none" stroke="midnightblue" d="M1135.62,-40.47C1165.47,-35.71 1200.91,-30.06 1231.87,-25.13"/>
<polygon fill="midnightblue" stroke="midnightblue" points="1232.43,-28.59 1241.75,-23.56 1231.33,-21.67 1232.43,-28.59"/>
</g>
<!-- Node12&#45;&gt;Node10 -->
<g id="edge16" class="edge">
<title>Node12&#45;&gt;Node10</title>
<path fill="none" stroke="midnightblue" d="M1368.71,-23.5C1396.57,-28.49 1430.05,-34.48 1459.11,-39.68"/>
<polygon fill="midnightblue" stroke="midnightblue" points="1458.73,-43.16 1469.19,-41.48 1459.96,-36.27 1458.73,-43.16"/>
</g>
<!-- Node14 -->
<g id="node14" class="node">
<title>Node14</title>
<g id="a_node14"><a xlink:href="class_player_stats_script.html#a9cfb94bd7661f4120b9ea69c025bd368" target="_top" xlink:title="remove a selected card from To Guess List">
<polygon fill="white" stroke="black" points="958,-118.5 958,-139.5 1179,-139.5 1179,-118.5 958,-118.5"/>
<text text-anchor="middle" x="1068.5" y="-125.9" font-family="Helvetica,sans-Serif" font-size="12.00">PlayerStatsScript.RemoveToGessCard</text>
</a>
</g>
</g>
<!-- Node13&#45;&gt;Node14 -->
<g id="edge19" class="edge">
<title>Node13&#45;&gt;Node14</title>
<path fill="none" stroke="midnightblue" d="M922.08,-129C930.56,-129 939.09,-129 947.54,-129"/>
<polygon fill="midnightblue" stroke="midnightblue" points="947.79,-132.5 957.79,-129 947.79,-125.5 947.79,-132.5"/>
</g>
<!-- Node16 -->
<g id="node16" class="node">
<title>Node16</title>
<g id="a_node16"><a xlink:href="class_card_slot.html#a4690c0753db45ada6b02681269ecfbb1" target="_top" xlink:title=" ">
<polygon fill="white" stroke="black" points="720.5,-158.5 720.5,-179.5 867.5,-179.5 867.5,-158.5 720.5,-158.5"/>
<text text-anchor="middle" x="794" y="-165.9" font-family="Helvetica,sans-Serif" font-size="12.00">CardSlot.SetCardDetails</text>
</a>
</g>
</g>
<!-- Node15&#45;&gt;Node16 -->
<g id="edge21" class="edge">
<title>Node15&#45;&gt;Node16</title>
<path fill="none" stroke="midnightblue" d="M580.75,-169C617.87,-169 667.79,-169 709.89,-169"/>
<polygon fill="midnightblue" stroke="midnightblue" points="710.13,-172.5 720.13,-169 710.13,-165.5 710.13,-172.5"/>
</g>
<!-- Node16&#45;&gt;Node6 -->
<g id="edge24" class="edge">
<title>Node16&#45;&gt;Node6</title>
<path fill="none" stroke="midnightblue" d="M867.64,-175.89C886.09,-179.6 905.38,-185.29 922,-194 941.76,-204.36 938.17,-218.77 958,-229 962.55,-231.35 967.34,-233.42 972.26,-235.26"/>
<polygon fill="midnightblue" stroke="midnightblue" points="971.26,-238.62 981.86,-238.5 973.5,-231.98 971.26,-238.62"/>
</g>
<!-- Node17 -->
<g id="node17" class="node">
<title>Node17</title>
<g id="a_node17"><a xlink:href="class_card.html#a25e8366933b176fae41e4d2373be7815" target="_top" xlink:title=" ">
<polygon fill="white" stroke="black" points="1007,-158.5 1007,-179.5 1130,-179.5 1130,-158.5 1007,-158.5"/>
<text text-anchor="middle" x="1068.5" y="-165.9" font-family="Helvetica,sans-Serif" font-size="12.00">Card.GetCardImage</text>
</a>
</g>
</g>
<!-- Node16&#45;&gt;Node17 -->
<g id="edge22" class="edge">
<title>Node16&#45;&gt;Node17</title>
<path fill="none" stroke="midnightblue" d="M867.67,-169C907.55,-169 956.81,-169 996.44,-169"/>
<polygon fill="midnightblue" stroke="midnightblue" points="996.56,-172.5 1006.56,-169 996.56,-165.5 996.56,-172.5"/>
</g>
<!-- Node18 -->
<g id="node18" class="node">
<title>Node18</title>
<g id="a_node18"><a xlink:href="class_card.html#a094a5e7ea98cc156ac64e578a987be85" target="_top" xlink:title=" ">
<polygon fill="white" stroke="black" points="1010.5,-198.5 1010.5,-219.5 1126.5,-219.5 1126.5,-198.5 1010.5,-198.5"/>
<text text-anchor="middle" x="1068.5" y="-205.9" font-family="Helvetica,sans-Serif" font-size="12.00">Card.GetCardType</text>
</a>
</g>
</g>
<!-- Node16&#45;&gt;Node18 -->
<g id="edge23" class="edge">
<title>Node16&#45;&gt;Node18</title>
<path fill="none" stroke="midnightblue" d="M866.6,-179.51C907.88,-185.57 959.48,-193.14 1000.04,-199.1"/>
<polygon fill="midnightblue" stroke="midnightblue" points="999.7,-202.59 1010.11,-200.58 1000.72,-195.66 999.7,-202.59"/>
</g>
</g>
</svg>
        <g id="navigator" transform="translate(0 0)" fill="#404254">
                <rect fill="#f2f5e9" fill-opacity="0.5" stroke="#606060" stroke-width=".5" x="0" y="0" width="60" height="60"/>
                <use id="zoomplus" xlink:href="#zoomPlus" x="17" y="9" onmousedown="handleZoom(evt,'in')"/>
                <use id="zoomminus" xlink:href="#zoomMin" x="42" y="9" onmousedown="handleZoom(evt,'out')"/>
                <use id="reset" xlink:href="#resetDef" x="30" y="36" onmousedown="handleReset()"/>
                <g id="arrowUp" xlink:href="#dirArrow" transform="translate(30 24)" onmousedown="handlePan(0,-1)">
                  <use xlink:href="#rim" fill="#404040">
                        <set attributeName="fill" to="#808080" begin="arrowUp.mouseover" end="arrowUp.mouseout"/>
                  </use>
                  <path fill="none" stroke="white" stroke-width="1.5" d="M0,-3.0v7 M-2.5,-0.5L0,-3.0L2.5,-0.5"/>
                </g>
                <g id="arrowRight" xlink:href="#dirArrow" transform="rotate(90) translate(36 -43)" onmousedown="handlePan(1,0)">
                  <use xlink:href="#rim" fill="#404040">
                        <set attributeName="fill" to="#808080" begin="arrowRight.mouseover" end="arrowRight.mouseout"/>
                  </use>
                  <path fill="none" stroke="white" stroke-width="1.5" d="M0,-3.0v7 M-2.5,-0.5L0,-3.0L2.5,-0.5"/>
                </g>
                <g id="arrowDown" xlink:href="#dirArrow" transform="rotate(180) translate(-30 -48)" onmousedown="handlePan(0,1)">
                  <use xlink:href="#rim" fill="#404040">
                        <set attributeName="fill" to="#808080" begin="arrowDown.mouseover" end="arrowDown.mouseout"/>
                  </use>
                  <path fill="none" stroke="white" stroke-width="1.5" d="M0,-3.0v7 M-2.5,-0.5L0,-3.0L2.5,-0.5"/>
                </g>
                <g id="arrowLeft" xlink:href="#dirArrow" transform="rotate(270) translate(-36 17)" onmousedown="handlePan(-1,0)">
                  <use xlink:href="#rim" fill="#404040">
                        <set attributeName="fill" to="#808080" begin="arrowLeft.mouseover" end="arrowLeft.mouseout"/>
                  </use>
                  <path fill="none" stroke="white" stroke-width="1.5" d="M0,-3.0v7 M-2.5,-0.5L0,-3.0L2.5,-0.5"/>
                </g>
        </g>
        <svg viewBox="0 0 15 15" width="100%" height="30px" preserveAspectRatio="xMaxYMin meet">
         <g id="arrow_out" transform="scale(0.3 0.3)">
          <a xlink:href="class_u_i_handler_a7e471e88a4baaa1993d0a85035c38016_cgraph_org.svg" target="_base">
           <rect id="button" ry="5" rx="5" y="6" x="6" height="38" width="38"
                fill="#f2f5e9" fill-opacity="0.5" stroke="#606060" stroke-width="1.0"/>
           <path id="arrow"
             d="M 11.500037,31.436501 C 11.940474,20.09759 22.043105,11.32322 32.158766,21.979434 L 37.068811,17.246167 C 37.068811,17.246167 37.088388,32 37.088388,32 L 22.160133,31.978069 C 22.160133,31.978069 26.997745,27.140456 26.997745,27.140456 C 18.528582,18.264221 13.291696,25.230495 11.500037,31.436501 z"
             style="fill:#404040;"/>
          </a>
         </g>
        </svg>
</svg>
