<?xml version="1.0" encoding="UTF-8" standalone="no"?>
<!DOCTYPE svg PUBLIC "-//W3C//DTD SVG 1.1//EN"
 "http://www.w3.org/Graphics/SVG/1.1/DTD/svg11.dtd">
<!-- Generated by graphviz version 2.47.1 (20210417.1919)
 -->
<!-- Title: PlayerStatsScript.RemoveToGessCard Pages: 1 -->
<svg width="2235pt" height="110pt"
 viewBox="0.00 0.00 2235.00 110.00" xmlns="http://www.w3.org/2000/svg" xmlns:xlink="http://www.w3.org/1999/xlink">
<g id="graph0" class="graph" transform="scale(1 1) rotate(0) translate(4 106)">
<title>PlayerStatsScript.RemoveToGessCard</title>
<polygon fill="white" stroke="transparent" points="-4,4 -4,-106 2231,-106 2231,4 -4,4"/>
<!-- Node1 -->
<g id="node1" class="node">
<title>Node1</title>
<g id="a_node1"><a xlink:title="remove a selected card from To Guess List">
<polygon fill="#bfbfbf" stroke="black" points="2006,-59.5 2006,-80.5 2227,-80.5 2227,-59.5 2006,-59.5"/>
<text text-anchor="middle" x="2116.5" y="-66.9" font-family="Helvetica,sans-Serif" font-size="12.00">PlayerStatsScript.RemoveToGessCard</text>
</a>
</g>
</g>
<!-- Node2 -->
<g id="node2" class="node">
<title>Node2</title>
<g id="a_node2"><a xlink:href="class_player_master_controller.html#a16dbaeb841ba29cdc8b7cb3b3bc86d99" target="_top" xlink:title="Remove a card from ToGuessCard">
<polygon fill="white" stroke="black" points="1714,-59.5 1714,-80.5 1970,-80.5 1970,-59.5 1714,-59.5"/>
<text text-anchor="middle" x="1842" y="-66.9" font-family="Helvetica,sans-Serif" font-size="12.00">PlayerMasterController.RemoveToGuessCard</text>
</a>
</g>
</g>
<!-- Node1&#45;&gt;Node2 -->
<g id="edge1" class="edge">
<title>Node1&#45;&gt;Node2</title>
<path fill="none" stroke="midnightblue" d="M1995.65,-70C1987.25,-70 1978.77,-70 1970.34,-70"/>
<polygon fill="midnightblue" stroke="midnightblue" points="1995.84,-73.5 2005.84,-70 1995.84,-66.5 1995.84,-73.5"/>
</g>
<!-- Node3 -->
<g id="node3" class="node">
<title>Node3</title>
<g id="a_node3"><a xlink:href="class_round_manager.html#a6cf32ad7ffd3cafc902ae5faeb7605f8" target="_top" xlink:title="removing a card from the player&#39;s To Guess List notify the AI if a player finished showing a suggeste...">
<polygon fill="white" stroke="black" points="1490,-59.5 1490,-80.5 1678,-80.5 1678,-59.5 1490,-59.5"/>
<text text-anchor="middle" x="1584" y="-66.9" font-family="Helvetica,sans-Serif" font-size="12.00">RoundManager.NotifySuggestion</text>
</a>
</g>
</g>
<!-- Node2&#45;&gt;Node3 -->
<g id="edge2" class="edge">
<title>Node2&#45;&gt;Node3</title>
<path fill="none" stroke="midnightblue" d="M1703.59,-70C1694.96,-70 1686.37,-70 1678.01,-70"/>
<polygon fill="midnightblue" stroke="midnightblue" points="1703.75,-73.5 1713.75,-70 1703.75,-66.5 1703.75,-73.5"/>
</g>
<!-- Node4 -->
<g id="node4" class="node">
<title>Node4</title>
<g id="a_node4"><a xlink:href="class_round_manager.html#a596fc1c822ebb74dad8d238b15b1ea3a" target="_top" xlink:title="Iterate through the rest of the players searching for if 1 or more of the cards were found">
<polygon fill="white" stroke="black" points="895,-59.5 895,-80.5 1083,-80.5 1083,-59.5 895,-59.5"/>
<text text-anchor="middle" x="989" y="-66.9" font-family="Helvetica,sans-Serif" font-size="12.00">RoundManager.MakeSuggestion</text>
</a>
</g>
</g>
<!-- Node3&#45;&gt;Node4 -->
<g id="edge3" class="edge">
<title>Node3&#45;&gt;Node4</title>
<path fill="none" stroke="midnightblue" d="M1479.76,-70.87C1471.05,-70.92 1462.37,-70.97 1454,-71 1305.11,-71.58 1267.89,-71.58 1119,-71 1107.35,-70.95 1095.12,-70.89 1083.01,-70.81"/>
<polygon fill="midnightblue" stroke="midnightblue" points="1480.01,-74.37 1489.99,-70.81 1479.97,-67.37 1480.01,-74.37"/>
</g>
<!-- Node11 -->
<g id="node11" class="node">
<title>Node11</title>
<g id="a_node11"><a xlink:href="class_u_i_handler.html#a4009ca74f59111933be2a637c7835e18" target="_top" xlink:title="Displays a card from a player that has it">
<polygon fill="white" stroke="black" points="1328,-40.5 1328,-61.5 1454,-61.5 1454,-40.5 1328,-40.5"/>
<text text-anchor="middle" x="1391" y="-47.9" font-family="Helvetica,sans-Serif" font-size="12.00">UIHandler.ShowCard</text>
</a>
</g>
</g>
<!-- Node3&#45;&gt;Node11 -->
<g id="edge11" class="edge">
<title>Node3&#45;&gt;Node11</title>
<path fill="none" stroke="midnightblue" d="M1479.52,-59.71C1470.83,-58.84 1462.23,-57.99 1454.01,-57.17"/>
<polygon fill="midnightblue" stroke="midnightblue" points="1479.44,-63.22 1489.74,-60.72 1480.13,-56.25 1479.44,-63.22"/>
</g>
<!-- Node5 -->
<g id="node5" class="node">
<title>Node5</title>
<g id="a_node5"><a xlink:href="class_suggestion_test.html#ac6fed8b504eb8b103cb5c38fa895edf3" target="_top" xlink:title="get test choices and make suggestion">
<polygon fill="white" stroke="black" points="437.5,-80.5 437.5,-101.5 627.5,-101.5 627.5,-80.5 437.5,-80.5"/>
<text text-anchor="middle" x="532.5" y="-87.9" font-family="Helvetica,sans-Serif" font-size="12.00">SuggestionTest.MakeSuggestion</text>
</a>
</g>
</g>
<!-- Node4&#45;&gt;Node5 -->
<g id="edge4" class="edge">
<title>Node4&#45;&gt;Node5</title>
<path fill="none" stroke="midnightblue" d="M884.69,-74.77C807.41,-78.34 702.59,-83.19 627.62,-86.65"/>
<polygon fill="midnightblue" stroke="midnightblue" points="885.1,-78.26 894.93,-74.3 884.78,-71.27 885.1,-78.26"/>
</g>
<!-- Node6 -->
<g id="node6" class="node">
<title>Node6</title>
<g id="a_node6"><a xlink:href="class_user_controller.html#a6230816eec4c8be9bda248a166d7b9bd" target="_top" xlink:title="Makes suggestion">
<polygon fill="white" stroke="black" points="676,-40.5 676,-61.5 859,-61.5 859,-40.5 676,-40.5"/>
<text text-anchor="middle" x="767.5" y="-47.9" font-family="Helvetica,sans-Serif" font-size="12.00">UserController.MakeSuggestion</text>
</a>
</g>
</g>
<!-- Node4&#45;&gt;Node6 -->
<g id="edge5" class="edge">
<title>Node4&#45;&gt;Node6</title>
<path fill="none" stroke="midnightblue" d="M884.9,-61.08C876.35,-60.34 867.74,-59.59 859.28,-58.86"/>
<polygon fill="midnightblue" stroke="midnightblue" points="884.65,-64.57 894.91,-61.94 885.25,-57.59 884.65,-64.57"/>
</g>
<!-- Node6&#45;&gt;Node5 -->
<g id="edge10" class="edge">
<title>Node6&#45;&gt;Node5</title>
<path fill="none" stroke="midnightblue" d="M695.07,-63.26C662.98,-68.77 625.49,-75.21 594.71,-80.49"/>
<polygon fill="midnightblue" stroke="midnightblue" points="696.02,-66.65 705.28,-61.51 694.83,-59.75 696.02,-66.65"/>
</g>
<!-- Node7 -->
<g id="node7" class="node">
<title>Node7</title>
<g id="a_node7"><a xlink:href="class_u_i_handler.html#ae6960c4c231f0e85718af2150449bb1f" target="_top" xlink:title="Hides the suggestion panel">
<polygon fill="white" stroke="black" points="447,-40.5 447,-61.5 618,-61.5 618,-40.5 447,-40.5"/>
<text text-anchor="middle" x="532.5" y="-47.9" font-family="Helvetica,sans-Serif" font-size="12.00">UIHandler.ConfirmSuggestion</text>
</a>
</g>
</g>
<!-- Node6&#45;&gt;Node7 -->
<g id="edge6" class="edge">
<title>Node6&#45;&gt;Node7</title>
<path fill="none" stroke="midnightblue" d="M665.47,-51C649.74,-51 633.62,-51 618.29,-51"/>
<polygon fill="midnightblue" stroke="midnightblue" points="665.75,-54.5 675.75,-51 665.75,-47.5 665.75,-54.5"/>
</g>
<!-- Node8 -->
<g id="node8" class="node">
<title>Node8</title>
<g id="a_node8"><a xlink:href="class_a_i_controller_script.html#affdf86fa313c46463a9a5a2b20020a17" target="_top" xlink:title="Decides what the AI should suggest this should match the flow chart of the AI">
<polygon fill="white" stroke="black" points="425,-0.5 425,-21.5 640,-21.5 640,-0.5 425,-0.5"/>
<text text-anchor="middle" x="532.5" y="-7.9" font-family="Helvetica,sans-Serif" font-size="12.00">AIControllerScript.Decide_Suggestion</text>
</a>
</g>
</g>
<!-- Node6&#45;&gt;Node8 -->
<g id="edge7" class="edge">
<title>Node6&#45;&gt;Node8</title>
<path fill="none" stroke="midnightblue" d="M695.07,-38.74C662.98,-33.23 625.49,-26.79 594.71,-21.51"/>
<polygon fill="midnightblue" stroke="midnightblue" points="694.83,-42.25 705.28,-40.49 696.02,-35.35 694.83,-42.25"/>
</g>
<!-- Node9 -->
<g id="node9" class="node">
<title>Node9</title>
<g id="a_node9"><a xlink:href="class_a_i_controller_script.html#ac31d9b8dbb75696b181eff1fbef41b97" target="_top" xlink:title="dictates what the AI will do depending on what mode it is in">
<polygon fill="white" stroke="black" points="215,-0.5 215,-21.5 389,-21.5 389,-0.5 215,-0.5"/>
<text text-anchor="middle" x="302" y="-7.9" font-family="Helvetica,sans-Serif" font-size="12.00">AIControllerScript.AIBehaviour</text>
</a>
</g>
</g>
<!-- Node8&#45;&gt;Node9 -->
<g id="edge8" class="edge">
<title>Node8&#45;&gt;Node9</title>
<path fill="none" stroke="midnightblue" d="M414.82,-11C406.19,-11 397.58,-11 389.18,-11"/>
<polygon fill="midnightblue" stroke="midnightblue" points="414.94,-14.5 424.94,-11 414.94,-7.5 414.94,-14.5"/>
</g>
<!-- Node10 -->
<g id="node10" class="node">
<title>Node10</title>
<g id="a_node10"><a xlink:href="class_a_i_controller_script.html#a74dc0e720fafceb873d3b19c12f68d58" target="_top" xlink:title=" ">
<polygon fill="white" stroke="black" points="0,-0.5 0,-21.5 179,-21.5 179,-0.5 0,-0.5"/>
<text text-anchor="middle" x="89.5" y="-7.9" font-family="Helvetica,sans-Serif" font-size="12.00">AIControllerScript.FixedUpdate</text>
</a>
</g>
</g>
<!-- Node9&#45;&gt;Node10 -->
<g id="edge9" class="edge">
<title>Node9&#45;&gt;Node10</title>
<path fill="none" stroke="midnightblue" d="M204.57,-11C196.15,-11 187.67,-11 179.32,-11"/>
<polygon fill="midnightblue" stroke="midnightblue" points="204.77,-14.5 214.77,-11 204.77,-7.5 204.77,-14.5"/>
</g>
<!-- Node12 -->
<g id="node12" class="node">
<title>Node12</title>
<g id="a_node12"><a xlink:href="class_round_manager.html#a780da336fd16dcaee0f00306578f13b4" target="_top" xlink:title=" ">
<polygon fill="white" stroke="black" points="1122.5,-40.5 1122.5,-61.5 1288.5,-61.5 1288.5,-40.5 1122.5,-40.5"/>
<text text-anchor="middle" x="1205.5" y="-47.9" font-family="Helvetica,sans-Serif" font-size="12.00">RoundManager.AIShowCard</text>
</a>
</g>
</g>
<!-- Node11&#45;&gt;Node12 -->
<g id="edge12" class="edge">
<title>Node11&#45;&gt;Node12</title>
<path fill="none" stroke="midnightblue" d="M1317.69,-51C1308.19,-51 1298.39,-51 1288.73,-51"/>
<polygon fill="midnightblue" stroke="midnightblue" points="1317.88,-54.5 1327.88,-51 1317.88,-47.5 1317.88,-54.5"/>
</g>
<!-- Node13 -->
<g id="node13" class="node">
<title>Node13</title>
<g id="a_node13"><a xlink:href="class_u_i_handler.html#a7e471e88a4baaa1993d0a85035c38016" target="_top" xlink:title="After pressing a card to choose pass this card to show it">
<polygon fill="white" stroke="black" points="1119,-0.5 1119,-21.5 1292,-21.5 1292,-0.5 1119,-0.5"/>
<text text-anchor="middle" x="1205.5" y="-7.9" font-family="Helvetica,sans-Serif" font-size="12.00">UIHandler.ShowSelectedCard</text>
</a>
</g>
</g>
<!-- Node11&#45;&gt;Node13 -->
<g id="edge14" class="edge">
<title>Node11&#45;&gt;Node13</title>
<path fill="none" stroke="midnightblue" d="M1331.77,-38.31C1306.94,-32.89 1278.32,-26.66 1254.71,-21.51"/>
<polygon fill="midnightblue" stroke="midnightblue" points="1331.27,-41.78 1341.79,-40.49 1332.76,-34.94 1331.27,-41.78"/>
</g>
<!-- Node12&#45;&gt;Node4 -->
<g id="edge13" class="edge">
<title>Node12&#45;&gt;Node4</title>
<path fill="none" stroke="midnightblue" d="M1112.43,-59.16C1102.7,-60.02 1092.81,-60.89 1083.07,-61.76"/>
<polygon fill="midnightblue" stroke="midnightblue" points="1112.84,-62.63 1122.49,-58.26 1112.22,-55.66 1112.84,-62.63"/>
</g>
</g>
</svg>
