<?xml version="1.0" encoding="UTF-8" standalone="no"?>
<!DOCTYPE svg PUBLIC "-//W3C//DTD SVG 1.1//EN"
 "http://www.w3.org/Graphics/SVG/1.1/DTD/svg11.dtd">
<!-- Generated by graphviz version 2.47.1 (20210417.1919)
 -->
<!-- Title: DieSide.IsOnGround Pages: 1 -->
<svg width="403pt" height="30pt"
 viewBox="0.00 0.00 403.00 30.00" xmlns="http://www.w3.org/2000/svg" xmlns:xlink="http://www.w3.org/1999/xlink">
<g id="graph0" class="graph" transform="scale(1 1) rotate(0) translate(4 26)">
<title>DieSide.IsOnGround</title>
<polygon fill="white" stroke="transparent" points="-4,4 -4,-26 399,-26 399,4 -4,4"/>
<!-- Node1 -->
<g id="node1" class="node">
<title>Node1</title>
<g id="a_node1"><a xlink:title="Is the die side in contact with the board">
<polygon fill="#bfbfbf" stroke="black" points="270,-0.5 270,-21.5 395,-21.5 395,-0.5 270,-0.5"/>
<text text-anchor="middle" x="332.5" y="-7.9" font-family="Helvetica,sans-Serif" font-size="12.00">DieSide.IsOnGround</text>
</a>
</g>
</g>
<!-- Node2 -->
<g id="node2" class="node">
<title>Node2</title>
<g id="a_node2"><a xlink:href="class_die.html#a69a9f7355c4b76e3fb34747a8ee97b8f" target="_top" xlink:title="Set the current value of the die if on ground 0 if not.">
<polygon fill="white" stroke="black" points="113,-0.5 113,-21.5 234,-21.5 234,-0.5 113,-0.5"/>
<text text-anchor="middle" x="173.5" y="-7.9" font-family="Helvetica,sans-Serif" font-size="12.00">Die.CheckValueDie</text>
</a>
</g>
</g>
<!-- Node1&#45;&gt;Node2 -->
<g id="edge1" class="edge">
<title>Node1&#45;&gt;Node2</title>
<path fill="none" stroke="midnightblue" d="M259.87,-11C251.26,-11 242.54,-11 234.12,-11"/>
<polygon fill="midnightblue" stroke="midnightblue" points="259.9,-14.5 269.9,-11 259.9,-7.5 259.9,-14.5"/>
</g>
<!-- Node3 -->
<g id="node3" class="node">
<title>Node3</title>
<g id="a_node3"><a xlink:href="class_die.html#a1720b01fed5d5276f3761c944baa8126" target="_top" xlink:title="If die has been thrown, landed and stopped moving then update die value. If die stops on edge then ro...">
<polygon fill="white" stroke="black" points="0,-0.5 0,-21.5 77,-21.5 77,-0.5 0,-0.5"/>
<text text-anchor="middle" x="38.5" y="-7.9" font-family="Helvetica,sans-Serif" font-size="12.00">Die.Update</text>
</a>
</g>
</g>
<!-- Node2&#45;&gt;Node3 -->
<g id="edge2" class="edge">
<title>Node2&#45;&gt;Node3</title>
<path fill="none" stroke="midnightblue" d="M102.46,-11C93.81,-11 85.24,-11 77.34,-11"/>
<polygon fill="midnightblue" stroke="midnightblue" points="102.61,-14.5 112.61,-11 102.61,-7.5 102.61,-14.5"/>
</g>
</g>
</svg>
