<?xml version="1.0" encoding="UTF-8" standalone="no"?>
<!DOCTYPE svg PUBLIC "-//W3C//DTD SVG 1.1//EN"
 "http://www.w3.org/Graphics/SVG/1.1/DTD/svg11.dtd">
<!-- Generated by graphviz version 2.47.1 (20210417.1919)
 -->
<!-- Title: AIControllerScript.Decide_Accusation Pages: 1 -->
<!--zoomable 624 -->
<svg id="main" version="1.1" xmlns="http://www.w3.org/2000/svg" xmlns:xlink="http://www.w3.org/1999/xlink" xml:space="preserve" onload="init(evt)">
<style type="text/css"><![CDATA[
.edge:hover path { stroke: red; }
.edge:hover polygon { stroke: red; fill: red; }
]]></style>
<script type="text/javascript"><![CDATA[
var edges = document.getElementsByTagName('g');
if (edges && edges.length) {
  for (var i=0;i<edges.length;i++) {
    if (edges[i].id.substr(0,4)=='edge') {
      edges[i].setAttribute('class','edge');
    }
  }
}
]]></script>
        <defs>
                <circle id="rim" cx="0" cy="0" r="7"/>
                <circle id="rim2" cx="0" cy="0" r="3.5"/>
                <g id="zoomPlus">
                        <use xlink:href="#rim" fill="#404040">
                                <set attributeName="fill" to="#808080" begin="zoomplus.mouseover" end="zoomplus.mouseout"/>
                        </use>
                        <path d="M-4,0h8M0,-4v8" fill="none" stroke="white" stroke-width="1.5" pointer-events="none"/>
                </g>
                <g id="zoomMin">
                        <use xlink:href="#rim" fill="#404040">
                                <set attributeName="fill" to="#808080" begin="zoomminus.mouseover" end="zoomminus.mouseout"/>
                        </use>
                        <path d="M-4,0h8" fill="none" stroke="white" stroke-width="1.5" pointer-events="none"/>
                </g>
                <g id="dirArrow">
                        <path fill="none" stroke="white" stroke-width="1.5" d="M0,-3.0v7 M-2.5,-0.5L0,-3.0L2.5,-0.5"/>
                </g>
               <g id="resetDef">
                       <use xlink:href="#rim2" fill="#404040">
                               <set attributeName="fill" to="#808080" begin="reset.mouseover" end="reset.mouseout"/>
                       </use>
               </g>
        </defs>

<script type="text/javascript">
var viewWidth = 1194;
var viewHeight = 624;
var sectionId = 'dynsection-11';
</script>
<script xlink:href="svgpan.js"/>
<svg id="graph" class="graph">
<g id="viewport">
<title>AIControllerScript.Decide_Accusation</title>
<polygon fill="white" stroke="transparent" points="-4,4 -4,-620.24 1190,-620.24 1190,4 -4,4"/>
<!-- Node1 -->
<g id="node1" class="node">
<title>Node1</title>
<g id="a_node1"><a xlink:title="Decides that cards to accuse based on the To Guess List">
<polygon fill="#bfbfbf" stroke="black" points="0,-318.5 0,-339.5 214,-339.5 214,-318.5 0,-318.5"/>
<text text-anchor="middle" x="107" y="-325.9" font-family="Helvetica,sans-Serif" font-size="12.00">AIControllerScript.Decide_Accusation</text>
</a>
</g>
</g>
<!-- Node2 -->
<g id="node2" class="node">
<title>Node2</title>
<g id="a_node2"><a xlink:href="class_a_i_controller_script.html#af8ec3d63334b6e9973a077d6ad401f59" target="_top" xlink:title="to decide a random character from the To Guess List">
<polygon fill="white" stroke="black" points="753.5,-576.5 753.5,-597.5 961.5,-597.5 961.5,-576.5 753.5,-576.5"/>
<text text-anchor="middle" x="857.5" y="-583.9" font-family="Helvetica,sans-Serif" font-size="12.00">AIControllerScript.Decide_Character</text>
</a>
</g>
</g>
<!-- Node1&#45;&gt;Node2 -->
<g id="edge1" class="edge">
<title>Node1&#45;&gt;Node2</title>
<path fill="none" stroke="midnightblue" d="M111.38,-339.55C123.42,-375.23 167.96,-491.79 250,-540 423.9,-642.18 675.89,-618.06 792.67,-599.22"/>
<polygon fill="midnightblue" stroke="midnightblue" points="793.57,-602.62 802.86,-597.53 792.43,-595.71 793.57,-602.62"/>
</g>
<!-- Node4 -->
<g id="node4" class="node">
<title>Node4</title>
<g id="a_node4"><a xlink:href="class_a_i_controller_script.html#a585a72fce6ad8b1d60160b2ae0762769" target="_top" xlink:title="to decide a random Room from the To Guess List">
<polygon fill="white" stroke="black" points="763.5,-536.5 763.5,-557.5 951.5,-557.5 951.5,-536.5 763.5,-536.5"/>
<text text-anchor="middle" x="857.5" y="-543.9" font-family="Helvetica,sans-Serif" font-size="12.00">AIControllerScript.Decide_Room</text>
</a>
</g>
</g>
<!-- Node1&#45;&gt;Node4 -->
<g id="edge3" class="edge">
<title>Node1&#45;&gt;Node4</title>
<path fill="none" stroke="midnightblue" d="M112.56,-339.53C127.09,-371.58 175.73,-468.18 250,-507 334.73,-551.29 603.4,-552.92 753.15,-550.09"/>
<polygon fill="midnightblue" stroke="midnightblue" points="753.35,-553.59 763.28,-549.89 753.21,-546.59 753.35,-553.59"/>
</g>
<!-- Node5 -->
<g id="node5" class="node">
<title>Node5</title>
<g id="a_node5"><a xlink:href="class_a_i_controller_script.html#a739618354871d708a1e898c8b9a46dc8" target="_top" xlink:title="to decide a random weapon from the To Guess List">
<polygon fill="white" stroke="black" points="268.5,-476.5 268.5,-497.5 468.5,-497.5 468.5,-476.5 268.5,-476.5"/>
<text text-anchor="middle" x="368.5" y="-483.9" font-family="Helvetica,sans-Serif" font-size="12.00">AIControllerScript.Decide_Weapon</text>
</a>
</g>
</g>
<!-- Node1&#45;&gt;Node5 -->
<g id="edge5" class="edge">
<title>Node1&#45;&gt;Node5</title>
<path fill="none" stroke="midnightblue" d="M122.1,-339.66C147.16,-358.4 201.39,-397.99 250,-427 278,-443.71 311.2,-460.4 335.16,-471.91"/>
<polygon fill="midnightblue" stroke="midnightblue" points="333.96,-475.22 344.5,-476.36 336.98,-468.9 333.96,-475.22"/>
</g>
<!-- Node6 -->
<g id="node6" class="node">
<title>Node6</title>
<g id="a_node6"><a xlink:href="class_a_i_controller_script.html#afcb2875a5501f07a7f44d0fa720266f3" target="_top" xlink:title="to delay the time for the next time the AI does something in the Update">
<polygon fill="white" stroke="black" points="523,-318.5 523,-339.5 711,-339.5 711,-318.5 523,-318.5"/>
<text text-anchor="middle" x="617" y="-325.9" font-family="Helvetica,sans-Serif" font-size="12.00">AIControllerScript.DelayDecision</text>
</a>
</g>
</g>
<!-- Node1&#45;&gt;Node6 -->
<g id="edge7" class="edge">
<title>Node1&#45;&gt;Node6</title>
<path fill="none" stroke="midnightblue" d="M169.31,-339.55C194.26,-343.34 223.43,-347.14 250,-349 355.08,-356.36 381.98,-357.09 487,-349 507.68,-347.41 530.07,-344.4 550.29,-341.18"/>
<polygon fill="midnightblue" stroke="midnightblue" points="551.04,-344.61 560.34,-339.55 549.91,-337.7 551.04,-344.61"/>
</g>
<!-- Node8 -->
<g id="node8" class="node">
<title>Node8</title>
<g id="a_node8"><a xlink:href="class_player_master_controller.html#a4d2390b678a0d24484551a62a5332c75" target="_top" xlink:title=" ">
<polygon fill="white" stroke="black" points="250,-278.5 250,-299.5 487,-299.5 487,-278.5 250,-278.5"/>
<text text-anchor="middle" x="368.5" y="-285.9" font-family="Helvetica,sans-Serif" font-size="12.00">PlayerMasterController.GetToGuessCards</text>
</a>
</g>
</g>
<!-- Node1&#45;&gt;Node8 -->
<g id="edge9" class="edge">
<title>Node1&#45;&gt;Node8</title>
<path fill="none" stroke="midnightblue" d="M176.18,-318.49C210.91,-313.14 253.3,-306.6 289.34,-301.05"/>
<polygon fill="midnightblue" stroke="midnightblue" points="289.97,-304.49 299.32,-299.51 288.91,-297.57 289.97,-304.49"/>
</g>
<!-- Node9 -->
<g id="node9" class="node">
<title>Node9</title>
<g id="a_node9"><a xlink:href="class_a_i_controller_script.html#a68e87147ee3eff77870c974edbb2e7ea" target="_top" xlink:title="Load player&#39;s guess list">
<polygon fill="white" stroke="black" points="266.5,-238.5 266.5,-259.5 470.5,-259.5 470.5,-238.5 266.5,-238.5"/>
<text text-anchor="middle" x="368.5" y="-245.9" font-family="Helvetica,sans-Serif" font-size="12.00">AIControllerScript.LoadToGuessList</text>
</a>
</g>
</g>
<!-- Node1&#45;&gt;Node9 -->
<g id="edge10" class="edge">
<title>Node1&#45;&gt;Node9</title>
<path fill="none" stroke="midnightblue" d="M128.62,-318.49C155.76,-305.08 205.3,-282.06 250,-269 259.71,-266.16 269.99,-263.68 280.28,-261.52"/>
<polygon fill="midnightblue" stroke="midnightblue" points="281.01,-264.95 290.13,-259.55 279.63,-258.08 281.01,-264.95"/>
</g>
<!-- Node10 -->
<g id="node10" class="node">
<title>Node10</title>
<g id="a_node10"><a xlink:href="class_user_controller.html#aa90e4e2fed6b1d661933450f430b95ba" target="_top" xlink:title="Makes accusation">
<polygon fill="white" stroke="black" points="277.5,-396.5 277.5,-417.5 459.5,-417.5 459.5,-396.5 277.5,-396.5"/>
<text text-anchor="middle" x="368.5" y="-403.9" font-family="Helvetica,sans-Serif" font-size="12.00">UserController.MakeAccusation</text>
</a>
</g>
</g>
<!-- Node1&#45;&gt;Node10 -->
<g id="edge11" class="edge">
<title>Node1&#45;&gt;Node10</title>
<path fill="none" stroke="midnightblue" d="M132.76,-339.52C160.81,-351.13 208.06,-369.78 250,-382 265.92,-386.64 283.28,-390.8 299.66,-394.35"/>
<polygon fill="midnightblue" stroke="midnightblue" points="299.2,-397.83 309.7,-396.47 300.64,-390.98 299.2,-397.83"/>
</g>
<!-- Node19 -->
<g id="node19" class="node">
<title>Node19</title>
<g id="a_node19"><a xlink:href="class_a_i_controller_script.html#aaee909cd0f0ffdedd8d8425607d7ccb5" target="_top" xlink:title="to set the AI&#39;s mode">
<polygon fill="white" stroke="black" points="283.5,-318.5 283.5,-339.5 453.5,-339.5 453.5,-318.5 283.5,-318.5"/>
<text text-anchor="middle" x="368.5" y="-325.9" font-family="Helvetica,sans-Serif" font-size="12.00">AIControllerScript.SetAIMode</text>
</a>
</g>
</g>
<!-- Node1&#45;&gt;Node19 -->
<g id="edge21" class="edge">
<title>Node1&#45;&gt;Node19</title>
<path fill="none" stroke="midnightblue" d="M214.3,-329C233.76,-329 253.94,-329 273.03,-329"/>
<polygon fill="midnightblue" stroke="midnightblue" points="273.2,-332.5 283.2,-329 273.2,-325.5 273.2,-332.5"/>
</g>
<!-- Node20 -->
<g id="node20" class="node">
<title>Node20</title>
<g id="a_node20"><a xlink:href="class_user_controller.html#a16a0eca976cd0f767ab444ba8d96c4a8" target="_top" xlink:title="Sets character for suggestions and accusation">
<polygon fill="white" stroke="black" points="286.5,-139.5 286.5,-160.5 450.5,-160.5 450.5,-139.5 286.5,-139.5"/>
<text text-anchor="middle" x="368.5" y="-146.9" font-family="Helvetica,sans-Serif" font-size="12.00">UserController.SetCharacter</text>
</a>
</g>
</g>
<!-- Node1&#45;&gt;Node20 -->
<g id="edge24" class="edge">
<title>Node1&#45;&gt;Node20</title>
<path fill="none" stroke="midnightblue" d="M116.03,-318.2C135.89,-292.23 190.06,-225.7 250,-189 268.19,-177.86 289.93,-169.5 309.74,-163.43"/>
<polygon fill="midnightblue" stroke="midnightblue" points="310.98,-166.72 319.59,-160.55 309.01,-160 310.98,-166.72"/>
</g>
<!-- Node24 -->
<g id="node24" class="node">
<title>Node24</title>
<g id="a_node24"><a xlink:href="class_user_controller.html#a75e6950fdc74e232061ab078c36b9069" target="_top" xlink:title="Sets room for suggestions and accusation">
<polygon fill="white" stroke="black" points="296.5,-198.5 296.5,-219.5 440.5,-219.5 440.5,-198.5 296.5,-198.5"/>
<text text-anchor="middle" x="368.5" y="-205.9" font-family="Helvetica,sans-Serif" font-size="12.00">UserController.SetRoom</text>
</a>
</g>
</g>
<!-- Node1&#45;&gt;Node24 -->
<g id="edge28" class="edge">
<title>Node1&#45;&gt;Node24</title>
<path fill="none" stroke="midnightblue" d="M119.09,-318.49C141.7,-297.7 195.64,-251.41 250,-229 261.47,-224.27 274.02,-220.66 286.5,-217.9"/>
<polygon fill="midnightblue" stroke="midnightblue" points="287.38,-221.29 296.48,-215.87 285.98,-214.43 287.38,-221.29"/>
</g>
<!-- Node27 -->
<g id="node27" class="node">
<title>Node27</title>
<g id="a_node27"><a xlink:href="class_user_controller.html#aea1bd5d7b45854e5113b459a2b11dd35" target="_top" xlink:title="Sets weapon for suggestions and accusation">
<polygon fill="white" stroke="black" points="290,-60.5 290,-81.5 447,-81.5 447,-60.5 290,-60.5"/>
<text text-anchor="middle" x="368.5" y="-67.9" font-family="Helvetica,sans-Serif" font-size="12.00">UserController.SetWeapon</text>
</a>
</g>
</g>
<!-- Node1&#45;&gt;Node27 -->
<g id="edge32" class="edge">
<title>Node1&#45;&gt;Node27</title>
<path fill="none" stroke="midnightblue" d="M113.32,-318.11C129.62,-285.67 181.98,-188.25 250,-130 272.86,-110.43 303.33,-95.36 327.52,-85.36"/>
<polygon fill="midnightblue" stroke="midnightblue" points="329.14,-88.48 337.12,-81.51 326.54,-81.98 329.14,-88.48"/>
</g>
<!-- Node3 -->
<g id="node3" class="node">
<title>Node3</title>
<g id="a_node3"><a xlink:href="class_card.html#a094a5e7ea98cc156ac64e578a987be85" target="_top" xlink:title=" ">
<polygon fill="white" stroke="black" points="1037,-516.5 1037,-537.5 1153,-537.5 1153,-516.5 1037,-516.5"/>
<text text-anchor="middle" x="1095" y="-523.9" font-family="Helvetica,sans-Serif" font-size="12.00">Card.GetCardType</text>
</a>
</g>
</g>
<!-- Node2&#45;&gt;Node3 -->
<g id="edge2" class="edge">
<title>Node2&#45;&gt;Node3</title>
<path fill="none" stroke="midnightblue" d="M923.93,-576.45C938.51,-573.71 953.84,-570.53 968,-567 997.46,-559.67 1030.11,-549.23 1054.8,-540.86"/>
<polygon fill="midnightblue" stroke="midnightblue" points="1056.19,-544.08 1064.52,-537.53 1053.92,-537.46 1056.19,-544.08"/>
</g>
<!-- Node4&#45;&gt;Node3 -->
<g id="edge4" class="edge">
<title>Node4&#45;&gt;Node3</title>
<path fill="none" stroke="midnightblue" d="M951.58,-539.1C976.66,-536.96 1003.31,-534.7 1026.69,-532.72"/>
<polygon fill="midnightblue" stroke="midnightblue" points="1027.17,-536.19 1036.84,-531.85 1026.58,-529.21 1027.17,-536.19"/>
</g>
<!-- Node5&#45;&gt;Node3 -->
<g id="edge6" class="edge">
<title>Node5&#45;&gt;Node3</title>
<path fill="none" stroke="midnightblue" d="M468.72,-492.48C618.52,-500.75 898.51,-516.21 1026.74,-523.29"/>
<polygon fill="midnightblue" stroke="midnightblue" points="1026.64,-526.79 1036.82,-523.84 1027.03,-519.8 1026.64,-526.79"/>
</g>
<!-- Node7 -->
<g id="node7" class="node">
<title>Node7</title>
<g id="a_node7"><a xlink:href="class_a_i_controller_script.html#ab124aec8211aa7b8f00c6ef5db6bc96a" target="_top" xlink:title="for out putting the debug stack if outputDebugText is true, it will out put the the console as well">
<polygon fill="white" stroke="black" points="767.5,-258.5 767.5,-279.5 947.5,-279.5 947.5,-258.5 767.5,-258.5"/>
<text text-anchor="middle" x="857.5" y="-265.9" font-family="Helvetica,sans-Serif" font-size="12.00">AIControllerScript.OutputDebug</text>
</a>
</g>
</g>
<!-- Node6&#45;&gt;Node7 -->
<g id="edge8" class="edge">
<title>Node6&#45;&gt;Node7</title>
<path fill="none" stroke="midnightblue" d="M661.89,-318.48C677.52,-314.39 695.18,-309.4 711,-304 727.41,-298.4 730.38,-293.92 747,-289 756.38,-286.22 766.33,-283.76 776.27,-281.6"/>
<polygon fill="midnightblue" stroke="midnightblue" points="777.09,-285.01 786.17,-279.54 775.67,-278.15 777.09,-285.01"/>
</g>
<!-- Node11 -->
<g id="node11" class="node">
<title>Node11</title>
<g id="a_node11"><a xlink:href="class_accusation.html#abba1b95fd7e759eac9efbf52819abd75" target="_top" xlink:title="Passes a list of selected cards">
<polygon fill="white" stroke="black" points="559,-358.5 559,-379.5 675,-379.5 675,-358.5 559,-358.5"/>
<text text-anchor="middle" x="617" y="-365.9" font-family="Helvetica,sans-Serif" font-size="12.00">Accusation.Accuse</text>
</a>
</g>
</g>
<!-- Node10&#45;&gt;Node11 -->
<g id="edge12" class="edge">
<title>Node10&#45;&gt;Node11</title>
<path fill="none" stroke="midnightblue" d="M437.84,-396.47C472.46,-391.13 514.35,-384.67 548.82,-379.36"/>
<polygon fill="midnightblue" stroke="midnightblue" points="549.44,-382.8 558.79,-377.82 548.37,-375.88 549.44,-382.8"/>
</g>
<!-- Node12 -->
<g id="node12" class="node">
<title>Node12</title>
<g id="a_node12"><a xlink:href="class_round_manager.html#ab691cd5cd773e23822b237834b1fcb0a" target="_top" xlink:title="to have the current player to make an accusation eliminates the player if it is wrong wins the game i...">
<polygon fill="white" stroke="black" points="523.5,-398.5 523.5,-419.5 710.5,-419.5 710.5,-398.5 523.5,-398.5"/>
<text text-anchor="middle" x="617" y="-405.9" font-family="Helvetica,sans-Serif" font-size="12.00">RoundManager.MakeAccusation</text>
</a>
</g>
</g>
<!-- Node10&#45;&gt;Node12 -->
<g id="edge13" class="edge">
<title>Node10&#45;&gt;Node12</title>
<path fill="none" stroke="midnightblue" d="M459.54,-407.73C476.9,-407.87 495.21,-408.02 512.95,-408.16"/>
<polygon fill="midnightblue" stroke="midnightblue" points="513.28,-411.67 523.31,-408.25 513.34,-404.67 513.28,-411.67"/>
</g>
<!-- Node13 -->
<g id="node13" class="node">
<title>Node13</title>
<g id="a_node13"><a xlink:href="class_u_i_handler.html#a2db6b92acd51a72b431b3eacb3884ddd" target="_top" xlink:title="Displays a screen when a player is eliminated">
<polygon fill="white" stroke="black" points="758.5,-418.5 758.5,-439.5 956.5,-439.5 956.5,-418.5 758.5,-418.5"/>
<text text-anchor="middle" x="857.5" y="-425.9" font-family="Helvetica,sans-Serif" font-size="12.00">UIHandler.DisplayPlayerEliminated</text>
</a>
</g>
</g>
<!-- Node12&#45;&gt;Node13 -->
<g id="edge14" class="edge">
<title>Node12&#45;&gt;Node13</title>
<path fill="none" stroke="midnightblue" d="M710.55,-416.76C722.95,-417.8 735.75,-418.87 748.39,-419.93"/>
<polygon fill="midnightblue" stroke="midnightblue" points="748.22,-423.43 758.48,-420.78 748.8,-416.46 748.22,-423.43"/>
</g>
<!-- Node14 -->
<g id="node14" class="node">
<title>Node14</title>
<g id="a_node14"><a xlink:href="class_player_master_controller.html#a0dae7cbe3c8b1c8bcb5ca694d9815836" target="_top" xlink:title="eliminate player">
<polygon fill="white" stroke="black" points="747,-378.5 747,-399.5 968,-399.5 968,-378.5 747,-378.5"/>
<text text-anchor="middle" x="857.5" y="-385.9" font-family="Helvetica,sans-Serif" font-size="12.00">PlayerMasterController.EliminatePlayer</text>
</a>
</g>
</g>
<!-- Node12&#45;&gt;Node14 -->
<g id="edge15" class="edge">
<title>Node12&#45;&gt;Node14</title>
<path fill="none" stroke="midnightblue" d="M710.55,-401.24C719.21,-400.51 728.06,-399.77 736.92,-399.03"/>
<polygon fill="midnightblue" stroke="midnightblue" points="737.24,-402.51 746.91,-398.19 736.66,-395.54 737.24,-402.51"/>
</g>
<!-- Node15 -->
<g id="node15" class="node">
<title>Node15</title>
<g id="a_node15"><a xlink:href="class_round_manager.html#aab3f49a5e05508a8e023a497e763c1c8" target="_top" xlink:title="Gets the player controller for the current player">
<polygon fill="white" stroke="black" points="762.5,-338.5 762.5,-359.5 952.5,-359.5 952.5,-338.5 762.5,-338.5"/>
<text text-anchor="middle" x="857.5" y="-345.9" font-family="Helvetica,sans-Serif" font-size="12.00">RoundManager.GetCurrentPlayer</text>
</a>
</g>
</g>
<!-- Node12&#45;&gt;Node15 -->
<g id="edge16" class="edge">
<title>Node12&#45;&gt;Node15</title>
<path fill="none" stroke="midnightblue" d="M679.77,-398.4C690.35,-395.83 701.11,-392.72 711,-389 728.13,-382.56 729.77,-375.17 747,-369 754.57,-366.29 762.56,-363.93 770.65,-361.89"/>
<polygon fill="midnightblue" stroke="midnightblue" points="771.62,-365.25 780.54,-359.54 770.01,-358.44 771.62,-365.25"/>
</g>
<!-- Node17 -->
<g id="node17" class="node">
<title>Node17</title>
<g id="a_node17"><a xlink:href="class_enum_to_string.html#a078a1fb16a0030544fac1b96a90b6b83" target="_top" xlink:title="Get a string value from a valid enum">
<polygon fill="white" stroke="black" points="757,-298.5 757,-319.5 958,-319.5 958,-298.5 757,-298.5"/>
<text text-anchor="middle" x="857.5" y="-305.9" font-family="Helvetica,sans-Serif" font-size="12.00">EnumToString.GetStringFromEnum</text>
</a>
</g>
</g>
<!-- Node12&#45;&gt;Node17 -->
<g id="edge18" class="edge">
<title>Node12&#45;&gt;Node17</title>
<path fill="none" stroke="midnightblue" d="M693.89,-398.33C699.96,-395.82 705.76,-392.75 711,-389 736.29,-370.9 721.43,-346.7 747,-329 749.62,-327.19 752.35,-325.53 755.17,-324"/>
<polygon fill="midnightblue" stroke="midnightblue" points="756.93,-327.04 764.47,-319.6 753.93,-320.72 756.93,-327.04"/>
</g>
<!-- Node18 -->
<g id="node18" class="node">
<title>Node18</title>
<g id="a_node18"><a xlink:href="class_card_manager.html#a3aa02d8bc476530b2e8e18019aa8a00e" target="_top" xlink:title="Check if the cards passed matches the answer">
<polygon fill="white" stroke="black" points="772,-458.5 772,-479.5 943,-479.5 943,-458.5 772,-458.5"/>
<text text-anchor="middle" x="857.5" y="-465.9" font-family="Helvetica,sans-Serif" font-size="12.00">CardManager.IsMatchAnswer</text>
</a>
</g>
</g>
<!-- Node12&#45;&gt;Node18 -->
<g id="edge19" class="edge">
<title>Node12&#45;&gt;Node18</title>
<path fill="none" stroke="midnightblue" d="M648.47,-419.58C674.42,-428.32 712.84,-440.62 747,-449 758.1,-451.73 769.93,-454.26 781.54,-456.54"/>
<polygon fill="midnightblue" stroke="midnightblue" points="781.19,-460.04 791.67,-458.49 782.51,-453.17 781.19,-460.04"/>
</g>
<!-- Node16 -->
<g id="node16" class="node">
<title>Node16</title>
<g id="a_node16"><a xlink:href="class_turn_controller.html#af16e42b7e61c5a999291327e2e556caa" target="_top" xlink:title=" ">
<polygon fill="white" stroke="black" points="1004,-338.5 1004,-359.5 1186,-359.5 1186,-338.5 1004,-338.5"/>
<text text-anchor="middle" x="1095" y="-345.9" font-family="Helvetica,sans-Serif" font-size="12.00">TurnController.GetCurrentPlayer</text>
</a>
</g>
</g>
<!-- Node15&#45;&gt;Node16 -->
<g id="edge17" class="edge">
<title>Node15&#45;&gt;Node16</title>
<path fill="none" stroke="midnightblue" d="M952.59,-349C966.07,-349 979.97,-349 993.57,-349"/>
<polygon fill="midnightblue" stroke="midnightblue" points="993.89,-352.5 1003.89,-349 993.89,-345.5 993.89,-352.5"/>
</g>
<!-- Node18&#45;&gt;Node3 -->
<g id="edge20" class="edge">
<title>Node18&#45;&gt;Node3</title>
<path fill="none" stroke="midnightblue" d="M906.01,-479.5C925.28,-483.85 947.73,-489.03 968,-494 993.66,-500.29 1022.13,-507.71 1045.51,-513.92"/>
<polygon fill="midnightblue" stroke="midnightblue" points="1044.64,-517.31 1055.2,-516.5 1046.44,-510.54 1044.64,-517.31"/>
</g>
<!-- Node19&#45;&gt;Node6 -->
<g id="edge22" class="edge">
<title>Node19&#45;&gt;Node6</title>
<path fill="none" stroke="midnightblue" d="M453.64,-329C472.64,-329 493.03,-329 512.72,-329"/>
<polygon fill="midnightblue" stroke="midnightblue" points="512.94,-332.5 522.94,-329 512.94,-325.5 512.94,-332.5"/>
</g>
<!-- Node19&#45;&gt;Node7 -->
<g id="edge23" class="edge">
<title>Node19&#45;&gt;Node7</title>
<path fill="none" stroke="midnightblue" d="M449.15,-318.47C472.9,-315.37 499,-312 523,-309 601.7,-299.15 690.92,-288.48 757.26,-280.63"/>
<polygon fill="midnightblue" stroke="midnightblue" points="757.77,-284.1 767.29,-279.45 756.95,-277.15 757.77,-284.1"/>
</g>
<!-- Node21 -->
<g id="node21" class="node">
<title>Node21</title>
<g id="a_node21"><a xlink:href="class_card_manager.html#a124d7d9ab3a0e7c22ca64c15da76d4b1" target="_top" xlink:title="Looks for the specified weapon card">
<polygon fill="white" stroke="black" points="546,-160.5 546,-181.5 688,-181.5 688,-160.5 546,-160.5"/>
<text text-anchor="middle" x="617" y="-167.9" font-family="Helvetica,sans-Serif" font-size="12.00">CardManager.FindCard</text>
</a>
</g>
</g>
<!-- Node20&#45;&gt;Node21 -->
<g id="edge25" class="edge">
<title>Node20&#45;&gt;Node21</title>
<path fill="none" stroke="midnightblue" d="M450.55,-156.91C477.8,-159.23 508.18,-161.81 535.4,-164.13"/>
<polygon fill="midnightblue" stroke="midnightblue" points="535.4,-167.65 545.66,-165.01 535.99,-160.67 535.4,-167.65"/>
</g>
<!-- Node22 -->
<g id="node22" class="node">
<title>Node22</title>
<g id="a_node22"><a xlink:href="class_accusation.html#ac3146e7ac1d8844109100dc748bba140" target="_top" xlink:title="Set the current character for accusing">
<polygon fill="white" stroke="black" points="543.5,-120.5 543.5,-141.5 690.5,-141.5 690.5,-120.5 543.5,-120.5"/>
<text text-anchor="middle" x="617" y="-127.9" font-family="Helvetica,sans-Serif" font-size="12.00">Accusation.SetCharacter</text>
</a>
</g>
</g>
<!-- Node20&#45;&gt;Node22 -->
<g id="edge26" class="edge">
<title>Node20&#45;&gt;Node22</title>
<path fill="none" stroke="midnightblue" d="M450.55,-143.75C477.06,-141.71 506.52,-139.44 533.15,-137.39"/>
<polygon fill="midnightblue" stroke="midnightblue" points="533.51,-140.87 543.21,-136.61 532.97,-133.89 533.51,-140.87"/>
</g>
<!-- Node23 -->
<g id="node23" class="node">
<title>Node23</title>
<g id="a_node23"><a xlink:href="class_suggestion.html#ae03e87f844af513f0b46a5447a2cd427" target="_top" xlink:title=" ">
<polygon fill="white" stroke="black" points="532,-80.5 532,-101.5 702,-101.5 702,-80.5 532,-80.5"/>
<text text-anchor="middle" x="617" y="-87.9" font-family="Helvetica,sans-Serif" font-size="12.00">Suggestion.SetSugCharacter</text>
</a>
</g>
</g>
<!-- Node20&#45;&gt;Node23 -->
<g id="edge27" class="edge">
<title>Node20&#45;&gt;Node23</title>
<path fill="none" stroke="midnightblue" d="M409.16,-139.5C440.09,-131.4 484.18,-120.1 523,-111 533.46,-108.55 544.62,-106.05 555.43,-103.69"/>
<polygon fill="midnightblue" stroke="midnightblue" points="556.21,-107.1 565.24,-101.56 554.73,-100.26 556.21,-107.1"/>
</g>
<!-- Node24&#45;&gt;Node21 -->
<g id="edge29" class="edge">
<title>Node24&#45;&gt;Node21</title>
<path fill="none" stroke="midnightblue" d="M437.84,-198.47C468.69,-193.71 505.32,-188.06 537.32,-183.13"/>
<polygon fill="midnightblue" stroke="midnightblue" points="538.18,-186.54 547.53,-181.56 537.11,-179.62 538.18,-186.54"/>
</g>
<!-- Node25 -->
<g id="node25" class="node">
<title>Node25</title>
<g id="a_node25"><a xlink:href="class_accusation.html#a15c3190bb9b3ff4be98195a3f72bcd23" target="_top" xlink:title="Set the current room for accusing">
<polygon fill="white" stroke="black" points="553.5,-240.5 553.5,-261.5 680.5,-261.5 680.5,-240.5 553.5,-240.5"/>
<text text-anchor="middle" x="617" y="-247.9" font-family="Helvetica,sans-Serif" font-size="12.00">Accusation.SetRoom</text>
</a>
</g>
</g>
<!-- Node24&#45;&gt;Node25 -->
<g id="edge30" class="edge">
<title>Node24&#45;&gt;Node25</title>
<path fill="none" stroke="midnightblue" d="M431.4,-219.53C449.33,-222.58 468.95,-225.92 487,-229 505.6,-232.17 525.72,-235.6 544.4,-238.79"/>
<polygon fill="midnightblue" stroke="midnightblue" points="543.88,-242.25 554.32,-240.48 545.05,-235.35 543.88,-242.25"/>
</g>
<!-- Node26 -->
<g id="node26" class="node">
<title>Node26</title>
<g id="a_node26"><a xlink:href="class_suggestion.html#aec2e9ce82ae5f51cea7570bc6dafa43a" target="_top" xlink:title=" ">
<polygon fill="white" stroke="black" points="542.5,-200.5 542.5,-221.5 691.5,-221.5 691.5,-200.5 542.5,-200.5"/>
<text text-anchor="middle" x="617" y="-207.9" font-family="Helvetica,sans-Serif" font-size="12.00">Suggestion.SetSugRoom</text>
</a>
</g>
</g>
<!-- Node24&#45;&gt;Node26 -->
<g id="edge31" class="edge">
<title>Node24&#45;&gt;Node26</title>
<path fill="none" stroke="midnightblue" d="M440.8,-209.58C469.29,-209.81 502.31,-210.08 531.96,-210.32"/>
<polygon fill="midnightblue" stroke="midnightblue" points="532.26,-213.82 542.29,-210.4 532.32,-206.82 532.26,-213.82"/>
</g>
<!-- Node27&#45;&gt;Node21 -->
<g id="edge33" class="edge">
<title>Node27&#45;&gt;Node21</title>
<path fill="none" stroke="midnightblue" d="M391.8,-81.68C415.6,-93.2 454.29,-112.27 487,-130 503.28,-138.83 505.73,-144.3 523,-151 529.67,-153.59 536.74,-155.87 543.9,-157.88"/>
<polygon fill="midnightblue" stroke="midnightblue" points="543.1,-161.29 553.67,-160.45 544.89,-154.52 543.1,-161.29"/>
</g>
<!-- Node28 -->
<g id="node28" class="node">
<title>Node28</title>
<g id="a_node28"><a xlink:href="class_suggestion.html#a1e1c18344f7cb7b0bde20ad7fa59286c" target="_top" xlink:title=" ">
<polygon fill="white" stroke="black" points="536,-40.5 536,-61.5 698,-61.5 698,-40.5 536,-40.5"/>
<text text-anchor="middle" x="617" y="-47.9" font-family="Helvetica,sans-Serif" font-size="12.00">Suggestion.SetSugWeapon</text>
</a>
</g>
</g>
<!-- Node27&#45;&gt;Node28 -->
<g id="edge34" class="edge">
<title>Node27&#45;&gt;Node28</title>
<path fill="none" stroke="midnightblue" d="M447.16,-64.7C472.07,-62.68 499.88,-60.42 525.63,-58.33"/>
<polygon fill="midnightblue" stroke="midnightblue" points="526.08,-61.81 535.76,-57.51 525.51,-54.83 526.08,-61.81"/>
</g>
<!-- Node29 -->
<g id="node29" class="node">
<title>Node29</title>
<g id="a_node29"><a xlink:href="class_accusation.html#a8ec681e44a6b354d986656ea54b6dd36" target="_top" xlink:title="Set the current weapon for accusing">
<polygon fill="white" stroke="black" points="547,-0.5 547,-21.5 687,-21.5 687,-0.5 547,-0.5"/>
<text text-anchor="middle" x="617" y="-7.9" font-family="Helvetica,sans-Serif" font-size="12.00">Accusation.SetWeapon</text>
</a>
</g>
</g>
<!-- Node27&#45;&gt;Node29 -->
<g id="edge35" class="edge">
<title>Node27&#45;&gt;Node29</title>
<path fill="none" stroke="midnightblue" d="M408.18,-60.43C439.15,-52.08 483.75,-40.33 523,-31 533.46,-28.51 544.61,-26 555.42,-23.63"/>
<polygon fill="midnightblue" stroke="midnightblue" points="556.2,-27.05 565.23,-21.5 554.72,-20.2 556.2,-27.05"/>
</g>
</g>
</svg>
        <g id="navigator" transform="translate(0 0)" fill="#404254">
                <rect fill="#f2f5e9" fill-opacity="0.5" stroke="#606060" stroke-width=".5" x="0" y="0" width="60" height="60"/>
                <use id="zoomplus" xlink:href="#zoomPlus" x="17" y="9" onmousedown="handleZoom(evt,'in')"/>
                <use id="zoomminus" xlink:href="#zoomMin" x="42" y="9" onmousedown="handleZoom(evt,'out')"/>
                <use id="reset" xlink:href="#resetDef" x="30" y="36" onmousedown="handleReset()"/>
                <g id="arrowUp" xlink:href="#dirArrow" transform="translate(30 24)" onmousedown="handlePan(0,-1)">
                  <use xlink:href="#rim" fill="#404040">
                        <set attributeName="fill" to="#808080" begin="arrowUp.mouseover" end="arrowUp.mouseout"/>
                  </use>
                  <path fill="none" stroke="white" stroke-width="1.5" d="M0,-3.0v7 M-2.5,-0.5L0,-3.0L2.5,-0.5"/>
                </g>
                <g id="arrowRight" xlink:href="#dirArrow" transform="rotate(90) translate(36 -43)" onmousedown="handlePan(1,0)">
                  <use xlink:href="#rim" fill="#404040">
                        <set attributeName="fill" to="#808080" begin="arrowRight.mouseover" end="arrowRight.mouseout"/>
                  </use>
                  <path fill="none" stroke="white" stroke-width="1.5" d="M0,-3.0v7 M-2.5,-0.5L0,-3.0L2.5,-0.5"/>
                </g>
                <g id="arrowDown" xlink:href="#dirArrow" transform="rotate(180) translate(-30 -48)" onmousedown="handlePan(0,1)">
                  <use xlink:href="#rim" fill="#404040">
                        <set attributeName="fill" to="#808080" begin="arrowDown.mouseover" end="arrowDown.mouseout"/>
                  </use>
                  <path fill="none" stroke="white" stroke-width="1.5" d="M0,-3.0v7 M-2.5,-0.5L0,-3.0L2.5,-0.5"/>
                </g>
                <g id="arrowLeft" xlink:href="#dirArrow" transform="rotate(270) translate(-36 17)" onmousedown="handlePan(-1,0)">
                  <use xlink:href="#rim" fill="#404040">
                        <set attributeName="fill" to="#808080" begin="arrowLeft.mouseover" end="arrowLeft.mouseout"/>
                  </use>
                  <path fill="none" stroke="white" stroke-width="1.5" d="M0,-3.0v7 M-2.5,-0.5L0,-3.0L2.5,-0.5"/>
                </g>
        </g>
        <svg viewBox="0 0 15 15" width="100%" height="30px" preserveAspectRatio="xMaxYMin meet">
         <g id="arrow_out" transform="scale(0.3 0.3)">
          <a xlink:href="class_a_i_controller_script_a7be5eb284c6258672e70af128f8638df_cgraph_org.svg" target="_base">
           <rect id="button" ry="5" rx="5" y="6" x="6" height="38" width="38"
                fill="#f2f5e9" fill-opacity="0.5" stroke="#606060" stroke-width="1.0"/>
           <path id="arrow"
             d="M 11.500037,31.436501 C 11.940474,20.09759 22.043105,11.32322 32.158766,21.979434 L 37.068811,17.246167 C 37.068811,17.246167 37.088388,32 37.088388,32 L 22.160133,31.978069 C 22.160133,31.978069 26.997745,27.140456 26.997745,27.140456 C 18.528582,18.264221 13.291696,25.230495 11.500037,31.436501 z"
             style="fill:#404040;"/>
          </a>
         </g>
        </svg>
</svg>
