<?xml version="1.0" encoding="UTF-8" standalone="no"?>
<!DOCTYPE svg PUBLIC "-//W3C//DTD SVG 1.1//EN"
 "http://www.w3.org/Graphics/SVG/1.1/DTD/svg11.dtd">
<!-- Generated by graphviz version 2.47.1 (20210417.1919)
 -->
<!-- Title: Dice.GetValue Pages: 1 -->
<svg width="402pt" height="30pt"
 viewBox="0.00 0.00 402.00 30.00" xmlns="http://www.w3.org/2000/svg" xmlns:xlink="http://www.w3.org/1999/xlink">
<g id="graph0" class="graph" transform="scale(1 1) rotate(0) translate(4 26)">
<title>Dice.GetValue</title>
<polygon fill="white" stroke="transparent" points="-4,4 -4,-26 398,-26 398,4 -4,4"/>
<!-- Node1 -->
<g id="node1" class="node">
<title>Node1</title>
<g id="a_node1"><a xlink:title="Get value of all dice">
<polygon fill="#bfbfbf" stroke="black" points="0,-0.5 0,-21.5 93,-21.5 93,-0.5 0,-0.5"/>
<text text-anchor="middle" x="46.5" y="-7.9" font-family="Helvetica,sans-Serif" font-size="12.00">Dice.GetValue</text>
</a>
</g>
</g>
<!-- Node2 -->
<g id="node2" class="node">
<title>Node2</title>
<g id="a_node2"><a xlink:href="class_dice.html#a84cd116dad344495cac8589afc974140" target="_top" xlink:title="Calculate total value of all dice">
<polygon fill="white" stroke="black" points="129,-0.5 129,-21.5 252,-21.5 252,-0.5 129,-0.5"/>
<text text-anchor="middle" x="190.5" y="-7.9" font-family="Helvetica,sans-Serif" font-size="12.00">Dice.CalculateValue</text>
</a>
</g>
</g>
<!-- Node1&#45;&gt;Node2 -->
<g id="edge1" class="edge">
<title>Node1&#45;&gt;Node2</title>
<path fill="none" stroke="midnightblue" d="M93.21,-11C101.37,-11 110.04,-11 118.71,-11"/>
<polygon fill="midnightblue" stroke="midnightblue" points="118.85,-14.5 128.85,-11 118.85,-7.5 118.85,-14.5"/>
</g>
<!-- Node3 -->
<g id="node3" class="node">
<title>Node3</title>
<g id="a_node3"><a xlink:href="class_die.html#ad1f02edcfdd486ab3da75162daab3570" target="_top" xlink:title="Get the value of the die">
<polygon fill="white" stroke="black" points="288,-0.5 288,-21.5 394,-21.5 394,-0.5 288,-0.5"/>
<text text-anchor="middle" x="341" y="-7.9" font-family="Helvetica,sans-Serif" font-size="12.00">Die.GetValueDie</text>
</a>
</g>
</g>
<!-- Node2&#45;&gt;Node3 -->
<g id="edge2" class="edge">
<title>Node2&#45;&gt;Node3</title>
<path fill="none" stroke="midnightblue" d="M252.33,-11C260.64,-11 269.19,-11 277.53,-11"/>
<polygon fill="midnightblue" stroke="midnightblue" points="277.58,-14.5 287.58,-11 277.58,-7.5 277.58,-14.5"/>
</g>
</g>
</svg>
