<?xml version="1.0" encoding="UTF-8" standalone="no"?>
<!DOCTYPE svg PUBLIC "-//W3C//DTD SVG 1.1//EN"
 "http://www.w3.org/Graphics/SVG/1.1/DTD/svg11.dtd">
<!-- Generated by graphviz version 2.47.1 (20210417.1919)
 -->
<!-- Title: BoardBuilder.CheckNearbyTiles Pages: 1 -->
<svg width="797pt" height="70pt"
 viewBox="0.00 0.00 797.00 70.00" xmlns="http://www.w3.org/2000/svg" xmlns:xlink="http://www.w3.org/1999/xlink">
<g id="graph0" class="graph" transform="scale(1 1) rotate(0) translate(4 66)">
<title>BoardBuilder.CheckNearbyTiles</title>
<polygon fill="white" stroke="transparent" points="-4,4 -4,-66 793,-66 793,4 -4,4"/>
<!-- Node1 -->
<g id="node1" class="node">
<title>Node1</title>
<g id="a_node1"><a xlink:title="Check for nearby bonus / start tiles in order to space out around the board">
<polygon fill="#bfbfbf" stroke="black" points="0,-20.5 0,-41.5 185,-41.5 185,-20.5 0,-20.5"/>
<text text-anchor="middle" x="92.5" y="-27.9" font-family="Helvetica,sans-Serif" font-size="12.00">BoardBuilder.CheckNearbyTiles</text>
</a>
</g>
</g>
<!-- Node2 -->
<g id="node2" class="node">
<title>Node2</title>
<g id="a_node2"><a xlink:href="class_board_manager.html#a1ea52b667d1dd7ca6b4fa956a19ee26d" target="_top" xlink:title="Perform bfs search for the tiles">
<polygon fill="white" stroke="black" points="221,-20.5 221,-41.5 335,-41.5 335,-20.5 221,-20.5"/>
<text text-anchor="middle" x="278" y="-27.9" font-family="Helvetica,sans-Serif" font-size="12.00">BoardManager.bfs</text>
</a>
</g>
</g>
<!-- Node1&#45;&gt;Node2 -->
<g id="edge1" class="edge">
<title>Node1&#45;&gt;Node2</title>
<path fill="none" stroke="midnightblue" d="M185.25,-31C193.91,-31 202.58,-31 210.93,-31"/>
<polygon fill="midnightblue" stroke="midnightblue" points="210.95,-34.5 220.95,-31 210.95,-27.5 210.95,-34.5"/>
</g>
<!-- Node3 -->
<g id="node3" class="node">
<title>Node3</title>
<g id="a_node3"><a xlink:href="class_board_manager.html#ae3af0b08bdfbc0ebcda23950eb935a5d" target="_top" xlink:title="Return array of all neighbours of given tile">
<polygon fill="white" stroke="black" points="371,-40.5 371,-61.5 567,-61.5 567,-40.5 371,-40.5"/>
<text text-anchor="middle" x="469" y="-47.9" font-family="Helvetica,sans-Serif" font-size="12.00">BoardManager.GetTileNeighbours</text>
</a>
</g>
</g>
<!-- Node2&#45;&gt;Node3 -->
<g id="edge2" class="edge">
<title>Node2&#45;&gt;Node3</title>
<path fill="none" stroke="midnightblue" d="M335.19,-36.95C343.42,-37.82 352.1,-38.74 360.94,-39.67"/>
<polygon fill="midnightblue" stroke="midnightblue" points="360.65,-43.16 370.97,-40.73 361.39,-36.2 360.65,-43.16"/>
</g>
<!-- Node5 -->
<g id="node5" class="node">
<title>Node5</title>
<g id="a_node5"><a xlink:href="class_board_tile_script.html#aeee5122d5e5b79867f6538ec4d597b6a" target="_top" xlink:title="check if tile is empty">
<polygon fill="white" stroke="black" points="397.5,-0.5 397.5,-21.5 540.5,-21.5 540.5,-0.5 397.5,-0.5"/>
<text text-anchor="middle" x="469" y="-7.9" font-family="Helvetica,sans-Serif" font-size="12.00">BoardTileScript.IsEmpty</text>
</a>
</g>
</g>
<!-- Node2&#45;&gt;Node5 -->
<g id="edge4" class="edge">
<title>Node2&#45;&gt;Node5</title>
<path fill="none" stroke="midnightblue" d="M335.19,-25.05C351.48,-23.33 369.58,-21.41 387.06,-19.56"/>
<polygon fill="midnightblue" stroke="midnightblue" points="387.68,-23.02 397.26,-18.49 386.95,-16.06 387.68,-23.02"/>
</g>
<!-- Node4 -->
<g id="node4" class="node">
<title>Node4</title>
<g id="a_node4"><a xlink:href="class_board_manager.html#a6b2b89b5ce622bf45676e6993f8ec216" target="_top" xlink:title="Get a tile from the array using a grid reference.">
<polygon fill="white" stroke="black" points="603,-40.5 603,-61.5 789,-61.5 789,-40.5 603,-40.5"/>
<text text-anchor="middle" x="696" y="-47.9" font-family="Helvetica,sans-Serif" font-size="12.00">BoardManager.GetTileFromGrid</text>
</a>
</g>
</g>
<!-- Node3&#45;&gt;Node4 -->
<g id="edge3" class="edge">
<title>Node3&#45;&gt;Node4</title>
<path fill="none" stroke="midnightblue" d="M567.05,-51C575.6,-51 584.27,-51 592.86,-51"/>
<polygon fill="midnightblue" stroke="midnightblue" points="592.89,-54.5 602.89,-51 592.89,-47.5 592.89,-54.5"/>
</g>
</g>
</svg>
