<?xml version="1.0" encoding="UTF-8" standalone="no"?>
<!DOCTYPE svg PUBLIC "-//W3C//DTD SVG 1.1//EN"
 "http://www.w3.org/Graphics/SVG/1.1/DTD/svg11.dtd">
<!-- Generated by graphviz version 2.47.1 (20210417.1919)
 -->
<!-- Title: Dice Pages: 1 -->
<svg width="136pt" height="315pt"
 viewBox="0.00 0.00 136.00 315.00" xmlns="http://www.w3.org/2000/svg" xmlns:xlink="http://www.w3.org/1999/xlink">
<g id="graph0" class="graph" transform="scale(1 1) rotate(0) translate(4 311)">
<title>Dice</title>
<polygon fill="white" stroke="transparent" points="-4,4 -4,-311 132,-311 132,4 -4,4"/>
<!-- Node1 -->
<g id="node1" class="node">
<title>Node1</title>
<g id="a_node1"><a xlink:title="Script for the Dice Gameobject">
<polygon fill="#bfbfbf" stroke="black" points="0,-0.5 0,-206.5 128,-206.5 128,-0.5 0,-0.5"/>
<text text-anchor="middle" x="64" y="-192.9" font-family="Helvetica,sans-Serif" font-size="12.00">Dice</text>
<polyline fill="none" stroke="black" points="0,-185.5 128,-185.5 "/>
<text text-anchor="start" x="8" y="-171.9" font-family="Helvetica,sans-Serif" font-size="12.00">&#45; dice</text>
<text text-anchor="start" x="8" y="-158.9" font-family="Helvetica,sans-Serif" font-size="12.00">&#45; diceValue</text>
<text text-anchor="start" x="8" y="-145.9" font-family="Helvetica,sans-Serif" font-size="12.00">&#45; mainCamera</text>
<text text-anchor="start" x="8" y="-132.9" font-family="Helvetica,sans-Serif" font-size="12.00">&#45; setCloseUpCamera</text>
<polyline fill="none" stroke="black" points="0,-125.5 128,-125.5 "/>
<text text-anchor="start" x="8" y="-111.9" font-family="Helvetica,sans-Serif" font-size="12.00">+ RollDice()</text>
<text text-anchor="start" x="8" y="-98.9" font-family="Helvetica,sans-Serif" font-size="12.00">+ ResetDice()</text>
<text text-anchor="start" x="8" y="-85.9" font-family="Helvetica,sans-Serif" font-size="12.00">+ CanReset()</text>
<text text-anchor="start" x="8" y="-72.9" font-family="Helvetica,sans-Serif" font-size="12.00">+ CalculateValue()</text>
<text text-anchor="start" x="8" y="-59.9" font-family="Helvetica,sans-Serif" font-size="12.00">+ GetValue()</text>
<text text-anchor="start" x="8" y="-46.9" font-family="Helvetica,sans-Serif" font-size="12.00">+ ReadyToRoll()</text>
<text text-anchor="start" x="8" y="-33.9" font-family="Helvetica,sans-Serif" font-size="12.00">&#45; Start()</text>
<text text-anchor="start" x="8" y="-20.9" font-family="Helvetica,sans-Serif" font-size="12.00">&#45; Initialise()</text>
<text text-anchor="start" x="8" y="-7.9" font-family="Helvetica,sans-Serif" font-size="12.00">&#45; Update()</text>
</a>
</g>
</g>
<!-- Node2 -->
<g id="node2" class="node">
<title>Node2</title>
<g id="a_node2"><a xlink:title=" ">
<polygon fill="white" stroke="#bfbfbf" points="15,-243.5 15,-306.5 113,-306.5 113,-243.5 15,-243.5"/>
<text text-anchor="middle" x="64" y="-292.9" font-family="Helvetica,sans-Serif" font-size="12.00">MonoBehaviour</text>
<polyline fill="none" stroke="#bfbfbf" points="15,-285.5 113,-285.5 "/>
<text text-anchor="middle" x="64" y="-271.9" font-family="Helvetica,sans-Serif" font-size="12.00"> </text>
<polyline fill="none" stroke="#bfbfbf" points="15,-264.5 113,-264.5 "/>
<text text-anchor="middle" x="64" y="-250.9" font-family="Helvetica,sans-Serif" font-size="12.00"> </text>
</a>
</g>
</g>
<!-- Node2&#45;&gt;Node1 -->
<g id="edge1" class="edge">
<title>Node2&#45;&gt;Node1</title>
<path fill="none" stroke="midnightblue" d="M64,-233.3C64,-225.06 64,-216.03 64,-206.72"/>
<polygon fill="none" stroke="midnightblue" points="60.5,-233.3 64,-243.3 67.5,-233.3 60.5,-233.3"/>
</g>
</g>
</svg>
