<?xml version="1.0" encoding="UTF-8" standalone="no"?>
<!DOCTYPE svg PUBLIC "-//W3C//DTD SVG 1.1//EN"
 "http://www.w3.org/Graphics/SVG/1.1/DTD/svg11.dtd">
<!-- Generated by graphviz version 2.47.1 (20210417.1919)
 -->
<!-- Title: CameraCloseUp.Update Pages: 1 -->
<svg width="684pt" height="110pt"
 viewBox="0.00 0.00 684.00 110.00" xmlns="http://www.w3.org/2000/svg" xmlns:xlink="http://www.w3.org/1999/xlink">
<g id="graph0" class="graph" transform="scale(1 1) rotate(0) translate(4 106)">
<title>CameraCloseUp.Update</title>
<polygon fill="white" stroke="transparent" points="-4,4 -4,-106 680,-106 680,4 -4,4"/>
<!-- Node1 -->
<g id="node1" class="node">
<title>Node1</title>
<g id="a_node1"><a xlink:title="If test keys = true &#45; numpad / numbers control close ups lerp camera position towards close up point ...">
<polygon fill="#bfbfbf" stroke="black" points="0,-20.5 0,-41.5 146,-41.5 146,-20.5 0,-20.5"/>
<text text-anchor="middle" x="73" y="-27.9" font-family="Helvetica,sans-Serif" font-size="12.00">CameraCloseUp.Update</text>
</a>
</g>
</g>
<!-- Node2 -->
<g id="node2" class="node">
<title>Node2</title>
<g id="a_node2"><a xlink:href="class_camera_close_up.html#a684c25133060e7ff6e1d462b0504c590" target="_top" xlink:title="Get the camera location target from point">
<polygon fill="white" stroke="black" points="182,-40.5 182,-61.5 394,-61.5 394,-40.5 182,-40.5"/>
<text text-anchor="middle" x="288" y="-47.9" font-family="Helvetica,sans-Serif" font-size="12.00">CameraCloseUp.GetCameraPosition</text>
</a>
</g>
</g>
<!-- Node1&#45;&gt;Node2 -->
<g id="edge1" class="edge">
<title>Node1&#45;&gt;Node2</title>
<path fill="none" stroke="midnightblue" d="M146.11,-37.77C154.35,-38.54 162.9,-39.35 171.53,-40.16"/>
<polygon fill="midnightblue" stroke="midnightblue" points="171.4,-43.66 181.68,-41.11 172.05,-36.69 171.4,-43.66"/>
</g>
<!-- Node5 -->
<g id="node5" class="node">
<title>Node5</title>
<g id="a_node5"><a xlink:href="class_camera_close_up.html#a2a7e3969d2c696d94a6f0f6bf8b3c56a" target="_top" xlink:title="For testing camera close ups">
<polygon fill="white" stroke="black" points="192.5,-0.5 192.5,-21.5 383.5,-21.5 383.5,-0.5 192.5,-0.5"/>
<text text-anchor="middle" x="288" y="-7.9" font-family="Helvetica,sans-Serif" font-size="12.00">CameraCloseUp.TestSetCamera</text>
</a>
</g>
</g>
<!-- Node1&#45;&gt;Node5 -->
<g id="edge4" class="edge">
<title>Node1&#45;&gt;Node5</title>
<path fill="none" stroke="midnightblue" d="M146.11,-24.23C157.71,-23.14 169.92,-21.99 182.1,-20.85"/>
<polygon fill="midnightblue" stroke="midnightblue" points="182.68,-24.31 192.31,-19.89 182.02,-17.34 182.68,-24.31"/>
</g>
<!-- Node3 -->
<g id="node3" class="node">
<title>Node3</title>
<g id="a_node3"><a xlink:href="class_close_up_point_script.html#ad04e4644ab071f53a3ddcd5942a748b4" target="_top" xlink:title="Get the camera position (transform position)">
<polygon fill="white" stroke="black" points="439.5,-80.5 439.5,-101.5 666.5,-101.5 666.5,-80.5 439.5,-80.5"/>
<text text-anchor="middle" x="553" y="-87.9" font-family="Helvetica,sans-Serif" font-size="12.00">CloseUpPointScript.GetCameraPosition</text>
</a>
</g>
</g>
<!-- Node2&#45;&gt;Node3 -->
<g id="edge2" class="edge">
<title>Node2&#45;&gt;Node3</title>
<path fill="none" stroke="midnightblue" d="M358.1,-61.51C393.3,-66.86 436.26,-73.4 472.78,-78.95"/>
<polygon fill="midnightblue" stroke="midnightblue" points="472.49,-82.45 482.91,-80.49 473.55,-75.53 472.49,-82.45"/>
</g>
<!-- Node4 -->
<g id="node4" class="node">
<title>Node4</title>
<g id="a_node4"><a xlink:href="class_close_up_point_script.html#adadb4a1edcd0b052fb32ef82ece4405e" target="_top" xlink:title="Get the close up point">
<polygon fill="white" stroke="black" points="430,-40.5 430,-61.5 676,-61.5 676,-40.5 430,-40.5"/>
<text text-anchor="middle" x="553" y="-47.9" font-family="Helvetica,sans-Serif" font-size="12.00">CloseUpPointScript.GetCloseUpPointName</text>
</a>
</g>
</g>
<!-- Node2&#45;&gt;Node4 -->
<g id="edge3" class="edge">
<title>Node2&#45;&gt;Node4</title>
<path fill="none" stroke="midnightblue" d="M394.08,-51C402.51,-51 411.09,-51 419.68,-51"/>
<polygon fill="midnightblue" stroke="midnightblue" points="419.76,-54.5 429.76,-51 419.76,-47.5 419.76,-54.5"/>
</g>
<!-- Node6 -->
<g id="node6" class="node">
<title>Node6</title>
<g id="a_node6"><a xlink:href="class_camera_close_up.html#a1d70afa00d6f67abee342c029af88fcf" target="_top" xlink:title="Set close up point">
<polygon fill="white" stroke="black" points="467,-0.5 467,-21.5 639,-21.5 639,-0.5 467,-0.5"/>
<text text-anchor="middle" x="553" y="-7.9" font-family="Helvetica,sans-Serif" font-size="12.00">CameraCloseUp.SetCloseUp</text>
</a>
</g>
</g>
<!-- Node5&#45;&gt;Node6 -->
<g id="edge5" class="edge">
<title>Node5&#45;&gt;Node6</title>
<path fill="none" stroke="midnightblue" d="M383.58,-11C407.42,-11 433.02,-11 456.88,-11"/>
<polygon fill="midnightblue" stroke="midnightblue" points="456.99,-14.5 466.99,-11 456.99,-7.5 456.99,-14.5"/>
</g>
</g>
</svg>
