<?xml version="1.0" encoding="UTF-8" standalone="no"?>
<!DOCTYPE svg PUBLIC "-//W3C//DTD SVG 1.1//EN"
 "http://www.w3.org/Graphics/SVG/1.1/DTD/svg11.dtd">
<!-- Generated by graphviz version 2.47.1 (20210417.1919)
 -->
<!-- Title: BoardManager.bfs Pages: 1 -->
<svg width="576pt" height="70pt"
 viewBox="0.00 0.00 576.00 70.00" xmlns="http://www.w3.org/2000/svg" xmlns:xlink="http://www.w3.org/1999/xlink">
<g id="graph0" class="graph" transform="scale(1 1) rotate(0) translate(4 66)">
<title>BoardManager.bfs</title>
<polygon fill="white" stroke="transparent" points="-4,4 -4,-66 572,-66 572,4 -4,4"/>
<!-- Node1 -->
<g id="node1" class="node">
<title>Node1</title>
<g id="a_node1"><a xlink:title="Perform bfs search for the tiles">
<polygon fill="#bfbfbf" stroke="black" points="0,-20.5 0,-41.5 114,-41.5 114,-20.5 0,-20.5"/>
<text text-anchor="middle" x="57" y="-27.9" font-family="Helvetica,sans-Serif" font-size="12.00">BoardManager.bfs</text>
</a>
</g>
</g>
<!-- Node2 -->
<g id="node2" class="node">
<title>Node2</title>
<g id="a_node2"><a xlink:href="class_board_manager.html#ae3af0b08bdfbc0ebcda23950eb935a5d" target="_top" xlink:title="Return array of all neighbours of given tile">
<polygon fill="white" stroke="black" points="150,-40.5 150,-61.5 346,-61.5 346,-40.5 150,-40.5"/>
<text text-anchor="middle" x="248" y="-47.9" font-family="Helvetica,sans-Serif" font-size="12.00">BoardManager.GetTileNeighbours</text>
</a>
</g>
</g>
<!-- Node1&#45;&gt;Node2 -->
<g id="edge1" class="edge">
<title>Node1&#45;&gt;Node2</title>
<path fill="none" stroke="midnightblue" d="M114.19,-36.95C122.42,-37.82 131.1,-38.74 139.94,-39.67"/>
<polygon fill="midnightblue" stroke="midnightblue" points="139.65,-43.16 149.97,-40.73 140.39,-36.2 139.65,-43.16"/>
</g>
<!-- Node4 -->
<g id="node4" class="node">
<title>Node4</title>
<g id="a_node4"><a xlink:href="class_board_tile_script.html#aeee5122d5e5b79867f6538ec4d597b6a" target="_top" xlink:title="check if tile is empty">
<polygon fill="white" stroke="black" points="176.5,-0.5 176.5,-21.5 319.5,-21.5 319.5,-0.5 176.5,-0.5"/>
<text text-anchor="middle" x="248" y="-7.9" font-family="Helvetica,sans-Serif" font-size="12.00">BoardTileScript.IsEmpty</text>
</a>
</g>
</g>
<!-- Node1&#45;&gt;Node4 -->
<g id="edge3" class="edge">
<title>Node1&#45;&gt;Node4</title>
<path fill="none" stroke="midnightblue" d="M114.19,-25.05C130.48,-23.33 148.58,-21.41 166.06,-19.56"/>
<polygon fill="midnightblue" stroke="midnightblue" points="166.68,-23.02 176.26,-18.49 165.95,-16.06 166.68,-23.02"/>
</g>
<!-- Node3 -->
<g id="node3" class="node">
<title>Node3</title>
<g id="a_node3"><a xlink:href="class_board_manager.html#a6b2b89b5ce622bf45676e6993f8ec216" target="_top" xlink:title="Get a tile from the array using a grid reference.">
<polygon fill="white" stroke="black" points="382,-40.5 382,-61.5 568,-61.5 568,-40.5 382,-40.5"/>
<text text-anchor="middle" x="475" y="-47.9" font-family="Helvetica,sans-Serif" font-size="12.00">BoardManager.GetTileFromGrid</text>
</a>
</g>
</g>
<!-- Node2&#45;&gt;Node3 -->
<g id="edge2" class="edge">
<title>Node2&#45;&gt;Node3</title>
<path fill="none" stroke="midnightblue" d="M346.05,-51C354.6,-51 363.27,-51 371.86,-51"/>
<polygon fill="midnightblue" stroke="midnightblue" points="371.89,-54.5 381.89,-51 371.89,-47.5 371.89,-54.5"/>
</g>
</g>
</svg>
