<?xml version="1.0" encoding="UTF-8" standalone="no"?>
<!DOCTYPE svg PUBLIC "-//W3C//DTD SVG 1.1//EN"
 "http://www.w3.org/Graphics/SVG/1.1/DTD/svg11.dtd">
<!-- Generated by graphviz version 2.47.1 (20210417.1919)
 -->
<!-- Title: AccusationCardSlot Pages: 1 -->
<svg width="129pt" height="289pt"
 viewBox="0.00 0.00 129.00 289.00" xmlns="http://www.w3.org/2000/svg" xmlns:xlink="http://www.w3.org/1999/xlink">
<g id="graph0" class="graph" transform="scale(1 1) rotate(0) translate(4 285)">
<title>AccusationCardSlot</title>
<polygon fill="white" stroke="transparent" points="-4,4 -4,-285 125,-285 125,4 -4,4"/>
<!-- Node1 -->
<g id="node1" class="node">
<title>Node1</title>
<g id="a_node1"><a xlink:title=" ">
<polygon fill="#bfbfbf" stroke="black" points="0,-0.5 0,-180.5 121,-180.5 121,-0.5 0,-0.5"/>
<text text-anchor="middle" x="60.5" y="-166.9" font-family="Helvetica,sans-Serif" font-size="12.00">AccusationCardSlot</text>
<polyline fill="none" stroke="black" points="0,-159.5 121,-159.5 "/>
<text text-anchor="start" x="8" y="-145.9" font-family="Helvetica,sans-Serif" font-size="12.00">+ card</text>
<text text-anchor="start" x="8" y="-132.9" font-family="Helvetica,sans-Serif" font-size="12.00">+ img</text>
<text text-anchor="start" x="8" y="-119.9" font-family="Helvetica,sans-Serif" font-size="12.00">+ txt</text>
<text text-anchor="start" x="8" y="-106.9" font-family="Helvetica,sans-Serif" font-size="12.00">+ isVisible</text>
<text text-anchor="start" x="8" y="-93.9" font-family="Helvetica,sans-Serif" font-size="12.00">&#45; initialImage</text>
<text text-anchor="start" x="8" y="-80.9" font-family="Helvetica,sans-Serif" font-size="12.00">&#45; initialText</text>
<polyline fill="none" stroke="black" points="0,-73.5 121,-73.5 "/>
<text text-anchor="start" x="8" y="-59.9" font-family="Helvetica,sans-Serif" font-size="12.00">+ ResetSlot()</text>
<text text-anchor="start" x="8" y="-46.9" font-family="Helvetica,sans-Serif" font-size="12.00">+ SetCard()</text>
<text text-anchor="start" x="8" y="-33.9" font-family="Helvetica,sans-Serif" font-size="12.00">+ SetVisible()</text>
<text text-anchor="start" x="8" y="-20.9" font-family="Helvetica,sans-Serif" font-size="12.00">&#45; Start()</text>
<text text-anchor="start" x="8" y="-7.9" font-family="Helvetica,sans-Serif" font-size="12.00">&#45; SetCardDetails()</text>
</a>
</g>
</g>
<!-- Node2 -->
<g id="node2" class="node">
<title>Node2</title>
<g id="a_node2"><a xlink:title=" ">
<polygon fill="white" stroke="#bfbfbf" points="11.5,-217.5 11.5,-280.5 109.5,-280.5 109.5,-217.5 11.5,-217.5"/>
<text text-anchor="middle" x="60.5" y="-266.9" font-family="Helvetica,sans-Serif" font-size="12.00">MonoBehaviour</text>
<polyline fill="none" stroke="#bfbfbf" points="11.5,-259.5 109.5,-259.5 "/>
<text text-anchor="middle" x="60.5" y="-245.9" font-family="Helvetica,sans-Serif" font-size="12.00"> </text>
<polyline fill="none" stroke="#bfbfbf" points="11.5,-238.5 109.5,-238.5 "/>
<text text-anchor="middle" x="60.5" y="-224.9" font-family="Helvetica,sans-Serif" font-size="12.00"> </text>
</a>
</g>
</g>
<!-- Node2&#45;&gt;Node1 -->
<g id="edge1" class="edge">
<title>Node2&#45;&gt;Node1</title>
<path fill="none" stroke="midnightblue" d="M60.5,-207.31C60.5,-198.95 60.5,-189.84 60.5,-180.52"/>
<polygon fill="none" stroke="midnightblue" points="57,-207.45 60.5,-217.45 64,-207.45 57,-207.45"/>
</g>
</g>
</svg>
