<?xml version="1.0" encoding="UTF-8" standalone="no"?>
<!DOCTYPE svg PUBLIC "-//W3C//DTD SVG 1.1//EN"
 "http://www.w3.org/Graphics/SVG/1.1/DTD/svg11.dtd">
<!-- Generated by graphviz version 2.47.1 (20210417.1919)
 -->
<!-- Title: BoardTileScript.ClearTile Pages: 1 -->
<svg width="874pt" height="70pt"
 viewBox="0.00 0.00 874.00 70.00" xmlns="http://www.w3.org/2000/svg" xmlns:xlink="http://www.w3.org/1999/xlink">
<g id="graph0" class="graph" transform="scale(1 1) rotate(0) translate(4 66)">
<title>BoardTileScript.ClearTile</title>
<polygon fill="white" stroke="transparent" points="-4,4 -4,-66 870,-66 870,4 -4,4"/>
<!-- Node1 -->
<g id="node1" class="node">
<title>Node1</title>
<g id="a_node1"><a xlink:title="disable the select effect on the tile">
<polygon fill="#bfbfbf" stroke="black" points="717,-20.5 717,-41.5 866,-41.5 866,-20.5 717,-20.5"/>
<text text-anchor="middle" x="791.5" y="-27.9" font-family="Helvetica,sans-Serif" font-size="12.00">BoardTileScript.ClearTile</text>
</a>
</g>
</g>
<!-- Node2 -->
<g id="node2" class="node">
<title>Node2</title>
<g id="a_node2"><a xlink:href="class_user_selection_script.html#a011d55536bb7550a00a7029cb7b6a6b5" target="_top" xlink:title="reset the effects on the current tile">
<polygon fill="white" stroke="black" points="472,-20.5 472,-41.5 681,-41.5 681,-20.5 472,-20.5"/>
<text text-anchor="middle" x="576.5" y="-27.9" font-family="Helvetica,sans-Serif" font-size="12.00">UserSelectionScript.ClearCurrentTile</text>
</a>
</g>
</g>
<!-- Node1&#45;&gt;Node2 -->
<g id="edge1" class="edge">
<title>Node1&#45;&gt;Node2</title>
<path fill="none" stroke="midnightblue" d="M706.76,-31C698.36,-31 689.75,-31 681.17,-31"/>
<polygon fill="midnightblue" stroke="midnightblue" points="706.9,-34.5 716.9,-31 706.9,-27.5 706.9,-34.5"/>
</g>
<!-- Node3 -->
<g id="node3" class="node">
<title>Node3</title>
<g id="a_node3"><a xlink:href="class_user_cursor_script.html#a112fedaa8fccb220ccb350bc1ac622aa" target="_top" xlink:title=" ">
<polygon fill="white" stroke="black" points="238,-40.5 238,-61.5 420,-61.5 420,-40.5 238,-40.5"/>
<text text-anchor="middle" x="329" y="-47.9" font-family="Helvetica,sans-Serif" font-size="12.00">UserCursorScript.OnTriggerExit</text>
</a>
</g>
</g>
<!-- Node2&#45;&gt;Node3 -->
<g id="edge2" class="edge">
<title>Node2&#45;&gt;Node3</title>
<path fill="none" stroke="midnightblue" d="M461.65,-40.28C447.74,-41.41 433.67,-42.55 420.17,-43.65"/>
<polygon fill="midnightblue" stroke="midnightblue" points="462.06,-43.75 471.74,-39.45 461.49,-36.78 462.06,-43.75"/>
</g>
<!-- Node4 -->
<g id="node4" class="node">
<title>Node4</title>
<g id="a_node4"><a xlink:href="class_user_selection_script.html#a79fe134329afe738c1e4fb0d66c99d69" target="_top" xlink:title="Setting the current tile clears the previous tile and set the effect for the new tile">
<polygon fill="white" stroke="black" points="222,-0.5 222,-21.5 436,-21.5 436,-0.5 222,-0.5"/>
<text text-anchor="middle" x="329" y="-7.9" font-family="Helvetica,sans-Serif" font-size="12.00">UserSelectionScript.SelectCurrentTile</text>
</a>
</g>
</g>
<!-- Node2&#45;&gt;Node4 -->
<g id="edge3" class="edge">
<title>Node2&#45;&gt;Node4</title>
<path fill="none" stroke="midnightblue" d="M461.76,-21.73C453.22,-21.04 444.63,-20.34 436.14,-19.65"/>
<polygon fill="midnightblue" stroke="midnightblue" points="461.49,-25.22 471.74,-22.55 462.06,-18.25 461.49,-25.22"/>
</g>
<!-- Node5 -->
<g id="node5" class="node">
<title>Node5</title>
<g id="a_node5"><a xlink:href="class_user_cursor_script.html#a86dacfae5227440b7f8ca3c7042a8892" target="_top" xlink:title=" ">
<polygon fill="white" stroke="black" points="0,-0.5 0,-21.5 186,-21.5 186,-0.5 0,-0.5"/>
<text text-anchor="middle" x="93" y="-7.9" font-family="Helvetica,sans-Serif" font-size="12.00">UserCursorScript.OnTriggerStay</text>
</a>
</g>
</g>
<!-- Node4&#45;&gt;Node5 -->
<g id="edge4" class="edge">
<title>Node4&#45;&gt;Node5</title>
<path fill="none" stroke="midnightblue" d="M211.83,-11C203.19,-11 194.55,-11 186.08,-11"/>
<polygon fill="midnightblue" stroke="midnightblue" points="211.95,-14.5 221.95,-11 211.95,-7.5 211.95,-14.5"/>
</g>
</g>
</svg>
