<?xml version="1.0" encoding="UTF-8" standalone="no"?>
<!DOCTYPE svg PUBLIC "-//W3C//DTD SVG 1.1//EN"
 "http://www.w3.org/Graphics/SVG/1.1/DTD/svg11.dtd">
<!-- Generated by graphviz version 2.47.1 (20210417.1919)
 -->
<!-- Title: RoomWeaponSlot.GetWeaponInSlot Pages: 1 -->
<svg width="730pt" height="30pt"
 viewBox="0.00 0.00 730.00 30.00" xmlns="http://www.w3.org/2000/svg" xmlns:xlink="http://www.w3.org/1999/xlink">
<g id="graph0" class="graph" transform="scale(1 1) rotate(0) translate(4 26)">
<title>RoomWeaponSlot.GetWeaponInSlot</title>
<polygon fill="white" stroke="transparent" points="-4,4 -4,-26 726,-26 726,4 -4,4"/>
<!-- Node1 -->
<g id="node1" class="node">
<title>Node1</title>
<g id="a_node1"><a xlink:title="Return the weapon in the slot">
<polygon fill="#bfbfbf" stroke="black" points="515,-0.5 515,-21.5 722,-21.5 722,-0.5 515,-0.5"/>
<text text-anchor="middle" x="618.5" y="-7.9" font-family="Helvetica,sans-Serif" font-size="12.00">RoomWeaponSlot.GetWeaponInSlot</text>
</a>
</g>
</g>
<!-- Node2 -->
<g id="node2" class="node">
<title>Node2</title>
<g id="a_node2"><a xlink:href="class_weapon_slot_test_script.html#abf650efabf59b98429890a3de4b43a28" target="_top" xlink:title="Set text to display weapons in room">
<polygon fill="white" stroke="black" points="212,-0.5 212,-21.5 479,-21.5 479,-0.5 212,-0.5"/>
<text text-anchor="middle" x="345.5" y="-7.9" font-family="Helvetica,sans-Serif" font-size="12.00">WeaponSlotTestScript.SetWeaponsInRoomText</text>
</a>
</g>
</g>
<!-- Node1&#45;&gt;Node2 -->
<g id="edge1" class="edge">
<title>Node1&#45;&gt;Node2</title>
<path fill="none" stroke="midnightblue" d="M504.59,-11C496.27,-11 487.84,-11 479.43,-11"/>
<polygon fill="midnightblue" stroke="midnightblue" points="504.66,-14.5 514.66,-11 504.66,-7.5 504.66,-14.5"/>
</g>
<!-- Node3 -->
<g id="node3" class="node">
<title>Node3</title>
<g id="a_node3"><a xlink:href="class_weapon_slot_test_script.html#a92dc32fad961668315aa642c3586acee" target="_top" xlink:title=" ">
<polygon fill="white" stroke="black" points="0,-0.5 0,-21.5 176,-21.5 176,-0.5 0,-0.5"/>
<text text-anchor="middle" x="88" y="-7.9" font-family="Helvetica,sans-Serif" font-size="12.00">WeaponSlotTestScript.Update</text>
</a>
</g>
</g>
<!-- Node2&#45;&gt;Node3 -->
<g id="edge2" class="edge">
<title>Node2&#45;&gt;Node3</title>
<path fill="none" stroke="midnightblue" d="M201.66,-11C192.97,-11 184.38,-11 176.05,-11"/>
<polygon fill="midnightblue" stroke="midnightblue" points="201.89,-14.5 211.89,-11 201.89,-7.5 201.89,-14.5"/>
</g>
</g>
</svg>
