<?xml version="1.0" encoding="UTF-8" standalone="no"?>
<!DOCTYPE svg PUBLIC "-//W3C//DTD SVG 1.1//EN"
 "http://www.w3.org/Graphics/SVG/1.1/DTD/svg11.dtd">
<!-- Generated by graphviz version 2.47.1 (20210417.1919)
 -->
<!-- Title: RoomWeaponSlot.SlotOccupied Pages: 1 -->
<svg width="690pt" height="70pt"
 viewBox="0.00 0.00 690.00 70.00" xmlns="http://www.w3.org/2000/svg" xmlns:xlink="http://www.w3.org/1999/xlink">
<g id="graph0" class="graph" transform="scale(1 1) rotate(0) translate(4 66)">
<title>RoomWeaponSlot.SlotOccupied</title>
<polygon fill="white" stroke="transparent" points="-4,4 -4,-66 686,-66 686,4 -4,4"/>
<!-- Node1 -->
<g id="node1" class="node">
<title>Node1</title>
<g id="a_node1"><a xlink:title="I slot currently occupied by a weapon token">
<polygon fill="#bfbfbf" stroke="black" points="496,-20.5 496,-41.5 682,-41.5 682,-20.5 496,-20.5"/>
<text text-anchor="middle" x="589" y="-27.9" font-family="Helvetica,sans-Serif" font-size="12.00">RoomWeaponSlot.SlotOccupied</text>
</a>
</g>
</g>
<!-- Node2 -->
<g id="node2" class="node">
<title>Node2</title>
<g id="a_node2"><a xlink:href="class_room_weapon_slot.html#a3ea78fa42fe18dba8bf88ec604513234" target="_top" xlink:title="Add Weapon to the slot if not occupied">
<polygon fill="white" stroke="black" points="245,-40.5 245,-61.5 460,-61.5 460,-40.5 245,-40.5"/>
<text text-anchor="middle" x="352.5" y="-47.9" font-family="Helvetica,sans-Serif" font-size="12.00">RoomWeaponSlot.AddWeaponToSlot</text>
</a>
</g>
</g>
<!-- Node1&#45;&gt;Node2 -->
<g id="edge1" class="edge">
<title>Node1&#45;&gt;Node2</title>
<path fill="none" stroke="midnightblue" d="M485.96,-39.7C477.36,-40.44 468.65,-41.18 460.01,-41.92"/>
<polygon fill="midnightblue" stroke="midnightblue" points="486.33,-43.18 495.99,-38.85 485.73,-36.21 486.33,-43.18"/>
</g>
<!-- Node3 -->
<g id="node3" class="node">
<title>Node3</title>
<g id="a_node3"><a xlink:href="class_room_script.html#a6bf61204f9a96ad3bf5e377b9938809d" target="_top" xlink:title="Are weapon slots empty">
<polygon fill="white" stroke="black" points="260,-0.5 260,-21.5 445,-21.5 445,-0.5 260,-0.5"/>
<text text-anchor="middle" x="352.5" y="-7.9" font-family="Helvetica,sans-Serif" font-size="12.00">RoomScript.WeaponSlotsEmpty</text>
</a>
</g>
</g>
<!-- Node1&#45;&gt;Node3 -->
<g id="edge2" class="edge">
<title>Node1&#45;&gt;Node3</title>
<path fill="none" stroke="midnightblue" d="M485.75,-22.28C472.27,-21.13 458.53,-19.96 445.24,-18.82"/>
<polygon fill="midnightblue" stroke="midnightblue" points="485.73,-25.79 495.99,-23.15 486.33,-18.82 485.73,-25.79"/>
</g>
<!-- Node4 -->
<g id="node4" class="node">
<title>Node4</title>
<g id="a_node4"><a xlink:href="class_board_manager.html#a83a5b3680205d298cfcc9552a75ed1a1" target="_top" xlink:title="Coroutine to randomly place weapon tokens in rooms with no more than 1 per room">
<polygon fill="white" stroke="black" points="0,-0.5 0,-21.5 209,-21.5 209,-0.5 0,-0.5"/>
<text text-anchor="middle" x="104.5" y="-7.9" font-family="Helvetica,sans-Serif" font-size="12.00">BoardManager.PlaceWeaponsDelay</text>
</a>
</g>
</g>
<!-- Node3&#45;&gt;Node4 -->
<g id="edge3" class="edge">
<title>Node3&#45;&gt;Node4</title>
<path fill="none" stroke="midnightblue" d="M249.74,-11C236.35,-11 222.61,-11 209.19,-11"/>
<polygon fill="midnightblue" stroke="midnightblue" points="249.9,-14.5 259.9,-11 249.9,-7.5 249.9,-14.5"/>
</g>
</g>
</svg>
