<?xml version="1.0" encoding="UTF-8" standalone="no"?>
<!DOCTYPE svg PUBLIC "-//W3C//DTD SVG 1.1//EN"
 "http://www.w3.org/Graphics/SVG/1.1/DTD/svg11.dtd">
<!-- Generated by graphviz version 2.47.1 (20210417.1919)
 -->
<!-- Title: ShortcutBoardTileScript Pages: 1 -->
<svg width="151pt" height="597pt"
 viewBox="0.00 0.00 151.00 597.00" xmlns="http://www.w3.org/2000/svg" xmlns:xlink="http://www.w3.org/1999/xlink">
<g id="graph0" class="graph" transform="scale(1 1) rotate(0) translate(4 593)">
<title>ShortcutBoardTileScript</title>
<polygon fill="white" stroke="transparent" points="-4,4 -4,-593 147,-593 147,4 -4,4"/>
<!-- Node1 -->
<g id="node1" class="node">
<title>Node1</title>
<g id="a_node1"><a xlink:title="Class for the Shortcut board tile Gameobject">
<polygon fill="#bfbfbf" stroke="black" points="1,-0.5 1,-167.5 142,-167.5 142,-0.5 1,-0.5"/>
<text text-anchor="middle" x="71.5" y="-153.9" font-family="Helvetica,sans-Serif" font-size="12.00">ShortcutBoardTileScript</text>
<polyline fill="none" stroke="black" points="1,-146.5 142,-146.5 "/>
<text text-anchor="start" x="9" y="-132.9" font-family="Helvetica,sans-Serif" font-size="12.00">+ ShortcutFrom</text>
<text text-anchor="start" x="9" y="-119.9" font-family="Helvetica,sans-Serif" font-size="12.00">+ ShortcutTo</text>
<text text-anchor="start" x="9" y="-106.9" font-family="Helvetica,sans-Serif" font-size="12.00">+ RoomScript</text>
<text text-anchor="start" x="9" y="-93.9" font-family="Helvetica,sans-Serif" font-size="12.00">&#45; shortcutFrom</text>
<text text-anchor="start" x="9" y="-80.9" font-family="Helvetica,sans-Serif" font-size="12.00">&#45; shortcutTo</text>
<text text-anchor="start" x="9" y="-67.9" font-family="Helvetica,sans-Serif" font-size="12.00">&#45; roomScript</text>
<polyline fill="none" stroke="black" points="1,-60.5 142,-60.5 "/>
<text text-anchor="start" x="9" y="-46.9" font-family="Helvetica,sans-Serif" font-size="12.00">+ SetShortcutRooms()</text>
<text text-anchor="start" x="9" y="-33.9" font-family="Helvetica,sans-Serif" font-size="12.00">+ ToString()</text>
<text text-anchor="start" x="9" y="-20.9" font-family="Helvetica,sans-Serif" font-size="12.00">&#45; Start()</text>
<text text-anchor="start" x="9" y="-7.9" font-family="Helvetica,sans-Serif" font-size="12.00">&#45; GetRoomScript()</text>
</a>
</g>
</g>
<!-- Node2 -->
<g id="node2" class="node">
<title>Node2</title>
<g id="a_node2"><a xlink:href="class_board_tile_script.html" target="_top" xlink:title="Super class for all tiles">
<polygon fill="white" stroke="black" points="0,-204.5 0,-488.5 143,-488.5 143,-204.5 0,-204.5"/>
<text text-anchor="middle" x="71.5" y="-474.9" font-family="Helvetica,sans-Serif" font-size="12.00">BoardTileScript</text>
<polyline fill="none" stroke="black" points="0,-467.5 143,-467.5 "/>
<text text-anchor="start" x="8" y="-453.9" font-family="Helvetica,sans-Serif" font-size="12.00">+ GridPosition</text>
<text text-anchor="start" x="8" y="-440.9" font-family="Helvetica,sans-Serif" font-size="12.00">+ TileType</text>
<text text-anchor="start" x="8" y="-427.9" font-family="Helvetica,sans-Serif" font-size="12.00">+ PlayerToken</text>
<text text-anchor="start" x="8" y="-414.9" font-family="Helvetica,sans-Serif" font-size="12.00">+ BoardManager</text>
<text text-anchor="start" x="8" y="-401.9" font-family="Helvetica,sans-Serif" font-size="12.00">&#45; gridPosition</text>
<text text-anchor="start" x="8" y="-388.9" font-family="Helvetica,sans-Serif" font-size="12.00">&#45; tileType</text>
<text text-anchor="start" x="8" y="-375.9" font-family="Helvetica,sans-Serif" font-size="12.00">&#45; boardTileEffectHandler</text>
<text text-anchor="start" x="8" y="-362.9" font-family="Helvetica,sans-Serif" font-size="12.00">&#45; playerToken</text>
<text text-anchor="start" x="8" y="-349.9" font-family="Helvetica,sans-Serif" font-size="12.00">&#45; boardManager</text>
<polyline fill="none" stroke="black" points="0,-342.5 143,-342.5 "/>
<text text-anchor="start" x="8" y="-328.9" font-family="Helvetica,sans-Serif" font-size="12.00">+ ClearTile()</text>
<text text-anchor="start" x="8" y="-315.9" font-family="Helvetica,sans-Serif" font-size="12.00">+ SelectTile()</text>
<text text-anchor="start" x="8" y="-302.9" font-family="Helvetica,sans-Serif" font-size="12.00">+ GlowTile()</text>
<text text-anchor="start" x="8" y="-289.9" font-family="Helvetica,sans-Serif" font-size="12.00">+ SetToken()</text>
<text text-anchor="start" x="8" y="-276.9" font-family="Helvetica,sans-Serif" font-size="12.00">+ IsEmpty()</text>
<text text-anchor="start" x="8" y="-263.9" font-family="Helvetica,sans-Serif" font-size="12.00">+ GetTileNeighbours()</text>
<text text-anchor="start" x="8" y="-250.9" font-family="Helvetica,sans-Serif" font-size="12.00">+ CanMove()</text>
<text text-anchor="start" x="8" y="-237.9" font-family="Helvetica,sans-Serif" font-size="12.00">+ ToString()</text>
<text text-anchor="start" x="8" y="-224.9" font-family="Helvetica,sans-Serif" font-size="12.00"># Init()</text>
<text text-anchor="start" x="8" y="-211.9" font-family="Helvetica,sans-Serif" font-size="12.00">&#45; Start()</text>
</a>
</g>
</g>
<!-- Node2&#45;&gt;Node1 -->
<g id="edge1" class="edge">
<title>Node2&#45;&gt;Node1</title>
<path fill="none" stroke="midnightblue" d="M71.5,-194.03C71.5,-185.07 71.5,-176.25 71.5,-167.74"/>
<polygon fill="none" stroke="midnightblue" points="68,-194.2 71.5,-204.2 75,-194.2 68,-194.2"/>
</g>
<!-- Node3 -->
<g id="node3" class="node">
<title>Node3</title>
<g id="a_node3"><a xlink:title=" ">
<polygon fill="white" stroke="#bfbfbf" points="22.5,-525.5 22.5,-588.5 120.5,-588.5 120.5,-525.5 22.5,-525.5"/>
<text text-anchor="middle" x="71.5" y="-574.9" font-family="Helvetica,sans-Serif" font-size="12.00">MonoBehaviour</text>
<polyline fill="none" stroke="#bfbfbf" points="22.5,-567.5 120.5,-567.5 "/>
<text text-anchor="middle" x="71.5" y="-553.9" font-family="Helvetica,sans-Serif" font-size="12.00"> </text>
<polyline fill="none" stroke="#bfbfbf" points="22.5,-546.5 120.5,-546.5 "/>
<text text-anchor="middle" x="71.5" y="-532.9" font-family="Helvetica,sans-Serif" font-size="12.00"> </text>
</a>
</g>
</g>
<!-- Node3&#45;&gt;Node2 -->
<g id="edge2" class="edge">
<title>Node3&#45;&gt;Node2</title>
<path fill="none" stroke="midnightblue" d="M71.5,-515.07C71.5,-506.95 71.5,-498.01 71.5,-488.61"/>
<polygon fill="none" stroke="midnightblue" points="68,-515.24 71.5,-525.24 75,-515.24 68,-515.24"/>
</g>
</g>
</svg>
