<?xml version="1.0" encoding="UTF-8" standalone="no"?>
<!DOCTYPE svg PUBLIC "-//W3C//DTD SVG 1.1//EN"
 "http://www.w3.org/Graphics/SVG/1.1/DTD/svg11.dtd">
<!-- Generated by graphviz version 2.47.1 (20210417.1919)
 -->
<!-- Title: BoardManager.PlaceWeaponsDelay Pages: 1 -->
<svg width="660pt" height="30pt"
 viewBox="0.00 0.00 660.00 30.00" xmlns="http://www.w3.org/2000/svg" xmlns:xlink="http://www.w3.org/1999/xlink">
<g id="graph0" class="graph" transform="scale(1 1) rotate(0) translate(4 26)">
<title>BoardManager.PlaceWeaponsDelay</title>
<polygon fill="white" stroke="transparent" points="-4,4 -4,-26 656,-26 656,4 -4,4"/>
<!-- Node1 -->
<g id="node1" class="node">
<title>Node1</title>
<g id="a_node1"><a xlink:title="Coroutine to randomly place weapon tokens in rooms with no more than 1 per room">
<polygon fill="#bfbfbf" stroke="black" points="0,-0.5 0,-21.5 209,-21.5 209,-0.5 0,-0.5"/>
<text text-anchor="middle" x="104.5" y="-7.9" font-family="Helvetica,sans-Serif" font-size="12.00">BoardManager.PlaceWeaponsDelay</text>
</a>
</g>
</g>
<!-- Node2 -->
<g id="node2" class="node">
<title>Node2</title>
<g id="a_node2"><a xlink:href="class_room_script.html#a6bf61204f9a96ad3bf5e377b9938809d" target="_top" xlink:title="Are weapon slots empty">
<polygon fill="white" stroke="black" points="245,-0.5 245,-21.5 430,-21.5 430,-0.5 245,-0.5"/>
<text text-anchor="middle" x="337.5" y="-7.9" font-family="Helvetica,sans-Serif" font-size="12.00">RoomScript.WeaponSlotsEmpty</text>
</a>
</g>
</g>
<!-- Node1&#45;&gt;Node2 -->
<g id="edge1" class="edge">
<title>Node1&#45;&gt;Node2</title>
<path fill="none" stroke="midnightblue" d="M209.18,-11C217.62,-11 226.14,-11 234.57,-11"/>
<polygon fill="midnightblue" stroke="midnightblue" points="234.79,-14.5 244.79,-11 234.79,-7.5 234.79,-14.5"/>
</g>
<!-- Node3 -->
<g id="node3" class="node">
<title>Node3</title>
<g id="a_node3"><a xlink:href="class_room_weapon_slot.html#a9aa6b21ab7fc6b27172e71637d52011f" target="_top" xlink:title="I slot currently occupied by a weapon token">
<polygon fill="white" stroke="black" points="466,-0.5 466,-21.5 652,-21.5 652,-0.5 466,-0.5"/>
<text text-anchor="middle" x="559" y="-7.9" font-family="Helvetica,sans-Serif" font-size="12.00">RoomWeaponSlot.SlotOccupied</text>
</a>
</g>
</g>
<!-- Node2&#45;&gt;Node3 -->
<g id="edge2" class="edge">
<title>Node2&#45;&gt;Node3</title>
<path fill="none" stroke="midnightblue" d="M430.32,-11C438.67,-11 447.16,-11 455.6,-11"/>
<polygon fill="midnightblue" stroke="midnightblue" points="455.85,-14.5 465.85,-11 455.85,-7.5 455.85,-14.5"/>
</g>
</g>
</svg>
