<?xml version="1.0" encoding="UTF-8" standalone="no"?>
<!DOCTYPE svg PUBLIC "-//W3C//DTD SVG 1.1//EN"
 "http://www.w3.org/Graphics/SVG/1.1/DTD/svg11.dtd">
<!-- Generated by graphviz version 2.47.1 (20210417.1919)
 -->
<!-- Title: CameraCloseUp Pages: 1 -->
<svg width="252pt" height="481pt"
 viewBox="0.00 0.00 252.00 481.00" xmlns="http://www.w3.org/2000/svg" xmlns:xlink="http://www.w3.org/1999/xlink">
<g id="graph0" class="graph" transform="scale(1 1) rotate(0) translate(4 477)">
<title>CameraCloseUp</title>
<polygon fill="white" stroke="transparent" points="-4,4 -4,-477 248,-477 248,4 -4,4"/>
<!-- Node1 -->
<g id="node1" class="node">
<title>Node1</title>
<g id="a_node1"><a xlink:title="Script to control the camera close up shots">
<polygon fill="#bfbfbf" stroke="black" points="0,-0.5 0,-232.5 149,-232.5 149,-0.5 0,-0.5"/>
<text text-anchor="middle" x="74.5" y="-218.9" font-family="Helvetica,sans-Serif" font-size="12.00">CameraCloseUp</text>
<polyline fill="none" stroke="black" points="0,-211.5 149,-211.5 "/>
<text text-anchor="start" x="8" y="-197.9" font-family="Helvetica,sans-Serif" font-size="12.00">&#45; moveSpeed</text>
<text text-anchor="start" x="8" y="-184.9" font-family="Helvetica,sans-Serif" font-size="12.00">&#45; testKeys</text>
<text text-anchor="start" x="8" y="-171.9" font-family="Helvetica,sans-Serif" font-size="12.00">&#45; kb</text>
<text text-anchor="start" x="8" y="-158.9" font-family="Helvetica,sans-Serif" font-size="12.00">&#45; initialCameraPosition</text>
<text text-anchor="start" x="8" y="-145.9" font-family="Helvetica,sans-Serif" font-size="12.00">&#45; currentCameraTarget</text>
<polyline fill="none" stroke="black" points="0,-138.5 149,-138.5 "/>
<text text-anchor="start" x="8" y="-124.9" font-family="Helvetica,sans-Serif" font-size="12.00">+ SetCloseUp()</text>
<text text-anchor="start" x="8" y="-111.9" font-family="Helvetica,sans-Serif" font-size="12.00">+ ClearCloseUp()</text>
<text text-anchor="start" x="8" y="-98.9" font-family="Helvetica,sans-Serif" font-size="12.00">+ ClearCloseUp()</text>
<text text-anchor="start" x="8" y="-85.9" font-family="Helvetica,sans-Serif" font-size="12.00">+ SetCharacterCloseUp()</text>
<text text-anchor="start" x="8" y="-72.9" font-family="Helvetica,sans-Serif" font-size="12.00">~ SetRoomCloseUp()</text>
<text text-anchor="start" x="8" y="-59.9" font-family="Helvetica,sans-Serif" font-size="12.00">&#45; Start()</text>
<text text-anchor="start" x="8" y="-46.9" font-family="Helvetica,sans-Serif" font-size="12.00">&#45; Update()</text>
<text text-anchor="start" x="8" y="-33.9" font-family="Helvetica,sans-Serif" font-size="12.00">&#45; GetCameraPosition()</text>
<text text-anchor="start" x="8" y="-20.9" font-family="Helvetica,sans-Serif" font-size="12.00">&#45; ClearCloseUpDelay()</text>
<text text-anchor="start" x="8" y="-7.9" font-family="Helvetica,sans-Serif" font-size="12.00">&#45; TestSetCamera()</text>
</a>
</g>
</g>
<!-- Node2 -->
<g id="node2" class="node">
<title>Node2</title>
<g id="a_node2"><a xlink:title=" ">
<polygon fill="white" stroke="#bfbfbf" points="21.5,-409.5 21.5,-472.5 119.5,-472.5 119.5,-409.5 21.5,-409.5"/>
<text text-anchor="middle" x="70.5" y="-458.9" font-family="Helvetica,sans-Serif" font-size="12.00">MonoBehaviour</text>
<polyline fill="none" stroke="#bfbfbf" points="21.5,-451.5 119.5,-451.5 "/>
<text text-anchor="middle" x="70.5" y="-437.9" font-family="Helvetica,sans-Serif" font-size="12.00"> </text>
<polyline fill="none" stroke="#bfbfbf" points="21.5,-430.5 119.5,-430.5 "/>
<text text-anchor="middle" x="70.5" y="-416.9" font-family="Helvetica,sans-Serif" font-size="12.00"> </text>
</a>
</g>
</g>
<!-- Node2&#45;&gt;Node1 -->
<g id="edge1" class="edge">
<title>Node2&#45;&gt;Node1</title>
<path fill="none" stroke="midnightblue" d="M71,-399.32C71.52,-357.56 72.35,-290.65 73.07,-232.51"/>
<polygon fill="none" stroke="midnightblue" points="67.5,-399.33 70.88,-409.37 74.5,-399.41 67.5,-399.33"/>
</g>
<!-- Node3 -->
<g id="node3" class="node">
<title>Node3</title>
<g id="a_node3"><a xlink:href="class_close_up_point_script.html" target="_top" xlink:title="Script for camera close up point Gameobject">
<polygon fill="white" stroke="black" points="87,-282.5 87,-371.5 244,-371.5 244,-282.5 87,-282.5"/>
<text text-anchor="middle" x="165.5" y="-357.9" font-family="Helvetica,sans-Serif" font-size="12.00">CloseUpPointScript</text>
<polyline fill="none" stroke="black" points="87,-350.5 244,-350.5 "/>
<text text-anchor="start" x="95" y="-336.9" font-family="Helvetica,sans-Serif" font-size="12.00">&#45; closeUpPointName</text>
<polyline fill="none" stroke="black" points="87,-329.5 244,-329.5 "/>
<text text-anchor="start" x="95" y="-315.9" font-family="Helvetica,sans-Serif" font-size="12.00">+ SetCloseUpPointName()</text>
<text text-anchor="start" x="95" y="-302.9" font-family="Helvetica,sans-Serif" font-size="12.00">+ GetCloseUpPointName()</text>
<text text-anchor="start" x="95" y="-289.9" font-family="Helvetica,sans-Serif" font-size="12.00">+ GetCameraPosition()</text>
</a>
</g>
</g>
<!-- Node2&#45;&gt;Node3 -->
<g id="edge3" class="edge">
<title>Node2&#45;&gt;Node3</title>
<path fill="none" stroke="midnightblue" d="M103.15,-401.51C111.33,-391.86 120.16,-381.45 128.53,-371.58"/>
<polygon fill="none" stroke="midnightblue" points="100.26,-399.51 96.46,-409.4 105.6,-404.03 100.26,-399.51"/>
</g>
<!-- Node3&#45;&gt;Node1 -->
<g id="edge2" class="edge">
<title>Node3&#45;&gt;Node1</title>
<path fill="none" stroke="#404040" d="M146.42,-282.29C141.37,-270.7 135.64,-257.58 129.68,-243.94"/>
<polygon fill="none" stroke="#404040" points="129.66,-243.89 123.6,-239.99 124.86,-232.89 130.93,-236.79 129.66,-243.89"/>
<text text-anchor="middle" x="177" y="-254.4" font-family="Helvetica,sans-Serif" font-size="12.00"> &#45;closeUpPoints</text>
</g>
</g>
</svg>
