<?xml version="1.0" encoding="UTF-8" standalone="no"?>
<!DOCTYPE svg PUBLIC "-//W3C//DTD SVG 1.1//EN"
 "http://www.w3.org/Graphics/SVG/1.1/DTD/svg11.dtd">
<!-- Generated by graphviz version 2.47.1 (20210417.1919)
 -->
<!-- Title: UIHandler.ConfirmSuggestion Pages: 1 -->
<svg width="2379pt" height="502pt"
 viewBox="0.00 0.00 2379.00 502.00" xmlns="http://www.w3.org/2000/svg" xmlns:xlink="http://www.w3.org/1999/xlink">
<g id="graph0" class="graph" transform="scale(1 1) rotate(0) translate(4 498)">
<title>UIHandler.ConfirmSuggestion</title>
<polygon fill="white" stroke="transparent" points="-4,4 -4,-498 2375,-498 2375,4 -4,4"/>
<!-- Node1 -->
<g id="node1" class="node">
<title>Node1</title>
<g id="a_node1"><a xlink:title="Hides the suggestion panel">
<polygon fill="#bfbfbf" stroke="black" points="0,-197.5 0,-218.5 171,-218.5 171,-197.5 0,-197.5"/>
<text text-anchor="middle" x="85.5" y="-204.9" font-family="Helvetica,sans-Serif" font-size="12.00">UIHandler.ConfirmSuggestion</text>
</a>
</g>
</g>
<!-- Node2 -->
<g id="node2" class="node">
<title>Node2</title>
<g id="a_node2"><a xlink:href="class_user_controller.html#a6230816eec4c8be9bda248a166d7b9bd" target="_top" xlink:title="Makes suggestion">
<polygon fill="white" stroke="black" points="207,-197.5 207,-218.5 390,-218.5 390,-197.5 207,-197.5"/>
<text text-anchor="middle" x="298.5" y="-204.9" font-family="Helvetica,sans-Serif" font-size="12.00">UserController.MakeSuggestion</text>
</a>
</g>
</g>
<!-- Node1&#45;&gt;Node2 -->
<g id="edge1" class="edge">
<title>Node1&#45;&gt;Node2</title>
<path fill="none" stroke="midnightblue" d="M171.11,-208C179.51,-208 188.1,-208 196.65,-208"/>
<polygon fill="midnightblue" stroke="midnightblue" points="196.65,-211.5 206.65,-208 196.65,-204.5 196.65,-211.5"/>
</g>
<!-- Node3 -->
<g id="node3" class="node">
<title>Node3</title>
<g id="a_node3"><a xlink:href="class_round_manager.html#a596fc1c822ebb74dad8d238b15b1ea3a" target="_top" xlink:title="Iterate through the rest of the players searching for if 1 or more of the cards were found">
<polygon fill="white" stroke="black" points="426,-315.5 426,-336.5 614,-336.5 614,-315.5 426,-315.5"/>
<text text-anchor="middle" x="520" y="-322.9" font-family="Helvetica,sans-Serif" font-size="12.00">RoundManager.MakeSuggestion</text>
</a>
</g>
</g>
<!-- Node2&#45;&gt;Node3 -->
<g id="edge2" class="edge">
<title>Node2&#45;&gt;Node3</title>
<path fill="none" stroke="midnightblue" d="M319.37,-218.68C358.38,-239.65 445.14,-286.29 490.35,-310.6"/>
<polygon fill="midnightblue" stroke="midnightblue" points="488.87,-313.78 499.34,-315.43 492.19,-307.61 488.87,-313.78"/>
</g>
<!-- Node27 -->
<g id="node27" class="node">
<title>Node27</title>
<g id="a_node27"><a xlink:href="class_suggestion.html#ab326cb791b6707926dd69497e79d159b" target="_top" xlink:title=" ">
<polygon fill="white" stroke="black" points="459,-100.5 459,-121.5 581,-121.5 581,-100.5 459,-100.5"/>
<text text-anchor="middle" x="520" y="-107.9" font-family="Helvetica,sans-Serif" font-size="12.00">Suggestion.Suggest</text>
</a>
</g>
</g>
<!-- Node2&#45;&gt;Node27 -->
<g id="edge36" class="edge">
<title>Node2&#45;&gt;Node27</title>
<path fill="none" stroke="midnightblue" d="M323.41,-197.43C362.74,-180.05 441.2,-145.38 485.86,-125.64"/>
<polygon fill="midnightblue" stroke="midnightblue" points="487.39,-128.8 495.12,-121.55 484.56,-122.39 487.39,-128.8"/>
</g>
<!-- Node4 -->
<g id="node4" class="node">
<title>Node4</title>
<g id="a_node4"><a xlink:href="class_round_manager.html#a780da336fd16dcaee0f00306578f13b4" target="_top" xlink:title=" ">
<polygon fill="white" stroke="black" points="679,-392.5 679,-413.5 845,-413.5 845,-392.5 679,-392.5"/>
<text text-anchor="middle" x="762" y="-399.9" font-family="Helvetica,sans-Serif" font-size="12.00">RoundManager.AIShowCard</text>
</a>
</g>
</g>
<!-- Node3&#45;&gt;Node4 -->
<g id="edge3" class="edge">
<title>Node3&#45;&gt;Node4</title>
<path fill="none" stroke="midnightblue" d="M543.89,-336.54C569.37,-347.96 611.96,-366.14 650,-378 664.77,-382.61 680.9,-386.74 696.17,-390.25"/>
<polygon fill="midnightblue" stroke="midnightblue" points="695.53,-393.69 706.05,-392.47 697.06,-386.86 695.53,-393.69"/>
</g>
<!-- Node6 -->
<g id="node6" class="node">
<title>Node6</title>
<g id="a_node6"><a xlink:href="class_player_master_controller.html#a12c91851433777ae557a71d9f9a855f0" target="_top" xlink:title=" ">
<polygon fill="white" stroke="black" points="1173,-274.5 1173,-295.5 1382,-295.5 1382,-274.5 1173,-274.5"/>
<text text-anchor="middle" x="1277.5" y="-281.9" font-family="Helvetica,sans-Serif" font-size="12.00">PlayerMasterController.GetCharacter</text>
</a>
</g>
</g>
<!-- Node3&#45;&gt;Node6 -->
<g id="edge32" class="edge">
<title>Node3&#45;&gt;Node6</title>
<path fill="none" stroke="midnightblue" d="M614.02,-320.95C752.62,-313.43 1013.06,-299.3 1162.79,-291.17"/>
<polygon fill="midnightblue" stroke="midnightblue" points="1163.13,-294.66 1172.93,-290.62 1162.76,-287.67 1163.13,-294.66"/>
</g>
<!-- Node7 -->
<g id="node7" class="node">
<title>Node7</title>
<g id="a_node7"><a xlink:href="class_enum_to_string.html#a078a1fb16a0030544fac1b96a90b6b83" target="_top" xlink:title="Get a string value from a valid enum">
<polygon fill="white" stroke="black" points="1720,-353.5 1720,-374.5 1921,-374.5 1921,-353.5 1720,-353.5"/>
<text text-anchor="middle" x="1820.5" y="-360.9" font-family="Helvetica,sans-Serif" font-size="12.00">EnumToString.GetStringFromEnum</text>
</a>
</g>
</g>
<!-- Node3&#45;&gt;Node7 -->
<g id="edge34" class="edge">
<title>Node3&#45;&gt;Node7</title>
<path fill="none" stroke="midnightblue" d="M607.38,-336.53C707.19,-347.78 876.46,-364 1022.5,-364 1022.5,-364 1022.5,-364 1278.5,-364 1427.87,-364 1600.44,-364 1709.74,-364"/>
<polygon fill="midnightblue" stroke="midnightblue" points="1709.79,-367.5 1719.79,-364 1709.79,-360.5 1709.79,-367.5"/>
</g>
<!-- Node8 -->
<g id="node8" class="node">
<title>Node8</title>
<g id="a_node8"><a xlink:href="class_round_manager.html#a6cf32ad7ffd3cafc902ae5faeb7605f8" target="_top" xlink:title="removing a card from the player&#39;s To Guess List notify the AI if a player finished showing a suggeste...">
<polygon fill="white" stroke="black" points="1183.5,-314.5 1183.5,-335.5 1371.5,-335.5 1371.5,-314.5 1183.5,-314.5"/>
<text text-anchor="middle" x="1277.5" y="-321.9" font-family="Helvetica,sans-Serif" font-size="12.00">RoundManager.NotifySuggestion</text>
</a>
</g>
</g>
<!-- Node3&#45;&gt;Node8 -->
<g id="edge35" class="edge">
<title>Node3&#45;&gt;Node8</title>
<path fill="none" stroke="midnightblue" d="M614.02,-325.88C755.76,-325.69 1024.91,-325.33 1172.78,-325.14"/>
<polygon fill="midnightblue" stroke="midnightblue" points="1173.21,-328.64 1183.21,-325.12 1173.21,-321.64 1173.21,-328.64"/>
</g>
<!-- Node21 -->
<g id="node21" class="node">
<title>Node21</title>
<g id="a_node21"><a xlink:href="class_u_i_handler.html#a81884a614bffa4b024ed137552033f7f" target="_top" xlink:title="Dispal a panel for a player to choose which card to show">
<polygon fill="white" stroke="black" points="935,-160.5 935,-181.5 1112,-181.5 1112,-160.5 935,-160.5"/>
<text text-anchor="middle" x="1023.5" y="-167.9" font-family="Helvetica,sans-Serif" font-size="12.00">UIHandler.DisplayChoicePanel</text>
</a>
</g>
</g>
<!-- Node3&#45;&gt;Node21 -->
<g id="edge24" class="edge">
<title>Node3&#45;&gt;Node21</title>
<path fill="none" stroke="midnightblue" d="M531.22,-315.41C551.66,-294.95 599.92,-250.15 650,-229 663.22,-223.42 833.08,-198.27 938.81,-182.98"/>
<polygon fill="midnightblue" stroke="midnightblue" points="939.43,-186.43 948.83,-181.53 938.43,-179.5 939.43,-186.43"/>
</g>
<!-- Node23 -->
<g id="node23" class="node">
<title>Node23</title>
<g id="a_node23"><a xlink:href="class_u_i_handler.html#a1f0729c8102e73f3d97c1f078b9f9d52" target="_top" xlink:title="Dispalys text on screen">
<polygon fill="white" stroke="black" points="679.5,-238.5 679.5,-259.5 844.5,-259.5 844.5,-238.5 679.5,-238.5"/>
<text text-anchor="middle" x="762" y="-245.9" font-family="Helvetica,sans-Serif" font-size="12.00">UIHandler.DisplayOutputText</text>
</a>
</g>
</g>
<!-- Node3&#45;&gt;Node23 -->
<g id="edge29" class="edge">
<title>Node3&#45;&gt;Node23</title>
<path fill="none" stroke="midnightblue" d="M543.89,-315.46C569.37,-304.04 611.96,-285.86 650,-274 664.77,-269.39 680.9,-265.26 696.17,-261.75"/>
<polygon fill="midnightblue" stroke="midnightblue" points="697.06,-265.14 706.05,-259.53 695.53,-258.31 697.06,-265.14"/>
</g>
<!-- Node25 -->
<g id="node25" class="node">
<title>Node25</title>
<g id="a_node25"><a xlink:href="class_u_i_handler.html#abe1710aca2abe4dbb489f0c49a3af879" target="_top" xlink:title="To display the View Blocker can include the name of the player that needs it&#39;s attention">
<polygon fill="white" stroke="black" points="674,-472.5 674,-493.5 850,-493.5 850,-472.5 674,-472.5"/>
<text text-anchor="middle" x="762" y="-479.9" font-family="Helvetica,sans-Serif" font-size="12.00">UIHandler.DisplayViewBlocker</text>
</a>
</g>
</g>
<!-- Node3&#45;&gt;Node25 -->
<g id="edge31" class="edge">
<title>Node3&#45;&gt;Node25</title>
<path fill="none" stroke="midnightblue" d="M527.55,-336.73C544.28,-363.1 591.41,-431.23 650,-463 654.51,-465.45 659.26,-467.6 664.15,-469.5"/>
<polygon fill="midnightblue" stroke="midnightblue" points="663.12,-472.84 673.72,-472.84 665.43,-466.24 663.12,-472.84"/>
</g>
<!-- Node26 -->
<g id="node26" class="node">
<title>Node26</title>
<g id="a_node26"><a xlink:href="class_turn_controller.html#a1eddf50c785325b5e873312d1fcd6380" target="_top" xlink:title=" ">
<polygon fill="white" stroke="black" points="650,-432.5 650,-453.5 874,-453.5 874,-432.5 650,-432.5"/>
<text text-anchor="middle" x="762" y="-439.9" font-family="Helvetica,sans-Serif" font-size="12.00">TurnController.GetRestOfPlayersInOrder</text>
</a>
</g>
</g>
<!-- Node3&#45;&gt;Node26 -->
<g id="edge33" class="edge">
<title>Node3&#45;&gt;Node26</title>
<path fill="none" stroke="midnightblue" d="M531.59,-336.8C552.28,-357.22 600.43,-401.37 650,-423 655.77,-425.52 661.84,-427.72 668.05,-429.64"/>
<polygon fill="midnightblue" stroke="midnightblue" points="667.32,-433.07 677.89,-432.45 669.23,-426.34 667.32,-433.07"/>
</g>
<!-- Node5 -->
<g id="node5" class="node">
<title>Node5</title>
<g id="a_node5"><a xlink:href="class_u_i_handler.html#a4009ca74f59111933be2a637c7835e18" target="_top" xlink:title="Displays a card from a player that has it">
<polygon fill="white" stroke="black" points="960.5,-392.5 960.5,-413.5 1086.5,-413.5 1086.5,-392.5 960.5,-392.5"/>
<text text-anchor="middle" x="1023.5" y="-399.9" font-family="Helvetica,sans-Serif" font-size="12.00">UIHandler.ShowCard</text>
</a>
</g>
</g>
<!-- Node4&#45;&gt;Node5 -->
<g id="edge4" class="edge">
<title>Node4&#45;&gt;Node5</title>
<path fill="none" stroke="midnightblue" d="M845.11,-403C878.74,-403 917.33,-403 949.91,-403"/>
<polygon fill="midnightblue" stroke="midnightblue" points="950.26,-406.5 960.26,-403 950.26,-399.5 950.26,-406.5"/>
</g>
<!-- Node5&#45;&gt;Node6 -->
<g id="edge5" class="edge">
<title>Node5&#45;&gt;Node6</title>
<path fill="none" stroke="midnightblue" d="M1037.02,-392.2C1061.43,-371.78 1117.8,-327.51 1173,-305 1179.32,-302.42 1185.99,-300.17 1192.79,-298.21"/>
<polygon fill="midnightblue" stroke="midnightblue" points="1194.04,-301.5 1202.79,-295.53 1192.23,-294.74 1194.04,-301.5"/>
</g>
<!-- Node5&#45;&gt;Node7 -->
<g id="edge6" class="edge">
<title>Node5&#45;&gt;Node7</title>
<path fill="none" stroke="midnightblue" d="M1086.81,-401.79C1202.58,-399.28 1458.67,-392.49 1674,-378 1685.57,-377.22 1697.65,-376.27 1709.68,-375.24"/>
<polygon fill="midnightblue" stroke="midnightblue" points="1710.11,-378.72 1719.77,-374.36 1709.5,-371.75 1710.11,-378.72"/>
</g>
<!-- Node5&#45;&gt;Node8 -->
<g id="edge7" class="edge">
<title>Node5&#45;&gt;Node8</title>
<path fill="none" stroke="midnightblue" d="M1058.49,-392.48C1103.48,-378.55 1182.9,-353.97 1232.45,-338.63"/>
<polygon fill="midnightblue" stroke="midnightblue" points="1233.73,-341.9 1242.25,-335.6 1231.66,-335.22 1233.73,-341.9"/>
</g>
<!-- Node17 -->
<g id="node17" class="node">
<title>Node17</title>
<g id="a_node17"><a xlink:href="class_card_slot.html#a9049dedcebbbc4b2185a2a01d76d4ed5" target="_top" xlink:title=" ">
<polygon fill="white" stroke="black" points="1222.5,-430.5 1222.5,-451.5 1332.5,-451.5 1332.5,-430.5 1222.5,-430.5"/>
<text text-anchor="middle" x="1277.5" y="-437.9" font-family="Helvetica,sans-Serif" font-size="12.00">CardSlot.SetCard</text>
</a>
</g>
</g>
<!-- Node5&#45;&gt;Node17 -->
<g id="edge19" class="edge">
<title>Node5&#45;&gt;Node17</title>
<path fill="none" stroke="midnightblue" d="M1086.79,-412.39C1124.92,-418.14 1173.62,-425.49 1212.13,-431.29"/>
<polygon fill="midnightblue" stroke="midnightblue" points="1211.78,-434.78 1222.19,-432.81 1212.82,-427.86 1211.78,-434.78"/>
</g>
<!-- Node9 -->
<g id="node9" class="node">
<title>Node9</title>
<g id="a_node9"><a xlink:href="class_round_manager.html#aab3f49a5e05508a8e023a497e763c1c8" target="_top" xlink:title="Gets the player controller for the current player">
<polygon fill="white" stroke="black" points="1451,-166.5 1451,-187.5 1641,-187.5 1641,-166.5 1451,-166.5"/>
<text text-anchor="middle" x="1546" y="-173.9" font-family="Helvetica,sans-Serif" font-size="12.00">RoundManager.GetCurrentPlayer</text>
</a>
</g>
</g>
<!-- Node8&#45;&gt;Node9 -->
<g id="edge8" class="edge">
<title>Node8&#45;&gt;Node9</title>
<path fill="none" stroke="midnightblue" d="M1367.8,-314.33C1372.89,-311.75 1377.68,-308.68 1382,-305 1417.35,-274.94 1383.28,-237.78 1418,-207 1425.23,-200.59 1433.59,-195.48 1442.48,-191.42"/>
<polygon fill="midnightblue" stroke="midnightblue" points="1443.99,-194.58 1451.92,-187.55 1441.34,-188.1 1443.99,-194.58"/>
</g>
<!-- Node11 -->
<g id="node11" class="node">
<title>Node11</title>
<g id="a_node11"><a xlink:href="class_a_i_controller_script.html#a208f5afe4102ff2ca04a03a425d76279" target="_top" xlink:title="for the round manager to notify that another player finished picking a card to show">
<polygon fill="white" stroke="black" points="1446,-256.5 1446,-277.5 1646,-277.5 1646,-256.5 1446,-256.5"/>
<text text-anchor="middle" x="1546" y="-263.9" font-family="Helvetica,sans-Serif" font-size="12.00">AIControllerScript.NotifySuggestion</text>
</a>
</g>
</g>
<!-- Node8&#45;&gt;Node11 -->
<g id="edge10" class="edge">
<title>Node8&#45;&gt;Node11</title>
<path fill="none" stroke="midnightblue" d="M1334.98,-314.49C1350.26,-311.54 1366.79,-308.24 1382,-305 1418.8,-297.16 1460.07,-287.53 1491.88,-279.92"/>
<polygon fill="midnightblue" stroke="midnightblue" points="1492.95,-283.27 1501.86,-277.53 1491.32,-276.46 1492.95,-283.27"/>
</g>
<!-- Node15 -->
<g id="node15" class="node">
<title>Node15</title>
<g id="a_node15"><a xlink:href="class_player_master_controller.html#a16dbaeb841ba29cdc8b7cb3b3bc86d99" target="_top" xlink:title="Remove a card from ToGuessCard">
<polygon fill="white" stroke="black" points="1418,-216.5 1418,-237.5 1674,-237.5 1674,-216.5 1418,-216.5"/>
<text text-anchor="middle" x="1546" y="-223.9" font-family="Helvetica,sans-Serif" font-size="12.00">PlayerMasterController.RemoveToGuessCard</text>
</a>
</g>
</g>
<!-- Node8&#45;&gt;Node15 -->
<g id="edge17" class="edge">
<title>Node8&#45;&gt;Node15</title>
<path fill="none" stroke="midnightblue" d="M1364.15,-314.46C1370.46,-311.9 1376.5,-308.79 1382,-305 1406.99,-287.79 1392.72,-263.77 1418,-247 1420.79,-245.15 1423.69,-243.45 1426.67,-241.88"/>
<polygon fill="midnightblue" stroke="midnightblue" points="1428.29,-244.99 1435.87,-237.59 1425.33,-238.65 1428.29,-244.99"/>
</g>
<!-- Node10 -->
<g id="node10" class="node">
<title>Node10</title>
<g id="a_node10"><a xlink:href="class_turn_controller.html#af16e42b7e61c5a999291327e2e556caa" target="_top" xlink:title=" ">
<polygon fill="white" stroke="black" points="1729.5,-166.5 1729.5,-187.5 1911.5,-187.5 1911.5,-166.5 1729.5,-166.5"/>
<text text-anchor="middle" x="1820.5" y="-173.9" font-family="Helvetica,sans-Serif" font-size="12.00">TurnController.GetCurrentPlayer</text>
</a>
</g>
</g>
<!-- Node9&#45;&gt;Node10 -->
<g id="edge9" class="edge">
<title>Node9&#45;&gt;Node10</title>
<path fill="none" stroke="midnightblue" d="M1641.16,-177C1666.42,-177 1693.82,-177 1719.39,-177"/>
<polygon fill="midnightblue" stroke="midnightblue" points="1719.47,-180.5 1729.47,-177 1719.47,-173.5 1719.47,-180.5"/>
</g>
<!-- Node11&#45;&gt;Node7 -->
<g id="edge11" class="edge">
<title>Node11&#45;&gt;Node7</title>
<path fill="none" stroke="midnightblue" d="M1630.05,-277.55C1645.07,-281.07 1660.3,-285.76 1674,-292 1692.44,-300.41 1692.43,-309.9 1710,-320 1731.01,-332.07 1755.98,-342.38 1776.76,-349.98"/>
<polygon fill="midnightblue" stroke="midnightblue" points="1775.7,-353.32 1786.29,-353.38 1778.05,-346.72 1775.7,-353.32"/>
</g>
<!-- Node12 -->
<g id="node12" class="node">
<title>Node12</title>
<g id="a_node12"><a xlink:href="class_a_i_controller_script.html#ab124aec8211aa7b8f00c6ef5db6bc96a" target="_top" xlink:title="for out putting the debug stack if outputDebugText is true, it will out put the the console as well">
<polygon fill="white" stroke="black" points="2191,-257.5 2191,-278.5 2371,-278.5 2371,-257.5 2191,-257.5"/>
<text text-anchor="middle" x="2281" y="-264.9" font-family="Helvetica,sans-Serif" font-size="12.00">AIControllerScript.OutputDebug</text>
</a>
</g>
</g>
<!-- Node11&#45;&gt;Node12 -->
<g id="edge12" class="edge">
<title>Node11&#45;&gt;Node12</title>
<path fill="none" stroke="midnightblue" d="M1617.43,-277.55C1646.08,-281.34 1679.55,-285.14 1710,-287 1907.43,-299.07 1957.62,-293.89 2155,-281 2163.37,-280.45 2172.05,-279.78 2180.75,-279.02"/>
<polygon fill="midnightblue" stroke="midnightblue" points="2181.31,-282.49 2190.96,-278.11 2180.69,-275.52 2181.31,-282.49"/>
</g>
<!-- Node13 -->
<g id="node13" class="node">
<title>Node13</title>
<g id="a_node13"><a xlink:href="class_a_i_controller_script.html#aaee909cd0f0ffdedd8d8425607d7ccb5" target="_top" xlink:title="to set the AI&#39;s mode">
<polygon fill="white" stroke="black" points="1735.5,-256.5 1735.5,-277.5 1905.5,-277.5 1905.5,-256.5 1735.5,-256.5"/>
<text text-anchor="middle" x="1820.5" y="-263.9" font-family="Helvetica,sans-Serif" font-size="12.00">AIControllerScript.SetAIMode</text>
</a>
</g>
</g>
<!-- Node11&#45;&gt;Node13 -->
<g id="edge13" class="edge">
<title>Node11&#45;&gt;Node13</title>
<path fill="none" stroke="midnightblue" d="M1646.15,-267C1671.94,-267 1699.66,-267 1725.19,-267"/>
<polygon fill="midnightblue" stroke="midnightblue" points="1725.24,-270.5 1735.24,-267 1725.24,-263.5 1725.24,-270.5"/>
</g>
<!-- Node13&#45;&gt;Node12 -->
<g id="edge16" class="edge">
<title>Node13&#45;&gt;Node12</title>
<path fill="none" stroke="midnightblue" d="M1905.6,-267.18C1983.27,-267.35 2098.72,-267.6 2180.86,-267.78"/>
<polygon fill="midnightblue" stroke="midnightblue" points="2180.95,-271.28 2190.96,-267.81 2180.97,-264.28 2180.95,-271.28"/>
</g>
<!-- Node14 -->
<g id="node14" class="node">
<title>Node14</title>
<g id="a_node14"><a xlink:href="class_a_i_controller_script.html#afcb2875a5501f07a7f44d0fa720266f3" target="_top" xlink:title="to delay the time for the next time the AI does something in the Update">
<polygon fill="white" stroke="black" points="1967,-218.5 1967,-239.5 2155,-239.5 2155,-218.5 1967,-218.5"/>
<text text-anchor="middle" x="2061" y="-225.9" font-family="Helvetica,sans-Serif" font-size="12.00">AIControllerScript.DelayDecision</text>
</a>
</g>
</g>
<!-- Node13&#45;&gt;Node14 -->
<g id="edge14" class="edge">
<title>Node13&#45;&gt;Node14</title>
<path fill="none" stroke="midnightblue" d="M1887.62,-256.47C1917.47,-251.71 1952.91,-246.06 1983.87,-241.13"/>
<polygon fill="midnightblue" stroke="midnightblue" points="1984.43,-244.59 1993.75,-239.56 1983.33,-237.67 1984.43,-244.59"/>
</g>
<!-- Node14&#45;&gt;Node12 -->
<g id="edge15" class="edge">
<title>Node14&#45;&gt;Node12</title>
<path fill="none" stroke="midnightblue" d="M2120.71,-239.5C2148.57,-244.49 2182.05,-250.48 2211.11,-255.68"/>
<polygon fill="midnightblue" stroke="midnightblue" points="2210.73,-259.16 2221.19,-257.48 2211.96,-252.27 2210.73,-259.16"/>
</g>
<!-- Node16 -->
<g id="node16" class="node">
<title>Node16</title>
<g id="a_node16"><a xlink:href="class_player_stats_script.html#a9cfb94bd7661f4120b9ea69c025bd368" target="_top" xlink:title="remove a selected card from To Guess List">
<polygon fill="white" stroke="black" points="1710,-216.5 1710,-237.5 1931,-237.5 1931,-216.5 1710,-216.5"/>
<text text-anchor="middle" x="1820.5" y="-223.9" font-family="Helvetica,sans-Serif" font-size="12.00">PlayerStatsScript.RemoveToGessCard</text>
</a>
</g>
</g>
<!-- Node15&#45;&gt;Node16 -->
<g id="edge18" class="edge">
<title>Node15&#45;&gt;Node16</title>
<path fill="none" stroke="midnightblue" d="M1674.08,-227C1682.56,-227 1691.09,-227 1699.54,-227"/>
<polygon fill="midnightblue" stroke="midnightblue" points="1699.79,-230.5 1709.79,-227 1699.79,-223.5 1699.79,-230.5"/>
</g>
<!-- Node18 -->
<g id="node18" class="node">
<title>Node18</title>
<g id="a_node18"><a xlink:href="class_card_slot.html#a4690c0753db45ada6b02681269ecfbb1" target="_top" xlink:title=" ">
<polygon fill="white" stroke="black" points="1472.5,-430.5 1472.5,-451.5 1619.5,-451.5 1619.5,-430.5 1472.5,-430.5"/>
<text text-anchor="middle" x="1546" y="-437.9" font-family="Helvetica,sans-Serif" font-size="12.00">CardSlot.SetCardDetails</text>
</a>
</g>
</g>
<!-- Node17&#45;&gt;Node18 -->
<g id="edge20" class="edge">
<title>Node17&#45;&gt;Node18</title>
<path fill="none" stroke="midnightblue" d="M1332.75,-441C1369.87,-441 1419.79,-441 1461.89,-441"/>
<polygon fill="midnightblue" stroke="midnightblue" points="1462.13,-444.5 1472.13,-441 1462.13,-437.5 1462.13,-444.5"/>
</g>
<!-- Node18&#45;&gt;Node7 -->
<g id="edge23" class="edge">
<title>Node18&#45;&gt;Node7</title>
<path fill="none" stroke="midnightblue" d="M1612.14,-430.46C1632.16,-426.62 1654.15,-421.77 1674,-416 1690.49,-411.21 1693.89,-407.93 1710,-402 1732.56,-393.7 1757.91,-384.87 1778.53,-377.82"/>
<polygon fill="midnightblue" stroke="midnightblue" points="1779.9,-381.05 1788.24,-374.51 1777.65,-374.42 1779.9,-381.05"/>
</g>
<!-- Node19 -->
<g id="node19" class="node">
<title>Node19</title>
<g id="a_node19"><a xlink:href="class_card.html#a25e8366933b176fae41e4d2373be7815" target="_top" xlink:title=" ">
<polygon fill="white" stroke="black" points="1759,-451.5 1759,-472.5 1882,-472.5 1882,-451.5 1759,-451.5"/>
<text text-anchor="middle" x="1820.5" y="-458.9" font-family="Helvetica,sans-Serif" font-size="12.00">Card.GetCardImage</text>
</a>
</g>
</g>
<!-- Node18&#45;&gt;Node19 -->
<g id="edge21" class="edge">
<title>Node18&#45;&gt;Node19</title>
<path fill="none" stroke="midnightblue" d="M1619.67,-446.6C1659.55,-449.67 1708.81,-453.47 1748.44,-456.52"/>
<polygon fill="midnightblue" stroke="midnightblue" points="1748.32,-460.02 1758.56,-457.3 1748.86,-453.05 1748.32,-460.02"/>
</g>
<!-- Node20 -->
<g id="node20" class="node">
<title>Node20</title>
<g id="a_node20"><a xlink:href="class_card.html#a094a5e7ea98cc156ac64e578a987be85" target="_top" xlink:title=" ">
<polygon fill="white" stroke="black" points="1762.5,-411.5 1762.5,-432.5 1878.5,-432.5 1878.5,-411.5 1762.5,-411.5"/>
<text text-anchor="middle" x="1820.5" y="-418.9" font-family="Helvetica,sans-Serif" font-size="12.00">Card.GetCardType</text>
</a>
</g>
</g>
<!-- Node18&#45;&gt;Node20 -->
<g id="edge22" class="edge">
<title>Node18&#45;&gt;Node20</title>
<path fill="none" stroke="midnightblue" d="M1619.67,-435.93C1660.8,-433.07 1711.9,-429.5 1752.13,-426.7"/>
<polygon fill="midnightblue" stroke="midnightblue" points="1752.38,-430.19 1762.11,-426 1751.89,-423.21 1752.38,-430.19"/>
</g>
<!-- Node21&#45;&gt;Node6 -->
<g id="edge25" class="edge">
<title>Node21&#45;&gt;Node6</title>
<path fill="none" stroke="midnightblue" d="M1109.05,-181.51C1119.04,-185.09 1128.65,-189.8 1137,-196 1163.21,-215.45 1146.97,-240.31 1173,-260 1178.5,-264.16 1184.59,-267.64 1190.98,-270.54"/>
<polygon fill="midnightblue" stroke="midnightblue" points="1189.96,-273.9 1200.54,-274.41 1192.58,-267.41 1189.96,-273.9"/>
</g>
<!-- Node21&#45;&gt;Node7 -->
<g id="edge27" class="edge">
<title>Node21&#45;&gt;Node7</title>
<path fill="none" stroke="midnightblue" d="M1112.12,-177.26C1120.8,-179.69 1129.25,-182.87 1137,-187 1158.11,-198.25 1152.11,-215.35 1173,-227 1255.45,-273 1293.78,-231.37 1382,-265 1399.52,-271.68 1400.51,-280.24 1418,-287 1512.84,-323.68 1627.29,-343.42 1709.68,-353.69"/>
<polygon fill="midnightblue" stroke="midnightblue" points="1709.47,-357.19 1719.82,-354.93 1710.32,-350.25 1709.47,-357.19"/>
</g>
<!-- Node21&#45;&gt;Node9 -->
<g id="edge26" class="edge">
<title>Node21&#45;&gt;Node9</title>
<path fill="none" stroke="midnightblue" d="M1112.21,-172.01C1202.87,-173.06 1344.38,-174.69 1440.71,-175.8"/>
<polygon fill="midnightblue" stroke="midnightblue" points="1440.73,-179.3 1450.76,-175.91 1440.81,-172.3 1440.73,-179.3"/>
</g>
<!-- Node22 -->
<g id="node22" class="node">
<title>Node22</title>
<g id="a_node22"><a xlink:href="class_card_slot.html#af678d8249e4d52bb791b47d4ed75e7f3" target="_top" xlink:title="Makes the card slot visible and its game object active">
<polygon fill="white" stroke="black" points="1217.5,-196.5 1217.5,-217.5 1337.5,-217.5 1337.5,-196.5 1217.5,-196.5"/>
<text text-anchor="middle" x="1277.5" y="-203.9" font-family="Helvetica,sans-Serif" font-size="12.00">CardSlot.SetVisible</text>
</a>
</g>
</g>
<!-- Node21&#45;&gt;Node22 -->
<g id="edge28" class="edge">
<title>Node21&#45;&gt;Node22</title>
<path fill="none" stroke="midnightblue" d="M1098.07,-181.51C1132.43,-186.42 1173.12,-192.23 1206.97,-197.07"/>
<polygon fill="midnightblue" stroke="midnightblue" points="1206.84,-200.58 1217.23,-198.53 1207.83,-193.65 1206.84,-200.58"/>
</g>
<!-- Node24 -->
<g id="node24" class="node">
<title>Node24</title>
<g id="a_node24"><a xlink:href="class_u_i_handler.html#a25f316e553a6f1b60fb6c04a8dc23613" target="_top" xlink:title="Dispalys text on screen">
<polygon fill="white" stroke="black" points="921,-238.5 921,-259.5 1126,-259.5 1126,-238.5 921,-238.5"/>
<text text-anchor="middle" x="1023.5" y="-245.9" font-family="Helvetica,sans-Serif" font-size="12.00">UIHandler.DisplayOutputTextRoutine</text>
</a>
</g>
</g>
<!-- Node23&#45;&gt;Node24 -->
<g id="edge30" class="edge">
<title>Node23&#45;&gt;Node24</title>
<path fill="none" stroke="midnightblue" d="M844.75,-249C865.62,-249 888.42,-249 910.52,-249"/>
<polygon fill="midnightblue" stroke="midnightblue" points="910.62,-252.5 920.62,-249 910.62,-245.5 910.62,-252.5"/>
</g>
<!-- Node28 -->
<g id="node28" class="node">
<title>Node28</title>
<g id="a_node28"><a xlink:href="class_character_card.html#a700a59f812d71708bb772b7df07f08bc" target="_top" xlink:title="Returns the enum of the card">
<polygon fill="white" stroke="black" points="678,-0.5 678,-21.5 846,-21.5 846,-0.5 678,-0.5"/>
<text text-anchor="middle" x="762" y="-7.9" font-family="Helvetica,sans-Serif" font-size="12.00">CharacterCard.GetCardType</text>
</a>
</g>
</g>
<!-- Node27&#45;&gt;Node28 -->
<g id="edge37" class="edge">
<title>Node27&#45;&gt;Node28</title>
<path fill="none" stroke="midnightblue" d="M534.4,-100.27C556.88,-82.84 604.24,-48.57 650,-31 656.93,-28.34 664.24,-26.03 671.66,-24.02"/>
<polygon fill="midnightblue" stroke="midnightblue" points="672.62,-27.39 681.47,-21.56 670.91,-20.6 672.62,-27.39"/>
</g>
<!-- Node29 -->
<g id="node29" class="node">
<title>Node29</title>
<g id="a_node29"><a xlink:href="class_room_card.html#a7e77f1ec02f147b5a968305a16fe90bc" target="_top" xlink:title="Returns the enum of the card">
<polygon fill="white" stroke="black" points="688,-120.5 688,-141.5 836,-141.5 836,-120.5 688,-120.5"/>
<text text-anchor="middle" x="762" y="-127.9" font-family="Helvetica,sans-Serif" font-size="12.00">RoomCard.GetCardType</text>
</a>
</g>
</g>
<!-- Node27&#45;&gt;Node29 -->
<g id="edge38" class="edge">
<title>Node27&#45;&gt;Node29</title>
<path fill="none" stroke="midnightblue" d="M581.25,-116.02C610.45,-118.45 645.97,-121.41 677.71,-124.06"/>
<polygon fill="midnightblue" stroke="midnightblue" points="677.61,-127.56 687.87,-124.91 678.19,-120.59 677.61,-127.56"/>
</g>
<!-- Node30 -->
<g id="node30" class="node">
<title>Node30</title>
<g id="a_node30"><a xlink:href="class_weapon_card.html#af3c92c9857cb9d637f36dcf6cda1282d" target="_top" xlink:title="Returns the enum of the card">
<polygon fill="white" stroke="black" points="681.5,-80.5 681.5,-101.5 842.5,-101.5 842.5,-80.5 681.5,-80.5"/>
<text text-anchor="middle" x="762" y="-87.9" font-family="Helvetica,sans-Serif" font-size="12.00">WeaponCard.GetCardType</text>
</a>
</g>
</g>
<!-- Node27&#45;&gt;Node30 -->
<g id="edge39" class="edge">
<title>Node27&#45;&gt;Node30</title>
<path fill="none" stroke="midnightblue" d="M581.25,-105.98C608.45,-103.71 641.14,-100.99 671.14,-98.49"/>
<polygon fill="midnightblue" stroke="midnightblue" points="671.53,-101.97 681.2,-97.65 670.95,-94.99 671.53,-101.97"/>
</g>
<!-- Node31 -->
<g id="node31" class="node">
<title>Node31</title>
<g id="a_node31"><a xlink:href="class_room_script.html#a4a19c52c114612c19ae2580768d94859" target="_top" xlink:title="Move a player to the room">
<polygon fill="white" stroke="black" points="668,-160.5 668,-181.5 856,-181.5 856,-160.5 668,-160.5"/>
<text text-anchor="middle" x="762" y="-167.9" font-family="Helvetica,sans-Serif" font-size="12.00">RoomScript.MovePlayerToRoom</text>
</a>
</g>
</g>
<!-- Node27&#45;&gt;Node31 -->
<g id="edge40" class="edge">
<title>Node27&#45;&gt;Node31</title>
<path fill="none" stroke="midnightblue" d="M551.2,-121.52C577.16,-130.28 615.72,-142.63 650,-151 661.29,-153.76 673.32,-156.31 685.13,-158.61"/>
<polygon fill="midnightblue" stroke="midnightblue" points="684.51,-162.05 694.98,-160.48 685.81,-155.17 684.51,-162.05"/>
</g>
<!-- Node33 -->
<g id="node33" class="node">
<title>Node33</title>
<g id="a_node33"><a xlink:href="class_room_script.html#ae49a5bb396aa0c894fb1686b92f879da" target="_top" xlink:title="Move a weapon to the room">
<polygon fill="white" stroke="black" points="662,-40.5 662,-61.5 862,-61.5 862,-40.5 662,-40.5"/>
<text text-anchor="middle" x="762" y="-47.9" font-family="Helvetica,sans-Serif" font-size="12.00">RoomScript.MoveWeaponToRoom</text>
</a>
</g>
</g>
<!-- Node27&#45;&gt;Node33 -->
<g id="edge43" class="edge">
<title>Node27&#45;&gt;Node33</title>
<path fill="none" stroke="midnightblue" d="M551.2,-100.48C577.16,-91.72 615.72,-79.37 650,-71 661.29,-68.24 673.32,-65.69 685.13,-63.39"/>
<polygon fill="midnightblue" stroke="midnightblue" points="685.81,-66.83 694.98,-61.52 684.51,-59.95 685.81,-66.83"/>
</g>
<!-- Node31&#45;&gt;Node6 -->
<g id="edge41" class="edge">
<title>Node31&#45;&gt;Node6</title>
<path fill="none" stroke="midnightblue" d="M837.89,-181.54C943.13,-196.5 1123.54,-222.79 1137,-229 1156.17,-237.85 1154.21,-250.36 1173,-260 1182.16,-264.7 1192.24,-268.54 1202.39,-271.67"/>
<polygon fill="midnightblue" stroke="midnightblue" points="1201.55,-275.07 1212.13,-274.45 1203.48,-268.34 1201.55,-275.07"/>
</g>
<!-- Node32 -->
<g id="node32" class="node">
<title>Node32</title>
<g id="a_node32"><a xlink:href="class_player_master_controller.html#a0447a8a21b5c0f2c94f9d27e0bcd0830" target="_top" xlink:title=" ">
<polygon fill="white" stroke="black" points="910,-120.5 910,-141.5 1137,-141.5 1137,-120.5 910,-120.5"/>
<text text-anchor="middle" x="1023.5" y="-127.9" font-family="Helvetica,sans-Serif" font-size="12.00">PlayerMasterController.GetCurrentRoom</text>
</a>
</g>
</g>
<!-- Node31&#45;&gt;Node32 -->
<g id="edge42" class="edge">
<title>Node31&#45;&gt;Node32</title>
<path fill="none" stroke="midnightblue" d="M831.18,-160.49C865.91,-155.14 908.3,-148.6 944.34,-143.05"/>
<polygon fill="midnightblue" stroke="midnightblue" points="944.97,-146.49 954.32,-141.51 943.91,-139.57 944.97,-146.49"/>
</g>
</g>
</svg>
