<?xml version="1.0" encoding="UTF-8" standalone="no"?>
<!DOCTYPE svg PUBLIC "-//W3C//DTD SVG 1.1//EN"
 "http://www.w3.org/Graphics/SVG/1.1/DTD/svg11.dtd">
<!-- Generated by graphviz version 2.47.1 (20210417.1919)
 -->
<!-- Title: AIControllerScript.AIThink Pages: 1 -->
<!--zoomable 224 -->
<svg id="main" version="1.1" xmlns="http://www.w3.org/2000/svg" xmlns:xlink="http://www.w3.org/1999/xlink" xml:space="preserve" onload="init(evt)">
<style type="text/css"><![CDATA[
.edge:hover path { stroke: red; }
.edge:hover polygon { stroke: red; fill: red; }
]]></style>
<script type="text/javascript"><![CDATA[
var edges = document.getElementsByTagName('g');
if (edges && edges.length) {
  for (var i=0;i<edges.length;i++) {
    if (edges[i].id.substr(0,4)=='edge') {
      edges[i].setAttribute('class','edge');
    }
  }
}
]]></script>
        <defs>
                <circle id="rim" cx="0" cy="0" r="7"/>
                <circle id="rim2" cx="0" cy="0" r="3.5"/>
                <g id="zoomPlus">
                        <use xlink:href="#rim" fill="#404040">
                                <set attributeName="fill" to="#808080" begin="zoomplus.mouseover" end="zoomplus.mouseout"/>
                        </use>
                        <path d="M-4,0h8M0,-4v8" fill="none" stroke="white" stroke-width="1.5" pointer-events="none"/>
                </g>
                <g id="zoomMin">
                        <use xlink:href="#rim" fill="#404040">
                                <set attributeName="fill" to="#808080" begin="zoomminus.mouseover" end="zoomminus.mouseout"/>
                        </use>
                        <path d="M-4,0h8" fill="none" stroke="white" stroke-width="1.5" pointer-events="none"/>
                </g>
                <g id="dirArrow">
                        <path fill="none" stroke="white" stroke-width="1.5" d="M0,-3.0v7 M-2.5,-0.5L0,-3.0L2.5,-0.5"/>
                </g>
               <g id="resetDef">
                       <use xlink:href="#rim2" fill="#404040">
                               <set attributeName="fill" to="#808080" begin="reset.mouseover" end="reset.mouseout"/>
                       </use>
               </g>
        </defs>

<script type="text/javascript">
var viewWidth = 854;
var viewHeight = 224;
var sectionId = 'dynsection-4';
</script>
<script xlink:href="svgpan.js"/>
<svg id="graph" class="graph">
<g id="viewport">
<title>AIControllerScript.AIThink</title>
<polygon fill="white" stroke="transparent" points="-4,4 -4,-220 850,-220 850,4 -4,4"/>
<!-- Node1 -->
<g id="node1" class="node">
<title>Node1</title>
<g id="a_node1"><a xlink:title="the AI enter this when it is thinking to decide what to do this should match the flow chart of the AI">
<polygon fill="#bfbfbf" stroke="black" points="0,-77.5 0,-98.5 149,-98.5 149,-77.5 0,-77.5"/>
<text text-anchor="middle" x="74.5" y="-84.9" font-family="Helvetica,sans-Serif" font-size="12.00">AIControllerScript.AIThink</text>
</a>
</g>
</g>
<!-- Node2 -->
<g id="node2" class="node">
<title>Node2</title>
<g id="a_node2"><a xlink:href="class_a_i_controller_script.html#a0bfee235827ff618fa3325164969c2a4" target="_top" xlink:title="check if the AI is comfident enough to accuse this should match the flow chart of the AI">
<polygon fill="white" stroke="black" points="185,-135.5 185,-156.5 357,-156.5 357,-135.5 185,-135.5"/>
<text text-anchor="middle" x="271" y="-142.9" font-family="Helvetica,sans-Serif" font-size="12.00">AIControllerScript.CanAccuse</text>
</a>
</g>
</g>
<!-- Node1&#45;&gt;Node2 -->
<g id="edge1" class="edge">
<title>Node1&#45;&gt;Node2</title>
<path fill="none" stroke="midnightblue" d="M110.72,-98.5C142.71,-108.04 190.05,-122.16 224.81,-132.52"/>
<polygon fill="midnightblue" stroke="midnightblue" points="224.13,-135.97 234.71,-135.48 226.13,-129.27 224.13,-135.97"/>
</g>
<!-- Node5 -->
<g id="node5" class="node">
<title>Node5</title>
<g id="a_node5"><a xlink:href="class_a_i_controller_script.html#ab124aec8211aa7b8f00c6ef5db6bc96a" target="_top" xlink:title="for out putting the debug stack if outputDebugText is true, it will out put the the console as well">
<polygon fill="white" stroke="black" points="666,-58.5 666,-79.5 846,-79.5 846,-58.5 666,-58.5"/>
<text text-anchor="middle" x="756" y="-65.9" font-family="Helvetica,sans-Serif" font-size="12.00">AIControllerScript.OutputDebug</text>
</a>
</g>
</g>
<!-- Node1&#45;&gt;Node5 -->
<g id="edge5" class="edge">
<title>Node1&#45;&gt;Node5</title>
<path fill="none" stroke="midnightblue" d="M149.05,-86.13C255.25,-83.39 457.69,-78.09 630,-73 638.35,-72.75 647,-72.49 655.69,-72.22"/>
<polygon fill="midnightblue" stroke="midnightblue" points="656.01,-75.71 665.89,-71.91 655.79,-68.72 656.01,-75.71"/>
</g>
<!-- Node6 -->
<g id="node6" class="node">
<title>Node6</title>
<g id="a_node6"><a xlink:href="class_a_i_controller_script.html#aaee909cd0f0ffdedd8d8425607d7ccb5" target="_top" xlink:title="to set the AI&#39;s mode">
<polygon fill="white" stroke="black" points="186,-38.5 186,-59.5 356,-59.5 356,-38.5 186,-38.5"/>
<text text-anchor="middle" x="271" y="-45.9" font-family="Helvetica,sans-Serif" font-size="12.00">AIControllerScript.SetAIMode</text>
</a>
</g>
</g>
<!-- Node1&#45;&gt;Node6 -->
<g id="edge6" class="edge">
<title>Node1&#45;&gt;Node6</title>
<path fill="none" stroke="midnightblue" d="M127.88,-77.5C152.41,-72.58 181.83,-66.68 207.52,-61.53"/>
<polygon fill="midnightblue" stroke="midnightblue" points="208.41,-64.92 217.53,-59.52 207.04,-58.06 208.41,-64.92"/>
</g>
<!-- Node3 -->
<g id="node3" class="node">
<title>Node3</title>
<g id="a_node3"><a xlink:href="class_player_master_controller.html#a4d2390b678a0d24484551a62a5332c75" target="_top" xlink:title=" ">
<polygon fill="white" stroke="black" points="393,-194.5 393,-215.5 630,-215.5 630,-194.5 393,-194.5"/>
<text text-anchor="middle" x="511.5" y="-201.9" font-family="Helvetica,sans-Serif" font-size="12.00">PlayerMasterController.GetToGuessCards</text>
</a>
</g>
</g>
<!-- Node2&#45;&gt;Node3 -->
<g id="edge2" class="edge">
<title>Node2&#45;&gt;Node3</title>
<path fill="none" stroke="midnightblue" d="M301,-156.64C325.31,-165.25 361.06,-177.18 393,-185 404.46,-187.81 416.65,-190.36 428.67,-192.62"/>
<polygon fill="midnightblue" stroke="midnightblue" points="428.24,-196.1 438.71,-194.46 429.5,-189.22 428.24,-196.1"/>
</g>
<!-- Node4 -->
<g id="node4" class="node">
<title>Node4</title>
<g id="a_node4"><a xlink:href="class_a_i_controller_script.html#a68e87147ee3eff77870c974edbb2e7ea" target="_top" xlink:title="Load player&#39;s guess list">
<polygon fill="white" stroke="black" points="409.5,-154.5 409.5,-175.5 613.5,-175.5 613.5,-154.5 409.5,-154.5"/>
<text text-anchor="middle" x="511.5" y="-161.9" font-family="Helvetica,sans-Serif" font-size="12.00">AIControllerScript.LoadToGuessList</text>
</a>
</g>
</g>
<!-- Node2&#45;&gt;Node4 -->
<g id="edge3" class="edge">
<title>Node2&#45;&gt;Node4</title>
<path fill="none" stroke="midnightblue" d="M357.09,-152.78C370.66,-153.86 384.87,-154.99 398.93,-156.11"/>
<polygon fill="midnightblue" stroke="midnightblue" points="398.89,-159.62 409.13,-156.92 399.44,-152.64 398.89,-159.62"/>
</g>
<!-- Node2&#45;&gt;Node5 -->
<g id="edge4" class="edge">
<title>Node2&#45;&gt;Node5</title>
<path fill="none" stroke="midnightblue" d="M357.14,-138.82C429.99,-131.89 537.46,-119.82 630,-102 657,-96.8 686.78,-89.02 710.5,-82.32"/>
<polygon fill="midnightblue" stroke="midnightblue" points="711.62,-85.64 720.27,-79.53 709.69,-78.91 711.62,-85.64"/>
</g>
<!-- Node6&#45;&gt;Node5 -->
<g id="edge9" class="edge">
<title>Node6&#45;&gt;Node5</title>
<path fill="none" stroke="midnightblue" d="M356.13,-52.48C439.54,-55.94 567.31,-61.23 655.66,-64.89"/>
<polygon fill="midnightblue" stroke="midnightblue" points="655.56,-68.39 665.7,-65.3 655.85,-61.39 655.56,-68.39"/>
</g>
<!-- Node7 -->
<g id="node7" class="node">
<title>Node7</title>
<g id="a_node7"><a xlink:href="class_a_i_controller_script.html#afcb2875a5501f07a7f44d0fa720266f3" target="_top" xlink:title="to delay the time for the next time the AI does something in the Update">
<polygon fill="white" stroke="black" points="417.5,-0.5 417.5,-21.5 605.5,-21.5 605.5,-0.5 417.5,-0.5"/>
<text text-anchor="middle" x="511.5" y="-7.9" font-family="Helvetica,sans-Serif" font-size="12.00">AIControllerScript.DelayDecision</text>
</a>
</g>
</g>
<!-- Node6&#45;&gt;Node7 -->
<g id="edge7" class="edge">
<title>Node6&#45;&gt;Node7</title>
<path fill="none" stroke="midnightblue" d="M338.12,-38.47C367.97,-33.71 403.41,-28.06 434.37,-23.13"/>
<polygon fill="midnightblue" stroke="midnightblue" points="434.93,-26.59 444.25,-21.56 433.83,-19.67 434.93,-26.59"/>
</g>
<!-- Node7&#45;&gt;Node5 -->
<g id="edge8" class="edge">
<title>Node7&#45;&gt;Node5</title>
<path fill="none" stroke="midnightblue" d="M564.68,-21.54C585.1,-25.81 608.7,-30.92 630,-36 655.58,-42.09 683.93,-49.52 707.15,-55.79"/>
<polygon fill="midnightblue" stroke="midnightblue" points="706.53,-59.25 717.1,-58.48 708.37,-52.49 706.53,-59.25"/>
</g>
</g>
</svg>
        <g id="navigator" transform="translate(0 0)" fill="#404254">
                <rect fill="#f2f5e9" fill-opacity="0.5" stroke="#606060" stroke-width=".5" x="0" y="0" width="60" height="60"/>
                <use id="zoomplus" xlink:href="#zoomPlus" x="17" y="9" onmousedown="handleZoom(evt,'in')"/>
                <use id="zoomminus" xlink:href="#zoomMin" x="42" y="9" onmousedown="handleZoom(evt,'out')"/>
                <use id="reset" xlink:href="#resetDef" x="30" y="36" onmousedown="handleReset()"/>
                <g id="arrowUp" xlink:href="#dirArrow" transform="translate(30 24)" onmousedown="handlePan(0,-1)">
                  <use xlink:href="#rim" fill="#404040">
                        <set attributeName="fill" to="#808080" begin="arrowUp.mouseover" end="arrowUp.mouseout"/>
                  </use>
                  <path fill="none" stroke="white" stroke-width="1.5" d="M0,-3.0v7 M-2.5,-0.5L0,-3.0L2.5,-0.5"/>
                </g>
                <g id="arrowRight" xlink:href="#dirArrow" transform="rotate(90) translate(36 -43)" onmousedown="handlePan(1,0)">
                  <use xlink:href="#rim" fill="#404040">
                        <set attributeName="fill" to="#808080" begin="arrowRight.mouseover" end="arrowRight.mouseout"/>
                  </use>
                  <path fill="none" stroke="white" stroke-width="1.5" d="M0,-3.0v7 M-2.5,-0.5L0,-3.0L2.5,-0.5"/>
                </g>
                <g id="arrowDown" xlink:href="#dirArrow" transform="rotate(180) translate(-30 -48)" onmousedown="handlePan(0,1)">
                  <use xlink:href="#rim" fill="#404040">
                        <set attributeName="fill" to="#808080" begin="arrowDown.mouseover" end="arrowDown.mouseout"/>
                  </use>
                  <path fill="none" stroke="white" stroke-width="1.5" d="M0,-3.0v7 M-2.5,-0.5L0,-3.0L2.5,-0.5"/>
                </g>
                <g id="arrowLeft" xlink:href="#dirArrow" transform="rotate(270) translate(-36 17)" onmousedown="handlePan(-1,0)">
                  <use xlink:href="#rim" fill="#404040">
                        <set attributeName="fill" to="#808080" begin="arrowLeft.mouseover" end="arrowLeft.mouseout"/>
                  </use>
                  <path fill="none" stroke="white" stroke-width="1.5" d="M0,-3.0v7 M-2.5,-0.5L0,-3.0L2.5,-0.5"/>
                </g>
        </g>
        <svg viewBox="0 0 15 15" width="100%" height="30px" preserveAspectRatio="xMaxYMin meet">
         <g id="arrow_out" transform="scale(0.3 0.3)">
          <a xlink:href="class_a_i_controller_script_af05eaa86fd4cfef3b4b0b79b0883322c_cgraph_org.svg" target="_base">
           <rect id="button" ry="5" rx="5" y="6" x="6" height="38" width="38"
                fill="#f2f5e9" fill-opacity="0.5" stroke="#606060" stroke-width="1.0"/>
           <path id="arrow"
             d="M 11.500037,31.436501 C 11.940474,20.09759 22.043105,11.32322 32.158766,21.979434 L 37.068811,17.246167 C 37.068811,17.246167 37.088388,32 37.088388,32 L 22.160133,31.978069 C 22.160133,31.978069 26.997745,27.140456 26.997745,27.140456 C 18.528582,18.264221 13.291696,25.230495 11.500037,31.436501 z"
             style="fill:#404040;"/>
          </a>
         </g>
        </svg>
</svg>
