<?xml version="1.0" encoding="UTF-8" standalone="no"?>
<!DOCTYPE svg PUBLIC "-//W3C//DTD SVG 1.1//EN"
 "http://www.w3.org/Graphics/SVG/1.1/DTD/svg11.dtd">
<!-- Generated by graphviz version 2.47.1 (20210417.1919)
 -->
<!-- Title: RoundManager.DelayResetDice Pages: 1 -->
<!--zoomable 148 -->
<svg id="main" version="1.1" xmlns="http://www.w3.org/2000/svg" xmlns:xlink="http://www.w3.org/1999/xlink" xml:space="preserve" onload="init(evt)">
<style type="text/css"><![CDATA[
.edge:hover path { stroke: red; }
.edge:hover polygon { stroke: red; fill: red; }
]]></style>
<script type="text/javascript"><![CDATA[
var edges = document.getElementsByTagName('g');
if (edges && edges.length) {
  for (var i=0;i<edges.length;i++) {
    if (edges[i].id.substr(0,4)=='edge') {
      edges[i].setAttribute('class','edge');
    }
  }
}
]]></script>
        <defs>
                <circle id="rim" cx="0" cy="0" r="7"/>
                <circle id="rim2" cx="0" cy="0" r="3.5"/>
                <g id="zoomPlus">
                        <use xlink:href="#rim" fill="#404040">
                                <set attributeName="fill" to="#808080" begin="zoomplus.mouseover" end="zoomplus.mouseout"/>
                        </use>
                        <path d="M-4,0h8M0,-4v8" fill="none" stroke="white" stroke-width="1.5" pointer-events="none"/>
                </g>
                <g id="zoomMin">
                        <use xlink:href="#rim" fill="#404040">
                                <set attributeName="fill" to="#808080" begin="zoomminus.mouseover" end="zoomminus.mouseout"/>
                        </use>
                        <path d="M-4,0h8" fill="none" stroke="white" stroke-width="1.5" pointer-events="none"/>
                </g>
                <g id="dirArrow">
                        <path fill="none" stroke="white" stroke-width="1.5" d="M0,-3.0v7 M-2.5,-0.5L0,-3.0L2.5,-0.5"/>
                </g>
               <g id="resetDef">
                       <use xlink:href="#rim2" fill="#404040">
                               <set attributeName="fill" to="#808080" begin="reset.mouseover" end="reset.mouseout"/>
                       </use>
               </g>
        </defs>

<script type="text/javascript">
var viewWidth = 1637;
var viewHeight = 148;
var sectionId = 'dynsection-5';
</script>
<script xlink:href="svgpan.js"/>
<svg id="graph" class="graph">
<g id="viewport">
<title>RoundManager.DelayResetDice</title>
<polygon fill="white" stroke="transparent" points="-4,4 -4,-144 1633,-144 1633,4 -4,4"/>
<!-- Node1 -->
<g id="node1" class="node">
<title>Node1</title>
<g id="a_node1"><a xlink:title="reset the dice after a time delay">
<polygon fill="#bfbfbf" stroke="black" points="1444,-59.5 1444,-80.5 1629,-80.5 1629,-59.5 1444,-59.5"/>
<text text-anchor="middle" x="1536.5" y="-66.9" font-family="Helvetica,sans-Serif" font-size="12.00">RoundManager.DelayResetDice</text>
</a>
</g>
</g>
<!-- Node2 -->
<g id="node2" class="node">
<title>Node2</title>
<g id="a_node2"><a xlink:href="class_round_manager.html#ab795c17242b95ab2cef508da5daa2593" target="_top" xlink:title="Rolls dice, will not roll if the player has rolled aready. Pass true to forcfully roll it">
<polygon fill="white" stroke="black" points="1264,-59.5 1264,-80.5 1408,-80.5 1408,-59.5 1264,-59.5"/>
<text text-anchor="middle" x="1336" y="-66.9" font-family="Helvetica,sans-Serif" font-size="12.00">RoundManager.RollDice</text>
</a>
</g>
</g>
<!-- Node1&#45;&gt;Node2 -->
<g id="edge1" class="edge">
<title>Node1&#45;&gt;Node2</title>
<path fill="none" stroke="midnightblue" d="M1433.67,-70C1425.04,-70 1416.43,-70 1408.1,-70"/>
<polygon fill="midnightblue" stroke="midnightblue" points="1433.8,-73.5 1443.8,-70 1433.8,-66.5 1433.8,-73.5"/>
</g>
<!-- Node3 -->
<g id="node3" class="node">
<title>Node3</title>
<g id="a_node3"><a xlink:href="class_round_manager.html#a8d52738f26bc5b5eea98f8e3dd213744" target="_top" xlink:title="roll dice after a delay time, used for free roll tile">
<polygon fill="white" stroke="black" points="1079,-79.5 1079,-100.5 1228,-100.5 1228,-79.5 1079,-79.5"/>
<text text-anchor="middle" x="1153.5" y="-86.9" font-family="Helvetica,sans-Serif" font-size="12.00">RoundManager.DelayRoll</text>
</a>
</g>
</g>
<!-- Node2&#45;&gt;Node3 -->
<g id="edge2" class="edge">
<title>Node2&#45;&gt;Node3</title>
<path fill="none" stroke="midnightblue" d="M1253.93,-78.98C1245.35,-79.93 1236.67,-80.9 1228.19,-81.84"/>
<polygon fill="midnightblue" stroke="midnightblue" points="1254.37,-82.46 1263.92,-77.88 1253.6,-75.5 1254.37,-82.46"/>
</g>
<!-- Node10 -->
<g id="node10" class="node">
<title>Node10</title>
<g id="a_node10"><a xlink:href="class_user_controller.html#aee97f82bdda647a5e3761666a3d46552" target="_top" xlink:title="Rolls the dice">
<polygon fill="white" stroke="black" points="1084,-39.5 1084,-60.5 1223,-60.5 1223,-39.5 1084,-39.5"/>
<text text-anchor="middle" x="1153.5" y="-46.9" font-family="Helvetica,sans-Serif" font-size="12.00">UserController.RollDice</text>
</a>
</g>
</g>
<!-- Node2&#45;&gt;Node10 -->
<g id="edge9" class="edge">
<title>Node2&#45;&gt;Node10</title>
<path fill="none" stroke="midnightblue" d="M1253.77,-61C1243.54,-59.87 1233.16,-58.72 1223.15,-57.61"/>
<polygon fill="midnightblue" stroke="midnightblue" points="1253.6,-64.5 1263.92,-62.12 1254.37,-57.54 1253.6,-64.5"/>
</g>
<!-- Node4 -->
<g id="node4" class="node">
<title>Node4</title>
<g id="a_node4"><a xlink:href="class_round_manager.html#adfd4f66436e06c12a25c9236b629f369" target="_top" xlink:title="moving the current player to the selected tile">
<polygon fill="white" stroke="black" points="882,-79.5 882,-100.5 1043,-100.5 1043,-79.5 882,-79.5"/>
<text text-anchor="middle" x="962.5" y="-86.9" font-family="Helvetica,sans-Serif" font-size="12.00">RoundManager.MovePlayer</text>
</a>
</g>
</g>
<!-- Node3&#45;&gt;Node4 -->
<g id="edge3" class="edge">
<title>Node3&#45;&gt;Node4</title>
<path fill="none" stroke="midnightblue" d="M1068.64,-90C1060.17,-90 1051.59,-90 1043.17,-90"/>
<polygon fill="midnightblue" stroke="midnightblue" points="1068.89,-93.5 1078.89,-90 1068.89,-86.5 1068.89,-93.5"/>
</g>
<!-- Node5 -->
<g id="node5" class="node">
<title>Node5</title>
<g id="a_node5"><a xlink:href="class_user_controller.html#af896aefe0262e0d8f07fa5f18592877d" target="_top" xlink:title="Selects a tile for player movement">
<polygon fill="white" stroke="black" points="695.5,-79.5 695.5,-100.5 841.5,-100.5 841.5,-79.5 695.5,-79.5"/>
<text text-anchor="middle" x="768.5" y="-86.9" font-family="Helvetica,sans-Serif" font-size="12.00">UserController.SelectTile</text>
</a>
</g>
</g>
<!-- Node4&#45;&gt;Node5 -->
<g id="edge4" class="edge">
<title>Node4&#45;&gt;Node5</title>
<path fill="none" stroke="midnightblue" d="M871.71,-90C861.63,-90 851.46,-90 841.65,-90"/>
<polygon fill="midnightblue" stroke="midnightblue" points="871.74,-93.5 881.74,-90 871.74,-86.5 871.74,-93.5"/>
</g>
<!-- Node6 -->
<g id="node6" class="node">
<title>Node6</title>
<g id="a_node6"><a xlink:href="class_a_i_controller_script.html#af04897fa0ae4ed5e472dea79bce8d7df" target="_top" xlink:title="Decides where the AI should move to this should match the flow chart of the AI">
<polygon fill="white" stroke="black" points="435,-118.5 435,-139.5 645,-139.5 645,-118.5 435,-118.5"/>
<text text-anchor="middle" x="540" y="-125.9" font-family="Helvetica,sans-Serif" font-size="12.00">AIControllerScript.Decide_Movement</text>
</a>
</g>
</g>
<!-- Node5&#45;&gt;Node6 -->
<g id="edge5" class="edge">
<title>Node5&#45;&gt;Node6</title>
<path fill="none" stroke="midnightblue" d="M696.43,-102.24C666.16,-107.45 631.2,-113.47 602.1,-118.48"/>
<polygon fill="midnightblue" stroke="midnightblue" points="697.24,-105.65 706.5,-100.5 696.06,-98.75 697.24,-105.65"/>
</g>
<!-- Node9 -->
<g id="node9" class="node">
<title>Node9</title>
<g id="a_node9"><a xlink:href="class_user_input_control_script.html#a13be570929e27dad6d3d452ccd5f52eb" target="_top" xlink:title="move player token to the tile the cursor is on">
<polygon fill="white" stroke="black" points="425,-78.5 425,-99.5 655,-99.5 655,-78.5 425,-78.5"/>
<text text-anchor="middle" x="540" y="-85.9" font-family="Helvetica,sans-Serif" font-size="12.00">UserInputControlScript.MovePlayerToken</text>
</a>
</g>
</g>
<!-- Node5&#45;&gt;Node9 -->
<g id="edge8" class="edge">
<title>Node5&#45;&gt;Node9</title>
<path fill="none" stroke="midnightblue" d="M685.15,-89.64C675.37,-89.59 665.25,-89.55 655.12,-89.5"/>
<polygon fill="midnightblue" stroke="midnightblue" points="685.2,-93.14 695.21,-89.68 685.23,-86.14 685.2,-93.14"/>
</g>
<!-- Node7 -->
<g id="node7" class="node">
<title>Node7</title>
<g id="a_node7"><a xlink:href="class_a_i_controller_script.html#ac31d9b8dbb75696b181eff1fbef41b97" target="_top" xlink:title="dictates what the AI will do depending on what mode it is in">
<polygon fill="white" stroke="black" points="215,-78.5 215,-99.5 389,-99.5 389,-78.5 215,-78.5"/>
<text text-anchor="middle" x="302" y="-85.9" font-family="Helvetica,sans-Serif" font-size="12.00">AIControllerScript.AIBehaviour</text>
</a>
</g>
</g>
<!-- Node6&#45;&gt;Node7 -->
<g id="edge6" class="edge">
<title>Node6&#45;&gt;Node7</title>
<path fill="none" stroke="midnightblue" d="M467.07,-116.81C434.47,-111.28 396.31,-104.82 365,-99.51"/>
<polygon fill="midnightblue" stroke="midnightblue" points="466.55,-120.27 476.99,-118.49 467.72,-113.37 466.55,-120.27"/>
</g>
<!-- Node8 -->
<g id="node8" class="node">
<title>Node8</title>
<g id="a_node8"><a xlink:href="class_a_i_controller_script.html#a74dc0e720fafceb873d3b19c12f68d58" target="_top" xlink:title=" ">
<polygon fill="white" stroke="black" points="0,-78.5 0,-99.5 179,-99.5 179,-78.5 0,-78.5"/>
<text text-anchor="middle" x="89.5" y="-85.9" font-family="Helvetica,sans-Serif" font-size="12.00">AIControllerScript.FixedUpdate</text>
</a>
</g>
</g>
<!-- Node7&#45;&gt;Node8 -->
<g id="edge7" class="edge">
<title>Node7&#45;&gt;Node8</title>
<path fill="none" stroke="midnightblue" d="M204.57,-89C196.15,-89 187.67,-89 179.32,-89"/>
<polygon fill="midnightblue" stroke="midnightblue" points="204.77,-92.5 214.77,-89 204.77,-85.5 204.77,-92.5"/>
</g>
<!-- Node11 -->
<g id="node11" class="node">
<title>Node11</title>
<g id="a_node11"><a xlink:href="class_a_i_controller_script.html#a1584ffc08f2ea88236ad6df47319636b" target="_top" xlink:title="have AI to roll">
<polygon fill="white" stroke="black" points="691,-39.5 691,-60.5 846,-60.5 846,-39.5 691,-39.5"/>
<text text-anchor="middle" x="768.5" y="-46.9" font-family="Helvetica,sans-Serif" font-size="12.00">AIControllerScript.RollDice</text>
</a>
</g>
</g>
<!-- Node10&#45;&gt;Node11 -->
<g id="edge10" class="edge">
<title>Node10&#45;&gt;Node11</title>
<path fill="none" stroke="midnightblue" d="M1073.55,-50C1006.9,-50 912.05,-50 846.08,-50"/>
<polygon fill="midnightblue" stroke="midnightblue" points="1073.58,-53.5 1083.58,-50 1073.58,-46.5 1073.58,-53.5"/>
</g>
<!-- Node12 -->
<g id="node12" class="node">
<title>Node12</title>
<g id="a_node12"><a xlink:href="class_u_i_handler.html#ac40571820fefd3233236883c01522fa1" target="_top" xlink:title="Rolls dice when the button is pressed">
<polygon fill="white" stroke="black" points="888.5,-0.5 888.5,-21.5 1036.5,-21.5 1036.5,-0.5 888.5,-0.5"/>
<text text-anchor="middle" x="962.5" y="-7.9" font-family="Helvetica,sans-Serif" font-size="12.00">UIHandler.RollDiceButton</text>
</a>
</g>
</g>
<!-- Node10&#45;&gt;Node12 -->
<g id="edge12" class="edge">
<title>Node10&#45;&gt;Node12</title>
<path fill="none" stroke="midnightblue" d="M1091.34,-37.38C1066.59,-32.27 1038.33,-26.44 1014.69,-21.56"/>
<polygon fill="midnightblue" stroke="midnightblue" points="1090.85,-40.85 1101.35,-39.45 1092.27,-34 1090.85,-40.85"/>
</g>
<!-- Node11&#45;&gt;Node7 -->
<g id="edge11" class="edge">
<title>Node11&#45;&gt;Node7</title>
<path fill="none" stroke="midnightblue" d="M680.78,-52.25C611.42,-54.66 511.75,-59.51 425,-69 403.45,-71.36 379.92,-74.97 359.32,-78.48"/>
<polygon fill="midnightblue" stroke="midnightblue" points="680.91,-55.74 690.79,-51.91 680.68,-48.75 680.91,-55.74"/>
</g>
</g>
</svg>
        <g id="navigator" transform="translate(0 0)" fill="#404254">
                <rect fill="#f2f5e9" fill-opacity="0.5" stroke="#606060" stroke-width=".5" x="0" y="0" width="60" height="60"/>
                <use id="zoomplus" xlink:href="#zoomPlus" x="17" y="9" onmousedown="handleZoom(evt,'in')"/>
                <use id="zoomminus" xlink:href="#zoomMin" x="42" y="9" onmousedown="handleZoom(evt,'out')"/>
                <use id="reset" xlink:href="#resetDef" x="30" y="36" onmousedown="handleReset()"/>
                <g id="arrowUp" xlink:href="#dirArrow" transform="translate(30 24)" onmousedown="handlePan(0,-1)">
                  <use xlink:href="#rim" fill="#404040">
                        <set attributeName="fill" to="#808080" begin="arrowUp.mouseover" end="arrowUp.mouseout"/>
                  </use>
                  <path fill="none" stroke="white" stroke-width="1.5" d="M0,-3.0v7 M-2.5,-0.5L0,-3.0L2.5,-0.5"/>
                </g>
                <g id="arrowRight" xlink:href="#dirArrow" transform="rotate(90) translate(36 -43)" onmousedown="handlePan(1,0)">
                  <use xlink:href="#rim" fill="#404040">
                        <set attributeName="fill" to="#808080" begin="arrowRight.mouseover" end="arrowRight.mouseout"/>
                  </use>
                  <path fill="none" stroke="white" stroke-width="1.5" d="M0,-3.0v7 M-2.5,-0.5L0,-3.0L2.5,-0.5"/>
                </g>
                <g id="arrowDown" xlink:href="#dirArrow" transform="rotate(180) translate(-30 -48)" onmousedown="handlePan(0,1)">
                  <use xlink:href="#rim" fill="#404040">
                        <set attributeName="fill" to="#808080" begin="arrowDown.mouseover" end="arrowDown.mouseout"/>
                  </use>
                  <path fill="none" stroke="white" stroke-width="1.5" d="M0,-3.0v7 M-2.5,-0.5L0,-3.0L2.5,-0.5"/>
                </g>
                <g id="arrowLeft" xlink:href="#dirArrow" transform="rotate(270) translate(-36 17)" onmousedown="handlePan(-1,0)">
                  <use xlink:href="#rim" fill="#404040">
                        <set attributeName="fill" to="#808080" begin="arrowLeft.mouseover" end="arrowLeft.mouseout"/>
                  </use>
                  <path fill="none" stroke="white" stroke-width="1.5" d="M0,-3.0v7 M-2.5,-0.5L0,-3.0L2.5,-0.5"/>
                </g>
        </g>
        <svg viewBox="0 0 15 15" width="100%" height="30px" preserveAspectRatio="xMaxYMin meet">
         <g id="arrow_out" transform="scale(0.3 0.3)">
          <a xlink:href="class_round_manager_a5cfea3b56a7576ad02c82c27bb0c6ba7_icgraph_org.svg" target="_base">
           <rect id="button" ry="5" rx="5" y="6" x="6" height="38" width="38"
                fill="#f2f5e9" fill-opacity="0.5" stroke="#606060" stroke-width="1.0"/>
           <path id="arrow"
             d="M 11.500037,31.436501 C 11.940474,20.09759 22.043105,11.32322 32.158766,21.979434 L 37.068811,17.246167 C 37.068811,17.246167 37.088388,32 37.088388,32 L 22.160133,31.978069 C 22.160133,31.978069 26.997745,27.140456 26.997745,27.140456 C 18.528582,18.264221 13.291696,25.230495 11.500037,31.436501 z"
             style="fill:#404040;"/>
          </a>
         </g>
        </svg>
</svg>
