<?xml version="1.0" encoding="UTF-8" standalone="no"?>
<!DOCTYPE svg PUBLIC "-//W3C//DTD SVG 1.1//EN"
 "http://www.w3.org/Graphics/SVG/1.1/DTD/svg11.dtd">
<!-- Generated by graphviz version 2.47.1 (20210417.1919)
 -->
<!-- Title: PlayerStatsScript.AddCard Pages: 1 -->
<svg width="389pt" height="70pt"
 viewBox="0.00 0.00 389.00 70.00" xmlns="http://www.w3.org/2000/svg" xmlns:xlink="http://www.w3.org/1999/xlink">
<g id="graph0" class="graph" transform="scale(1 1) rotate(0) translate(4 66)">
<title>PlayerStatsScript.AddCard</title>
<polygon fill="white" stroke="transparent" points="-4,4 -4,-66 385,-66 385,4 -4,4"/>
<!-- Node1 -->
<g id="node1" class="node">
<title>Node1</title>
<g id="a_node1"><a xlink:title="Add a card to the player&#39;s deck">
<polygon fill="#bfbfbf" stroke="black" points="223,-20.5 223,-41.5 381,-41.5 381,-20.5 223,-20.5"/>
<text text-anchor="middle" x="302" y="-27.9" font-family="Helvetica,sans-Serif" font-size="12.00">PlayerStatsScript.AddCard</text>
</a>
</g>
</g>
<!-- Node2 -->
<g id="node2" class="node">
<title>Node2</title>
<g id="a_node2"><a xlink:href="class_player_master_controller.html#ab42ac35f631ad5126bed911bbcd8383f" target="_top" xlink:title="Add a list of card to the player&#39;s deck">
<polygon fill="white" stroke="black" points="0,-40.5 0,-61.5 187,-61.5 187,-40.5 0,-40.5"/>
<text text-anchor="middle" x="93.5" y="-47.9" font-family="Helvetica,sans-Serif" font-size="12.00">PlayerMasterController.AddCard</text>
</a>
</g>
</g>
<!-- Node1&#45;&gt;Node2 -->
<g id="edge1" class="edge">
<title>Node1&#45;&gt;Node2</title>
<path fill="none" stroke="midnightblue" d="M212.73,-39.55C204.3,-40.37 195.73,-41.2 187.26,-42.02"/>
<polygon fill="midnightblue" stroke="midnightblue" points="213.32,-43.01 222.93,-38.56 212.64,-36.04 213.32,-43.01"/>
</g>
<!-- Node3 -->
<g id="node3" class="node">
<title>Node3</title>
<g id="a_node3"><a xlink:href="class_player_stats_script.html#a53b9b6ed7fe6d057381e0101099ca363" target="_top" xlink:title="Add a list of card to the player&#39;s deck">
<polygon fill="white" stroke="black" points="14.5,-0.5 14.5,-21.5 172.5,-21.5 172.5,-0.5 14.5,-0.5"/>
<text text-anchor="middle" x="93.5" y="-7.9" font-family="Helvetica,sans-Serif" font-size="12.00">PlayerStatsScript.AddCard</text>
</a>
</g>
</g>
<!-- Node1&#45;&gt;Node3 -->
<g id="edge2" class="edge">
<title>Node1&#45;&gt;Node3</title>
<path fill="none" stroke="midnightblue" d="M212.81,-22.46C199.47,-21.17 185.79,-19.84 172.68,-18.57"/>
<polygon fill="midnightblue" stroke="midnightblue" points="212.64,-25.96 222.93,-23.44 213.32,-18.99 212.64,-25.96"/>
</g>
</g>
</svg>
