<?xml version="1.0" encoding="UTF-8" standalone="no"?>
<!DOCTYPE svg PUBLIC "-//W3C//DTD SVG 1.1//EN"
 "http://www.w3.org/Graphics/SVG/1.1/DTD/svg11.dtd">
<!-- Generated by graphviz version 2.47.1 (20210417.1919)
 -->
<!-- Title: AIControllerScript.StartTurn Pages: 1 -->
<svg width="812pt" height="50pt"
 viewBox="0.00 0.00 812.00 50.00" xmlns="http://www.w3.org/2000/svg" xmlns:xlink="http://www.w3.org/1999/xlink">
<g id="graph0" class="graph" transform="scale(1 1) rotate(0) translate(4 46)">
<title>AIControllerScript.StartTurn</title>
<polygon fill="white" stroke="transparent" points="-4,4 -4,-46 808,-46 808,4 -4,4"/>
<!-- Node1 -->
<g id="node1" class="node">
<title>Node1</title>
<g id="a_node1"><a xlink:title="have AI to start turn">
<polygon fill="#bfbfbf" stroke="black" points="0,-0.5 0,-21.5 158,-21.5 158,-0.5 0,-0.5"/>
<text text-anchor="middle" x="79" y="-7.9" font-family="Helvetica,sans-Serif" font-size="12.00">AIControllerScript.StartTurn</text>
</a>
</g>
</g>
<!-- Node2 -->
<g id="node2" class="node">
<title>Node2</title>
<g id="a_node2"><a xlink:href="class_a_i_controller_script.html#aaee909cd0f0ffdedd8d8425607d7ccb5" target="_top" xlink:title="to set the AI&#39;s mode">
<polygon fill="white" stroke="black" points="194,-0.5 194,-21.5 364,-21.5 364,-0.5 194,-0.5"/>
<text text-anchor="middle" x="279" y="-7.9" font-family="Helvetica,sans-Serif" font-size="12.00">AIControllerScript.SetAIMode</text>
</a>
</g>
</g>
<!-- Node1&#45;&gt;Node2 -->
<g id="edge1" class="edge">
<title>Node1&#45;&gt;Node2</title>
<path fill="none" stroke="midnightblue" d="M158.25,-11C166.65,-11 175.24,-11 183.8,-11"/>
<polygon fill="midnightblue" stroke="midnightblue" points="183.8,-14.5 193.8,-11 183.8,-7.5 183.8,-14.5"/>
</g>
<!-- Node3 -->
<g id="node3" class="node">
<title>Node3</title>
<g id="a_node3"><a xlink:href="class_a_i_controller_script.html#afcb2875a5501f07a7f44d0fa720266f3" target="_top" xlink:title="to delay the time for the next time the AI does something in the Update">
<polygon fill="white" stroke="black" points="400,-20.5 400,-41.5 588,-41.5 588,-20.5 400,-20.5"/>
<text text-anchor="middle" x="494" y="-27.9" font-family="Helvetica,sans-Serif" font-size="12.00">AIControllerScript.DelayDecision</text>
</a>
</g>
</g>
<!-- Node2&#45;&gt;Node3 -->
<g id="edge2" class="edge">
<title>Node2&#45;&gt;Node3</title>
<path fill="none" stroke="midnightblue" d="M364.18,-18.9C372.62,-19.7 381.26,-20.51 389.87,-21.32"/>
<polygon fill="midnightblue" stroke="midnightblue" points="389.66,-24.81 399.95,-22.26 390.32,-17.84 389.66,-24.81"/>
</g>
<!-- Node4 -->
<g id="node4" class="node">
<title>Node4</title>
<g id="a_node4"><a xlink:href="class_a_i_controller_script.html#ab124aec8211aa7b8f00c6ef5db6bc96a" target="_top" xlink:title="for out putting the debug stack if outputDebugText is true, it will out put the the console as well">
<polygon fill="white" stroke="black" points="624,-0.5 624,-21.5 804,-21.5 804,-0.5 624,-0.5"/>
<text text-anchor="middle" x="714" y="-7.9" font-family="Helvetica,sans-Serif" font-size="12.00">AIControllerScript.OutputDebug</text>
</a>
</g>
</g>
<!-- Node2&#45;&gt;Node4 -->
<g id="edge4" class="edge">
<title>Node2&#45;&gt;Node4</title>
<path fill="none" stroke="midnightblue" d="M364,-11C435.43,-11 538.14,-11 613.64,-11"/>
<polygon fill="midnightblue" stroke="midnightblue" points="613.64,-14.5 623.64,-11 613.64,-7.5 613.64,-14.5"/>
</g>
<!-- Node3&#45;&gt;Node4 -->
<g id="edge3" class="edge">
<title>Node3&#45;&gt;Node4</title>
<path fill="none" stroke="midnightblue" d="M588.08,-22.46C596.57,-21.68 605.18,-20.89 613.72,-20.11"/>
<polygon fill="midnightblue" stroke="midnightblue" points="614.05,-23.59 623.69,-19.19 613.41,-16.62 614.05,-23.59"/>
</g>
</g>
</svg>
