<?xml version="1.0" encoding="UTF-8" standalone="no"?>
<!DOCTYPE svg PUBLIC "-//W3C//DTD SVG 1.1//EN"
 "http://www.w3.org/Graphics/SVG/1.1/DTD/svg11.dtd">
<!-- Generated by graphviz version 2.47.1 (20210417.1919)
 -->
<!-- Title: UserController Pages: 1 -->
<svg width="132pt" height="380pt"
 viewBox="0.00 0.00 132.00 380.00" xmlns="http://www.w3.org/2000/svg" xmlns:xlink="http://www.w3.org/1999/xlink">
<g id="graph0" class="graph" transform="scale(1 1) rotate(0) translate(4 376)">
<title>UserController</title>
<polygon fill="white" stroke="transparent" points="-4,4 -4,-376 128,-376 128,4 -4,4"/>
<!-- Node1 -->
<g id="node1" class="node">
<title>Node1</title>
<g id="a_node1"><a xlink:title=" ">
<polygon fill="#bfbfbf" stroke="black" points="0,-0.5 0,-271.5 124,-271.5 124,-0.5 0,-0.5"/>
<text text-anchor="middle" x="62" y="-257.9" font-family="Helvetica,sans-Serif" font-size="12.00">UserController</text>
<polyline fill="none" stroke="black" points="0,-250.5 124,-250.5 "/>
<text text-anchor="start" x="8" y="-236.9" font-family="Helvetica,sans-Serif" font-size="12.00">+ RM</text>
<text text-anchor="start" x="8" y="-223.9" font-family="Helvetica,sans-Serif" font-size="12.00">+ Suggestion</text>
<text text-anchor="start" x="8" y="-210.9" font-family="Helvetica,sans-Serif" font-size="12.00">&#45; rM</text>
<text text-anchor="start" x="8" y="-197.9" font-family="Helvetica,sans-Serif" font-size="12.00">&#45; cardManager</text>
<text text-anchor="start" x="8" y="-184.9" font-family="Helvetica,sans-Serif" font-size="12.00">&#45; suggestion</text>
<text text-anchor="start" x="8" y="-171.9" font-family="Helvetica,sans-Serif" font-size="12.00">&#45; accusation</text>
<polyline fill="none" stroke="black" points="0,-164.5 124,-164.5 "/>
<text text-anchor="start" x="8" y="-150.9" font-family="Helvetica,sans-Serif" font-size="12.00">+ RollDice()</text>
<text text-anchor="start" x="8" y="-137.9" font-family="Helvetica,sans-Serif" font-size="12.00">+ TakeShortcut()</text>
<text text-anchor="start" x="8" y="-124.9" font-family="Helvetica,sans-Serif" font-size="12.00">+ SelectTile()</text>
<text text-anchor="start" x="8" y="-111.9" font-family="Helvetica,sans-Serif" font-size="12.00">+ MakeSuggestion()</text>
<text text-anchor="start" x="8" y="-98.9" font-family="Helvetica,sans-Serif" font-size="12.00">+ SetCharacter()</text>
<text text-anchor="start" x="8" y="-85.9" font-family="Helvetica,sans-Serif" font-size="12.00">+ SetWeapon()</text>
<text text-anchor="start" x="8" y="-72.9" font-family="Helvetica,sans-Serif" font-size="12.00">+ SetRoom()</text>
<text text-anchor="start" x="8" y="-59.9" font-family="Helvetica,sans-Serif" font-size="12.00">+ PassSelected()</text>
<text text-anchor="start" x="8" y="-46.9" font-family="Helvetica,sans-Serif" font-size="12.00">+ MakeAccusation()</text>
<text text-anchor="start" x="8" y="-33.9" font-family="Helvetica,sans-Serif" font-size="12.00">+ EndTurn()</text>
<text text-anchor="start" x="8" y="-20.9" font-family="Helvetica,sans-Serif" font-size="12.00">+ GetCurrentPlayer()</text>
<text text-anchor="start" x="8" y="-7.9" font-family="Helvetica,sans-Serif" font-size="12.00">&#45; Awake()</text>
</a>
</g>
</g>
<!-- Node2 -->
<g id="node2" class="node">
<title>Node2</title>
<g id="a_node2"><a xlink:title=" ">
<polygon fill="white" stroke="#bfbfbf" points="13,-308.5 13,-371.5 111,-371.5 111,-308.5 13,-308.5"/>
<text text-anchor="middle" x="62" y="-357.9" font-family="Helvetica,sans-Serif" font-size="12.00">MonoBehaviour</text>
<polyline fill="none" stroke="#bfbfbf" points="13,-350.5 111,-350.5 "/>
<text text-anchor="middle" x="62" y="-336.9" font-family="Helvetica,sans-Serif" font-size="12.00"> </text>
<polyline fill="none" stroke="#bfbfbf" points="13,-329.5 111,-329.5 "/>
<text text-anchor="middle" x="62" y="-315.9" font-family="Helvetica,sans-Serif" font-size="12.00"> </text>
</a>
</g>
</g>
<!-- Node2&#45;&gt;Node1 -->
<g id="edge1" class="edge">
<title>Node2&#45;&gt;Node1</title>
<path fill="none" stroke="midnightblue" d="M62,-298.1C62,-289.94 62,-280.95 62,-271.53"/>
<polygon fill="none" stroke="midnightblue" points="58.5,-298.32 62,-308.32 65.5,-298.32 58.5,-298.32"/>
</g>
</g>
</svg>
