<?xml version="1.0" encoding="UTF-8" standalone="no"?>
<!DOCTYPE svg PUBLIC "-//W3C//DTD SVG 1.1//EN"
 "http://www.w3.org/Graphics/SVG/1.1/DTD/svg11.dtd">
<!-- Generated by graphviz version 2.47.1 (20210417.1919)
 -->
<!-- Title: UserInputControlScript.MovePlayerToken Pages: 1 -->
<!--zoomable 464 -->
<svg id="main" version="1.1" xmlns="http://www.w3.org/2000/svg" xmlns:xlink="http://www.w3.org/1999/xlink" xml:space="preserve" onload="init(evt)">
<style type="text/css"><![CDATA[
.edge:hover path { stroke: red; }
.edge:hover polygon { stroke: red; fill: red; }
]]></style>
<script type="text/javascript"><![CDATA[
var edges = document.getElementsByTagName('g');
if (edges && edges.length) {
  for (var i=0;i<edges.length;i++) {
    if (edges[i].id.substr(0,4)=='edge') {
      edges[i].setAttribute('class','edge');
    }
  }
}
]]></script>
        <defs>
                <circle id="rim" cx="0" cy="0" r="7"/>
                <circle id="rim2" cx="0" cy="0" r="3.5"/>
                <g id="zoomPlus">
                        <use xlink:href="#rim" fill="#404040">
                                <set attributeName="fill" to="#808080" begin="zoomplus.mouseover" end="zoomplus.mouseout"/>
                        </use>
                        <path d="M-4,0h8M0,-4v8" fill="none" stroke="white" stroke-width="1.5" pointer-events="none"/>
                </g>
                <g id="zoomMin">
                        <use xlink:href="#rim" fill="#404040">
                                <set attributeName="fill" to="#808080" begin="zoomminus.mouseover" end="zoomminus.mouseout"/>
                        </use>
                        <path d="M-4,0h8" fill="none" stroke="white" stroke-width="1.5" pointer-events="none"/>
                </g>
                <g id="dirArrow">
                        <path fill="none" stroke="white" stroke-width="1.5" d="M0,-3.0v7 M-2.5,-0.5L0,-3.0L2.5,-0.5"/>
                </g>
               <g id="resetDef">
                       <use xlink:href="#rim2" fill="#404040">
                               <set attributeName="fill" to="#808080" begin="reset.mouseover" end="reset.mouseout"/>
                       </use>
               </g>
        </defs>

<script type="text/javascript">
var viewWidth = 2168;
var viewHeight = 464;
var sectionId = 'dynsection-4';
</script>
<script xlink:href="svgpan.js"/>
<svg id="graph" class="graph">
<g id="viewport">
<title>UserInputControlScript.MovePlayerToken</title>
<polygon fill="white" stroke="transparent" points="-4,4 -4,-460 2164,-460 2164,4 -4,4"/>
<!-- Node1 -->
<g id="node1" class="node">
<title>Node1</title>
<g id="a_node1"><a xlink:title="move player token to the tile the cursor is on">
<polygon fill="#bfbfbf" stroke="black" points="0,-39.5 0,-60.5 230,-60.5 230,-39.5 0,-39.5"/>
<text text-anchor="middle" x="115" y="-46.9" font-family="Helvetica,sans-Serif" font-size="12.00">UserInputControlScript.MovePlayerToken</text>
</a>
</g>
</g>
<!-- Node2 -->
<g id="node2" class="node">
<title>Node2</title>
<g id="a_node2"><a xlink:href="class_turn_controller.html#af16e42b7e61c5a999291327e2e556caa" target="_top" xlink:title=" ">
<polygon fill="white" stroke="black" points="1963,-77.5 1963,-98.5 2145,-98.5 2145,-77.5 1963,-77.5"/>
<text text-anchor="middle" x="2054" y="-84.9" font-family="Helvetica,sans-Serif" font-size="12.00">TurnController.GetCurrentPlayer</text>
</a>
</g>
</g>
<!-- Node1&#45;&gt;Node2 -->
<g id="edge1" class="edge">
<title>Node1&#45;&gt;Node2</title>
<path fill="none" stroke="midnightblue" d="M230.3,-50C324.54,-50 461.69,-50 581.5,-50 581.5,-50 581.5,-50 1573.5,-50 1708.39,-50 1863.97,-65.13 1960.41,-76.3"/>
<polygon fill="midnightblue" stroke="midnightblue" points="1960.09,-79.78 1970.43,-77.47 1960.9,-72.83 1960.09,-79.78"/>
</g>
<!-- Node3 -->
<g id="node3" class="node">
<title>Node3</title>
<g id="a_node3"><a xlink:href="class_user_selection_script.html#a4cf10f22504d0bd38d6e316a76e76285" target="_top" xlink:title=" ">
<polygon fill="white" stroke="black" points="266,-0.5 266,-21.5 466,-21.5 466,-0.5 266,-0.5"/>
<text text-anchor="middle" x="366" y="-7.9" font-family="Helvetica,sans-Serif" font-size="12.00">UserSelectionScript.GetCurrentTile</text>
</a>
</g>
</g>
<!-- Node1&#45;&gt;Node3 -->
<g id="edge2" class="edge">
<title>Node1&#45;&gt;Node3</title>
<path fill="none" stroke="midnightblue" d="M183.05,-39.5C215.3,-34.45 254.13,-28.37 287.62,-23.12"/>
<polygon fill="midnightblue" stroke="midnightblue" points="288.49,-26.53 297.83,-21.52 287.4,-19.61 288.49,-26.53"/>
</g>
<!-- Node4 -->
<g id="node4" class="node">
<title>Node4</title>
<g id="a_node4"><a xlink:href="class_user_controller.html#af896aefe0262e0d8f07fa5f18592877d" target="_top" xlink:title="Selects a tile for player movement">
<polygon fill="white" stroke="black" points="293,-147.5 293,-168.5 439,-168.5 439,-147.5 293,-147.5"/>
<text text-anchor="middle" x="366" y="-154.9" font-family="Helvetica,sans-Serif" font-size="12.00">UserController.SelectTile</text>
</a>
</g>
</g>
<!-- Node1&#45;&gt;Node4 -->
<g id="edge3" class="edge">
<title>Node1&#45;&gt;Node4</title>
<path fill="none" stroke="midnightblue" d="M140.33,-60.55C185.05,-79.95 280.39,-121.3 331.31,-143.39"/>
<polygon fill="midnightblue" stroke="midnightblue" points="330.01,-146.64 340.57,-147.41 332.79,-140.21 330.01,-146.64"/>
</g>
<!-- Node5 -->
<g id="node5" class="node">
<title>Node5</title>
<g id="a_node5"><a xlink:href="class_round_manager.html#adfd4f66436e06c12a25c9236b629f369" target="_top" xlink:title="moving the current player to the selected tile">
<polygon fill="white" stroke="black" points="502,-216.5 502,-237.5 663,-237.5 663,-216.5 502,-216.5"/>
<text text-anchor="middle" x="582.5" y="-223.9" font-family="Helvetica,sans-Serif" font-size="12.00">RoundManager.MovePlayer</text>
</a>
</g>
</g>
<!-- Node4&#45;&gt;Node5 -->
<g id="edge4" class="edge">
<title>Node4&#45;&gt;Node5</title>
<path fill="none" stroke="midnightblue" d="M400.05,-168.63C437.39,-180.64 498.28,-200.23 539.11,-213.36"/>
<polygon fill="midnightblue" stroke="midnightblue" points="538.18,-216.74 548.77,-216.47 540.32,-210.08 538.18,-216.74"/>
</g>
<!-- Node5&#45;&gt;Node2 -->
<g id="edge31" class="edge">
<title>Node5&#45;&gt;Node2</title>
<path fill="none" stroke="midnightblue" d="M595.31,-216.36C615.17,-199.09 657.2,-165.16 699,-148 837.3,-91.21 880.49,-88 1030,-88 1030,-88 1030,-88 1573.5,-88 1704.55,-88 1855.76,-88 1952.76,-88"/>
<polygon fill="midnightblue" stroke="midnightblue" points="1952.86,-91.5 1962.86,-88 1952.86,-84.5 1952.86,-91.5"/>
</g>
<!-- Node6 -->
<g id="node6" class="node">
<title>Node6</title>
<g id="a_node6"><a xlink:href="class_board_manager.html#a653d38723d03f890d38a1b68a855c569" target="_top" xlink:title="Clear all movable tiles">
<polygon fill="white" stroke="black" points="713.5,-157.5 713.5,-178.5 884.5,-178.5 884.5,-157.5 713.5,-157.5"/>
<text text-anchor="middle" x="799" y="-164.9" font-family="Helvetica,sans-Serif" font-size="12.00">BoardManager.ClearMovable</text>
</a>
</g>
</g>
<!-- Node5&#45;&gt;Node6 -->
<g id="edge5" class="edge">
<title>Node5&#45;&gt;Node6</title>
<path fill="none" stroke="midnightblue" d="M619.6,-216.47C642.35,-209.89 672.35,-201.31 699,-194 714.6,-189.72 731.63,-185.2 747.1,-181.14"/>
<polygon fill="midnightblue" stroke="midnightblue" points="748.22,-184.47 757.01,-178.56 746.45,-177.7 748.22,-184.47"/>
</g>
<!-- Node10 -->
<g id="node10" class="node">
<title>Node10</title>
<g id="a_node10"><a xlink:href="class_round_manager.html#a8d52738f26bc5b5eea98f8e3dd213744" target="_top" xlink:title="roll dice after a delay time, used for free roll tile">
<polygon fill="white" stroke="black" points="724.5,-375.5 724.5,-396.5 873.5,-396.5 873.5,-375.5 724.5,-375.5"/>
<text text-anchor="middle" x="799" y="-382.9" font-family="Helvetica,sans-Serif" font-size="12.00">RoundManager.DelayRoll</text>
</a>
</g>
</g>
<!-- Node5&#45;&gt;Node10 -->
<g id="edge9" class="edge">
<title>Node5&#45;&gt;Node10</title>
<path fill="none" stroke="midnightblue" d="M591.27,-237.78C608.35,-260.78 651.42,-315.15 699,-347 714.66,-357.48 733.55,-365.8 750.62,-372.02"/>
<polygon fill="midnightblue" stroke="midnightblue" points="749.82,-375.45 760.42,-375.43 752.13,-368.84 749.82,-375.45"/>
</g>
<!-- Node21 -->
<g id="node21" class="node">
<title>Node21</title>
<g id="a_node21"><a xlink:href="class_round_manager.html#afb3821e66d79eeb0991f620ced62940a" target="_top" xlink:title="Maek suggestion after a delay time, used for free suggestion tile">
<polygon fill="white" stroke="black" points="723.5,-236.5 723.5,-257.5 874.5,-257.5 874.5,-236.5 723.5,-236.5"/>
<text text-anchor="middle" x="799" y="-243.9" font-family="Helvetica,sans-Serif" font-size="12.00">RoundManager.DelaySug</text>
</a>
</g>
</g>
<!-- Node5&#45;&gt;Node21 -->
<g id="edge21" class="edge">
<title>Node5&#45;&gt;Node21</title>
<path fill="none" stroke="midnightblue" d="M663.07,-234.42C679.36,-235.94 696.56,-237.54 713.04,-239.08"/>
<polygon fill="midnightblue" stroke="midnightblue" points="712.9,-242.58 723.18,-240.02 713.55,-235.61 712.9,-242.58"/>
</g>
<!-- Node27 -->
<g id="node27" class="node">
<title>Node27</title>
<g id="a_node27"><a xlink:href="class_player_master_controller.html#a0447a8a21b5c0f2c94f9d27e0bcd0830" target="_top" xlink:title=" ">
<polygon fill="white" stroke="black" points="1459,-236.5 1459,-257.5 1686,-257.5 1686,-236.5 1459,-236.5"/>
<text text-anchor="middle" x="1572.5" y="-243.9" font-family="Helvetica,sans-Serif" font-size="12.00">PlayerMasterController.GetCurrentRoom</text>
</a>
</g>
</g>
<!-- Node5&#45;&gt;Node27 -->
<g id="edge32" class="edge">
<title>Node5&#45;&gt;Node27</title>
<path fill="none" stroke="midnightblue" d="M663.17,-225.88C769.11,-224.65 962.15,-223.29 1127,-227 1235.76,-229.45 1359.37,-235.25 1448.58,-239.98"/>
<polygon fill="midnightblue" stroke="midnightblue" points="1448.56,-243.49 1458.74,-240.52 1448.94,-236.5 1448.56,-243.49"/>
</g>
<!-- Node29 -->
<g id="node29" class="node">
<title>Node29</title>
<g id="a_node29"><a xlink:href="class_player_token_script.html#a98d00a98b6bf03a74b59a9127e951cfe" target="_top" xlink:title=" ">
<polygon fill="white" stroke="black" points="717,-276.5 717,-297.5 881,-297.5 881,-276.5 717,-276.5"/>
<text text-anchor="middle" x="799" y="-283.9" font-family="Helvetica,sans-Serif" font-size="12.00">PlayerTokenScript.IsInRoom</text>
</a>
</g>
</g>
<!-- Node5&#45;&gt;Node29 -->
<g id="edge33" class="edge">
<title>Node5&#45;&gt;Node29</title>
<path fill="none" stroke="midnightblue" d="M610.71,-237.58C633.92,-246.33 668.29,-258.62 699,-267 708.81,-269.68 719.25,-272.17 729.54,-274.42"/>
<polygon fill="midnightblue" stroke="midnightblue" points="728.82,-277.84 739.33,-276.5 730.27,-270.99 728.82,-277.84"/>
</g>
<!-- Node30 -->
<g id="node30" class="node">
<title>Node30</title>
<g id="a_node30"><a xlink:href="class_player_master_controller.html#a9b23c4d50fabbc44dbba2b0db542efce" target="_top" xlink:title="moving the player to a certain tile">
<polygon fill="white" stroke="black" points="699,-316.5 699,-337.5 899,-337.5 899,-316.5 699,-316.5"/>
<text text-anchor="middle" x="799" y="-323.9" font-family="Helvetica,sans-Serif" font-size="12.00">PlayerMasterController.MovePlayer</text>
</a>
</g>
</g>
<!-- Node5&#45;&gt;Node30 -->
<g id="edge34" class="edge">
<title>Node5&#45;&gt;Node30</title>
<path fill="none" stroke="midnightblue" d="M595.32,-237.69C615.2,-255.05 657.26,-289.23 699,-307 705.07,-309.58 711.49,-311.84 718.04,-313.81"/>
<polygon fill="midnightblue" stroke="midnightblue" points="717.11,-317.19 727.68,-316.5 718.99,-310.44 717.11,-317.19"/>
</g>
<!-- Node7 -->
<g id="node7" class="node">
<title>Node7</title>
<g id="a_node7"><a xlink:href="class_board_tile_script.html#a3ff1d3c491fe4d7e421a624ac0b5be6f" target="_top" xlink:title="setting the glow on the tile">
<polygon fill="white" stroke="black" points="958,-156.5 958,-177.5 1104,-177.5 1104,-156.5 958,-156.5"/>
<text text-anchor="middle" x="1031" y="-163.9" font-family="Helvetica,sans-Serif" font-size="12.00">BoardTileScript.GlowTile</text>
</a>
</g>
</g>
<!-- Node6&#45;&gt;Node7 -->
<g id="edge6" class="edge">
<title>Node6&#45;&gt;Node7</title>
<path fill="none" stroke="midnightblue" d="M884.66,-167.63C905.26,-167.54 927.26,-167.45 947.75,-167.36"/>
<polygon fill="midnightblue" stroke="midnightblue" points="948,-170.86 957.99,-167.31 947.97,-163.86 948,-170.86"/>
</g>
<!-- Node8 -->
<g id="node8" class="node">
<title>Node8</title>
<g id="a_node8"><a xlink:href="class_board_tile_effect_handler_script.html#a93e813816ff40b3602de22f87a694766" target="_top" xlink:title="turn off the effect for when player can move to that tile">
<polygon fill="white" stroke="black" points="1163,-116.5 1163,-137.5 1423,-137.5 1423,-116.5 1163,-116.5"/>
<text text-anchor="middle" x="1293" y="-123.9" font-family="Helvetica,sans-Serif" font-size="12.00">BoardTileEffectHandlerScript.ToggleEffect_Off</text>
</a>
</g>
</g>
<!-- Node7&#45;&gt;Node8 -->
<g id="edge7" class="edge">
<title>Node7&#45;&gt;Node8</title>
<path fill="none" stroke="midnightblue" d="M1100.31,-156.49C1135.11,-151.14 1177.58,-144.6 1213.69,-139.05"/>
<polygon fill="midnightblue" stroke="midnightblue" points="1214.34,-142.49 1223.69,-137.51 1213.28,-135.57 1214.34,-142.49"/>
</g>
<!-- Node9 -->
<g id="node9" class="node">
<title>Node9</title>
<g id="a_node9"><a xlink:href="class_board_tile_effect_handler_script.html#a7bf5b2a819cb44463464d5c951bf3143" target="_top" xlink:title="turn on the effect for when player can move to that tile">
<polygon fill="white" stroke="black" points="1163,-156.5 1163,-177.5 1423,-177.5 1423,-156.5 1163,-156.5"/>
<text text-anchor="middle" x="1293" y="-163.9" font-family="Helvetica,sans-Serif" font-size="12.00">BoardTileEffectHandlerScript.ToggleEffect_On</text>
</a>
</g>
</g>
<!-- Node7&#45;&gt;Node9 -->
<g id="edge8" class="edge">
<title>Node7&#45;&gt;Node9</title>
<path fill="none" stroke="midnightblue" d="M1104.08,-167C1119.26,-167 1135.77,-167 1152.49,-167"/>
<polygon fill="midnightblue" stroke="midnightblue" points="1152.92,-170.5 1162.92,-167 1152.92,-163.5 1152.92,-170.5"/>
</g>
<!-- Node11 -->
<g id="node11" class="node">
<title>Node11</title>
<g id="a_node11"><a xlink:href="class_round_manager.html#ab795c17242b95ab2cef508da5daa2593" target="_top" xlink:title="Rolls dice, will not roll if the player has rolled aready. Pass true to forcfully roll it">
<polygon fill="white" stroke="black" points="959,-394.5 959,-415.5 1103,-415.5 1103,-394.5 959,-394.5"/>
<text text-anchor="middle" x="1031" y="-401.9" font-family="Helvetica,sans-Serif" font-size="12.00">RoundManager.RollDice</text>
</a>
</g>
</g>
<!-- Node10&#45;&gt;Node11 -->
<g id="edge10" class="edge">
<title>Node10&#45;&gt;Node11</title>
<path fill="none" stroke="midnightblue" d="M873.72,-392.09C897.52,-394.06 924.04,-396.25 948.37,-398.26"/>
<polygon fill="midnightblue" stroke="midnightblue" points="948.4,-401.77 958.66,-399.11 948.98,-394.79 948.4,-401.77"/>
</g>
<!-- Node12 -->
<g id="node12" class="node">
<title>Node12</title>
<g id="a_node12"><a xlink:href="class_round_manager.html#a5cfea3b56a7576ad02c82c27bb0c6ba7" target="_top" xlink:title="reset the dice after a time delay">
<polygon fill="white" stroke="black" points="1200.5,-394.5 1200.5,-415.5 1385.5,-415.5 1385.5,-394.5 1200.5,-394.5"/>
<text text-anchor="middle" x="1293" y="-401.9" font-family="Helvetica,sans-Serif" font-size="12.00">RoundManager.DelayResetDice</text>
</a>
</g>
</g>
<!-- Node11&#45;&gt;Node12 -->
<g id="edge11" class="edge">
<title>Node11&#45;&gt;Node12</title>
<path fill="none" stroke="midnightblue" d="M1103.05,-405C1129.81,-405 1160.81,-405 1189.85,-405"/>
<polygon fill="midnightblue" stroke="midnightblue" points="1190.04,-408.5 1200.04,-405 1190.04,-401.5 1190.04,-408.5"/>
</g>
<!-- Node19 -->
<g id="node19" class="node">
<title>Node19</title>
<g id="a_node19"><a xlink:href="class_dice.html#a333ed52f536c0e7748fafe9422b179b5" target="_top" xlink:title="Roll the Dice">
<polygon fill="white" stroke="black" points="1248.5,-434.5 1248.5,-455.5 1337.5,-455.5 1337.5,-434.5 1248.5,-434.5"/>
<text text-anchor="middle" x="1293" y="-441.9" font-family="Helvetica,sans-Serif" font-size="12.00">Dice.RollDice</text>
</a>
</g>
</g>
<!-- Node11&#45;&gt;Node19 -->
<g id="edge18" class="edge">
<title>Node11&#45;&gt;Node19</title>
<path fill="none" stroke="midnightblue" d="M1100.31,-415.51C1143.36,-422.13 1198.15,-430.56 1238.12,-436.71"/>
<polygon fill="midnightblue" stroke="midnightblue" points="1237.79,-440.2 1248.2,-438.26 1238.85,-433.28 1237.79,-440.2"/>
</g>
<!-- Node13 -->
<g id="node13" class="node">
<title>Node13</title>
<g id="a_node13"><a xlink:href="class_dice.html#ade1dc529eeb31f31e668c595c5748e67" target="_top" xlink:title="Reset the dice">
<polygon fill="white" stroke="black" points="1522.5,-394.5 1522.5,-415.5 1622.5,-415.5 1622.5,-394.5 1522.5,-394.5"/>
<text text-anchor="middle" x="1572.5" y="-401.9" font-family="Helvetica,sans-Serif" font-size="12.00">Dice.ResetDice</text>
</a>
</g>
</g>
<!-- Node12&#45;&gt;Node13 -->
<g id="edge12" class="edge">
<title>Node12&#45;&gt;Node13</title>
<path fill="none" stroke="midnightblue" d="M1385.63,-405C1427.34,-405 1475.48,-405 1512.33,-405"/>
<polygon fill="midnightblue" stroke="midnightblue" points="1512.4,-408.5 1522.4,-405 1512.4,-401.5 1512.4,-408.5"/>
</g>
<!-- Node14 -->
<g id="node14" class="node">
<title>Node14</title>
<g id="a_node14"><a xlink:href="class_dice.html#ace4c995eb73b784d1076fde140ce85af" target="_top" xlink:title="Can Dice be reset">
<polygon fill="white" stroke="black" points="1768.5,-394.5 1768.5,-415.5 1865.5,-415.5 1865.5,-394.5 1768.5,-394.5"/>
<text text-anchor="middle" x="1817" y="-401.9" font-family="Helvetica,sans-Serif" font-size="12.00">Dice.CanReset</text>
</a>
</g>
</g>
<!-- Node13&#45;&gt;Node14 -->
<g id="edge13" class="edge">
<title>Node13&#45;&gt;Node14</title>
<path fill="none" stroke="midnightblue" d="M1622.57,-405C1661.74,-405 1716.71,-405 1758.04,-405"/>
<polygon fill="midnightblue" stroke="midnightblue" points="1758.24,-408.5 1768.24,-405 1758.24,-401.5 1758.24,-408.5"/>
</g>
<!-- Node16 -->
<g id="node16" class="node">
<title>Node16</title>
<g id="a_node16"><a xlink:href="class_camera_close_up.html#ad31062bdf359a453fc85ebdd71fa1bae" target="_top" xlink:title="Clear camera close up">
<polygon fill="white" stroke="black" points="1726,-354.5 1726,-375.5 1908,-375.5 1908,-354.5 1726,-354.5"/>
<text text-anchor="middle" x="1817" y="-361.9" font-family="Helvetica,sans-Serif" font-size="12.00">CameraCloseUp.ClearCloseUp</text>
</a>
</g>
</g>
<!-- Node13&#45;&gt;Node16 -->
<g id="edge15" class="edge">
<title>Node13&#45;&gt;Node16</title>
<path fill="none" stroke="midnightblue" d="M1622.57,-396.91C1656.88,-391.25 1703.29,-383.59 1742.06,-377.2"/>
<polygon fill="midnightblue" stroke="midnightblue" points="1742.96,-380.6 1752.26,-375.51 1741.82,-373.69 1742.96,-380.6"/>
</g>
<!-- Node18 -->
<g id="node18" class="node">
<title>Node18</title>
<g id="a_node18"><a xlink:href="class_die.html#abc11c3d2bf0c0fba1555093eb5a8469e" target="_top" xlink:title="Reset Die to original position">
<polygon fill="white" stroke="black" points="1773,-434.5 1773,-455.5 1861,-455.5 1861,-434.5 1773,-434.5"/>
<text text-anchor="middle" x="1817" y="-441.9" font-family="Helvetica,sans-Serif" font-size="12.00">Die.ResetDie</text>
</a>
</g>
</g>
<!-- Node13&#45;&gt;Node18 -->
<g id="edge17" class="edge">
<title>Node13&#45;&gt;Node18</title>
<path fill="none" stroke="midnightblue" d="M1622.57,-413.09C1663.23,-419.8 1720.91,-429.32 1762.7,-436.21"/>
<polygon fill="midnightblue" stroke="midnightblue" points="1762.25,-439.68 1772.69,-437.86 1763.39,-432.78 1762.25,-439.68"/>
</g>
<!-- Node15 -->
<g id="node15" class="node">
<title>Node15</title>
<g id="a_node15"><a xlink:href="class_die.html#a390d46459637fd249926cda472255d84" target="_top" xlink:title="Can the die be reset">
<polygon fill="white" stroke="black" points="1999,-394.5 1999,-415.5 2109,-415.5 2109,-394.5 1999,-394.5"/>
<text text-anchor="middle" x="2054" y="-401.9" font-family="Helvetica,sans-Serif" font-size="12.00">Die.CanResetDie</text>
</a>
</g>
</g>
<!-- Node14&#45;&gt;Node15 -->
<g id="edge14" class="edge">
<title>Node14&#45;&gt;Node15</title>
<path fill="none" stroke="midnightblue" d="M1865.56,-405C1901.01,-405 1949.83,-405 1988.76,-405"/>
<polygon fill="midnightblue" stroke="midnightblue" points="1988.94,-408.5 1998.94,-405 1988.94,-401.5 1988.94,-408.5"/>
</g>
<!-- Node17 -->
<g id="node17" class="node">
<title>Node17</title>
<g id="a_node17"><a xlink:href="class_camera_close_up.html#ae902d2ccdf969212e0cb84f638f68851" target="_top" xlink:title="Delay then clear close up">
<polygon fill="white" stroke="black" points="1948,-354.5 1948,-375.5 2160,-375.5 2160,-354.5 1948,-354.5"/>
<text text-anchor="middle" x="2054" y="-361.9" font-family="Helvetica,sans-Serif" font-size="12.00">CameraCloseUp.ClearCloseUpDelay</text>
</a>
</g>
</g>
<!-- Node16&#45;&gt;Node17 -->
<g id="edge16" class="edge">
<title>Node16&#45;&gt;Node17</title>
<path fill="none" stroke="midnightblue" d="M1908.19,-365C1917.79,-365 1927.66,-365 1937.5,-365"/>
<polygon fill="midnightblue" stroke="midnightblue" points="1937.74,-368.5 1947.74,-365 1937.74,-361.5 1937.74,-368.5"/>
</g>
<!-- Node20 -->
<g id="node20" class="node">
<title>Node20</title>
<g id="a_node20"><a xlink:href="class_die.html#a4995ecb1a88aa7f1043ae71ba8aa3ef5" target="_top" xlink:title="Roll the die">
<polygon fill="white" stroke="black" points="1534,-434.5 1534,-455.5 1611,-455.5 1611,-434.5 1534,-434.5"/>
<text text-anchor="middle" x="1572.5" y="-441.9" font-family="Helvetica,sans-Serif" font-size="12.00">Die.RollDie</text>
</a>
</g>
</g>
<!-- Node19&#45;&gt;Node20 -->
<g id="edge19" class="edge">
<title>Node19&#45;&gt;Node20</title>
<path fill="none" stroke="midnightblue" d="M1337.66,-445C1388.32,-445 1471.55,-445 1523.85,-445"/>
<polygon fill="midnightblue" stroke="midnightblue" points="1523.88,-448.5 1533.88,-445 1523.88,-441.5 1523.88,-448.5"/>
</g>
<!-- Node20&#45;&gt;Node18 -->
<g id="edge20" class="edge">
<title>Node20&#45;&gt;Node18</title>
<path fill="none" stroke="midnightblue" d="M1611.12,-445C1651.82,-445 1717.01,-445 1762.9,-445"/>
<polygon fill="midnightblue" stroke="midnightblue" points="1762.97,-448.5 1772.97,-445 1762.97,-441.5 1762.97,-448.5"/>
</g>
<!-- Node22 -->
<g id="node22" class="node">
<title>Node22</title>
<g id="a_node22"><a xlink:href="class_round_manager.html#aab3f49a5e05508a8e023a497e763c1c8" target="_top" xlink:title="Gets the player controller for the current player">
<polygon fill="white" stroke="black" points="1722,-196.5 1722,-217.5 1912,-217.5 1912,-196.5 1722,-196.5"/>
<text text-anchor="middle" x="1817" y="-203.9" font-family="Helvetica,sans-Serif" font-size="12.00">RoundManager.GetCurrentPlayer</text>
</a>
</g>
</g>
<!-- Node21&#45;&gt;Node22 -->
<g id="edge22" class="edge">
<title>Node21&#45;&gt;Node22</title>
<path fill="none" stroke="midnightblue" d="M857.13,-257.52C999.31,-281.72 1379.62,-334.29 1686,-267 1724.49,-258.55 1765.16,-237.55 1790.55,-222.79"/>
<polygon fill="midnightblue" stroke="midnightblue" points="1792.37,-225.79 1799.18,-217.67 1788.8,-219.77 1792.37,-225.79"/>
</g>
<!-- Node23 -->
<g id="node23" class="node">
<title>Node23</title>
<g id="a_node23"><a xlink:href="class_u_i_handler.html#a52241b6fefb8a446c2c000202216bfd2" target="_top" xlink:title="Makes suggestion when the button is pressed">
<polygon fill="white" stroke="black" points="935,-236.5 935,-257.5 1127,-257.5 1127,-236.5 935,-236.5"/>
<text text-anchor="middle" x="1031" y="-243.9" font-family="Helvetica,sans-Serif" font-size="12.00">UIHandler.MakeSuggestionButton</text>
</a>
</g>
</g>
<!-- Node21&#45;&gt;Node23 -->
<g id="edge24" class="edge">
<title>Node21&#45;&gt;Node23</title>
<path fill="none" stroke="midnightblue" d="M874.67,-247C890.53,-247 907.56,-247 924.33,-247"/>
<polygon fill="midnightblue" stroke="midnightblue" points="924.72,-250.5 934.72,-247 924.72,-243.5 924.72,-250.5"/>
</g>
<!-- Node22&#45;&gt;Node2 -->
<g id="edge23" class="edge">
<title>Node22&#45;&gt;Node2</title>
<path fill="none" stroke="midnightblue" d="M1838.85,-196.44C1880.66,-175.27 1974.85,-127.58 2023.17,-103.11"/>
<polygon fill="midnightblue" stroke="midnightblue" points="2024.85,-106.18 2032.19,-98.54 2021.69,-99.93 2024.85,-106.18"/>
</g>
<!-- Node24 -->
<g id="node24" class="node">
<title>Node24</title>
<g id="a_node24"><a xlink:href="class_u_i_handler.html#a99048b81a1303baba7efd44095c0f235" target="_top" xlink:title="Displays Suggestion menu, set the room if in a room">
<polygon fill="white" stroke="black" points="1194.5,-196.5 1194.5,-217.5 1391.5,-217.5 1391.5,-196.5 1194.5,-196.5"/>
<text text-anchor="middle" x="1293" y="-203.9" font-family="Helvetica,sans-Serif" font-size="12.00">UIHandler.DisplayMenuSuggestion</text>
</a>
</g>
</g>
<!-- Node23&#45;&gt;Node24 -->
<g id="edge25" class="edge">
<title>Node23&#45;&gt;Node24</title>
<path fill="none" stroke="midnightblue" d="M1100.31,-236.49C1135.11,-231.14 1177.58,-224.6 1213.69,-219.05"/>
<polygon fill="midnightblue" stroke="midnightblue" points="1214.34,-222.49 1223.69,-217.51 1213.28,-215.57 1214.34,-222.49"/>
</g>
<!-- Node25 -->
<g id="node25" class="node">
<title>Node25</title>
<g id="a_node25"><a xlink:href="class_card_manager.html#a124d7d9ab3a0e7c22ca64c15da76d4b1" target="_top" xlink:title="Looks for the specified weapon card">
<polygon fill="white" stroke="black" points="1501.5,-156.5 1501.5,-177.5 1643.5,-177.5 1643.5,-156.5 1501.5,-156.5"/>
<text text-anchor="middle" x="1572.5" y="-163.9" font-family="Helvetica,sans-Serif" font-size="12.00">CardManager.FindCard</text>
</a>
</g>
</g>
<!-- Node24&#45;&gt;Node25 -->
<g id="edge26" class="edge">
<title>Node24&#45;&gt;Node25</title>
<path fill="none" stroke="midnightblue" d="M1366.91,-196.49C1405.17,-190.98 1452.13,-184.21 1491.4,-178.55"/>
<polygon fill="midnightblue" stroke="midnightblue" points="1492.07,-181.99 1501.47,-177.09 1491.07,-175.06 1492.07,-181.99"/>
</g>
<!-- Node26 -->
<g id="node26" class="node">
<title>Node26</title>
<g id="a_node26"><a xlink:href="class_user_controller.html#a587c55687141d18f375e0504ea4649fa" target="_top" xlink:title="Gets the player controller for the current player">
<polygon fill="white" stroke="black" points="1480,-196.5 1480,-217.5 1665,-217.5 1665,-196.5 1480,-196.5"/>
<text text-anchor="middle" x="1572.5" y="-203.9" font-family="Helvetica,sans-Serif" font-size="12.00">UserController.GetCurrentPlayer</text>
</a>
</g>
</g>
<!-- Node24&#45;&gt;Node26 -->
<g id="edge27" class="edge">
<title>Node24&#45;&gt;Node26</title>
<path fill="none" stroke="midnightblue" d="M1391.84,-207C1417.05,-207 1444.23,-207 1469.64,-207"/>
<polygon fill="midnightblue" stroke="midnightblue" points="1469.66,-210.5 1479.66,-207 1469.66,-203.5 1469.66,-210.5"/>
</g>
<!-- Node24&#45;&gt;Node27 -->
<g id="edge29" class="edge">
<title>Node24&#45;&gt;Node27</title>
<path fill="none" stroke="midnightblue" d="M1366.91,-217.51C1404.2,-222.89 1449.76,-229.45 1488.41,-235.02"/>
<polygon fill="midnightblue" stroke="midnightblue" points="1488.2,-238.53 1498.6,-236.49 1489.2,-231.6 1488.2,-238.53"/>
</g>
<!-- Node28 -->
<g id="node28" class="node">
<title>Node28</title>
<g id="a_node28"><a xlink:href="class_suggestion.html#aec2e9ce82ae5f51cea7570bc6dafa43a" target="_top" xlink:title=" ">
<polygon fill="white" stroke="black" points="1498,-116.5 1498,-137.5 1647,-137.5 1647,-116.5 1498,-116.5"/>
<text text-anchor="middle" x="1572.5" y="-123.9" font-family="Helvetica,sans-Serif" font-size="12.00">Suggestion.SetSugRoom</text>
</a>
</g>
</g>
<!-- Node24&#45;&gt;Node28 -->
<g id="edge30" class="edge">
<title>Node24&#45;&gt;Node28</title>
<path fill="none" stroke="midnightblue" d="M1391.81,-199.19C1402.7,-196.2 1413.33,-192.23 1423,-187 1444.04,-175.62 1438.09,-158.61 1459,-147 1468,-142 1477.98,-138.21 1488.17,-135.33"/>
<polygon fill="midnightblue" stroke="midnightblue" points="1489.14,-138.7 1497.97,-132.85 1487.42,-131.91 1489.14,-138.7"/>
</g>
<!-- Node26&#45;&gt;Node22 -->
<g id="edge28" class="edge">
<title>Node26&#45;&gt;Node22</title>
<path fill="none" stroke="midnightblue" d="M1665.18,-207C1680.36,-207 1696.2,-207 1711.67,-207"/>
<polygon fill="midnightblue" stroke="midnightblue" points="1711.77,-210.5 1721.77,-207 1711.77,-203.5 1711.77,-210.5"/>
</g>
<!-- Node31 -->
<g id="node31" class="node">
<title>Node31</title>
<g id="a_node31"><a xlink:href="class_player_token_script.html#af62557bd1edf071efadf23c84f0db1ad" target="_top" xlink:title=" ">
<polygon fill="white" stroke="black" points="943,-316.5 943,-337.5 1119,-337.5 1119,-316.5 943,-316.5"/>
<text text-anchor="middle" x="1031" y="-323.9" font-family="Helvetica,sans-Serif" font-size="12.00">PlayerTokenScript.MoveToken</text>
</a>
</g>
</g>
<!-- Node30&#45;&gt;Node31 -->
<g id="edge35" class="edge">
<title>Node30&#45;&gt;Node31</title>
<path fill="none" stroke="midnightblue" d="M899.21,-327C910.29,-327 921.56,-327 932.62,-327"/>
<polygon fill="midnightblue" stroke="midnightblue" points="932.69,-330.5 942.69,-327 932.69,-323.5 932.69,-330.5"/>
</g>
<!-- Node32 -->
<g id="node32" class="node">
<title>Node32</title>
<g id="a_node32"><a xlink:href="class_camera_close_up.html#aee634e08987ea079413fd67b737b2c5d" target="_top" xlink:title="Set camera close up to character">
<polygon fill="white" stroke="black" points="1181,-354.5 1181,-375.5 1405,-375.5 1405,-354.5 1181,-354.5"/>
<text text-anchor="middle" x="1293" y="-361.9" font-family="Helvetica,sans-Serif" font-size="12.00">CameraCloseUp.SetCharacterCloseUp</text>
</a>
</g>
</g>
<!-- Node31&#45;&gt;Node32 -->
<g id="edge36" class="edge">
<title>Node31&#45;&gt;Node32</title>
<path fill="none" stroke="midnightblue" d="M1104.08,-337.53C1136.91,-342.33 1175.93,-348.04 1209.88,-353"/>
<polygon fill="midnightblue" stroke="midnightblue" points="1209.38,-356.46 1219.78,-354.44 1210.39,-349.54 1209.38,-356.46"/>
</g>
<!-- Node34 -->
<g id="node34" class="node">
<title>Node34</title>
<g id="a_node34"><a xlink:href="class_board_tile_script.html#a6257d1f00b3732f6d61a4d98b445890c" target="_top" xlink:title="setting the player token that is currently on this tile">
<polygon fill="white" stroke="black" points="1217,-314.5 1217,-335.5 1369,-335.5 1369,-314.5 1217,-314.5"/>
<text text-anchor="middle" x="1293" y="-321.9" font-family="Helvetica,sans-Serif" font-size="12.00">BoardTileScript.SetToken</text>
</a>
</g>
</g>
<!-- Node31&#45;&gt;Node34 -->
<g id="edge38" class="edge">
<title>Node31&#45;&gt;Node34</title>
<path fill="none" stroke="midnightblue" d="M1119.3,-326.33C1147.42,-326.11 1178.53,-325.87 1206.52,-325.66"/>
<polygon fill="midnightblue" stroke="midnightblue" points="1206.7,-329.16 1216.67,-325.58 1206.65,-322.16 1206.7,-329.16"/>
</g>
<!-- Node33 -->
<g id="node33" class="node">
<title>Node33</title>
<g id="a_node33"><a xlink:href="class_camera_close_up.html#a1d70afa00d6f67abee342c029af88fcf" target="_top" xlink:title="Set close up point">
<polygon fill="white" stroke="black" points="1486.5,-354.5 1486.5,-375.5 1658.5,-375.5 1658.5,-354.5 1486.5,-354.5"/>
<text text-anchor="middle" x="1572.5" y="-361.9" font-family="Helvetica,sans-Serif" font-size="12.00">CameraCloseUp.SetCloseUp</text>
</a>
</g>
</g>
<!-- Node32&#45;&gt;Node33 -->
<g id="edge37" class="edge">
<title>Node32&#45;&gt;Node33</title>
<path fill="none" stroke="midnightblue" d="M1405.27,-365C1428.78,-365 1453.39,-365 1476.25,-365"/>
<polygon fill="midnightblue" stroke="midnightblue" points="1476.27,-368.5 1486.27,-365 1476.27,-361.5 1476.27,-368.5"/>
</g>
</g>
</svg>
        <g id="navigator" transform="translate(0 0)" fill="#404254">
                <rect fill="#f2f5e9" fill-opacity="0.5" stroke="#606060" stroke-width=".5" x="0" y="0" width="60" height="60"/>
                <use id="zoomplus" xlink:href="#zoomPlus" x="17" y="9" onmousedown="handleZoom(evt,'in')"/>
                <use id="zoomminus" xlink:href="#zoomMin" x="42" y="9" onmousedown="handleZoom(evt,'out')"/>
                <use id="reset" xlink:href="#resetDef" x="30" y="36" onmousedown="handleReset()"/>
                <g id="arrowUp" xlink:href="#dirArrow" transform="translate(30 24)" onmousedown="handlePan(0,-1)">
                  <use xlink:href="#rim" fill="#404040">
                        <set attributeName="fill" to="#808080" begin="arrowUp.mouseover" end="arrowUp.mouseout"/>
                  </use>
                  <path fill="none" stroke="white" stroke-width="1.5" d="M0,-3.0v7 M-2.5,-0.5L0,-3.0L2.5,-0.5"/>
                </g>
                <g id="arrowRight" xlink:href="#dirArrow" transform="rotate(90) translate(36 -43)" onmousedown="handlePan(1,0)">
                  <use xlink:href="#rim" fill="#404040">
                        <set attributeName="fill" to="#808080" begin="arrowRight.mouseover" end="arrowRight.mouseout"/>
                  </use>
                  <path fill="none" stroke="white" stroke-width="1.5" d="M0,-3.0v7 M-2.5,-0.5L0,-3.0L2.5,-0.5"/>
                </g>
                <g id="arrowDown" xlink:href="#dirArrow" transform="rotate(180) translate(-30 -48)" onmousedown="handlePan(0,1)">
                  <use xlink:href="#rim" fill="#404040">
                        <set attributeName="fill" to="#808080" begin="arrowDown.mouseover" end="arrowDown.mouseout"/>
                  </use>
                  <path fill="none" stroke="white" stroke-width="1.5" d="M0,-3.0v7 M-2.5,-0.5L0,-3.0L2.5,-0.5"/>
                </g>
                <g id="arrowLeft" xlink:href="#dirArrow" transform="rotate(270) translate(-36 17)" onmousedown="handlePan(-1,0)">
                  <use xlink:href="#rim" fill="#404040">
                        <set attributeName="fill" to="#808080" begin="arrowLeft.mouseover" end="arrowLeft.mouseout"/>
                  </use>
                  <path fill="none" stroke="white" stroke-width="1.5" d="M0,-3.0v7 M-2.5,-0.5L0,-3.0L2.5,-0.5"/>
                </g>
        </g>
        <svg viewBox="0 0 15 15" width="100%" height="30px" preserveAspectRatio="xMaxYMin meet">
         <g id="arrow_out" transform="scale(0.3 0.3)">
          <a xlink:href="class_user_input_control_script_a13be570929e27dad6d3d452ccd5f52eb_cgraph_org.svg" target="_base">
           <rect id="button" ry="5" rx="5" y="6" x="6" height="38" width="38"
                fill="#f2f5e9" fill-opacity="0.5" stroke="#606060" stroke-width="1.0"/>
           <path id="arrow"
             d="M 11.500037,31.436501 C 11.940474,20.09759 22.043105,11.32322 32.158766,21.979434 L 37.068811,17.246167 C 37.068811,17.246167 37.088388,32 37.088388,32 L 22.160133,31.978069 C 22.160133,31.978069 26.997745,27.140456 26.997745,27.140456 C 18.528582,18.264221 13.291696,25.230495 11.500037,31.436501 z"
             style="fill:#404040;"/>
          </a>
         </g>
        </svg>
</svg>
