<?xml version="1.0" encoding="UTF-8" standalone="no"?>
<!DOCTYPE svg PUBLIC "-//W3C//DTD SVG 1.1//EN"
 "http://www.w3.org/Graphics/SVG/1.1/DTD/svg11.dtd">
<!-- Generated by graphviz version 2.47.1 (20210417.1919)
 -->
<!-- Title: UserController.SetRoom Pages: 1 -->
<svg width="337pt" height="110pt"
 viewBox="0.00 0.00 337.00 110.00" xmlns="http://www.w3.org/2000/svg" xmlns:xlink="http://www.w3.org/1999/xlink">
<g id="graph0" class="graph" transform="scale(1 1) rotate(0) translate(4 106)">
<title>UserController.SetRoom</title>
<polygon fill="white" stroke="transparent" points="-4,4 -4,-106 333,-106 333,4 -4,4"/>
<!-- Node1 -->
<g id="node1" class="node">
<title>Node1</title>
<g id="a_node1"><a xlink:title="Sets room for suggestions and accusation">
<polygon fill="#bfbfbf" stroke="black" points="0,-40.5 0,-61.5 144,-61.5 144,-40.5 0,-40.5"/>
<text text-anchor="middle" x="72" y="-47.9" font-family="Helvetica,sans-Serif" font-size="12.00">UserController.SetRoom</text>
</a>
</g>
</g>
<!-- Node2 -->
<g id="node2" class="node">
<title>Node2</title>
<g id="a_node2"><a xlink:href="class_card_manager.html#a124d7d9ab3a0e7c22ca64c15da76d4b1" target="_top" xlink:title="Looks for the specified weapon card">
<polygon fill="white" stroke="black" points="183.5,-80.5 183.5,-101.5 325.5,-101.5 325.5,-80.5 183.5,-80.5"/>
<text text-anchor="middle" x="254.5" y="-87.9" font-family="Helvetica,sans-Serif" font-size="12.00">CardManager.FindCard</text>
</a>
</g>
</g>
<!-- Node1&#45;&gt;Node2 -->
<g id="edge1" class="edge">
<title>Node1&#45;&gt;Node2</title>
<path fill="none" stroke="midnightblue" d="M120.42,-61.51C143.65,-66.66 171.8,-72.9 196.22,-78.31"/>
<polygon fill="midnightblue" stroke="midnightblue" points="195.56,-81.74 206.08,-80.49 197.07,-74.91 195.56,-81.74"/>
</g>
<!-- Node3 -->
<g id="node3" class="node">
<title>Node3</title>
<g id="a_node3"><a xlink:href="class_accusation.html#a15c3190bb9b3ff4be98195a3f72bcd23" target="_top" xlink:title="Set the current room for accusing">
<polygon fill="white" stroke="black" points="191,-40.5 191,-61.5 318,-61.5 318,-40.5 191,-40.5"/>
<text text-anchor="middle" x="254.5" y="-47.9" font-family="Helvetica,sans-Serif" font-size="12.00">Accusation.SetRoom</text>
</a>
</g>
</g>
<!-- Node1&#45;&gt;Node3 -->
<g id="edge2" class="edge">
<title>Node1&#45;&gt;Node3</title>
<path fill="none" stroke="midnightblue" d="M144.08,-51C156.18,-51 168.76,-51 180.9,-51"/>
<polygon fill="midnightblue" stroke="midnightblue" points="180.97,-54.5 190.97,-51 180.97,-47.5 180.97,-54.5"/>
</g>
<!-- Node4 -->
<g id="node4" class="node">
<title>Node4</title>
<g id="a_node4"><a xlink:href="class_suggestion.html#aec2e9ce82ae5f51cea7570bc6dafa43a" target="_top" xlink:title=" ">
<polygon fill="white" stroke="black" points="180,-0.5 180,-21.5 329,-21.5 329,-0.5 180,-0.5"/>
<text text-anchor="middle" x="254.5" y="-7.9" font-family="Helvetica,sans-Serif" font-size="12.00">Suggestion.SetSugRoom</text>
</a>
</g>
</g>
<!-- Node1&#45;&gt;Node4 -->
<g id="edge3" class="edge">
<title>Node1&#45;&gt;Node4</title>
<path fill="none" stroke="midnightblue" d="M120.42,-40.49C143.65,-35.34 171.8,-29.1 196.22,-23.69"/>
<polygon fill="midnightblue" stroke="midnightblue" points="197.07,-27.09 206.08,-21.51 195.56,-20.26 197.07,-27.09"/>
</g>
</g>
</svg>
