<?xml version="1.0" encoding="UTF-8" standalone="no"?>
<!DOCTYPE svg PUBLIC "-//W3C//DTD SVG 1.1//EN"
 "http://www.w3.org/Graphics/SVG/1.1/DTD/svg11.dtd">
<!-- Generated by graphviz version 2.47.1 (20210417.1919)
 -->
<!-- Title: StartTileScript Pages: 1 -->
<!--zoomable 571 -->
<svg id="main" version="1.1" xmlns="http://www.w3.org/2000/svg" xmlns:xlink="http://www.w3.org/1999/xlink" xml:space="preserve" onload="init(evt)">
<style type="text/css"><![CDATA[
.edge:hover path { stroke: red; }
.edge:hover polygon { stroke: red; fill: red; }
]]></style>
<script type="text/javascript"><![CDATA[
var edges = document.getElementsByTagName('g');
if (edges && edges.length) {
  for (var i=0;i<edges.length;i++) {
    if (edges[i].id.substr(0,4)=='edge') {
      edges[i].setAttribute('class','edge');
    }
  }
}
]]></script>
        <defs>
                <circle id="rim" cx="0" cy="0" r="7"/>
                <circle id="rim2" cx="0" cy="0" r="3.5"/>
                <g id="zoomPlus">
                        <use xlink:href="#rim" fill="#404040">
                                <set attributeName="fill" to="#808080" begin="zoomplus.mouseover" end="zoomplus.mouseout"/>
                        </use>
                        <path d="M-4,0h8M0,-4v8" fill="none" stroke="white" stroke-width="1.5" pointer-events="none"/>
                </g>
                <g id="zoomMin">
                        <use xlink:href="#rim" fill="#404040">
                                <set attributeName="fill" to="#808080" begin="zoomminus.mouseover" end="zoomminus.mouseout"/>
                        </use>
                        <path d="M-4,0h8" fill="none" stroke="white" stroke-width="1.5" pointer-events="none"/>
                </g>
                <g id="dirArrow">
                        <path fill="none" stroke="white" stroke-width="1.5" d="M0,-3.0v7 M-2.5,-0.5L0,-3.0L2.5,-0.5"/>
                </g>
               <g id="resetDef">
                       <use xlink:href="#rim2" fill="#404040">
                               <set attributeName="fill" to="#808080" begin="reset.mouseover" end="reset.mouseout"/>
                       </use>
               </g>
        </defs>

<script type="text/javascript">
var viewWidth = 151;
var viewHeight = 571;
var sectionId = 'dynsection-0';
</script>
<script xlink:href="svgpan.js"/>
<svg id="graph" class="graph">
<g id="viewport">
<title>StartTileScript</title>
<polygon fill="white" stroke="transparent" points="-4,4 -4,-567 147,-567 147,4 -4,4"/>
<!-- Node1 -->
<g id="node1" class="node">
<title>Node1</title>
<g id="a_node1"><a xlink:title="Class for the start tile Gameobject">
<polygon fill="#bfbfbf" stroke="black" points="19,-0.5 19,-141.5 124,-141.5 124,-0.5 19,-0.5"/>
<text text-anchor="middle" x="71.5" y="-127.9" font-family="Helvetica,sans-Serif" font-size="12.00">StartTileScript</text>
<polyline fill="none" stroke="black" points="19,-120.5 124,-120.5 "/>
<text text-anchor="start" x="27" y="-106.9" font-family="Helvetica,sans-Serif" font-size="12.00">+ Character</text>
<text text-anchor="start" x="27" y="-93.9" font-family="Helvetica,sans-Serif" font-size="12.00">&#45; character</text>
<text text-anchor="start" x="27" y="-80.9" font-family="Helvetica,sans-Serif" font-size="12.00">&#45; tileText</text>
<polyline fill="none" stroke="black" points="19,-73.5 124,-73.5 "/>
<text text-anchor="start" x="27" y="-59.9" font-family="Helvetica,sans-Serif" font-size="12.00">+ SetCharacter()</text>
<text text-anchor="start" x="27" y="-46.9" font-family="Helvetica,sans-Serif" font-size="12.00">+ SetTileColour()</text>
<text text-anchor="start" x="27" y="-33.9" font-family="Helvetica,sans-Serif" font-size="12.00">+ ToString()</text>
<text text-anchor="start" x="27" y="-20.9" font-family="Helvetica,sans-Serif" font-size="12.00">&#45; Awake()</text>
<text text-anchor="start" x="27" y="-7.9" font-family="Helvetica,sans-Serif" font-size="12.00">&#45; SetTileText()</text>
</a>
</g>
</g>
<!-- Node2 -->
<g id="node2" class="node">
<title>Node2</title>
<g id="a_node2"><a xlink:href="class_board_tile_script.html" target="_top" xlink:title="Super class for all tiles">
<polygon fill="white" stroke="black" points="0,-178.5 0,-462.5 143,-462.5 143,-178.5 0,-178.5"/>
<text text-anchor="middle" x="71.5" y="-448.9" font-family="Helvetica,sans-Serif" font-size="12.00">BoardTileScript</text>
<polyline fill="none" stroke="black" points="0,-441.5 143,-441.5 "/>
<text text-anchor="start" x="8" y="-427.9" font-family="Helvetica,sans-Serif" font-size="12.00">+ GridPosition</text>
<text text-anchor="start" x="8" y="-414.9" font-family="Helvetica,sans-Serif" font-size="12.00">+ TileType</text>
<text text-anchor="start" x="8" y="-401.9" font-family="Helvetica,sans-Serif" font-size="12.00">+ PlayerToken</text>
<text text-anchor="start" x="8" y="-388.9" font-family="Helvetica,sans-Serif" font-size="12.00">+ BoardManager</text>
<text text-anchor="start" x="8" y="-375.9" font-family="Helvetica,sans-Serif" font-size="12.00">&#45; gridPosition</text>
<text text-anchor="start" x="8" y="-362.9" font-family="Helvetica,sans-Serif" font-size="12.00">&#45; tileType</text>
<text text-anchor="start" x="8" y="-349.9" font-family="Helvetica,sans-Serif" font-size="12.00">&#45; boardTileEffectHandler</text>
<text text-anchor="start" x="8" y="-336.9" font-family="Helvetica,sans-Serif" font-size="12.00">&#45; playerToken</text>
<text text-anchor="start" x="8" y="-323.9" font-family="Helvetica,sans-Serif" font-size="12.00">&#45; boardManager</text>
<polyline fill="none" stroke="black" points="0,-316.5 143,-316.5 "/>
<text text-anchor="start" x="8" y="-302.9" font-family="Helvetica,sans-Serif" font-size="12.00">+ ClearTile()</text>
<text text-anchor="start" x="8" y="-289.9" font-family="Helvetica,sans-Serif" font-size="12.00">+ SelectTile()</text>
<text text-anchor="start" x="8" y="-276.9" font-family="Helvetica,sans-Serif" font-size="12.00">+ GlowTile()</text>
<text text-anchor="start" x="8" y="-263.9" font-family="Helvetica,sans-Serif" font-size="12.00">+ SetToken()</text>
<text text-anchor="start" x="8" y="-250.9" font-family="Helvetica,sans-Serif" font-size="12.00">+ IsEmpty()</text>
<text text-anchor="start" x="8" y="-237.9" font-family="Helvetica,sans-Serif" font-size="12.00">+ GetTileNeighbours()</text>
<text text-anchor="start" x="8" y="-224.9" font-family="Helvetica,sans-Serif" font-size="12.00">+ CanMove()</text>
<text text-anchor="start" x="8" y="-211.9" font-family="Helvetica,sans-Serif" font-size="12.00">+ ToString()</text>
<text text-anchor="start" x="8" y="-198.9" font-family="Helvetica,sans-Serif" font-size="12.00"># Init()</text>
<text text-anchor="start" x="8" y="-185.9" font-family="Helvetica,sans-Serif" font-size="12.00">&#45; Start()</text>
</a>
</g>
</g>
<!-- Node2&#45;&gt;Node1 -->
<g id="edge1" class="edge">
<title>Node2&#45;&gt;Node1</title>
<path fill="none" stroke="midnightblue" d="M71.5,-168.34C71.5,-159.14 71.5,-150.15 71.5,-141.59"/>
<polygon fill="none" stroke="midnightblue" points="68,-168.4 71.5,-178.4 75,-168.4 68,-168.4"/>
</g>
<!-- Node3 -->
<g id="node3" class="node">
<title>Node3</title>
<g id="a_node3"><a xlink:title=" ">
<polygon fill="white" stroke="#bfbfbf" points="22.5,-499.5 22.5,-562.5 120.5,-562.5 120.5,-499.5 22.5,-499.5"/>
<text text-anchor="middle" x="71.5" y="-548.9" font-family="Helvetica,sans-Serif" font-size="12.00">MonoBehaviour</text>
<polyline fill="none" stroke="#bfbfbf" points="22.5,-541.5 120.5,-541.5 "/>
<text text-anchor="middle" x="71.5" y="-527.9" font-family="Helvetica,sans-Serif" font-size="12.00"> </text>
<polyline fill="none" stroke="#bfbfbf" points="22.5,-520.5 120.5,-520.5 "/>
<text text-anchor="middle" x="71.5" y="-506.9" font-family="Helvetica,sans-Serif" font-size="12.00"> </text>
</a>
</g>
</g>
<!-- Node3&#45;&gt;Node2 -->
<g id="edge2" class="edge">
<title>Node3&#45;&gt;Node2</title>
<path fill="none" stroke="midnightblue" d="M71.5,-489.07C71.5,-480.95 71.5,-472.01 71.5,-462.61"/>
<polygon fill="none" stroke="midnightblue" points="68,-489.24 71.5,-499.24 75,-489.24 68,-489.24"/>
</g>
</g>
</svg>
        <g id="navigator" transform="translate(0 0)" fill="#404254">
                <rect fill="#f2f5e9" fill-opacity="0.5" stroke="#606060" stroke-width=".5" x="0" y="0" width="60" height="60"/>
                <use id="zoomplus" xlink:href="#zoomPlus" x="17" y="9" onmousedown="handleZoom(evt,'in')"/>
                <use id="zoomminus" xlink:href="#zoomMin" x="42" y="9" onmousedown="handleZoom(evt,'out')"/>
                <use id="reset" xlink:href="#resetDef" x="30" y="36" onmousedown="handleReset()"/>
                <g id="arrowUp" xlink:href="#dirArrow" transform="translate(30 24)" onmousedown="handlePan(0,-1)">
                  <use xlink:href="#rim" fill="#404040">
                        <set attributeName="fill" to="#808080" begin="arrowUp.mouseover" end="arrowUp.mouseout"/>
                  </use>
                  <path fill="none" stroke="white" stroke-width="1.5" d="M0,-3.0v7 M-2.5,-0.5L0,-3.0L2.5,-0.5"/>
                </g>
                <g id="arrowRight" xlink:href="#dirArrow" transform="rotate(90) translate(36 -43)" onmousedown="handlePan(1,0)">
                  <use xlink:href="#rim" fill="#404040">
                        <set attributeName="fill" to="#808080" begin="arrowRight.mouseover" end="arrowRight.mouseout"/>
                  </use>
                  <path fill="none" stroke="white" stroke-width="1.5" d="M0,-3.0v7 M-2.5,-0.5L0,-3.0L2.5,-0.5"/>
                </g>
                <g id="arrowDown" xlink:href="#dirArrow" transform="rotate(180) translate(-30 -48)" onmousedown="handlePan(0,1)">
                  <use xlink:href="#rim" fill="#404040">
                        <set attributeName="fill" to="#808080" begin="arrowDown.mouseover" end="arrowDown.mouseout"/>
                  </use>
                  <path fill="none" stroke="white" stroke-width="1.5" d="M0,-3.0v7 M-2.5,-0.5L0,-3.0L2.5,-0.5"/>
                </g>
                <g id="arrowLeft" xlink:href="#dirArrow" transform="rotate(270) translate(-36 17)" onmousedown="handlePan(-1,0)">
                  <use xlink:href="#rim" fill="#404040">
                        <set attributeName="fill" to="#808080" begin="arrowLeft.mouseover" end="arrowLeft.mouseout"/>
                  </use>
                  <path fill="none" stroke="white" stroke-width="1.5" d="M0,-3.0v7 M-2.5,-0.5L0,-3.0L2.5,-0.5"/>
                </g>
        </g>
        <svg viewBox="0 0 15 15" width="100%" height="30px" preserveAspectRatio="xMaxYMin meet">
         <g id="arrow_out" transform="scale(0.3 0.3)">
          <a xlink:href="class_start_tile_script__inherit__graph_org.svg" target="_base">
           <rect id="button" ry="5" rx="5" y="6" x="6" height="38" width="38"
                fill="#f2f5e9" fill-opacity="0.5" stroke="#606060" stroke-width="1.0"/>
           <path id="arrow"
             d="M 11.500037,31.436501 C 11.940474,20.09759 22.043105,11.32322 32.158766,21.979434 L 37.068811,17.246167 C 37.068811,17.246167 37.088388,32 37.088388,32 L 22.160133,31.978069 C 22.160133,31.978069 26.997745,27.140456 26.997745,27.140456 C 18.528582,18.264221 13.291696,25.230495 11.500037,31.436501 z"
             style="fill:#404040;"/>
          </a>
         </g>
        </svg>
</svg>
