<?xml version="1.0" encoding="UTF-8" standalone="no"?>
<!DOCTYPE svg PUBLIC "-//W3C//DTD SVG 1.1//EN"
 "http://www.w3.org/Graphics/SVG/1.1/DTD/svg11.dtd">
<!-- Generated by graphviz version 2.47.1 (20210417.1919)
 -->
<!-- Title: Die.CanResetDie Pages: 1 -->
<svg width="2169pt" height="279pt"
 viewBox="0.00 0.00 2169.00 279.00" xmlns="http://www.w3.org/2000/svg" xmlns:xlink="http://www.w3.org/1999/xlink">
<g id="graph0" class="graph" transform="scale(1 1) rotate(0) translate(4 275)">
<title>Die.CanResetDie</title>
<polygon fill="white" stroke="transparent" points="-4,4 -4,-275 2165,-275 2165,4 -4,4"/>
<!-- Node1 -->
<g id="node1" class="node">
<title>Node1</title>
<g id="a_node1"><a xlink:title="Can the die be reset">
<polygon fill="#bfbfbf" stroke="black" points="2051,-140.5 2051,-161.5 2161,-161.5 2161,-140.5 2051,-140.5"/>
<text text-anchor="middle" x="2106" y="-147.9" font-family="Helvetica,sans-Serif" font-size="12.00">Die.CanResetDie</text>
</a>
</g>
</g>
<!-- Node2 -->
<g id="node2" class="node">
<title>Node2</title>
<g id="a_node2"><a xlink:href="class_dice.html#ace4c995eb73b784d1076fde140ce85af" target="_top" xlink:title="Can Dice be reset">
<polygon fill="white" stroke="black" points="1918,-140.5 1918,-161.5 2015,-161.5 2015,-140.5 1918,-140.5"/>
<text text-anchor="middle" x="1966.5" y="-147.9" font-family="Helvetica,sans-Serif" font-size="12.00">Dice.CanReset</text>
</a>
</g>
</g>
<!-- Node1&#45;&gt;Node2 -->
<g id="edge1" class="edge">
<title>Node1&#45;&gt;Node2</title>
<path fill="none" stroke="midnightblue" d="M2040.39,-151C2031.91,-151 2023.35,-151 2015.22,-151"/>
<polygon fill="midnightblue" stroke="midnightblue" points="2040.66,-154.5 2050.66,-151 2040.66,-147.5 2040.66,-154.5"/>
</g>
<!-- Node3 -->
<g id="node3" class="node">
<title>Node3</title>
<g id="a_node3"><a xlink:href="class_player_movement_test_script.html#a1c247cfdee35d3a1c1d3a81fd579b426" target="_top" xlink:title=" ">
<polygon fill="white" stroke="black" points="1467,-240.5 1467,-261.5 1694,-261.5 1694,-240.5 1467,-240.5"/>
<text text-anchor="middle" x="1580.5" y="-247.9" font-family="Helvetica,sans-Serif" font-size="12.00">PlayerMovementTestScript.FixedUpdate</text>
</a>
</g>
</g>
<!-- Node2&#45;&gt;Node3 -->
<g id="edge2" class="edge">
<title>Node2&#45;&gt;Node3</title>
<path fill="none" stroke="midnightblue" d="M1924.35,-164.67C1871.49,-181.88 1776.68,-211.53 1694,-231 1679.13,-234.5 1663.03,-237.71 1647.78,-240.47"/>
<polygon fill="midnightblue" stroke="midnightblue" points="1925.62,-167.94 1934.04,-161.51 1923.44,-161.29 1925.62,-167.94"/>
</g>
<!-- Node4 -->
<g id="node4" class="node">
<title>Node4</title>
<g id="a_node4"><a xlink:href="class_dice.html#ade1dc529eeb31f31e668c595c5748e67" target="_top" xlink:title="Reset the dice">
<polygon fill="white" stroke="black" points="1756,-140.5 1756,-161.5 1856,-161.5 1856,-140.5 1756,-140.5"/>
<text text-anchor="middle" x="1806" y="-147.9" font-family="Helvetica,sans-Serif" font-size="12.00">Dice.ResetDice</text>
</a>
</g>
</g>
<!-- Node2&#45;&gt;Node4 -->
<g id="edge3" class="edge">
<title>Node2&#45;&gt;Node4</title>
<path fill="none" stroke="midnightblue" d="M1907.64,-151C1890.75,-151 1872.47,-151 1856.17,-151"/>
<polygon fill="midnightblue" stroke="midnightblue" points="1907.94,-154.5 1917.94,-151 1907.94,-147.5 1907.94,-154.5"/>
</g>
<!-- Node28 -->
<g id="node28" class="node">
<title>Node28</title>
<g id="a_node28"><a xlink:href="class_display_dice_value.html#a0f0f2e5d5a2ecc6e8530c82f897f5dba" target="_top" xlink:title="Set button interactable and update dice value text">
<polygon fill="white" stroke="black" points="1730,-100.5 1730,-121.5 1882,-121.5 1882,-100.5 1730,-100.5"/>
<text text-anchor="middle" x="1806" y="-107.9" font-family="Helvetica,sans-Serif" font-size="12.00">DisplayDiceValue.Update</text>
</a>
</g>
</g>
<!-- Node2&#45;&gt;Node28 -->
<g id="edge30" class="edge">
<title>Node2&#45;&gt;Node28</title>
<path fill="none" stroke="midnightblue" d="M1914.05,-138.02C1892.88,-132.67 1868.67,-126.56 1848.64,-121.51"/>
<polygon fill="midnightblue" stroke="midnightblue" points="1913.3,-141.44 1923.86,-140.49 1915.02,-134.65 1913.3,-141.44"/>
</g>
<!-- Node4&#45;&gt;Node3 -->
<g id="edge28" class="edge">
<title>Node4&#45;&gt;Node3</title>
<path fill="none" stroke="midnightblue" d="M1782.32,-167.74C1751.3,-190.57 1698.9,-228.93 1694,-231 1684.87,-234.86 1675.01,-237.98 1665.06,-240.5"/>
<polygon fill="midnightblue" stroke="midnightblue" points="1784.48,-170.5 1790.45,-161.75 1780.32,-164.86 1784.48,-170.5"/>
</g>
<!-- Node5 -->
<g id="node5" class="node">
<title>Node5</title>
<g id="a_node5"><a xlink:href="class_round_manager.html#a5cfea3b56a7576ad02c82c27bb0c6ba7" target="_top" xlink:title="reset the dice after a time delay">
<polygon fill="white" stroke="black" points="1488,-200.5 1488,-221.5 1673,-221.5 1673,-200.5 1488,-200.5"/>
<text text-anchor="middle" x="1580.5" y="-207.9" font-family="Helvetica,sans-Serif" font-size="12.00">RoundManager.DelayResetDice</text>
</a>
</g>
</g>
<!-- Node4&#45;&gt;Node5 -->
<g id="edge4" class="edge">
<title>Node4&#45;&gt;Node5</title>
<path fill="none" stroke="midnightblue" d="M1769.97,-165.36C1748.36,-173.77 1719.91,-184.08 1694,-191 1680.39,-194.63 1665.68,-197.79 1651.52,-200.45"/>
<polygon fill="midnightblue" stroke="midnightblue" points="1771.36,-168.57 1779.38,-161.64 1768.79,-162.06 1771.36,-168.57"/>
</g>
<!-- Node17 -->
<g id="node17" class="node">
<title>Node17</title>
<g id="a_node17"><a xlink:href="class_anson_test_script.html#a2e10fa1d66e999b57d36fd2525ad03e5" target="_top" xlink:title=" ">
<polygon fill="white" stroke="black" points="1485,-160.5 1485,-181.5 1676,-181.5 1676,-160.5 1485,-160.5"/>
<text text-anchor="middle" x="1580.5" y="-167.9" font-family="Helvetica,sans-Serif" font-size="12.00">AnsonTestScript.DelayResetDice</text>
</a>
</g>
</g>
<!-- Node4&#45;&gt;Node17 -->
<g id="edge17" class="edge">
<title>Node4&#45;&gt;Node17</title>
<path fill="none" stroke="midnightblue" d="M1745.78,-156.3C1724.49,-158.2 1699.91,-160.4 1676.35,-162.51"/>
<polygon fill="midnightblue" stroke="midnightblue" points="1746.3,-159.77 1755.95,-155.39 1745.68,-152.79 1746.3,-159.77"/>
</g>
<!-- Node20 -->
<g id="node20" class="node">
<title>Node20</title>
<g id="a_node20"><a xlink:href="class_round_manager.html#acf674cdec523de9a0f91ab8a7bfcc2ef" target="_top" xlink:title="for waiting the dice to be rolled, get it&#39;s results and display where the player can move to">
<polygon fill="white" stroke="black" points="1492,-120.5 1492,-141.5 1669,-141.5 1669,-120.5 1492,-120.5"/>
<text text-anchor="middle" x="1580.5" y="-127.9" font-family="Helvetica,sans-Serif" font-size="12.00">RoundManager.DiceBehaviour</text>
</a>
</g>
</g>
<!-- Node4&#45;&gt;Node20 -->
<g id="edge20" class="edge">
<title>Node4&#45;&gt;Node20</title>
<path fill="none" stroke="midnightblue" d="M1745.81,-145.7C1722.34,-143.6 1694.85,-141.14 1669.15,-138.84"/>
<polygon fill="midnightblue" stroke="midnightblue" points="1745.68,-149.21 1755.95,-146.61 1746.3,-142.23 1745.68,-149.21"/>
</g>
<!-- Node22 -->
<g id="node22" class="node">
<title>Node22</title>
<g id="a_node22"><a xlink:href="class_round_manager.html#a29177f2e27c6c4af55dfa3c48d67cfb0" target="_top" xlink:title="Ending the turn. Returns the next player">
<polygon fill="white" stroke="black" points="1509,-80.5 1509,-101.5 1652,-101.5 1652,-80.5 1509,-80.5"/>
<text text-anchor="middle" x="1580.5" y="-87.9" font-family="Helvetica,sans-Serif" font-size="12.00">RoundManager.EndTurn</text>
</a>
</g>
</g>
<!-- Node4&#45;&gt;Node22 -->
<g id="edge22" class="edge">
<title>Node4&#45;&gt;Node22</title>
<path fill="none" stroke="midnightblue" d="M1748.5,-137.55C1742.18,-135.57 1735.9,-133.38 1730,-131 1713.03,-124.15 1711.25,-117.13 1694,-111 1680.73,-106.28 1666.17,-102.64 1652.05,-99.85"/>
<polygon fill="midnightblue" stroke="midnightblue" points="1747.82,-141 1758.4,-140.49 1749.81,-134.29 1747.82,-141"/>
</g>
<!-- Node26 -->
<g id="node26" class="node">
<title>Node26</title>
<g id="a_node26"><a xlink:href="class_anson_test_script.html#a445d27a921ade2f0e76054a3b7cc4245" target="_top" xlink:title=" ">
<polygon fill="white" stroke="black" points="1494,-40.5 1494,-61.5 1667,-61.5 1667,-40.5 1494,-40.5"/>
<text text-anchor="middle" x="1580.5" y="-47.9" font-family="Helvetica,sans-Serif" font-size="12.00">AnsonTestScript.FixedUpdate</text>
</a>
</g>
</g>
<!-- Node4&#45;&gt;Node26 -->
<g id="edge27" class="edge">
<title>Node4&#45;&gt;Node26</title>
<path fill="none" stroke="midnightblue" d="M1745.95,-140.05C1740.26,-137.61 1734.83,-134.64 1730,-131 1705.16,-112.29 1719.61,-88.64 1694,-71 1685.91,-65.43 1676.75,-61.27 1667.22,-58.17"/>
<polygon fill="midnightblue" stroke="midnightblue" points="1745.1,-143.46 1755.69,-143.66 1747.53,-136.9 1745.1,-143.46"/>
</g>
<!-- Node27 -->
<g id="node27" class="node">
<title>Node27</title>
<g id="a_node27"><a xlink:href="class_player_movement_test_script.html#a1f9e6f5902a9ba827538f3325227917c" target="_top" xlink:title=" ">
<polygon fill="white" stroke="black" points="1473,-0.5 1473,-21.5 1688,-21.5 1688,-0.5 1473,-0.5"/>
<text text-anchor="middle" x="1580.5" y="-7.9" font-family="Helvetica,sans-Serif" font-size="12.00">PlayerMovementTestScript.ResetDice</text>
</a>
</g>
</g>
<!-- Node4&#45;&gt;Node27 -->
<g id="edge29" class="edge">
<title>Node4&#45;&gt;Node27</title>
<path fill="none" stroke="midnightblue" d="M1746.32,-141.5C1740.36,-138.8 1734.75,-135.37 1730,-131 1695.21,-99.05 1730.11,-61.45 1694,-31 1689.6,-27.29 1684.76,-24.17 1679.62,-21.54"/>
<polygon fill="midnightblue" stroke="midnightblue" points="1745.33,-144.86 1755.92,-145.15 1747.82,-138.32 1745.33,-144.86"/>
</g>
<!-- Node6 -->
<g id="node6" class="node">
<title>Node6</title>
<g id="a_node6"><a xlink:href="class_round_manager.html#ab795c17242b95ab2cef508da5daa2593" target="_top" xlink:title="Rolls dice, will not roll if the player has rolled aready. Pass true to forcfully roll it">
<polygon fill="white" stroke="black" points="1275.5,-200.5 1275.5,-221.5 1419.5,-221.5 1419.5,-200.5 1275.5,-200.5"/>
<text text-anchor="middle" x="1347.5" y="-207.9" font-family="Helvetica,sans-Serif" font-size="12.00">RoundManager.RollDice</text>
</a>
</g>
</g>
<!-- Node5&#45;&gt;Node6 -->
<g id="edge5" class="edge">
<title>Node5&#45;&gt;Node6</title>
<path fill="none" stroke="midnightblue" d="M1477.7,-211C1458.14,-211 1438.04,-211 1419.7,-211"/>
<polygon fill="midnightblue" stroke="midnightblue" points="1477.87,-214.5 1487.87,-211 1477.87,-207.5 1477.87,-214.5"/>
</g>
<!-- Node7 -->
<g id="node7" class="node">
<title>Node7</title>
<g id="a_node7"><a xlink:href="class_round_manager.html#a8d52738f26bc5b5eea98f8e3dd213744" target="_top" xlink:title="roll dice after a delay time, used for free roll tile">
<polygon fill="white" stroke="black" points="1079,-239.5 1079,-260.5 1228,-260.5 1228,-239.5 1079,-239.5"/>
<text text-anchor="middle" x="1153.5" y="-246.9" font-family="Helvetica,sans-Serif" font-size="12.00">RoundManager.DelayRoll</text>
</a>
</g>
</g>
<!-- Node6&#45;&gt;Node7 -->
<g id="edge6" class="edge">
<title>Node6&#45;&gt;Node7</title>
<path fill="none" stroke="midnightblue" d="M1284.92,-223.51C1259.57,-228.66 1230.53,-234.56 1206.3,-239.48"/>
<polygon fill="midnightblue" stroke="midnightblue" points="1285.69,-226.92 1294.79,-221.5 1284.3,-220.06 1285.69,-226.92"/>
</g>
<!-- Node14 -->
<g id="node14" class="node">
<title>Node14</title>
<g id="a_node14"><a xlink:href="class_user_controller.html#aee97f82bdda647a5e3761666a3d46552" target="_top" xlink:title="Rolls the dice">
<polygon fill="white" stroke="black" points="1084,-199.5 1084,-220.5 1223,-220.5 1223,-199.5 1084,-199.5"/>
<text text-anchor="middle" x="1153.5" y="-206.9" font-family="Helvetica,sans-Serif" font-size="12.00">UserController.RollDice</text>
</a>
</g>
</g>
<!-- Node6&#45;&gt;Node14 -->
<g id="edge13" class="edge">
<title>Node6&#45;&gt;Node14</title>
<path fill="none" stroke="midnightblue" d="M1265.16,-210.58C1251.14,-210.5 1236.69,-210.43 1223.05,-210.36"/>
<polygon fill="midnightblue" stroke="midnightblue" points="1265.26,-214.08 1275.28,-210.63 1265.3,-207.08 1265.26,-214.08"/>
</g>
<!-- Node8 -->
<g id="node8" class="node">
<title>Node8</title>
<g id="a_node8"><a xlink:href="class_round_manager.html#adfd4f66436e06c12a25c9236b629f369" target="_top" xlink:title="moving the current player to the selected tile">
<polygon fill="white" stroke="black" points="882,-239.5 882,-260.5 1043,-260.5 1043,-239.5 882,-239.5"/>
<text text-anchor="middle" x="962.5" y="-246.9" font-family="Helvetica,sans-Serif" font-size="12.00">RoundManager.MovePlayer</text>
</a>
</g>
</g>
<!-- Node7&#45;&gt;Node8 -->
<g id="edge7" class="edge">
<title>Node7&#45;&gt;Node8</title>
<path fill="none" stroke="midnightblue" d="M1068.64,-250C1060.17,-250 1051.59,-250 1043.17,-250"/>
<polygon fill="midnightblue" stroke="midnightblue" points="1068.89,-253.5 1078.89,-250 1068.89,-246.5 1068.89,-253.5"/>
</g>
<!-- Node9 -->
<g id="node9" class="node">
<title>Node9</title>
<g id="a_node9"><a xlink:href="class_user_controller.html#af896aefe0262e0d8f07fa5f18592877d" target="_top" xlink:title="Selects a tile for player movement">
<polygon fill="white" stroke="black" points="695.5,-239.5 695.5,-260.5 841.5,-260.5 841.5,-239.5 695.5,-239.5"/>
<text text-anchor="middle" x="768.5" y="-246.9" font-family="Helvetica,sans-Serif" font-size="12.00">UserController.SelectTile</text>
</a>
</g>
</g>
<!-- Node8&#45;&gt;Node9 -->
<g id="edge8" class="edge">
<title>Node8&#45;&gt;Node9</title>
<path fill="none" stroke="midnightblue" d="M871.71,-250C861.63,-250 851.46,-250 841.65,-250"/>
<polygon fill="midnightblue" stroke="midnightblue" points="871.74,-253.5 881.74,-250 871.74,-246.5 871.74,-253.5"/>
</g>
<!-- Node10 -->
<g id="node10" class="node">
<title>Node10</title>
<g id="a_node10"><a xlink:href="class_a_i_controller_script.html#af04897fa0ae4ed5e472dea79bce8d7df" target="_top" xlink:title="Decides where the AI should move to this should match the flow chart of the AI">
<polygon fill="white" stroke="black" points="435,-249.5 435,-270.5 645,-270.5 645,-249.5 435,-249.5"/>
<text text-anchor="middle" x="540" y="-256.9" font-family="Helvetica,sans-Serif" font-size="12.00">AIControllerScript.Decide_Movement</text>
</a>
</g>
</g>
<!-- Node9&#45;&gt;Node10 -->
<g id="edge9" class="edge">
<title>Node9&#45;&gt;Node10</title>
<path fill="none" stroke="midnightblue" d="M684.98,-253.64C672.05,-254.21 658.55,-254.81 645.21,-255.4"/>
<polygon fill="midnightblue" stroke="midnightblue" points="685.38,-257.13 695.21,-253.19 685.07,-250.14 685.38,-257.13"/>
</g>
<!-- Node13 -->
<g id="node13" class="node">
<title>Node13</title>
<g id="a_node13"><a xlink:href="class_user_input_control_script.html#a13be570929e27dad6d3d452ccd5f52eb" target="_top" xlink:title="move player token to the tile the cursor is on">
<polygon fill="white" stroke="black" points="425,-209.5 425,-230.5 655,-230.5 655,-209.5 425,-209.5"/>
<text text-anchor="middle" x="540" y="-216.9" font-family="Helvetica,sans-Serif" font-size="12.00">UserInputControlScript.MovePlayerToken</text>
</a>
</g>
</g>
<!-- Node9&#45;&gt;Node13 -->
<g id="edge12" class="edge">
<title>Node9&#45;&gt;Node13</title>
<path fill="none" stroke="midnightblue" d="M685.3,-239.11C664.15,-236.31 641.45,-233.3 620.45,-230.52"/>
<polygon fill="midnightblue" stroke="midnightblue" points="684.84,-242.58 695.21,-240.43 685.76,-235.64 684.84,-242.58"/>
</g>
<!-- Node11 -->
<g id="node11" class="node">
<title>Node11</title>
<g id="a_node11"><a xlink:href="class_a_i_controller_script.html#ac31d9b8dbb75696b181eff1fbef41b97" target="_top" xlink:title="dictates what the AI will do depending on what mode it is in">
<polygon fill="white" stroke="black" points="215,-170.5 215,-191.5 389,-191.5 389,-170.5 215,-170.5"/>
<text text-anchor="middle" x="302" y="-177.9" font-family="Helvetica,sans-Serif" font-size="12.00">AIControllerScript.AIBehaviour</text>
</a>
</g>
</g>
<!-- Node10&#45;&gt;Node11 -->
<g id="edge10" class="edge">
<title>Node10&#45;&gt;Node11</title>
<path fill="none" stroke="midnightblue" d="M451.97,-247.32C442.77,-245.21 433.64,-242.79 425,-240 386.26,-227.5 344.17,-204.95 320.94,-191.64"/>
<polygon fill="midnightblue" stroke="midnightblue" points="451.43,-250.78 461.94,-249.48 452.91,-243.94 451.43,-250.78"/>
</g>
<!-- Node12 -->
<g id="node12" class="node">
<title>Node12</title>
<g id="a_node12"><a xlink:href="class_a_i_controller_script.html#a74dc0e720fafceb873d3b19c12f68d58" target="_top" xlink:title=" ">
<polygon fill="white" stroke="black" points="0,-170.5 0,-191.5 179,-191.5 179,-170.5 0,-170.5"/>
<text text-anchor="middle" x="89.5" y="-177.9" font-family="Helvetica,sans-Serif" font-size="12.00">AIControllerScript.FixedUpdate</text>
</a>
</g>
</g>
<!-- Node11&#45;&gt;Node12 -->
<g id="edge11" class="edge">
<title>Node11&#45;&gt;Node12</title>
<path fill="none" stroke="midnightblue" d="M204.57,-181C196.15,-181 187.67,-181 179.32,-181"/>
<polygon fill="midnightblue" stroke="midnightblue" points="204.77,-184.5 214.77,-181 204.77,-177.5 204.77,-184.5"/>
</g>
<!-- Node15 -->
<g id="node15" class="node">
<title>Node15</title>
<g id="a_node15"><a xlink:href="class_a_i_controller_script.html#a1584ffc08f2ea88236ad6df47319636b" target="_top" xlink:title="have AI to roll">
<polygon fill="white" stroke="black" points="691,-190.5 691,-211.5 846,-211.5 846,-190.5 691,-190.5"/>
<text text-anchor="middle" x="768.5" y="-197.9" font-family="Helvetica,sans-Serif" font-size="12.00">AIControllerScript.RollDice</text>
</a>
</g>
</g>
<!-- Node14&#45;&gt;Node15 -->
<g id="edge14" class="edge">
<title>Node14&#45;&gt;Node15</title>
<path fill="none" stroke="midnightblue" d="M1073.55,-208.14C1006.9,-206.58 912.05,-204.35 846.08,-202.8"/>
<polygon fill="midnightblue" stroke="midnightblue" points="1073.51,-211.64 1083.58,-208.38 1073.67,-204.65 1073.51,-211.64"/>
</g>
<!-- Node16 -->
<g id="node16" class="node">
<title>Node16</title>
<g id="a_node16"><a xlink:href="class_u_i_handler.html#ac40571820fefd3233236883c01522fa1" target="_top" xlink:title="Rolls dice when the button is pressed">
<polygon fill="white" stroke="black" points="888.5,-160.5 888.5,-181.5 1036.5,-181.5 1036.5,-160.5 888.5,-160.5"/>
<text text-anchor="middle" x="962.5" y="-167.9" font-family="Helvetica,sans-Serif" font-size="12.00">UIHandler.RollDiceButton</text>
</a>
</g>
</g>
<!-- Node14&#45;&gt;Node16 -->
<g id="edge16" class="edge">
<title>Node14&#45;&gt;Node16</title>
<path fill="none" stroke="midnightblue" d="M1091.34,-197.38C1066.59,-192.27 1038.33,-186.44 1014.69,-181.56"/>
<polygon fill="midnightblue" stroke="midnightblue" points="1090.85,-200.85 1101.35,-199.45 1092.27,-194 1090.85,-200.85"/>
</g>
<!-- Node15&#45;&gt;Node11 -->
<g id="edge15" class="edge">
<title>Node15&#45;&gt;Node11</title>
<path fill="none" stroke="midnightblue" d="M680.6,-197.26C597.33,-193.67 472.37,-188.29 389.3,-184.72"/>
<polygon fill="midnightblue" stroke="midnightblue" points="680.66,-200.76 690.8,-197.7 680.96,-193.77 680.66,-200.76"/>
</g>
<!-- Node18 -->
<g id="node18" class="node">
<title>Node18</title>
<g id="a_node18"><a xlink:href="class_anson_test_script.html#a88d84c041cb91d2f739270581d59d7e9" target="_top" xlink:title=" ">
<polygon fill="white" stroke="black" points="1275.5,-160.5 1275.5,-181.5 1419.5,-181.5 1419.5,-160.5 1275.5,-160.5"/>
<text text-anchor="middle" x="1347.5" y="-167.9" font-family="Helvetica,sans-Serif" font-size="12.00">AnsonTestScript.RollDie</text>
</a>
</g>
</g>
<!-- Node17&#45;&gt;Node18 -->
<g id="edge18" class="edge">
<title>Node17&#45;&gt;Node18</title>
<path fill="none" stroke="midnightblue" d="M1474.85,-171C1456.17,-171 1437.1,-171 1419.63,-171"/>
<polygon fill="midnightblue" stroke="midnightblue" points="1474.88,-174.5 1484.88,-171 1474.88,-167.5 1474.88,-174.5"/>
</g>
<!-- Node19 -->
<g id="node19" class="node">
<title>Node19</title>
<g id="a_node19"><a xlink:href="class_anson_test_script.html#a89ed8bb63ce2a8c4631e2dc3d9301e38" target="_top" xlink:title=" ">
<polygon fill="white" stroke="black" points="1081.5,-159.5 1081.5,-180.5 1225.5,-180.5 1225.5,-159.5 1081.5,-159.5"/>
<text text-anchor="middle" x="1153.5" y="-166.9" font-family="Helvetica,sans-Serif" font-size="12.00">AnsonTestScript.RollDie</text>
</a>
</g>
</g>
<!-- Node18&#45;&gt;Node19 -->
<g id="edge19" class="edge">
<title>Node18&#45;&gt;Node19</title>
<path fill="none" stroke="midnightblue" d="M1264.9,-170.57C1251.83,-170.51 1238.4,-170.44 1225.61,-170.37"/>
<polygon fill="midnightblue" stroke="midnightblue" points="1265.26,-174.08 1275.28,-170.63 1265.3,-167.08 1265.26,-174.08"/>
</g>
<!-- Node21 -->
<g id="node21" class="node">
<title>Node21</title>
<g id="a_node21"><a xlink:href="class_round_manager.html#abb654bc0114fc67d455ed6449d5bda22" target="_top" xlink:title=" ">
<polygon fill="white" stroke="black" points="1264,-120.5 1264,-141.5 1431,-141.5 1431,-120.5 1264,-120.5"/>
<text text-anchor="middle" x="1347.5" y="-127.9" font-family="Helvetica,sans-Serif" font-size="12.00">RoundManager.FixedUpdate</text>
</a>
</g>
</g>
<!-- Node20&#45;&gt;Node21 -->
<g id="edge21" class="edge">
<title>Node20&#45;&gt;Node21</title>
<path fill="none" stroke="midnightblue" d="M1481.48,-131C1464.72,-131 1447.46,-131 1431.15,-131"/>
<polygon fill="midnightblue" stroke="midnightblue" points="1481.84,-134.5 1491.84,-131 1481.84,-127.5 1481.84,-134.5"/>
</g>
<!-- Node23 -->
<g id="node23" class="node">
<title>Node23</title>
<g id="a_node23"><a xlink:href="class_user_controller.html#ab90611f541e20c125133d09b62407f41" target="_top" xlink:title="Ends turn">
<polygon fill="white" stroke="black" points="1278.5,-80.5 1278.5,-101.5 1416.5,-101.5 1416.5,-80.5 1278.5,-80.5"/>
<text text-anchor="middle" x="1347.5" y="-87.9" font-family="Helvetica,sans-Serif" font-size="12.00">UserController.EndTurn</text>
</a>
</g>
</g>
<!-- Node22&#45;&gt;Node23 -->
<g id="edge23" class="edge">
<title>Node22&#45;&gt;Node23</title>
<path fill="none" stroke="midnightblue" d="M1498.81,-91C1472,-91 1442.42,-91 1416.65,-91"/>
<polygon fill="midnightblue" stroke="midnightblue" points="1498.94,-94.5 1508.94,-91 1498.94,-87.5 1498.94,-94.5"/>
</g>
<!-- Node24 -->
<g id="node24" class="node">
<title>Node24</title>
<g id="a_node24"><a xlink:href="class_a_i_controller_script.html#a9c386cf1258ad897c9a1068804f07ba0" target="_top" xlink:title="have AI to end turn">
<polygon fill="white" stroke="black" points="691,-131.5 691,-152.5 846,-152.5 846,-131.5 691,-131.5"/>
<text text-anchor="middle" x="768.5" y="-138.9" font-family="Helvetica,sans-Serif" font-size="12.00">AIControllerScript.EndTurn</text>
</a>
</g>
</g>
<!-- Node23&#45;&gt;Node24 -->
<g id="edge24" class="edge">
<title>Node23&#45;&gt;Node24</title>
<path fill="none" stroke="midnightblue" d="M1281.22,-103.22C1263.97,-106.12 1245.32,-108.96 1228,-111 1094.29,-126.76 937.63,-135.22 846.38,-139.15"/>
<polygon fill="midnightblue" stroke="midnightblue" points="1281.94,-106.65 1291.2,-101.51 1280.75,-99.75 1281.94,-106.65"/>
</g>
<!-- Node25 -->
<g id="node25" class="node">
<title>Node25</title>
<g id="a_node25"><a xlink:href="class_u_i_handler.html#acc06a1dab8566d9e14f7ab3ae1ffea93" target="_top" xlink:title="Ends current player&#39;s turn">
<polygon fill="white" stroke="black" points="1096.5,-80.5 1096.5,-101.5 1210.5,-101.5 1210.5,-80.5 1096.5,-80.5"/>
<text text-anchor="middle" x="1153.5" y="-87.9" font-family="Helvetica,sans-Serif" font-size="12.00">UIHandler.EndTurn</text>
</a>
</g>
</g>
<!-- Node23&#45;&gt;Node25 -->
<g id="edge26" class="edge">
<title>Node23&#45;&gt;Node25</title>
<path fill="none" stroke="midnightblue" d="M1268.04,-91C1248.86,-91 1228.71,-91 1210.8,-91"/>
<polygon fill="midnightblue" stroke="midnightblue" points="1268.27,-94.5 1278.27,-91 1268.27,-87.5 1268.27,-94.5"/>
</g>
<!-- Node24&#45;&gt;Node11 -->
<g id="edge25" class="edge">
<title>Node24&#45;&gt;Node11</title>
<path fill="none" stroke="midnightblue" d="M680.6,-149.3C597.33,-156.29 472.37,-166.78 389.3,-173.75"/>
<polygon fill="midnightblue" stroke="midnightblue" points="681.13,-152.76 690.8,-148.44 680.54,-145.79 681.13,-152.76"/>
</g>
</g>
</svg>
