<?xml version="1.0" encoding="UTF-8" standalone="no"?>
<!DOCTYPE svg PUBLIC "-//W3C//DTD SVG 1.1//EN"
 "http://www.w3.org/Graphics/SVG/1.1/DTD/svg11.dtd">
<!-- Generated by graphviz version 2.47.1 (20210417.1919)
 -->
<!-- Title: AIControllerScript.IsTokenMoving Pages: 1 -->
<svg width="647pt" height="30pt"
 viewBox="0.00 0.00 647.00 30.00" xmlns="http://www.w3.org/2000/svg" xmlns:xlink="http://www.w3.org/1999/xlink">
<g id="graph0" class="graph" transform="scale(1 1) rotate(0) translate(4 26)">
<title>AIControllerScript.IsTokenMoving</title>
<polygon fill="white" stroke="transparent" points="-4,4 -4,-26 643,-26 643,4 -4,4"/>
<!-- Node1 -->
<g id="node1" class="node">
<title>Node1</title>
<g id="a_node1"><a xlink:title="check if the player token is still moving">
<polygon fill="#bfbfbf" stroke="black" points="0,-0.5 0,-21.5 189,-21.5 189,-0.5 0,-0.5"/>
<text text-anchor="middle" x="94.5" y="-7.9" font-family="Helvetica,sans-Serif" font-size="12.00">AIControllerScript.IsTokenMoving</text>
</a>
</g>
</g>
<!-- Node2 -->
<g id="node2" class="node">
<title>Node2</title>
<g id="a_node2"><a xlink:href="class_player_master_controller.html#a4270ffe6f17cefe9bb15c82c74678603" target="_top" xlink:title="check if the player token is still moving. returns true if the token is moving to a new tile or if th...">
<polygon fill="white" stroke="black" points="225,-0.5 225,-21.5 410,-21.5 410,-0.5 225,-0.5"/>
<text text-anchor="middle" x="317.5" y="-7.9" font-family="Helvetica,sans-Serif" font-size="12.00">PlayerMasterController.IsMoving</text>
</a>
</g>
</g>
<!-- Node1&#45;&gt;Node2 -->
<g id="edge1" class="edge">
<title>Node1&#45;&gt;Node2</title>
<path fill="none" stroke="midnightblue" d="M189.22,-11C197.59,-11 206.08,-11 214.51,-11"/>
<polygon fill="midnightblue" stroke="midnightblue" points="214.75,-14.5 224.75,-11 214.75,-7.5 214.75,-14.5"/>
</g>
<!-- Node3 -->
<g id="node3" class="node">
<title>Node3</title>
<g id="a_node3"><a xlink:href="class_player_token_script.html#ab8ef1ce338d767546b917f7f9ae2fadf" target="_top" xlink:title=" ">
<polygon fill="white" stroke="black" points="446,-0.5 446,-21.5 639,-21.5 639,-0.5 446,-0.5"/>
<text text-anchor="middle" x="542.5" y="-7.9" font-family="Helvetica,sans-Serif" font-size="12.00">PlayerTokenScript.IsMovingRoom</text>
</a>
</g>
</g>
<!-- Node2&#45;&gt;Node3 -->
<g id="edge2" class="edge">
<title>Node2&#45;&gt;Node3</title>
<path fill="none" stroke="midnightblue" d="M410.17,-11C418.63,-11 427.25,-11 435.82,-11"/>
<polygon fill="midnightblue" stroke="midnightblue" points="435.85,-14.5 445.85,-11 435.85,-7.5 435.85,-14.5"/>
</g>
</g>
</svg>
