<?xml version="1.0" encoding="UTF-8" standalone="no"?>
<!DOCTYPE svg PUBLIC "-//W3C//DTD SVG 1.1//EN"
 "http://www.w3.org/Graphics/SVG/1.1/DTD/svg11.dtd">
<!-- Generated by graphviz version 2.47.1 (20210417.1919)
 -->
<!-- Title: UIHandler.DisplayViewBlocker Pages: 1 -->
<!--zoomable 232 -->
<svg id="main" version="1.1" xmlns="http://www.w3.org/2000/svg" xmlns:xlink="http://www.w3.org/1999/xlink" xml:space="preserve" onload="init(evt)">
<style type="text/css"><![CDATA[
.edge:hover path { stroke: red; }
.edge:hover polygon { stroke: red; fill: red; }
]]></style>
<script type="text/javascript"><![CDATA[
var edges = document.getElementsByTagName('g');
if (edges && edges.length) {
  for (var i=0;i<edges.length;i++) {
    if (edges[i].id.substr(0,4)=='edge') {
      edges[i].setAttribute('class','edge');
    }
  }
}
]]></script>
        <defs>
                <circle id="rim" cx="0" cy="0" r="7"/>
                <circle id="rim2" cx="0" cy="0" r="3.5"/>
                <g id="zoomPlus">
                        <use xlink:href="#rim" fill="#404040">
                                <set attributeName="fill" to="#808080" begin="zoomplus.mouseover" end="zoomplus.mouseout"/>
                        </use>
                        <path d="M-4,0h8M0,-4v8" fill="none" stroke="white" stroke-width="1.5" pointer-events="none"/>
                </g>
                <g id="zoomMin">
                        <use xlink:href="#rim" fill="#404040">
                                <set attributeName="fill" to="#808080" begin="zoomminus.mouseover" end="zoomminus.mouseout"/>
                        </use>
                        <path d="M-4,0h8" fill="none" stroke="white" stroke-width="1.5" pointer-events="none"/>
                </g>
                <g id="dirArrow">
                        <path fill="none" stroke="white" stroke-width="1.5" d="M0,-3.0v7 M-2.5,-0.5L0,-3.0L2.5,-0.5"/>
                </g>
               <g id="resetDef">
                       <use xlink:href="#rim2" fill="#404040">
                               <set attributeName="fill" to="#808080" begin="reset.mouseover" end="reset.mouseout"/>
                       </use>
               </g>
        </defs>

<script type="text/javascript">
var viewWidth = 1532;
var viewHeight = 232;
var sectionId = 'dynsection-16';
</script>
<script xlink:href="svgpan.js"/>
<svg id="graph" class="graph">
<g id="viewport">
<title>UIHandler.DisplayViewBlocker</title>
<polygon fill="white" stroke="transparent" points="-4,4 -4,-227.61 1528,-227.61 1528,4 -4,4"/>
<!-- Node1 -->
<g id="node1" class="node">
<title>Node1</title>
<g id="a_node1"><a xlink:title="To display the View Blocker can include the name of the player that needs it&#39;s attention">
<polygon fill="#bfbfbf" stroke="black" points="1348,-118.5 1348,-139.5 1524,-139.5 1524,-118.5 1348,-118.5"/>
<text text-anchor="middle" x="1436" y="-125.9" font-family="Helvetica,sans-Serif" font-size="12.00">UIHandler.DisplayViewBlocker</text>
</a>
</g>
</g>
<!-- Node2 -->
<g id="node2" class="node">
<title>Node2</title>
<g id="a_node2"><a xlink:href="class_u_i_handler.html#acc06a1dab8566d9e14f7ab3ae1ffea93" target="_top" xlink:title="Ends current player&#39;s turn">
<polygon fill="white" stroke="black" points="475.5,-177.5 475.5,-198.5 589.5,-198.5 589.5,-177.5 475.5,-177.5"/>
<text text-anchor="middle" x="532.5" y="-184.9" font-family="Helvetica,sans-Serif" font-size="12.00">UIHandler.EndTurn</text>
</a>
</g>
</g>
<!-- Node1&#45;&gt;Node2 -->
<g id="edge1" class="edge">
<title>Node1&#45;&gt;Node2</title>
<path fill="none" stroke="midnightblue" d="M1410.41,-145.17C1386.44,-159.91 1348.38,-180.6 1312,-189 1047.63,-250.04 719.16,-214.73 589.69,-196.65"/>
<polygon fill="midnightblue" stroke="midnightblue" points="1412.57,-147.95 1419.18,-139.67 1408.85,-142.02 1412.57,-147.95"/>
</g>
<!-- Node3 -->
<g id="node3" class="node">
<title>Node3</title>
<g id="a_node3"><a xlink:href="class_round_manager.html#a596fc1c822ebb74dad8d238b15b1ea3a" target="_top" xlink:title="Iterate through the rest of the players searching for if 1 or more of the cards were found">
<polygon fill="white" stroke="black" points="1124,-38.5 1124,-59.5 1312,-59.5 1312,-38.5 1124,-38.5"/>
<text text-anchor="middle" x="1218" y="-45.9" font-family="Helvetica,sans-Serif" font-size="12.00">RoundManager.MakeSuggestion</text>
</a>
</g>
</g>
<!-- Node1&#45;&gt;Node3 -->
<g id="edge2" class="edge">
<title>Node1&#45;&gt;Node3</title>
<path fill="none" stroke="midnightblue" d="M1407.84,-113.37C1383.45,-99.92 1346.3,-80.86 1312,-69 1301.39,-65.33 1289.85,-62.2 1278.63,-59.58"/>
<polygon fill="midnightblue" stroke="midnightblue" points="1406.41,-116.58 1416.85,-118.4 1409.82,-110.47 1406.41,-116.58"/>
</g>
<!-- Node10 -->
<g id="node10" class="node">
<title>Node10</title>
<g id="a_node10"><a xlink:href="class_u_i_handler.html#a7e471e88a4baaa1993d0a85035c38016" target="_top" xlink:title="After pressing a card to choose pass this card to show it">
<polygon fill="white" stroke="black" points="1131.5,-118.5 1131.5,-139.5 1304.5,-139.5 1304.5,-118.5 1131.5,-118.5"/>
<text text-anchor="middle" x="1218" y="-125.9" font-family="Helvetica,sans-Serif" font-size="12.00">UIHandler.ShowSelectedCard</text>
</a>
</g>
</g>
<!-- Node1&#45;&gt;Node10 -->
<g id="edge10" class="edge">
<title>Node1&#45;&gt;Node10</title>
<path fill="none" stroke="midnightblue" d="M1337.74,-129C1326.76,-129 1315.62,-129 1304.8,-129"/>
<polygon fill="midnightblue" stroke="midnightblue" points="1337.77,-132.5 1347.77,-129 1337.77,-125.5 1337.77,-132.5"/>
</g>
<!-- Node11 -->
<g id="node11" class="node">
<title>Node11</title>
<g id="a_node11"><a xlink:href="class_u_i_handler.html#a94a29c2949506b7cd0de99509a6673b5" target="_top" xlink:title="Starting behaviour">
<polygon fill="white" stroke="black" points="1144,-78.5 1144,-99.5 1292,-99.5 1292,-78.5 1144,-78.5"/>
<text text-anchor="middle" x="1218" y="-85.9" font-family="Helvetica,sans-Serif" font-size="12.00">UIHandler.StartBehaviour</text>
</a>
</g>
</g>
<!-- Node1&#45;&gt;Node11 -->
<g id="edge11" class="edge">
<title>Node1&#45;&gt;Node11</title>
<path fill="none" stroke="midnightblue" d="M1368.39,-116.67C1338.73,-111.17 1304.16,-104.77 1275.75,-99.51"/>
<polygon fill="midnightblue" stroke="midnightblue" points="1367.78,-120.11 1378.25,-118.49 1369.05,-113.23 1367.78,-120.11"/>
</g>
<!-- Node14 -->
<g id="node14" class="node">
<title>Node14</title>
<g id="a_node14"><a xlink:href="class_round_manager.html#acf644ae21a6f9ebc2a476fc8603e18fc" target="_top" xlink:title="Method for starting the turn">
<polygon fill="white" stroke="black" points="1144.5,-158.5 1144.5,-179.5 1291.5,-179.5 1291.5,-158.5 1144.5,-158.5"/>
<text text-anchor="middle" x="1218" y="-165.9" font-family="Helvetica,sans-Serif" font-size="12.00">RoundManager.StartTurn</text>
</a>
</g>
</g>
<!-- Node1&#45;&gt;Node14 -->
<g id="edge14" class="edge">
<title>Node1&#45;&gt;Node14</title>
<path fill="none" stroke="midnightblue" d="M1368.39,-141.33C1338.73,-146.83 1304.16,-153.23 1275.75,-158.49"/>
<polygon fill="midnightblue" stroke="midnightblue" points="1369.05,-144.77 1378.25,-139.51 1367.78,-137.89 1369.05,-144.77"/>
</g>
<!-- Node4 -->
<g id="node4" class="node">
<title>Node4</title>
<g id="a_node4"><a xlink:href="class_suggestion_test.html#ac6fed8b504eb8b103cb5c38fa895edf3" target="_top" xlink:title="get test choices and make suggestion">
<polygon fill="white" stroke="black" points="676,-0.5 676,-21.5 866,-21.5 866,-0.5 676,-0.5"/>
<text text-anchor="middle" x="771" y="-7.9" font-family="Helvetica,sans-Serif" font-size="12.00">SuggestionTest.MakeSuggestion</text>
</a>
</g>
</g>
<!-- Node3&#45;&gt;Node4 -->
<g id="edge3" class="edge">
<title>Node3&#45;&gt;Node4</title>
<path fill="none" stroke="midnightblue" d="M1143.03,-36.99C1125.06,-34.38 1105.87,-31.85 1088,-30 1013.65,-22.3 929.11,-17.42 866.2,-14.54"/>
<polygon fill="midnightblue" stroke="midnightblue" points="1142.76,-40.49 1153.16,-38.49 1143.78,-33.56 1142.76,-40.49"/>
</g>
<!-- Node5 -->
<g id="node5" class="node">
<title>Node5</title>
<g id="a_node5"><a xlink:href="class_user_controller.html#a6230816eec4c8be9bda248a166d7b9bd" target="_top" xlink:title="Makes suggestion">
<polygon fill="white" stroke="black" points="903.5,-39.5 903.5,-60.5 1086.5,-60.5 1086.5,-39.5 903.5,-39.5"/>
<text text-anchor="middle" x="995" y="-46.9" font-family="Helvetica,sans-Serif" font-size="12.00">UserController.MakeSuggestion</text>
</a>
</g>
</g>
<!-- Node3&#45;&gt;Node5 -->
<g id="edge4" class="edge">
<title>Node3&#45;&gt;Node5</title>
<path fill="none" stroke="midnightblue" d="M1113.7,-49.47C1104.62,-49.51 1095.47,-49.55 1086.5,-49.59"/>
<polygon fill="midnightblue" stroke="midnightblue" points="1113.93,-52.97 1123.92,-49.42 1113.9,-45.97 1113.93,-52.97"/>
</g>
<!-- Node5&#45;&gt;Node4 -->
<g id="edge9" class="edge">
<title>Node5&#45;&gt;Node4</title>
<path fill="none" stroke="midnightblue" d="M924.34,-37.76C894.67,-32.55 860.4,-26.53 831.89,-21.52"/>
<polygon fill="midnightblue" stroke="midnightblue" points="923.76,-41.21 934.22,-39.5 924.97,-34.32 923.76,-41.21"/>
</g>
<!-- Node6 -->
<g id="node6" class="node">
<title>Node6</title>
<g id="a_node6"><a xlink:href="class_u_i_handler.html#ae6960c4c231f0e85718af2150449bb1f" target="_top" xlink:title="Hides the suggestion panel">
<polygon fill="white" stroke="black" points="685.5,-78.5 685.5,-99.5 856.5,-99.5 856.5,-78.5 685.5,-78.5"/>
<text text-anchor="middle" x="771" y="-85.9" font-family="Helvetica,sans-Serif" font-size="12.00">UIHandler.ConfirmSuggestion</text>
</a>
</g>
</g>
<!-- Node5&#45;&gt;Node6 -->
<g id="edge5" class="edge">
<title>Node5&#45;&gt;Node6</title>
<path fill="none" stroke="midnightblue" d="M924.34,-62.24C894.67,-67.45 860.4,-73.47 831.89,-78.48"/>
<polygon fill="midnightblue" stroke="midnightblue" points="924.97,-65.68 934.22,-60.5 923.76,-58.79 924.97,-65.68"/>
</g>
<!-- Node7 -->
<g id="node7" class="node">
<title>Node7</title>
<g id="a_node7"><a xlink:href="class_a_i_controller_script.html#affdf86fa313c46463a9a5a2b20020a17" target="_top" xlink:title="Decides what the AI should suggest this should match the flow chart of the AI">
<polygon fill="white" stroke="black" points="425,-68.5 425,-89.5 640,-89.5 640,-68.5 425,-68.5"/>
<text text-anchor="middle" x="532.5" y="-75.9" font-family="Helvetica,sans-Serif" font-size="12.00">AIControllerScript.Decide_Suggestion</text>
</a>
</g>
</g>
<!-- Node5&#45;&gt;Node7 -->
<g id="edge6" class="edge">
<title>Node5&#45;&gt;Node7</title>
<path fill="none" stroke="midnightblue" d="M892.92,-55.77C830.41,-59.41 748.54,-64.29 676,-69 664.37,-69.76 652.2,-70.57 640.1,-71.4"/>
<polygon fill="midnightblue" stroke="midnightblue" points="893.39,-59.25 903.17,-55.18 892.99,-52.26 893.39,-59.25"/>
</g>
<!-- Node8 -->
<g id="node8" class="node">
<title>Node8</title>
<g id="a_node8"><a xlink:href="class_a_i_controller_script.html#ac31d9b8dbb75696b181eff1fbef41b97" target="_top" xlink:title="dictates what the AI will do depending on what mode it is in">
<polygon fill="white" stroke="black" points="215,-88.5 215,-109.5 389,-109.5 389,-88.5 215,-88.5"/>
<text text-anchor="middle" x="302" y="-95.9" font-family="Helvetica,sans-Serif" font-size="12.00">AIControllerScript.AIBehaviour</text>
</a>
</g>
</g>
<!-- Node7&#45;&gt;Node8 -->
<g id="edge7" class="edge">
<title>Node7&#45;&gt;Node8</title>
<path fill="none" stroke="midnightblue" d="M414.82,-89.21C406.19,-89.97 397.58,-90.72 389.18,-91.46"/>
<polygon fill="midnightblue" stroke="midnightblue" points="415.29,-92.69 424.94,-88.33 414.68,-85.71 415.29,-92.69"/>
</g>
<!-- Node9 -->
<g id="node9" class="node">
<title>Node9</title>
<g id="a_node9"><a xlink:href="class_a_i_controller_script.html#a74dc0e720fafceb873d3b19c12f68d58" target="_top" xlink:title=" ">
<polygon fill="white" stroke="black" points="0,-88.5 0,-109.5 179,-109.5 179,-88.5 0,-88.5"/>
<text text-anchor="middle" x="89.5" y="-95.9" font-family="Helvetica,sans-Serif" font-size="12.00">AIControllerScript.FixedUpdate</text>
</a>
</g>
</g>
<!-- Node8&#45;&gt;Node9 -->
<g id="edge8" class="edge">
<title>Node8&#45;&gt;Node9</title>
<path fill="none" stroke="midnightblue" d="M204.57,-99C196.15,-99 187.67,-99 179.32,-99"/>
<polygon fill="midnightblue" stroke="midnightblue" points="204.77,-102.5 214.77,-99 204.77,-95.5 204.77,-102.5"/>
</g>
<!-- Node12 -->
<g id="node12" class="node">
<title>Node12</title>
<g id="a_node12"><a xlink:href="class_game_manager_script.html#a12cbaf1ff00804887619c07c7267cf31" target="_top" xlink:title="starting and initialing the game and it&#39;s components">
<polygon fill="white" stroke="black" points="902,-118.5 902,-139.5 1088,-139.5 1088,-118.5 902,-118.5"/>
<text text-anchor="middle" x="995" y="-125.9" font-family="Helvetica,sans-Serif" font-size="12.00">GameManagerScript.StartGame</text>
</a>
</g>
</g>
<!-- Node11&#45;&gt;Node12 -->
<g id="edge12" class="edge">
<title>Node11&#45;&gt;Node12</title>
<path fill="none" stroke="midnightblue" d="M1148.85,-101.33C1118.5,-106.83 1083.13,-113.23 1054.06,-118.49"/>
<polygon fill="midnightblue" stroke="midnightblue" points="1149.72,-104.73 1158.93,-99.51 1148.47,-97.85 1149.72,-104.73"/>
</g>
<!-- Node13 -->
<g id="node13" class="node">
<title>Node13</title>
<g id="a_node13"><a xlink:href="class_suggestion_test.html#a904e4481863c3e620574eba37c993a26" target="_top" xlink:title=" ">
<polygon fill="white" stroke="black" points="708,-118.5 708,-139.5 834,-139.5 834,-118.5 708,-118.5"/>
<text text-anchor="middle" x="771" y="-125.9" font-family="Helvetica,sans-Serif" font-size="12.00">SuggestionTest.Start</text>
</a>
</g>
</g>
<!-- Node12&#45;&gt;Node13 -->
<g id="edge13" class="edge">
<title>Node12&#45;&gt;Node13</title>
<path fill="none" stroke="midnightblue" d="M891.59,-129C872.01,-129 852.08,-129 834.24,-129"/>
<polygon fill="midnightblue" stroke="midnightblue" points="891.78,-132.5 901.78,-129 891.78,-125.5 891.78,-132.5"/>
</g>
<!-- Node14&#45;&gt;Node12 -->
<g id="edge20" class="edge">
<title>Node14&#45;&gt;Node12</title>
<path fill="none" stroke="midnightblue" d="M1148.85,-156.67C1118.5,-151.17 1083.13,-144.77 1054.06,-139.51"/>
<polygon fill="midnightblue" stroke="midnightblue" points="1148.47,-160.15 1158.93,-158.49 1149.72,-153.27 1148.47,-160.15"/>
</g>
<!-- Node15 -->
<g id="node15" class="node">
<title>Node15</title>
<g id="a_node15"><a xlink:href="class_round_manager.html#a29177f2e27c6c4af55dfa3c48d67cfb0" target="_top" xlink:title="Ending the turn. Returns the next player">
<polygon fill="white" stroke="black" points="923.5,-158.5 923.5,-179.5 1066.5,-179.5 1066.5,-158.5 923.5,-158.5"/>
<text text-anchor="middle" x="995" y="-165.9" font-family="Helvetica,sans-Serif" font-size="12.00">RoundManager.EndTurn</text>
</a>
</g>
</g>
<!-- Node14&#45;&gt;Node15 -->
<g id="edge15" class="edge">
<title>Node14&#45;&gt;Node15</title>
<path fill="none" stroke="midnightblue" d="M1134.26,-169C1112.08,-169 1088.31,-169 1066.83,-169"/>
<polygon fill="midnightblue" stroke="midnightblue" points="1134.33,-172.5 1144.33,-169 1134.33,-165.5 1134.33,-172.5"/>
</g>
<!-- Node16 -->
<g id="node16" class="node">
<title>Node16</title>
<g id="a_node16"><a xlink:href="class_user_controller.html#ab90611f541e20c125133d09b62407f41" target="_top" xlink:title="Ends turn">
<polygon fill="white" stroke="black" points="702,-158.5 702,-179.5 840,-179.5 840,-158.5 702,-158.5"/>
<text text-anchor="middle" x="771" y="-165.9" font-family="Helvetica,sans-Serif" font-size="12.00">UserController.EndTurn</text>
</a>
</g>
</g>
<!-- Node15&#45;&gt;Node16 -->
<g id="edge16" class="edge">
<title>Node15&#45;&gt;Node16</title>
<path fill="none" stroke="midnightblue" d="M913.3,-169C889.28,-169 863.22,-169 840.09,-169"/>
<polygon fill="midnightblue" stroke="midnightblue" points="913.45,-172.5 923.45,-169 913.45,-165.5 913.45,-172.5"/>
</g>
<!-- Node16&#45;&gt;Node2 -->
<g id="edge19" class="edge">
<title>Node16&#45;&gt;Node2</title>
<path fill="none" stroke="midnightblue" d="M691.71,-175.29C658.3,-177.97 620.07,-181.04 589.56,-183.5"/>
<polygon fill="midnightblue" stroke="midnightblue" points="692.22,-178.76 701.91,-174.47 691.66,-171.78 692.22,-178.76"/>
</g>
<!-- Node17 -->
<g id="node17" class="node">
<title>Node17</title>
<g id="a_node17"><a xlink:href="class_a_i_controller_script.html#a9c386cf1258ad897c9a1068804f07ba0" target="_top" xlink:title="have AI to end turn">
<polygon fill="white" stroke="black" points="455,-127.5 455,-148.5 610,-148.5 610,-127.5 455,-127.5"/>
<text text-anchor="middle" x="532.5" y="-134.9" font-family="Helvetica,sans-Serif" font-size="12.00">AIControllerScript.EndTurn</text>
</a>
</g>
</g>
<!-- Node16&#45;&gt;Node17 -->
<g id="edge17" class="edge">
<title>Node16&#45;&gt;Node17</title>
<path fill="none" stroke="midnightblue" d="M691.65,-158.73C665.46,-155.3 636.31,-151.48 610.25,-148.06"/>
<polygon fill="midnightblue" stroke="midnightblue" points="691.54,-162.25 701.91,-160.08 692.45,-155.31 691.54,-162.25"/>
</g>
<!-- Node17&#45;&gt;Node8 -->
<g id="edge18" class="edge">
<title>Node17&#45;&gt;Node8</title>
<path fill="none" stroke="midnightblue" d="M459.81,-125.76C429.27,-120.55 393.99,-114.53 364.64,-109.52"/>
<polygon fill="midnightblue" stroke="midnightblue" points="459.52,-129.26 469.97,-127.5 460.7,-122.36 459.52,-129.26"/>
</g>
</g>
</svg>
        <g id="navigator" transform="translate(0 0)" fill="#404254">
                <rect fill="#f2f5e9" fill-opacity="0.5" stroke="#606060" stroke-width=".5" x="0" y="0" width="60" height="60"/>
                <use id="zoomplus" xlink:href="#zoomPlus" x="17" y="9" onmousedown="handleZoom(evt,'in')"/>
                <use id="zoomminus" xlink:href="#zoomMin" x="42" y="9" onmousedown="handleZoom(evt,'out')"/>
                <use id="reset" xlink:href="#resetDef" x="30" y="36" onmousedown="handleReset()"/>
                <g id="arrowUp" xlink:href="#dirArrow" transform="translate(30 24)" onmousedown="handlePan(0,-1)">
                  <use xlink:href="#rim" fill="#404040">
                        <set attributeName="fill" to="#808080" begin="arrowUp.mouseover" end="arrowUp.mouseout"/>
                  </use>
                  <path fill="none" stroke="white" stroke-width="1.5" d="M0,-3.0v7 M-2.5,-0.5L0,-3.0L2.5,-0.5"/>
                </g>
                <g id="arrowRight" xlink:href="#dirArrow" transform="rotate(90) translate(36 -43)" onmousedown="handlePan(1,0)">
                  <use xlink:href="#rim" fill="#404040">
                        <set attributeName="fill" to="#808080" begin="arrowRight.mouseover" end="arrowRight.mouseout"/>
                  </use>
                  <path fill="none" stroke="white" stroke-width="1.5" d="M0,-3.0v7 M-2.5,-0.5L0,-3.0L2.5,-0.5"/>
                </g>
                <g id="arrowDown" xlink:href="#dirArrow" transform="rotate(180) translate(-30 -48)" onmousedown="handlePan(0,1)">
                  <use xlink:href="#rim" fill="#404040">
                        <set attributeName="fill" to="#808080" begin="arrowDown.mouseover" end="arrowDown.mouseout"/>
                  </use>
                  <path fill="none" stroke="white" stroke-width="1.5" d="M0,-3.0v7 M-2.5,-0.5L0,-3.0L2.5,-0.5"/>
                </g>
                <g id="arrowLeft" xlink:href="#dirArrow" transform="rotate(270) translate(-36 17)" onmousedown="handlePan(-1,0)">
                  <use xlink:href="#rim" fill="#404040">
                        <set attributeName="fill" to="#808080" begin="arrowLeft.mouseover" end="arrowLeft.mouseout"/>
                  </use>
                  <path fill="none" stroke="white" stroke-width="1.5" d="M0,-3.0v7 M-2.5,-0.5L0,-3.0L2.5,-0.5"/>
                </g>
        </g>
        <svg viewBox="0 0 15 15" width="100%" height="30px" preserveAspectRatio="xMaxYMin meet">
         <g id="arrow_out" transform="scale(0.3 0.3)">
          <a xlink:href="class_u_i_handler_abe1710aca2abe4dbb489f0c49a3af879_icgraph_org.svg" target="_base">
           <rect id="button" ry="5" rx="5" y="6" x="6" height="38" width="38"
                fill="#f2f5e9" fill-opacity="0.5" stroke="#606060" stroke-width="1.0"/>
           <path id="arrow"
             d="M 11.500037,31.436501 C 11.940474,20.09759 22.043105,11.32322 32.158766,21.979434 L 37.068811,17.246167 C 37.068811,17.246167 37.088388,32 37.088388,32 L 22.160133,31.978069 C 22.160133,31.978069 26.997745,27.140456 26.997745,27.140456 C 18.528582,18.264221 13.291696,25.230495 11.500037,31.436501 z"
             style="fill:#404040;"/>
          </a>
         </g>
        </svg>
</svg>
