<?xml version="1.0" encoding="UTF-8" standalone="no"?>
<!DOCTYPE svg PUBLIC "-//W3C//DTD SVG 1.1//EN"
 "http://www.w3.org/Graphics/SVG/1.1/DTD/svg11.dtd">
<!-- Generated by graphviz version 2.47.1 (20210417.1919)
 -->
<!-- Title: EnumToString.GetStringFromEnum Pages: 1 -->
<svg width="2347pt" height="747pt"
 viewBox="0.00 0.00 2347.00 747.18" xmlns="http://www.w3.org/2000/svg" xmlns:xlink="http://www.w3.org/1999/xlink">
<g id="graph0" class="graph" transform="scale(1 1) rotate(0) translate(4 743.18)">
<title>EnumToString.GetStringFromEnum</title>
<polygon fill="white" stroke="transparent" points="-4,4 -4,-743.18 2343,-743.18 2343,4 -4,4"/>
<!-- Node1 -->
<g id="node1" class="node">
<title>Node1</title>
<g id="a_node1"><a xlink:title="Get a string value from a valid enum">
<polygon fill="#bfbfbf" stroke="black" points="2138,-355.5 2138,-376.5 2339,-376.5 2339,-355.5 2138,-355.5"/>
<text text-anchor="middle" x="2238.5" y="-362.9" font-family="Helvetica,sans-Serif" font-size="12.00">EnumToString.GetStringFromEnum</text>
</a>
</g>
</g>
<!-- Node2 -->
<g id="node2" class="node">
<title>Node2</title>
<g id="a_node2"><a xlink:href="class_u_i_handler.html#a81884a614bffa4b024ed137552033f7f" target="_top" xlink:title="Dispal a panel for a player to choose which card to show">
<polygon fill="white" stroke="black" points="1150,-666.5 1150,-687.5 1327,-687.5 1327,-666.5 1150,-666.5"/>
<text text-anchor="middle" x="1238.5" y="-673.9" font-family="Helvetica,sans-Serif" font-size="12.00">UIHandler.DisplayChoicePanel</text>
</a>
</g>
</g>
<!-- Node1&#45;&gt;Node2 -->
<g id="edge1" class="edge">
<title>Node1&#45;&gt;Node2</title>
<path fill="none" stroke="midnightblue" d="M2235.25,-386.56C2227.95,-442.1 2199.41,-595.28 2102,-659 2038.43,-700.58 1533.94,-687.56 1327.3,-680.37"/>
<polygon fill="midnightblue" stroke="midnightblue" points="2238.74,-386.88 2236.47,-376.53 2231.79,-386.03 2238.74,-386.88"/>
</g>
<!-- Node3 -->
<g id="node3" class="node">
<title>Node3</title>
<g id="a_node3"><a xlink:href="class_round_manager.html#a596fc1c822ebb74dad8d238b15b1ea3a" target="_top" xlink:title="Iterate through the rest of the players searching for if 1 or more of the cards were found">
<polygon fill="white" stroke="black" points="926,-627.5 926,-648.5 1114,-648.5 1114,-627.5 926,-627.5"/>
<text text-anchor="middle" x="1020" y="-634.9" font-family="Helvetica,sans-Serif" font-size="12.00">RoundManager.MakeSuggestion</text>
</a>
</g>
</g>
<!-- Node1&#45;&gt;Node3 -->
<g id="edge33" class="edge">
<title>Node1&#45;&gt;Node3</title>
<path fill="none" stroke="midnightblue" d="M2235.82,-386.88C2229.87,-445.52 2204.28,-612.19 2102,-686 1966.78,-783.59 1894.76,-716 1728,-716 1728,-716 1728,-716 1469,-716 1326.97,-716 1287.81,-731.34 1150,-697 1107.94,-686.52 1062.74,-662.56 1038.6,-648.61"/>
<polygon fill="midnightblue" stroke="midnightblue" points="2239.33,-386.94 2236.76,-376.66 2232.36,-386.29 2239.33,-386.94"/>
</g>
<!-- Node10 -->
<g id="node10" class="node">
<title>Node10</title>
<g id="a_node10"><a xlink:href="class_notebook_test_script.html#a9b8ec4a7586c8516aba4d8f684a3f19d" target="_top" xlink:title="Get character notebook text">
<polygon fill="white" stroke="black" points="1877,-160.5 1877,-181.5 2102,-181.5 2102,-160.5 1877,-160.5"/>
<text text-anchor="middle" x="1989.5" y="-167.9" font-family="Helvetica,sans-Serif" font-size="12.00">NotebookTestScript.GetCharacterString</text>
</a>
</g>
</g>
<!-- Node1&#45;&gt;Node10 -->
<g id="edge10" class="edge">
<title>Node1&#45;&gt;Node10</title>
<path fill="none" stroke="midnightblue" d="M2228.15,-345.8C2209.75,-308.51 2165.08,-229.22 2102,-191 2095.78,-187.23 2089.02,-184.13 2082.02,-181.59"/>
<polygon fill="midnightblue" stroke="midnightblue" points="2225.15,-347.63 2232.63,-355.13 2231.45,-344.6 2225.15,-347.63"/>
</g>
<!-- Node13 -->
<g id="node13" class="node">
<title>Node13</title>
<g id="a_node13"><a xlink:href="class_suggestion_test.html#a8847864d96dc6762c7559e9579138897" target="_top" xlink:title="set the text for every players&#39; hand in the test UI">
<polygon fill="white" stroke="black" points="1363,-336.5 1363,-357.5 1577,-357.5 1577,-336.5 1363,-336.5"/>
<text text-anchor="middle" x="1470" y="-343.9" font-family="Helvetica,sans-Serif" font-size="12.00">SuggestionTest.GetPlayerCardsForUI</text>
</a>
</g>
</g>
<!-- Node1&#45;&gt;Node13 -->
<g id="edge13" class="edge">
<title>Node1&#45;&gt;Node13</title>
<path fill="none" stroke="midnightblue" d="M2127.3,-363.27C1980.38,-359.63 1722.07,-353.22 1577.2,-349.63"/>
<polygon fill="midnightblue" stroke="midnightblue" points="2127.6,-366.78 2137.69,-363.53 2127.78,-359.78 2127.6,-366.78"/>
</g>
<!-- Node15 -->
<g id="node15" class="node">
<title>Node15</title>
<g id="a_node15"><a xlink:href="class_notebook_test_script.html#a932234219a6c879897ab5b20fb6574fc" target="_top" xlink:title="Get Room notebook text">
<polygon fill="white" stroke="black" points="1887,-120.5 1887,-141.5 2092,-141.5 2092,-120.5 1887,-120.5"/>
<text text-anchor="middle" x="1989.5" y="-127.9" font-family="Helvetica,sans-Serif" font-size="12.00">NotebookTestScript.GetRoomString</text>
</a>
</g>
</g>
<!-- Node1&#45;&gt;Node15 -->
<g id="edge15" class="edge">
<title>Node1&#45;&gt;Node15</title>
<path fill="none" stroke="midnightblue" d="M2230.99,-345.54C2215.97,-301.94 2174.52,-199.87 2102,-151 2096.45,-147.26 2090.42,-144.17 2084.11,-141.61"/>
<polygon fill="midnightblue" stroke="midnightblue" points="2227.76,-346.92 2234.24,-355.3 2234.4,-344.71 2227.76,-346.92"/>
</g>
<!-- Node16 -->
<g id="node16" class="node">
<title>Node16</title>
<g id="a_node16"><a xlink:href="class_notebook_test_script.html#adb07ae16fb57bee560aae3aab7f3bcbf" target="_top" xlink:title="Get weapon notebook text">
<polygon fill="white" stroke="black" points="1885,-200.5 1885,-221.5 2094,-221.5 2094,-200.5 1885,-200.5"/>
<text text-anchor="middle" x="1989.5" y="-207.9" font-family="Helvetica,sans-Serif" font-size="12.00">NotebookTestScript.GetWeaponText</text>
</a>
</g>
</g>
<!-- Node1&#45;&gt;Node16 -->
<g id="edge17" class="edge">
<title>Node1&#45;&gt;Node16</title>
<path fill="none" stroke="midnightblue" d="M2224.54,-347.1C2202.92,-317.17 2156.44,-259.38 2102,-231 2094.68,-227.18 2086.75,-224.08 2078.63,-221.56"/>
<polygon fill="midnightblue" stroke="midnightblue" points="2221.8,-349.29 2230.43,-355.43 2227.51,-345.24 2221.8,-349.29"/>
</g>
<!-- Node17 -->
<g id="node17" class="node">
<title>Node17</title>
<g id="a_node17"><a xlink:href="class_u_i_handler.html#ac072319b13f11e5ac215a0ed6ab11aa9" target="_top" xlink:title="Resets UI for the next player">
<polygon fill="white" stroke="black" points="1922,-240.5 1922,-261.5 2057,-261.5 2057,-240.5 1922,-240.5"/>
<text text-anchor="middle" x="1989.5" y="-247.9" font-family="Helvetica,sans-Serif" font-size="12.00">UIHandler.InitialiseTurn</text>
</a>
</g>
</g>
<!-- Node1&#45;&gt;Node17 -->
<g id="edge19" class="edge">
<title>Node1&#45;&gt;Node17</title>
<path fill="none" stroke="midnightblue" d="M2217.16,-348.99C2191.79,-328.63 2146.34,-294.93 2102,-276 2087.59,-269.85 2071.45,-265.11 2056.03,-261.5"/>
<polygon fill="midnightblue" stroke="midnightblue" points="2215,-351.74 2224.97,-355.34 2219.42,-346.31 2215,-351.74"/>
</g>
<!-- Node18 -->
<g id="node18" class="node">
<title>Node18</title>
<g id="a_node18"><a xlink:href="class_round_manager.html#acf644ae21a6f9ebc2a476fc8603e18fc" target="_top" xlink:title="Method for starting the turn">
<polygon fill="white" stroke="black" points="1653.5,-276.5 1653.5,-297.5 1800.5,-297.5 1800.5,-276.5 1653.5,-276.5"/>
<text text-anchor="middle" x="1727" y="-283.9" font-family="Helvetica,sans-Serif" font-size="12.00">RoundManager.StartTurn</text>
</a>
</g>
</g>
<!-- Node1&#45;&gt;Node18 -->
<g id="edge61" class="edge">
<title>Node1&#45;&gt;Node18</title>
<path fill="none" stroke="midnightblue" d="M2192.48,-352.74C2166.28,-345.43 2132.49,-336.7 2102,-331 1998.21,-311.58 1876.53,-299.15 1800.84,-292.62"/>
<polygon fill="midnightblue" stroke="midnightblue" points="2191.56,-356.11 2202.13,-355.46 2193.46,-349.37 2191.56,-356.11"/>
</g>
<!-- Node24 -->
<g id="node24" class="node">
<title>Node24</title>
<g id="a_node24"><a xlink:href="class_round_manager.html#ab691cd5cd773e23822b237834b1fcb0a" target="_top" xlink:title="to have the current player to make an accusation eliminates the player if it is wrong wins the game i...">
<polygon fill="white" stroke="black" points="1896,-394.5 1896,-415.5 2083,-415.5 2083,-394.5 1896,-394.5"/>
<text text-anchor="middle" x="1989.5" y="-401.9" font-family="Helvetica,sans-Serif" font-size="12.00">RoundManager.MakeAccusation</text>
</a>
</g>
</g>
<!-- Node1&#45;&gt;Node24 -->
<g id="edge28" class="edge">
<title>Node1&#45;&gt;Node24</title>
<path fill="none" stroke="midnightblue" d="M2160.86,-378.1C2127.65,-383.34 2089.14,-389.43 2057.14,-394.48"/>
<polygon fill="midnightblue" stroke="midnightblue" points="2161.65,-381.52 2170.98,-376.5 2160.56,-374.61 2161.65,-381.52"/>
</g>
<!-- Node28 -->
<g id="node28" class="node">
<title>Node28</title>
<g id="a_node28"><a xlink:href="class_a_i_controller_script.html#a208f5afe4102ff2ca04a03a425d76279" target="_top" xlink:title="for the round manager to notify that another player finished picking a card to show">
<polygon fill="white" stroke="black" points="1889.5,-628.5 1889.5,-649.5 2089.5,-649.5 2089.5,-628.5 1889.5,-628.5"/>
<text text-anchor="middle" x="1989.5" y="-635.9" font-family="Helvetica,sans-Serif" font-size="12.00">AIControllerScript.NotifySuggestion</text>
</a>
</g>
</g>
<!-- Node1&#45;&gt;Node28 -->
<g id="edge34" class="edge">
<title>Node1&#45;&gt;Node28</title>
<path fill="none" stroke="midnightblue" d="M2232.57,-386.31C2219.85,-434.14 2181.25,-554.29 2102,-614 2093.84,-620.15 2084.45,-624.83 2074.66,-628.4"/>
<polygon fill="midnightblue" stroke="midnightblue" points="2235.99,-387.07 2235.08,-376.52 2229.21,-385.34 2235.99,-387.07"/>
</g>
<!-- Node30 -->
<g id="node30" class="node">
<title>Node30</title>
<g id="a_node30"><a xlink:href="class_u_i_handler.html#a4009ca74f59111933be2a637c7835e18" target="_top" xlink:title="Displays a card from a player that has it">
<polygon fill="white" stroke="black" points="1407,-588.5 1407,-609.5 1533,-609.5 1533,-588.5 1407,-588.5"/>
<text text-anchor="middle" x="1470" y="-595.9" font-family="Helvetica,sans-Serif" font-size="12.00">UIHandler.ShowCard</text>
</a>
</g>
</g>
<!-- Node1&#45;&gt;Node30 -->
<g id="edge57" class="edge">
<title>Node1&#45;&gt;Node30</title>
<path fill="none" stroke="midnightblue" d="M2228.49,-385.82C2210.41,-423.13 2165.87,-503.41 2102,-541 2006.84,-597.01 1672.9,-600.84 1533.19,-599.89"/>
<polygon fill="midnightblue" stroke="midnightblue" points="2231.79,-387.05 2232.89,-376.51 2225.46,-384.06 2231.79,-387.05"/>
</g>
<!-- Node32 -->
<g id="node32" class="node">
<title>Node32</title>
<g id="a_node32"><a xlink:href="class_u_i_handler.html#a7e471e88a4baaa1993d0a85035c38016" target="_top" xlink:title="After pressing a card to choose pass this card to show it">
<polygon fill="white" stroke="black" points="1152,-510.5 1152,-531.5 1325,-531.5 1325,-510.5 1152,-510.5"/>
<text text-anchor="middle" x="1238.5" y="-517.9" font-family="Helvetica,sans-Serif" font-size="12.00">UIHandler.ShowSelectedCard</text>
</a>
</g>
</g>
<!-- Node1&#45;&gt;Node32 -->
<g id="edge58" class="edge">
<title>Node1&#45;&gt;Node32</title>
<path fill="none" stroke="midnightblue" d="M2209.26,-381.29C2182.45,-395.06 2140.64,-414.69 2102,-425 2064.77,-434.94 1536,-490.32 1325.27,-512.15"/>
<polygon fill="midnightblue" stroke="midnightblue" points="2211.17,-384.24 2218.42,-376.51 2207.93,-378.03 2211.17,-384.24"/>
</g>
<!-- Node33 -->
<g id="node33" class="node">
<title>Node33</title>
<g id="a_node33"><a xlink:href="class_win_screen_script.html#a302ac9587462267075bd86d7c66e2ee8" target="_top" xlink:title="Update the win screen when enabled">
<polygon fill="white" stroke="black" points="1390,-530.5 1390,-551.5 1550,-551.5 1550,-530.5 1390,-530.5"/>
<text text-anchor="middle" x="1470" y="-537.9" font-family="Helvetica,sans-Serif" font-size="12.00">WinScreenScript.OnEnable</text>
</a>
</g>
</g>
<!-- Node1&#45;&gt;Node33 -->
<g id="edge41" class="edge">
<title>Node1&#45;&gt;Node33</title>
<path fill="none" stroke="midnightblue" d="M2218.79,-383.39C2194.14,-405.12 2148.45,-441.46 2102,-458 1896.47,-531.19 1827.6,-461.7 1613,-501 1574.08,-508.13 1530.41,-521.22 1501.91,-530.48"/>
<polygon fill="midnightblue" stroke="midnightblue" points="2221.21,-385.91 2226.31,-376.63 2216.54,-380.71 2221.21,-385.91"/>
</g>
<!-- Node34 -->
<g id="node34" class="node">
<title>Node34</title>
<g id="a_node34"><a xlink:href="class_notebook_button.html#a1767bf6c449e0517fa11a1ced89f6d0d" target="_top" xlink:title="Set the button type">
<polygon fill="white" stroke="black" points="1899.5,-80.5 1899.5,-101.5 2079.5,-101.5 2079.5,-80.5 1899.5,-80.5"/>
<text text-anchor="middle" x="1989.5" y="-87.9" font-family="Helvetica,sans-Serif" font-size="12.00">NotebookButton.SetButtonType</text>
</a>
</g>
</g>
<!-- Node1&#45;&gt;Node34 -->
<g id="edge42" class="edge">
<title>Node1&#45;&gt;Node34</title>
<path fill="none" stroke="midnightblue" d="M2233.08,-345.54C2221.3,-296.34 2184.29,-170.99 2102,-111 2095.25,-106.08 2087.66,-102.24 2079.71,-99.26"/>
<polygon fill="midnightblue" stroke="midnightblue" points="2229.68,-346.38 2235.33,-355.34 2236.5,-344.81 2229.68,-346.38"/>
</g>
<!-- Node40 -->
<g id="node40" class="node">
<title>Node40</title>
<g id="a_node40"><a xlink:href="class_accusation_card_slot.html#a595d786e6f5d41e16b8ddcfb1a815010" target="_top" xlink:title=" ">
<polygon fill="white" stroke="black" points="1887,-20.5 1887,-41.5 2092,-41.5 2092,-20.5 1887,-20.5"/>
<text text-anchor="middle" x="1989.5" y="-27.9" font-family="Helvetica,sans-Serif" font-size="12.00">AccusationCardSlot.SetCardDetails</text>
</a>
</g>
</g>
<!-- Node1&#45;&gt;Node40 -->
<g id="edge50" class="edge">
<title>Node1&#45;&gt;Node40</title>
<path fill="none" stroke="midnightblue" d="M2233.78,-345.51C2223.11,-292.48 2187.49,-149.43 2102,-71 2086.47,-56.75 2065.5,-47.5 2045.93,-41.53"/>
<polygon fill="midnightblue" stroke="midnightblue" points="2230.36,-346.24 2235.69,-355.4 2237.23,-344.92 2230.36,-346.24"/>
</g>
<!-- Node42 -->
<g id="node42" class="node">
<title>Node42</title>
<g id="a_node42"><a xlink:href="class_card_slot.html#a4690c0753db45ada6b02681269ecfbb1" target="_top" xlink:title=" ">
<polygon fill="white" stroke="black" points="1916,-510.5 1916,-531.5 2063,-531.5 2063,-510.5 1916,-510.5"/>
<text text-anchor="middle" x="1989.5" y="-517.9" font-family="Helvetica,sans-Serif" font-size="12.00">CardSlot.SetCardDetails</text>
</a>
</g>
</g>
<!-- Node1&#45;&gt;Node42 -->
<g id="edge52" class="edge">
<title>Node1&#45;&gt;Node42</title>
<path fill="none" stroke="midnightblue" d="M2223.58,-384.77C2201.25,-413.44 2154.58,-467.78 2102,-496 2090.03,-502.43 2076.48,-507.2 2063.05,-510.75"/>
<polygon fill="midnightblue" stroke="midnightblue" points="2226.41,-386.83 2229.7,-376.76 2220.85,-382.58 2226.41,-386.83"/>
</g>
<!-- Node45 -->
<g id="node45" class="node">
<title>Node45</title>
<g id="a_node45"><a xlink:href="class_u_i_handler.html#a94a29c2949506b7cd0de99509a6673b5" target="_top" xlink:title="Starting behaviour">
<polygon fill="white" stroke="black" points="1653,-316.5 1653,-337.5 1801,-337.5 1801,-316.5 1653,-316.5"/>
<text text-anchor="middle" x="1727" y="-323.9" font-family="Helvetica,sans-Serif" font-size="12.00">UIHandler.StartBehaviour</text>
</a>
</g>
</g>
<!-- Node1&#45;&gt;Node45 -->
<g id="edge59" class="edge">
<title>Node1&#45;&gt;Node45</title>
<path fill="none" stroke="midnightblue" d="M2129.69,-354.5C2120.33,-353.61 2111,-352.77 2102,-352 1997.61,-343.12 1876.59,-335.52 1801.16,-331.1"/>
<polygon fill="midnightblue" stroke="midnightblue" points="2129.55,-358.01 2139.84,-355.48 2130.23,-351.04 2129.55,-358.01"/>
</g>
<!-- Node2&#45;&gt;Node3 -->
<g id="edge2" class="edge">
<title>Node2&#45;&gt;Node3</title>
<path fill="none" stroke="midnightblue" d="M1169.19,-664.7C1140.34,-659.5 1107.09,-653.51 1079.41,-648.52"/>
<polygon fill="midnightblue" stroke="midnightblue" points="1168.74,-668.17 1179.2,-666.5 1169.98,-661.28 1168.74,-668.17"/>
</g>
<!-- Node4 -->
<g id="node4" class="node">
<title>Node4</title>
<g id="a_node4"><a xlink:href="class_suggestion_test.html#ac6fed8b504eb8b103cb5c38fa895edf3" target="_top" xlink:title="get test choices and make suggestion">
<polygon fill="white" stroke="black" points="437.5,-627.5 437.5,-648.5 627.5,-648.5 627.5,-627.5 437.5,-627.5"/>
<text text-anchor="middle" x="532.5" y="-634.9" font-family="Helvetica,sans-Serif" font-size="12.00">SuggestionTest.MakeSuggestion</text>
</a>
</g>
</g>
<!-- Node3&#45;&gt;Node4 -->
<g id="edge3" class="edge">
<title>Node3&#45;&gt;Node4</title>
<path fill="none" stroke="midnightblue" d="M915.75,-638C830.52,-638 710.57,-638 627.88,-638"/>
<polygon fill="midnightblue" stroke="midnightblue" points="915.97,-641.5 925.97,-638 915.97,-634.5 915.97,-641.5"/>
</g>
<!-- Node5 -->
<g id="node5" class="node">
<title>Node5</title>
<g id="a_node5"><a xlink:href="class_user_controller.html#a6230816eec4c8be9bda248a166d7b9bd" target="_top" xlink:title="Makes suggestion">
<polygon fill="white" stroke="black" points="691.5,-588.5 691.5,-609.5 874.5,-609.5 874.5,-588.5 691.5,-588.5"/>
<text text-anchor="middle" x="783" y="-595.9" font-family="Helvetica,sans-Serif" font-size="12.00">UserController.MakeSuggestion</text>
</a>
</g>
</g>
<!-- Node3&#45;&gt;Node5 -->
<g id="edge4" class="edge">
<title>Node3&#45;&gt;Node5</title>
<path fill="none" stroke="midnightblue" d="M945.68,-625.83C914.17,-620.6 877.71,-614.55 847.4,-609.52"/>
<polygon fill="midnightblue" stroke="midnightblue" points="945.28,-629.31 955.72,-627.5 946.42,-622.41 945.28,-629.31"/>
</g>
<!-- Node5&#45;&gt;Node4 -->
<g id="edge9" class="edge">
<title>Node5&#45;&gt;Node4</title>
<path fill="none" stroke="midnightblue" d="M704.9,-611.1C671.48,-616.34 632.73,-622.43 600.54,-627.48"/>
<polygon fill="midnightblue" stroke="midnightblue" points="705.74,-614.51 715.08,-609.5 704.66,-607.6 705.74,-614.51"/>
</g>
<!-- Node6 -->
<g id="node6" class="node">
<title>Node6</title>
<g id="a_node6"><a xlink:href="class_u_i_handler.html#ae6960c4c231f0e85718af2150449bb1f" target="_top" xlink:title="Hides the suggestion panel">
<polygon fill="white" stroke="black" points="447,-587.5 447,-608.5 618,-608.5 618,-587.5 447,-587.5"/>
<text text-anchor="middle" x="532.5" y="-594.9" font-family="Helvetica,sans-Serif" font-size="12.00">UIHandler.ConfirmSuggestion</text>
</a>
</g>
</g>
<!-- Node5&#45;&gt;Node6 -->
<g id="edge5" class="edge">
<title>Node5&#45;&gt;Node6</title>
<path fill="none" stroke="midnightblue" d="M681.08,-598.59C660.22,-598.51 638.45,-598.42 618.24,-598.34"/>
<polygon fill="midnightblue" stroke="midnightblue" points="681.22,-602.09 691.23,-598.63 681.25,-595.09 681.22,-602.09"/>
</g>
<!-- Node7 -->
<g id="node7" class="node">
<title>Node7</title>
<g id="a_node7"><a xlink:href="class_a_i_controller_script.html#affdf86fa313c46463a9a5a2b20020a17" target="_top" xlink:title="Decides what the AI should suggest this should match the flow chart of the AI">
<polygon fill="white" stroke="black" points="425,-481.5 425,-502.5 640,-502.5 640,-481.5 425,-481.5"/>
<text text-anchor="middle" x="532.5" y="-488.9" font-family="Helvetica,sans-Serif" font-size="12.00">AIControllerScript.Decide_Suggestion</text>
</a>
</g>
</g>
<!-- Node5&#45;&gt;Node7 -->
<g id="edge6" class="edge">
<title>Node5&#45;&gt;Node7</title>
<path fill="none" stroke="midnightblue" d="M748.02,-584.37C697.25,-562.51 602.81,-521.84 558.14,-502.61"/>
<polygon fill="midnightblue" stroke="midnightblue" points="746.7,-587.61 757.26,-588.35 749.46,-581.18 746.7,-587.61"/>
</g>
<!-- Node8 -->
<g id="node8" class="node">
<title>Node8</title>
<g id="a_node8"><a xlink:href="class_a_i_controller_script.html#ac31d9b8dbb75696b181eff1fbef41b97" target="_top" xlink:title="dictates what the AI will do depending on what mode it is in">
<polygon fill="white" stroke="black" points="215,-375.5 215,-396.5 389,-396.5 389,-375.5 215,-375.5"/>
<text text-anchor="middle" x="302" y="-382.9" font-family="Helvetica,sans-Serif" font-size="12.00">AIControllerScript.AIBehaviour</text>
</a>
</g>
</g>
<!-- Node7&#45;&gt;Node8 -->
<g id="edge7" class="edge">
<title>Node7&#45;&gt;Node8</title>
<path fill="none" stroke="midnightblue" d="M499.67,-477.23C452.85,-455.52 366.56,-415.49 325.65,-396.51"/>
<polygon fill="midnightblue" stroke="midnightblue" points="498.21,-480.42 508.76,-481.45 501.16,-474.07 498.21,-480.42"/>
</g>
<!-- Node9 -->
<g id="node9" class="node">
<title>Node9</title>
<g id="a_node9"><a xlink:href="class_a_i_controller_script.html#a74dc0e720fafceb873d3b19c12f68d58" target="_top" xlink:title=" ">
<polygon fill="white" stroke="black" points="0,-375.5 0,-396.5 179,-396.5 179,-375.5 0,-375.5"/>
<text text-anchor="middle" x="89.5" y="-382.9" font-family="Helvetica,sans-Serif" font-size="12.00">AIControllerScript.FixedUpdate</text>
</a>
</g>
</g>
<!-- Node8&#45;&gt;Node9 -->
<g id="edge8" class="edge">
<title>Node8&#45;&gt;Node9</title>
<path fill="none" stroke="midnightblue" d="M204.57,-386C196.15,-386 187.67,-386 179.32,-386"/>
<polygon fill="midnightblue" stroke="midnightblue" points="204.77,-389.5 214.77,-386 204.77,-382.5 204.77,-389.5"/>
</g>
<!-- Node11 -->
<g id="node11" class="node">
<title>Node11</title>
<g id="a_node11"><a xlink:href="class_notebook_test_script.html#a2fe069756e281210beaa15440a9bb259" target="_top" xlink:title="Update player reference then update all text strings">
<polygon fill="white" stroke="black" points="1621,-160.5 1621,-181.5 1833,-181.5 1833,-160.5 1621,-160.5"/>
<text text-anchor="middle" x="1727" y="-167.9" font-family="Helvetica,sans-Serif" font-size="12.00">NotebookTestScript.SetOutputStrings</text>
</a>
</g>
</g>
<!-- Node10&#45;&gt;Node11 -->
<g id="edge11" class="edge">
<title>Node10&#45;&gt;Node11</title>
<path fill="none" stroke="midnightblue" d="M1866.65,-171C1855.47,-171 1844.2,-171 1833.19,-171"/>
<polygon fill="midnightblue" stroke="midnightblue" points="1866.89,-174.5 1876.89,-171 1866.89,-167.5 1866.89,-174.5"/>
</g>
<!-- Node12 -->
<g id="node12" class="node">
<title>Node12</title>
<g id="a_node12"><a xlink:href="class_notebook_test_script.html#af2e6900a55e51830e7d7297fd5cf3453" target="_top" xlink:title="If current player is set then update output texts">
<polygon fill="white" stroke="black" points="1389,-160.5 1389,-181.5 1551,-181.5 1551,-160.5 1389,-160.5"/>
<text text-anchor="middle" x="1470" y="-167.9" font-family="Helvetica,sans-Serif" font-size="12.00">NotebookTestScript.Update</text>
</a>
</g>
</g>
<!-- Node11&#45;&gt;Node12 -->
<g id="edge12" class="edge">
<title>Node11&#45;&gt;Node12</title>
<path fill="none" stroke="midnightblue" d="M1610.64,-171C1590.49,-171 1569.94,-171 1551.01,-171"/>
<polygon fill="midnightblue" stroke="midnightblue" points="1610.81,-174.5 1620.81,-171 1610.81,-167.5 1610.81,-174.5"/>
</g>
<!-- Node14 -->
<g id="node14" class="node">
<title>Node14</title>
<g id="a_node14"><a xlink:href="class_suggestion_test.html#a904e4481863c3e620574eba37c993a26" target="_top" xlink:title=" ">
<polygon fill="white" stroke="black" points="1175.5,-336.5 1175.5,-357.5 1301.5,-357.5 1301.5,-336.5 1175.5,-336.5"/>
<text text-anchor="middle" x="1238.5" y="-343.9" font-family="Helvetica,sans-Serif" font-size="12.00">SuggestionTest.Start</text>
</a>
</g>
</g>
<!-- Node13&#45;&gt;Node14 -->
<g id="edge14" class="edge">
<title>Node13&#45;&gt;Node14</title>
<path fill="none" stroke="midnightblue" d="M1352.62,-347C1335,-347 1317.43,-347 1301.58,-347"/>
<polygon fill="midnightblue" stroke="midnightblue" points="1352.98,-350.5 1362.98,-347 1352.98,-343.5 1352.98,-350.5"/>
</g>
<!-- Node15&#45;&gt;Node11 -->
<g id="edge16" class="edge">
<title>Node15&#45;&gt;Node11</title>
<path fill="none" stroke="midnightblue" d="M1910.03,-143.05C1873.85,-148.6 1831.3,-155.14 1796.44,-160.49"/>
<polygon fill="midnightblue" stroke="midnightblue" points="1910.7,-146.49 1920.06,-141.51 1909.64,-139.57 1910.7,-146.49"/>
</g>
<!-- Node16&#45;&gt;Node11 -->
<g id="edge18" class="edge">
<title>Node16&#45;&gt;Node11</title>
<path fill="none" stroke="midnightblue" d="M1910.03,-198.95C1873.85,-193.4 1831.3,-186.86 1796.44,-181.51"/>
<polygon fill="midnightblue" stroke="midnightblue" points="1909.64,-202.43 1920.06,-200.49 1910.7,-195.51 1909.64,-202.43"/>
</g>
<!-- Node17&#45;&gt;Node18 -->
<g id="edge20" class="edge">
<title>Node17&#45;&gt;Node18</title>
<path fill="none" stroke="midnightblue" d="M1911.55,-261.63C1876.44,-266.49 1835.08,-272.2 1800.52,-276.98"/>
<polygon fill="midnightblue" stroke="midnightblue" points="1912.33,-265.06 1921.75,-260.22 1911.37,-258.13 1912.33,-265.06"/>
</g>
<!-- Node19 -->
<g id="node19" class="node">
<title>Node19</title>
<g id="a_node19"><a xlink:href="class_round_manager.html#a29177f2e27c6c4af55dfa3c48d67cfb0" target="_top" xlink:title="Ending the turn. Returns the next player">
<polygon fill="white" stroke="black" points="1398.5,-256.5 1398.5,-277.5 1541.5,-277.5 1541.5,-256.5 1398.5,-256.5"/>
<text text-anchor="middle" x="1470" y="-263.9" font-family="Helvetica,sans-Serif" font-size="12.00">RoundManager.EndTurn</text>
</a>
</g>
</g>
<!-- Node18&#45;&gt;Node19 -->
<g id="edge21" class="edge">
<title>Node18&#45;&gt;Node19</title>
<path fill="none" stroke="midnightblue" d="M1643.25,-280.51C1610.45,-277.94 1573.13,-275.01 1541.63,-272.54"/>
<polygon fill="midnightblue" stroke="midnightblue" points="1643.03,-284 1653.27,-281.3 1643.57,-277.02 1643.03,-284"/>
</g>
<!-- Node23 -->
<g id="node23" class="node">
<title>Node23</title>
<g id="a_node23"><a xlink:href="class_game_manager_script.html#a12cbaf1ff00804887619c07c7267cf31" target="_top" xlink:title="starting and initialing the game and it&#39;s components">
<polygon fill="white" stroke="black" points="1377,-296.5 1377,-317.5 1563,-317.5 1563,-296.5 1377,-296.5"/>
<text text-anchor="middle" x="1470" y="-303.9" font-family="Helvetica,sans-Serif" font-size="12.00">GameManagerScript.StartGame</text>
</a>
</g>
</g>
<!-- Node18&#45;&gt;Node23 -->
<g id="edge26" class="edge">
<title>Node18&#45;&gt;Node23</title>
<path fill="none" stroke="midnightblue" d="M1643.27,-293.49C1617.76,-295.49 1589.52,-297.7 1563.41,-299.75"/>
<polygon fill="midnightblue" stroke="midnightblue" points="1643.57,-296.98 1653.27,-292.7 1643.03,-290 1643.57,-296.98"/>
</g>
<!-- Node20 -->
<g id="node20" class="node">
<title>Node20</title>
<g id="a_node20"><a xlink:href="class_user_controller.html#ab90611f541e20c125133d09b62407f41" target="_top" xlink:title="Ends turn">
<polygon fill="white" stroke="black" points="1169.5,-261.5 1169.5,-282.5 1307.5,-282.5 1307.5,-261.5 1169.5,-261.5"/>
<text text-anchor="middle" x="1238.5" y="-268.9" font-family="Helvetica,sans-Serif" font-size="12.00">UserController.EndTurn</text>
</a>
</g>
</g>
<!-- Node19&#45;&gt;Node20 -->
<g id="edge22" class="edge">
<title>Node19&#45;&gt;Node20</title>
<path fill="none" stroke="midnightblue" d="M1387.96,-268.77C1361.71,-269.34 1332.86,-269.97 1307.64,-270.52"/>
<polygon fill="midnightblue" stroke="midnightblue" points="1388.35,-272.26 1398.27,-268.54 1388.2,-265.26 1388.35,-272.26"/>
</g>
<!-- Node21 -->
<g id="node21" class="node">
<title>Node21</title>
<g id="a_node21"><a xlink:href="class_a_i_controller_script.html#a9c386cf1258ad897c9a1068804f07ba0" target="_top" xlink:title="have AI to end turn">
<polygon fill="white" stroke="black" points="705.5,-330.5 705.5,-351.5 860.5,-351.5 860.5,-330.5 705.5,-330.5"/>
<text text-anchor="middle" x="783" y="-337.9" font-family="Helvetica,sans-Serif" font-size="12.00">AIControllerScript.EndTurn</text>
</a>
</g>
</g>
<!-- Node20&#45;&gt;Node21 -->
<g id="edge23" class="edge">
<title>Node20&#45;&gt;Node21</title>
<path fill="none" stroke="midnightblue" d="M1163.42,-284.16C1147.15,-286.78 1130,-289.52 1114,-292 1025.57,-305.72 923.68,-320.73 856.79,-330.47"/>
<polygon fill="midnightblue" stroke="midnightblue" points="1164.11,-287.59 1173.43,-282.54 1163,-280.68 1164.11,-287.59"/>
</g>
<!-- Node22 -->
<g id="node22" class="node">
<title>Node22</title>
<g id="a_node22"><a xlink:href="class_u_i_handler.html#acc06a1dab8566d9e14f7ab3ae1ffea93" target="_top" xlink:title="Ends current player&#39;s turn">
<polygon fill="white" stroke="black" points="963,-261.5 963,-282.5 1077,-282.5 1077,-261.5 963,-261.5"/>
<text text-anchor="middle" x="1020" y="-268.9" font-family="Helvetica,sans-Serif" font-size="12.00">UIHandler.EndTurn</text>
</a>
</g>
</g>
<!-- Node20&#45;&gt;Node22 -->
<g id="edge25" class="edge">
<title>Node20&#45;&gt;Node22</title>
<path fill="none" stroke="midnightblue" d="M1159.06,-272C1131.98,-272 1102.2,-272 1077.26,-272"/>
<polygon fill="midnightblue" stroke="midnightblue" points="1159.3,-275.5 1169.3,-272 1159.3,-268.5 1159.3,-275.5"/>
</g>
<!-- Node21&#45;&gt;Node8 -->
<g id="edge24" class="edge">
<title>Node21&#45;&gt;Node8</title>
<path fill="none" stroke="midnightblue" d="M695.22,-349.15C608.43,-357.31 475.75,-369.77 389.18,-377.9"/>
<polygon fill="midnightblue" stroke="midnightblue" points="695.68,-352.63 705.31,-348.21 695.02,-345.66 695.68,-352.63"/>
</g>
<!-- Node23&#45;&gt;Node14 -->
<g id="edge27" class="edge">
<title>Node23&#45;&gt;Node14</title>
<path fill="none" stroke="midnightblue" d="M1398.64,-319.26C1367.03,-324.77 1330.11,-331.21 1299.79,-336.49"/>
<polygon fill="midnightblue" stroke="midnightblue" points="1399.45,-322.67 1408.7,-317.51 1398.25,-315.78 1399.45,-322.67"/>
</g>
<!-- Node25 -->
<g id="node25" class="node">
<title>Node25</title>
<g id="a_node25"><a xlink:href="class_user_controller.html#aa90e4e2fed6b1d661933450f430b95ba" target="_top" xlink:title="Makes accusation">
<polygon fill="white" stroke="black" points="1636,-394.5 1636,-415.5 1818,-415.5 1818,-394.5 1636,-394.5"/>
<text text-anchor="middle" x="1727" y="-401.9" font-family="Helvetica,sans-Serif" font-size="12.00">UserController.MakeAccusation</text>
</a>
</g>
</g>
<!-- Node24&#45;&gt;Node25 -->
<g id="edge29" class="edge">
<title>Node24&#45;&gt;Node25</title>
<path fill="none" stroke="midnightblue" d="M1885.74,-405C1863.39,-405 1839.91,-405 1818.09,-405"/>
<polygon fill="midnightblue" stroke="midnightblue" points="1885.92,-408.5 1895.92,-405 1885.92,-401.5 1885.92,-408.5"/>
</g>
<!-- Node26 -->
<g id="node26" class="node">
<title>Node26</title>
<g id="a_node26"><a xlink:href="class_u_i_handler.html#adc2ae7669cebeb4d9109002f0d3e8c7a" target="_top" xlink:title="Hides the accusation menu">
<polygon fill="white" stroke="black" points="1385,-414.5 1385,-435.5 1555,-435.5 1555,-414.5 1385,-414.5"/>
<text text-anchor="middle" x="1470" y="-421.9" font-family="Helvetica,sans-Serif" font-size="12.00">UIHandler.ConfirmAccusation</text>
</a>
</g>
</g>
<!-- Node25&#45;&gt;Node26 -->
<g id="edge30" class="edge">
<title>Node25&#45;&gt;Node26</title>
<path fill="none" stroke="midnightblue" d="M1625.49,-412.88C1602.21,-414.71 1577.67,-416.63 1555.17,-418.4"/>
<polygon fill="midnightblue" stroke="midnightblue" points="1626.04,-416.35 1635.74,-412.08 1625.49,-409.37 1626.04,-416.35"/>
</g>
<!-- Node27 -->
<g id="node27" class="node">
<title>Node27</title>
<g id="a_node27"><a xlink:href="class_a_i_controller_script.html#a7be5eb284c6258672e70af128f8638df" target="_top" xlink:title="Decides that cards to accuse based on the To Guess List">
<polygon fill="white" stroke="black" points="676,-375.5 676,-396.5 890,-396.5 890,-375.5 676,-375.5"/>
<text text-anchor="middle" x="783" y="-382.9" font-family="Helvetica,sans-Serif" font-size="12.00">AIControllerScript.Decide_Accusation</text>
</a>
</g>
</g>
<!-- Node25&#45;&gt;Node27 -->
<g id="edge31" class="edge">
<title>Node25&#45;&gt;Node27</title>
<path fill="none" stroke="midnightblue" d="M1625.46,-402.97C1446.25,-399.36 1073.26,-391.83 890.11,-388.14"/>
<polygon fill="midnightblue" stroke="midnightblue" points="1625.61,-406.48 1635.68,-403.18 1625.75,-399.48 1625.61,-406.48"/>
</g>
<!-- Node27&#45;&gt;Node8 -->
<g id="edge32" class="edge">
<title>Node27&#45;&gt;Node8</title>
<path fill="none" stroke="midnightblue" d="M665.73,-386C580.41,-386 466.41,-386 389.15,-386"/>
<polygon fill="midnightblue" stroke="midnightblue" points="665.99,-389.5 675.99,-386 665.99,-382.5 665.99,-389.5"/>
</g>
<!-- Node29 -->
<g id="node29" class="node">
<title>Node29</title>
<g id="a_node29"><a xlink:href="class_round_manager.html#a6cf32ad7ffd3cafc902ae5faeb7605f8" target="_top" xlink:title="removing a card from the player&#39;s To Guess List notify the AI if a player finished showing a suggeste...">
<polygon fill="white" stroke="black" points="1633,-628.5 1633,-649.5 1821,-649.5 1821,-628.5 1633,-628.5"/>
<text text-anchor="middle" x="1727" y="-635.9" font-family="Helvetica,sans-Serif" font-size="12.00">RoundManager.NotifySuggestion</text>
</a>
</g>
</g>
<!-- Node28&#45;&gt;Node29 -->
<g id="edge35" class="edge">
<title>Node28&#45;&gt;Node29</title>
<path fill="none" stroke="midnightblue" d="M1879.27,-639C1860.02,-639 1840.14,-639 1821.38,-639"/>
<polygon fill="midnightblue" stroke="midnightblue" points="1879.27,-642.5 1889.27,-639 1879.27,-635.5 1879.27,-642.5"/>
</g>
<!-- Node29&#45;&gt;Node3 -->
<g id="edge36" class="edge">
<title>Node29&#45;&gt;Node3</title>
<path fill="none" stroke="midnightblue" d="M1622.66,-638.85C1485.68,-638.66 1245.99,-638.32 1114.27,-638.13"/>
<polygon fill="midnightblue" stroke="midnightblue" points="1622.74,-642.35 1632.75,-638.87 1622.75,-635.35 1622.74,-642.35"/>
</g>
<!-- Node29&#45;&gt;Node30 -->
<g id="edge37" class="edge">
<title>Node29&#45;&gt;Node30</title>
<path fill="none" stroke="midnightblue" d="M1648.75,-626.88C1611.74,-621.08 1568,-614.22 1533.18,-608.75"/>
<polygon fill="midnightblue" stroke="midnightblue" points="1648.58,-630.4 1659,-628.49 1649.66,-623.48 1648.58,-630.4"/>
</g>
<!-- Node31 -->
<g id="node31" class="node">
<title>Node31</title>
<g id="a_node31"><a xlink:href="class_round_manager.html#a780da336fd16dcaee0f00306578f13b4" target="_top" xlink:title=" ">
<polygon fill="white" stroke="black" points="1155.5,-588.5 1155.5,-609.5 1321.5,-609.5 1321.5,-588.5 1155.5,-588.5"/>
<text text-anchor="middle" x="1238.5" y="-595.9" font-family="Helvetica,sans-Serif" font-size="12.00">RoundManager.AIShowCard</text>
</a>
</g>
</g>
<!-- Node30&#45;&gt;Node31 -->
<g id="edge38" class="edge">
<title>Node30&#45;&gt;Node31</title>
<path fill="none" stroke="midnightblue" d="M1396.88,-599C1373.08,-599 1346.43,-599 1321.92,-599"/>
<polygon fill="midnightblue" stroke="midnightblue" points="1396.89,-602.5 1406.89,-599 1396.89,-595.5 1396.89,-602.5"/>
</g>
<!-- Node30&#45;&gt;Node32 -->
<g id="edge40" class="edge">
<title>Node30&#45;&gt;Node32</title>
<path fill="none" stroke="midnightblue" d="M1428.3,-585.17C1383.23,-569.85 1311.54,-545.48 1270.69,-531.6"/>
<polygon fill="midnightblue" stroke="midnightblue" points="1427.45,-588.58 1438.05,-588.48 1429.71,-581.95 1427.45,-588.58"/>
</g>
<!-- Node31&#45;&gt;Node3 -->
<g id="edge39" class="edge">
<title>Node31&#45;&gt;Node3</title>
<path fill="none" stroke="midnightblue" d="M1169.19,-611.3C1140.34,-616.5 1107.09,-622.49 1079.41,-627.48"/>
<polygon fill="midnightblue" stroke="midnightblue" points="1169.98,-614.72 1179.2,-609.5 1168.74,-607.83 1169.98,-614.72"/>
</g>
<!-- Node35 -->
<g id="node35" class="node">
<title>Node35</title>
<g id="a_node35"><a xlink:href="class_notebook_script.html#a0d865d47dca27b4d3e7a0a1a35036efb" target="_top" xlink:title="Create the character buttons">
<polygon fill="white" stroke="black" points="1613,-40.5 1613,-61.5 1841,-61.5 1841,-40.5 1613,-40.5"/>
<text text-anchor="middle" x="1727" y="-47.9" font-family="Helvetica,sans-Serif" font-size="12.00">NotebookScript.CreateCharacterButtons</text>
</a>
</g>
</g>
<!-- Node34&#45;&gt;Node35 -->
<g id="edge43" class="edge">
<title>Node34&#45;&gt;Node35</title>
<path fill="none" stroke="midnightblue" d="M1910.03,-78.95C1873.85,-73.4 1831.3,-66.86 1796.44,-61.51"/>
<polygon fill="midnightblue" stroke="midnightblue" points="1909.64,-82.43 1920.06,-80.49 1910.7,-75.51 1909.64,-82.43"/>
</g>
<!-- Node38 -->
<g id="node38" class="node">
<title>Node38</title>
<g id="a_node38"><a xlink:href="class_notebook_script.html#a970cdef3e0f21b0cc144fef7088bbeb0" target="_top" xlink:title="Create the room buttons">
<polygon fill="white" stroke="black" points="1623,-120.5 1623,-141.5 1831,-141.5 1831,-120.5 1623,-120.5"/>
<text text-anchor="middle" x="1727" y="-127.9" font-family="Helvetica,sans-Serif" font-size="12.00">NotebookScript.CreateRoomButtons</text>
</a>
</g>
</g>
<!-- Node34&#45;&gt;Node38 -->
<g id="edge46" class="edge">
<title>Node34&#45;&gt;Node38</title>
<path fill="none" stroke="midnightblue" d="M1910.03,-103.05C1873.85,-108.6 1831.3,-115.14 1796.44,-120.49"/>
<polygon fill="midnightblue" stroke="midnightblue" points="1910.7,-106.49 1920.06,-101.51 1909.64,-99.57 1910.7,-106.49"/>
</g>
<!-- Node39 -->
<g id="node39" class="node">
<title>Node39</title>
<g id="a_node39"><a xlink:href="class_notebook_script.html#a32b5d422887498e904d1b820605978eb" target="_top" xlink:title="Create the Weapon buttons">
<polygon fill="white" stroke="black" points="1616.5,-80.5 1616.5,-101.5 1837.5,-101.5 1837.5,-80.5 1616.5,-80.5"/>
<text text-anchor="middle" x="1727" y="-87.9" font-family="Helvetica,sans-Serif" font-size="12.00">NotebookScript.CreateWeaponButtons</text>
</a>
</g>
</g>
<!-- Node34&#45;&gt;Node39 -->
<g id="edge48" class="edge">
<title>Node34&#45;&gt;Node39</title>
<path fill="none" stroke="midnightblue" d="M1888.93,-91C1872.23,-91 1854.83,-91 1837.9,-91"/>
<polygon fill="midnightblue" stroke="midnightblue" points="1889.22,-94.5 1899.22,-91 1889.22,-87.5 1889.22,-94.5"/>
</g>
<!-- Node36 -->
<g id="node36" class="node">
<title>Node36</title>
<g id="a_node36"><a xlink:href="class_notebook_script.html#a829e34fac5e19bf031c070b44f0fe370" target="_top" xlink:title="Initialize notebook UI">
<polygon fill="white" stroke="black" points="1373,-80.5 1373,-101.5 1567,-101.5 1567,-80.5 1373,-80.5"/>
<text text-anchor="middle" x="1470" y="-87.9" font-family="Helvetica,sans-Serif" font-size="12.00">NotebookScript.initializeNotebook</text>
</a>
</g>
</g>
<!-- Node35&#45;&gt;Node36 -->
<g id="edge44" class="edge">
<title>Node35&#45;&gt;Node36</title>
<path fill="none" stroke="midnightblue" d="M1648.73,-63.12C1613.41,-68.66 1571.97,-75.16 1537.99,-80.49"/>
<polygon fill="midnightblue" stroke="midnightblue" points="1649.66,-66.52 1659,-61.51 1648.58,-59.6 1649.66,-66.52"/>
</g>
<!-- Node37 -->
<g id="node37" class="node">
<title>Node37</title>
<g id="a_node37"><a xlink:href="class_notebook_script.html#ad7fb4caee1659d66f551b02983ef9d4c" target="_top" xlink:title="Initialize notebook on awake">
<polygon fill="white" stroke="black" points="1170,-80.5 1170,-101.5 1307,-101.5 1307,-80.5 1170,-80.5"/>
<text text-anchor="middle" x="1238.5" y="-87.9" font-family="Helvetica,sans-Serif" font-size="12.00">NotebookScript.Awake</text>
</a>
</g>
</g>
<!-- Node36&#45;&gt;Node37 -->
<g id="edge45" class="edge">
<title>Node36&#45;&gt;Node37</title>
<path fill="none" stroke="midnightblue" d="M1362.52,-91C1343.63,-91 1324.44,-91 1307.01,-91"/>
<polygon fill="midnightblue" stroke="midnightblue" points="1362.67,-94.5 1372.67,-91 1362.67,-87.5 1362.67,-94.5"/>
</g>
<!-- Node38&#45;&gt;Node36 -->
<g id="edge47" class="edge">
<title>Node38&#45;&gt;Node36</title>
<path fill="none" stroke="midnightblue" d="M1648.73,-118.88C1613.41,-113.34 1571.97,-106.84 1537.99,-101.51"/>
<polygon fill="midnightblue" stroke="midnightblue" points="1648.58,-122.4 1659,-120.49 1649.66,-115.48 1648.58,-122.4"/>
</g>
<!-- Node39&#45;&gt;Node36 -->
<g id="edge49" class="edge">
<title>Node39&#45;&gt;Node36</title>
<path fill="none" stroke="midnightblue" d="M1606,-91C1593.02,-91 1579.93,-91 1567.28,-91"/>
<polygon fill="midnightblue" stroke="midnightblue" points="1606.38,-94.5 1616.38,-91 1606.38,-87.5 1606.38,-94.5"/>
</g>
<!-- Node41 -->
<g id="node41" class="node">
<title>Node41</title>
<g id="a_node41"><a xlink:href="class_accusation_card_slot.html#a3baa56168b0122b356b29c4341ed0edd" target="_top" xlink:title=" ">
<polygon fill="white" stroke="black" points="1643,-0.5 1643,-21.5 1811,-21.5 1811,-0.5 1643,-0.5"/>
<text text-anchor="middle" x="1727" y="-7.9" font-family="Helvetica,sans-Serif" font-size="12.00">AccusationCardSlot.SetCard</text>
</a>
</g>
</g>
<!-- Node40&#45;&gt;Node41 -->
<g id="edge51" class="edge">
<title>Node40&#45;&gt;Node41</title>
<path fill="none" stroke="midnightblue" d="M1876.65,-22.41C1854.71,-20.73 1832.07,-18.99 1811.27,-17.39"/>
<polygon fill="midnightblue" stroke="midnightblue" points="1876.43,-25.91 1886.66,-23.18 1876.96,-18.93 1876.43,-25.91"/>
</g>
<!-- Node43 -->
<g id="node43" class="node">
<title>Node43</title>
<g id="a_node43"><a xlink:href="class_card_slot.html#a9049dedcebbbc4b2185a2a01d76d4ed5" target="_top" xlink:title=" ">
<polygon fill="white" stroke="black" points="1672,-550.5 1672,-571.5 1782,-571.5 1782,-550.5 1672,-550.5"/>
<text text-anchor="middle" x="1727" y="-557.9" font-family="Helvetica,sans-Serif" font-size="12.00">CardSlot.SetCard</text>
</a>
</g>
</g>
<!-- Node42&#45;&gt;Node43 -->
<g id="edge53" class="edge">
<title>Node42&#45;&gt;Node43</title>
<path fill="none" stroke="midnightblue" d="M1910.01,-533.05C1868.67,-539.4 1819.02,-547.02 1782.03,-552.7"/>
<polygon fill="midnightblue" stroke="midnightblue" points="1910.7,-536.49 1920.06,-531.51 1909.64,-529.57 1910.7,-536.49"/>
</g>
<!-- Node44 -->
<g id="node44" class="node">
<title>Node44</title>
<g id="a_node44"><a xlink:href="class_card_slot.html#ae310a62480f76e3854115d32beb1af00" target="_top" xlink:title=" ">
<polygon fill="white" stroke="black" points="1681.5,-510.5 1681.5,-531.5 1772.5,-531.5 1772.5,-510.5 1681.5,-510.5"/>
<text text-anchor="middle" x="1727" y="-517.9" font-family="Helvetica,sans-Serif" font-size="12.00">CardSlot.Start</text>
</a>
</g>
</g>
<!-- Node42&#45;&gt;Node44 -->
<g id="edge56" class="edge">
<title>Node42&#45;&gt;Node44</title>
<path fill="none" stroke="midnightblue" d="M1905.81,-521C1861.75,-521 1809.28,-521 1772.8,-521"/>
<polygon fill="midnightblue" stroke="midnightblue" points="1905.94,-524.5 1915.94,-521 1905.94,-517.5 1905.94,-524.5"/>
</g>
<!-- Node43&#45;&gt;Node30 -->
<g id="edge55" class="edge">
<title>Node43&#45;&gt;Node30</title>
<path fill="none" stroke="midnightblue" d="M1661.88,-570.55C1622.44,-576.43 1572.14,-583.93 1533.07,-589.75"/>
<polygon fill="midnightblue" stroke="midnightblue" points="1662.55,-573.99 1671.92,-569.06 1661.51,-567.07 1662.55,-573.99"/>
</g>
<!-- Node43&#45;&gt;Node33 -->
<g id="edge54" class="edge">
<title>Node43&#45;&gt;Node33</title>
<path fill="none" stroke="midnightblue" d="M1661.68,-555.96C1627.83,-553.3 1586.01,-550.02 1550.18,-547.21"/>
<polygon fill="midnightblue" stroke="midnightblue" points="1661.68,-559.47 1671.92,-556.76 1662.23,-552.49 1661.68,-559.47"/>
</g>
<!-- Node45&#45;&gt;Node23 -->
<g id="edge60" class="edge">
<title>Node45&#45;&gt;Node23</title>
<path fill="none" stroke="midnightblue" d="M1642.93,-320.48C1617.44,-318.49 1589.24,-316.27 1563.18,-314.23"/>
<polygon fill="midnightblue" stroke="midnightblue" points="1642.68,-323.98 1652.93,-321.27 1643.23,-317 1642.68,-323.98"/>
</g>
</g>
</svg>
