<?xml version="1.0" encoding="UTF-8" standalone="no"?>
<!DOCTYPE svg PUBLIC "-//W3C//DTD SVG 1.1//EN"
 "http://www.w3.org/Graphics/SVG/1.1/DTD/svg11.dtd">
<!-- Generated by graphviz version 2.47.1 (20210417.1919)
 -->
<!-- Title: CameraCloseUp.SetCloseUp Pages: 1 -->
<!--zoomable 150 -->
<svg id="main" version="1.1" xmlns="http://www.w3.org/2000/svg" xmlns:xlink="http://www.w3.org/1999/xlink" xml:space="preserve" onload="init(evt)">
<style type="text/css"><![CDATA[
.edge:hover path { stroke: red; }
.edge:hover polygon { stroke: red; fill: red; }
]]></style>
<script type="text/javascript"><![CDATA[
var edges = document.getElementsByTagName('g');
if (edges && edges.length) {
  for (var i=0;i<edges.length;i++) {
    if (edges[i].id.substr(0,4)=='edge') {
      edges[i].setAttribute('class','edge');
    }
  }
}
]]></script>
        <defs>
                <circle id="rim" cx="0" cy="0" r="7"/>
                <circle id="rim2" cx="0" cy="0" r="3.5"/>
                <g id="zoomPlus">
                        <use xlink:href="#rim" fill="#404040">
                                <set attributeName="fill" to="#808080" begin="zoomplus.mouseover" end="zoomplus.mouseout"/>
                        </use>
                        <path d="M-4,0h8M0,-4v8" fill="none" stroke="white" stroke-width="1.5" pointer-events="none"/>
                </g>
                <g id="zoomMin">
                        <use xlink:href="#rim" fill="#404040">
                                <set attributeName="fill" to="#808080" begin="zoomminus.mouseover" end="zoomminus.mouseout"/>
                        </use>
                        <path d="M-4,0h8" fill="none" stroke="white" stroke-width="1.5" pointer-events="none"/>
                </g>
                <g id="dirArrow">
                        <path fill="none" stroke="white" stroke-width="1.5" d="M0,-3.0v7 M-2.5,-0.5L0,-3.0L2.5,-0.5"/>
                </g>
               <g id="resetDef">
                       <use xlink:href="#rim2" fill="#404040">
                               <set attributeName="fill" to="#808080" begin="reset.mouseover" end="reset.mouseout"/>
                       </use>
               </g>
        </defs>

<script type="text/javascript">
var viewWidth = 1958;
var viewHeight = 150;
var sectionId = 'dynsection-9';
</script>
<script xlink:href="svgpan.js"/>
<svg id="graph" class="graph">
<g id="viewport">
<title>CameraCloseUp.SetCloseUp</title>
<polygon fill="white" stroke="transparent" points="-4,4 -4,-146 1954,-146 1954,4 -4,4"/>
<!-- Node1 -->
<g id="node1" class="node">
<title>Node1</title>
<g id="a_node1"><a xlink:title="Set close up point">
<polygon fill="#bfbfbf" stroke="black" points="1778,-40.5 1778,-61.5 1950,-61.5 1950,-40.5 1778,-40.5"/>
<text text-anchor="middle" x="1864" y="-47.9" font-family="Helvetica,sans-Serif" font-size="12.00">CameraCloseUp.SetCloseUp</text>
</a>
</g>
</g>
<!-- Node2 -->
<g id="node2" class="node">
<title>Node2</title>
<g id="a_node2"><a xlink:href="class_camera_close_up.html#aee634e08987ea079413fd67b737b2c5d" target="_top" xlink:title="Set camera close up to character">
<polygon fill="white" stroke="black" points="1518,-80.5 1518,-101.5 1742,-101.5 1742,-80.5 1518,-80.5"/>
<text text-anchor="middle" x="1630" y="-87.9" font-family="Helvetica,sans-Serif" font-size="12.00">CameraCloseUp.SetCharacterCloseUp</text>
</a>
</g>
</g>
<!-- Node1&#45;&gt;Node2 -->
<g id="edge1" class="edge">
<title>Node1&#45;&gt;Node2</title>
<path fill="none" stroke="midnightblue" d="M1791.87,-63.26C1759.92,-68.77 1722.6,-75.21 1691.95,-80.49"/>
<polygon fill="midnightblue" stroke="midnightblue" points="1792.78,-66.66 1802.04,-61.51 1791.6,-59.76 1792.78,-66.66"/>
</g>
<!-- Node13 -->
<g id="node13" class="node">
<title>Node13</title>
<g id="a_node13"><a xlink:href="class_camera_close_up.html#a2a7e3969d2c696d94a6f0f6bf8b3c56a" target="_top" xlink:title="For testing camera close ups">
<polygon fill="white" stroke="black" points="1534.5,-40.5 1534.5,-61.5 1725.5,-61.5 1725.5,-40.5 1534.5,-40.5"/>
<text text-anchor="middle" x="1630" y="-47.9" font-family="Helvetica,sans-Serif" font-size="12.00">CameraCloseUp.TestSetCamera</text>
</a>
</g>
</g>
<!-- Node1&#45;&gt;Node13 -->
<g id="edge12" class="edge">
<title>Node1&#45;&gt;Node13</title>
<path fill="none" stroke="midnightblue" d="M1767.91,-51C1754.02,-51 1739.73,-51 1725.85,-51"/>
<polygon fill="midnightblue" stroke="midnightblue" points="1767.93,-54.5 1777.93,-51 1767.93,-47.5 1767.93,-54.5"/>
</g>
<!-- Node15 -->
<g id="node15" class="node">
<title>Node15</title>
<g id="a_node15"><a xlink:href="class_dice.html#adfddf272c9cd1ec9ea4639bbdb6b8126" target="_top" xlink:title="Set close up camera if set close up = true">
<polygon fill="white" stroke="black" points="1588.5,-0.5 1588.5,-21.5 1671.5,-21.5 1671.5,-0.5 1588.5,-0.5"/>
<text text-anchor="middle" x="1630" y="-7.9" font-family="Helvetica,sans-Serif" font-size="12.00">Dice.Update</text>
</a>
</g>
</g>
<!-- Node1&#45;&gt;Node15 -->
<g id="edge14" class="edge">
<title>Node1&#45;&gt;Node15</title>
<path fill="none" stroke="midnightblue" d="M1791.96,-38.75C1752.57,-31.96 1705,-23.76 1671.83,-18.04"/>
<polygon fill="midnightblue" stroke="midnightblue" points="1791.6,-42.24 1802.04,-40.49 1792.78,-35.34 1791.6,-42.24"/>
</g>
<!-- Node3 -->
<g id="node3" class="node">
<title>Node3</title>
<g id="a_node3"><a xlink:href="class_player_token_script.html#af62557bd1edf071efadf23c84f0db1ad" target="_top" xlink:title=" ">
<polygon fill="white" stroke="black" points="1306,-80.5 1306,-101.5 1482,-101.5 1482,-80.5 1306,-80.5"/>
<text text-anchor="middle" x="1394" y="-87.9" font-family="Helvetica,sans-Serif" font-size="12.00">PlayerTokenScript.MoveToken</text>
</a>
</g>
</g>
<!-- Node2&#45;&gt;Node3 -->
<g id="edge2" class="edge">
<title>Node2&#45;&gt;Node3</title>
<path fill="none" stroke="midnightblue" d="M1507.67,-91C1499.02,-91 1490.4,-91 1482,-91"/>
<polygon fill="midnightblue" stroke="midnightblue" points="1507.83,-94.5 1517.83,-91 1507.82,-87.5 1507.83,-94.5"/>
</g>
<!-- Node4 -->
<g id="node4" class="node">
<title>Node4</title>
<g id="a_node4"><a xlink:href="class_player_master_controller.html#a9b23c4d50fabbc44dbba2b0db542efce" target="_top" xlink:title="moving the player to a certain tile">
<polygon fill="white" stroke="black" points="1070,-100.5 1070,-121.5 1270,-121.5 1270,-100.5 1070,-100.5"/>
<text text-anchor="middle" x="1170" y="-107.9" font-family="Helvetica,sans-Serif" font-size="12.00">PlayerMasterController.MovePlayer</text>
</a>
</g>
</g>
<!-- Node3&#45;&gt;Node4 -->
<g id="edge3" class="edge">
<title>Node3&#45;&gt;Node4</title>
<path fill="none" stroke="midnightblue" d="M1295.7,-99.77C1287.3,-100.52 1278.78,-101.29 1270.35,-102.05"/>
<polygon fill="midnightblue" stroke="midnightblue" points="1296.25,-103.23 1305.9,-98.85 1295.62,-96.26 1296.25,-103.23"/>
</g>
<!-- Node12 -->
<g id="node12" class="node">
<title>Node12</title>
<g id="a_node12"><a xlink:href="class_player_token_script.html#aabf6e085b41ef90234c5580c48389200" target="_top" xlink:title=" ">
<polygon fill="white" stroke="black" points="1093,-60.5 1093,-81.5 1247,-81.5 1247,-60.5 1093,-60.5"/>
<text text-anchor="middle" x="1170" y="-67.9" font-family="Helvetica,sans-Serif" font-size="12.00">PlayerTokenScript.Update</text>
</a>
</g>
</g>
<!-- Node3&#45;&gt;Node12 -->
<g id="edge11" class="edge">
<title>Node3&#45;&gt;Node12</title>
<path fill="none" stroke="midnightblue" d="M1295.8,-82.24C1279.47,-80.77 1262.74,-79.27 1247.05,-77.85"/>
<polygon fill="midnightblue" stroke="midnightblue" points="1295.62,-85.74 1305.9,-83.15 1296.25,-78.77 1295.62,-85.74"/>
</g>
<!-- Node5 -->
<g id="node5" class="node">
<title>Node5</title>
<g id="a_node5"><a xlink:href="class_shortcut_test_u_i.html#a3012692eeb4658dc688e82b431cc10f6" target="_top" xlink:title="Enter a room">
<polygon fill="white" stroke="black" points="876,-120.5 876,-141.5 1031,-141.5 1031,-120.5 876,-120.5"/>
<text text-anchor="middle" x="953.5" y="-127.9" font-family="Helvetica,sans-Serif" font-size="12.00">ShortcutTestUI.EnterRoom</text>
</a>
</g>
</g>
<!-- Node4&#45;&gt;Node5 -->
<g id="edge4" class="edge">
<title>Node4&#45;&gt;Node5</title>
<path fill="none" stroke="midnightblue" d="M1059.79,-121.18C1050.07,-122.09 1040.37,-122.99 1031.02,-123.87"/>
<polygon fill="midnightblue" stroke="midnightblue" points="1060.28,-124.65 1069.91,-120.24 1059.63,-117.68 1060.28,-124.65"/>
</g>
<!-- Node6 -->
<g id="node6" class="node">
<title>Node6</title>
<g id="a_node6"><a xlink:href="class_round_manager.html#adfd4f66436e06c12a25c9236b629f369" target="_top" xlink:title="moving the current player to the selected tile">
<polygon fill="white" stroke="black" points="873,-80.5 873,-101.5 1034,-101.5 1034,-80.5 873,-80.5"/>
<text text-anchor="middle" x="953.5" y="-87.9" font-family="Helvetica,sans-Serif" font-size="12.00">RoundManager.MovePlayer</text>
</a>
</g>
</g>
<!-- Node4&#45;&gt;Node6 -->
<g id="edge5" class="edge">
<title>Node4&#45;&gt;Node6</title>
<path fill="none" stroke="midnightblue" d="M1059.8,-100.82C1051.18,-100.01 1042.57,-99.21 1034.21,-98.43"/>
<polygon fill="midnightblue" stroke="midnightblue" points="1059.63,-104.32 1069.91,-101.76 1060.28,-97.35 1059.63,-104.32"/>
</g>
<!-- Node7 -->
<g id="node7" class="node">
<title>Node7</title>
<g id="a_node7"><a xlink:href="class_user_controller.html#af896aefe0262e0d8f07fa5f18592877d" target="_top" xlink:title="Selects a tile for player movement">
<polygon fill="white" stroke="black" points="691,-80.5 691,-101.5 837,-101.5 837,-80.5 691,-80.5"/>
<text text-anchor="middle" x="764" y="-87.9" font-family="Helvetica,sans-Serif" font-size="12.00">UserController.SelectTile</text>
</a>
</g>
</g>
<!-- Node6&#45;&gt;Node7 -->
<g id="edge6" class="edge">
<title>Node6&#45;&gt;Node7</title>
<path fill="none" stroke="midnightblue" d="M862.9,-91C854.29,-91 845.62,-91 837.2,-91"/>
<polygon fill="midnightblue" stroke="midnightblue" points="862.98,-94.5 872.98,-91 862.98,-87.5 862.98,-94.5"/>
</g>
<!-- Node8 -->
<g id="node8" class="node">
<title>Node8</title>
<g id="a_node8"><a xlink:href="class_a_i_controller_script.html#af04897fa0ae4ed5e472dea79bce8d7df" target="_top" xlink:title="Decides where the AI should move to this should match the flow chart of the AI">
<polygon fill="white" stroke="black" points="435,-100.5 435,-121.5 645,-121.5 645,-100.5 435,-100.5"/>
<text text-anchor="middle" x="540" y="-107.9" font-family="Helvetica,sans-Serif" font-size="12.00">AIControllerScript.Decide_Movement</text>
</a>
</g>
</g>
<!-- Node7&#45;&gt;Node8 -->
<g id="edge7" class="edge">
<title>Node7&#45;&gt;Node8</title>
<path fill="none" stroke="midnightblue" d="M680.88,-98.4C669.31,-99.44 657.29,-100.52 645.37,-101.6"/>
<polygon fill="midnightblue" stroke="midnightblue" points="681.28,-101.88 690.92,-97.49 680.65,-94.9 681.28,-101.88"/>
</g>
<!-- Node11 -->
<g id="node11" class="node">
<title>Node11</title>
<g id="a_node11"><a xlink:href="class_user_input_control_script.html#a13be570929e27dad6d3d452ccd5f52eb" target="_top" xlink:title="move player token to the tile the cursor is on">
<polygon fill="white" stroke="black" points="425,-60.5 425,-81.5 655,-81.5 655,-60.5 425,-60.5"/>
<text text-anchor="middle" x="540" y="-67.9" font-family="Helvetica,sans-Serif" font-size="12.00">UserInputControlScript.MovePlayerToken</text>
</a>
</g>
</g>
<!-- Node7&#45;&gt;Node11 -->
<g id="edge10" class="edge">
<title>Node7&#45;&gt;Node11</title>
<path fill="none" stroke="midnightblue" d="M680.79,-83.59C672.37,-82.83 663.71,-82.05 655.03,-81.27"/>
<polygon fill="midnightblue" stroke="midnightblue" points="680.65,-87.1 690.92,-84.51 681.28,-80.12 680.65,-87.1"/>
</g>
<!-- Node9 -->
<g id="node9" class="node">
<title>Node9</title>
<g id="a_node9"><a xlink:href="class_a_i_controller_script.html#ac31d9b8dbb75696b181eff1fbef41b97" target="_top" xlink:title="dictates what the AI will do depending on what mode it is in">
<polygon fill="white" stroke="black" points="215,-100.5 215,-121.5 389,-121.5 389,-100.5 215,-100.5"/>
<text text-anchor="middle" x="302" y="-107.9" font-family="Helvetica,sans-Serif" font-size="12.00">AIControllerScript.AIBehaviour</text>
</a>
</g>
</g>
<!-- Node8&#45;&gt;Node9 -->
<g id="edge8" class="edge">
<title>Node8&#45;&gt;Node9</title>
<path fill="none" stroke="midnightblue" d="M424.8,-111C412.87,-111 400.88,-111 389.33,-111"/>
<polygon fill="midnightblue" stroke="midnightblue" points="424.8,-114.5 434.8,-111 424.8,-107.5 424.8,-114.5"/>
</g>
<!-- Node10 -->
<g id="node10" class="node">
<title>Node10</title>
<g id="a_node10"><a xlink:href="class_a_i_controller_script.html#a74dc0e720fafceb873d3b19c12f68d58" target="_top" xlink:title=" ">
<polygon fill="white" stroke="black" points="0,-100.5 0,-121.5 179,-121.5 179,-100.5 0,-100.5"/>
<text text-anchor="middle" x="89.5" y="-107.9" font-family="Helvetica,sans-Serif" font-size="12.00">AIControllerScript.FixedUpdate</text>
</a>
</g>
</g>
<!-- Node9&#45;&gt;Node10 -->
<g id="edge9" class="edge">
<title>Node9&#45;&gt;Node10</title>
<path fill="none" stroke="midnightblue" d="M204.57,-111C196.15,-111 187.67,-111 179.32,-111"/>
<polygon fill="midnightblue" stroke="midnightblue" points="204.77,-114.5 214.77,-111 204.77,-107.5 204.77,-114.5"/>
</g>
<!-- Node14 -->
<g id="node14" class="node">
<title>Node14</title>
<g id="a_node14"><a xlink:href="class_camera_close_up.html#ab267d3e10045453ca402ae9c82069a01" target="_top" xlink:title="If test keys = true &#45; numpad / numbers control close ups lerp camera position towards close up point ...">
<polygon fill="white" stroke="black" points="1321,-40.5 1321,-61.5 1467,-61.5 1467,-40.5 1321,-40.5"/>
<text text-anchor="middle" x="1394" y="-47.9" font-family="Helvetica,sans-Serif" font-size="12.00">CameraCloseUp.Update</text>
</a>
</g>
</g>
<!-- Node13&#45;&gt;Node14 -->
<g id="edge13" class="edge">
<title>Node13&#45;&gt;Node14</title>
<path fill="none" stroke="midnightblue" d="M1524.44,-51C1505.09,-51 1485.29,-51 1467.18,-51"/>
<polygon fill="midnightblue" stroke="midnightblue" points="1524.5,-54.5 1534.5,-51 1524.5,-47.5 1524.5,-54.5"/>
</g>
</g>
</svg>
        <g id="navigator" transform="translate(0 0)" fill="#404254">
                <rect fill="#f2f5e9" fill-opacity="0.5" stroke="#606060" stroke-width=".5" x="0" y="0" width="60" height="60"/>
                <use id="zoomplus" xlink:href="#zoomPlus" x="17" y="9" onmousedown="handleZoom(evt,'in')"/>
                <use id="zoomminus" xlink:href="#zoomMin" x="42" y="9" onmousedown="handleZoom(evt,'out')"/>
                <use id="reset" xlink:href="#resetDef" x="30" y="36" onmousedown="handleReset()"/>
                <g id="arrowUp" xlink:href="#dirArrow" transform="translate(30 24)" onmousedown="handlePan(0,-1)">
                  <use xlink:href="#rim" fill="#404040">
                        <set attributeName="fill" to="#808080" begin="arrowUp.mouseover" end="arrowUp.mouseout"/>
                  </use>
                  <path fill="none" stroke="white" stroke-width="1.5" d="M0,-3.0v7 M-2.5,-0.5L0,-3.0L2.5,-0.5"/>
                </g>
                <g id="arrowRight" xlink:href="#dirArrow" transform="rotate(90) translate(36 -43)" onmousedown="handlePan(1,0)">
                  <use xlink:href="#rim" fill="#404040">
                        <set attributeName="fill" to="#808080" begin="arrowRight.mouseover" end="arrowRight.mouseout"/>
                  </use>
                  <path fill="none" stroke="white" stroke-width="1.5" d="M0,-3.0v7 M-2.5,-0.5L0,-3.0L2.5,-0.5"/>
                </g>
                <g id="arrowDown" xlink:href="#dirArrow" transform="rotate(180) translate(-30 -48)" onmousedown="handlePan(0,1)">
                  <use xlink:href="#rim" fill="#404040">
                        <set attributeName="fill" to="#808080" begin="arrowDown.mouseover" end="arrowDown.mouseout"/>
                  </use>
                  <path fill="none" stroke="white" stroke-width="1.5" d="M0,-3.0v7 M-2.5,-0.5L0,-3.0L2.5,-0.5"/>
                </g>
                <g id="arrowLeft" xlink:href="#dirArrow" transform="rotate(270) translate(-36 17)" onmousedown="handlePan(-1,0)">
                  <use xlink:href="#rim" fill="#404040">
                        <set attributeName="fill" to="#808080" begin="arrowLeft.mouseover" end="arrowLeft.mouseout"/>
                  </use>
                  <path fill="none" stroke="white" stroke-width="1.5" d="M0,-3.0v7 M-2.5,-0.5L0,-3.0L2.5,-0.5"/>
                </g>
        </g>
        <svg viewBox="0 0 15 15" width="100%" height="30px" preserveAspectRatio="xMaxYMin meet">
         <g id="arrow_out" transform="scale(0.3 0.3)">
          <a xlink:href="class_camera_close_up_a1d70afa00d6f67abee342c029af88fcf_icgraph_org.svg" target="_base">
           <rect id="button" ry="5" rx="5" y="6" x="6" height="38" width="38"
                fill="#f2f5e9" fill-opacity="0.5" stroke="#606060" stroke-width="1.0"/>
           <path id="arrow"
             d="M 11.500037,31.436501 C 11.940474,20.09759 22.043105,11.32322 32.158766,21.979434 L 37.068811,17.246167 C 37.068811,17.246167 37.088388,32 37.088388,32 L 22.160133,31.978069 C 22.160133,31.978069 26.997745,27.140456 26.997745,27.140456 C 18.528582,18.264221 13.291696,25.230495 11.500037,31.436501 z"
             style="fill:#404040;"/>
          </a>
         </g>
        </svg>
</svg>
