<?xml version="1.0" encoding="UTF-8" standalone="no"?>
<!DOCTYPE svg PUBLIC "-//W3C//DTD SVG 1.1//EN"
 "http://www.w3.org/Graphics/SVG/1.1/DTD/svg11.dtd">
<!-- Generated by graphviz version 2.47.1 (20210417.1919)
 -->
<!-- Title: BoardTileScript.SetToken Pages: 1 -->
<svg width="1715pt" height="170pt"
 viewBox="0.00 0.00 1715.00 170.00" xmlns="http://www.w3.org/2000/svg" xmlns:xlink="http://www.w3.org/1999/xlink">
<g id="graph0" class="graph" transform="scale(1 1) rotate(0) translate(4 166)">
<title>BoardTileScript.SetToken</title>
<polygon fill="white" stroke="transparent" points="-4,4 -4,-166 1711,-166 1711,4 -4,4"/>
<!-- Node1 -->
<g id="node1" class="node">
<title>Node1</title>
<g id="a_node1"><a xlink:title="setting the player token that is currently on this tile">
<polygon fill="#bfbfbf" stroke="black" points="1555,-80.5 1555,-101.5 1707,-101.5 1707,-80.5 1555,-80.5"/>
<text text-anchor="middle" x="1631" y="-87.9" font-family="Helvetica,sans-Serif" font-size="12.00">BoardTileScript.SetToken</text>
</a>
</g>
</g>
<!-- Node2 -->
<g id="node2" class="node">
<title>Node2</title>
<g id="a_node2"><a xlink:href="class_player_token_script.html#a3c30c1b665fbcaa3db3dfe42f0871147" target="_top" xlink:title=" ">
<polygon fill="white" stroke="black" points="1324,-140.5 1324,-161.5 1519,-161.5 1519,-140.5 1324,-140.5"/>
<text text-anchor="middle" x="1421.5" y="-147.9" font-family="Helvetica,sans-Serif" font-size="12.00">PlayerTokenScript.ClearTokenTile</text>
</a>
</g>
</g>
<!-- Node1&#45;&gt;Node2 -->
<g id="edge1" class="edge">
<title>Node1&#45;&gt;Node2</title>
<path fill="none" stroke="midnightblue" d="M1594.46,-105.26C1572.89,-113.55 1544.64,-123.76 1519,-131 1506.49,-134.53 1492.9,-137.73 1479.97,-140.48"/>
<polygon fill="midnightblue" stroke="midnightblue" points="1595.82,-108.49 1603.88,-101.6 1593.29,-101.96 1595.82,-108.49"/>
</g>
<!-- Node4 -->
<g id="node4" class="node">
<title>Node4</title>
<g id="a_node4"><a xlink:href="class_board_builder.html#aa37fc56697e202c34e1f8a1ee3677ea2" target="_top" xlink:title="Instantiate a start tile and set its parameters">
<polygon fill="white" stroke="black" points="1337.5,-100.5 1337.5,-121.5 1505.5,-121.5 1505.5,-100.5 1337.5,-100.5"/>
<text text-anchor="middle" x="1421.5" y="-107.9" font-family="Helvetica,sans-Serif" font-size="12.00">BoardBuilder.CreateStartTile</text>
</a>
</g>
</g>
<!-- Node1&#45;&gt;Node4 -->
<g id="edge3" class="edge">
<title>Node1&#45;&gt;Node4</title>
<path fill="none" stroke="midnightblue" d="M1544.55,-99.24C1531.65,-100.48 1518.37,-101.76 1505.52,-103"/>
<polygon fill="midnightblue" stroke="midnightblue" points="1545.18,-102.69 1554.79,-98.25 1544.5,-95.72 1545.18,-102.69"/>
</g>
<!-- Node8 -->
<g id="node8" class="node">
<title>Node8</title>
<g id="a_node8"><a xlink:href="class_player_token_script.html#a91ce7f589629491f404aa8586962a95c" target="_top" xlink:title=" ">
<polygon fill="white" stroke="black" points="1334,-60.5 1334,-81.5 1509,-81.5 1509,-60.5 1334,-60.5"/>
<text text-anchor="middle" x="1421.5" y="-67.9" font-family="Helvetica,sans-Serif" font-size="12.00">PlayerTokenScript.EnterRoom</text>
</a>
</g>
</g>
<!-- Node1&#45;&gt;Node8 -->
<g id="edge7" class="edge">
<title>Node1&#45;&gt;Node8</title>
<path fill="none" stroke="midnightblue" d="M1544.59,-82.77C1532.86,-81.64 1520.82,-80.48 1509.07,-79.34"/>
<polygon fill="midnightblue" stroke="midnightblue" points="1544.5,-86.28 1554.79,-83.75 1545.18,-79.31 1544.5,-86.28"/>
</g>
<!-- Node9 -->
<g id="node9" class="node">
<title>Node9</title>
<g id="a_node9"><a xlink:href="class_player_token_script.html#af62557bd1edf071efadf23c84f0db1ad" target="_top" xlink:title=" ">
<polygon fill="white" stroke="black" points="1333.5,-20.5 1333.5,-41.5 1509.5,-41.5 1509.5,-20.5 1333.5,-20.5"/>
<text text-anchor="middle" x="1421.5" y="-27.9" font-family="Helvetica,sans-Serif" font-size="12.00">PlayerTokenScript.MoveToken</text>
</a>
</g>
</g>
<!-- Node1&#45;&gt;Node9 -->
<g id="edge8" class="edge">
<title>Node1&#45;&gt;Node9</title>
<path fill="none" stroke="midnightblue" d="M1594.46,-76.74C1572.89,-68.45 1544.64,-58.24 1519,-51 1506.49,-47.47 1492.9,-44.27 1479.97,-41.52"/>
<polygon fill="midnightblue" stroke="midnightblue" points="1593.29,-80.04 1603.88,-80.4 1595.82,-73.51 1593.29,-80.04"/>
</g>
<!-- Node3 -->
<g id="node3" class="node">
<title>Node3</title>
<g id="a_node3"><a xlink:href="class_player_master_controller.html#afa765f55be7e1a4593f5e11ad2abc0fb" target="_top" xlink:title="clear the tile the token was on">
<polygon fill="white" stroke="black" points="1070,-140.5 1070,-161.5 1288,-161.5 1288,-140.5 1070,-140.5"/>
<text text-anchor="middle" x="1179" y="-147.9" font-family="Helvetica,sans-Serif" font-size="12.00">PlayerMasterController.ClearTokenTile</text>
</a>
</g>
</g>
<!-- Node2&#45;&gt;Node3 -->
<g id="edge2" class="edge">
<title>Node2&#45;&gt;Node3</title>
<path fill="none" stroke="midnightblue" d="M1313.47,-151C1305.01,-151 1296.47,-151 1288.02,-151"/>
<polygon fill="midnightblue" stroke="midnightblue" points="1313.72,-154.5 1323.72,-151 1313.72,-147.5 1313.72,-154.5"/>
</g>
<!-- Node5 -->
<g id="node5" class="node">
<title>Node5</title>
<g id="a_node5"><a xlink:href="class_board_builder.html#a3a24e59815a2273a921875c2cb7781f2" target="_top" xlink:title="Build the board using various helper methods">
<polygon fill="white" stroke="black" points="1105.5,-100.5 1105.5,-121.5 1252.5,-121.5 1252.5,-100.5 1105.5,-100.5"/>
<text text-anchor="middle" x="1179" y="-107.9" font-family="Helvetica,sans-Serif" font-size="12.00">BoardBuilder.BuildBoard</text>
</a>
</g>
</g>
<!-- Node4&#45;&gt;Node5 -->
<g id="edge4" class="edge">
<title>Node4&#45;&gt;Node5</title>
<path fill="none" stroke="midnightblue" d="M1327.27,-111C1302.52,-111 1276.15,-111 1252.67,-111"/>
<polygon fill="midnightblue" stroke="midnightblue" points="1327.4,-114.5 1337.4,-111 1327.4,-107.5 1327.4,-114.5"/>
</g>
<!-- Node6 -->
<g id="node6" class="node">
<title>Node6</title>
<g id="a_node6"><a xlink:href="class_board_builder.html#a82e09ea29b1d031cfe2fa3b444c12c99" target="_top" xlink:title="Method to create the board, initialise and place all items and pass references to board manager">
<polygon fill="white" stroke="black" points="888,-100.5 888,-121.5 1019,-121.5 1019,-100.5 888,-100.5"/>
<text text-anchor="middle" x="953.5" y="-107.9" font-family="Helvetica,sans-Serif" font-size="12.00">BoardBuilder.Initialise</text>
</a>
</g>
</g>
<!-- Node5&#45;&gt;Node6 -->
<g id="edge5" class="edge">
<title>Node5&#45;&gt;Node6</title>
<path fill="none" stroke="midnightblue" d="M1095.19,-111C1070.09,-111 1042.89,-111 1019.16,-111"/>
<polygon fill="midnightblue" stroke="midnightblue" points="1095.44,-114.5 1105.44,-111 1095.44,-107.5 1095.44,-114.5"/>
</g>
<!-- Node7 -->
<g id="node7" class="node">
<title>Node7</title>
<g id="a_node7"><a xlink:href="class_board_builder.html#a40848d7394ead9e79f4f2dad2d7756b8" target="_top" xlink:title=" ">
<polygon fill="white" stroke="black" points="701.5,-100.5 701.5,-121.5 826.5,-121.5 826.5,-100.5 701.5,-100.5"/>
<text text-anchor="middle" x="764" y="-107.9" font-family="Helvetica,sans-Serif" font-size="12.00">BoardBuilder.Awake</text>
</a>
</g>
</g>
<!-- Node6&#45;&gt;Node7 -->
<g id="edge6" class="edge">
<title>Node6&#45;&gt;Node7</title>
<path fill="none" stroke="midnightblue" d="M877.61,-111C860.75,-111 843.05,-111 826.8,-111"/>
<polygon fill="midnightblue" stroke="midnightblue" points="877.97,-114.5 887.97,-111 877.97,-107.5 877.97,-114.5"/>
</g>
<!-- Node10 -->
<g id="node10" class="node">
<title>Node10</title>
<g id="a_node10"><a xlink:href="class_player_master_controller.html#a9b23c4d50fabbc44dbba2b0db542efce" target="_top" xlink:title="moving the player to a certain tile">
<polygon fill="white" stroke="black" points="1079,-40.5 1079,-61.5 1279,-61.5 1279,-40.5 1079,-40.5"/>
<text text-anchor="middle" x="1179" y="-47.9" font-family="Helvetica,sans-Serif" font-size="12.00">PlayerMasterController.MovePlayer</text>
</a>
</g>
</g>
<!-- Node9&#45;&gt;Node10 -->
<g id="edge9" class="edge">
<title>Node9&#45;&gt;Node10</title>
<path fill="none" stroke="midnightblue" d="M1323.33,-39.08C1308.76,-40.29 1293.72,-41.54 1279.1,-42.76"/>
<polygon fill="midnightblue" stroke="midnightblue" points="1323.66,-42.57 1333.33,-38.25 1323.08,-35.59 1323.66,-42.57"/>
</g>
<!-- Node18 -->
<g id="node18" class="node">
<title>Node18</title>
<g id="a_node18"><a xlink:href="class_player_token_script.html#aabf6e085b41ef90234c5580c48389200" target="_top" xlink:title=" ">
<polygon fill="white" stroke="black" points="1102,-0.5 1102,-21.5 1256,-21.5 1256,-0.5 1102,-0.5"/>
<text text-anchor="middle" x="1179" y="-7.9" font-family="Helvetica,sans-Serif" font-size="12.00">PlayerTokenScript.Update</text>
</a>
</g>
</g>
<!-- Node9&#45;&gt;Node18 -->
<g id="edge17" class="edge">
<title>Node9&#45;&gt;Node18</title>
<path fill="none" stroke="midnightblue" d="M1323.16,-22.91C1300.84,-21.05 1277.42,-19.1 1256.13,-17.33"/>
<polygon fill="midnightblue" stroke="midnightblue" points="1323.08,-26.41 1333.33,-23.75 1323.66,-19.43 1323.08,-26.41"/>
</g>
<!-- Node11 -->
<g id="node11" class="node">
<title>Node11</title>
<g id="a_node11"><a xlink:href="class_shortcut_test_u_i.html#a3012692eeb4658dc688e82b431cc10f6" target="_top" xlink:title="Enter a room">
<polygon fill="white" stroke="black" points="876,-60.5 876,-81.5 1031,-81.5 1031,-60.5 876,-60.5"/>
<text text-anchor="middle" x="953.5" y="-67.9" font-family="Helvetica,sans-Serif" font-size="12.00">ShortcutTestUI.EnterRoom</text>
</a>
</g>
</g>
<!-- Node10&#45;&gt;Node11 -->
<g id="edge10" class="edge">
<title>Node10&#45;&gt;Node11</title>
<path fill="none" stroke="midnightblue" d="M1068.84,-60.77C1056.14,-61.9 1043.41,-63.04 1031.28,-64.13"/>
<polygon fill="midnightblue" stroke="midnightblue" points="1069.35,-64.24 1078.99,-59.86 1068.72,-57.26 1069.35,-64.24"/>
</g>
<!-- Node12 -->
<g id="node12" class="node">
<title>Node12</title>
<g id="a_node12"><a xlink:href="class_round_manager.html#adfd4f66436e06c12a25c9236b629f369" target="_top" xlink:title="moving the current player to the selected tile">
<polygon fill="white" stroke="black" points="873,-20.5 873,-41.5 1034,-41.5 1034,-20.5 873,-20.5"/>
<text text-anchor="middle" x="953.5" y="-27.9" font-family="Helvetica,sans-Serif" font-size="12.00">RoundManager.MovePlayer</text>
</a>
</g>
</g>
<!-- Node10&#45;&gt;Node12 -->
<g id="edge11" class="edge">
<title>Node10&#45;&gt;Node12</title>
<path fill="none" stroke="midnightblue" d="M1068.8,-41.23C1057.18,-40.19 1045.52,-39.14 1034.32,-38.14"/>
<polygon fill="midnightblue" stroke="midnightblue" points="1068.72,-44.74 1078.99,-42.14 1069.35,-37.76 1068.72,-44.74"/>
</g>
<!-- Node13 -->
<g id="node13" class="node">
<title>Node13</title>
<g id="a_node13"><a xlink:href="class_user_controller.html#af896aefe0262e0d8f07fa5f18592877d" target="_top" xlink:title="Selects a tile for player movement">
<polygon fill="white" stroke="black" points="691,-20.5 691,-41.5 837,-41.5 837,-20.5 691,-20.5"/>
<text text-anchor="middle" x="764" y="-27.9" font-family="Helvetica,sans-Serif" font-size="12.00">UserController.SelectTile</text>
</a>
</g>
</g>
<!-- Node12&#45;&gt;Node13 -->
<g id="edge12" class="edge">
<title>Node12&#45;&gt;Node13</title>
<path fill="none" stroke="midnightblue" d="M862.9,-31C854.29,-31 845.62,-31 837.2,-31"/>
<polygon fill="midnightblue" stroke="midnightblue" points="862.98,-34.5 872.98,-31 862.98,-27.5 862.98,-34.5"/>
</g>
<!-- Node14 -->
<g id="node14" class="node">
<title>Node14</title>
<g id="a_node14"><a xlink:href="class_a_i_controller_script.html#af04897fa0ae4ed5e472dea79bce8d7df" target="_top" xlink:title="Decides where the AI should move to this should match the flow chart of the AI">
<polygon fill="white" stroke="black" points="435,-40.5 435,-61.5 645,-61.5 645,-40.5 435,-40.5"/>
<text text-anchor="middle" x="540" y="-47.9" font-family="Helvetica,sans-Serif" font-size="12.00">AIControllerScript.Decide_Movement</text>
</a>
</g>
</g>
<!-- Node13&#45;&gt;Node14 -->
<g id="edge13" class="edge">
<title>Node13&#45;&gt;Node14</title>
<path fill="none" stroke="midnightblue" d="M680.88,-38.4C669.31,-39.44 657.29,-40.52 645.37,-41.6"/>
<polygon fill="midnightblue" stroke="midnightblue" points="681.28,-41.88 690.92,-37.49 680.65,-34.9 681.28,-41.88"/>
</g>
<!-- Node17 -->
<g id="node17" class="node">
<title>Node17</title>
<g id="a_node17"><a xlink:href="class_user_input_control_script.html#a13be570929e27dad6d3d452ccd5f52eb" target="_top" xlink:title="move player token to the tile the cursor is on">
<polygon fill="white" stroke="black" points="425,-0.5 425,-21.5 655,-21.5 655,-0.5 425,-0.5"/>
<text text-anchor="middle" x="540" y="-7.9" font-family="Helvetica,sans-Serif" font-size="12.00">UserInputControlScript.MovePlayerToken</text>
</a>
</g>
</g>
<!-- Node13&#45;&gt;Node17 -->
<g id="edge16" class="edge">
<title>Node13&#45;&gt;Node17</title>
<path fill="none" stroke="midnightblue" d="M680.79,-23.59C672.37,-22.83 663.71,-22.05 655.03,-21.27"/>
<polygon fill="midnightblue" stroke="midnightblue" points="680.65,-27.1 690.92,-24.51 681.28,-20.12 680.65,-27.1"/>
</g>
<!-- Node15 -->
<g id="node15" class="node">
<title>Node15</title>
<g id="a_node15"><a xlink:href="class_a_i_controller_script.html#ac31d9b8dbb75696b181eff1fbef41b97" target="_top" xlink:title="dictates what the AI will do depending on what mode it is in">
<polygon fill="white" stroke="black" points="215,-40.5 215,-61.5 389,-61.5 389,-40.5 215,-40.5"/>
<text text-anchor="middle" x="302" y="-47.9" font-family="Helvetica,sans-Serif" font-size="12.00">AIControllerScript.AIBehaviour</text>
</a>
</g>
</g>
<!-- Node14&#45;&gt;Node15 -->
<g id="edge14" class="edge">
<title>Node14&#45;&gt;Node15</title>
<path fill="none" stroke="midnightblue" d="M424.8,-51C412.87,-51 400.88,-51 389.33,-51"/>
<polygon fill="midnightblue" stroke="midnightblue" points="424.8,-54.5 434.8,-51 424.8,-47.5 424.8,-54.5"/>
</g>
<!-- Node16 -->
<g id="node16" class="node">
<title>Node16</title>
<g id="a_node16"><a xlink:href="class_a_i_controller_script.html#a74dc0e720fafceb873d3b19c12f68d58" target="_top" xlink:title=" ">
<polygon fill="white" stroke="black" points="0,-40.5 0,-61.5 179,-61.5 179,-40.5 0,-40.5"/>
<text text-anchor="middle" x="89.5" y="-47.9" font-family="Helvetica,sans-Serif" font-size="12.00">AIControllerScript.FixedUpdate</text>
</a>
</g>
</g>
<!-- Node15&#45;&gt;Node16 -->
<g id="edge15" class="edge">
<title>Node15&#45;&gt;Node16</title>
<path fill="none" stroke="midnightblue" d="M204.57,-51C196.15,-51 187.67,-51 179.32,-51"/>
<polygon fill="midnightblue" stroke="midnightblue" points="204.77,-54.5 214.77,-51 204.77,-47.5 204.77,-54.5"/>
</g>
</g>
</svg>
