<?xml version="1.0" encoding="UTF-8" standalone="no"?>
<!DOCTYPE svg PUBLIC "-//W3C//DTD SVG 1.1//EN"
 "http://www.w3.org/Graphics/SVG/1.1/DTD/svg11.dtd">
<!-- Generated by graphviz version 2.47.1 (20210417.1919)
 -->
<!-- Title: RoundManager.DelaySug Pages: 1 -->
<svg width="1327pt" height="168pt"
 viewBox="0.00 0.00 1327.00 168.30" xmlns="http://www.w3.org/2000/svg" xmlns:xlink="http://www.w3.org/1999/xlink">
<g id="graph0" class="graph" transform="scale(1 1) rotate(0) translate(4 164.3)">
<title>RoundManager.DelaySug</title>
<polygon fill="white" stroke="transparent" points="-4,4 -4,-164.3 1323,-164.3 1323,4 -4,4"/>
<!-- Node1 -->
<g id="node1" class="node">
<title>Node1</title>
<g id="a_node1"><a xlink:title="Maek suggestion after a delay time, used for free suggestion tile">
<polygon fill="#bfbfbf" stroke="black" points="0,-119.5 0,-140.5 151,-140.5 151,-119.5 0,-119.5"/>
<text text-anchor="middle" x="75.5" y="-126.9" font-family="Helvetica,sans-Serif" font-size="12.00">RoundManager.DelaySug</text>
</a>
</g>
</g>
<!-- Node2 -->
<g id="node2" class="node">
<title>Node2</title>
<g id="a_node2"><a xlink:href="class_round_manager.html#aab3f49a5e05508a8e023a497e763c1c8" target="_top" xlink:title="Gets the player controller for the current player">
<polygon fill="white" stroke="black" points="911,-119.5 911,-140.5 1101,-140.5 1101,-119.5 911,-119.5"/>
<text text-anchor="middle" x="1006" y="-126.9" font-family="Helvetica,sans-Serif" font-size="12.00">RoundManager.GetCurrentPlayer</text>
</a>
</g>
</g>
<!-- Node1&#45;&gt;Node2 -->
<g id="edge1" class="edge">
<title>Node1&#45;&gt;Node2</title>
<path fill="none" stroke="midnightblue" d="M151.23,-137.25C292.73,-149.81 609.42,-172.31 875,-151 897.03,-149.23 920.97,-145.8 942.22,-142.22"/>
<polygon fill="midnightblue" stroke="midnightblue" points="942.85,-145.67 952.1,-140.51 941.65,-138.77 942.85,-145.67"/>
</g>
<!-- Node4 -->
<g id="node4" class="node">
<title>Node4</title>
<g id="a_node4"><a xlink:href="class_u_i_handler.html#a52241b6fefb8a446c2c000202216bfd2" target="_top" xlink:title="Makes suggestion when the button is pressed">
<polygon fill="white" stroke="black" points="187,-100.5 187,-121.5 379,-121.5 379,-100.5 187,-100.5"/>
<text text-anchor="middle" x="283" y="-107.9" font-family="Helvetica,sans-Serif" font-size="12.00">UIHandler.MakeSuggestionButton</text>
</a>
</g>
</g>
<!-- Node1&#45;&gt;Node4 -->
<g id="edge3" class="edge">
<title>Node1&#45;&gt;Node4</title>
<path fill="none" stroke="midnightblue" d="M151.27,-123.09C159.6,-122.32 168.2,-121.52 176.82,-120.72"/>
<polygon fill="midnightblue" stroke="midnightblue" points="177.3,-124.2 186.93,-119.79 176.65,-117.23 177.3,-124.2"/>
</g>
<!-- Node3 -->
<g id="node3" class="node">
<title>Node3</title>
<g id="a_node3"><a xlink:href="class_turn_controller.html#af16e42b7e61c5a999291327e2e556caa" target="_top" xlink:title=" ">
<polygon fill="white" stroke="black" points="1137,-119.5 1137,-140.5 1319,-140.5 1319,-119.5 1137,-119.5"/>
<text text-anchor="middle" x="1228" y="-126.9" font-family="Helvetica,sans-Serif" font-size="12.00">TurnController.GetCurrentPlayer</text>
</a>
</g>
</g>
<!-- Node2&#45;&gt;Node3 -->
<g id="edge2" class="edge">
<title>Node2&#45;&gt;Node3</title>
<path fill="none" stroke="midnightblue" d="M1101.26,-130C1109.63,-130 1118.13,-130 1126.55,-130"/>
<polygon fill="midnightblue" stroke="midnightblue" points="1126.78,-133.5 1136.78,-130 1126.78,-126.5 1126.78,-133.5"/>
</g>
<!-- Node5 -->
<g id="node5" class="node">
<title>Node5</title>
<g id="a_node5"><a xlink:href="class_u_i_handler.html#a99048b81a1303baba7efd44095c0f235" target="_top" xlink:title="Displays Suggestion menu, set the room if in a room">
<polygon fill="white" stroke="black" points="415,-80.5 415,-101.5 612,-101.5 612,-80.5 415,-80.5"/>
<text text-anchor="middle" x="513.5" y="-87.9" font-family="Helvetica,sans-Serif" font-size="12.00">UIHandler.DisplayMenuSuggestion</text>
</a>
</g>
</g>
<!-- Node4&#45;&gt;Node5 -->
<g id="edge4" class="edge">
<title>Node4&#45;&gt;Node5</title>
<path fill="none" stroke="midnightblue" d="M379.25,-102.66C387.7,-101.92 396.29,-101.17 404.83,-100.42"/>
<polygon fill="midnightblue" stroke="midnightblue" points="405.17,-103.91 414.83,-99.55 404.56,-96.93 405.17,-103.91"/>
</g>
<!-- Node6 -->
<g id="node6" class="node">
<title>Node6</title>
<g id="a_node6"><a xlink:href="class_card_manager.html#a124d7d9ab3a0e7c22ca64c15da76d4b1" target="_top" xlink:title="Looks for the specified weapon card">
<polygon fill="white" stroke="black" points="690.5,-120.5 690.5,-141.5 832.5,-141.5 832.5,-120.5 690.5,-120.5"/>
<text text-anchor="middle" x="761.5" y="-127.9" font-family="Helvetica,sans-Serif" font-size="12.00">CardManager.FindCard</text>
</a>
</g>
</g>
<!-- Node5&#45;&gt;Node6 -->
<g id="edge5" class="edge">
<title>Node5&#45;&gt;Node6</title>
<path fill="none" stroke="midnightblue" d="M579.13,-101.51C611.91,-106.84 651.89,-113.34 685.97,-118.88"/>
<polygon fill="midnightblue" stroke="midnightblue" points="685.44,-122.34 695.87,-120.49 686.56,-115.43 685.44,-122.34"/>
</g>
<!-- Node7 -->
<g id="node7" class="node">
<title>Node7</title>
<g id="a_node7"><a xlink:href="class_user_controller.html#a587c55687141d18f375e0504ea4649fa" target="_top" xlink:title="Gets the player controller for the current player">
<polygon fill="white" stroke="black" points="669,-80.5 669,-101.5 854,-101.5 854,-80.5 669,-80.5"/>
<text text-anchor="middle" x="761.5" y="-87.9" font-family="Helvetica,sans-Serif" font-size="12.00">UserController.GetCurrentPlayer</text>
</a>
</g>
</g>
<!-- Node5&#45;&gt;Node7 -->
<g id="edge6" class="edge">
<title>Node5&#45;&gt;Node7</title>
<path fill="none" stroke="midnightblue" d="M612.08,-91C627.37,-91 643.22,-91 658.61,-91"/>
<polygon fill="midnightblue" stroke="midnightblue" points="658.65,-94.5 668.65,-91 658.65,-87.5 658.65,-94.5"/>
</g>
<!-- Node8 -->
<g id="node8" class="node">
<title>Node8</title>
<g id="a_node8"><a xlink:href="class_player_master_controller.html#a0447a8a21b5c0f2c94f9d27e0bcd0830" target="_top" xlink:title=" ">
<polygon fill="white" stroke="black" points="648,-40.5 648,-61.5 875,-61.5 875,-40.5 648,-40.5"/>
<text text-anchor="middle" x="761.5" y="-47.9" font-family="Helvetica,sans-Serif" font-size="12.00">PlayerMasterController.GetCurrentRoom</text>
</a>
</g>
</g>
<!-- Node5&#45;&gt;Node8 -->
<g id="edge8" class="edge">
<title>Node5&#45;&gt;Node8</title>
<path fill="none" stroke="midnightblue" d="M579.13,-80.49C611.91,-75.16 651.89,-68.66 685.97,-63.12"/>
<polygon fill="midnightblue" stroke="midnightblue" points="686.56,-66.57 695.87,-61.51 685.44,-59.66 686.56,-66.57"/>
</g>
<!-- Node9 -->
<g id="node9" class="node">
<title>Node9</title>
<g id="a_node9"><a xlink:href="class_suggestion.html#aec2e9ce82ae5f51cea7570bc6dafa43a" target="_top" xlink:title=" ">
<polygon fill="white" stroke="black" points="687,-0.5 687,-21.5 836,-21.5 836,-0.5 687,-0.5"/>
<text text-anchor="middle" x="761.5" y="-7.9" font-family="Helvetica,sans-Serif" font-size="12.00">Suggestion.SetSugRoom</text>
</a>
</g>
</g>
<!-- Node5&#45;&gt;Node9 -->
<g id="edge9" class="edge">
<title>Node5&#45;&gt;Node9</title>
<path fill="none" stroke="midnightblue" d="M533.81,-80.49C559.26,-67.07 605.75,-44.03 648,-31 657.31,-28.13 667.19,-25.62 677.08,-23.45"/>
<polygon fill="midnightblue" stroke="midnightblue" points="677.88,-26.86 686.95,-21.38 676.45,-20 677.88,-26.86"/>
</g>
<!-- Node7&#45;&gt;Node2 -->
<g id="edge7" class="edge">
<title>Node7&#45;&gt;Node2</title>
<path fill="none" stroke="midnightblue" d="M827.8,-101.5C859.21,-106.55 897.02,-112.63 929.64,-117.88"/>
<polygon fill="midnightblue" stroke="midnightblue" points="929.15,-121.35 939.58,-119.48 930.26,-114.44 929.15,-121.35"/>
</g>
</g>
</svg>
