<?xml version="1.0" encoding="UTF-8" standalone="no"?>
<!DOCTYPE svg PUBLIC "-//W3C//DTD SVG 1.1//EN"
 "http://www.w3.org/Graphics/SVG/1.1/DTD/svg11.dtd">
<!-- Generated by graphviz version 2.47.1 (20210417.1919)
 -->
<!-- Title: NotebookScript.RefreshNotebook Pages: 1 -->
<svg width="655pt" height="150pt"
 viewBox="0.00 0.00 655.00 150.00" xmlns="http://www.w3.org/2000/svg" xmlns:xlink="http://www.w3.org/1999/xlink">
<g id="graph0" class="graph" transform="scale(1 1) rotate(0) translate(4 146)">
<title>NotebookScript.RefreshNotebook</title>
<polygon fill="white" stroke="transparent" points="-4,4 -4,-146 651,-146 651,4 -4,4"/>
<!-- Node1 -->
<g id="node1" class="node">
<title>Node1</title>
<g id="a_node1"><a xlink:title="Refresh the notebook UI Object">
<polygon fill="#bfbfbf" stroke="black" points="0,-60.5 0,-81.5 193,-81.5 193,-60.5 0,-60.5"/>
<text text-anchor="middle" x="96.5" y="-67.9" font-family="Helvetica,sans-Serif" font-size="12.00">NotebookScript.RefreshNotebook</text>
</a>
</g>
</g>
<!-- Node2 -->
<g id="node2" class="node">
<title>Node2</title>
<g id="a_node2"><a xlink:href="class_round_manager.html#aab3f49a5e05508a8e023a497e763c1c8" target="_top" xlink:title="Gets the player controller for the current player">
<polygon fill="white" stroke="black" points="234,-120.5 234,-141.5 424,-141.5 424,-120.5 234,-120.5"/>
<text text-anchor="middle" x="329" y="-127.9" font-family="Helvetica,sans-Serif" font-size="12.00">RoundManager.GetCurrentPlayer</text>
</a>
</g>
</g>
<!-- Node1&#45;&gt;Node2 -->
<g id="edge1" class="edge">
<title>Node1&#45;&gt;Node2</title>
<path fill="none" stroke="midnightblue" d="M129.15,-81.56C155.64,-90.17 194.53,-102.3 229,-111 239.35,-113.61 250.37,-116.11 261.17,-118.41"/>
<polygon fill="midnightblue" stroke="midnightblue" points="260.48,-121.84 270.99,-120.45 261.91,-114.99 260.48,-121.84"/>
</g>
<!-- Node4 -->
<g id="node4" class="node">
<title>Node4</title>
<g id="a_node4"><a xlink:href="class_notebook_script.html#a4d3a7148faf9db0faae9b942f01e84b6" target="_top" xlink:title="Refresh all character button status.">
<polygon fill="white" stroke="black" points="229,-80.5 229,-101.5 429,-101.5 429,-80.5 229,-80.5"/>
<text text-anchor="middle" x="329" y="-87.9" font-family="Helvetica,sans-Serif" font-size="12.00">NotebookScript.RefreshCharacters</text>
</a>
</g>
</g>
<!-- Node1&#45;&gt;Node4 -->
<g id="edge3" class="edge">
<title>Node1&#45;&gt;Node4</title>
<path fill="none" stroke="midnightblue" d="M193.25,-79.31C201.7,-80.04 210.29,-80.79 218.83,-81.53"/>
<polygon fill="midnightblue" stroke="midnightblue" points="218.56,-85.02 228.83,-82.4 219.17,-78.04 218.56,-85.02"/>
</g>
<!-- Node6 -->
<g id="node6" class="node">
<title>Node6</title>
<g id="a_node6"><a xlink:href="class_notebook_script.html#a1ad8770915bffe616f448f1b3cff339f" target="_top" xlink:title="Refresh all room button status.">
<polygon fill="white" stroke="black" points="239.5,-40.5 239.5,-61.5 418.5,-61.5 418.5,-40.5 239.5,-40.5"/>
<text text-anchor="middle" x="329" y="-47.9" font-family="Helvetica,sans-Serif" font-size="12.00">NotebookScript.RefreshRooms</text>
</a>
</g>
</g>
<!-- Node1&#45;&gt;Node6 -->
<g id="edge5" class="edge">
<title>Node1&#45;&gt;Node6</title>
<path fill="none" stroke="midnightblue" d="M193.25,-62.69C205.02,-61.67 217.06,-60.63 228.88,-59.6"/>
<polygon fill="midnightblue" stroke="midnightblue" points="229.53,-63.06 239.19,-58.71 228.93,-56.08 229.53,-63.06"/>
</g>
<!-- Node7 -->
<g id="node7" class="node">
<title>Node7</title>
<g id="a_node7"><a xlink:href="class_notebook_script.html#a4d45da2c213d4711991232101154510e" target="_top" xlink:title="Refresh all weapon button status.">
<polygon fill="white" stroke="black" points="233,-0.5 233,-21.5 425,-21.5 425,-0.5 233,-0.5"/>
<text text-anchor="middle" x="329" y="-7.9" font-family="Helvetica,sans-Serif" font-size="12.00">NotebookScript.RefreshWeapons</text>
</a>
</g>
</g>
<!-- Node1&#45;&gt;Node7 -->
<g id="edge7" class="edge">
<title>Node1&#45;&gt;Node7</title>
<path fill="none" stroke="midnightblue" d="M129.15,-60.44C155.64,-51.83 194.53,-39.7 229,-31 239.35,-28.39 250.37,-25.89 261.17,-23.59"/>
<polygon fill="midnightblue" stroke="midnightblue" points="261.91,-27.01 270.99,-21.55 260.48,-20.16 261.91,-27.01"/>
</g>
<!-- Node3 -->
<g id="node3" class="node">
<title>Node3</title>
<g id="a_node3"><a xlink:href="class_turn_controller.html#af16e42b7e61c5a999291327e2e556caa" target="_top" xlink:title=" ">
<polygon fill="white" stroke="black" points="465,-120.5 465,-141.5 647,-141.5 647,-120.5 465,-120.5"/>
<text text-anchor="middle" x="556" y="-127.9" font-family="Helvetica,sans-Serif" font-size="12.00">TurnController.GetCurrentPlayer</text>
</a>
</g>
</g>
<!-- Node2&#45;&gt;Node3 -->
<g id="edge2" class="edge">
<title>Node2&#45;&gt;Node3</title>
<path fill="none" stroke="midnightblue" d="M424.12,-131C434.23,-131 444.55,-131 454.74,-131"/>
<polygon fill="midnightblue" stroke="midnightblue" points="454.86,-134.5 464.86,-131 454.86,-127.5 454.86,-134.5"/>
</g>
<!-- Node5 -->
<g id="node5" class="node">
<title>Node5</title>
<g id="a_node5"><a xlink:href="class_notebook_button.html#a3db612f7ac70f28eb24790f27a6f1c82" target="_top" xlink:title="Set button graphic to crossed through">
<polygon fill="white" stroke="black" points="465,-40.5 465,-61.5 647,-61.5 647,-40.5 465,-40.5"/>
<text text-anchor="middle" x="556" y="-47.9" font-family="Helvetica,sans-Serif" font-size="12.00">NotebookButton.setCrossedOut</text>
</a>
</g>
</g>
<!-- Node4&#45;&gt;Node5 -->
<g id="edge4" class="edge">
<title>Node4&#45;&gt;Node5</title>
<path fill="none" stroke="midnightblue" d="M389.12,-80.49C418.84,-75.21 455.04,-68.77 486.03,-63.26"/>
<polygon fill="midnightblue" stroke="midnightblue" points="486.66,-66.71 495.89,-61.51 485.43,-59.81 486.66,-66.71"/>
</g>
<!-- Node6&#45;&gt;Node5 -->
<g id="edge6" class="edge">
<title>Node6&#45;&gt;Node5</title>
<path fill="none" stroke="midnightblue" d="M418.6,-51C430.42,-51 442.61,-51 454.61,-51"/>
<polygon fill="midnightblue" stroke="midnightblue" points="454.63,-54.5 464.63,-51 454.63,-47.5 454.63,-54.5"/>
</g>
<!-- Node7&#45;&gt;Node5 -->
<g id="edge8" class="edge">
<title>Node7&#45;&gt;Node5</title>
<path fill="none" stroke="midnightblue" d="M389.12,-21.51C418.84,-26.79 455.04,-33.23 486.03,-38.74"/>
<polygon fill="midnightblue" stroke="midnightblue" points="485.43,-42.19 495.89,-40.49 486.66,-35.29 485.43,-42.19"/>
</g>
</g>
</svg>
