<?xml version="1.0" encoding="UTF-8" standalone="no"?>
<!DOCTYPE svg PUBLIC "-//W3C//DTD SVG 1.1//EN"
 "http://www.w3.org/Graphics/SVG/1.1/DTD/svg11.dtd">
<!-- Generated by graphviz version 2.47.1 (20210417.1919)
 -->
<!-- Title: DisplayDiceValue Pages: 1 -->
<svg width="118pt" height="237pt"
 viewBox="0.00 0.00 118.00 237.00" xmlns="http://www.w3.org/2000/svg" xmlns:xlink="http://www.w3.org/1999/xlink">
<g id="graph0" class="graph" transform="scale(1 1) rotate(0) translate(4 233)">
<title>DisplayDiceValue</title>
<polygon fill="white" stroke="transparent" points="-4,4 -4,-233 114,-233 114,4 -4,4"/>
<!-- Node1 -->
<g id="node1" class="node">
<title>Node1</title>
<g id="a_node1"><a xlink:title="Script for Dice test script">
<polygon fill="#bfbfbf" stroke="black" points="0,-0.5 0,-128.5 110,-128.5 110,-0.5 0,-0.5"/>
<text text-anchor="middle" x="55" y="-114.9" font-family="Helvetica,sans-Serif" font-size="12.00">DisplayDiceValue</text>
<polyline fill="none" stroke="black" points="0,-107.5 110,-107.5 "/>
<text text-anchor="start" x="8" y="-93.9" font-family="Helvetica,sans-Serif" font-size="12.00">&#45; rollButton</text>
<text text-anchor="start" x="8" y="-80.9" font-family="Helvetica,sans-Serif" font-size="12.00">&#45; resetButton</text>
<text text-anchor="start" x="8" y="-67.9" font-family="Helvetica,sans-Serif" font-size="12.00">&#45; diceDisplay</text>
<text text-anchor="start" x="8" y="-54.9" font-family="Helvetica,sans-Serif" font-size="12.00">&#45; dice</text>
<text text-anchor="start" x="8" y="-41.9" font-family="Helvetica,sans-Serif" font-size="12.00">&#45; dieValue</text>
<polyline fill="none" stroke="black" points="0,-34.5 110,-34.5 "/>
<text text-anchor="start" x="8" y="-20.9" font-family="Helvetica,sans-Serif" font-size="12.00">&#45; Start()</text>
<text text-anchor="start" x="8" y="-7.9" font-family="Helvetica,sans-Serif" font-size="12.00">&#45; Update()</text>
</a>
</g>
</g>
<!-- Node2 -->
<g id="node2" class="node">
<title>Node2</title>
<g id="a_node2"><a xlink:title=" ">
<polygon fill="white" stroke="#bfbfbf" points="6,-165.5 6,-228.5 104,-228.5 104,-165.5 6,-165.5"/>
<text text-anchor="middle" x="55" y="-214.9" font-family="Helvetica,sans-Serif" font-size="12.00">MonoBehaviour</text>
<polyline fill="none" stroke="#bfbfbf" points="6,-207.5 104,-207.5 "/>
<text text-anchor="middle" x="55" y="-193.9" font-family="Helvetica,sans-Serif" font-size="12.00"> </text>
<polyline fill="none" stroke="#bfbfbf" points="6,-186.5 104,-186.5 "/>
<text text-anchor="middle" x="55" y="-172.9" font-family="Helvetica,sans-Serif" font-size="12.00"> </text>
</a>
</g>
</g>
<!-- Node2&#45;&gt;Node1 -->
<g id="edge1" class="edge">
<title>Node2&#45;&gt;Node1</title>
<path fill="none" stroke="midnightblue" d="M55,-155.38C55,-146.85 55,-137.67 55,-128.54"/>
<polygon fill="none" stroke="midnightblue" points="51.5,-155.4 55,-165.4 58.5,-155.4 51.5,-155.4"/>
</g>
</g>
</svg>
