<?xml version="1.0" encoding="UTF-8" standalone="no"?>
<!DOCTYPE svg PUBLIC "-//W3C//DTD SVG 1.1//EN"
 "http://www.w3.org/Graphics/SVG/1.1/DTD/svg11.dtd">
<!-- Generated by graphviz version 2.47.1 (20210417.1919)
 -->
<!-- Title: GameManagerScript.StartGame Pages: 1 -->
<!--zoomable 632 -->
<svg id="main" version="1.1" xmlns="http://www.w3.org/2000/svg" xmlns:xlink="http://www.w3.org/1999/xlink" xml:space="preserve" onload="init(evt)">
<style type="text/css"><![CDATA[
.edge:hover path { stroke: red; }
.edge:hover polygon { stroke: red; fill: red; }
]]></style>
<script type="text/javascript"><![CDATA[
var edges = document.getElementsByTagName('g');
if (edges && edges.length) {
  for (var i=0;i<edges.length;i++) {
    if (edges[i].id.substr(0,4)=='edge') {
      edges[i].setAttribute('class','edge');
    }
  }
}
]]></script>
        <defs>
                <circle id="rim" cx="0" cy="0" r="7"/>
                <circle id="rim2" cx="0" cy="0" r="3.5"/>
                <g id="zoomPlus">
                        <use xlink:href="#rim" fill="#404040">
                                <set attributeName="fill" to="#808080" begin="zoomplus.mouseover" end="zoomplus.mouseout"/>
                        </use>
                        <path d="M-4,0h8M0,-4v8" fill="none" stroke="white" stroke-width="1.5" pointer-events="none"/>
                </g>
                <g id="zoomMin">
                        <use xlink:href="#rim" fill="#404040">
                                <set attributeName="fill" to="#808080" begin="zoomminus.mouseover" end="zoomminus.mouseout"/>
                        </use>
                        <path d="M-4,0h8" fill="none" stroke="white" stroke-width="1.5" pointer-events="none"/>
                </g>
                <g id="dirArrow">
                        <path fill="none" stroke="white" stroke-width="1.5" d="M0,-3.0v7 M-2.5,-0.5L0,-3.0L2.5,-0.5"/>
                </g>
               <g id="resetDef">
                       <use xlink:href="#rim2" fill="#404040">
                               <set attributeName="fill" to="#808080" begin="reset.mouseover" end="reset.mouseout"/>
                       </use>
               </g>
        </defs>

<script type="text/javascript">
var viewWidth = 1684;
var viewHeight = 632;
var sectionId = 'dynsection-4';
</script>
<script xlink:href="svgpan.js"/>
<svg id="graph" class="graph">
<g id="viewport">
<title>GameManagerScript.StartGame</title>
<polygon fill="white" stroke="transparent" points="-4,4 -4,-628.44 1680,-628.44 1680,4 -4,4"/>
<!-- Node1 -->
<g id="node1" class="node">
<title>Node1</title>
<g id="a_node1"><a xlink:title="starting and initialing the game and it&#39;s components">
<polygon fill="#bfbfbf" stroke="black" points="0,-522.94 0,-543.94 186,-543.94 186,-522.94 0,-522.94"/>
<text text-anchor="middle" x="93" y="-530.34" font-family="Helvetica,sans-Serif" font-size="12.00">GameManagerScript.StartGame</text>
</a>
</g>
</g>
<!-- Node2 -->
<g id="node2" class="node">
<title>Node2</title>
<g id="a_node2"><a xlink:href="class_card_manager.html#a246ee5512607a457900121c510a5e9f2" target="_top" xlink:title="Selects random answer cards and deal cards to players">
<polygon fill="white" stroke="black" points="263,-602.94 263,-623.94 397,-623.94 397,-602.94 263,-602.94"/>
<text text-anchor="middle" x="330" y="-610.34" font-family="Helvetica,sans-Serif" font-size="12.00">CardManager.Initialise</text>
</a>
</g>
</g>
<!-- Node1&#45;&gt;Node2 -->
<g id="edge1" class="edge">
<title>Node1&#45;&gt;Node2</title>
<path fill="none" stroke="midnightblue" d="M112.9,-544.17C137.34,-557.6 181.59,-580.43 222,-593.44 231.88,-596.63 242.45,-599.36 252.96,-601.7"/>
<polygon fill="midnightblue" stroke="midnightblue" points="252.48,-605.18 262.99,-603.82 253.93,-598.33 252.48,-605.18"/>
</g>
<!-- Node4 -->
<g id="node4" class="node">
<title>Node4</title>
<g id="a_node4"><a xlink:href="class_player_master_controller.html#a292e03d361cb54e21a038cba42902b7e" target="_top" xlink:title="for initialising the player">
<polygon fill="white" stroke="black" points="222,-562.94 222,-583.94 438,-583.94 438,-562.94 222,-562.94"/>
<text text-anchor="middle" x="330" y="-570.34" font-family="Helvetica,sans-Serif" font-size="12.00">PlayerMasterController.StartBehaviour</text>
</a>
</g>
</g>
<!-- Node1&#45;&gt;Node4 -->
<g id="edge3" class="edge">
<title>Node1&#45;&gt;Node4</title>
<path fill="none" stroke="midnightblue" d="M155.74,-543.95C186.92,-549.26 224.92,-555.73 257.38,-561.25"/>
<polygon fill="midnightblue" stroke="midnightblue" points="256.82,-564.71 267.26,-562.93 257.99,-557.81 256.82,-564.71"/>
</g>
<!-- Node6 -->
<g id="node6" class="node">
<title>Node6</title>
<g id="a_node6"><a xlink:href="class_u_i_handler.html#a94a29c2949506b7cd0de99509a6673b5" target="_top" xlink:title="Starting behaviour">
<polygon fill="white" stroke="black" points="510.5,-364.94 510.5,-385.94 658.5,-385.94 658.5,-364.94 510.5,-364.94"/>
<text text-anchor="middle" x="584.5" y="-372.34" font-family="Helvetica,sans-Serif" font-size="12.00">UIHandler.StartBehaviour</text>
</a>
</g>
</g>
<!-- Node1&#45;&gt;Node6 -->
<g id="edge5" class="edge">
<title>Node1&#45;&gt;Node6</title>
<path fill="none" stroke="midnightblue" d="M126.88,-522.83C213,-495.03 445.15,-420.1 541.1,-389.13"/>
<polygon fill="midnightblue" stroke="midnightblue" points="542.32,-392.41 550.77,-386.01 540.17,-385.75 542.32,-392.41"/>
</g>
<!-- Node13 -->
<g id="node13" class="node">
<title>Node13</title>
<g id="a_node13"><a xlink:href="class_turn_controller.html#ac6d83ee01dcb5de555b28407374b3de8" target="_top" xlink:title=" ">
<polygon fill="white" stroke="black" points="255.5,-522.94 255.5,-543.94 404.5,-543.94 404.5,-522.94 255.5,-522.94"/>
<text text-anchor="middle" x="330" y="-530.34" font-family="Helvetica,sans-Serif" font-size="12.00">TurnController.StartGame</text>
</a>
</g>
</g>
<!-- Node1&#45;&gt;Node13 -->
<g id="edge12" class="edge">
<title>Node1&#45;&gt;Node13</title>
<path fill="none" stroke="midnightblue" d="M186.2,-533.44C205.61,-533.44 225.97,-533.44 245.05,-533.44"/>
<polygon fill="midnightblue" stroke="midnightblue" points="245.2,-536.94 255.2,-533.44 245.2,-529.94 245.2,-536.94"/>
</g>
<!-- Node15 -->
<g id="node15" class="node">
<title>Node15</title>
<g id="a_node15"><a xlink:href="class_round_manager.html#acf644ae21a6f9ebc2a476fc8603e18fc" target="_top" xlink:title="Method for starting the turn">
<polygon fill="white" stroke="black" points="256.5,-304.94 256.5,-325.94 403.5,-325.94 403.5,-304.94 256.5,-304.94"/>
<text text-anchor="middle" x="330" y="-312.34" font-family="Helvetica,sans-Serif" font-size="12.00">RoundManager.StartTurn</text>
</a>
</g>
</g>
<!-- Node1&#45;&gt;Node15 -->
<g id="edge14" class="edge">
<title>Node1&#45;&gt;Node15</title>
<path fill="none" stroke="midnightblue" d="M105.33,-522.93C142.86,-488.11 263.34,-376.36 310.15,-332.93"/>
<polygon fill="midnightblue" stroke="midnightblue" points="312.55,-335.47 317.5,-326.11 307.79,-330.34 312.55,-335.47"/>
</g>
<!-- Node3 -->
<g id="node3" class="node">
<title>Node3</title>
<g id="a_node3"><a xlink:href="class_card_manager.html#ad85dcb8e9907900f0e9082e7875ad484" target="_top" xlink:title="shuffles and deal the cards to players">
<polygon fill="white" stroke="black" points="483.5,-602.94 483.5,-623.94 685.5,-623.94 685.5,-602.94 483.5,-602.94"/>
<text text-anchor="middle" x="584.5" y="-610.34" font-family="Helvetica,sans-Serif" font-size="12.00">CardManager.DealCardsToPlayers</text>
</a>
</g>
</g>
<!-- Node2&#45;&gt;Node3 -->
<g id="edge2" class="edge">
<title>Node2&#45;&gt;Node3</title>
<path fill="none" stroke="midnightblue" d="M397.01,-613.44C420.23,-613.44 447,-613.44 472.88,-613.44"/>
<polygon fill="midnightblue" stroke="midnightblue" points="473.13,-616.94 483.13,-613.44 473.13,-609.94 473.13,-616.94"/>
</g>
<!-- Node5 -->
<g id="node5" class="node">
<title>Node5</title>
<g id="a_node5"><a xlink:href="class_player_stats_script.html#a5229018c9a9248a90f447ca9e271ee0f" target="_top" xlink:title="initialise the To Guess List it is the list that keeps track of which card was not suggested">
<polygon fill="white" stroke="black" points="474,-562.94 474,-583.94 695,-583.94 695,-562.94 474,-562.94"/>
<text text-anchor="middle" x="584.5" y="-570.34" font-family="Helvetica,sans-Serif" font-size="12.00">PlayerStatsScript.InititaliseToGuessList</text>
</a>
</g>
</g>
<!-- Node4&#45;&gt;Node5 -->
<g id="edge4" class="edge">
<title>Node4&#45;&gt;Node5</title>
<path fill="none" stroke="midnightblue" d="M438.08,-573.44C446.58,-573.44 455.2,-573.44 463.78,-573.44"/>
<polygon fill="midnightblue" stroke="midnightblue" points="463.83,-576.94 473.83,-573.44 463.83,-569.94 463.83,-576.94"/>
</g>
<!-- Node7 -->
<g id="node7" class="node">
<title>Node7</title>
<g id="a_node7"><a xlink:href="class_u_i_handler.html#abe1710aca2abe4dbb489f0c49a3af879" target="_top" xlink:title="To display the View Blocker can include the name of the player that needs it&#39;s attention">
<polygon fill="white" stroke="black" points="747.5,-404.94 747.5,-425.94 923.5,-425.94 923.5,-404.94 747.5,-404.94"/>
<text text-anchor="middle" x="835.5" y="-412.34" font-family="Helvetica,sans-Serif" font-size="12.00">UIHandler.DisplayViewBlocker</text>
</a>
</g>
</g>
<!-- Node6&#45;&gt;Node7 -->
<g id="edge6" class="edge">
<title>Node6&#45;&gt;Node7</title>
<path fill="none" stroke="midnightblue" d="M650.92,-385.95C684.1,-391.28 724.57,-397.78 759.06,-403.32"/>
<polygon fill="midnightblue" stroke="midnightblue" points="758.65,-406.8 769.08,-404.93 759.77,-399.89 758.65,-406.8"/>
</g>
<!-- Node8 -->
<g id="node8" class="node">
<title>Node8</title>
<g id="a_node8"><a xlink:href="class_player_master_controller.html#a12c91851433777ae557a71d9f9a855f0" target="_top" xlink:title=" ">
<polygon fill="white" stroke="black" points="731,-364.94 731,-385.94 940,-385.94 940,-364.94 731,-364.94"/>
<text text-anchor="middle" x="835.5" y="-372.34" font-family="Helvetica,sans-Serif" font-size="12.00">PlayerMasterController.GetCharacter</text>
</a>
</g>
</g>
<!-- Node6&#45;&gt;Node8 -->
<g id="edge7" class="edge">
<title>Node6&#45;&gt;Node8</title>
<path fill="none" stroke="midnightblue" d="M658.53,-375.44C678.1,-375.44 699.73,-375.44 720.94,-375.44"/>
<polygon fill="midnightblue" stroke="midnightblue" points="720.97,-378.94 730.97,-375.44 720.97,-371.94 720.97,-378.94"/>
</g>
<!-- Node9 -->
<g id="node9" class="node">
<title>Node9</title>
<g id="a_node9"><a xlink:href="class_user_controller.html#a587c55687141d18f375e0504ea4649fa" target="_top" xlink:title="Gets the player controller for the current player">
<polygon fill="white" stroke="black" points="743,-284.94 743,-305.94 928,-305.94 928,-284.94 743,-284.94"/>
<text text-anchor="middle" x="835.5" y="-292.34" font-family="Helvetica,sans-Serif" font-size="12.00">UserController.GetCurrentPlayer</text>
</a>
</g>
</g>
<!-- Node6&#45;&gt;Node9 -->
<g id="edge8" class="edge">
<title>Node6&#45;&gt;Node9</title>
<path fill="none" stroke="midnightblue" d="M658.52,-369.02C671.19,-366 683.86,-361.66 695,-355.44 715.88,-343.78 710.18,-327.21 731,-315.44 734.91,-313.23 739.03,-311.26 743.28,-309.5"/>
<polygon fill="midnightblue" stroke="midnightblue" points="744.58,-312.75 752.74,-305.99 742.15,-306.19 744.58,-312.75"/>
</g>
<!-- Node12 -->
<g id="node12" class="node">
<title>Node12</title>
<g id="a_node12"><a xlink:href="class_enum_to_string.html#a078a1fb16a0030544fac1b96a90b6b83" target="_top" xlink:title="Get a string value from a valid enum">
<polygon fill="white" stroke="black" points="735,-324.94 735,-345.94 936,-345.94 936,-324.94 735,-324.94"/>
<text text-anchor="middle" x="835.5" y="-332.34" font-family="Helvetica,sans-Serif" font-size="12.00">EnumToString.GetStringFromEnum</text>
</a>
</g>
</g>
<!-- Node6&#45;&gt;Node12 -->
<g id="edge11" class="edge">
<title>Node6&#45;&gt;Node12</title>
<path fill="none" stroke="midnightblue" d="M650.92,-364.93C684.1,-359.6 724.57,-353.1 759.06,-347.56"/>
<polygon fill="midnightblue" stroke="midnightblue" points="759.77,-350.99 769.08,-345.95 758.65,-344.08 759.77,-350.99"/>
</g>
<!-- Node10 -->
<g id="node10" class="node">
<title>Node10</title>
<g id="a_node10"><a xlink:href="class_round_manager.html#aab3f49a5e05508a8e023a497e763c1c8" target="_top" xlink:title="Gets the player controller for the current player">
<polygon fill="white" stroke="black" points="1011,-166.94 1011,-187.94 1201,-187.94 1201,-166.94 1011,-166.94"/>
<text text-anchor="middle" x="1106" y="-174.34" font-family="Helvetica,sans-Serif" font-size="12.00">RoundManager.GetCurrentPlayer</text>
</a>
</g>
</g>
<!-- Node9&#45;&gt;Node10 -->
<g id="edge9" class="edge">
<title>Node9&#45;&gt;Node10</title>
<path fill="none" stroke="midnightblue" d="M908.39,-284.89C919.15,-282.36 929.99,-279.25 940,-275.44 994.7,-254.64 1052.02,-216.24 1082.61,-194.19"/>
<polygon fill="midnightblue" stroke="midnightblue" points="1084.85,-196.9 1090.86,-188.17 1080.72,-191.24 1084.85,-196.9"/>
</g>
<!-- Node11 -->
<g id="node11" class="node">
<title>Node11</title>
<g id="a_node11"><a xlink:href="class_turn_controller.html#af16e42b7e61c5a999291327e2e556caa" target="_top" xlink:title=" ">
<polygon fill="white" stroke="black" points="1275,-107.94 1275,-128.94 1457,-128.94 1457,-107.94 1275,-107.94"/>
<text text-anchor="middle" x="1366" y="-115.34" font-family="Helvetica,sans-Serif" font-size="12.00">TurnController.GetCurrentPlayer</text>
</a>
</g>
</g>
<!-- Node10&#45;&gt;Node11 -->
<g id="edge10" class="edge">
<title>Node10&#45;&gt;Node11</title>
<path fill="none" stroke="midnightblue" d="M1186.47,-166.91C1202.92,-164.23 1220.09,-161.06 1236,-157.44 1266.21,-150.57 1299.68,-140.37 1324.96,-132.13"/>
<polygon fill="midnightblue" stroke="midnightblue" points="1326.17,-135.42 1334.57,-128.96 1323.97,-128.77 1326.17,-135.42"/>
</g>
<!-- Node14 -->
<g id="node14" class="node">
<title>Node14</title>
<g id="a_node14"><a xlink:href="class_turn_controller.html#a92c12f353afcc5a314409b21bd07641c" target="_top" xlink:title="Initialises the list with all the players from the gameobject, adding them in order">
<polygon fill="white" stroke="black" points="498,-522.94 498,-543.94 671,-543.94 671,-522.94 498,-522.94"/>
<text text-anchor="middle" x="584.5" y="-530.34" font-family="Helvetica,sans-Serif" font-size="12.00">TurnController.InitialisePlayers</text>
</a>
</g>
</g>
<!-- Node13&#45;&gt;Node14 -->
<g id="edge13" class="edge">
<title>Node13&#45;&gt;Node14</title>
<path fill="none" stroke="midnightblue" d="M404.71,-533.44C430.64,-533.44 460.17,-533.44 487.65,-533.44"/>
<polygon fill="midnightblue" stroke="midnightblue" points="487.67,-536.94 497.67,-533.44 487.67,-529.94 487.67,-536.94"/>
</g>
<!-- Node15&#45;&gt;Node7 -->
<g id="edge21" class="edge">
<title>Node15&#45;&gt;Node7</title>
<path fill="none" stroke="midnightblue" d="M345.04,-326.22C369.6,-344.37 422.64,-380.52 474,-395.44 560.52,-420.58 663.54,-423.79 737.24,-421.78"/>
<polygon fill="midnightblue" stroke="midnightblue" points="737.56,-425.27 747.44,-421.46 737.34,-418.27 737.56,-425.27"/>
</g>
<!-- Node15&#45;&gt;Node10 -->
<g id="edge22" class="edge">
<title>Node15&#45;&gt;Node10</title>
<path fill="none" stroke="midnightblue" d="M348.08,-304.73C374.36,-288.57 426.68,-257.68 474,-237.44 584.24,-190.3 612.53,-173.88 731,-155.44 822.78,-141.15 847.32,-149.29 940,-155.44 969.79,-157.42 1002.41,-161.38 1030.72,-165.41"/>
<polygon fill="midnightblue" stroke="midnightblue" points="1030.55,-168.92 1040.94,-166.89 1031.55,-161.99 1030.55,-168.92"/>
</g>
<!-- Node15&#45;&gt;Node11 -->
<g id="edge23" class="edge">
<title>Node15&#45;&gt;Node11</title>
<path fill="none" stroke="midnightblue" d="M333.47,-304.69C343.15,-265.39 382.54,-129.19 474,-77.44 765.97,87.75 1201.84,-56 1328.98,-104.11"/>
<polygon fill="midnightblue" stroke="midnightblue" points="1328.04,-107.5 1338.63,-107.8 1330.54,-100.96 1328.04,-107.5"/>
</g>
<!-- Node15&#45;&gt;Node12 -->
<g id="edge25" class="edge">
<title>Node15&#45;&gt;Node12</title>
<path fill="none" stroke="midnightblue" d="M403.62,-312.41C477.17,-310.05 594.15,-308.25 695,-315.44 717.64,-317.06 742.2,-320.13 764.31,-323.39"/>
<polygon fill="midnightblue" stroke="midnightblue" points="763.87,-326.86 774.28,-324.9 764.91,-319.94 763.87,-326.86"/>
</g>
<!-- Node16 -->
<g id="node16" class="node">
<title>Node16</title>
<g id="a_node16"><a xlink:href="class_board_manager.html#a653d38723d03f890d38a1b68a855c569" target="_top" xlink:title="Clear all movable tiles">
<polygon fill="white" stroke="black" points="499,-86.94 499,-107.94 670,-107.94 670,-86.94 499,-86.94"/>
<text text-anchor="middle" x="584.5" y="-94.34" font-family="Helvetica,sans-Serif" font-size="12.00">BoardManager.ClearMovable</text>
</a>
</g>
</g>
<!-- Node15&#45;&gt;Node16 -->
<g id="edge15" class="edge">
<title>Node15&#45;&gt;Node16</title>
<path fill="none" stroke="midnightblue" d="M335.66,-304.58C350.49,-271.42 399.99,-170.8 474,-122.44 480.79,-118.01 488.26,-114.35 496.02,-111.34"/>
<polygon fill="midnightblue" stroke="midnightblue" points="497.32,-114.6 505.59,-107.98 495,-107.99 497.32,-114.6"/>
</g>
<!-- Node20 -->
<g id="node20" class="node">
<title>Node20</title>
<g id="a_node20"><a xlink:href="class_u_i_handler.html#affac6b69bae9622fe2d5ef41990456aa" target="_top" xlink:title="Display the list of cards">
<polygon fill="white" stroke="black" points="516,-482.94 516,-503.94 653,-503.94 653,-482.94 516,-482.94"/>
<text text-anchor="middle" x="584.5" y="-490.34" font-family="Helvetica,sans-Serif" font-size="12.00">UIHandler.DisplayDeck</text>
</a>
</g>
</g>
<!-- Node15&#45;&gt;Node20 -->
<g id="edge19" class="edge">
<title>Node15&#45;&gt;Node20</title>
<path fill="none" stroke="midnightblue" d="M337.11,-326.08C354.38,-355.1 406.76,-436.01 474,-473.44 483.86,-478.93 494.92,-482.96 506.12,-485.9"/>
<polygon fill="midnightblue" stroke="midnightblue" points="505.43,-489.33 515.97,-488.22 507.04,-482.52 505.43,-489.33"/>
</g>
<!-- Node22 -->
<g id="node22" class="node">
<title>Node22</title>
<g id="a_node22"><a xlink:href="class_player_master_controller.html#a0a7dd34344c455ef5a0d84c2f7c4a4d6" target="_top" xlink:title=" ">
<polygon fill="white" stroke="black" points="492,-324.94 492,-345.94 677,-345.94 677,-324.94 492,-324.94"/>
<text text-anchor="middle" x="584.5" y="-332.34" font-family="Helvetica,sans-Serif" font-size="12.00">PlayerMasterController.GetDeck</text>
</a>
</g>
</g>
<!-- Node15&#45;&gt;Node22 -->
<g id="edge24" class="edge">
<title>Node15&#45;&gt;Node22</title>
<path fill="none" stroke="midnightblue" d="M403.69,-321.2C428,-323.13 455.56,-325.31 481.67,-327.38"/>
<polygon fill="midnightblue" stroke="midnightblue" points="481.74,-330.89 491.99,-328.19 482.29,-323.92 481.74,-330.89"/>
</g>
<!-- Node23 -->
<g id="node23" class="node">
<title>Node23</title>
<g id="a_node23"><a xlink:href="class_u_i_handler.html#ac072319b13f11e5ac215a0ed6ab11aa9" target="_top" xlink:title="Resets UI for the next player">
<polygon fill="white" stroke="black" points="517,-246.94 517,-267.94 652,-267.94 652,-246.94 517,-246.94"/>
<text text-anchor="middle" x="584.5" y="-254.34" font-family="Helvetica,sans-Serif" font-size="12.00">UIHandler.InitialiseTurn</text>
</a>
</g>
</g>
<!-- Node15&#45;&gt;Node23 -->
<g id="edge26" class="edge">
<title>Node15&#45;&gt;Node23</title>
<path fill="none" stroke="midnightblue" d="M376.4,-304.94C404.51,-298.44 441.34,-289.94 474,-282.44 491.32,-278.47 510.18,-274.16 527.29,-270.25"/>
<polygon fill="midnightblue" stroke="midnightblue" points="528.17,-273.64 537.14,-268 526.61,-266.81 528.17,-273.64"/>
</g>
<!-- Node27 -->
<g id="node27" class="node">
<title>Node27</title>
<g id="a_node27"><a xlink:href="class_a_i_controller_script.html#a606c498cbb805d816c1b06f94631a960" target="_top" xlink:title="to activate the AI or not set which player the AI is controlling">
<polygon fill="white" stroke="black" points="504,-442.94 504,-463.94 665,-463.94 665,-442.94 504,-442.94"/>
<text text-anchor="middle" x="584.5" y="-450.34" font-family="Helvetica,sans-Serif" font-size="12.00">AIControllerScript.SetActive</text>
</a>
</g>
</g>
<!-- Node15&#45;&gt;Node27 -->
<g id="edge33" class="edge">
<title>Node15&#45;&gt;Node27</title>
<path fill="none" stroke="midnightblue" d="M340.99,-326.05C362.85,-348.58 417.49,-401.38 474,-428.44 483.9,-433.18 494.73,-437.05 505.62,-440.19"/>
<polygon fill="midnightblue" stroke="midnightblue" points="505.04,-443.66 515.6,-442.88 506.86,-436.9 505.04,-443.66"/>
</g>
<!-- Node17 -->
<g id="node17" class="node">
<title>Node17</title>
<g id="a_node17"><a xlink:href="class_board_tile_script.html#a3ff1d3c491fe4d7e421a624ac0b5be6f" target="_top" xlink:title="setting the glow on the tile">
<polygon fill="white" stroke="black" points="762.5,-86.94 762.5,-107.94 908.5,-107.94 908.5,-86.94 762.5,-86.94"/>
<text text-anchor="middle" x="835.5" y="-94.34" font-family="Helvetica,sans-Serif" font-size="12.00">BoardTileScript.GlowTile</text>
</a>
</g>
</g>
<!-- Node16&#45;&gt;Node17 -->
<g id="edge16" class="edge">
<title>Node16&#45;&gt;Node17</title>
<path fill="none" stroke="midnightblue" d="M670.15,-97.44C696.53,-97.44 725.59,-97.44 751.84,-97.44"/>
<polygon fill="midnightblue" stroke="midnightblue" points="752.13,-100.94 762.13,-97.44 752.13,-93.94 752.13,-100.94"/>
</g>
<!-- Node18 -->
<g id="node18" class="node">
<title>Node18</title>
<g id="a_node18"><a xlink:href="class_board_tile_effect_handler_script.html#a93e813816ff40b3602de22f87a694766" target="_top" xlink:title="turn off the effect for when player can move to that tile">
<polygon fill="white" stroke="black" points="976,-126.94 976,-147.94 1236,-147.94 1236,-126.94 976,-126.94"/>
<text text-anchor="middle" x="1106" y="-134.34" font-family="Helvetica,sans-Serif" font-size="12.00">BoardTileEffectHandlerScript.ToggleEffect_Off</text>
</a>
</g>
</g>
<!-- Node17&#45;&gt;Node18 -->
<g id="edge17" class="edge">
<title>Node17&#45;&gt;Node18</title>
<path fill="none" stroke="midnightblue" d="M907.05,-107.95C942.98,-113.3 986.83,-119.84 1024.13,-125.39"/>
<polygon fill="midnightblue" stroke="midnightblue" points="1024.05,-128.92 1034.46,-126.93 1025.09,-122 1024.05,-128.92"/>
</g>
<!-- Node19 -->
<g id="node19" class="node">
<title>Node19</title>
<g id="a_node19"><a xlink:href="class_board_tile_effect_handler_script.html#a7bf5b2a819cb44463464d5c951bf3143" target="_top" xlink:title="turn on the effect for when player can move to that tile">
<polygon fill="white" stroke="black" points="976,-86.94 976,-107.94 1236,-107.94 1236,-86.94 976,-86.94"/>
<text text-anchor="middle" x="1106" y="-94.34" font-family="Helvetica,sans-Serif" font-size="12.00">BoardTileEffectHandlerScript.ToggleEffect_On</text>
</a>
</g>
</g>
<!-- Node17&#45;&gt;Node19 -->
<g id="edge18" class="edge">
<title>Node17&#45;&gt;Node19</title>
<path fill="none" stroke="midnightblue" d="M908.81,-97.44C926.55,-97.44 946.13,-97.44 965.86,-97.44"/>
<polygon fill="midnightblue" stroke="midnightblue" points="965.86,-100.94 975.86,-97.44 965.86,-93.94 965.86,-100.94"/>
</g>
<!-- Node21 -->
<g id="node21" class="node">
<title>Node21</title>
<g id="a_node21"><a xlink:href="class_card_slot.html#af678d8249e4d52bb791b47d4ed75e7f3" target="_top" xlink:title="Makes the card slot visible and its game object active">
<polygon fill="white" stroke="black" points="775.5,-562.94 775.5,-583.94 895.5,-583.94 895.5,-562.94 775.5,-562.94"/>
<text text-anchor="middle" x="835.5" y="-570.34" font-family="Helvetica,sans-Serif" font-size="12.00">CardSlot.SetVisible</text>
</a>
</g>
</g>
<!-- Node20&#45;&gt;Node21 -->
<g id="edge20" class="edge">
<title>Node20&#45;&gt;Node21</title>
<path fill="none" stroke="midnightblue" d="M653.28,-499.4C667.58,-502.39 682.2,-506.85 695,-513.44 714.83,-523.67 711.46,-537.66 731,-548.44 741.56,-554.27 753.46,-558.75 765.33,-562.19"/>
<polygon fill="midnightblue" stroke="midnightblue" points="764.7,-565.64 775.26,-564.84 766.5,-558.88 764.7,-565.64"/>
</g>
<!-- Node23&#45;&gt;Node8 -->
<g id="edge29" class="edge">
<title>Node23&#45;&gt;Node8</title>
<path fill="none" stroke="midnightblue" d="M611.36,-268.02C634.56,-278.21 668.88,-295.06 695,-315.44 713.86,-330.15 710.18,-343.67 731,-355.44 734.91,-357.66 739.03,-359.63 743.28,-361.38"/>
<polygon fill="midnightblue" stroke="midnightblue" points="742.15,-364.7 752.74,-364.9 744.58,-358.14 742.15,-364.7"/>
</g>
<!-- Node23&#45;&gt;Node9 -->
<g id="edge30" class="edge">
<title>Node23&#45;&gt;Node9</title>
<path fill="none" stroke="midnightblue" d="M652.23,-267.63C683.95,-272.47 722.11,-278.29 755.29,-283.35"/>
<polygon fill="midnightblue" stroke="midnightblue" points="755,-286.85 765.42,-284.9 756.06,-279.93 755,-286.85"/>
</g>
<!-- Node23&#45;&gt;Node12 -->
<g id="edge31" class="edge">
<title>Node23&#45;&gt;Node12</title>
<path fill="none" stroke="midnightblue" d="M652.03,-266.86C666.7,-270.49 681.79,-275.51 695,-282.44 714.22,-292.53 711.61,-305.68 731,-315.44 735.63,-317.77 740.51,-319.84 745.51,-321.66"/>
<polygon fill="midnightblue" stroke="midnightblue" points="744.68,-325.07 755.28,-324.87 746.87,-318.42 744.68,-325.07"/>
</g>
<!-- Node24 -->
<g id="node24" class="node">
<title>Node24</title>
<g id="a_node24"><a xlink:href="class_u_i_handler.html#abe1c78d110b0a4374daed98df71fcff1" target="_top" xlink:title="Displays the notepad">
<polygon fill="white" stroke="black" points="757.5,-244.94 757.5,-265.94 913.5,-265.94 913.5,-244.94 757.5,-244.94"/>
<text text-anchor="middle" x="835.5" y="-252.34" font-family="Helvetica,sans-Serif" font-size="12.00">UIHandler.DisplayNotePad</text>
</a>
</g>
</g>
<!-- Node23&#45;&gt;Node24 -->
<g id="edge27" class="edge">
<title>Node23&#45;&gt;Node24</title>
<path fill="none" stroke="midnightblue" d="M652.23,-256.91C681.47,-256.67 716.19,-256.39 747.43,-256.14"/>
<polygon fill="midnightblue" stroke="midnightblue" points="747.47,-259.64 757.44,-256.06 747.42,-252.64 747.47,-259.64"/>
</g>
<!-- Node25 -->
<g id="node25" class="node">
<title>Node25</title>
<g id="a_node25"><a xlink:href="class_u_i_handler.html#a2db6b92acd51a72b431b3eacb3884ddd" target="_top" xlink:title="Displays a screen when a player is eliminated">
<polygon fill="white" stroke="black" points="736.5,-204.94 736.5,-225.94 934.5,-225.94 934.5,-204.94 736.5,-204.94"/>
<text text-anchor="middle" x="835.5" y="-212.34" font-family="Helvetica,sans-Serif" font-size="12.00">UIHandler.DisplayPlayerEliminated</text>
</a>
</g>
</g>
<!-- Node23&#45;&gt;Node25 -->
<g id="edge28" class="edge">
<title>Node23&#45;&gt;Node25</title>
<path fill="none" stroke="midnightblue" d="M648.01,-246.9C682.64,-241.06 725.87,-233.77 761.98,-227.67"/>
<polygon fill="midnightblue" stroke="midnightblue" points="762.68,-231.11 771.96,-225.99 761.52,-224.2 762.68,-231.11"/>
</g>
<!-- Node26 -->
<g id="node26" class="node">
<title>Node26</title>
<g id="a_node26"><a xlink:href="class_u_i_handler.html#a33d33813339ed163ad4ab8708226f911" target="_top" xlink:title="Updates the current turn text">
<polygon fill="white" stroke="black" points="740,-164.94 740,-185.94 931,-185.94 931,-164.94 740,-164.94"/>
<text text-anchor="middle" x="835.5" y="-172.34" font-family="Helvetica,sans-Serif" font-size="12.00">UIHandler.UpdateCurrentTurnText</text>
</a>
</g>
</g>
<!-- Node23&#45;&gt;Node26 -->
<g id="edge32" class="edge">
<title>Node23&#45;&gt;Node26</title>
<path fill="none" stroke="midnightblue" d="M606.66,-246.74C634.51,-233.04 685.31,-209.42 731,-195.44 739.96,-192.7 749.48,-190.26 758.97,-188.1"/>
<polygon fill="midnightblue" stroke="midnightblue" points="759.81,-191.5 768.83,-185.95 758.32,-184.66 759.81,-191.5"/>
</g>
<!-- Node27&#45;&gt;Node8 -->
<g id="edge34" class="edge">
<title>Node27&#45;&gt;Node8</title>
<path fill="none" stroke="midnightblue" d="M608.21,-442.83C636.45,-430.01 686.38,-408.52 731,-395.44 740.35,-392.7 750.29,-390.24 760.17,-388.05"/>
<polygon fill="midnightblue" stroke="midnightblue" points="760.95,-391.46 770,-385.96 759.49,-384.61 760.95,-391.46"/>
</g>
<!-- Node28 -->
<g id="node28" class="node">
<title>Node28</title>
<g id="a_node28"><a xlink:href="class_a_i_controller_script.html#ab124aec8211aa7b8f00c6ef5db6bc96a" target="_top" xlink:title="for out putting the debug stack if outputDebugText is true, it will out put the the console as well">
<polygon fill="white" stroke="black" points="1496,-483.94 1496,-504.94 1676,-504.94 1676,-483.94 1496,-483.94"/>
<text text-anchor="middle" x="1586" y="-491.34" font-family="Helvetica,sans-Serif" font-size="12.00">AIControllerScript.OutputDebug</text>
</a>
</g>
</g>
<!-- Node27&#45;&gt;Node28 -->
<g id="edge35" class="edge">
<title>Node27&#45;&gt;Node28</title>
<path fill="none" stroke="midnightblue" d="M665.25,-461.36C675.66,-464.28 685.87,-468.2 695,-473.44 716.32,-485.69 708.66,-505.17 731,-515.44 760.98,-529.23 1052.46,-547.23 1460,-514.44 1479.96,-512.84 1501.55,-509.84 1521.07,-506.65"/>
<polygon fill="midnightblue" stroke="midnightblue" points="1521.8,-510.07 1531.08,-504.96 1520.64,-503.17 1521.8,-510.07"/>
</g>
<!-- Node29 -->
<g id="node29" class="node">
<title>Node29</title>
<g id="a_node29"><a xlink:href="class_a_i_controller_script.html#acb4af4c99bf1e7610b45d9f81457d625" target="_top" xlink:title="have AI to start turn">
<polygon fill="white" stroke="black" points="756.5,-444.94 756.5,-465.94 914.5,-465.94 914.5,-444.94 756.5,-444.94"/>
<text text-anchor="middle" x="835.5" y="-452.34" font-family="Helvetica,sans-Serif" font-size="12.00">AIControllerScript.StartTurn</text>
</a>
</g>
</g>
<!-- Node27&#45;&gt;Node29 -->
<g id="edge36" class="edge">
<title>Node27&#45;&gt;Node29</title>
<path fill="none" stroke="midnightblue" d="M665.31,-454.08C691.06,-454.29 719.74,-454.52 746.07,-454.73"/>
<polygon fill="midnightblue" stroke="midnightblue" points="746.39,-458.23 756.41,-454.82 746.44,-451.23 746.39,-458.23"/>
</g>
<!-- Node32 -->
<g id="node32" class="node">
<title>Node32</title>
<g id="a_node32"><a xlink:href="class_player_master_controller.html#a59a900c17a29aece6fab552e723e22a6" target="_top" xlink:title=" ">
<polygon fill="white" stroke="black" points="744,-484.94 744,-505.94 927,-505.94 927,-484.94 744,-484.94"/>
<text text-anchor="middle" x="835.5" y="-492.34" font-family="Helvetica,sans-Serif" font-size="12.00">PlayerMasterController.ToString</text>
</a>
</g>
</g>
<!-- Node27&#45;&gt;Node32 -->
<g id="edge41" class="edge">
<title>Node27&#45;&gt;Node32</title>
<path fill="none" stroke="midnightblue" d="M648.01,-463.99C682.64,-469.83 725.87,-477.12 761.98,-483.21"/>
<polygon fill="midnightblue" stroke="midnightblue" points="761.52,-486.68 771.96,-484.89 762.68,-479.78 761.52,-486.68"/>
</g>
<!-- Node30 -->
<g id="node30" class="node">
<title>Node30</title>
<g id="a_node30"><a xlink:href="class_a_i_controller_script.html#aaee909cd0f0ffdedd8d8425607d7ccb5" target="_top" xlink:title="to set the AI&#39;s mode">
<polygon fill="white" stroke="black" points="1021,-444.94 1021,-465.94 1191,-465.94 1191,-444.94 1021,-444.94"/>
<text text-anchor="middle" x="1106" y="-452.34" font-family="Helvetica,sans-Serif" font-size="12.00">AIControllerScript.SetAIMode</text>
</a>
</g>
</g>
<!-- Node29&#45;&gt;Node30 -->
<g id="edge37" class="edge">
<title>Node29&#45;&gt;Node30</title>
<path fill="none" stroke="midnightblue" d="M914.52,-455.44C944.56,-455.44 979.18,-455.44 1010.6,-455.44"/>
<polygon fill="midnightblue" stroke="midnightblue" points="1010.68,-458.94 1020.68,-455.44 1010.68,-451.94 1010.68,-458.94"/>
</g>
<!-- Node30&#45;&gt;Node28 -->
<g id="edge40" class="edge">
<title>Node30&#45;&gt;Node28</title>
<path fill="none" stroke="midnightblue" d="M1191,-457.49C1262.65,-459.82 1368.31,-464.67 1460,-474.44 1478.62,-476.43 1498.7,-479.31 1517.2,-482.27"/>
<polygon fill="midnightblue" stroke="midnightblue" points="1516.86,-485.76 1527.29,-483.91 1517.99,-478.85 1516.86,-485.76"/>
</g>
<!-- Node31 -->
<g id="node31" class="node">
<title>Node31</title>
<g id="a_node31"><a xlink:href="class_a_i_controller_script.html#afcb2875a5501f07a7f44d0fa720266f3" target="_top" xlink:title="to delay the time for the next time the AI does something in the Update">
<polygon fill="white" stroke="black" points="1272,-483.94 1272,-504.94 1460,-504.94 1460,-483.94 1272,-483.94"/>
<text text-anchor="middle" x="1366" y="-491.34" font-family="Helvetica,sans-Serif" font-size="12.00">AIControllerScript.DelayDecision</text>
</a>
</g>
</g>
<!-- Node30&#45;&gt;Node31 -->
<g id="edge38" class="edge">
<title>Node30&#45;&gt;Node31</title>
<path fill="none" stroke="midnightblue" d="M1176.48,-465.95C1210.03,-471.02 1250.46,-477.13 1285.27,-482.39"/>
<polygon fill="midnightblue" stroke="midnightblue" points="1284.99,-485.89 1295.4,-483.92 1286.03,-478.97 1284.99,-485.89"/>
</g>
<!-- Node31&#45;&gt;Node28 -->
<g id="edge39" class="edge">
<title>Node31&#45;&gt;Node28</title>
<path fill="none" stroke="midnightblue" d="M1460.08,-494.44C1468.48,-494.44 1477,-494.44 1485.44,-494.44"/>
<polygon fill="midnightblue" stroke="midnightblue" points="1485.69,-497.94 1495.69,-494.44 1485.69,-490.94 1485.69,-497.94"/>
</g>
</g>
</svg>
        <g id="navigator" transform="translate(0 0)" fill="#404254">
                <rect fill="#f2f5e9" fill-opacity="0.5" stroke="#606060" stroke-width=".5" x="0" y="0" width="60" height="60"/>
                <use id="zoomplus" xlink:href="#zoomPlus" x="17" y="9" onmousedown="handleZoom(evt,'in')"/>
                <use id="zoomminus" xlink:href="#zoomMin" x="42" y="9" onmousedown="handleZoom(evt,'out')"/>
                <use id="reset" xlink:href="#resetDef" x="30" y="36" onmousedown="handleReset()"/>
                <g id="arrowUp" xlink:href="#dirArrow" transform="translate(30 24)" onmousedown="handlePan(0,-1)">
                  <use xlink:href="#rim" fill="#404040">
                        <set attributeName="fill" to="#808080" begin="arrowUp.mouseover" end="arrowUp.mouseout"/>
                  </use>
                  <path fill="none" stroke="white" stroke-width="1.5" d="M0,-3.0v7 M-2.5,-0.5L0,-3.0L2.5,-0.5"/>
                </g>
                <g id="arrowRight" xlink:href="#dirArrow" transform="rotate(90) translate(36 -43)" onmousedown="handlePan(1,0)">
                  <use xlink:href="#rim" fill="#404040">
                        <set attributeName="fill" to="#808080" begin="arrowRight.mouseover" end="arrowRight.mouseout"/>
                  </use>
                  <path fill="none" stroke="white" stroke-width="1.5" d="M0,-3.0v7 M-2.5,-0.5L0,-3.0L2.5,-0.5"/>
                </g>
                <g id="arrowDown" xlink:href="#dirArrow" transform="rotate(180) translate(-30 -48)" onmousedown="handlePan(0,1)">
                  <use xlink:href="#rim" fill="#404040">
                        <set attributeName="fill" to="#808080" begin="arrowDown.mouseover" end="arrowDown.mouseout"/>
                  </use>
                  <path fill="none" stroke="white" stroke-width="1.5" d="M0,-3.0v7 M-2.5,-0.5L0,-3.0L2.5,-0.5"/>
                </g>
                <g id="arrowLeft" xlink:href="#dirArrow" transform="rotate(270) translate(-36 17)" onmousedown="handlePan(-1,0)">
                  <use xlink:href="#rim" fill="#404040">
                        <set attributeName="fill" to="#808080" begin="arrowLeft.mouseover" end="arrowLeft.mouseout"/>
                  </use>
                  <path fill="none" stroke="white" stroke-width="1.5" d="M0,-3.0v7 M-2.5,-0.5L0,-3.0L2.5,-0.5"/>
                </g>
        </g>
        <svg viewBox="0 0 15 15" width="100%" height="30px" preserveAspectRatio="xMaxYMin meet">
         <g id="arrow_out" transform="scale(0.3 0.3)">
          <a xlink:href="class_game_manager_script_a12cbaf1ff00804887619c07c7267cf31_cgraph_org.svg" target="_base">
           <rect id="button" ry="5" rx="5" y="6" x="6" height="38" width="38"
                fill="#f2f5e9" fill-opacity="0.5" stroke="#606060" stroke-width="1.0"/>
           <path id="arrow"
             d="M 11.500037,31.436501 C 11.940474,20.09759 22.043105,11.32322 32.158766,21.979434 L 37.068811,17.246167 C 37.068811,17.246167 37.088388,32 37.088388,32 L 22.160133,31.978069 C 22.160133,31.978069 26.997745,27.140456 26.997745,27.140456 C 18.528582,18.264221 13.291696,25.230495 11.500037,31.436501 z"
             style="fill:#404040;"/>
          </a>
         </g>
        </svg>
</svg>
