<?xml version="1.0" encoding="UTF-8" standalone="no"?>
<!DOCTYPE svg PUBLIC "-//W3C//DTD SVG 1.1//EN"
 "http://www.w3.org/Graphics/SVG/1.1/DTD/svg11.dtd">
<!-- Generated by graphviz version 2.47.1 (20210417.1919)
 -->
<!-- Title: DisplayDiceValue.Update Pages: 1 -->
<!--zoomable 110 -->
<svg id="main" version="1.1" xmlns="http://www.w3.org/2000/svg" xmlns:xlink="http://www.w3.org/1999/xlink" xml:space="preserve" onload="init(evt)">
<style type="text/css"><![CDATA[
.edge:hover path { stroke: red; }
.edge:hover polygon { stroke: red; fill: red; }
]]></style>
<script type="text/javascript"><![CDATA[
var edges = document.getElementsByTagName('g');
if (edges && edges.length) {
  for (var i=0;i<edges.length;i++) {
    if (edges[i].id.substr(0,4)=='edge') {
      edges[i].setAttribute('class','edge');
    }
  }
}
]]></script>
        <defs>
                <circle id="rim" cx="0" cy="0" r="7"/>
                <circle id="rim2" cx="0" cy="0" r="3.5"/>
                <g id="zoomPlus">
                        <use xlink:href="#rim" fill="#404040">
                                <set attributeName="fill" to="#808080" begin="zoomplus.mouseover" end="zoomplus.mouseout"/>
                        </use>
                        <path d="M-4,0h8M0,-4v8" fill="none" stroke="white" stroke-width="1.5" pointer-events="none"/>
                </g>
                <g id="zoomMin">
                        <use xlink:href="#rim" fill="#404040">
                                <set attributeName="fill" to="#808080" begin="zoomminus.mouseover" end="zoomminus.mouseout"/>
                        </use>
                        <path d="M-4,0h8" fill="none" stroke="white" stroke-width="1.5" pointer-events="none"/>
                </g>
                <g id="dirArrow">
                        <path fill="none" stroke="white" stroke-width="1.5" d="M0,-3.0v7 M-2.5,-0.5L0,-3.0L2.5,-0.5"/>
                </g>
               <g id="resetDef">
                       <use xlink:href="#rim2" fill="#404040">
                               <set attributeName="fill" to="#808080" begin="reset.mouseover" end="reset.mouseout"/>
                       </use>
               </g>
        </defs>

<script type="text/javascript">
var viewWidth = 608;
var viewHeight = 110;
var sectionId = 'dynsection-2';
</script>
<script xlink:href="svgpan.js"/>
<svg id="graph" class="graph">
<g id="viewport">
<title>DisplayDiceValue.Update</title>
<polygon fill="white" stroke="transparent" points="-4,4 -4,-106 604,-106 604,4 -4,4"/>
<!-- Node1 -->
<g id="node1" class="node">
<title>Node1</title>
<g id="a_node1"><a xlink:title="Set button interactable and update dice value text">
<polygon fill="#bfbfbf" stroke="black" points="0,-40.5 0,-61.5 152,-61.5 152,-40.5 0,-40.5"/>
<text text-anchor="middle" x="76" y="-47.9" font-family="Helvetica,sans-Serif" font-size="12.00">DisplayDiceValue.Update</text>
</a>
</g>
</g>
<!-- Node2 -->
<g id="node2" class="node">
<title>Node2</title>
<g id="a_node2"><a xlink:href="class_dice.html#ace4c995eb73b784d1076fde140ce85af" target="_top" xlink:title="Can Dice be reset">
<polygon fill="white" stroke="black" points="195,-80.5 195,-101.5 292,-101.5 292,-80.5 195,-80.5"/>
<text text-anchor="middle" x="243.5" y="-87.9" font-family="Helvetica,sans-Serif" font-size="12.00">Dice.CanReset</text>
</a>
</g>
</g>
<!-- Node1&#45;&gt;Node2 -->
<g id="edge1" class="edge">
<title>Node1&#45;&gt;Node2</title>
<path fill="none" stroke="midnightblue" d="M120.48,-61.51C141.5,-66.59 166.9,-72.73 189.08,-78.09"/>
<polygon fill="midnightblue" stroke="midnightblue" points="188.48,-81.54 199.02,-80.49 190.12,-74.74 188.48,-81.54"/>
</g>
<!-- Node4 -->
<g id="node4" class="node">
<title>Node4</title>
<g id="a_node4"><a xlink:href="class_dice.html#a91e31e11d7028270bebdc80719c64c19" target="_top" xlink:title="Get value of all dice">
<polygon fill="white" stroke="black" points="197,-40.5 197,-61.5 290,-61.5 290,-40.5 197,-40.5"/>
<text text-anchor="middle" x="243.5" y="-47.9" font-family="Helvetica,sans-Serif" font-size="12.00">Dice.GetValue</text>
</a>
</g>
</g>
<!-- Node1&#45;&gt;Node4 -->
<g id="edge3" class="edge">
<title>Node1&#45;&gt;Node4</title>
<path fill="none" stroke="midnightblue" d="M152,-51C163.54,-51 175.28,-51 186.31,-51"/>
<polygon fill="midnightblue" stroke="midnightblue" points="186.65,-54.5 196.65,-51 186.65,-47.5 186.65,-54.5"/>
</g>
<!-- Node7 -->
<g id="node7" class="node">
<title>Node7</title>
<g id="a_node7"><a xlink:href="class_dice.html#a9df730d8804e077cacc5efcbda241896" target="_top" xlink:title="Are dice ready to roll">
<polygon fill="white" stroke="black" points="188,-0.5 188,-21.5 299,-21.5 299,-0.5 188,-0.5"/>
<text text-anchor="middle" x="243.5" y="-7.9" font-family="Helvetica,sans-Serif" font-size="12.00">Dice.ReadyToRoll</text>
</a>
</g>
</g>
<!-- Node1&#45;&gt;Node7 -->
<g id="edge6" class="edge">
<title>Node1&#45;&gt;Node7</title>
<path fill="none" stroke="midnightblue" d="M120.48,-40.49C141.5,-35.41 166.9,-29.27 189.08,-23.91"/>
<polygon fill="midnightblue" stroke="midnightblue" points="190.12,-27.26 199.02,-21.51 188.48,-20.46 190.12,-27.26"/>
</g>
<!-- Node3 -->
<g id="node3" class="node">
<title>Node3</title>
<g id="a_node3"><a xlink:href="class_die.html#a390d46459637fd249926cda472255d84" target="_top" xlink:title="Can the die be reset">
<polygon fill="white" stroke="black" points="341.5,-80.5 341.5,-101.5 451.5,-101.5 451.5,-80.5 341.5,-80.5"/>
<text text-anchor="middle" x="396.5" y="-87.9" font-family="Helvetica,sans-Serif" font-size="12.00">Die.CanResetDie</text>
</a>
</g>
</g>
<!-- Node2&#45;&gt;Node3 -->
<g id="edge2" class="edge">
<title>Node2&#45;&gt;Node3</title>
<path fill="none" stroke="midnightblue" d="M292.28,-91C304.62,-91 318.1,-91 331.14,-91"/>
<polygon fill="midnightblue" stroke="midnightblue" points="331.47,-94.5 341.47,-91 331.47,-87.5 331.47,-94.5"/>
</g>
<!-- Node5 -->
<g id="node5" class="node">
<title>Node5</title>
<g id="a_node5"><a xlink:href="class_dice.html#a84cd116dad344495cac8589afc974140" target="_top" xlink:title="Calculate total value of all dice">
<polygon fill="white" stroke="black" points="335,-40.5 335,-61.5 458,-61.5 458,-40.5 335,-40.5"/>
<text text-anchor="middle" x="396.5" y="-47.9" font-family="Helvetica,sans-Serif" font-size="12.00">Dice.CalculateValue</text>
</a>
</g>
</g>
<!-- Node4&#45;&gt;Node5 -->
<g id="edge4" class="edge">
<title>Node4&#45;&gt;Node5</title>
<path fill="none" stroke="midnightblue" d="M290.21,-51C301.09,-51 312.95,-51 324.66,-51"/>
<polygon fill="midnightblue" stroke="midnightblue" points="324.88,-54.5 334.88,-51 324.88,-47.5 324.88,-54.5"/>
</g>
<!-- Node6 -->
<g id="node6" class="node">
<title>Node6</title>
<g id="a_node6"><a xlink:href="class_die.html#ad1f02edcfdd486ab3da75162daab3570" target="_top" xlink:title="Get the value of the die">
<polygon fill="white" stroke="black" points="494,-40.5 494,-61.5 600,-61.5 600,-40.5 494,-40.5"/>
<text text-anchor="middle" x="547" y="-47.9" font-family="Helvetica,sans-Serif" font-size="12.00">Die.GetValueDie</text>
</a>
</g>
</g>
<!-- Node5&#45;&gt;Node6 -->
<g id="edge5" class="edge">
<title>Node5&#45;&gt;Node6</title>
<path fill="none" stroke="midnightblue" d="M458.33,-51C466.64,-51 475.19,-51 483.53,-51"/>
<polygon fill="midnightblue" stroke="midnightblue" points="483.58,-54.5 493.58,-51 483.58,-47.5 483.58,-54.5"/>
</g>
<!-- Node8 -->
<g id="node8" class="node">
<title>Node8</title>
<g id="a_node8"><a xlink:href="class_die.html#af3f246c8772c932e4ed78d35aed2e8cd" target="_top" xlink:title="Is die ready to roll">
<polygon fill="white" stroke="black" points="340,-0.5 340,-21.5 453,-21.5 453,-0.5 340,-0.5"/>
<text text-anchor="middle" x="396.5" y="-7.9" font-family="Helvetica,sans-Serif" font-size="12.00">Die.IsReadyToRoll</text>
</a>
</g>
</g>
<!-- Node7&#45;&gt;Node8 -->
<g id="edge7" class="edge">
<title>Node7&#45;&gt;Node8</title>
<path fill="none" stroke="midnightblue" d="M299.01,-11C308.96,-11 319.44,-11 329.67,-11"/>
<polygon fill="midnightblue" stroke="midnightblue" points="329.8,-14.5 339.8,-11 329.8,-7.5 329.8,-14.5"/>
</g>
</g>
</svg>
        <g id="navigator" transform="translate(0 0)" fill="#404254">
                <rect fill="#f2f5e9" fill-opacity="0.5" stroke="#606060" stroke-width=".5" x="0" y="0" width="60" height="60"/>
                <use id="zoomplus" xlink:href="#zoomPlus" x="17" y="9" onmousedown="handleZoom(evt,'in')"/>
                <use id="zoomminus" xlink:href="#zoomMin" x="42" y="9" onmousedown="handleZoom(evt,'out')"/>
                <use id="reset" xlink:href="#resetDef" x="30" y="36" onmousedown="handleReset()"/>
                <g id="arrowUp" xlink:href="#dirArrow" transform="translate(30 24)" onmousedown="handlePan(0,-1)">
                  <use xlink:href="#rim" fill="#404040">
                        <set attributeName="fill" to="#808080" begin="arrowUp.mouseover" end="arrowUp.mouseout"/>
                  </use>
                  <path fill="none" stroke="white" stroke-width="1.5" d="M0,-3.0v7 M-2.5,-0.5L0,-3.0L2.5,-0.5"/>
                </g>
                <g id="arrowRight" xlink:href="#dirArrow" transform="rotate(90) translate(36 -43)" onmousedown="handlePan(1,0)">
                  <use xlink:href="#rim" fill="#404040">
                        <set attributeName="fill" to="#808080" begin="arrowRight.mouseover" end="arrowRight.mouseout"/>
                  </use>
                  <path fill="none" stroke="white" stroke-width="1.5" d="M0,-3.0v7 M-2.5,-0.5L0,-3.0L2.5,-0.5"/>
                </g>
                <g id="arrowDown" xlink:href="#dirArrow" transform="rotate(180) translate(-30 -48)" onmousedown="handlePan(0,1)">
                  <use xlink:href="#rim" fill="#404040">
                        <set attributeName="fill" to="#808080" begin="arrowDown.mouseover" end="arrowDown.mouseout"/>
                  </use>
                  <path fill="none" stroke="white" stroke-width="1.5" d="M0,-3.0v7 M-2.5,-0.5L0,-3.0L2.5,-0.5"/>
                </g>
                <g id="arrowLeft" xlink:href="#dirArrow" transform="rotate(270) translate(-36 17)" onmousedown="handlePan(-1,0)">
                  <use xlink:href="#rim" fill="#404040">
                        <set attributeName="fill" to="#808080" begin="arrowLeft.mouseover" end="arrowLeft.mouseout"/>
                  </use>
                  <path fill="none" stroke="white" stroke-width="1.5" d="M0,-3.0v7 M-2.5,-0.5L0,-3.0L2.5,-0.5"/>
                </g>
        </g>
        <svg viewBox="0 0 15 15" width="100%" height="30px" preserveAspectRatio="xMaxYMin meet">
         <g id="arrow_out" transform="scale(0.3 0.3)">
          <a xlink:href="class_display_dice_value_a0f0f2e5d5a2ecc6e8530c82f897f5dba_cgraph_org.svg" target="_base">
           <rect id="button" ry="5" rx="5" y="6" x="6" height="38" width="38"
                fill="#f2f5e9" fill-opacity="0.5" stroke="#606060" stroke-width="1.0"/>
           <path id="arrow"
             d="M 11.500037,31.436501 C 11.940474,20.09759 22.043105,11.32322 32.158766,21.979434 L 37.068811,17.246167 C 37.068811,17.246167 37.088388,32 37.088388,32 L 22.160133,31.978069 C 22.160133,31.978069 26.997745,27.140456 26.997745,27.140456 C 18.528582,18.264221 13.291696,25.230495 11.500037,31.436501 z"
             style="fill:#404040;"/>
          </a>
         </g>
        </svg>
</svg>
