<?xml version="1.0" encoding="UTF-8" standalone="no"?>
<!DOCTYPE svg PUBLIC "-//W3C//DTD SVG 1.1//EN"
 "http://www.w3.org/Graphics/SVG/1.1/DTD/svg11.dtd">
<!-- Generated by graphviz version 2.47.1 (20210417.1919)
 -->
<!-- Title: RoomEntryBoardTileScript.EnterRoomAnimation Pages: 1 -->
<svg width="449pt" height="70pt"
 viewBox="0.00 0.00 449.00 70.00" xmlns="http://www.w3.org/2000/svg" xmlns:xlink="http://www.w3.org/1999/xlink">
<g id="graph0" class="graph" transform="scale(1 1) rotate(0) translate(4 66)">
<title>RoomEntryBoardTileScript.EnterRoomAnimation</title>
<polygon fill="white" stroke="transparent" points="-4,4 -4,-66 445,-66 445,4 -4,4"/>
<!-- Node1 -->
<g id="node1" class="node">
<title>Node1</title>
<g id="a_node1"><a xlink:title="Open door, pause start player entry, pause then close door">
<polygon fill="#bfbfbf" stroke="black" points="0,-20.5 0,-41.5 271,-41.5 271,-20.5 0,-20.5"/>
<text text-anchor="middle" x="135.5" y="-27.9" font-family="Helvetica,sans-Serif" font-size="12.00">RoomEntryBoardTileScript.EnterRoomAnimation</text>
</a>
</g>
</g>
<!-- Node2 -->
<g id="node2" class="node">
<title>Node2</title>
<g id="a_node2"><a xlink:href="class_door_script.html#adcc7e56a969266eee3abbbc6cca692da" target="_top" xlink:title="Close the door">
<polygon fill="white" stroke="black" points="307,-40.5 307,-61.5 441,-61.5 441,-40.5 307,-40.5"/>
<text text-anchor="middle" x="374" y="-47.9" font-family="Helvetica,sans-Serif" font-size="12.00">DoorScript.CloseDoor</text>
</a>
</g>
</g>
<!-- Node1&#45;&gt;Node2 -->
<g id="edge1" class="edge">
<title>Node1&#45;&gt;Node2</title>
<path fill="none" stroke="midnightblue" d="M260.98,-41.53C273.08,-42.55 285.09,-43.57 296.51,-44.53"/>
<polygon fill="midnightblue" stroke="midnightblue" points="296.55,-48.05 306.81,-45.4 297.14,-41.07 296.55,-48.05"/>
</g>
<!-- Node3 -->
<g id="node3" class="node">
<title>Node3</title>
<g id="a_node3"><a xlink:href="class_door_script.html#a2d8c537d4f48ea0e2b4c09eb9ef58d87" target="_top" xlink:title="Open the door">
<polygon fill="white" stroke="black" points="308.5,-0.5 308.5,-21.5 439.5,-21.5 439.5,-0.5 308.5,-0.5"/>
<text text-anchor="middle" x="374" y="-7.9" font-family="Helvetica,sans-Serif" font-size="12.00">DoorScript.OpenDoor</text>
</a>
</g>
</g>
<!-- Node1&#45;&gt;Node3 -->
<g id="edge2" class="edge">
<title>Node1&#45;&gt;Node3</title>
<path fill="none" stroke="midnightblue" d="M260.98,-20.47C273.64,-19.4 286.19,-18.34 298.07,-17.34"/>
<polygon fill="midnightblue" stroke="midnightblue" points="298.65,-20.8 308.32,-16.47 298.06,-13.82 298.65,-20.8"/>
</g>
</g>
</svg>
