<?xml version="1.0" encoding="UTF-8" standalone="no"?>
<!DOCTYPE svg PUBLIC "-//W3C//DTD SVG 1.1//EN"
 "http://www.w3.org/Graphics/SVG/1.1/DTD/svg11.dtd">
<!-- Generated by graphviz version 2.47.1 (20210417.1919)
 -->
<!-- Title: ChooseSlot Pages: 1 -->
<svg width="185pt" height="299pt"
 viewBox="0.00 0.00 184.50 299.00" xmlns="http://www.w3.org/2000/svg" xmlns:xlink="http://www.w3.org/1999/xlink">
<g id="graph0" class="graph" transform="scale(1 1) rotate(0) translate(4 295)">
<title>ChooseSlot</title>
<polygon fill="white" stroke="transparent" points="-4,4 -4,-295 180.5,-295 180.5,4 -4,4"/>
<!-- Node1 -->
<g id="node1" class="node">
<title>Node1</title>
<g id="a_node1"><a xlink:title=" ">
<polygon fill="#bfbfbf" stroke="black" points="14,-0.5 14,-63.5 92,-63.5 92,-0.5 14,-0.5"/>
<text text-anchor="middle" x="53" y="-49.9" font-family="Helvetica,sans-Serif" font-size="12.00">ChooseSlot</text>
<polyline fill="none" stroke="black" points="14,-42.5 92,-42.5 "/>
<text text-anchor="middle" x="53" y="-28.9" font-family="Helvetica,sans-Serif" font-size="12.00"> </text>
<polyline fill="none" stroke="black" points="14,-21.5 92,-21.5 "/>
<text text-anchor="middle" x="53" y="-7.9" font-family="Helvetica,sans-Serif" font-size="12.00"> </text>
</a>
</g>
</g>
<!-- Node2 -->
<g id="node2" class="node">
<title>Node2</title>
<g id="a_node2"><a xlink:title=" ">
<polygon fill="white" stroke="#bfbfbf" points="0,-227.5 0,-290.5 98,-290.5 98,-227.5 0,-227.5"/>
<text text-anchor="middle" x="49" y="-276.9" font-family="Helvetica,sans-Serif" font-size="12.00">MonoBehaviour</text>
<polyline fill="none" stroke="#bfbfbf" points="0,-269.5 98,-269.5 "/>
<text text-anchor="middle" x="49" y="-255.9" font-family="Helvetica,sans-Serif" font-size="12.00"> </text>
<polyline fill="none" stroke="#bfbfbf" points="0,-248.5 98,-248.5 "/>
<text text-anchor="middle" x="49" y="-234.9" font-family="Helvetica,sans-Serif" font-size="12.00"> </text>
</a>
</g>
</g>
<!-- Node2&#45;&gt;Node1 -->
<g id="edge1" class="edge">
<title>Node2&#45;&gt;Node1</title>
<path fill="none" stroke="midnightblue" d="M49.73,-217.08C50.51,-172.91 51.75,-103.57 52.45,-63.8"/>
<polygon fill="none" stroke="midnightblue" points="46.23,-217.13 49.55,-227.19 53.23,-217.25 46.23,-217.13"/>
</g>
<!-- Node3 -->
<g id="node3" class="node">
<title>Node3</title>
<g id="a_node3"><a xlink:href="class_card.html" target="_top" xlink:title=" ">
<polygon fill="white" stroke="black" points="65.5,-113.5 65.5,-189.5 176.5,-189.5 176.5,-113.5 65.5,-113.5"/>
<text text-anchor="middle" x="121" y="-175.9" font-family="Helvetica,sans-Serif" font-size="12.00">Card</text>
<polyline fill="none" stroke="black" points="65.5,-168.5 176.5,-168.5 "/>
<text text-anchor="start" x="73.5" y="-154.9" font-family="Helvetica,sans-Serif" font-size="12.00">+ names</text>
<polyline fill="none" stroke="black" points="65.5,-147.5 176.5,-147.5 "/>
<text text-anchor="start" x="73.5" y="-133.9" font-family="Helvetica,sans-Serif" font-size="12.00">+ GetCardType()</text>
<text text-anchor="start" x="73.5" y="-120.9" font-family="Helvetica,sans-Serif" font-size="12.00">+ GetCardImage()</text>
</a>
</g>
</g>
<!-- Node2&#45;&gt;Node3 -->
<g id="edge3" class="edge">
<title>Node2&#45;&gt;Node3</title>
<path fill="none" stroke="midnightblue" d="M75.47,-219.22C82.05,-209.57 89.09,-199.25 95.62,-189.68"/>
<polygon fill="none" stroke="midnightblue" points="72.57,-217.25 69.83,-227.49 78.35,-221.2 72.57,-217.25"/>
</g>
<!-- Node3&#45;&gt;Node1 -->
<g id="edge2" class="edge">
<title>Node3&#45;&gt;Node1</title>
<path fill="none" stroke="#404040" d="M99.48,-113.32C92.32,-100.95 84.3,-87.09 76.96,-74.41"/>
<polygon fill="none" stroke="#404040" points="76.74,-74.03 70.28,-70.84 70.73,-63.64 77.2,-66.83 76.74,-74.03"/>
<text text-anchor="middle" x="112.5" y="-85.4" font-family="Helvetica,sans-Serif" font-size="12.00"> &#45;cardSlot</text>
</g>
</g>
</svg>
