<?xml version="1.0" encoding="UTF-8" standalone="no"?>
<!DOCTYPE svg PUBLIC "-//W3C//DTD SVG 1.1//EN"
 "http://www.w3.org/Graphics/SVG/1.1/DTD/svg11.dtd">
<!-- Generated by graphviz version 2.47.1 (20210417.1919)
 -->
<!-- Title: FreeSuggestionTileScript Pages: 1 -->
<!--zoomable 493 -->
<svg id="main" version="1.1" xmlns="http://www.w3.org/2000/svg" xmlns:xlink="http://www.w3.org/1999/xlink" xml:space="preserve" onload="init(evt)">
<style type="text/css"><![CDATA[
.edge:hover path { stroke: red; }
.edge:hover polygon { stroke: red; fill: red; }
]]></style>
<script type="text/javascript"><![CDATA[
var edges = document.getElementsByTagName('g');
if (edges && edges.length) {
  for (var i=0;i<edges.length;i++) {
    if (edges[i].id.substr(0,4)=='edge') {
      edges[i].setAttribute('class','edge');
    }
  }
}
]]></script>
        <defs>
                <circle id="rim" cx="0" cy="0" r="7"/>
                <circle id="rim2" cx="0" cy="0" r="3.5"/>
                <g id="zoomPlus">
                        <use xlink:href="#rim" fill="#404040">
                                <set attributeName="fill" to="#808080" begin="zoomplus.mouseover" end="zoomplus.mouseout"/>
                        </use>
                        <path d="M-4,0h8M0,-4v8" fill="none" stroke="white" stroke-width="1.5" pointer-events="none"/>
                </g>
                <g id="zoomMin">
                        <use xlink:href="#rim" fill="#404040">
                                <set attributeName="fill" to="#808080" begin="zoomminus.mouseover" end="zoomminus.mouseout"/>
                        </use>
                        <path d="M-4,0h8" fill="none" stroke="white" stroke-width="1.5" pointer-events="none"/>
                </g>
                <g id="dirArrow">
                        <path fill="none" stroke="white" stroke-width="1.5" d="M0,-3.0v7 M-2.5,-0.5L0,-3.0L2.5,-0.5"/>
                </g>
               <g id="resetDef">
                       <use xlink:href="#rim2" fill="#404040">
                               <set attributeName="fill" to="#808080" begin="reset.mouseover" end="reset.mouseout"/>
                       </use>
               </g>
        </defs>

<script type="text/javascript">
var viewWidth = 158;
var viewHeight = 493;
var sectionId = 'dynsection-0';
</script>
<script xlink:href="svgpan.js"/>
<svg id="graph" class="graph">
<g id="viewport">
<title>FreeSuggestionTileScript</title>
<polygon fill="white" stroke="transparent" points="-4,4 -4,-489 154,-489 154,4 -4,4"/>
<!-- Node1 -->
<g id="node1" class="node">
<title>Node1</title>
<g id="a_node1"><a xlink:title="Script for the free suggestion board tile Gameobject">
<polygon fill="#bfbfbf" stroke="black" points="0,-0.5 0,-63.5 150,-63.5 150,-0.5 0,-0.5"/>
<text text-anchor="middle" x="75" y="-49.9" font-family="Helvetica,sans-Serif" font-size="12.00">FreeSuggestionTileScript</text>
<polyline fill="none" stroke="black" points="0,-42.5 150,-42.5 "/>
<text text-anchor="middle" x="75" y="-28.9" font-family="Helvetica,sans-Serif" font-size="12.00"> </text>
<polyline fill="none" stroke="black" points="0,-21.5 150,-21.5 "/>
<text text-anchor="middle" x="75" y="-7.9" font-family="Helvetica,sans-Serif" font-size="12.00"> </text>
</a>
</g>
</g>
<!-- Node2 -->
<g id="node2" class="node">
<title>Node2</title>
<g id="a_node2"><a xlink:href="class_board_tile_script.html" target="_top" xlink:title="Super class for all tiles">
<polygon fill="white" stroke="black" points="3.5,-100.5 3.5,-384.5 146.5,-384.5 146.5,-100.5 3.5,-100.5"/>
<text text-anchor="middle" x="75" y="-370.9" font-family="Helvetica,sans-Serif" font-size="12.00">BoardTileScript</text>
<polyline fill="none" stroke="black" points="3.5,-363.5 146.5,-363.5 "/>
<text text-anchor="start" x="11.5" y="-349.9" font-family="Helvetica,sans-Serif" font-size="12.00">+ GridPosition</text>
<text text-anchor="start" x="11.5" y="-336.9" font-family="Helvetica,sans-Serif" font-size="12.00">+ TileType</text>
<text text-anchor="start" x="11.5" y="-323.9" font-family="Helvetica,sans-Serif" font-size="12.00">+ PlayerToken</text>
<text text-anchor="start" x="11.5" y="-310.9" font-family="Helvetica,sans-Serif" font-size="12.00">+ BoardManager</text>
<text text-anchor="start" x="11.5" y="-297.9" font-family="Helvetica,sans-Serif" font-size="12.00">&#45; gridPosition</text>
<text text-anchor="start" x="11.5" y="-284.9" font-family="Helvetica,sans-Serif" font-size="12.00">&#45; tileType</text>
<text text-anchor="start" x="11.5" y="-271.9" font-family="Helvetica,sans-Serif" font-size="12.00">&#45; boardTileEffectHandler</text>
<text text-anchor="start" x="11.5" y="-258.9" font-family="Helvetica,sans-Serif" font-size="12.00">&#45; playerToken</text>
<text text-anchor="start" x="11.5" y="-245.9" font-family="Helvetica,sans-Serif" font-size="12.00">&#45; boardManager</text>
<polyline fill="none" stroke="black" points="3.5,-238.5 146.5,-238.5 "/>
<text text-anchor="start" x="11.5" y="-224.9" font-family="Helvetica,sans-Serif" font-size="12.00">+ ClearTile()</text>
<text text-anchor="start" x="11.5" y="-211.9" font-family="Helvetica,sans-Serif" font-size="12.00">+ SelectTile()</text>
<text text-anchor="start" x="11.5" y="-198.9" font-family="Helvetica,sans-Serif" font-size="12.00">+ GlowTile()</text>
<text text-anchor="start" x="11.5" y="-185.9" font-family="Helvetica,sans-Serif" font-size="12.00">+ SetToken()</text>
<text text-anchor="start" x="11.5" y="-172.9" font-family="Helvetica,sans-Serif" font-size="12.00">+ IsEmpty()</text>
<text text-anchor="start" x="11.5" y="-159.9" font-family="Helvetica,sans-Serif" font-size="12.00">+ GetTileNeighbours()</text>
<text text-anchor="start" x="11.5" y="-146.9" font-family="Helvetica,sans-Serif" font-size="12.00">+ CanMove()</text>
<text text-anchor="start" x="11.5" y="-133.9" font-family="Helvetica,sans-Serif" font-size="12.00">+ ToString()</text>
<text text-anchor="start" x="11.5" y="-120.9" font-family="Helvetica,sans-Serif" font-size="12.00"># Init()</text>
<text text-anchor="start" x="11.5" y="-107.9" font-family="Helvetica,sans-Serif" font-size="12.00">&#45; Start()</text>
</a>
</g>
</g>
<!-- Node2&#45;&gt;Node1 -->
<g id="edge1" class="edge">
<title>Node2&#45;&gt;Node1</title>
<path fill="none" stroke="midnightblue" d="M75,-90.13C75,-80.49 75,-71.53 75,-63.69"/>
<polygon fill="none" stroke="midnightblue" points="71.5,-90.41 75,-100.41 78.5,-90.41 71.5,-90.41"/>
</g>
<!-- Node3 -->
<g id="node3" class="node">
<title>Node3</title>
<g id="a_node3"><a xlink:title=" ">
<polygon fill="white" stroke="#bfbfbf" points="26,-421.5 26,-484.5 124,-484.5 124,-421.5 26,-421.5"/>
<text text-anchor="middle" x="75" y="-470.9" font-family="Helvetica,sans-Serif" font-size="12.00">MonoBehaviour</text>
<polyline fill="none" stroke="#bfbfbf" points="26,-463.5 124,-463.5 "/>
<text text-anchor="middle" x="75" y="-449.9" font-family="Helvetica,sans-Serif" font-size="12.00"> </text>
<polyline fill="none" stroke="#bfbfbf" points="26,-442.5 124,-442.5 "/>
<text text-anchor="middle" x="75" y="-428.9" font-family="Helvetica,sans-Serif" font-size="12.00"> </text>
</a>
</g>
</g>
<!-- Node3&#45;&gt;Node2 -->
<g id="edge2" class="edge">
<title>Node3&#45;&gt;Node2</title>
<path fill="none" stroke="midnightblue" d="M75,-411.07C75,-402.95 75,-394.01 75,-384.61"/>
<polygon fill="none" stroke="midnightblue" points="71.5,-411.24 75,-421.24 78.5,-411.24 71.5,-411.24"/>
</g>
</g>
</svg>
        <g id="navigator" transform="translate(0 0)" fill="#404254">
                <rect fill="#f2f5e9" fill-opacity="0.5" stroke="#606060" stroke-width=".5" x="0" y="0" width="60" height="60"/>
                <use id="zoomplus" xlink:href="#zoomPlus" x="17" y="9" onmousedown="handleZoom(evt,'in')"/>
                <use id="zoomminus" xlink:href="#zoomMin" x="42" y="9" onmousedown="handleZoom(evt,'out')"/>
                <use id="reset" xlink:href="#resetDef" x="30" y="36" onmousedown="handleReset()"/>
                <g id="arrowUp" xlink:href="#dirArrow" transform="translate(30 24)" onmousedown="handlePan(0,-1)">
                  <use xlink:href="#rim" fill="#404040">
                        <set attributeName="fill" to="#808080" begin="arrowUp.mouseover" end="arrowUp.mouseout"/>
                  </use>
                  <path fill="none" stroke="white" stroke-width="1.5" d="M0,-3.0v7 M-2.5,-0.5L0,-3.0L2.5,-0.5"/>
                </g>
                <g id="arrowRight" xlink:href="#dirArrow" transform="rotate(90) translate(36 -43)" onmousedown="handlePan(1,0)">
                  <use xlink:href="#rim" fill="#404040">
                        <set attributeName="fill" to="#808080" begin="arrowRight.mouseover" end="arrowRight.mouseout"/>
                  </use>
                  <path fill="none" stroke="white" stroke-width="1.5" d="M0,-3.0v7 M-2.5,-0.5L0,-3.0L2.5,-0.5"/>
                </g>
                <g id="arrowDown" xlink:href="#dirArrow" transform="rotate(180) translate(-30 -48)" onmousedown="handlePan(0,1)">
                  <use xlink:href="#rim" fill="#404040">
                        <set attributeName="fill" to="#808080" begin="arrowDown.mouseover" end="arrowDown.mouseout"/>
                  </use>
                  <path fill="none" stroke="white" stroke-width="1.5" d="M0,-3.0v7 M-2.5,-0.5L0,-3.0L2.5,-0.5"/>
                </g>
                <g id="arrowLeft" xlink:href="#dirArrow" transform="rotate(270) translate(-36 17)" onmousedown="handlePan(-1,0)">
                  <use xlink:href="#rim" fill="#404040">
                        <set attributeName="fill" to="#808080" begin="arrowLeft.mouseover" end="arrowLeft.mouseout"/>
                  </use>
                  <path fill="none" stroke="white" stroke-width="1.5" d="M0,-3.0v7 M-2.5,-0.5L0,-3.0L2.5,-0.5"/>
                </g>
        </g>
        <svg viewBox="0 0 15 15" width="100%" height="30px" preserveAspectRatio="xMaxYMin meet">
         <g id="arrow_out" transform="scale(0.3 0.3)">
          <a xlink:href="class_free_suggestion_tile_script__inherit__graph_org.svg" target="_base">
           <rect id="button" ry="5" rx="5" y="6" x="6" height="38" width="38"
                fill="#f2f5e9" fill-opacity="0.5" stroke="#606060" stroke-width="1.0"/>
           <path id="arrow"
             d="M 11.500037,31.436501 C 11.940474,20.09759 22.043105,11.32322 32.158766,21.979434 L 37.068811,17.246167 C 37.068811,17.246167 37.088388,32 37.088388,32 L 22.160133,31.978069 C 22.160133,31.978069 26.997745,27.140456 26.997745,27.140456 C 18.528582,18.264221 13.291696,25.230495 11.500037,31.436501 z"
             style="fill:#404040;"/>
          </a>
         </g>
        </svg>
</svg>
