<?xml version="1.0" encoding="UTF-8" standalone="no"?>
<!DOCTYPE svg PUBLIC "-//W3C//DTD SVG 1.1//EN"
 "http://www.w3.org/Graphics/SVG/1.1/DTD/svg11.dtd">
<!-- Generated by graphviz version 2.47.1 (20210417.1919)
 -->
<!-- Title: CardSlot.SetCardDetails Pages: 1 -->
<svg width="1825pt" height="110pt"
 viewBox="0.00 0.00 1825.00 110.00" xmlns="http://www.w3.org/2000/svg" xmlns:xlink="http://www.w3.org/1999/xlink">
<g id="graph0" class="graph" transform="scale(1 1) rotate(0) translate(4 106)">
<title>CardSlot.SetCardDetails</title>
<polygon fill="white" stroke="transparent" points="-4,4 -4,-106 1821,-106 1821,4 -4,4"/>
<!-- Node1 -->
<g id="node1" class="node">
<title>Node1</title>
<g id="a_node1"><a xlink:title=" ">
<polygon fill="#bfbfbf" stroke="black" points="1670,-39.5 1670,-60.5 1817,-60.5 1817,-39.5 1670,-39.5"/>
<text text-anchor="middle" x="1743.5" y="-46.9" font-family="Helvetica,sans-Serif" font-size="12.00">CardSlot.SetCardDetails</text>
</a>
</g>
</g>
<!-- Node2 -->
<g id="node2" class="node">
<title>Node2</title>
<g id="a_node2"><a xlink:href="class_card_slot.html#a9049dedcebbbc4b2185a2a01d76d4ed5" target="_top" xlink:title=" ">
<polygon fill="white" stroke="black" points="1524,-59.5 1524,-80.5 1634,-80.5 1634,-59.5 1524,-59.5"/>
<text text-anchor="middle" x="1579" y="-66.9" font-family="Helvetica,sans-Serif" font-size="12.00">CardSlot.SetCard</text>
</a>
</g>
</g>
<!-- Node1&#45;&gt;Node2 -->
<g id="edge1" class="edge">
<title>Node1&#45;&gt;Node2</title>
<path fill="none" stroke="midnightblue" d="M1659.64,-60.2C1650.98,-61.26 1642.34,-62.33 1634.11,-63.34"/>
<polygon fill="midnightblue" stroke="midnightblue" points="1660.31,-63.64 1669.81,-58.95 1659.45,-56.69 1660.31,-63.64"/>
</g>
<!-- Node14 -->
<g id="node14" class="node">
<title>Node14</title>
<g id="a_node14"><a xlink:href="class_card_slot.html#ae310a62480f76e3854115d32beb1af00" target="_top" xlink:title=" ">
<polygon fill="white" stroke="black" points="1533.5,-19.5 1533.5,-40.5 1624.5,-40.5 1624.5,-19.5 1533.5,-19.5"/>
<text text-anchor="middle" x="1579" y="-26.9" font-family="Helvetica,sans-Serif" font-size="12.00">CardSlot.Start</text>
</a>
</g>
</g>
<!-- Node1&#45;&gt;Node14 -->
<g id="edge14" class="edge">
<title>Node1&#45;&gt;Node14</title>
<path fill="none" stroke="midnightblue" d="M1659.68,-39.81C1647.6,-38.32 1635.58,-36.84 1624.66,-35.5"/>
<polygon fill="midnightblue" stroke="midnightblue" points="1659.45,-43.31 1669.81,-41.05 1660.31,-36.36 1659.45,-43.31"/>
</g>
<!-- Node3 -->
<g id="node3" class="node">
<title>Node3</title>
<g id="a_node3"><a xlink:href="class_win_screen_script.html#a302ac9587462267075bd86d7c66e2ee8" target="_top" xlink:title="Update the win screen when enabled">
<polygon fill="white" stroke="black" points="1328,-79.5 1328,-100.5 1488,-100.5 1488,-79.5 1328,-79.5"/>
<text text-anchor="middle" x="1408" y="-86.9" font-family="Helvetica,sans-Serif" font-size="12.00">WinScreenScript.OnEnable</text>
</a>
</g>
</g>
<!-- Node2&#45;&gt;Node3 -->
<g id="edge2" class="edge">
<title>Node2&#45;&gt;Node3</title>
<path fill="none" stroke="midnightblue" d="M1513.62,-77.62C1505.32,-78.6 1496.73,-79.62 1488.22,-80.62"/>
<polygon fill="midnightblue" stroke="midnightblue" points="1514.08,-81.09 1523.6,-76.44 1513.26,-74.14 1514.08,-81.09"/>
</g>
<!-- Node4 -->
<g id="node4" class="node">
<title>Node4</title>
<g id="a_node4"><a xlink:href="class_u_i_handler.html#a4009ca74f59111933be2a637c7835e18" target="_top" xlink:title="Displays a card from a player that has it">
<polygon fill="white" stroke="black" points="1345,-39.5 1345,-60.5 1471,-60.5 1471,-39.5 1345,-39.5"/>
<text text-anchor="middle" x="1408" y="-46.9" font-family="Helvetica,sans-Serif" font-size="12.00">UIHandler.ShowCard</text>
</a>
</g>
</g>
<!-- Node2&#45;&gt;Node4 -->
<g id="edge3" class="edge">
<title>Node2&#45;&gt;Node4</title>
<path fill="none" stroke="midnightblue" d="M1513.63,-62.38C1499.73,-60.74 1485.05,-59 1471.23,-57.36"/>
<polygon fill="midnightblue" stroke="midnightblue" points="1513.26,-65.86 1523.6,-63.56 1514.08,-58.91 1513.26,-65.86"/>
</g>
<!-- Node5 -->
<g id="node5" class="node">
<title>Node5</title>
<g id="a_node5"><a xlink:href="class_round_manager.html#a780da336fd16dcaee0f00306578f13b4" target="_top" xlink:title=" ">
<polygon fill="white" stroke="black" points="1122.5,-59.5 1122.5,-80.5 1288.5,-80.5 1288.5,-59.5 1122.5,-59.5"/>
<text text-anchor="middle" x="1205.5" y="-66.9" font-family="Helvetica,sans-Serif" font-size="12.00">RoundManager.AIShowCard</text>
</a>
</g>
</g>
<!-- Node4&#45;&gt;Node5 -->
<g id="edge4" class="edge">
<title>Node4&#45;&gt;Node5</title>
<path fill="none" stroke="midnightblue" d="M1334.72,-57.21C1319.74,-58.7 1303.86,-60.29 1288.55,-61.82"/>
<polygon fill="midnightblue" stroke="midnightblue" points="1335.33,-60.67 1344.93,-56.19 1334.64,-53.7 1335.33,-60.67"/>
</g>
<!-- Node13 -->
<g id="node13" class="node">
<title>Node13</title>
<g id="a_node13"><a xlink:href="class_u_i_handler.html#a7e471e88a4baaa1993d0a85035c38016" target="_top" xlink:title="After pressing a card to choose pass this card to show it">
<polygon fill="white" stroke="black" points="1119,-19.5 1119,-40.5 1292,-40.5 1292,-19.5 1119,-19.5"/>
<text text-anchor="middle" x="1205.5" y="-26.9" font-family="Helvetica,sans-Serif" font-size="12.00">UIHandler.ShowSelectedCard</text>
</a>
</g>
</g>
<!-- Node4&#45;&gt;Node13 -->
<g id="edge13" class="edge">
<title>Node4&#45;&gt;Node13</title>
<path fill="none" stroke="midnightblue" d="M1334.59,-42.78C1320.83,-41.4 1306.33,-39.96 1292.21,-38.55"/>
<polygon fill="midnightblue" stroke="midnightblue" points="1334.64,-46.3 1344.93,-43.81 1335.33,-39.33 1334.64,-46.3"/>
</g>
<!-- Node6 -->
<g id="node6" class="node">
<title>Node6</title>
<g id="a_node6"><a xlink:href="class_round_manager.html#a596fc1c822ebb74dad8d238b15b1ea3a" target="_top" xlink:title="Iterate through the rest of the players searching for if 1 or more of the cards were found">
<polygon fill="white" stroke="black" points="895,-59.5 895,-80.5 1083,-80.5 1083,-59.5 895,-59.5"/>
<text text-anchor="middle" x="989" y="-66.9" font-family="Helvetica,sans-Serif" font-size="12.00">RoundManager.MakeSuggestion</text>
</a>
</g>
</g>
<!-- Node5&#45;&gt;Node6 -->
<g id="edge5" class="edge">
<title>Node5&#45;&gt;Node6</title>
<path fill="none" stroke="midnightblue" d="M1112.43,-70C1102.7,-70 1092.81,-70 1083.07,-70"/>
<polygon fill="midnightblue" stroke="midnightblue" points="1112.49,-73.5 1122.49,-70 1112.49,-66.5 1112.49,-73.5"/>
</g>
<!-- Node7 -->
<g id="node7" class="node">
<title>Node7</title>
<g id="a_node7"><a xlink:href="class_suggestion_test.html#ac6fed8b504eb8b103cb5c38fa895edf3" target="_top" xlink:title="get test choices and make suggestion">
<polygon fill="white" stroke="black" points="437.5,-80.5 437.5,-101.5 627.5,-101.5 627.5,-80.5 437.5,-80.5"/>
<text text-anchor="middle" x="532.5" y="-87.9" font-family="Helvetica,sans-Serif" font-size="12.00">SuggestionTest.MakeSuggestion</text>
</a>
</g>
</g>
<!-- Node6&#45;&gt;Node7 -->
<g id="edge6" class="edge">
<title>Node6&#45;&gt;Node7</title>
<path fill="none" stroke="midnightblue" d="M884.69,-74.77C807.41,-78.34 702.59,-83.19 627.62,-86.65"/>
<polygon fill="midnightblue" stroke="midnightblue" points="885.1,-78.26 894.93,-74.3 884.78,-71.27 885.1,-78.26"/>
</g>
<!-- Node8 -->
<g id="node8" class="node">
<title>Node8</title>
<g id="a_node8"><a xlink:href="class_user_controller.html#a6230816eec4c8be9bda248a166d7b9bd" target="_top" xlink:title="Makes suggestion">
<polygon fill="white" stroke="black" points="676,-40.5 676,-61.5 859,-61.5 859,-40.5 676,-40.5"/>
<text text-anchor="middle" x="767.5" y="-47.9" font-family="Helvetica,sans-Serif" font-size="12.00">UserController.MakeSuggestion</text>
</a>
</g>
</g>
<!-- Node6&#45;&gt;Node8 -->
<g id="edge7" class="edge">
<title>Node6&#45;&gt;Node8</title>
<path fill="none" stroke="midnightblue" d="M884.9,-61.08C876.35,-60.34 867.74,-59.59 859.28,-58.86"/>
<polygon fill="midnightblue" stroke="midnightblue" points="884.65,-64.57 894.91,-61.94 885.25,-57.59 884.65,-64.57"/>
</g>
<!-- Node8&#45;&gt;Node7 -->
<g id="edge12" class="edge">
<title>Node8&#45;&gt;Node7</title>
<path fill="none" stroke="midnightblue" d="M695.07,-63.26C662.98,-68.77 625.49,-75.21 594.71,-80.49"/>
<polygon fill="midnightblue" stroke="midnightblue" points="696.02,-66.65 705.28,-61.51 694.83,-59.75 696.02,-66.65"/>
</g>
<!-- Node9 -->
<g id="node9" class="node">
<title>Node9</title>
<g id="a_node9"><a xlink:href="class_u_i_handler.html#ae6960c4c231f0e85718af2150449bb1f" target="_top" xlink:title="Hides the suggestion panel">
<polygon fill="white" stroke="black" points="447,-40.5 447,-61.5 618,-61.5 618,-40.5 447,-40.5"/>
<text text-anchor="middle" x="532.5" y="-47.9" font-family="Helvetica,sans-Serif" font-size="12.00">UIHandler.ConfirmSuggestion</text>
</a>
</g>
</g>
<!-- Node8&#45;&gt;Node9 -->
<g id="edge8" class="edge">
<title>Node8&#45;&gt;Node9</title>
<path fill="none" stroke="midnightblue" d="M665.47,-51C649.74,-51 633.62,-51 618.29,-51"/>
<polygon fill="midnightblue" stroke="midnightblue" points="665.75,-54.5 675.75,-51 665.75,-47.5 665.75,-54.5"/>
</g>
<!-- Node10 -->
<g id="node10" class="node">
<title>Node10</title>
<g id="a_node10"><a xlink:href="class_a_i_controller_script.html#affdf86fa313c46463a9a5a2b20020a17" target="_top" xlink:title="Decides what the AI should suggest this should match the flow chart of the AI">
<polygon fill="white" stroke="black" points="425,-0.5 425,-21.5 640,-21.5 640,-0.5 425,-0.5"/>
<text text-anchor="middle" x="532.5" y="-7.9" font-family="Helvetica,sans-Serif" font-size="12.00">AIControllerScript.Decide_Suggestion</text>
</a>
</g>
</g>
<!-- Node8&#45;&gt;Node10 -->
<g id="edge9" class="edge">
<title>Node8&#45;&gt;Node10</title>
<path fill="none" stroke="midnightblue" d="M695.07,-38.74C662.98,-33.23 625.49,-26.79 594.71,-21.51"/>
<polygon fill="midnightblue" stroke="midnightblue" points="694.83,-42.25 705.28,-40.49 696.02,-35.35 694.83,-42.25"/>
</g>
<!-- Node11 -->
<g id="node11" class="node">
<title>Node11</title>
<g id="a_node11"><a xlink:href="class_a_i_controller_script.html#ac31d9b8dbb75696b181eff1fbef41b97" target="_top" xlink:title="dictates what the AI will do depending on what mode it is in">
<polygon fill="white" stroke="black" points="215,-0.5 215,-21.5 389,-21.5 389,-0.5 215,-0.5"/>
<text text-anchor="middle" x="302" y="-7.9" font-family="Helvetica,sans-Serif" font-size="12.00">AIControllerScript.AIBehaviour</text>
</a>
</g>
</g>
<!-- Node10&#45;&gt;Node11 -->
<g id="edge10" class="edge">
<title>Node10&#45;&gt;Node11</title>
<path fill="none" stroke="midnightblue" d="M414.82,-11C406.19,-11 397.58,-11 389.18,-11"/>
<polygon fill="midnightblue" stroke="midnightblue" points="414.94,-14.5 424.94,-11 414.94,-7.5 414.94,-14.5"/>
</g>
<!-- Node12 -->
<g id="node12" class="node">
<title>Node12</title>
<g id="a_node12"><a xlink:href="class_a_i_controller_script.html#a74dc0e720fafceb873d3b19c12f68d58" target="_top" xlink:title=" ">
<polygon fill="white" stroke="black" points="0,-0.5 0,-21.5 179,-21.5 179,-0.5 0,-0.5"/>
<text text-anchor="middle" x="89.5" y="-7.9" font-family="Helvetica,sans-Serif" font-size="12.00">AIControllerScript.FixedUpdate</text>
</a>
</g>
</g>
<!-- Node11&#45;&gt;Node12 -->
<g id="edge11" class="edge">
<title>Node11&#45;&gt;Node12</title>
<path fill="none" stroke="midnightblue" d="M204.57,-11C196.15,-11 187.67,-11 179.32,-11"/>
<polygon fill="midnightblue" stroke="midnightblue" points="204.77,-14.5 214.77,-11 204.77,-7.5 204.77,-14.5"/>
</g>
</g>
</svg>
