<?xml version="1.0" encoding="UTF-8" standalone="no"?>
<!DOCTYPE svg PUBLIC "-//W3C//DTD SVG 1.1//EN"
 "http://www.w3.org/Graphics/SVG/1.1/DTD/svg11.dtd">
<!-- Generated by graphviz version 2.47.1 (20210417.1919)
 -->
<!-- Title: RoomScript.GetEntryTiles Pages: 1 -->
<svg width="368pt" height="70pt"
 viewBox="0.00 0.00 368.00 70.00" xmlns="http://www.w3.org/2000/svg" xmlns:xlink="http://www.w3.org/1999/xlink">
<g id="graph0" class="graph" transform="scale(1 1) rotate(0) translate(4 66)">
<title>RoomScript.GetEntryTiles</title>
<polygon fill="white" stroke="transparent" points="-4,4 -4,-66 364,-66 364,4 -4,4"/>
<!-- Node1 -->
<g id="node1" class="node">
<title>Node1</title>
<g id="a_node1"><a xlink:title="Gets all entry tiles">
<polygon fill="#bfbfbf" stroke="black" points="208,-20.5 208,-41.5 360,-41.5 360,-20.5 208,-20.5"/>
<text text-anchor="middle" x="284" y="-27.9" font-family="Helvetica,sans-Serif" font-size="12.00">RoomScript.GetEntryTiles</text>
</a>
</g>
</g>
<!-- Node2 -->
<g id="node2" class="node">
<title>Node2</title>
<g id="a_node2"><a xlink:href="class_board_manager.html#a0e14ab6cda8d33b4a1a79c0505400609" target="_top" xlink:title="Show movable tiles from room">
<polygon fill="white" stroke="black" points="0,-40.5 0,-61.5 172,-61.5 172,-40.5 0,-40.5"/>
<text text-anchor="middle" x="86" y="-47.9" font-family="Helvetica,sans-Serif" font-size="12.00">BoardManager.ShowMovable</text>
</a>
</g>
</g>
<!-- Node1&#45;&gt;Node2 -->
<g id="edge1" class="edge">
<title>Node1&#45;&gt;Node2</title>
<path fill="none" stroke="midnightblue" d="M197.57,-39.72C189.14,-40.58 180.58,-41.45 172.15,-42.31"/>
<polygon fill="midnightblue" stroke="midnightblue" points="198.19,-43.17 207.78,-38.68 197.48,-36.21 198.19,-43.17"/>
</g>
<!-- Node3 -->
<g id="node3" class="node">
<title>Node3</title>
<g id="a_node3"><a xlink:href="class_room_script.html#ac1f4ee4e0bcdd6c8de67ddce44725733" target="_top" xlink:title="Set required variables">
<polygon fill="white" stroke="black" points="32.5,-0.5 32.5,-21.5 139.5,-21.5 139.5,-0.5 32.5,-0.5"/>
<text text-anchor="middle" x="86" y="-7.9" font-family="Helvetica,sans-Serif" font-size="12.00">RoomScript.Start</text>
</a>
</g>
</g>
<!-- Node1&#45;&gt;Node3 -->
<g id="edge2" class="edge">
<title>Node1&#45;&gt;Node3</title>
<path fill="none" stroke="midnightblue" d="M197.81,-22.31C177.99,-20.28 157.46,-18.19 139.53,-16.36"/>
<polygon fill="midnightblue" stroke="midnightblue" points="197.48,-25.79 207.78,-23.32 198.19,-18.83 197.48,-25.79"/>
</g>
</g>
</svg>
