<?xml version="1.0" encoding="UTF-8" standalone="no"?>
<!DOCTYPE svg PUBLIC "-//W3C//DTD SVG 1.1//EN"
 "http://www.w3.org/Graphics/SVG/1.1/DTD/svg11.dtd">
<!-- Generated by graphviz version 2.47.1 (20210417.1919)
 -->
<!-- Title: Dice.ResetDice Pages: 1 -->
<svg width="1838pt" height="319pt"
 viewBox="0.00 0.00 1838.00 319.00" xmlns="http://www.w3.org/2000/svg" xmlns:xlink="http://www.w3.org/1999/xlink">
<g id="graph0" class="graph" transform="scale(1 1) rotate(0) translate(4 315)">
<title>Dice.ResetDice</title>
<polygon fill="white" stroke="transparent" points="-4,4 -4,-315 1834,-315 1834,4 -4,4"/>
<!-- Node1 -->
<g id="node1" class="node">
<title>Node1</title>
<g id="a_node1"><a xlink:title="Reset the dice">
<polygon fill="#bfbfbf" stroke="black" points="1730,-120.5 1730,-141.5 1830,-141.5 1830,-120.5 1730,-120.5"/>
<text text-anchor="middle" x="1780" y="-127.9" font-family="Helvetica,sans-Serif" font-size="12.00">Dice.ResetDice</text>
</a>
</g>
</g>
<!-- Node2 -->
<g id="node2" class="node">
<title>Node2</title>
<g id="a_node2"><a xlink:href="class_round_manager.html#a5cfea3b56a7576ad02c82c27bb0c6ba7" target="_top" xlink:title="reset the dice after a time delay">
<polygon fill="white" stroke="black" points="1488,-240.5 1488,-261.5 1673,-261.5 1673,-240.5 1488,-240.5"/>
<text text-anchor="middle" x="1580.5" y="-247.9" font-family="Helvetica,sans-Serif" font-size="12.00">RoundManager.DelayResetDice</text>
</a>
</g>
</g>
<!-- Node1&#45;&gt;Node2 -->
<g id="edge1" class="edge">
<title>Node1&#45;&gt;Node2</title>
<path fill="none" stroke="midnightblue" d="M1768.19,-150.49C1754.25,-173.67 1727.72,-211.64 1694,-231 1687.38,-234.8 1680.2,-237.91 1672.79,-240.45"/>
<polygon fill="midnightblue" stroke="midnightblue" points="1771.39,-151.96 1773.39,-141.56 1765.33,-148.45 1771.39,-151.96"/>
</g>
<!-- Node14 -->
<g id="node14" class="node">
<title>Node14</title>
<g id="a_node14"><a xlink:href="class_anson_test_script.html#a2e10fa1d66e999b57d36fd2525ad03e5" target="_top" xlink:title=" ">
<polygon fill="white" stroke="black" points="1485,-200.5 1485,-221.5 1676,-221.5 1676,-200.5 1485,-200.5"/>
<text text-anchor="middle" x="1580.5" y="-207.9" font-family="Helvetica,sans-Serif" font-size="12.00">AnsonTestScript.DelayResetDice</text>
</a>
</g>
</g>
<!-- Node1&#45;&gt;Node14 -->
<g id="edge14" class="edge">
<title>Node1&#45;&gt;Node14</title>
<path fill="none" stroke="midnightblue" d="M1759.89,-148.25C1743.57,-162 1718.84,-180.63 1694,-191 1684.75,-194.86 1674.78,-197.97 1664.72,-200.49"/>
<polygon fill="midnightblue" stroke="midnightblue" points="1762.34,-150.75 1767.62,-141.56 1757.76,-145.46 1762.34,-150.75"/>
</g>
<!-- Node17 -->
<g id="node17" class="node">
<title>Node17</title>
<g id="a_node17"><a xlink:href="class_round_manager.html#acf674cdec523de9a0f91ab8a7bfcc2ef" target="_top" xlink:title="for waiting the dice to be rolled, get it&#39;s results and display where the player can move to">
<polygon fill="white" stroke="black" points="1492,-160.5 1492,-181.5 1669,-181.5 1669,-160.5 1492,-160.5"/>
<text text-anchor="middle" x="1580.5" y="-167.9" font-family="Helvetica,sans-Serif" font-size="12.00">RoundManager.DiceBehaviour</text>
</a>
</g>
</g>
<!-- Node1&#45;&gt;Node17 -->
<g id="edge17" class="edge">
<title>Node1&#45;&gt;Node17</title>
<path fill="none" stroke="midnightblue" d="M1726.27,-143.88C1715.61,-146.35 1704.46,-148.84 1694,-151 1677.97,-154.31 1660.59,-157.56 1644.39,-160.45"/>
<polygon fill="midnightblue" stroke="midnightblue" points="1727.36,-147.22 1736.3,-141.53 1725.76,-140.41 1727.36,-147.22"/>
</g>
<!-- Node19 -->
<g id="node19" class="node">
<title>Node19</title>
<g id="a_node19"><a xlink:href="class_round_manager.html#a29177f2e27c6c4af55dfa3c48d67cfb0" target="_top" xlink:title="Ending the turn. Returns the next player">
<polygon fill="white" stroke="black" points="1509,-120.5 1509,-141.5 1652,-141.5 1652,-120.5 1509,-120.5"/>
<text text-anchor="middle" x="1580.5" y="-127.9" font-family="Helvetica,sans-Serif" font-size="12.00">RoundManager.EndTurn</text>
</a>
</g>
</g>
<!-- Node1&#45;&gt;Node19 -->
<g id="edge19" class="edge">
<title>Node1&#45;&gt;Node19</title>
<path fill="none" stroke="midnightblue" d="M1719.77,-131C1698.56,-131 1674.43,-131 1652.34,-131"/>
<polygon fill="midnightblue" stroke="midnightblue" points="1719.93,-134.5 1729.93,-131 1719.93,-127.5 1719.93,-134.5"/>
</g>
<!-- Node23 -->
<g id="node23" class="node">
<title>Node23</title>
<g id="a_node23"><a xlink:href="class_anson_test_script.html#a445d27a921ade2f0e76054a3b7cc4245" target="_top" xlink:title=" ">
<polygon fill="white" stroke="black" points="1494,-80.5 1494,-101.5 1667,-101.5 1667,-80.5 1494,-80.5"/>
<text text-anchor="middle" x="1580.5" y="-87.9" font-family="Helvetica,sans-Serif" font-size="12.00">AnsonTestScript.FixedUpdate</text>
</a>
</g>
</g>
<!-- Node1&#45;&gt;Node23 -->
<g id="edge24" class="edge">
<title>Node1&#45;&gt;Node23</title>
<path fill="none" stroke="midnightblue" d="M1726.27,-118.12C1715.61,-115.65 1704.46,-113.16 1694,-111 1677.97,-107.69 1660.59,-104.44 1644.39,-101.55"/>
<polygon fill="midnightblue" stroke="midnightblue" points="1725.76,-121.59 1736.3,-120.47 1727.36,-114.78 1725.76,-121.59"/>
</g>
<!-- Node24 -->
<g id="node24" class="node">
<title>Node24</title>
<g id="a_node24"><a xlink:href="class_player_movement_test_script.html#a1c247cfdee35d3a1c1d3a81fd579b426" target="_top" xlink:title=" ">
<polygon fill="white" stroke="black" points="1467,-40.5 1467,-61.5 1694,-61.5 1694,-40.5 1467,-40.5"/>
<text text-anchor="middle" x="1580.5" y="-47.9" font-family="Helvetica,sans-Serif" font-size="12.00">PlayerMovementTestScript.FixedUpdate</text>
</a>
</g>
</g>
<!-- Node1&#45;&gt;Node24 -->
<g id="edge25" class="edge">
<title>Node1&#45;&gt;Node24</title>
<path fill="none" stroke="midnightblue" d="M1759.89,-113.75C1743.57,-100 1718.84,-81.37 1694,-71 1684.75,-67.14 1674.78,-64.03 1664.72,-61.51"/>
<polygon fill="midnightblue" stroke="midnightblue" points="1757.76,-116.54 1767.62,-120.44 1762.34,-111.25 1757.76,-116.54"/>
</g>
<!-- Node25 -->
<g id="node25" class="node">
<title>Node25</title>
<g id="a_node25"><a xlink:href="class_player_movement_test_script.html#a1f9e6f5902a9ba827538f3325227917c" target="_top" xlink:title=" ">
<polygon fill="white" stroke="black" points="1473,-0.5 1473,-21.5 1688,-21.5 1688,-0.5 1473,-0.5"/>
<text text-anchor="middle" x="1580.5" y="-7.9" font-family="Helvetica,sans-Serif" font-size="12.00">PlayerMovementTestScript.ResetDice</text>
</a>
</g>
</g>
<!-- Node1&#45;&gt;Node25 -->
<g id="edge26" class="edge">
<title>Node1&#45;&gt;Node25</title>
<path fill="none" stroke="midnightblue" d="M1768.19,-111.51C1754.25,-88.33 1727.72,-50.36 1694,-31 1687.38,-27.2 1680.2,-24.09 1672.79,-21.55"/>
<polygon fill="midnightblue" stroke="midnightblue" points="1765.33,-113.55 1773.39,-120.44 1771.39,-110.04 1765.33,-113.55"/>
</g>
<!-- Node3 -->
<g id="node3" class="node">
<title>Node3</title>
<g id="a_node3"><a xlink:href="class_round_manager.html#ab795c17242b95ab2cef508da5daa2593" target="_top" xlink:title="Rolls dice, will not roll if the player has rolled aready. Pass true to forcfully roll it">
<polygon fill="white" stroke="black" points="1275.5,-240.5 1275.5,-261.5 1419.5,-261.5 1419.5,-240.5 1275.5,-240.5"/>
<text text-anchor="middle" x="1347.5" y="-247.9" font-family="Helvetica,sans-Serif" font-size="12.00">RoundManager.RollDice</text>
</a>
</g>
</g>
<!-- Node2&#45;&gt;Node3 -->
<g id="edge2" class="edge">
<title>Node2&#45;&gt;Node3</title>
<path fill="none" stroke="midnightblue" d="M1477.7,-251C1458.14,-251 1438.04,-251 1419.7,-251"/>
<polygon fill="midnightblue" stroke="midnightblue" points="1477.87,-254.5 1487.87,-251 1477.87,-247.5 1477.87,-254.5"/>
</g>
<!-- Node4 -->
<g id="node4" class="node">
<title>Node4</title>
<g id="a_node4"><a xlink:href="class_round_manager.html#a8d52738f26bc5b5eea98f8e3dd213744" target="_top" xlink:title="roll dice after a delay time, used for free roll tile">
<polygon fill="white" stroke="black" points="1079,-279.5 1079,-300.5 1228,-300.5 1228,-279.5 1079,-279.5"/>
<text text-anchor="middle" x="1153.5" y="-286.9" font-family="Helvetica,sans-Serif" font-size="12.00">RoundManager.DelayRoll</text>
</a>
</g>
</g>
<!-- Node3&#45;&gt;Node4 -->
<g id="edge3" class="edge">
<title>Node3&#45;&gt;Node4</title>
<path fill="none" stroke="midnightblue" d="M1284.92,-263.51C1259.57,-268.66 1230.53,-274.56 1206.3,-279.48"/>
<polygon fill="midnightblue" stroke="midnightblue" points="1285.69,-266.92 1294.79,-261.5 1284.3,-260.06 1285.69,-266.92"/>
</g>
<!-- Node11 -->
<g id="node11" class="node">
<title>Node11</title>
<g id="a_node11"><a xlink:href="class_user_controller.html#aee97f82bdda647a5e3761666a3d46552" target="_top" xlink:title="Rolls the dice">
<polygon fill="white" stroke="black" points="1084,-239.5 1084,-260.5 1223,-260.5 1223,-239.5 1084,-239.5"/>
<text text-anchor="middle" x="1153.5" y="-246.9" font-family="Helvetica,sans-Serif" font-size="12.00">UserController.RollDice</text>
</a>
</g>
</g>
<!-- Node3&#45;&gt;Node11 -->
<g id="edge10" class="edge">
<title>Node3&#45;&gt;Node11</title>
<path fill="none" stroke="midnightblue" d="M1265.16,-250.58C1251.14,-250.5 1236.69,-250.43 1223.05,-250.36"/>
<polygon fill="midnightblue" stroke="midnightblue" points="1265.26,-254.08 1275.28,-250.63 1265.3,-247.08 1265.26,-254.08"/>
</g>
<!-- Node5 -->
<g id="node5" class="node">
<title>Node5</title>
<g id="a_node5"><a xlink:href="class_round_manager.html#adfd4f66436e06c12a25c9236b629f369" target="_top" xlink:title="moving the current player to the selected tile">
<polygon fill="white" stroke="black" points="882,-279.5 882,-300.5 1043,-300.5 1043,-279.5 882,-279.5"/>
<text text-anchor="middle" x="962.5" y="-286.9" font-family="Helvetica,sans-Serif" font-size="12.00">RoundManager.MovePlayer</text>
</a>
</g>
</g>
<!-- Node4&#45;&gt;Node5 -->
<g id="edge4" class="edge">
<title>Node4&#45;&gt;Node5</title>
<path fill="none" stroke="midnightblue" d="M1068.64,-290C1060.17,-290 1051.59,-290 1043.17,-290"/>
<polygon fill="midnightblue" stroke="midnightblue" points="1068.89,-293.5 1078.89,-290 1068.89,-286.5 1068.89,-293.5"/>
</g>
<!-- Node6 -->
<g id="node6" class="node">
<title>Node6</title>
<g id="a_node6"><a xlink:href="class_user_controller.html#af896aefe0262e0d8f07fa5f18592877d" target="_top" xlink:title="Selects a tile for player movement">
<polygon fill="white" stroke="black" points="695.5,-279.5 695.5,-300.5 841.5,-300.5 841.5,-279.5 695.5,-279.5"/>
<text text-anchor="middle" x="768.5" y="-286.9" font-family="Helvetica,sans-Serif" font-size="12.00">UserController.SelectTile</text>
</a>
</g>
</g>
<!-- Node5&#45;&gt;Node6 -->
<g id="edge5" class="edge">
<title>Node5&#45;&gt;Node6</title>
<path fill="none" stroke="midnightblue" d="M871.71,-290C861.63,-290 851.46,-290 841.65,-290"/>
<polygon fill="midnightblue" stroke="midnightblue" points="871.74,-293.5 881.74,-290 871.74,-286.5 871.74,-293.5"/>
</g>
<!-- Node7 -->
<g id="node7" class="node">
<title>Node7</title>
<g id="a_node7"><a xlink:href="class_a_i_controller_script.html#af04897fa0ae4ed5e472dea79bce8d7df" target="_top" xlink:title="Decides where the AI should move to this should match the flow chart of the AI">
<polygon fill="white" stroke="black" points="435,-289.5 435,-310.5 645,-310.5 645,-289.5 435,-289.5"/>
<text text-anchor="middle" x="540" y="-296.9" font-family="Helvetica,sans-Serif" font-size="12.00">AIControllerScript.Decide_Movement</text>
</a>
</g>
</g>
<!-- Node6&#45;&gt;Node7 -->
<g id="edge6" class="edge">
<title>Node6&#45;&gt;Node7</title>
<path fill="none" stroke="midnightblue" d="M684.98,-293.64C672.05,-294.21 658.55,-294.81 645.21,-295.4"/>
<polygon fill="midnightblue" stroke="midnightblue" points="685.38,-297.13 695.21,-293.19 685.07,-290.14 685.38,-297.13"/>
</g>
<!-- Node10 -->
<g id="node10" class="node">
<title>Node10</title>
<g id="a_node10"><a xlink:href="class_user_input_control_script.html#a13be570929e27dad6d3d452ccd5f52eb" target="_top" xlink:title="move player token to the tile the cursor is on">
<polygon fill="white" stroke="black" points="425,-249.5 425,-270.5 655,-270.5 655,-249.5 425,-249.5"/>
<text text-anchor="middle" x="540" y="-256.9" font-family="Helvetica,sans-Serif" font-size="12.00">UserInputControlScript.MovePlayerToken</text>
</a>
</g>
</g>
<!-- Node6&#45;&gt;Node10 -->
<g id="edge9" class="edge">
<title>Node6&#45;&gt;Node10</title>
<path fill="none" stroke="midnightblue" d="M685.3,-279.11C664.15,-276.31 641.45,-273.3 620.45,-270.52"/>
<polygon fill="midnightblue" stroke="midnightblue" points="684.84,-282.58 695.21,-280.43 685.76,-275.64 684.84,-282.58"/>
</g>
<!-- Node8 -->
<g id="node8" class="node">
<title>Node8</title>
<g id="a_node8"><a xlink:href="class_a_i_controller_script.html#ac31d9b8dbb75696b181eff1fbef41b97" target="_top" xlink:title="dictates what the AI will do depending on what mode it is in">
<polygon fill="white" stroke="black" points="215,-210.5 215,-231.5 389,-231.5 389,-210.5 215,-210.5"/>
<text text-anchor="middle" x="302" y="-217.9" font-family="Helvetica,sans-Serif" font-size="12.00">AIControllerScript.AIBehaviour</text>
</a>
</g>
</g>
<!-- Node7&#45;&gt;Node8 -->
<g id="edge7" class="edge">
<title>Node7&#45;&gt;Node8</title>
<path fill="none" stroke="midnightblue" d="M451.97,-287.32C442.77,-285.21 433.64,-282.79 425,-280 386.26,-267.5 344.17,-244.95 320.94,-231.64"/>
<polygon fill="midnightblue" stroke="midnightblue" points="451.43,-290.78 461.94,-289.48 452.91,-283.94 451.43,-290.78"/>
</g>
<!-- Node9 -->
<g id="node9" class="node">
<title>Node9</title>
<g id="a_node9"><a xlink:href="class_a_i_controller_script.html#a74dc0e720fafceb873d3b19c12f68d58" target="_top" xlink:title=" ">
<polygon fill="white" stroke="black" points="0,-210.5 0,-231.5 179,-231.5 179,-210.5 0,-210.5"/>
<text text-anchor="middle" x="89.5" y="-217.9" font-family="Helvetica,sans-Serif" font-size="12.00">AIControllerScript.FixedUpdate</text>
</a>
</g>
</g>
<!-- Node8&#45;&gt;Node9 -->
<g id="edge8" class="edge">
<title>Node8&#45;&gt;Node9</title>
<path fill="none" stroke="midnightblue" d="M204.57,-221C196.15,-221 187.67,-221 179.32,-221"/>
<polygon fill="midnightblue" stroke="midnightblue" points="204.77,-224.5 214.77,-221 204.77,-217.5 204.77,-224.5"/>
</g>
<!-- Node12 -->
<g id="node12" class="node">
<title>Node12</title>
<g id="a_node12"><a xlink:href="class_a_i_controller_script.html#a1584ffc08f2ea88236ad6df47319636b" target="_top" xlink:title="have AI to roll">
<polygon fill="white" stroke="black" points="691,-230.5 691,-251.5 846,-251.5 846,-230.5 691,-230.5"/>
<text text-anchor="middle" x="768.5" y="-237.9" font-family="Helvetica,sans-Serif" font-size="12.00">AIControllerScript.RollDice</text>
</a>
</g>
</g>
<!-- Node11&#45;&gt;Node12 -->
<g id="edge11" class="edge">
<title>Node11&#45;&gt;Node12</title>
<path fill="none" stroke="midnightblue" d="M1073.55,-248.14C1006.9,-246.58 912.05,-244.35 846.08,-242.8"/>
<polygon fill="midnightblue" stroke="midnightblue" points="1073.51,-251.64 1083.58,-248.38 1073.67,-244.65 1073.51,-251.64"/>
</g>
<!-- Node13 -->
<g id="node13" class="node">
<title>Node13</title>
<g id="a_node13"><a xlink:href="class_u_i_handler.html#ac40571820fefd3233236883c01522fa1" target="_top" xlink:title="Rolls dice when the button is pressed">
<polygon fill="white" stroke="black" points="888.5,-200.5 888.5,-221.5 1036.5,-221.5 1036.5,-200.5 888.5,-200.5"/>
<text text-anchor="middle" x="962.5" y="-207.9" font-family="Helvetica,sans-Serif" font-size="12.00">UIHandler.RollDiceButton</text>
</a>
</g>
</g>
<!-- Node11&#45;&gt;Node13 -->
<g id="edge13" class="edge">
<title>Node11&#45;&gt;Node13</title>
<path fill="none" stroke="midnightblue" d="M1091.34,-237.38C1066.59,-232.27 1038.33,-226.44 1014.69,-221.56"/>
<polygon fill="midnightblue" stroke="midnightblue" points="1090.85,-240.85 1101.35,-239.45 1092.27,-234 1090.85,-240.85"/>
</g>
<!-- Node12&#45;&gt;Node8 -->
<g id="edge12" class="edge">
<title>Node12&#45;&gt;Node8</title>
<path fill="none" stroke="midnightblue" d="M680.6,-237.26C597.33,-233.67 472.37,-228.29 389.3,-224.72"/>
<polygon fill="midnightblue" stroke="midnightblue" points="680.66,-240.76 690.8,-237.7 680.96,-233.77 680.66,-240.76"/>
</g>
<!-- Node15 -->
<g id="node15" class="node">
<title>Node15</title>
<g id="a_node15"><a xlink:href="class_anson_test_script.html#a88d84c041cb91d2f739270581d59d7e9" target="_top" xlink:title=" ">
<polygon fill="white" stroke="black" points="1275.5,-200.5 1275.5,-221.5 1419.5,-221.5 1419.5,-200.5 1275.5,-200.5"/>
<text text-anchor="middle" x="1347.5" y="-207.9" font-family="Helvetica,sans-Serif" font-size="12.00">AnsonTestScript.RollDie</text>
</a>
</g>
</g>
<!-- Node14&#45;&gt;Node15 -->
<g id="edge15" class="edge">
<title>Node14&#45;&gt;Node15</title>
<path fill="none" stroke="midnightblue" d="M1474.85,-211C1456.17,-211 1437.1,-211 1419.63,-211"/>
<polygon fill="midnightblue" stroke="midnightblue" points="1474.88,-214.5 1484.88,-211 1474.88,-207.5 1474.88,-214.5"/>
</g>
<!-- Node16 -->
<g id="node16" class="node">
<title>Node16</title>
<g id="a_node16"><a xlink:href="class_anson_test_script.html#a89ed8bb63ce2a8c4631e2dc3d9301e38" target="_top" xlink:title=" ">
<polygon fill="white" stroke="black" points="1081.5,-199.5 1081.5,-220.5 1225.5,-220.5 1225.5,-199.5 1081.5,-199.5"/>
<text text-anchor="middle" x="1153.5" y="-206.9" font-family="Helvetica,sans-Serif" font-size="12.00">AnsonTestScript.RollDie</text>
</a>
</g>
</g>
<!-- Node15&#45;&gt;Node16 -->
<g id="edge16" class="edge">
<title>Node15&#45;&gt;Node16</title>
<path fill="none" stroke="midnightblue" d="M1264.9,-210.57C1251.83,-210.51 1238.4,-210.44 1225.61,-210.37"/>
<polygon fill="midnightblue" stroke="midnightblue" points="1265.26,-214.08 1275.28,-210.63 1265.3,-207.08 1265.26,-214.08"/>
</g>
<!-- Node18 -->
<g id="node18" class="node">
<title>Node18</title>
<g id="a_node18"><a xlink:href="class_round_manager.html#abb654bc0114fc67d455ed6449d5bda22" target="_top" xlink:title=" ">
<polygon fill="white" stroke="black" points="1264,-160.5 1264,-181.5 1431,-181.5 1431,-160.5 1264,-160.5"/>
<text text-anchor="middle" x="1347.5" y="-167.9" font-family="Helvetica,sans-Serif" font-size="12.00">RoundManager.FixedUpdate</text>
</a>
</g>
</g>
<!-- Node17&#45;&gt;Node18 -->
<g id="edge18" class="edge">
<title>Node17&#45;&gt;Node18</title>
<path fill="none" stroke="midnightblue" d="M1481.48,-171C1464.72,-171 1447.46,-171 1431.15,-171"/>
<polygon fill="midnightblue" stroke="midnightblue" points="1481.84,-174.5 1491.84,-171 1481.84,-167.5 1481.84,-174.5"/>
</g>
<!-- Node20 -->
<g id="node20" class="node">
<title>Node20</title>
<g id="a_node20"><a xlink:href="class_user_controller.html#ab90611f541e20c125133d09b62407f41" target="_top" xlink:title="Ends turn">
<polygon fill="white" stroke="black" points="1278.5,-120.5 1278.5,-141.5 1416.5,-141.5 1416.5,-120.5 1278.5,-120.5"/>
<text text-anchor="middle" x="1347.5" y="-127.9" font-family="Helvetica,sans-Serif" font-size="12.00">UserController.EndTurn</text>
</a>
</g>
</g>
<!-- Node19&#45;&gt;Node20 -->
<g id="edge20" class="edge">
<title>Node19&#45;&gt;Node20</title>
<path fill="none" stroke="midnightblue" d="M1498.81,-131C1472,-131 1442.42,-131 1416.65,-131"/>
<polygon fill="midnightblue" stroke="midnightblue" points="1498.94,-134.5 1508.94,-131 1498.94,-127.5 1498.94,-134.5"/>
</g>
<!-- Node21 -->
<g id="node21" class="node">
<title>Node21</title>
<g id="a_node21"><a xlink:href="class_a_i_controller_script.html#a9c386cf1258ad897c9a1068804f07ba0" target="_top" xlink:title="have AI to end turn">
<polygon fill="white" stroke="black" points="691,-171.5 691,-192.5 846,-192.5 846,-171.5 691,-171.5"/>
<text text-anchor="middle" x="768.5" y="-178.9" font-family="Helvetica,sans-Serif" font-size="12.00">AIControllerScript.EndTurn</text>
</a>
</g>
</g>
<!-- Node20&#45;&gt;Node21 -->
<g id="edge21" class="edge">
<title>Node20&#45;&gt;Node21</title>
<path fill="none" stroke="midnightblue" d="M1281.22,-143.22C1263.97,-146.12 1245.32,-148.96 1228,-151 1094.29,-166.76 937.63,-175.22 846.38,-179.15"/>
<polygon fill="midnightblue" stroke="midnightblue" points="1281.94,-146.65 1291.2,-141.51 1280.75,-139.75 1281.94,-146.65"/>
</g>
<!-- Node22 -->
<g id="node22" class="node">
<title>Node22</title>
<g id="a_node22"><a xlink:href="class_u_i_handler.html#acc06a1dab8566d9e14f7ab3ae1ffea93" target="_top" xlink:title="Ends current player&#39;s turn">
<polygon fill="white" stroke="black" points="1096.5,-120.5 1096.5,-141.5 1210.5,-141.5 1210.5,-120.5 1096.5,-120.5"/>
<text text-anchor="middle" x="1153.5" y="-127.9" font-family="Helvetica,sans-Serif" font-size="12.00">UIHandler.EndTurn</text>
</a>
</g>
</g>
<!-- Node20&#45;&gt;Node22 -->
<g id="edge23" class="edge">
<title>Node20&#45;&gt;Node22</title>
<path fill="none" stroke="midnightblue" d="M1268.04,-131C1248.86,-131 1228.71,-131 1210.8,-131"/>
<polygon fill="midnightblue" stroke="midnightblue" points="1268.27,-134.5 1278.27,-131 1268.27,-127.5 1268.27,-134.5"/>
</g>
<!-- Node21&#45;&gt;Node8 -->
<g id="edge22" class="edge">
<title>Node21&#45;&gt;Node8</title>
<path fill="none" stroke="midnightblue" d="M680.6,-189.3C597.33,-196.29 472.37,-206.78 389.3,-213.75"/>
<polygon fill="midnightblue" stroke="midnightblue" points="681.13,-192.76 690.8,-188.44 680.54,-185.79 681.13,-192.76"/>
</g>
</g>
</svg>
