<?xml version="1.0" encoding="UTF-8" standalone="no"?>
<!DOCTYPE svg PUBLIC "-//W3C//DTD SVG 1.1//EN"
 "http://www.w3.org/Graphics/SVG/1.1/DTD/svg11.dtd">
<!-- Generated by graphviz version 2.47.1 (20210417.1919)
 -->
<!-- Title: Dice.ResetDice Pages: 1 -->
<svg width="574pt" height="110pt"
 viewBox="0.00 0.00 574.00 110.00" xmlns="http://www.w3.org/2000/svg" xmlns:xlink="http://www.w3.org/1999/xlink">
<g id="graph0" class="graph" transform="scale(1 1) rotate(0) translate(4 106)">
<title>Dice.ResetDice</title>
<polygon fill="white" stroke="transparent" points="-4,4 -4,-106 570,-106 570,4 -4,4"/>
<!-- Node1 -->
<g id="node1" class="node">
<title>Node1</title>
<g id="a_node1"><a xlink:title="Reset the dice">
<polygon fill="#bfbfbf" stroke="black" points="0,-40.5 0,-61.5 100,-61.5 100,-40.5 0,-40.5"/>
<text text-anchor="middle" x="50" y="-47.9" font-family="Helvetica,sans-Serif" font-size="12.00">Dice.ResetDice</text>
</a>
</g>
</g>
<!-- Node2 -->
<g id="node2" class="node">
<title>Node2</title>
<g id="a_node2"><a xlink:href="class_dice.html#ace4c995eb73b784d1076fde140ce85af" target="_top" xlink:title="Can Dice be reset">
<polygon fill="white" stroke="black" points="178.5,-80.5 178.5,-101.5 275.5,-101.5 275.5,-80.5 178.5,-80.5"/>
<text text-anchor="middle" x="227" y="-87.9" font-family="Helvetica,sans-Serif" font-size="12.00">Dice.CanReset</text>
</a>
</g>
</g>
<!-- Node1&#45;&gt;Node2 -->
<g id="edge1" class="edge">
<title>Node1&#45;&gt;Node2</title>
<path fill="none" stroke="midnightblue" d="M95.53,-61.59C108.57,-64.66 122.85,-67.99 136,-71 146.51,-73.4 157.73,-75.93 168.54,-78.34"/>
<polygon fill="midnightblue" stroke="midnightblue" points="167.81,-81.77 178.33,-80.52 169.33,-74.93 167.81,-81.77"/>
</g>
<!-- Node4 -->
<g id="node4" class="node">
<title>Node4</title>
<g id="a_node4"><a xlink:href="class_camera_close_up.html#ad31062bdf359a453fc85ebdd71fa1bae" target="_top" xlink:title="Clear camera close up">
<polygon fill="white" stroke="black" points="136,-40.5 136,-61.5 318,-61.5 318,-40.5 136,-40.5"/>
<text text-anchor="middle" x="227" y="-47.9" font-family="Helvetica,sans-Serif" font-size="12.00">CameraCloseUp.ClearCloseUp</text>
</a>
</g>
</g>
<!-- Node1&#45;&gt;Node4 -->
<g id="edge3" class="edge">
<title>Node1&#45;&gt;Node4</title>
<path fill="none" stroke="midnightblue" d="M100.21,-51C108.21,-51 116.73,-51 125.43,-51"/>
<polygon fill="midnightblue" stroke="midnightblue" points="125.7,-54.5 135.7,-51 125.7,-47.5 125.7,-54.5"/>
</g>
<!-- Node6 -->
<g id="node6" class="node">
<title>Node6</title>
<g id="a_node6"><a xlink:href="class_die.html#abc11c3d2bf0c0fba1555093eb5a8469e" target="_top" xlink:title="Reset Die to original position">
<polygon fill="white" stroke="black" points="183,-0.5 183,-21.5 271,-21.5 271,-0.5 183,-0.5"/>
<text text-anchor="middle" x="227" y="-7.9" font-family="Helvetica,sans-Serif" font-size="12.00">Die.ResetDie</text>
</a>
</g>
</g>
<!-- Node1&#45;&gt;Node6 -->
<g id="edge5" class="edge">
<title>Node1&#45;&gt;Node6</title>
<path fill="none" stroke="midnightblue" d="M95.53,-40.41C108.57,-37.34 122.85,-34.01 136,-31 147.95,-28.27 160.8,-25.38 172.94,-22.68"/>
<polygon fill="midnightblue" stroke="midnightblue" points="173.94,-26.04 182.94,-20.45 172.42,-19.21 173.94,-26.04"/>
</g>
<!-- Node3 -->
<g id="node3" class="node">
<title>Node3</title>
<g id="a_node3"><a xlink:href="class_die.html#a390d46459637fd249926cda472255d84" target="_top" xlink:title="Can the die be reset">
<polygon fill="white" stroke="black" points="405,-80.5 405,-101.5 515,-101.5 515,-80.5 405,-80.5"/>
<text text-anchor="middle" x="460" y="-87.9" font-family="Helvetica,sans-Serif" font-size="12.00">Die.CanResetDie</text>
</a>
</g>
</g>
<!-- Node2&#45;&gt;Node3 -->
<g id="edge2" class="edge">
<title>Node2&#45;&gt;Node3</title>
<path fill="none" stroke="midnightblue" d="M275.58,-91C309.87,-91 356.54,-91 394.22,-91"/>
<polygon fill="midnightblue" stroke="midnightblue" points="394.59,-94.5 404.59,-91 394.59,-87.5 394.59,-94.5"/>
</g>
<!-- Node5 -->
<g id="node5" class="node">
<title>Node5</title>
<g id="a_node5"><a xlink:href="class_camera_close_up.html#ae902d2ccdf969212e0cb84f638f68851" target="_top" xlink:title="Delay then clear close up">
<polygon fill="white" stroke="black" points="354,-40.5 354,-61.5 566,-61.5 566,-40.5 354,-40.5"/>
<text text-anchor="middle" x="460" y="-47.9" font-family="Helvetica,sans-Serif" font-size="12.00">CameraCloseUp.ClearCloseUpDelay</text>
</a>
</g>
</g>
<!-- Node4&#45;&gt;Node5 -->
<g id="edge4" class="edge">
<title>Node4&#45;&gt;Node5</title>
<path fill="none" stroke="midnightblue" d="M318.3,-51C326.67,-51 335.22,-51 343.77,-51"/>
<polygon fill="midnightblue" stroke="midnightblue" points="343.8,-54.5 353.8,-51 343.8,-47.5 343.8,-54.5"/>
</g>
</g>
</svg>
