<?xml version="1.0" encoding="UTF-8" standalone="no"?>
<!DOCTYPE svg PUBLIC "-//W3C//DTD SVG 1.1//EN"
 "http://www.w3.org/Graphics/SVG/1.1/DTD/svg11.dtd">
<!-- Generated by graphviz version 2.47.1 (20210417.1919)
 -->
<!-- Title: UIHandler.DisplayMenuSuggestion Pages: 1 -->
<svg width="912pt" height="150pt"
 viewBox="0.00 0.00 912.00 150.00" xmlns="http://www.w3.org/2000/svg" xmlns:xlink="http://www.w3.org/1999/xlink">
<g id="graph0" class="graph" transform="scale(1 1) rotate(0) translate(4 146)">
<title>UIHandler.DisplayMenuSuggestion</title>
<polygon fill="white" stroke="transparent" points="-4,4 -4,-146 908,-146 908,4 -4,4"/>
<!-- Node1 -->
<g id="node1" class="node">
<title>Node1</title>
<g id="a_node1"><a xlink:title="Displays Suggestion menu, set the room if in a room">
<polygon fill="#bfbfbf" stroke="black" points="0,-60.5 0,-81.5 197,-81.5 197,-60.5 0,-60.5"/>
<text text-anchor="middle" x="98.5" y="-67.9" font-family="Helvetica,sans-Serif" font-size="12.00">UIHandler.DisplayMenuSuggestion</text>
</a>
</g>
</g>
<!-- Node2 -->
<g id="node2" class="node">
<title>Node2</title>
<g id="a_node2"><a xlink:href="class_card_manager.html#a124d7d9ab3a0e7c22ca64c15da76d4b1" target="_top" xlink:title="Looks for the specified weapon card">
<polygon fill="white" stroke="black" points="275.5,-120.5 275.5,-141.5 417.5,-141.5 417.5,-120.5 275.5,-120.5"/>
<text text-anchor="middle" x="346.5" y="-127.9" font-family="Helvetica,sans-Serif" font-size="12.00">CardManager.FindCard</text>
</a>
</g>
</g>
<!-- Node1&#45;&gt;Node2 -->
<g id="edge1" class="edge">
<title>Node1&#45;&gt;Node2</title>
<path fill="none" stroke="midnightblue" d="M131.05,-81.57C157.93,-90.31 197.69,-102.6 233,-111 244.53,-113.74 256.81,-116.3 268.86,-118.6"/>
<polygon fill="midnightblue" stroke="midnightblue" points="268.44,-122.08 278.91,-120.47 269.72,-115.2 268.44,-122.08"/>
</g>
<!-- Node3 -->
<g id="node3" class="node">
<title>Node3</title>
<g id="a_node3"><a xlink:href="class_user_controller.html#a587c55687141d18f375e0504ea4649fa" target="_top" xlink:title="Gets the player controller for the current player">
<polygon fill="white" stroke="black" points="254,-80.5 254,-101.5 439,-101.5 439,-80.5 254,-80.5"/>
<text text-anchor="middle" x="346.5" y="-87.9" font-family="Helvetica,sans-Serif" font-size="12.00">UserController.GetCurrentPlayer</text>
</a>
</g>
</g>
<!-- Node1&#45;&gt;Node3 -->
<g id="edge2" class="edge">
<title>Node1&#45;&gt;Node3</title>
<path fill="none" stroke="midnightblue" d="M197.08,-78.93C212.37,-80.18 228.22,-81.46 243.61,-82.72"/>
<polygon fill="midnightblue" stroke="midnightblue" points="243.39,-86.21 253.65,-83.53 243.96,-79.23 243.39,-86.21"/>
</g>
<!-- Node6 -->
<g id="node6" class="node">
<title>Node6</title>
<g id="a_node6"><a xlink:href="class_player_master_controller.html#a0447a8a21b5c0f2c94f9d27e0bcd0830" target="_top" xlink:title=" ">
<polygon fill="white" stroke="black" points="233,-40.5 233,-61.5 460,-61.5 460,-40.5 233,-40.5"/>
<text text-anchor="middle" x="346.5" y="-47.9" font-family="Helvetica,sans-Serif" font-size="12.00">PlayerMasterController.GetCurrentRoom</text>
</a>
</g>
</g>
<!-- Node1&#45;&gt;Node6 -->
<g id="edge5" class="edge">
<title>Node1&#45;&gt;Node6</title>
<path fill="none" stroke="midnightblue" d="M197.08,-63.07C205.47,-62.38 214.02,-61.69 222.57,-60.99"/>
<polygon fill="midnightblue" stroke="midnightblue" points="222.92,-64.48 232.6,-60.18 222.35,-57.5 222.92,-64.48"/>
</g>
<!-- Node7 -->
<g id="node7" class="node">
<title>Node7</title>
<g id="a_node7"><a xlink:href="class_suggestion.html#aec2e9ce82ae5f51cea7570bc6dafa43a" target="_top" xlink:title=" ">
<polygon fill="white" stroke="black" points="272,-0.5 272,-21.5 421,-21.5 421,-0.5 272,-0.5"/>
<text text-anchor="middle" x="346.5" y="-7.9" font-family="Helvetica,sans-Serif" font-size="12.00">Suggestion.SetSugRoom</text>
</a>
</g>
</g>
<!-- Node1&#45;&gt;Node7 -->
<g id="edge6" class="edge">
<title>Node1&#45;&gt;Node7</title>
<path fill="none" stroke="midnightblue" d="M131.05,-60.43C157.93,-51.69 197.69,-39.4 233,-31 244.53,-28.26 256.81,-25.7 268.86,-23.4"/>
<polygon fill="midnightblue" stroke="midnightblue" points="269.72,-26.8 278.91,-21.53 268.44,-19.92 269.72,-26.8"/>
</g>
<!-- Node4 -->
<g id="node4" class="node">
<title>Node4</title>
<g id="a_node4"><a xlink:href="class_round_manager.html#aab3f49a5e05508a8e023a497e763c1c8" target="_top" xlink:title="Gets the player controller for the current player">
<polygon fill="white" stroke="black" points="496,-80.5 496,-101.5 686,-101.5 686,-80.5 496,-80.5"/>
<text text-anchor="middle" x="591" y="-87.9" font-family="Helvetica,sans-Serif" font-size="12.00">RoundManager.GetCurrentPlayer</text>
</a>
</g>
</g>
<!-- Node3&#45;&gt;Node4 -->
<g id="edge3" class="edge">
<title>Node3&#45;&gt;Node4</title>
<path fill="none" stroke="midnightblue" d="M439.18,-91C454.36,-91 470.2,-91 485.67,-91"/>
<polygon fill="midnightblue" stroke="midnightblue" points="485.77,-94.5 495.77,-91 485.77,-87.5 485.77,-94.5"/>
</g>
<!-- Node5 -->
<g id="node5" class="node">
<title>Node5</title>
<g id="a_node5"><a xlink:href="class_turn_controller.html#af16e42b7e61c5a999291327e2e556caa" target="_top" xlink:title=" ">
<polygon fill="white" stroke="black" points="722,-80.5 722,-101.5 904,-101.5 904,-80.5 722,-80.5"/>
<text text-anchor="middle" x="813" y="-87.9" font-family="Helvetica,sans-Serif" font-size="12.00">TurnController.GetCurrentPlayer</text>
</a>
</g>
</g>
<!-- Node4&#45;&gt;Node5 -->
<g id="edge4" class="edge">
<title>Node4&#45;&gt;Node5</title>
<path fill="none" stroke="midnightblue" d="M686.26,-91C694.63,-91 703.13,-91 711.55,-91"/>
<polygon fill="midnightblue" stroke="midnightblue" points="711.78,-94.5 721.78,-91 711.78,-87.5 711.78,-94.5"/>
</g>
</g>
</svg>
