<?xml version="1.0" encoding="UTF-8" standalone="no"?>
<!DOCTYPE svg PUBLIC "-//W3C//DTD SVG 1.1//EN"
 "http://www.w3.org/Graphics/SVG/1.1/DTD/svg11.dtd">
<!-- Generated by graphviz version 2.47.1 (20210417.1919)
 -->
<!-- Title: BoardManager.ShowMovable Pages: 1 -->
<svg width="880pt" height="150pt"
 viewBox="0.00 0.00 880.00 150.00" xmlns="http://www.w3.org/2000/svg" xmlns:xlink="http://www.w3.org/1999/xlink">
<g id="graph0" class="graph" transform="scale(1 1) rotate(0) translate(4 146)">
<title>BoardManager.ShowMovable</title>
<polygon fill="white" stroke="transparent" points="-4,4 -4,-146 876,-146 876,4 -4,4"/>
<!-- Node1 -->
<g id="node1" class="node">
<title>Node1</title>
<g id="a_node1"><a xlink:title="Mark and show which tile the player can move to">
<polygon fill="#bfbfbf" stroke="black" points="0,-60.5 0,-81.5 172,-81.5 172,-60.5 0,-60.5"/>
<text text-anchor="middle" x="86" y="-67.9" font-family="Helvetica,sans-Serif" font-size="12.00">BoardManager.ShowMovable</text>
</a>
</g>
</g>
<!-- Node2 -->
<g id="node2" class="node">
<title>Node2</title>
<g id="a_node2"><a xlink:href="class_board_manager.html#a1ea52b667d1dd7ca6b4fa956a19ee26d" target="_top" xlink:title="Perform bfs search for the tiles">
<polygon fill="white" stroke="black" points="224,-80.5 224,-101.5 338,-101.5 338,-80.5 224,-80.5"/>
<text text-anchor="middle" x="281" y="-87.9" font-family="Helvetica,sans-Serif" font-size="12.00">BoardManager.bfs</text>
</a>
</g>
</g>
<!-- Node1&#45;&gt;Node2 -->
<g id="edge1" class="edge">
<title>Node1&#45;&gt;Node2</title>
<path fill="none" stroke="midnightblue" d="M172.21,-79.83C186.14,-81.27 200.37,-82.75 213.75,-84.13"/>
<polygon fill="midnightblue" stroke="midnightblue" points="213.48,-87.63 223.79,-85.18 214.21,-80.66 213.48,-87.63"/>
</g>
<!-- Node6 -->
<g id="node6" class="node">
<title>Node6</title>
<g id="a_node6"><a xlink:href="class_board_tile_script.html#a3ff1d3c491fe4d7e421a624ac0b5be6f" target="_top" xlink:title="setting the glow on the tile">
<polygon fill="white" stroke="black" points="208,-40.5 208,-61.5 354,-61.5 354,-40.5 208,-40.5"/>
<text text-anchor="middle" x="281" y="-47.9" font-family="Helvetica,sans-Serif" font-size="12.00">BoardTileScript.GlowTile</text>
</a>
</g>
</g>
<!-- Node1&#45;&gt;Node6 -->
<g id="edge5" class="edge">
<title>Node1&#45;&gt;Node6</title>
<path fill="none" stroke="midnightblue" d="M172.21,-62.17C180.69,-61.29 189.27,-60.4 197.72,-59.53"/>
<polygon fill="midnightblue" stroke="midnightblue" points="198.33,-62.98 207.92,-58.47 197.61,-56.02 198.33,-62.98"/>
</g>
<!-- Node3 -->
<g id="node3" class="node">
<title>Node3</title>
<g id="a_node3"><a xlink:href="class_board_manager.html#ae3af0b08bdfbc0ebcda23950eb935a5d" target="_top" xlink:title="Return array of all neighbours of given tile">
<polygon fill="white" stroke="black" points="422,-120.5 422,-141.5 618,-141.5 618,-120.5 422,-120.5"/>
<text text-anchor="middle" x="520" y="-127.9" font-family="Helvetica,sans-Serif" font-size="12.00">BoardManager.GetTileNeighbours</text>
</a>
</g>
</g>
<!-- Node2&#45;&gt;Node3 -->
<g id="edge2" class="edge">
<title>Node2&#45;&gt;Node3</title>
<path fill="none" stroke="midnightblue" d="M337.16,-101.54C354.1,-104.69 372.8,-108.07 390,-111 405.73,-113.67 422.56,-116.39 438.7,-118.92"/>
<polygon fill="midnightblue" stroke="midnightblue" points="438.22,-122.39 448.64,-120.47 439.3,-115.47 438.22,-122.39"/>
</g>
<!-- Node5 -->
<g id="node5" class="node">
<title>Node5</title>
<g id="a_node5"><a xlink:href="class_board_tile_script.html#aeee5122d5e5b79867f6538ec4d597b6a" target="_top" xlink:title="check if tile is empty">
<polygon fill="white" stroke="black" points="448.5,-80.5 448.5,-101.5 591.5,-101.5 591.5,-80.5 448.5,-80.5"/>
<text text-anchor="middle" x="520" y="-87.9" font-family="Helvetica,sans-Serif" font-size="12.00">BoardTileScript.IsEmpty</text>
</a>
</g>
</g>
<!-- Node2&#45;&gt;Node5 -->
<g id="edge4" class="edge">
<title>Node2&#45;&gt;Node5</title>
<path fill="none" stroke="midnightblue" d="M338.17,-91C368.06,-91 405.36,-91 438.3,-91"/>
<polygon fill="midnightblue" stroke="midnightblue" points="438.37,-94.5 448.37,-91 438.37,-87.5 438.37,-94.5"/>
</g>
<!-- Node4 -->
<g id="node4" class="node">
<title>Node4</title>
<g id="a_node4"><a xlink:href="class_board_manager.html#a6b2b89b5ce622bf45676e6993f8ec216" target="_top" xlink:title="Get a tile from the array using a grid reference.">
<polygon fill="white" stroke="black" points="686,-120.5 686,-141.5 872,-141.5 872,-120.5 686,-120.5"/>
<text text-anchor="middle" x="779" y="-127.9" font-family="Helvetica,sans-Serif" font-size="12.00">BoardManager.GetTileFromGrid</text>
</a>
</g>
</g>
<!-- Node3&#45;&gt;Node4 -->
<g id="edge3" class="edge">
<title>Node3&#45;&gt;Node4</title>
<path fill="none" stroke="midnightblue" d="M618.16,-131C636.96,-131 656.71,-131 675.66,-131"/>
<polygon fill="midnightblue" stroke="midnightblue" points="675.8,-134.5 685.8,-131 675.8,-127.5 675.8,-134.5"/>
</g>
<!-- Node7 -->
<g id="node7" class="node">
<title>Node7</title>
<g id="a_node7"><a xlink:href="class_board_tile_effect_handler_script.html#a93e813816ff40b3602de22f87a694766" target="_top" xlink:title="turn off the effect for when player can move to that tile">
<polygon fill="white" stroke="black" points="390,-40.5 390,-61.5 650,-61.5 650,-40.5 390,-40.5"/>
<text text-anchor="middle" x="520" y="-47.9" font-family="Helvetica,sans-Serif" font-size="12.00">BoardTileEffectHandlerScript.ToggleEffect_Off</text>
</a>
</g>
</g>
<!-- Node6&#45;&gt;Node7 -->
<g id="edge6" class="edge">
<title>Node6&#45;&gt;Node7</title>
<path fill="none" stroke="midnightblue" d="M354.07,-51C362.38,-51 371.06,-51 379.89,-51"/>
<polygon fill="midnightblue" stroke="midnightblue" points="379.92,-54.5 389.92,-51 379.92,-47.5 379.92,-54.5"/>
</g>
<!-- Node8 -->
<g id="node8" class="node">
<title>Node8</title>
<g id="a_node8"><a xlink:href="class_board_tile_effect_handler_script.html#a7bf5b2a819cb44463464d5c951bf3143" target="_top" xlink:title="turn on the effect for when player can move to that tile">
<polygon fill="white" stroke="black" points="390,-0.5 390,-21.5 650,-21.5 650,-0.5 390,-0.5"/>
<text text-anchor="middle" x="520" y="-7.9" font-family="Helvetica,sans-Serif" font-size="12.00">BoardTileEffectHandlerScript.ToggleEffect_On</text>
</a>
</g>
</g>
<!-- Node6&#45;&gt;Node8 -->
<g id="edge7" class="edge">
<title>Node6&#45;&gt;Node8</title>
<path fill="none" stroke="midnightblue" d="M337.16,-40.46C354.1,-37.31 372.8,-33.93 390,-31 405.73,-28.33 422.56,-25.61 438.7,-23.08"/>
<polygon fill="midnightblue" stroke="midnightblue" points="439.3,-26.53 448.64,-21.53 438.22,-19.61 439.3,-26.53"/>
</g>
</g>
</svg>
