<?xml version="1.0" encoding="UTF-8" standalone="no"?>
<!DOCTYPE svg PUBLIC "-//W3C//DTD SVG 1.1//EN"
 "http://www.w3.org/Graphics/SVG/1.1/DTD/svg11.dtd">
<!-- Generated by graphviz version 2.47.1 (20210417.1919)
 -->
<!-- Title: CardSlot.Start Pages: 1 -->
<svg width="519pt" height="110pt"
 viewBox="0.00 0.00 519.00 110.00" xmlns="http://www.w3.org/2000/svg" xmlns:xlink="http://www.w3.org/1999/xlink">
<g id="graph0" class="graph" transform="scale(1 1) rotate(0) translate(4 106)">
<title>CardSlot.Start</title>
<polygon fill="white" stroke="transparent" points="-4,4 -4,-106 515,-106 515,4 -4,4"/>
<!-- Node1 -->
<g id="node1" class="node">
<title>Node1</title>
<g id="a_node1"><a xlink:title=" ">
<polygon fill="#bfbfbf" stroke="black" points="0,-60.5 0,-81.5 91,-81.5 91,-60.5 0,-60.5"/>
<text text-anchor="middle" x="45.5" y="-67.9" font-family="Helvetica,sans-Serif" font-size="12.00">CardSlot.Start</text>
</a>
</g>
</g>
<!-- Node2 -->
<g id="node2" class="node">
<title>Node2</title>
<g id="a_node2"><a xlink:href="class_card_slot.html#a4104eaa61f0aa1eeec4ed80cc08c4818" target="_top" xlink:title=" ">
<polygon fill="white" stroke="black" points="146.5,-80.5 146.5,-101.5 254.5,-101.5 254.5,-80.5 146.5,-80.5"/>
<text text-anchor="middle" x="200.5" y="-87.9" font-family="Helvetica,sans-Serif" font-size="12.00">CardSlot.Initialise</text>
</a>
</g>
</g>
<!-- Node1&#45;&gt;Node2 -->
<g id="edge1" class="edge">
<title>Node1&#45;&gt;Node2</title>
<path fill="none" stroke="midnightblue" d="M91.17,-76.84C105.21,-78.67 121,-80.74 136.09,-82.71"/>
<polygon fill="midnightblue" stroke="midnightblue" points="136.02,-86.23 146.39,-84.06 136.93,-79.29 136.02,-86.23"/>
</g>
<!-- Node3 -->
<g id="node3" class="node">
<title>Node3</title>
<g id="a_node3"><a xlink:href="class_card_slot.html#a4690c0753db45ada6b02681269ecfbb1" target="_top" xlink:title=" ">
<polygon fill="white" stroke="black" points="127,-40.5 127,-61.5 274,-61.5 274,-40.5 127,-40.5"/>
<text text-anchor="middle" x="200.5" y="-47.9" font-family="Helvetica,sans-Serif" font-size="12.00">CardSlot.SetCardDetails</text>
</a>
</g>
</g>
<!-- Node1&#45;&gt;Node3 -->
<g id="edge2" class="edge">
<title>Node1&#45;&gt;Node3</title>
<path fill="none" stroke="midnightblue" d="M91.17,-65.16C99.3,-64.1 108.03,-62.96 116.86,-61.8"/>
<polygon fill="midnightblue" stroke="midnightblue" points="117.39,-65.26 126.86,-60.5 116.49,-58.32 117.39,-65.26"/>
</g>
<!-- Node4 -->
<g id="node4" class="node">
<title>Node4</title>
<g id="a_node4"><a xlink:href="class_card.html#a25e8366933b176fae41e4d2373be7815" target="_top" xlink:title=" ">
<polygon fill="white" stroke="black" points="349,-80.5 349,-101.5 472,-101.5 472,-80.5 349,-80.5"/>
<text text-anchor="middle" x="410.5" y="-87.9" font-family="Helvetica,sans-Serif" font-size="12.00">Card.GetCardImage</text>
</a>
</g>
</g>
<!-- Node3&#45;&gt;Node4 -->
<g id="edge3" class="edge">
<title>Node3&#45;&gt;Node4</title>
<path fill="none" stroke="midnightblue" d="M256.15,-61.51C283.39,-66.75 316.51,-73.12 344.99,-78.59"/>
<polygon fill="midnightblue" stroke="midnightblue" points="344.37,-82.04 354.85,-80.49 345.7,-75.17 344.37,-82.04"/>
</g>
<!-- Node5 -->
<g id="node5" class="node">
<title>Node5</title>
<g id="a_node5"><a xlink:href="class_card.html#a094a5e7ea98cc156ac64e578a987be85" target="_top" xlink:title=" ">
<polygon fill="white" stroke="black" points="352.5,-40.5 352.5,-61.5 468.5,-61.5 468.5,-40.5 352.5,-40.5"/>
<text text-anchor="middle" x="410.5" y="-47.9" font-family="Helvetica,sans-Serif" font-size="12.00">Card.GetCardType</text>
</a>
</g>
</g>
<!-- Node3&#45;&gt;Node5 -->
<g id="edge4" class="edge">
<title>Node3&#45;&gt;Node5</title>
<path fill="none" stroke="midnightblue" d="M274.25,-51C296.3,-51 320.41,-51 342.09,-51"/>
<polygon fill="midnightblue" stroke="midnightblue" points="342.19,-54.5 352.19,-51 342.19,-47.5 342.19,-54.5"/>
</g>
<!-- Node6 -->
<g id="node6" class="node">
<title>Node6</title>
<g id="a_node6"><a xlink:href="class_enum_to_string.html#a078a1fb16a0030544fac1b96a90b6b83" target="_top" xlink:title="Get a string value from a valid enum">
<polygon fill="white" stroke="black" points="310,-0.5 310,-21.5 511,-21.5 511,-0.5 310,-0.5"/>
<text text-anchor="middle" x="410.5" y="-7.9" font-family="Helvetica,sans-Serif" font-size="12.00">EnumToString.GetStringFromEnum</text>
</a>
</g>
</g>
<!-- Node3&#45;&gt;Node6 -->
<g id="edge5" class="edge">
<title>Node3&#45;&gt;Node6</title>
<path fill="none" stroke="midnightblue" d="M256.15,-40.49C283.39,-35.25 316.51,-28.88 344.99,-23.41"/>
<polygon fill="midnightblue" stroke="midnightblue" points="345.7,-26.83 354.85,-21.51 344.37,-19.96 345.7,-26.83"/>
</g>
</g>
</svg>
