<?xml version="1.0" encoding="UTF-8" standalone="no"?>
<!DOCTYPE svg PUBLIC "-//W3C//DTD SVG 1.1//EN"
 "http://www.w3.org/Graphics/SVG/1.1/DTD/svg11.dtd">
<!-- Generated by graphviz version 2.47.1 (20210417.1919)
 -->
<!-- Title: UserController.GetCurrentPlayer Pages: 1 -->
<svg width="637pt" height="30pt"
 viewBox="0.00 0.00 637.00 30.00" xmlns="http://www.w3.org/2000/svg" xmlns:xlink="http://www.w3.org/1999/xlink">
<g id="graph0" class="graph" transform="scale(1 1) rotate(0) translate(4 26)">
<title>UserController.GetCurrentPlayer</title>
<polygon fill="white" stroke="transparent" points="-4,4 -4,-26 633,-26 633,4 -4,4"/>
<!-- Node1 -->
<g id="node1" class="node">
<title>Node1</title>
<g id="a_node1"><a xlink:title="Gets the player controller for the current player">
<polygon fill="#bfbfbf" stroke="black" points="0,-0.5 0,-21.5 185,-21.5 185,-0.5 0,-0.5"/>
<text text-anchor="middle" x="92.5" y="-7.9" font-family="Helvetica,sans-Serif" font-size="12.00">UserController.GetCurrentPlayer</text>
</a>
</g>
</g>
<!-- Node2 -->
<g id="node2" class="node">
<title>Node2</title>
<g id="a_node2"><a xlink:href="class_round_manager.html#aab3f49a5e05508a8e023a497e763c1c8" target="_top" xlink:title="Gets the player controller for the current player">
<polygon fill="white" stroke="black" points="221,-0.5 221,-21.5 411,-21.5 411,-0.5 221,-0.5"/>
<text text-anchor="middle" x="316" y="-7.9" font-family="Helvetica,sans-Serif" font-size="12.00">RoundManager.GetCurrentPlayer</text>
</a>
</g>
</g>
<!-- Node1&#45;&gt;Node2 -->
<g id="edge1" class="edge">
<title>Node1&#45;&gt;Node2</title>
<path fill="none" stroke="midnightblue" d="M185.19,-11C193.66,-11 202.28,-11 210.85,-11"/>
<polygon fill="midnightblue" stroke="midnightblue" points="210.87,-14.5 220.87,-11 210.87,-7.5 210.87,-14.5"/>
</g>
<!-- Node3 -->
<g id="node3" class="node">
<title>Node3</title>
<g id="a_node3"><a xlink:href="class_turn_controller.html#af16e42b7e61c5a999291327e2e556caa" target="_top" xlink:title=" ">
<polygon fill="white" stroke="black" points="447,-0.5 447,-21.5 629,-21.5 629,-0.5 447,-0.5"/>
<text text-anchor="middle" x="538" y="-7.9" font-family="Helvetica,sans-Serif" font-size="12.00">TurnController.GetCurrentPlayer</text>
</a>
</g>
</g>
<!-- Node2&#45;&gt;Node3 -->
<g id="edge2" class="edge">
<title>Node2&#45;&gt;Node3</title>
<path fill="none" stroke="midnightblue" d="M411.26,-11C419.63,-11 428.13,-11 436.55,-11"/>
<polygon fill="midnightblue" stroke="midnightblue" points="436.78,-14.5 446.78,-11 436.78,-7.5 436.78,-14.5"/>
</g>
</g>
</svg>
