<?xml version="1.0" encoding="UTF-8" standalone="no"?>
<!DOCTYPE svg PUBLIC "-//W3C//DTD SVG 1.1//EN"
 "http://www.w3.org/Graphics/SVG/1.1/DTD/svg11.dtd">
<!-- Generated by graphviz version 2.47.1 (20210417.1919)
 -->
<!-- Title: DoorScript Pages: 1 -->
<svg width="163pt" height="263pt"
 viewBox="0.00 0.00 163.00 263.00" xmlns="http://www.w3.org/2000/svg" xmlns:xlink="http://www.w3.org/1999/xlink">
<g id="graph0" class="graph" transform="scale(1 1) rotate(0) translate(4 259)">
<title>DoorScript</title>
<polygon fill="white" stroke="transparent" points="-4,4 -4,-259 159,-259 159,4 -4,4"/>
<!-- Node1 -->
<g id="node1" class="node">
<title>Node1</title>
<g id="a_node1"><a xlink:title="Script for the door Gameobject">
<polygon fill="#bfbfbf" stroke="black" points="0,-0.5 0,-154.5 155,-154.5 155,-0.5 0,-0.5"/>
<text text-anchor="middle" x="77.5" y="-140.9" font-family="Helvetica,sans-Serif" font-size="12.00">DoorScript</text>
<polyline fill="none" stroke="black" points="0,-133.5 155,-133.5 "/>
<text text-anchor="start" x="8" y="-119.9" font-family="Helvetica,sans-Serif" font-size="12.00">&#45; testKeysActive</text>
<text text-anchor="start" x="8" y="-106.9" font-family="Helvetica,sans-Serif" font-size="12.00">&#45; doorAnimator</text>
<text text-anchor="start" x="8" y="-93.9" font-family="Helvetica,sans-Serif" font-size="12.00">&#45; isOpen</text>
<text text-anchor="start" x="8" y="-80.9" font-family="Helvetica,sans-Serif" font-size="12.00">&#45; kb</text>
<polyline fill="none" stroke="black" points="0,-73.5 155,-73.5 "/>
<text text-anchor="start" x="8" y="-59.9" font-family="Helvetica,sans-Serif" font-size="12.00">+ OpenDoor()</text>
<text text-anchor="start" x="8" y="-46.9" font-family="Helvetica,sans-Serif" font-size="12.00">+ CloseDoor()</text>
<text text-anchor="start" x="8" y="-33.9" font-family="Helvetica,sans-Serif" font-size="12.00">+ ToggleDoorOpenClose()</text>
<text text-anchor="start" x="8" y="-20.9" font-family="Helvetica,sans-Serif" font-size="12.00">&#45; Start()</text>
<text text-anchor="start" x="8" y="-7.9" font-family="Helvetica,sans-Serif" font-size="12.00">&#45; Update()</text>
</a>
</g>
</g>
<!-- Node2 -->
<g id="node2" class="node">
<title>Node2</title>
<g id="a_node2"><a xlink:title=" ">
<polygon fill="white" stroke="#bfbfbf" points="28.5,-191.5 28.5,-254.5 126.5,-254.5 126.5,-191.5 28.5,-191.5"/>
<text text-anchor="middle" x="77.5" y="-240.9" font-family="Helvetica,sans-Serif" font-size="12.00">MonoBehaviour</text>
<polyline fill="none" stroke="#bfbfbf" points="28.5,-233.5 126.5,-233.5 "/>
<text text-anchor="middle" x="77.5" y="-219.9" font-family="Helvetica,sans-Serif" font-size="12.00"> </text>
<polyline fill="none" stroke="#bfbfbf" points="28.5,-212.5 126.5,-212.5 "/>
<text text-anchor="middle" x="77.5" y="-198.9" font-family="Helvetica,sans-Serif" font-size="12.00"> </text>
</a>
</g>
</g>
<!-- Node2&#45;&gt;Node1 -->
<g id="edge1" class="edge">
<title>Node2&#45;&gt;Node1</title>
<path fill="none" stroke="midnightblue" d="M77.5,-181.08C77.5,-172.75 77.5,-163.74 77.5,-154.64"/>
<polygon fill="none" stroke="midnightblue" points="74,-181.22 77.5,-191.22 81,-181.22 74,-181.22"/>
</g>
</g>
</svg>
