<?xml version="1.0" encoding="UTF-8" standalone="no"?>
<!DOCTYPE svg PUBLIC "-//W3C//DTD SVG 1.1//EN"
 "http://www.w3.org/Graphics/SVG/1.1/DTD/svg11.dtd">
<!-- Generated by graphviz version 2.47.1 (20210417.1919)
 -->
<!-- Title: PlayerTokenScript.Update Pages: 1 -->
<!--zoomable 110 -->
<svg id="main" version="1.1" xmlns="http://www.w3.org/2000/svg" xmlns:xlink="http://www.w3.org/1999/xlink" xml:space="preserve" onload="init(evt)">
<style type="text/css"><![CDATA[
.edge:hover path { stroke: red; }
.edge:hover polygon { stroke: red; fill: red; }
]]></style>
<script type="text/javascript"><![CDATA[
var edges = document.getElementsByTagName('g');
if (edges && edges.length) {
  for (var i=0;i<edges.length;i++) {
    if (edges[i].id.substr(0,4)=='edge') {
      edges[i].setAttribute('class','edge');
    }
  }
}
]]></script>
        <defs>
                <circle id="rim" cx="0" cy="0" r="7"/>
                <circle id="rim2" cx="0" cy="0" r="3.5"/>
                <g id="zoomPlus">
                        <use xlink:href="#rim" fill="#404040">
                                <set attributeName="fill" to="#808080" begin="zoomplus.mouseover" end="zoomplus.mouseout"/>
                        </use>
                        <path d="M-4,0h8M0,-4v8" fill="none" stroke="white" stroke-width="1.5" pointer-events="none"/>
                </g>
                <g id="zoomMin">
                        <use xlink:href="#rim" fill="#404040">
                                <set attributeName="fill" to="#808080" begin="zoomminus.mouseover" end="zoomminus.mouseout"/>
                        </use>
                        <path d="M-4,0h8" fill="none" stroke="white" stroke-width="1.5" pointer-events="none"/>
                </g>
                <g id="dirArrow">
                        <path fill="none" stroke="white" stroke-width="1.5" d="M0,-3.0v7 M-2.5,-0.5L0,-3.0L2.5,-0.5"/>
                </g>
               <g id="resetDef">
                       <use xlink:href="#rim2" fill="#404040">
                               <set attributeName="fill" to="#808080" begin="reset.mouseover" end="reset.mouseout"/>
                       </use>
               </g>
        </defs>

<script type="text/javascript">
var viewWidth = 946;
var viewHeight = 110;
var sectionId = 'dynsection-20';
</script>
<script xlink:href="svgpan.js"/>
<svg id="graph" class="graph">
<g id="viewport">
<title>PlayerTokenScript.Update</title>
<polygon fill="white" stroke="transparent" points="-4,4 -4,-106 942,-106 942,4 -4,4"/>
<!-- Node1 -->
<g id="node1" class="node">
<title>Node1</title>
<g id="a_node1"><a xlink:title=" ">
<polygon fill="#bfbfbf" stroke="black" points="0,-20.5 0,-41.5 154,-41.5 154,-20.5 0,-20.5"/>
<text text-anchor="middle" x="77" y="-27.9" font-family="Helvetica,sans-Serif" font-size="12.00">PlayerTokenScript.Update</text>
</a>
</g>
</g>
<!-- Node2 -->
<g id="node2" class="node">
<title>Node2</title>
<g id="a_node2"><a xlink:href="class_player_token_script.html#af62557bd1edf071efadf23c84f0db1ad" target="_top" xlink:title=" ">
<polygon fill="white" stroke="black" points="222,-40.5 222,-61.5 398,-61.5 398,-40.5 222,-40.5"/>
<text text-anchor="middle" x="310" y="-47.9" font-family="Helvetica,sans-Serif" font-size="12.00">PlayerTokenScript.MoveToken</text>
</a>
</g>
</g>
<!-- Node1&#45;&gt;Node2 -->
<g id="edge1" class="edge">
<title>Node1&#45;&gt;Node2</title>
<path fill="none" stroke="midnightblue" d="M154.28,-37.6C172.55,-39.19 192.3,-40.9 211.39,-42.55"/>
<polygon fill="midnightblue" stroke="midnightblue" points="211.34,-46.06 221.6,-43.43 211.94,-39.08 211.34,-46.06"/>
</g>
<!-- Node6 -->
<g id="node6" class="node">
<title>Node6</title>
<g id="a_node6"><a xlink:href="class_player_token_script.html#ab5c5b11cccd8bac2a7243238f808929e" target="_top" xlink:title=" ">
<polygon fill="white" stroke="black" points="190,-0.5 190,-21.5 430,-21.5 430,-0.5 190,-0.5"/>
<text text-anchor="middle" x="310" y="-7.9" font-family="Helvetica,sans-Serif" font-size="12.00">PlayerTokenScript.UpdateTokenMovement</text>
</a>
</g>
</g>
<!-- Node1&#45;&gt;Node6 -->
<g id="edge5" class="edge">
<title>Node1&#45;&gt;Node6</title>
<path fill="none" stroke="midnightblue" d="M154.28,-24.4C162.5,-23.68 171.01,-22.95 179.64,-22.2"/>
<polygon fill="midnightblue" stroke="midnightblue" points="180.13,-25.67 189.8,-21.32 179.53,-18.7 180.13,-25.67"/>
</g>
<!-- Node3 -->
<g id="node3" class="node">
<title>Node3</title>
<g id="a_node3"><a xlink:href="class_camera_close_up.html#aee634e08987ea079413fd67b737b2c5d" target="_top" xlink:title="Set camera close up to character">
<polygon fill="white" stroke="black" points="466,-80.5 466,-101.5 690,-101.5 690,-80.5 466,-80.5"/>
<text text-anchor="middle" x="578" y="-87.9" font-family="Helvetica,sans-Serif" font-size="12.00">CameraCloseUp.SetCharacterCloseUp</text>
</a>
</g>
</g>
<!-- Node2&#45;&gt;Node3 -->
<g id="edge2" class="edge">
<title>Node2&#45;&gt;Node3</title>
<path fill="none" stroke="midnightblue" d="M380.89,-61.51C416.49,-66.86 459.93,-73.4 496.88,-78.95"/>
<polygon fill="midnightblue" stroke="midnightblue" points="496.71,-82.47 507.12,-80.49 497.75,-75.54 496.71,-82.47"/>
</g>
<!-- Node5 -->
<g id="node5" class="node">
<title>Node5</title>
<g id="a_node5"><a xlink:href="class_board_tile_script.html#a6257d1f00b3732f6d61a4d98b445890c" target="_top" xlink:title="setting the player token that is currently on this tile">
<polygon fill="white" stroke="black" points="502,-40.5 502,-61.5 654,-61.5 654,-40.5 502,-40.5"/>
<text text-anchor="middle" x="578" y="-47.9" font-family="Helvetica,sans-Serif" font-size="12.00">BoardTileScript.SetToken</text>
</a>
</g>
</g>
<!-- Node2&#45;&gt;Node5 -->
<g id="edge4" class="edge">
<title>Node2&#45;&gt;Node5</title>
<path fill="none" stroke="midnightblue" d="M398.1,-51C428.05,-51 461.55,-51 491.38,-51"/>
<polygon fill="midnightblue" stroke="midnightblue" points="491.77,-54.5 501.77,-51 491.77,-47.5 491.77,-54.5"/>
</g>
<!-- Node4 -->
<g id="node4" class="node">
<title>Node4</title>
<g id="a_node4"><a xlink:href="class_camera_close_up.html#a1d70afa00d6f67abee342c029af88fcf" target="_top" xlink:title="Set close up point">
<polygon fill="white" stroke="black" points="746,-80.5 746,-101.5 918,-101.5 918,-80.5 746,-80.5"/>
<text text-anchor="middle" x="832" y="-87.9" font-family="Helvetica,sans-Serif" font-size="12.00">CameraCloseUp.SetCloseUp</text>
</a>
</g>
</g>
<!-- Node3&#45;&gt;Node4 -->
<g id="edge3" class="edge">
<title>Node3&#45;&gt;Node4</title>
<path fill="none" stroke="midnightblue" d="M690.26,-91C705.37,-91 720.76,-91 735.55,-91"/>
<polygon fill="midnightblue" stroke="midnightblue" points="735.69,-94.5 745.69,-91 735.69,-87.5 735.69,-94.5"/>
</g>
<!-- Node7 -->
<g id="node7" class="node">
<title>Node7</title>
<g id="a_node7"><a xlink:href="class_camera_close_up.html#ad31062bdf359a453fc85ebdd71fa1bae" target="_top" xlink:title="Clear camera close up">
<polygon fill="white" stroke="black" points="487,-0.5 487,-21.5 669,-21.5 669,-0.5 487,-0.5"/>
<text text-anchor="middle" x="578" y="-7.9" font-family="Helvetica,sans-Serif" font-size="12.00">CameraCloseUp.ClearCloseUp</text>
</a>
</g>
</g>
<!-- Node6&#45;&gt;Node7 -->
<g id="edge6" class="edge">
<title>Node6&#45;&gt;Node7</title>
<path fill="none" stroke="midnightblue" d="M430.38,-11C445.76,-11 461.38,-11 476.41,-11"/>
<polygon fill="midnightblue" stroke="midnightblue" points="476.71,-14.5 486.71,-11 476.71,-7.5 476.71,-14.5"/>
</g>
<!-- Node8 -->
<g id="node8" class="node">
<title>Node8</title>
<g id="a_node8"><a xlink:href="class_camera_close_up.html#ae902d2ccdf969212e0cb84f638f68851" target="_top" xlink:title="Delay then clear close up">
<polygon fill="white" stroke="black" points="726,-0.5 726,-21.5 938,-21.5 938,-0.5 726,-0.5"/>
<text text-anchor="middle" x="832" y="-7.9" font-family="Helvetica,sans-Serif" font-size="12.00">CameraCloseUp.ClearCloseUpDelay</text>
</a>
</g>
</g>
<!-- Node7&#45;&gt;Node8 -->
<g id="edge7" class="edge">
<title>Node7&#45;&gt;Node8</title>
<path fill="none" stroke="midnightblue" d="M669.27,-11C684.33,-11 700.13,-11 715.71,-11"/>
<polygon fill="midnightblue" stroke="midnightblue" points="715.91,-14.5 725.91,-11 715.91,-7.5 715.91,-14.5"/>
</g>
</g>
</svg>
        <g id="navigator" transform="translate(0 0)" fill="#404254">
                <rect fill="#f2f5e9" fill-opacity="0.5" stroke="#606060" stroke-width=".5" x="0" y="0" width="60" height="60"/>
                <use id="zoomplus" xlink:href="#zoomPlus" x="17" y="9" onmousedown="handleZoom(evt,'in')"/>
                <use id="zoomminus" xlink:href="#zoomMin" x="42" y="9" onmousedown="handleZoom(evt,'out')"/>
                <use id="reset" xlink:href="#resetDef" x="30" y="36" onmousedown="handleReset()"/>
                <g id="arrowUp" xlink:href="#dirArrow" transform="translate(30 24)" onmousedown="handlePan(0,-1)">
                  <use xlink:href="#rim" fill="#404040">
                        <set attributeName="fill" to="#808080" begin="arrowUp.mouseover" end="arrowUp.mouseout"/>
                  </use>
                  <path fill="none" stroke="white" stroke-width="1.5" d="M0,-3.0v7 M-2.5,-0.5L0,-3.0L2.5,-0.5"/>
                </g>
                <g id="arrowRight" xlink:href="#dirArrow" transform="rotate(90) translate(36 -43)" onmousedown="handlePan(1,0)">
                  <use xlink:href="#rim" fill="#404040">
                        <set attributeName="fill" to="#808080" begin="arrowRight.mouseover" end="arrowRight.mouseout"/>
                  </use>
                  <path fill="none" stroke="white" stroke-width="1.5" d="M0,-3.0v7 M-2.5,-0.5L0,-3.0L2.5,-0.5"/>
                </g>
                <g id="arrowDown" xlink:href="#dirArrow" transform="rotate(180) translate(-30 -48)" onmousedown="handlePan(0,1)">
                  <use xlink:href="#rim" fill="#404040">
                        <set attributeName="fill" to="#808080" begin="arrowDown.mouseover" end="arrowDown.mouseout"/>
                  </use>
                  <path fill="none" stroke="white" stroke-width="1.5" d="M0,-3.0v7 M-2.5,-0.5L0,-3.0L2.5,-0.5"/>
                </g>
                <g id="arrowLeft" xlink:href="#dirArrow" transform="rotate(270) translate(-36 17)" onmousedown="handlePan(-1,0)">
                  <use xlink:href="#rim" fill="#404040">
                        <set attributeName="fill" to="#808080" begin="arrowLeft.mouseover" end="arrowLeft.mouseout"/>
                  </use>
                  <path fill="none" stroke="white" stroke-width="1.5" d="M0,-3.0v7 M-2.5,-0.5L0,-3.0L2.5,-0.5"/>
                </g>
        </g>
        <svg viewBox="0 0 15 15" width="100%" height="30px" preserveAspectRatio="xMaxYMin meet">
         <g id="arrow_out" transform="scale(0.3 0.3)">
          <a xlink:href="class_player_token_script_aabf6e085b41ef90234c5580c48389200_cgraph_org.svg" target="_base">
           <rect id="button" ry="5" rx="5" y="6" x="6" height="38" width="38"
                fill="#f2f5e9" fill-opacity="0.5" stroke="#606060" stroke-width="1.0"/>
           <path id="arrow"
             d="M 11.500037,31.436501 C 11.940474,20.09759 22.043105,11.32322 32.158766,21.979434 L 37.068811,17.246167 C 37.068811,17.246167 37.088388,32 37.088388,32 L 22.160133,31.978069 C 22.160133,31.978069 26.997745,27.140456 26.997745,27.140456 C 18.528582,18.264221 13.291696,25.230495 11.500037,31.436501 z"
             style="fill:#404040;"/>
          </a>
         </g>
        </svg>
</svg>
