<?xml version="1.0" encoding="UTF-8" standalone="no"?>
<!DOCTYPE svg PUBLIC "-//W3C//DTD SVG 1.1//EN"
 "http://www.w3.org/Graphics/SVG/1.1/DTD/svg11.dtd">
<!-- Generated by graphviz version 2.47.1 (20210417.1919)
 -->
<!-- Title: Die.ResetDie Pages: 1 -->
<!--zoomable 350 -->
<svg id="main" version="1.1" xmlns="http://www.w3.org/2000/svg" xmlns:xlink="http://www.w3.org/1999/xlink" xml:space="preserve" onload="init(evt)">
<style type="text/css"><![CDATA[
.edge:hover path { stroke: red; }
.edge:hover polygon { stroke: red; fill: red; }
]]></style>
<script type="text/javascript"><![CDATA[
var edges = document.getElementsByTagName('g');
if (edges && edges.length) {
  for (var i=0;i<edges.length;i++) {
    if (edges[i].id.substr(0,4)=='edge') {
      edges[i].setAttribute('class','edge');
    }
  }
}
]]></script>
        <defs>
                <circle id="rim" cx="0" cy="0" r="7"/>
                <circle id="rim2" cx="0" cy="0" r="3.5"/>
                <g id="zoomPlus">
                        <use xlink:href="#rim" fill="#404040">
                                <set attributeName="fill" to="#808080" begin="zoomplus.mouseover" end="zoomplus.mouseout"/>
                        </use>
                        <path d="M-4,0h8M0,-4v8" fill="none" stroke="white" stroke-width="1.5" pointer-events="none"/>
                </g>
                <g id="zoomMin">
                        <use xlink:href="#rim" fill="#404040">
                                <set attributeName="fill" to="#808080" begin="zoomminus.mouseover" end="zoomminus.mouseout"/>
                        </use>
                        <path d="M-4,0h8" fill="none" stroke="white" stroke-width="1.5" pointer-events="none"/>
                </g>
                <g id="dirArrow">
                        <path fill="none" stroke="white" stroke-width="1.5" d="M0,-3.0v7 M-2.5,-0.5L0,-3.0L2.5,-0.5"/>
                </g>
               <g id="resetDef">
                       <use xlink:href="#rim2" fill="#404040">
                               <set attributeName="fill" to="#808080" begin="reset.mouseover" end="reset.mouseout"/>
                       </use>
               </g>
        </defs>

<script type="text/javascript">
var viewWidth = 2054;
var viewHeight = 350;
var sectionId = 'dynsection-8';
</script>
<script xlink:href="svgpan.js"/>
<svg id="graph" class="graph">
<g id="viewport">
<title>Die.ResetDie</title>
<polygon fill="white" stroke="transparent" points="-4,4 -4,-346 2050,-346 2050,4 -4,4"/>
<!-- Node1 -->
<g id="node1" class="node">
<title>Node1</title>
<g id="a_node1"><a xlink:title="Reset Die to original position">
<polygon fill="#bfbfbf" stroke="black" points="1958,-280.5 1958,-301.5 2046,-301.5 2046,-280.5 1958,-280.5"/>
<text text-anchor="middle" x="2002" y="-287.9" font-family="Helvetica,sans-Serif" font-size="12.00">Die.ResetDie</text>
</a>
</g>
</g>
<!-- Node2 -->
<g id="node2" class="node">
<title>Node2</title>
<g id="a_node2"><a xlink:href="class_dice.html#ade1dc529eeb31f31e668c595c5748e67" target="_top" xlink:title="Reset the dice">
<polygon fill="white" stroke="black" points="1822,-140.5 1822,-161.5 1922,-161.5 1922,-140.5 1822,-140.5"/>
<text text-anchor="middle" x="1872" y="-147.9" font-family="Helvetica,sans-Serif" font-size="12.00">Dice.ResetDice</text>
</a>
</g>
</g>
<!-- Node1&#45;&gt;Node2 -->
<g id="edge1" class="edge">
<title>Node1&#45;&gt;Node2</title>
<path fill="none" stroke="midnightblue" d="M1984.48,-272.93C1957.43,-243.35 1904.52,-185.48 1882.73,-161.64"/>
<polygon fill="midnightblue" stroke="midnightblue" points="1982.05,-275.46 1991.38,-280.48 1987.21,-270.74 1982.05,-275.46"/>
</g>
<!-- Node27 -->
<g id="node27" class="node">
<title>Node27</title>
<g id="a_node27"><a xlink:href="class_die.html#ab35c865f0a0084cf8741ea7bcfe1f9f7" target="_top" xlink:title="Roll again in event of die getting stuck on edge">
<polygon fill="white" stroke="black" points="1628,-320.5 1628,-341.5 1717,-341.5 1717,-320.5 1628,-320.5"/>
<text text-anchor="middle" x="1672.5" y="-327.9" font-family="Helvetica,sans-Serif" font-size="12.00">Die.RollAgain</text>
</a>
</g>
</g>
<!-- Node1&#45;&gt;Node27 -->
<g id="edge28" class="edge">
<title>Node1&#45;&gt;Node27</title>
<path fill="none" stroke="midnightblue" d="M1954.71,-304.1C1944.04,-306.73 1932.68,-309.23 1922,-311 1850.9,-322.78 1767.17,-327.69 1717.31,-329.69"/>
<polygon fill="midnightblue" stroke="midnightblue" points="1955.87,-307.41 1964.69,-301.55 1954.14,-300.63 1955.87,-307.41"/>
</g>
<!-- Node29 -->
<g id="node29" class="node">
<title>Node29</title>
<g id="a_node29"><a xlink:href="class_die.html#a4995ecb1a88aa7f1043ae71ba8aa3ef5" target="_top" xlink:title="Roll the die">
<polygon fill="white" stroke="black" points="1833.5,-280.5 1833.5,-301.5 1910.5,-301.5 1910.5,-280.5 1833.5,-280.5"/>
<text text-anchor="middle" x="1872" y="-287.9" font-family="Helvetica,sans-Serif" font-size="12.00">Die.RollDie</text>
</a>
</g>
</g>
<!-- Node1&#45;&gt;Node29 -->
<g id="edge30" class="edge">
<title>Node1&#45;&gt;Node29</title>
<path fill="none" stroke="midnightblue" d="M1947.46,-291C1935.11,-291 1922.23,-291 1910.72,-291"/>
<polygon fill="midnightblue" stroke="midnightblue" points="1947.67,-294.5 1957.67,-291 1947.67,-287.5 1947.67,-294.5"/>
</g>
<!-- Node3 -->
<g id="node3" class="node">
<title>Node3</title>
<g id="a_node3"><a xlink:href="class_round_manager.html#a5cfea3b56a7576ad02c82c27bb0c6ba7" target="_top" xlink:title="reset the dice after a time delay">
<polygon fill="white" stroke="black" points="1580,-200.5 1580,-221.5 1765,-221.5 1765,-200.5 1580,-200.5"/>
<text text-anchor="middle" x="1672.5" y="-207.9" font-family="Helvetica,sans-Serif" font-size="12.00">RoundManager.DelayResetDice</text>
</a>
</g>
</g>
<!-- Node2&#45;&gt;Node3 -->
<g id="edge2" class="edge">
<title>Node2&#45;&gt;Node3</title>
<path fill="none" stroke="midnightblue" d="M1843.38,-166.28C1827.11,-174.69 1805.88,-184.68 1786,-191 1774.09,-194.79 1761.23,-197.92 1748.61,-200.5"/>
<polygon fill="midnightblue" stroke="midnightblue" points="1845.13,-169.31 1852.34,-161.54 1841.86,-163.12 1845.13,-169.31"/>
</g>
<!-- Node15 -->
<g id="node15" class="node">
<title>Node15</title>
<g id="a_node15"><a xlink:href="class_anson_test_script.html#a2e10fa1d66e999b57d36fd2525ad03e5" target="_top" xlink:title=" ">
<polygon fill="white" stroke="black" points="1577,-240.5 1577,-261.5 1768,-261.5 1768,-240.5 1577,-240.5"/>
<text text-anchor="middle" x="1672.5" y="-247.9" font-family="Helvetica,sans-Serif" font-size="12.00">AnsonTestScript.DelayResetDice</text>
</a>
</g>
</g>
<!-- Node2&#45;&gt;Node15 -->
<g id="edge15" class="edge">
<title>Node2&#45;&gt;Node15</title>
<path fill="none" stroke="midnightblue" d="M1856.95,-169.42C1841.64,-188.08 1815.37,-216.25 1786,-231 1778.38,-234.83 1770.14,-237.94 1761.71,-240.46"/>
<polygon fill="midnightblue" stroke="midnightblue" points="1859.69,-171.6 1863.18,-161.6 1854.21,-167.23 1859.69,-171.6"/>
</g>
<!-- Node18 -->
<g id="node18" class="node">
<title>Node18</title>
<g id="a_node18"><a xlink:href="class_round_manager.html#acf674cdec523de9a0f91ab8a7bfcc2ef" target="_top" xlink:title="for waiting the dice to be rolled, get it&#39;s results and display where the player can move to">
<polygon fill="white" stroke="black" points="1584,-160.5 1584,-181.5 1761,-181.5 1761,-160.5 1584,-160.5"/>
<text text-anchor="middle" x="1672.5" y="-167.9" font-family="Helvetica,sans-Serif" font-size="12.00">RoundManager.DiceBehaviour</text>
</a>
</g>
</g>
<!-- Node2&#45;&gt;Node18 -->
<g id="edge18" class="edge">
<title>Node2&#45;&gt;Node18</title>
<path fill="none" stroke="midnightblue" d="M1811.73,-157C1795.83,-158.61 1778.29,-160.39 1761.19,-162.12"/>
<polygon fill="midnightblue" stroke="midnightblue" points="1812.33,-160.46 1821.93,-155.97 1811.62,-153.49 1812.33,-160.46"/>
</g>
<!-- Node20 -->
<g id="node20" class="node">
<title>Node20</title>
<g id="a_node20"><a xlink:href="class_round_manager.html#a29177f2e27c6c4af55dfa3c48d67cfb0" target="_top" xlink:title="Ending the turn. Returns the next player">
<polygon fill="white" stroke="black" points="1601,-80.5 1601,-101.5 1744,-101.5 1744,-80.5 1601,-80.5"/>
<text text-anchor="middle" x="1672.5" y="-87.9" font-family="Helvetica,sans-Serif" font-size="12.00">RoundManager.EndTurn</text>
</a>
</g>
</g>
<!-- Node2&#45;&gt;Node20 -->
<g id="edge20" class="edge">
<title>Node2&#45;&gt;Node20</title>
<path fill="none" stroke="midnightblue" d="M1843.38,-135.72C1827.11,-127.31 1805.88,-117.32 1786,-111 1772.67,-106.76 1758.15,-103.34 1744.11,-100.61"/>
<polygon fill="midnightblue" stroke="midnightblue" points="1841.86,-138.88 1852.34,-140.46 1845.13,-132.69 1841.86,-138.88"/>
</g>
<!-- Node24 -->
<g id="node24" class="node">
<title>Node24</title>
<g id="a_node24"><a xlink:href="class_anson_test_script.html#a445d27a921ade2f0e76054a3b7cc4245" target="_top" xlink:title=" ">
<polygon fill="white" stroke="black" points="1586,-120.5 1586,-141.5 1759,-141.5 1759,-120.5 1586,-120.5"/>
<text text-anchor="middle" x="1672.5" y="-127.9" font-family="Helvetica,sans-Serif" font-size="12.00">AnsonTestScript.FixedUpdate</text>
</a>
</g>
</g>
<!-- Node2&#45;&gt;Node24 -->
<g id="edge25" class="edge">
<title>Node2&#45;&gt;Node24</title>
<path fill="none" stroke="midnightblue" d="M1811.88,-145.01C1795.33,-143.34 1777.01,-141.48 1759.25,-139.68"/>
<polygon fill="midnightblue" stroke="midnightblue" points="1811.62,-148.51 1821.93,-146.03 1812.33,-141.54 1811.62,-148.51"/>
</g>
<!-- Node25 -->
<g id="node25" class="node">
<title>Node25</title>
<g id="a_node25"><a xlink:href="class_player_movement_test_script.html#a1c247cfdee35d3a1c1d3a81fd579b426" target="_top" xlink:title=" ">
<polygon fill="white" stroke="black" points="1559,-40.5 1559,-61.5 1786,-61.5 1786,-40.5 1559,-40.5"/>
<text text-anchor="middle" x="1672.5" y="-47.9" font-family="Helvetica,sans-Serif" font-size="12.00">PlayerMovementTestScript.FixedUpdate</text>
</a>
</g>
</g>
<!-- Node2&#45;&gt;Node25 -->
<g id="edge26" class="edge">
<title>Node2&#45;&gt;Node25</title>
<path fill="none" stroke="midnightblue" d="M1856.95,-132.58C1841.64,-113.92 1815.37,-85.75 1786,-71 1778.38,-67.17 1770.14,-64.06 1761.71,-61.54"/>
<polygon fill="midnightblue" stroke="midnightblue" points="1854.21,-134.77 1863.18,-140.4 1859.69,-130.4 1854.21,-134.77"/>
</g>
<!-- Node26 -->
<g id="node26" class="node">
<title>Node26</title>
<g id="a_node26"><a xlink:href="class_player_movement_test_script.html#a1f9e6f5902a9ba827538f3325227917c" target="_top" xlink:title=" ">
<polygon fill="white" stroke="black" points="1565,-0.5 1565,-21.5 1780,-21.5 1780,-0.5 1565,-0.5"/>
<text text-anchor="middle" x="1672.5" y="-7.9" font-family="Helvetica,sans-Serif" font-size="12.00">PlayerMovementTestScript.ResetDice</text>
</a>
</g>
</g>
<!-- Node2&#45;&gt;Node26 -->
<g id="edge27" class="edge">
<title>Node2&#45;&gt;Node26</title>
<path fill="none" stroke="midnightblue" d="M1862.69,-130.84C1850.29,-103.49 1824.23,-55.25 1786,-31 1780.05,-27.23 1773.59,-24.12 1766.87,-21.56"/>
<polygon fill="midnightblue" stroke="midnightblue" points="1859.56,-132.44 1866.77,-140.21 1865.98,-129.65 1859.56,-132.44"/>
</g>
<!-- Node4 -->
<g id="node4" class="node">
<title>Node4</title>
<g id="a_node4"><a xlink:href="class_round_manager.html#ab795c17242b95ab2cef508da5daa2593" target="_top" xlink:title="Rolls dice, will not roll if the player has rolled aready. Pass true to forcfully roll it">
<polygon fill="white" stroke="black" points="1349,-200.5 1349,-221.5 1493,-221.5 1493,-200.5 1349,-200.5"/>
<text text-anchor="middle" x="1421" y="-207.9" font-family="Helvetica,sans-Serif" font-size="12.00">RoundManager.RollDice</text>
</a>
</g>
</g>
<!-- Node3&#45;&gt;Node4 -->
<g id="edge3" class="edge">
<title>Node3&#45;&gt;Node4</title>
<path fill="none" stroke="midnightblue" d="M1569.55,-211C1543.98,-211 1517.08,-211 1493.35,-211"/>
<polygon fill="midnightblue" stroke="midnightblue" points="1569.66,-214.5 1579.66,-211 1569.66,-207.5 1569.66,-214.5"/>
</g>
<!-- Node5 -->
<g id="node5" class="node">
<title>Node5</title>
<g id="a_node5"><a xlink:href="class_round_manager.html#a8d52738f26bc5b5eea98f8e3dd213744" target="_top" xlink:title="roll dice after a delay time, used for free roll tile">
<polygon fill="white" stroke="black" points="1106.5,-200.5 1106.5,-221.5 1255.5,-221.5 1255.5,-200.5 1106.5,-200.5"/>
<text text-anchor="middle" x="1181" y="-207.9" font-family="Helvetica,sans-Serif" font-size="12.00">RoundManager.DelayRoll</text>
</a>
</g>
</g>
<!-- Node4&#45;&gt;Node5 -->
<g id="edge4" class="edge">
<title>Node4&#45;&gt;Node5</title>
<path fill="none" stroke="midnightblue" d="M1338.74,-211C1311.79,-211 1281.95,-211 1255.61,-211"/>
<polygon fill="midnightblue" stroke="midnightblue" points="1338.91,-214.5 1348.91,-211 1338.91,-207.5 1338.91,-214.5"/>
</g>
<!-- Node12 -->
<g id="node12" class="node">
<title>Node12</title>
<g id="a_node12"><a xlink:href="class_user_controller.html#aee97f82bdda647a5e3761666a3d46552" target="_top" xlink:title="Rolls the dice">
<polygon fill="white" stroke="black" points="1111.5,-160.5 1111.5,-181.5 1250.5,-181.5 1250.5,-160.5 1111.5,-160.5"/>
<text text-anchor="middle" x="1181" y="-167.9" font-family="Helvetica,sans-Serif" font-size="12.00">UserController.RollDice</text>
</a>
</g>
</g>
<!-- Node4&#45;&gt;Node12 -->
<g id="edge11" class="edge">
<title>Node4&#45;&gt;Node12</title>
<path fill="none" stroke="midnightblue" d="M1347.46,-198.81C1314.59,-193.28 1276.1,-186.82 1244.53,-181.51"/>
<polygon fill="midnightblue" stroke="midnightblue" points="1347.03,-202.28 1357.47,-200.49 1348.19,-195.38 1347.03,-202.28"/>
</g>
<!-- Node6 -->
<g id="node6" class="node">
<title>Node6</title>
<g id="a_node6"><a xlink:href="class_round_manager.html#adfd4f66436e06c12a25c9236b629f369" target="_top" xlink:title="moving the current player to the selected tile">
<polygon fill="white" stroke="black" points="882,-200.5 882,-221.5 1043,-221.5 1043,-200.5 882,-200.5"/>
<text text-anchor="middle" x="962.5" y="-207.9" font-family="Helvetica,sans-Serif" font-size="12.00">RoundManager.MovePlayer</text>
</a>
</g>
</g>
<!-- Node5&#45;&gt;Node6 -->
<g id="edge5" class="edge">
<title>Node5&#45;&gt;Node6</title>
<path fill="none" stroke="midnightblue" d="M1096.25,-211C1078.82,-211 1060.48,-211 1043.2,-211"/>
<polygon fill="midnightblue" stroke="midnightblue" points="1096.4,-214.5 1106.4,-211 1096.4,-207.5 1096.4,-214.5"/>
</g>
<!-- Node7 -->
<g id="node7" class="node">
<title>Node7</title>
<g id="a_node7"><a xlink:href="class_user_controller.html#af896aefe0262e0d8f07fa5f18592877d" target="_top" xlink:title="Selects a tile for player movement">
<polygon fill="white" stroke="black" points="695.5,-200.5 695.5,-221.5 841.5,-221.5 841.5,-200.5 695.5,-200.5"/>
<text text-anchor="middle" x="768.5" y="-207.9" font-family="Helvetica,sans-Serif" font-size="12.00">UserController.SelectTile</text>
</a>
</g>
</g>
<!-- Node6&#45;&gt;Node7 -->
<g id="edge6" class="edge">
<title>Node6&#45;&gt;Node7</title>
<path fill="none" stroke="midnightblue" d="M871.71,-211C861.63,-211 851.46,-211 841.65,-211"/>
<polygon fill="midnightblue" stroke="midnightblue" points="871.74,-214.5 881.74,-211 871.74,-207.5 871.74,-214.5"/>
</g>
<!-- Node8 -->
<g id="node8" class="node">
<title>Node8</title>
<g id="a_node8"><a xlink:href="class_a_i_controller_script.html#af04897fa0ae4ed5e472dea79bce8d7df" target="_top" xlink:title="Decides where the AI should move to this should match the flow chart of the AI">
<polygon fill="white" stroke="black" points="435,-160.5 435,-181.5 645,-181.5 645,-160.5 435,-160.5"/>
<text text-anchor="middle" x="540" y="-167.9" font-family="Helvetica,sans-Serif" font-size="12.00">AIControllerScript.Decide_Movement</text>
</a>
</g>
</g>
<!-- Node7&#45;&gt;Node8 -->
<g id="edge7" class="edge">
<title>Node7&#45;&gt;Node8</title>
<path fill="none" stroke="midnightblue" d="M698.68,-198.74C684.25,-196.18 669.13,-193.49 655,-191 637.49,-187.91 618.46,-184.56 601.06,-181.51"/>
<polygon fill="midnightblue" stroke="midnightblue" points="698.08,-202.19 708.53,-200.49 699.3,-195.3 698.08,-202.19"/>
</g>
<!-- Node11 -->
<g id="node11" class="node">
<title>Node11</title>
<g id="a_node11"><a xlink:href="class_user_input_control_script.html#a13be570929e27dad6d3d452ccd5f52eb" target="_top" xlink:title="move player token to the tile the cursor is on">
<polygon fill="white" stroke="black" points="425,-200.5 425,-221.5 655,-221.5 655,-200.5 425,-200.5"/>
<text text-anchor="middle" x="540" y="-207.9" font-family="Helvetica,sans-Serif" font-size="12.00">UserInputControlScript.MovePlayerToken</text>
</a>
</g>
</g>
<!-- Node7&#45;&gt;Node11 -->
<g id="edge10" class="edge">
<title>Node7&#45;&gt;Node11</title>
<path fill="none" stroke="midnightblue" d="M685.15,-211C675.37,-211 665.25,-211 655.12,-211"/>
<polygon fill="midnightblue" stroke="midnightblue" points="685.21,-214.5 695.21,-211 685.21,-207.5 685.21,-214.5"/>
</g>
<!-- Node9 -->
<g id="node9" class="node">
<title>Node9</title>
<g id="a_node9"><a xlink:href="class_a_i_controller_script.html#ac31d9b8dbb75696b181eff1fbef41b97" target="_top" xlink:title="dictates what the AI will do depending on what mode it is in">
<polygon fill="white" stroke="black" points="215,-121.5 215,-142.5 389,-142.5 389,-121.5 215,-121.5"/>
<text text-anchor="middle" x="302" y="-128.9" font-family="Helvetica,sans-Serif" font-size="12.00">AIControllerScript.AIBehaviour</text>
</a>
</g>
</g>
<!-- Node8&#45;&gt;Node9 -->
<g id="edge8" class="edge">
<title>Node8&#45;&gt;Node9</title>
<path fill="none" stroke="midnightblue" d="M465.36,-158.83C433.73,-153.6 397.11,-147.55 366.67,-142.52"/>
<polygon fill="midnightblue" stroke="midnightblue" points="465.01,-162.32 475.45,-160.5 466.15,-155.41 465.01,-162.32"/>
</g>
<!-- Node10 -->
<g id="node10" class="node">
<title>Node10</title>
<g id="a_node10"><a xlink:href="class_a_i_controller_script.html#a74dc0e720fafceb873d3b19c12f68d58" target="_top" xlink:title=" ">
<polygon fill="white" stroke="black" points="0,-121.5 0,-142.5 179,-142.5 179,-121.5 0,-121.5"/>
<text text-anchor="middle" x="89.5" y="-128.9" font-family="Helvetica,sans-Serif" font-size="12.00">AIControllerScript.FixedUpdate</text>
</a>
</g>
</g>
<!-- Node9&#45;&gt;Node10 -->
<g id="edge9" class="edge">
<title>Node9&#45;&gt;Node10</title>
<path fill="none" stroke="midnightblue" d="M204.57,-132C196.15,-132 187.67,-132 179.32,-132"/>
<polygon fill="midnightblue" stroke="midnightblue" points="204.77,-135.5 214.77,-132 204.77,-128.5 204.77,-135.5"/>
</g>
<!-- Node13 -->
<g id="node13" class="node">
<title>Node13</title>
<g id="a_node13"><a xlink:href="class_a_i_controller_script.html#a1584ffc08f2ea88236ad6df47319636b" target="_top" xlink:title="have AI to roll">
<polygon fill="white" stroke="black" points="691,-121.5 691,-142.5 846,-142.5 846,-121.5 691,-121.5"/>
<text text-anchor="middle" x="768.5" y="-128.9" font-family="Helvetica,sans-Serif" font-size="12.00">AIControllerScript.RollDice</text>
</a>
</g>
</g>
<!-- Node12&#45;&gt;Node13 -->
<g id="edge12" class="edge">
<title>Node12&#45;&gt;Node13</title>
<path fill="none" stroke="midnightblue" d="M1104.95,-159C1084.86,-156.07 1063.14,-153.17 1043,-151 976.75,-143.87 901.16,-138.86 846.27,-135.78"/>
<polygon fill="midnightblue" stroke="midnightblue" points="1104.57,-162.48 1114.97,-160.48 1105.59,-155.56 1104.57,-162.48"/>
</g>
<!-- Node14 -->
<g id="node14" class="node">
<title>Node14</title>
<g id="a_node14"><a xlink:href="class_u_i_handler.html#ac40571820fefd3233236883c01522fa1" target="_top" xlink:title="Rolls dice when the button is pressed">
<polygon fill="white" stroke="black" points="888.5,-160.5 888.5,-181.5 1036.5,-181.5 1036.5,-160.5 888.5,-160.5"/>
<text text-anchor="middle" x="962.5" y="-167.9" font-family="Helvetica,sans-Serif" font-size="12.00">UIHandler.RollDiceButton</text>
</a>
</g>
</g>
<!-- Node12&#45;&gt;Node14 -->
<g id="edge14" class="edge">
<title>Node12&#45;&gt;Node14</title>
<path fill="none" stroke="midnightblue" d="M1101.3,-171C1080.24,-171 1057.56,-171 1036.8,-171"/>
<polygon fill="midnightblue" stroke="midnightblue" points="1101.5,-174.5 1111.5,-171 1101.5,-167.5 1101.5,-174.5"/>
</g>
<!-- Node13&#45;&gt;Node9 -->
<g id="edge13" class="edge">
<title>Node13&#45;&gt;Node9</title>
<path fill="none" stroke="midnightblue" d="M680.6,-132C597.33,-132 472.37,-132 389.3,-132"/>
<polygon fill="midnightblue" stroke="midnightblue" points="680.8,-135.5 690.8,-132 680.8,-128.5 680.8,-135.5"/>
</g>
<!-- Node16 -->
<g id="node16" class="node">
<title>Node16</title>
<g id="a_node16"><a xlink:href="class_anson_test_script.html#a88d84c041cb91d2f739270581d59d7e9" target="_top" xlink:title=" ">
<polygon fill="white" stroke="black" points="1349,-240.5 1349,-261.5 1493,-261.5 1493,-240.5 1349,-240.5"/>
<text text-anchor="middle" x="1421" y="-247.9" font-family="Helvetica,sans-Serif" font-size="12.00">AnsonTestScript.RollDie</text>
</a>
</g>
</g>
<!-- Node15&#45;&gt;Node16 -->
<g id="edge16" class="edge">
<title>Node15&#45;&gt;Node16</title>
<path fill="none" stroke="midnightblue" d="M1566.67,-251C1541.95,-251 1516.15,-251 1493.3,-251"/>
<polygon fill="midnightblue" stroke="midnightblue" points="1566.82,-254.5 1576.82,-251 1566.82,-247.5 1566.82,-254.5"/>
</g>
<!-- Node17 -->
<g id="node17" class="node">
<title>Node17</title>
<g id="a_node17"><a xlink:href="class_anson_test_script.html#a89ed8bb63ce2a8c4631e2dc3d9301e38" target="_top" xlink:title=" ">
<polygon fill="white" stroke="black" points="1109,-240.5 1109,-261.5 1253,-261.5 1253,-240.5 1109,-240.5"/>
<text text-anchor="middle" x="1181" y="-247.9" font-family="Helvetica,sans-Serif" font-size="12.00">AnsonTestScript.RollDie</text>
</a>
</g>
</g>
<!-- Node16&#45;&gt;Node17 -->
<g id="edge17" class="edge">
<title>Node16&#45;&gt;Node17</title>
<path fill="none" stroke="midnightblue" d="M1338.82,-251C1310.99,-251 1280.09,-251 1253.13,-251"/>
<polygon fill="midnightblue" stroke="midnightblue" points="1338.91,-254.5 1348.91,-251 1338.91,-247.5 1338.91,-254.5"/>
</g>
<!-- Node19 -->
<g id="node19" class="node">
<title>Node19</title>
<g id="a_node19"><a xlink:href="class_round_manager.html#abb654bc0114fc67d455ed6449d5bda22" target="_top" xlink:title=" ">
<polygon fill="white" stroke="black" points="1337.5,-160.5 1337.5,-181.5 1504.5,-181.5 1504.5,-160.5 1337.5,-160.5"/>
<text text-anchor="middle" x="1421" y="-167.9" font-family="Helvetica,sans-Serif" font-size="12.00">RoundManager.FixedUpdate</text>
</a>
</g>
</g>
<!-- Node18&#45;&gt;Node19 -->
<g id="edge19" class="edge">
<title>Node18&#45;&gt;Node19</title>
<path fill="none" stroke="midnightblue" d="M1573.84,-171C1551.01,-171 1526.91,-171 1504.8,-171"/>
<polygon fill="midnightblue" stroke="midnightblue" points="1573.89,-174.5 1583.89,-171 1573.89,-167.5 1573.89,-174.5"/>
</g>
<!-- Node21 -->
<g id="node21" class="node">
<title>Node21</title>
<g id="a_node21"><a xlink:href="class_user_controller.html#ab90611f541e20c125133d09b62407f41" target="_top" xlink:title="Ends turn">
<polygon fill="white" stroke="black" points="1352,-80.5 1352,-101.5 1490,-101.5 1490,-80.5 1352,-80.5"/>
<text text-anchor="middle" x="1421" y="-87.9" font-family="Helvetica,sans-Serif" font-size="12.00">UserController.EndTurn</text>
</a>
</g>
</g>
<!-- Node20&#45;&gt;Node21 -->
<g id="edge21" class="edge">
<title>Node20&#45;&gt;Node21</title>
<path fill="none" stroke="midnightblue" d="M1590.36,-91C1558.07,-91 1521.33,-91 1490.42,-91"/>
<polygon fill="midnightblue" stroke="midnightblue" points="1590.67,-94.5 1600.67,-91 1590.67,-87.5 1590.67,-94.5"/>
</g>
<!-- Node22 -->
<g id="node22" class="node">
<title>Node22</title>
<g id="a_node22"><a xlink:href="class_a_i_controller_script.html#a9c386cf1258ad897c9a1068804f07ba0" target="_top" xlink:title="have AI to end turn">
<polygon fill="white" stroke="black" points="691,-81.5 691,-102.5 846,-102.5 846,-81.5 691,-81.5"/>
<text text-anchor="middle" x="768.5" y="-88.9" font-family="Helvetica,sans-Serif" font-size="12.00">AIControllerScript.EndTurn</text>
</a>
</g>
</g>
<!-- Node21&#45;&gt;Node22 -->
<g id="edge22" class="edge">
<title>Node21&#45;&gt;Node22</title>
<path fill="none" stroke="midnightblue" d="M1341.6,-91.12C1215.86,-91.31 970.6,-91.69 846.04,-91.88"/>
<polygon fill="midnightblue" stroke="midnightblue" points="1341.93,-94.62 1351.92,-91.1 1341.92,-87.62 1341.93,-94.62"/>
</g>
<!-- Node23 -->
<g id="node23" class="node">
<title>Node23</title>
<g id="a_node23"><a xlink:href="class_u_i_handler.html#acc06a1dab8566d9e14f7ab3ae1ffea93" target="_top" xlink:title="Ends current player&#39;s turn">
<polygon fill="white" stroke="black" points="1124,-42.5 1124,-63.5 1238,-63.5 1238,-42.5 1124,-42.5"/>
<text text-anchor="middle" x="1181" y="-49.9" font-family="Helvetica,sans-Serif" font-size="12.00">UIHandler.EndTurn</text>
</a>
</g>
</g>
<!-- Node21&#45;&gt;Node23 -->
<g id="edge24" class="edge">
<title>Node21&#45;&gt;Node23</title>
<path fill="none" stroke="midnightblue" d="M1344.01,-78.87C1309.6,-73.37 1269.64,-66.99 1238.02,-61.94"/>
<polygon fill="midnightblue" stroke="midnightblue" points="1343.59,-82.34 1354.02,-80.47 1344.7,-75.43 1343.59,-82.34"/>
</g>
<!-- Node22&#45;&gt;Node9 -->
<g id="edge23" class="edge">
<title>Node22&#45;&gt;Node9</title>
<path fill="none" stroke="midnightblue" d="M680.6,-99.48C597.33,-106.65 472.37,-117.41 389.3,-124.57"/>
<polygon fill="midnightblue" stroke="midnightblue" points="681.13,-102.95 690.8,-98.61 680.53,-95.98 681.13,-102.95"/>
</g>
<!-- Node28 -->
<g id="node28" class="node">
<title>Node28</title>
<g id="a_node28"><a xlink:href="class_die.html#a1720b01fed5d5276f3761c944baa8126" target="_top" xlink:title="If die has been thrown, landed and stopped moving then update die value. If die stops on edge then ro...">
<polygon fill="white" stroke="black" points="1382.5,-320.5 1382.5,-341.5 1459.5,-341.5 1459.5,-320.5 1382.5,-320.5"/>
<text text-anchor="middle" x="1421" y="-327.9" font-family="Helvetica,sans-Serif" font-size="12.00">Die.Update</text>
</a>
</g>
</g>
<!-- Node27&#45;&gt;Node28 -->
<g id="edge29" class="edge">
<title>Node27&#45;&gt;Node28</title>
<path fill="none" stroke="midnightblue" d="M1617.61,-331C1569.93,-331 1501.57,-331 1459.57,-331"/>
<polygon fill="midnightblue" stroke="midnightblue" points="1617.75,-334.5 1627.75,-331 1617.75,-327.5 1617.75,-334.5"/>
</g>
<!-- Node29&#45;&gt;Node27 -->
<g id="edge31" class="edge">
<title>Node29&#45;&gt;Node27</title>
<path fill="none" stroke="midnightblue" d="M1823.46,-302.67C1811.28,-305.53 1798.18,-308.49 1786,-311 1763.37,-315.67 1738.03,-320.23 1717.15,-323.82"/>
<polygon fill="midnightblue" stroke="midnightblue" points="1824.52,-306.02 1833.44,-300.31 1822.9,-299.21 1824.52,-306.02"/>
</g>
<!-- Node30 -->
<g id="node30" class="node">
<title>Node30</title>
<g id="a_node30"><a xlink:href="class_dice.html#a333ed52f536c0e7748fafe9422b179b5" target="_top" xlink:title="Roll the Dice">
<polygon fill="white" stroke="black" points="1628,-280.5 1628,-301.5 1717,-301.5 1717,-280.5 1628,-280.5"/>
<text text-anchor="middle" x="1672.5" y="-287.9" font-family="Helvetica,sans-Serif" font-size="12.00">Dice.RollDice</text>
</a>
</g>
</g>
<!-- Node29&#45;&gt;Node30 -->
<g id="edge32" class="edge">
<title>Node29&#45;&gt;Node30</title>
<path fill="none" stroke="midnightblue" d="M1823.27,-291C1790.96,-291 1748.6,-291 1717.17,-291"/>
<polygon fill="midnightblue" stroke="midnightblue" points="1823.39,-294.5 1833.39,-291 1823.39,-287.5 1823.39,-294.5"/>
</g>
<!-- Node30&#45;&gt;Node4 -->
<g id="edge35" class="edge">
<title>Node30&#45;&gt;Node4</title>
<path fill="none" stroke="midnightblue" d="M1617.9,-288.71C1598.4,-286.06 1576.8,-280.88 1559,-271 1538.09,-259.39 1543.79,-242.82 1523,-231 1513.83,-225.79 1503.52,-221.92 1493.09,-219.05"/>
<polygon fill="midnightblue" stroke="midnightblue" points="1617.54,-292.19 1627.88,-289.88 1618.35,-285.24 1617.54,-292.19"/>
</g>
<!-- Node30&#45;&gt;Node16 -->
<g id="edge36" class="edge">
<title>Node30&#45;&gt;Node16</title>
<path fill="none" stroke="midnightblue" d="M1617.88,-282.4C1579.77,-276.29 1528.37,-268.05 1487.78,-261.55"/>
<polygon fill="midnightblue" stroke="midnightblue" points="1617.33,-285.86 1627.75,-283.99 1618.44,-278.95 1617.33,-285.86"/>
</g>
<!-- Node31 -->
<g id="node31" class="node">
<title>Node31</title>
<g id="a_node31"><a xlink:href="class_player_movement_test_script.html#aaa8efc18953ff0b4e286c66962221a8f" target="_top" xlink:title=" ">
<polygon fill="white" stroke="black" points="1319,-280.5 1319,-301.5 1523,-301.5 1523,-280.5 1319,-280.5"/>
<text text-anchor="middle" x="1421" y="-287.9" font-family="Helvetica,sans-Serif" font-size="12.00">PlayerMovementTestScript.RollDice</text>
</a>
</g>
</g>
<!-- Node30&#45;&gt;Node31 -->
<g id="edge33" class="edge">
<title>Node30&#45;&gt;Node31</title>
<path fill="none" stroke="midnightblue" d="M1617.55,-291C1589.99,-291 1555.53,-291 1523.26,-291"/>
<polygon fill="midnightblue" stroke="midnightblue" points="1617.75,-294.5 1627.75,-291 1617.75,-287.5 1617.75,-294.5"/>
</g>
<!-- Node32 -->
<g id="node32" class="node">
<title>Node32</title>
<g id="a_node32"><a xlink:href="class_player_movement_test_script.html#a36e775e38982d88a818317723d2a04c2" target="_top" xlink:title=" ">
<polygon fill="white" stroke="black" points="1079,-280.5 1079,-301.5 1283,-301.5 1283,-280.5 1079,-280.5"/>
<text text-anchor="middle" x="1181" y="-287.9" font-family="Helvetica,sans-Serif" font-size="12.00">PlayerMovementTestScript.RollDice</text>
</a>
</g>
</g>
<!-- Node31&#45;&gt;Node32 -->
<g id="edge34" class="edge">
<title>Node31&#45;&gt;Node32</title>
<path fill="none" stroke="midnightblue" d="M1308.47,-291C1300.04,-291 1291.55,-291 1283.19,-291"/>
<polygon fill="midnightblue" stroke="midnightblue" points="1308.72,-294.5 1318.72,-291 1308.72,-287.5 1308.72,-294.5"/>
</g>
</g>
</svg>
        <g id="navigator" transform="translate(0 0)" fill="#404254">
                <rect fill="#f2f5e9" fill-opacity="0.5" stroke="#606060" stroke-width=".5" x="0" y="0" width="60" height="60"/>
                <use id="zoomplus" xlink:href="#zoomPlus" x="17" y="9" onmousedown="handleZoom(evt,'in')"/>
                <use id="zoomminus" xlink:href="#zoomMin" x="42" y="9" onmousedown="handleZoom(evt,'out')"/>
                <use id="reset" xlink:href="#resetDef" x="30" y="36" onmousedown="handleReset()"/>
                <g id="arrowUp" xlink:href="#dirArrow" transform="translate(30 24)" onmousedown="handlePan(0,-1)">
                  <use xlink:href="#rim" fill="#404040">
                        <set attributeName="fill" to="#808080" begin="arrowUp.mouseover" end="arrowUp.mouseout"/>
                  </use>
                  <path fill="none" stroke="white" stroke-width="1.5" d="M0,-3.0v7 M-2.5,-0.5L0,-3.0L2.5,-0.5"/>
                </g>
                <g id="arrowRight" xlink:href="#dirArrow" transform="rotate(90) translate(36 -43)" onmousedown="handlePan(1,0)">
                  <use xlink:href="#rim" fill="#404040">
                        <set attributeName="fill" to="#808080" begin="arrowRight.mouseover" end="arrowRight.mouseout"/>
                  </use>
                  <path fill="none" stroke="white" stroke-width="1.5" d="M0,-3.0v7 M-2.5,-0.5L0,-3.0L2.5,-0.5"/>
                </g>
                <g id="arrowDown" xlink:href="#dirArrow" transform="rotate(180) translate(-30 -48)" onmousedown="handlePan(0,1)">
                  <use xlink:href="#rim" fill="#404040">
                        <set attributeName="fill" to="#808080" begin="arrowDown.mouseover" end="arrowDown.mouseout"/>
                  </use>
                  <path fill="none" stroke="white" stroke-width="1.5" d="M0,-3.0v7 M-2.5,-0.5L0,-3.0L2.5,-0.5"/>
                </g>
                <g id="arrowLeft" xlink:href="#dirArrow" transform="rotate(270) translate(-36 17)" onmousedown="handlePan(-1,0)">
                  <use xlink:href="#rim" fill="#404040">
                        <set attributeName="fill" to="#808080" begin="arrowLeft.mouseover" end="arrowLeft.mouseout"/>
                  </use>
                  <path fill="none" stroke="white" stroke-width="1.5" d="M0,-3.0v7 M-2.5,-0.5L0,-3.0L2.5,-0.5"/>
                </g>
        </g>
        <svg viewBox="0 0 15 15" width="100%" height="30px" preserveAspectRatio="xMaxYMin meet">
         <g id="arrow_out" transform="scale(0.3 0.3)">
          <a xlink:href="class_die_abc11c3d2bf0c0fba1555093eb5a8469e_icgraph_org.svg" target="_base">
           <rect id="button" ry="5" rx="5" y="6" x="6" height="38" width="38"
                fill="#f2f5e9" fill-opacity="0.5" stroke="#606060" stroke-width="1.0"/>
           <path id="arrow"
             d="M 11.500037,31.436501 C 11.940474,20.09759 22.043105,11.32322 32.158766,21.979434 L 37.068811,17.246167 C 37.068811,17.246167 37.088388,32 37.088388,32 L 22.160133,31.978069 C 22.160133,31.978069 26.997745,27.140456 26.997745,27.140456 C 18.528582,18.264221 13.291696,25.230495 11.500037,31.436501 z"
             style="fill:#404040;"/>
          </a>
         </g>
        </svg>
</svg>
