<?xml version="1.0" encoding="UTF-8" standalone="no"?>
<!DOCTYPE svg PUBLIC "-//W3C//DTD SVG 1.1//EN"
 "http://www.w3.org/Graphics/SVG/1.1/DTD/svg11.dtd">
<!-- Generated by graphviz version 2.47.1 (20210417.1919)
 -->
<!-- Title: AIControllerScript.GetOutputDebugString Pages: 1 -->
<svg width="635pt" height="30pt"
 viewBox="0.00 0.00 635.00 30.00" xmlns="http://www.w3.org/2000/svg" xmlns:xlink="http://www.w3.org/1999/xlink">
<g id="graph0" class="graph" transform="scale(1 1) rotate(0) translate(4 26)">
<title>AIControllerScript.GetOutputDebugString</title>
<polygon fill="white" stroke="transparent" points="-4,4 -4,-26 631,-26 631,4 -4,4"/>
<!-- Node1 -->
<g id="node1" class="node">
<title>Node1</title>
<g id="a_node1"><a xlink:title="Get the Output Debug stack in string">
<polygon fill="#bfbfbf" stroke="black" points="397,-0.5 397,-21.5 627,-21.5 627,-0.5 397,-0.5"/>
<text text-anchor="middle" x="512" y="-7.9" font-family="Helvetica,sans-Serif" font-size="12.00">AIControllerScript.GetOutputDebugString</text>
</a>
</g>
</g>
<!-- Node2 -->
<g id="node2" class="node">
<title>Node2</title>
<g id="a_node2"><a xlink:href="class_a_i_test_script.html#a7bc81e99da3c3f206cf38137f73c3b75" target="_top" xlink:title=" ">
<polygon fill="white" stroke="black" points="187,-0.5 187,-21.5 361,-21.5 361,-0.5 187,-0.5"/>
<text text-anchor="middle" x="274" y="-7.9" font-family="Helvetica,sans-Serif" font-size="12.00">AITestScript.UpdateBehaviour</text>
</a>
</g>
</g>
<!-- Node1&#45;&gt;Node2 -->
<g id="edge1" class="edge">
<title>Node1&#45;&gt;Node2</title>
<path fill="none" stroke="midnightblue" d="M386.68,-11C378.06,-11 369.48,-11 361.14,-11"/>
<polygon fill="midnightblue" stroke="midnightblue" points="386.8,-14.5 396.8,-11 386.8,-7.5 386.8,-14.5"/>
</g>
<!-- Node3 -->
<g id="node3" class="node">
<title>Node3</title>
<g id="a_node3"><a xlink:href="class_a_i_test_script.html#a2cc6c90f6e9d1ab25473b2eb86ce879a" target="_top" xlink:title=" ">
<polygon fill="white" stroke="black" points="0,-0.5 0,-21.5 151,-21.5 151,-0.5 0,-0.5"/>
<text text-anchor="middle" x="75.5" y="-7.9" font-family="Helvetica,sans-Serif" font-size="12.00">AITestScript.FixedUpdate</text>
</a>
</g>
</g>
<!-- Node2&#45;&gt;Node3 -->
<g id="edge2" class="edge">
<title>Node2&#45;&gt;Node3</title>
<path fill="none" stroke="midnightblue" d="M176.77,-11C168.19,-11 159.59,-11 151.23,-11"/>
<polygon fill="midnightblue" stroke="midnightblue" points="176.81,-14.5 186.81,-11 176.81,-7.5 176.81,-14.5"/>
</g>
</g>
</svg>
