<?xml version="1.0" encoding="UTF-8" standalone="no"?>
<!DOCTYPE svg PUBLIC "-//W3C//DTD SVG 1.1//EN"
 "http://www.w3.org/Graphics/SVG/1.1/DTD/svg11.dtd">
<!-- Generated by graphviz version 2.47.1 (20210417.1919)
 -->
<!-- Title: BoardManager.PrintArray Pages: 1 -->
<svg width="612pt" height="49pt"
 viewBox="0.00 0.00 612.00 49.00" xmlns="http://www.w3.org/2000/svg" xmlns:xlink="http://www.w3.org/1999/xlink">
<g id="graph0" class="graph" transform="scale(1 1) rotate(0) translate(4 45)">
<title>BoardManager.PrintArray</title>
<polygon fill="white" stroke="transparent" points="-4,4 -4,-45 608,-45 608,4 -4,4"/>
<!-- Node1 -->
<g id="node1" class="node">
<title>Node1</title>
<g id="a_node1"><a xlink:title="Print Array for Testing">
<polygon fill="#bfbfbf" stroke="black" points="0,-19.5 0,-40.5 150,-40.5 150,-19.5 0,-19.5"/>
<text text-anchor="middle" x="75" y="-26.9" font-family="Helvetica,sans-Serif" font-size="12.00">BoardManager.PrintArray</text>
</a>
</g>
</g>
<!-- Node2 -->
<g id="node2" class="node">
<title>Node2</title>
<g id="a_node2"><a xlink:href="class_board_manager.html#a6b2b89b5ce622bf45676e6993f8ec216" target="_top" xlink:title="Get a tile from the array using a grid reference.">
<polygon fill="white" stroke="black" points="418,-19.5 418,-40.5 604,-40.5 604,-19.5 418,-19.5"/>
<text text-anchor="middle" x="511" y="-26.9" font-family="Helvetica,sans-Serif" font-size="12.00">BoardManager.GetTileFromGrid</text>
</a>
</g>
</g>
<!-- Node1&#45;&gt;Node2 -->
<g id="edge1" class="edge">
<title>Node1&#45;&gt;Node2</title>
<path fill="none" stroke="midnightblue" d="M150.26,-30.77C162.21,-30.86 174.45,-30.95 186,-31 273.11,-31.4 294.89,-31.34 382,-31 390.31,-30.97 398.91,-30.92 407.56,-30.87"/>
<polygon fill="midnightblue" stroke="midnightblue" points="407.73,-34.37 417.71,-30.81 407.69,-27.37 407.73,-34.37"/>
</g>
<!-- Node3 -->
<g id="node3" class="node">
<title>Node3</title>
<g id="a_node3"><a xlink:href="class_board_manager.html#ae3af0b08bdfbc0ebcda23950eb935a5d" target="_top" xlink:title="Return array of all neighbours of given tile">
<polygon fill="white" stroke="black" points="186,-0.5 186,-21.5 382,-21.5 382,-0.5 186,-0.5"/>
<text text-anchor="middle" x="284" y="-7.9" font-family="Helvetica,sans-Serif" font-size="12.00">BoardManager.GetTileNeighbours</text>
</a>
</g>
</g>
<!-- Node1&#45;&gt;Node3 -->
<g id="edge2" class="edge">
<title>Node1&#45;&gt;Node3</title>
<path fill="none" stroke="midnightblue" d="M150.15,-23.19C158.49,-22.43 167.1,-21.64 175.75,-20.84"/>
<polygon fill="midnightblue" stroke="midnightblue" points="176.27,-24.31 185.91,-19.91 175.63,-17.34 176.27,-24.31"/>
</g>
<!-- Node3&#45;&gt;Node2 -->
<g id="edge3" class="edge">
<title>Node3&#45;&gt;Node2</title>
<path fill="none" stroke="midnightblue" d="M382.05,-19.2C390.6,-19.92 399.27,-20.65 407.86,-21.37"/>
<polygon fill="midnightblue" stroke="midnightblue" points="407.63,-24.87 417.89,-22.22 408.22,-17.89 407.63,-24.87"/>
</g>
</g>
</svg>
