<?xml version="1.0" encoding="UTF-8" standalone="no"?>
<!DOCTYPE svg PUBLIC "-//W3C//DTD SVG 1.1//EN"
 "http://www.w3.org/Graphics/SVG/1.1/DTD/svg11.dtd">
<!-- Generated by graphviz version 2.47.1 (20210417.1919)
 -->
<!-- Title: AIControllerScript.SetAIMode Pages: 1 -->
<svg width="2251pt" height="456pt"
 viewBox="0.00 0.00 2251.00 455.94" xmlns="http://www.w3.org/2000/svg" xmlns:xlink="http://www.w3.org/1999/xlink">
<g id="graph0" class="graph" transform="scale(1 1) rotate(0) translate(4 451.94)">
<title>AIControllerScript.SetAIMode</title>
<polygon fill="white" stroke="transparent" points="-4,4 -4,-451.94 2247,-451.94 2247,4 -4,4"/>
<!-- Node1 -->
<g id="node1" class="node">
<title>Node1</title>
<g id="a_node1"><a xlink:title="to set the AI&#39;s mode">
<polygon fill="#bfbfbf" stroke="black" points="2073,-253.5 2073,-274.5 2243,-274.5 2243,-253.5 2073,-253.5"/>
<text text-anchor="middle" x="2158" y="-260.9" font-family="Helvetica,sans-Serif" font-size="12.00">AIControllerScript.SetAIMode</text>
</a>
</g>
</g>
<!-- Node2 -->
<g id="node2" class="node">
<title>Node2</title>
<g id="a_node2"><a xlink:href="class_a_i_controller_script.html#ac31d9b8dbb75696b181eff1fbef41b97" target="_top" xlink:title="dictates what the AI will do depending on what mode it is in">
<polygon fill="white" stroke="black" points="215,-312.5 215,-333.5 389,-333.5 389,-312.5 215,-312.5"/>
<text text-anchor="middle" x="302" y="-319.9" font-family="Helvetica,sans-Serif" font-size="12.00">AIControllerScript.AIBehaviour</text>
</a>
</g>
</g>
<!-- Node1&#45;&gt;Node2 -->
<g id="edge1" class="edge">
<title>Node1&#45;&gt;Node2</title>
<path fill="none" stroke="midnightblue" d="M2146.43,-283.67C2128.52,-314.82 2089.02,-374.73 2037,-402 1901.55,-473.01 1847.94,-440 1695,-440 1695,-440 1695,-440 766.5,-440 613.79,-440 568.83,-453.32 425,-402 380.56,-386.14 335.95,-351.3 315.13,-333.67"/>
<polygon fill="midnightblue" stroke="midnightblue" points="2149.65,-285.09 2151.47,-274.65 2143.54,-281.67 2149.65,-285.09"/>
</g>
<!-- Node4 -->
<g id="node4" class="node">
<title>Node4</title>
<g id="a_node4"><a xlink:href="class_a_i_controller_script.html#af05eaa86fd4cfef3b4b0b79b0883322c" target="_top" xlink:title="the AI enter this when it is thinking to decide what to do this should match the flow chart of the AI">
<polygon fill="white" stroke="black" points="1371.5,-390.5 1371.5,-411.5 1520.5,-411.5 1520.5,-390.5 1371.5,-390.5"/>
<text text-anchor="middle" x="1446" y="-397.9" font-family="Helvetica,sans-Serif" font-size="12.00">AIControllerScript.AIThink</text>
</a>
</g>
</g>
<!-- Node1&#45;&gt;Node4 -->
<g id="edge3" class="edge">
<title>Node1&#45;&gt;Node4</title>
<path fill="none" stroke="midnightblue" d="M2141.94,-282.42C2121.16,-306.3 2081.23,-347.04 2037,-365 1862.77,-435.76 1635.66,-423.66 1520.65,-411.07"/>
<polygon fill="midnightblue" stroke="midnightblue" points="2144.66,-284.62 2148.46,-274.73 2139.32,-280.09 2144.66,-284.62"/>
</g>
<!-- Node5 -->
<g id="node5" class="node">
<title>Node5</title>
<g id="a_node5"><a xlink:href="class_a_i_controller_script.html#a7be5eb284c6258672e70af128f8638df" target="_top" xlink:title="Decides that cards to accuse based on the To Guess List">
<polygon fill="white" stroke="black" points="1587,-351.5 1587,-372.5 1801,-372.5 1801,-351.5 1587,-351.5"/>
<text text-anchor="middle" x="1694" y="-358.9" font-family="Helvetica,sans-Serif" font-size="12.00">AIControllerScript.Decide_Accusation</text>
</a>
</g>
</g>
<!-- Node1&#45;&gt;Node5 -->
<g id="edge5" class="edge">
<title>Node1&#45;&gt;Node5</title>
<path fill="none" stroke="midnightblue" d="M2136.42,-280.77C2113.64,-298.27 2075.1,-324.81 2037,-337 1960.6,-361.45 1869.87,-367.09 1801.07,-366.94"/>
<polygon fill="midnightblue" stroke="midnightblue" points="2138.63,-283.48 2144.34,-274.56 2134.31,-277.97 2138.63,-283.48"/>
</g>
<!-- Node6 -->
<g id="node6" class="node">
<title>Node6</title>
<g id="a_node6"><a xlink:href="class_a_i_controller_script.html#af04897fa0ae4ed5e472dea79bce8d7df" target="_top" xlink:title="Decides where the AI should move to this should match the flow chart of the AI">
<polygon fill="white" stroke="black" points="1341,-312.5 1341,-333.5 1551,-333.5 1551,-312.5 1341,-312.5"/>
<text text-anchor="middle" x="1446" y="-319.9" font-family="Helvetica,sans-Serif" font-size="12.00">AIControllerScript.Decide_Movement</text>
</a>
</g>
</g>
<!-- Node1&#45;&gt;Node6 -->
<g id="edge7" class="edge">
<title>Node1&#45;&gt;Node6</title>
<path fill="none" stroke="midnightblue" d="M2117.08,-277.85C2093.98,-285.21 2064.19,-293.63 2037,-298 1868.46,-325.06 1669.58,-327.5 1551.12,-325.89"/>
<polygon fill="midnightblue" stroke="midnightblue" points="2118.44,-281.09 2126.86,-274.66 2116.27,-274.43 2118.44,-281.09"/>
</g>
<!-- Node7 -->
<g id="node7" class="node">
<title>Node7</title>
<g id="a_node7"><a xlink:href="class_a_i_controller_script.html#affdf86fa313c46463a9a5a2b20020a17" target="_top" xlink:title="Decides what the AI should suggest this should match the flow chart of the AI">
<polygon fill="white" stroke="black" points="425,-273.5 425,-294.5 640,-294.5 640,-273.5 425,-273.5"/>
<text text-anchor="middle" x="532.5" y="-280.9" font-family="Helvetica,sans-Serif" font-size="12.00">AIControllerScript.Decide_Suggestion</text>
</a>
</g>
</g>
<!-- Node1&#45;&gt;Node7 -->
<g id="edge9" class="edge">
<title>Node1&#45;&gt;Node7</title>
<path fill="none" stroke="midnightblue" d="M2062.76,-270.47C1969.43,-276.31 1822.42,-284 1695,-284 1695,-284 1695,-284 988,-284 868.85,-284 732.13,-284 640.03,-284"/>
<polygon fill="midnightblue" stroke="midnightblue" points="2062.98,-273.96 2072.74,-269.84 2062.54,-266.98 2062.98,-273.96"/>
</g>
<!-- Node8 -->
<g id="node8" class="node">
<title>Node8</title>
<g id="a_node8"><a xlink:href="class_a_i_controller_script.html#a9c386cf1258ad897c9a1068804f07ba0" target="_top" xlink:title="have AI to end turn">
<polygon fill="white" stroke="black" points="690,-117.5 690,-138.5 845,-138.5 845,-117.5 690,-117.5"/>
<text text-anchor="middle" x="767.5" y="-124.9" font-family="Helvetica,sans-Serif" font-size="12.00">AIControllerScript.EndTurn</text>
</a>
</g>
</g>
<!-- Node1&#45;&gt;Node8 -->
<g id="edge11" class="edge">
<title>Node1&#45;&gt;Node8</title>
<path fill="none" stroke="midnightblue" d="M2127.5,-248.87C2055.58,-213.42 1864.64,-128 1695,-128 1695,-128 1695,-128 1211,-128 1082.71,-128 933.49,-128 845.24,-128"/>
<polygon fill="midnightblue" stroke="midnightblue" points="2125.94,-252 2136.46,-253.33 2129.07,-245.74 2125.94,-252"/>
</g>
<!-- Node9 -->
<g id="node9" class="node">
<title>Node9</title>
<g id="a_node9"><a xlink:href="class_a_i_test_script.html#acf1d66cab2a4099b11dac18aa2532377" target="_top" xlink:title=" ">
<polygon fill="white" stroke="black" points="1862.5,-0.5 1862.5,-21.5 2011.5,-21.5 2011.5,-0.5 1862.5,-0.5"/>
<text text-anchor="middle" x="1937" y="-7.9" font-family="Helvetica,sans-Serif" font-size="12.00">AITestScript.HaveAIMove</text>
</a>
</g>
</g>
<!-- Node1&#45;&gt;Node9 -->
<g id="edge13" class="edge">
<title>Node1&#45;&gt;Node9</title>
<path fill="none" stroke="midnightblue" d="M2152.3,-243.68C2140.84,-198.88 2107.14,-91.21 2037,-36 2029.06,-29.75 2019.75,-25.04 2010.07,-21.5"/>
<polygon fill="midnightblue" stroke="midnightblue" points="2148.91,-244.54 2154.69,-253.42 2155.7,-242.87 2148.91,-244.54"/>
</g>
<!-- Node10 -->
<g id="node10" class="node">
<title>Node10</title>
<g id="a_node10"><a xlink:href="class_a_i_controller_script.html#a208f5afe4102ff2ca04a03a425d76279" target="_top" xlink:title="for the round manager to notify that another player finished picking a card to show">
<polygon fill="white" stroke="black" points="1837,-234.5 1837,-255.5 2037,-255.5 2037,-234.5 1837,-234.5"/>
<text text-anchor="middle" x="1937" y="-241.9" font-family="Helvetica,sans-Serif" font-size="12.00">AIControllerScript.NotifySuggestion</text>
</a>
</g>
</g>
<!-- Node1&#45;&gt;Node10 -->
<g id="edge14" class="edge">
<title>Node1&#45;&gt;Node10</title>
<path fill="none" stroke="midnightblue" d="M2062.72,-255.82C2054.27,-255.09 2045.69,-254.34 2037.2,-253.61"/>
<polygon fill="midnightblue" stroke="midnightblue" points="2062.69,-259.33 2072.96,-256.71 2063.3,-252.36 2062.69,-259.33"/>
</g>
<!-- Node19 -->
<g id="node19" class="node">
<title>Node19</title>
<g id="a_node19"><a xlink:href="class_a_i_controller_script.html#a1584ffc08f2ea88236ad6df47319636b" target="_top" xlink:title="have AI to roll">
<polygon fill="white" stroke="black" points="1616.5,-18.5 1616.5,-39.5 1771.5,-39.5 1771.5,-18.5 1616.5,-18.5"/>
<text text-anchor="middle" x="1694" y="-25.9" font-family="Helvetica,sans-Serif" font-size="12.00">AIControllerScript.RollDice</text>
</a>
</g>
</g>
<!-- Node1&#45;&gt;Node19 -->
<g id="edge26" class="edge">
<title>Node1&#45;&gt;Node19</title>
<path fill="none" stroke="midnightblue" d="M2151.04,-243.49C2137.96,-202.5 2102.53,-110.8 2037,-69 1994.35,-41.8 1858.61,-33.08 1771.51,-30.29"/>
<polygon fill="midnightblue" stroke="midnightblue" points="2147.74,-244.66 2154.02,-253.2 2154.43,-242.61 2147.74,-244.66"/>
</g>
<!-- Node20 -->
<g id="node20" class="node">
<title>Node20</title>
<g id="a_node20"><a xlink:href="class_a_i_controller_script.html#acb4af4c99bf1e7610b45d9f81457d625" target="_top" xlink:title="have AI to start turn">
<polygon fill="white" stroke="black" points="1858,-78.5 1858,-99.5 2016,-99.5 2016,-78.5 1858,-78.5"/>
<text text-anchor="middle" x="1937" y="-85.9" font-family="Helvetica,sans-Serif" font-size="12.00">AIControllerScript.StartTurn</text>
</a>
</g>
</g>
<!-- Node1&#45;&gt;Node20 -->
<g id="edge28" class="edge">
<title>Node1&#45;&gt;Node20</title>
<path fill="none" stroke="midnightblue" d="M2146.89,-244.37C2129.17,-212.01 2089.36,-147.69 2037,-114 2027.31,-107.77 2016.16,-103.09 2004.91,-99.57"/>
<polygon fill="midnightblue" stroke="midnightblue" points="2143.87,-246.15 2151.67,-253.32 2150.04,-242.85 2143.87,-246.15"/>
</g>
<!-- Node3 -->
<g id="node3" class="node">
<title>Node3</title>
<g id="a_node3"><a xlink:href="class_a_i_controller_script.html#a74dc0e720fafceb873d3b19c12f68d58" target="_top" xlink:title=" ">
<polygon fill="white" stroke="black" points="0,-312.5 0,-333.5 179,-333.5 179,-312.5 0,-312.5"/>
<text text-anchor="middle" x="89.5" y="-319.9" font-family="Helvetica,sans-Serif" font-size="12.00">AIControllerScript.FixedUpdate</text>
</a>
</g>
</g>
<!-- Node2&#45;&gt;Node3 -->
<g id="edge2" class="edge">
<title>Node2&#45;&gt;Node3</title>
<path fill="none" stroke="midnightblue" d="M204.57,-323C196.15,-323 187.67,-323 179.32,-323"/>
<polygon fill="midnightblue" stroke="midnightblue" points="204.77,-326.5 214.77,-323 204.77,-319.5 204.77,-326.5"/>
</g>
<!-- Node4&#45;&gt;Node2 -->
<g id="edge4" class="edge">
<title>Node4&#45;&gt;Node2</title>
<path fill="none" stroke="midnightblue" d="M1361.3,-400.71C1270.03,-400.41 1119.63,-400 990,-400 990,-400 990,-400 766.5,-400 614.35,-400 572.79,-412.17 425,-376 386.64,-366.61 345.09,-346.12 321.73,-333.54"/>
<polygon fill="midnightblue" stroke="midnightblue" points="1361.3,-404.21 1371.32,-400.74 1361.33,-397.21 1361.3,-404.21"/>
</g>
<!-- Node5&#45;&gt;Node2 -->
<g id="edge6" class="edge">
<title>Node5&#45;&gt;Node2</title>
<path fill="none" stroke="midnightblue" d="M1576.56,-362C1479.36,-362 1337.15,-362 1213,-362 1213,-362 1213,-362 766.5,-362 630.23,-362 472.21,-345.05 380.33,-333.5"/>
<polygon fill="midnightblue" stroke="midnightblue" points="1576.71,-365.5 1586.71,-362 1576.71,-358.5 1576.71,-365.5"/>
</g>
<!-- Node6&#45;&gt;Node2 -->
<g id="edge8" class="edge">
<title>Node6&#45;&gt;Node2</title>
<path fill="none" stroke="midnightblue" d="M1330.46,-323C1238.46,-323 1105.92,-323 990,-323 990,-323 990,-323 766.5,-323 634.93,-323 482.36,-323 389.28,-323"/>
<polygon fill="midnightblue" stroke="midnightblue" points="1330.64,-326.5 1340.64,-323 1330.64,-319.5 1330.64,-326.5"/>
</g>
<!-- Node7&#45;&gt;Node2 -->
<g id="edge10" class="edge">
<title>Node7&#45;&gt;Node2</title>
<path fill="none" stroke="midnightblue" d="M459.81,-296.24C429.27,-301.45 393.99,-307.47 364.64,-312.48"/>
<polygon fill="midnightblue" stroke="midnightblue" points="460.7,-299.64 469.97,-294.5 459.52,-292.74 460.7,-299.64"/>
</g>
<!-- Node8&#45;&gt;Node2 -->
<g id="edge12" class="edge">
<title>Node8&#45;&gt;Node2</title>
<path fill="none" stroke="midnightblue" d="M679.79,-126.37C607.43,-128.58 503.78,-140.3 425,-184 367.44,-215.93 323.83,-285.86 308.74,-312.45"/>
<polygon fill="midnightblue" stroke="midnightblue" points="679.88,-129.87 689.79,-126.12 679.71,-122.87 679.88,-129.87"/>
</g>
<!-- Node11 -->
<g id="node11" class="node">
<title>Node11</title>
<g id="a_node11"><a xlink:href="class_round_manager.html#a6cf32ad7ffd3cafc902ae5faeb7605f8" target="_top" xlink:title="removing a card from the player&#39;s To Guess List notify the AI if a player finished showing a suggeste...">
<polygon fill="white" stroke="black" points="1600,-234.5 1600,-255.5 1788,-255.5 1788,-234.5 1600,-234.5"/>
<text text-anchor="middle" x="1694" y="-241.9" font-family="Helvetica,sans-Serif" font-size="12.00">RoundManager.NotifySuggestion</text>
</a>
</g>
</g>
<!-- Node10&#45;&gt;Node11 -->
<g id="edge15" class="edge">
<title>Node10&#45;&gt;Node11</title>
<path fill="none" stroke="midnightblue" d="M1826.69,-245C1813.85,-245 1800.84,-245 1788.26,-245"/>
<polygon fill="midnightblue" stroke="midnightblue" points="1826.93,-248.5 1836.93,-245 1826.93,-241.5 1826.93,-248.5"/>
</g>
<!-- Node12 -->
<g id="node12" class="node">
<title>Node12</title>
<g id="a_node12"><a xlink:href="class_round_manager.html#a596fc1c822ebb74dad8d238b15b1ea3a" target="_top" xlink:title="Iterate through the rest of the players searching for if 1 or more of the cards were found">
<polygon fill="white" stroke="black" points="895,-214.5 895,-235.5 1083,-235.5 1083,-214.5 895,-214.5"/>
<text text-anchor="middle" x="989" y="-221.9" font-family="Helvetica,sans-Serif" font-size="12.00">RoundManager.MakeSuggestion</text>
</a>
</g>
</g>
<!-- Node11&#45;&gt;Node12 -->
<g id="edge16" class="edge">
<title>Node11&#45;&gt;Node12</title>
<path fill="none" stroke="midnightblue" d="M1589.59,-242.06C1453,-238.17 1214.44,-231.39 1083.18,-227.65"/>
<polygon fill="midnightblue" stroke="midnightblue" points="1589.55,-245.56 1599.65,-242.34 1589.75,-238.56 1589.55,-245.56"/>
</g>
<!-- Node16 -->
<g id="node16" class="node">
<title>Node16</title>
<g id="a_node16"><a xlink:href="class_u_i_handler.html#a4009ca74f59111933be2a637c7835e18" target="_top" xlink:title="Displays a card from a player that has it">
<polygon fill="white" stroke="black" points="1383,-196.5 1383,-217.5 1509,-217.5 1509,-196.5 1383,-196.5"/>
<text text-anchor="middle" x="1446" y="-203.9" font-family="Helvetica,sans-Serif" font-size="12.00">UIHandler.ShowCard</text>
</a>
</g>
</g>
<!-- Node11&#45;&gt;Node16 -->
<g id="edge22" class="edge">
<title>Node11&#45;&gt;Node16</title>
<path fill="none" stroke="midnightblue" d="M1614.85,-232.93C1580.66,-227.65 1541.13,-221.54 1509.01,-216.58"/>
<polygon fill="midnightblue" stroke="midnightblue" points="1614.38,-236.4 1624.8,-234.47 1615.45,-229.48 1614.38,-236.4"/>
</g>
<!-- Node13 -->
<g id="node13" class="node">
<title>Node13</title>
<g id="a_node13"><a xlink:href="class_suggestion_test.html#ac6fed8b504eb8b103cb5c38fa895edf3" target="_top" xlink:title="get test choices and make suggestion">
<polygon fill="white" stroke="black" points="437.5,-193.5 437.5,-214.5 627.5,-214.5 627.5,-193.5 437.5,-193.5"/>
<text text-anchor="middle" x="532.5" y="-200.9" font-family="Helvetica,sans-Serif" font-size="12.00">SuggestionTest.MakeSuggestion</text>
</a>
</g>
</g>
<!-- Node12&#45;&gt;Node13 -->
<g id="edge17" class="edge">
<title>Node12&#45;&gt;Node13</title>
<path fill="none" stroke="midnightblue" d="M884.69,-220.23C807.41,-216.66 702.59,-211.81 627.62,-208.35"/>
<polygon fill="midnightblue" stroke="midnightblue" points="884.78,-223.73 894.93,-220.7 885.1,-216.74 884.78,-223.73"/>
</g>
<!-- Node14 -->
<g id="node14" class="node">
<title>Node14</title>
<g id="a_node14"><a xlink:href="class_user_controller.html#a6230816eec4c8be9bda248a166d7b9bd" target="_top" xlink:title="Makes suggestion">
<polygon fill="white" stroke="black" points="676,-232.5 676,-253.5 859,-253.5 859,-232.5 676,-232.5"/>
<text text-anchor="middle" x="767.5" y="-239.9" font-family="Helvetica,sans-Serif" font-size="12.00">UserController.MakeSuggestion</text>
</a>
</g>
</g>
<!-- Node12&#45;&gt;Node14 -->
<g id="edge18" class="edge">
<title>Node12&#45;&gt;Node14</title>
<path fill="none" stroke="midnightblue" d="M884.9,-233.45C876.35,-234.16 867.74,-234.86 859.28,-235.56"/>
<polygon fill="midnightblue" stroke="midnightblue" points="885.23,-236.94 894.91,-232.63 884.66,-229.96 885.23,-236.94"/>
</g>
<!-- Node14&#45;&gt;Node7 -->
<g id="edge20" class="edge">
<title>Node14&#45;&gt;Node7</title>
<path fill="none" stroke="midnightblue" d="M696.79,-255.27C663.89,-261.06 625.01,-267.9 593.45,-273.45"/>
<polygon fill="midnightblue" stroke="midnightblue" points="697.56,-258.69 706.8,-253.51 696.34,-251.79 697.56,-258.69"/>
</g>
<!-- Node14&#45;&gt;Node13 -->
<g id="edge21" class="edge">
<title>Node14&#45;&gt;Node13</title>
<path fill="none" stroke="midnightblue" d="M693.8,-230.83C662.57,-225.6 626.41,-219.55 596.36,-214.52"/>
<polygon fill="midnightblue" stroke="midnightblue" points="693.31,-234.3 703.75,-232.5 694.47,-227.39 693.31,-234.3"/>
</g>
<!-- Node15 -->
<g id="node15" class="node">
<title>Node15</title>
<g id="a_node15"><a xlink:href="class_u_i_handler.html#ae6960c4c231f0e85718af2150449bb1f" target="_top" xlink:title="Hides the suggestion panel">
<polygon fill="white" stroke="black" points="447,-233.5 447,-254.5 618,-254.5 618,-233.5 447,-233.5"/>
<text text-anchor="middle" x="532.5" y="-240.9" font-family="Helvetica,sans-Serif" font-size="12.00">UIHandler.ConfirmSuggestion</text>
</a>
</g>
</g>
<!-- Node14&#45;&gt;Node15 -->
<g id="edge19" class="edge">
<title>Node14&#45;&gt;Node15</title>
<path fill="none" stroke="midnightblue" d="M665.47,-243.43C649.74,-243.5 633.62,-243.57 618.29,-243.64"/>
<polygon fill="midnightblue" stroke="midnightblue" points="665.76,-246.93 675.75,-243.39 665.73,-239.93 665.76,-246.93"/>
</g>
<!-- Node17 -->
<g id="node17" class="node">
<title>Node17</title>
<g id="a_node17"><a xlink:href="class_round_manager.html#a780da336fd16dcaee0f00306578f13b4" target="_top" xlink:title=" ">
<polygon fill="white" stroke="black" points="1129,-196.5 1129,-217.5 1295,-217.5 1295,-196.5 1129,-196.5"/>
<text text-anchor="middle" x="1212" y="-203.9" font-family="Helvetica,sans-Serif" font-size="12.00">RoundManager.AIShowCard</text>
</a>
</g>
</g>
<!-- Node16&#45;&gt;Node17 -->
<g id="edge23" class="edge">
<title>Node16&#45;&gt;Node17</title>
<path fill="none" stroke="midnightblue" d="M1372.55,-207C1348.08,-207 1320.6,-207 1295.43,-207"/>
<polygon fill="midnightblue" stroke="midnightblue" points="1372.83,-210.5 1382.83,-207 1372.83,-203.5 1372.83,-210.5"/>
</g>
<!-- Node18 -->
<g id="node18" class="node">
<title>Node18</title>
<g id="a_node18"><a xlink:href="class_u_i_handler.html#a7e471e88a4baaa1993d0a85035c38016" target="_top" xlink:title="After pressing a card to choose pass this card to show it">
<polygon fill="white" stroke="black" points="1125.5,-156.5 1125.5,-177.5 1298.5,-177.5 1298.5,-156.5 1125.5,-156.5"/>
<text text-anchor="middle" x="1212" y="-163.9" font-family="Helvetica,sans-Serif" font-size="12.00">UIHandler.ShowSelectedCard</text>
</a>
</g>
</g>
<!-- Node16&#45;&gt;Node18 -->
<g id="edge25" class="edge">
<title>Node16&#45;&gt;Node18</title>
<path fill="none" stroke="midnightblue" d="M1373.87,-194.74C1341.92,-189.23 1304.6,-182.79 1273.95,-177.51"/>
<polygon fill="midnightblue" stroke="midnightblue" points="1373.6,-198.24 1384.04,-196.49 1374.78,-191.34 1373.6,-198.24"/>
</g>
<!-- Node17&#45;&gt;Node12 -->
<g id="edge24" class="edge">
<title>Node17&#45;&gt;Node12</title>
<path fill="none" stroke="midnightblue" d="M1118.52,-214.53C1106.82,-215.49 1094.85,-216.46 1083.15,-217.41"/>
<polygon fill="midnightblue" stroke="midnightblue" points="1119.02,-218 1128.71,-213.7 1118.46,-211.03 1119.02,-218"/>
</g>
<!-- Node19&#45;&gt;Node2 -->
<g id="edge27" class="edge">
<title>Node19&#45;&gt;Node2</title>
<path fill="none" stroke="midnightblue" d="M1605.89,-23.48C1509.74,-17.87 1350.4,-10 1213,-10 1213,-10 1213,-10 766.5,-10 606.49,-10 550.27,-24.45 425,-124 357.74,-177.45 318.21,-278.85 306.61,-312.12"/>
<polygon fill="midnightblue" stroke="midnightblue" points="1605.95,-26.99 1616.14,-24.08 1606.36,-20 1605.95,-26.99"/>
</g>
<!-- Node21 -->
<g id="node21" class="node">
<title>Node21</title>
<g id="a_node21"><a xlink:href="class_a_i_controller_script.html#a606c498cbb805d816c1b06f94631a960" target="_top" xlink:title="to activate the AI or not set which player the AI is controlling">
<polygon fill="white" stroke="black" points="1613.5,-78.5 1613.5,-99.5 1774.5,-99.5 1774.5,-78.5 1613.5,-78.5"/>
<text text-anchor="middle" x="1694" y="-85.9" font-family="Helvetica,sans-Serif" font-size="12.00">AIControllerScript.SetActive</text>
</a>
</g>
</g>
<!-- Node20&#45;&gt;Node21 -->
<g id="edge29" class="edge">
<title>Node20&#45;&gt;Node21</title>
<path fill="none" stroke="midnightblue" d="M1847.62,-89C1823.68,-89 1797.92,-89 1774.5,-89"/>
<polygon fill="midnightblue" stroke="midnightblue" points="1847.75,-92.5 1857.75,-89 1847.75,-85.5 1847.75,-92.5"/>
</g>
<!-- Node22 -->
<g id="node22" class="node">
<title>Node22</title>
<g id="a_node22"><a xlink:href="class_round_manager.html#acf644ae21a6f9ebc2a476fc8603e18fc" target="_top" xlink:title="Method for starting the turn">
<polygon fill="white" stroke="black" points="1372.5,-78.5 1372.5,-99.5 1519.5,-99.5 1519.5,-78.5 1372.5,-78.5"/>
<text text-anchor="middle" x="1446" y="-85.9" font-family="Helvetica,sans-Serif" font-size="12.00">RoundManager.StartTurn</text>
</a>
</g>
</g>
<!-- Node21&#45;&gt;Node22 -->
<g id="edge30" class="edge">
<title>Node21&#45;&gt;Node22</title>
<path fill="none" stroke="midnightblue" d="M1603.44,-89C1575.87,-89 1545.87,-89 1519.59,-89"/>
<polygon fill="midnightblue" stroke="midnightblue" points="1603.47,-92.5 1613.47,-89 1603.47,-85.5 1603.47,-92.5"/>
</g>
<!-- Node23 -->
<g id="node23" class="node">
<title>Node23</title>
<g id="a_node23"><a xlink:href="class_round_manager.html#a29177f2e27c6c4af55dfa3c48d67cfb0" target="_top" xlink:title="Ending the turn. Returns the next player">
<polygon fill="white" stroke="black" points="1140.5,-78.5 1140.5,-99.5 1283.5,-99.5 1283.5,-78.5 1140.5,-78.5"/>
<text text-anchor="middle" x="1212" y="-85.9" font-family="Helvetica,sans-Serif" font-size="12.00">RoundManager.EndTurn</text>
</a>
</g>
</g>
<!-- Node22&#45;&gt;Node23 -->
<g id="edge31" class="edge">
<title>Node22&#45;&gt;Node23</title>
<path fill="none" stroke="midnightblue" d="M1362.13,-89C1336.41,-89 1308.32,-89 1283.53,-89"/>
<polygon fill="midnightblue" stroke="midnightblue" points="1362.23,-92.5 1372.23,-89 1362.23,-85.5 1362.23,-92.5"/>
</g>
<!-- Node26 -->
<g id="node26" class="node">
<title>Node26</title>
<g id="a_node26"><a xlink:href="class_game_manager_script.html#a12cbaf1ff00804887619c07c7267cf31" target="_top" xlink:title="starting and initialing the game and it&#39;s components">
<polygon fill="white" stroke="black" points="1119,-38.5 1119,-59.5 1305,-59.5 1305,-38.5 1119,-38.5"/>
<text text-anchor="middle" x="1212" y="-45.9" font-family="Helvetica,sans-Serif" font-size="12.00">GameManagerScript.StartGame</text>
</a>
</g>
</g>
<!-- Node22&#45;&gt;Node26 -->
<g id="edge35" class="edge">
<title>Node22&#45;&gt;Node26</title>
<path fill="none" stroke="midnightblue" d="M1373.87,-76.74C1341.92,-71.23 1304.6,-64.79 1273.95,-59.51"/>
<polygon fill="midnightblue" stroke="midnightblue" points="1373.6,-80.24 1384.04,-78.49 1374.78,-73.34 1373.6,-80.24"/>
</g>
<!-- Node24 -->
<g id="node24" class="node">
<title>Node24</title>
<g id="a_node24"><a xlink:href="class_user_controller.html#ab90611f541e20c125133d09b62407f41" target="_top" xlink:title="Ends turn">
<polygon fill="white" stroke="black" points="920,-78.5 920,-99.5 1058,-99.5 1058,-78.5 920,-78.5"/>
<text text-anchor="middle" x="989" y="-85.9" font-family="Helvetica,sans-Serif" font-size="12.00">UserController.EndTurn</text>
</a>
</g>
</g>
<!-- Node23&#45;&gt;Node24 -->
<g id="edge32" class="edge">
<title>Node23&#45;&gt;Node24</title>
<path fill="none" stroke="midnightblue" d="M1130.46,-89C1106.81,-89 1081.17,-89 1058.36,-89"/>
<polygon fill="midnightblue" stroke="midnightblue" points="1130.47,-92.5 1140.47,-89 1130.47,-85.5 1130.47,-92.5"/>
</g>
<!-- Node24&#45;&gt;Node8 -->
<g id="edge33" class="edge">
<title>Node24&#45;&gt;Node8</title>
<path fill="none" stroke="midnightblue" d="M918.75,-101.3C889.5,-106.5 855.79,-112.49 827.72,-117.48"/>
<polygon fill="midnightblue" stroke="midnightblue" points="919.66,-104.7 928.89,-99.5 918.43,-97.81 919.66,-104.7"/>
</g>
<!-- Node25 -->
<g id="node25" class="node">
<title>Node25</title>
<g id="a_node25"><a xlink:href="class_u_i_handler.html#acc06a1dab8566d9e14f7ab3ae1ffea93" target="_top" xlink:title="Ends current player&#39;s turn">
<polygon fill="white" stroke="black" points="710.5,-77.5 710.5,-98.5 824.5,-98.5 824.5,-77.5 710.5,-77.5"/>
<text text-anchor="middle" x="767.5" y="-84.9" font-family="Helvetica,sans-Serif" font-size="12.00">UIHandler.EndTurn</text>
</a>
</g>
</g>
<!-- Node24&#45;&gt;Node25 -->
<g id="edge34" class="edge">
<title>Node24&#45;&gt;Node25</title>
<path fill="none" stroke="midnightblue" d="M909.55,-88.64C881.46,-88.51 850.38,-88.37 824.56,-88.26"/>
<polygon fill="midnightblue" stroke="midnightblue" points="909.74,-92.14 919.75,-88.69 909.77,-85.14 909.74,-92.14"/>
</g>
<!-- Node27 -->
<g id="node27" class="node">
<title>Node27</title>
<g id="a_node27"><a xlink:href="class_suggestion_test.html#a904e4481863c3e620574eba37c993a26" target="_top" xlink:title=" ">
<polygon fill="white" stroke="black" points="926,-38.5 926,-59.5 1052,-59.5 1052,-38.5 926,-38.5"/>
<text text-anchor="middle" x="989" y="-45.9" font-family="Helvetica,sans-Serif" font-size="12.00">SuggestionTest.Start</text>
</a>
</g>
</g>
<!-- Node26&#45;&gt;Node27 -->
<g id="edge36" class="edge">
<title>Node26&#45;&gt;Node27</title>
<path fill="none" stroke="midnightblue" d="M1108.8,-49C1089.44,-49 1069.75,-49 1052.1,-49"/>
<polygon fill="midnightblue" stroke="midnightblue" points="1108.88,-52.5 1118.88,-49 1108.88,-45.5 1108.88,-52.5"/>
</g>
</g>
</svg>
