<?xml version="1.0" encoding="UTF-8" standalone="no"?>
<!DOCTYPE svg PUBLIC "-//W3C//DTD SVG 1.1//EN"
 "http://www.w3.org/Graphics/SVG/1.1/DTD/svg11.dtd">
<!-- Generated by graphviz version 2.47.1 (20210417.1919)
 -->
<!-- Title: RoomScript.MovePlayerToRoom Pages: 1 -->
<svg width="459pt" height="70pt"
 viewBox="0.00 0.00 459.00 70.00" xmlns="http://www.w3.org/2000/svg" xmlns:xlink="http://www.w3.org/1999/xlink">
<g id="graph0" class="graph" transform="scale(1 1) rotate(0) translate(4 66)">
<title>RoomScript.MovePlayerToRoom</title>
<polygon fill="white" stroke="transparent" points="-4,4 -4,-66 455,-66 455,4 -4,4"/>
<!-- Node1 -->
<g id="node1" class="node">
<title>Node1</title>
<g id="a_node1"><a xlink:title="Move a player to the room">
<polygon fill="#bfbfbf" stroke="black" points="0,-20.5 0,-41.5 188,-41.5 188,-20.5 0,-20.5"/>
<text text-anchor="middle" x="94" y="-27.9" font-family="Helvetica,sans-Serif" font-size="12.00">RoomScript.MovePlayerToRoom</text>
</a>
</g>
</g>
<!-- Node2 -->
<g id="node2" class="node">
<title>Node2</title>
<g id="a_node2"><a xlink:href="class_player_master_controller.html#a12c91851433777ae557a71d9f9a855f0" target="_top" xlink:title=" ">
<polygon fill="white" stroke="black" points="233,-40.5 233,-61.5 442,-61.5 442,-40.5 233,-40.5"/>
<text text-anchor="middle" x="337.5" y="-47.9" font-family="Helvetica,sans-Serif" font-size="12.00">PlayerMasterController.GetCharacter</text>
</a>
</g>
</g>
<!-- Node1&#45;&gt;Node2 -->
<g id="edge1" class="edge">
<title>Node1&#45;&gt;Node2</title>
<path fill="none" stroke="midnightblue" d="M188.02,-38.7C199.33,-39.64 210.98,-40.6 222.54,-41.56"/>
<polygon fill="midnightblue" stroke="midnightblue" points="222.42,-45.06 232.67,-42.4 222.99,-38.09 222.42,-45.06"/>
</g>
<!-- Node3 -->
<g id="node3" class="node">
<title>Node3</title>
<g id="a_node3"><a xlink:href="class_player_master_controller.html#a0447a8a21b5c0f2c94f9d27e0bcd0830" target="_top" xlink:title=" ">
<polygon fill="white" stroke="black" points="224,-0.5 224,-21.5 451,-21.5 451,-0.5 224,-0.5"/>
<text text-anchor="middle" x="337.5" y="-7.9" font-family="Helvetica,sans-Serif" font-size="12.00">PlayerMasterController.GetCurrentRoom</text>
</a>
</g>
</g>
<!-- Node1&#45;&gt;Node3 -->
<g id="edge2" class="edge">
<title>Node1&#45;&gt;Node3</title>
<path fill="none" stroke="midnightblue" d="M188.02,-23.3C196.43,-22.6 205.02,-21.89 213.63,-21.18"/>
<polygon fill="midnightblue" stroke="midnightblue" points="214.06,-24.65 223.73,-20.34 213.48,-17.68 214.06,-24.65"/>
</g>
</g>
</svg>
