<?xml version="1.0" encoding="UTF-8" standalone="no"?>
<!DOCTYPE svg PUBLIC "-//W3C//DTD SVG 1.1//EN"
 "http://www.w3.org/Graphics/SVG/1.1/DTD/svg11.dtd">
<!-- Generated by graphviz version 2.47.1 (20210417.1919)
 -->
<!-- Title: RoomScript.GetRoomFromString Pages: 1 -->
<!--zoomable 110 -->
<svg id="main" version="1.1" xmlns="http://www.w3.org/2000/svg" xmlns:xlink="http://www.w3.org/1999/xlink" xml:space="preserve" onload="init(evt)">
<style type="text/css"><![CDATA[
.edge:hover path { stroke: red; }
.edge:hover polygon { stroke: red; fill: red; }
]]></style>
<script type="text/javascript"><![CDATA[
var edges = document.getElementsByTagName('g');
if (edges && edges.length) {
  for (var i=0;i<edges.length;i++) {
    if (edges[i].id.substr(0,4)=='edge') {
      edges[i].setAttribute('class','edge');
    }
  }
}
]]></script>
        <defs>
                <circle id="rim" cx="0" cy="0" r="7"/>
                <circle id="rim2" cx="0" cy="0" r="3.5"/>
                <g id="zoomPlus">
                        <use xlink:href="#rim" fill="#404040">
                                <set attributeName="fill" to="#808080" begin="zoomplus.mouseover" end="zoomplus.mouseout"/>
                        </use>
                        <path d="M-4,0h8M0,-4v8" fill="none" stroke="white" stroke-width="1.5" pointer-events="none"/>
                </g>
                <g id="zoomMin">
                        <use xlink:href="#rim" fill="#404040">
                                <set attributeName="fill" to="#808080" begin="zoomminus.mouseover" end="zoomminus.mouseout"/>
                        </use>
                        <path d="M-4,0h8" fill="none" stroke="white" stroke-width="1.5" pointer-events="none"/>
                </g>
                <g id="dirArrow">
                        <path fill="none" stroke="white" stroke-width="1.5" d="M0,-3.0v7 M-2.5,-0.5L0,-3.0L2.5,-0.5"/>
                </g>
               <g id="resetDef">
                       <use xlink:href="#rim2" fill="#404040">
                               <set attributeName="fill" to="#808080" begin="reset.mouseover" end="reset.mouseout"/>
                       </use>
               </g>
        </defs>

<script type="text/javascript">
var viewWidth = 973;
var viewHeight = 110;
var sectionId = 'dynsection-3';
</script>
<script xlink:href="svgpan.js"/>
<svg id="graph" class="graph">
<g id="viewport">
<title>RoomScript.GetRoomFromString</title>
<polygon fill="white" stroke="transparent" points="-4,4 -4,-106 969,-106 969,4 -4,4"/>
<!-- Node1 -->
<g id="node1" class="node">
<title>Node1</title>
<g id="a_node1"><a xlink:title="Get Room Enum from string">
<polygon fill="#bfbfbf" stroke="black" points="774,-40.5 774,-61.5 965,-61.5 965,-40.5 774,-40.5"/>
<text text-anchor="middle" x="869.5" y="-47.9" font-family="Helvetica,sans-Serif" font-size="12.00">RoomScript.GetRoomFromString</text>
</a>
</g>
</g>
<!-- Node2 -->
<g id="node2" class="node">
<title>Node2</title>
<g id="a_node2"><a xlink:href="class_board_builder.html#a03451888fabe0fefe9bb547dd510ac1d" target="_top" xlink:title="Instantiate a roomEntrance tile and set its parameters">
<polygon fill="white" stroke="black" points="514,-80.5 514,-101.5 735,-101.5 735,-80.5 514,-80.5"/>
<text text-anchor="middle" x="624.5" y="-87.9" font-family="Helvetica,sans-Serif" font-size="12.00">BoardBuilder.CreateRoomEntranceTile</text>
</a>
</g>
</g>
<!-- Node1&#45;&gt;Node2 -->
<g id="edge1" class="edge">
<title>Node1&#45;&gt;Node2</title>
<path fill="none" stroke="midnightblue" d="M794.44,-63.19C760.87,-68.72 721.58,-75.18 689.34,-80.49"/>
<polygon fill="midnightblue" stroke="midnightblue" points="795.36,-66.59 804.65,-61.51 794.22,-59.68 795.36,-66.59"/>
</g>
<!-- Node6 -->
<g id="node6" class="node">
<title>Node6</title>
<g id="a_node6"><a xlink:href="class_board_builder.html#aa03504edb607b14737199d2e66b4ce07" target="_top" xlink:title="Instantiate a shortcut tile and set its parameters">
<polygon fill="white" stroke="black" points="531.5,-40.5 531.5,-61.5 717.5,-61.5 717.5,-40.5 531.5,-40.5"/>
<text text-anchor="middle" x="624.5" y="-47.9" font-family="Helvetica,sans-Serif" font-size="12.00">BoardBuilder.CreateShortcutTile</text>
</a>
</g>
</g>
<!-- Node1&#45;&gt;Node6 -->
<g id="edge5" class="edge">
<title>Node1&#45;&gt;Node6</title>
<path fill="none" stroke="midnightblue" d="M763.43,-51C748.28,-51 732.78,-51 717.89,-51"/>
<polygon fill="midnightblue" stroke="midnightblue" points="763.85,-54.5 773.85,-51 763.85,-47.5 763.85,-54.5"/>
</g>
<!-- Node7 -->
<g id="node7" class="node">
<title>Node7</title>
<g id="a_node7"><a xlink:href="class_move_tokens_test_script.html#ad7e6dce3665f334d61eaad8371ca84b8" target="_top" xlink:title="Set the current room to move tokens to">
<polygon fill="white" stroke="black" points="511,-0.5 511,-21.5 738,-21.5 738,-0.5 511,-0.5"/>
<text text-anchor="middle" x="624.5" y="-7.9" font-family="Helvetica,sans-Serif" font-size="12.00">MoveTokensTestScript.SetCurrentRoom</text>
</a>
</g>
</g>
<!-- Node1&#45;&gt;Node7 -->
<g id="edge7" class="edge">
<title>Node1&#45;&gt;Node7</title>
<path fill="none" stroke="midnightblue" d="M794.44,-38.81C760.87,-33.28 721.58,-26.82 689.34,-21.51"/>
<polygon fill="midnightblue" stroke="midnightblue" points="794.22,-42.32 804.65,-40.49 795.36,-35.41 794.22,-42.32"/>
</g>
<!-- Node3 -->
<g id="node3" class="node">
<title>Node3</title>
<g id="a_node3"><a xlink:href="class_board_builder.html#a3a24e59815a2273a921875c2cb7781f2" target="_top" xlink:title="Build the board using various helper methods">
<polygon fill="white" stroke="black" points="328,-60.5 328,-81.5 475,-81.5 475,-60.5 328,-60.5"/>
<text text-anchor="middle" x="401.5" y="-67.9" font-family="Helvetica,sans-Serif" font-size="12.00">BoardBuilder.BuildBoard</text>
</a>
</g>
</g>
<!-- Node2&#45;&gt;Node3 -->
<g id="edge2" class="edge">
<title>Node2&#45;&gt;Node3</title>
<path fill="none" stroke="midnightblue" d="M503.82,-80.17C494.1,-79.29 484.48,-78.42 475.26,-77.58"/>
<polygon fill="midnightblue" stroke="midnightblue" points="503.7,-83.67 513.97,-81.09 504.33,-76.7 503.7,-83.67"/>
</g>
<!-- Node4 -->
<g id="node4" class="node">
<title>Node4</title>
<g id="a_node4"><a xlink:href="class_board_builder.html#a82e09ea29b1d031cfe2fa3b444c12c99" target="_top" xlink:title="Method to create the board, initialise and place all items and pass references to board manager">
<polygon fill="white" stroke="black" points="161,-60.5 161,-81.5 292,-81.5 292,-60.5 161,-60.5"/>
<text text-anchor="middle" x="226.5" y="-67.9" font-family="Helvetica,sans-Serif" font-size="12.00">BoardBuilder.Initialise</text>
</a>
</g>
</g>
<!-- Node3&#45;&gt;Node4 -->
<g id="edge3" class="edge">
<title>Node3&#45;&gt;Node4</title>
<path fill="none" stroke="midnightblue" d="M317.83,-71C309.24,-71 300.59,-71 292.23,-71"/>
<polygon fill="midnightblue" stroke="midnightblue" points="317.88,-74.5 327.88,-71 317.88,-67.5 317.88,-74.5"/>
</g>
<!-- Node5 -->
<g id="node5" class="node">
<title>Node5</title>
<g id="a_node5"><a xlink:href="class_board_builder.html#a40848d7394ead9e79f4f2dad2d7756b8" target="_top" xlink:title=" ">
<polygon fill="white" stroke="black" points="0,-60.5 0,-81.5 125,-81.5 125,-60.5 0,-60.5"/>
<text text-anchor="middle" x="62.5" y="-67.9" font-family="Helvetica,sans-Serif" font-size="12.00">BoardBuilder.Awake</text>
</a>
</g>
</g>
<!-- Node4&#45;&gt;Node5 -->
<g id="edge4" class="edge">
<title>Node4&#45;&gt;Node5</title>
<path fill="none" stroke="midnightblue" d="M150.3,-71C141.84,-71 133.31,-71 125.05,-71"/>
<polygon fill="midnightblue" stroke="midnightblue" points="150.54,-74.5 160.54,-71 150.54,-67.5 150.54,-74.5"/>
</g>
<!-- Node6&#45;&gt;Node3 -->
<g id="edge6" class="edge">
<title>Node6&#45;&gt;Node3</title>
<path fill="none" stroke="midnightblue" d="M521.23,-60.26C505.73,-61.66 490,-63.08 475.3,-64.41"/>
<polygon fill="midnightblue" stroke="midnightblue" points="521.73,-63.72 531.38,-59.34 521.1,-56.75 521.73,-63.72"/>
</g>
</g>
</svg>
        <g id="navigator" transform="translate(0 0)" fill="#404254">
                <rect fill="#f2f5e9" fill-opacity="0.5" stroke="#606060" stroke-width=".5" x="0" y="0" width="60" height="60"/>
                <use id="zoomplus" xlink:href="#zoomPlus" x="17" y="9" onmousedown="handleZoom(evt,'in')"/>
                <use id="zoomminus" xlink:href="#zoomMin" x="42" y="9" onmousedown="handleZoom(evt,'out')"/>
                <use id="reset" xlink:href="#resetDef" x="30" y="36" onmousedown="handleReset()"/>
                <g id="arrowUp" xlink:href="#dirArrow" transform="translate(30 24)" onmousedown="handlePan(0,-1)">
                  <use xlink:href="#rim" fill="#404040">
                        <set attributeName="fill" to="#808080" begin="arrowUp.mouseover" end="arrowUp.mouseout"/>
                  </use>
                  <path fill="none" stroke="white" stroke-width="1.5" d="M0,-3.0v7 M-2.5,-0.5L0,-3.0L2.5,-0.5"/>
                </g>
                <g id="arrowRight" xlink:href="#dirArrow" transform="rotate(90) translate(36 -43)" onmousedown="handlePan(1,0)">
                  <use xlink:href="#rim" fill="#404040">
                        <set attributeName="fill" to="#808080" begin="arrowRight.mouseover" end="arrowRight.mouseout"/>
                  </use>
                  <path fill="none" stroke="white" stroke-width="1.5" d="M0,-3.0v7 M-2.5,-0.5L0,-3.0L2.5,-0.5"/>
                </g>
                <g id="arrowDown" xlink:href="#dirArrow" transform="rotate(180) translate(-30 -48)" onmousedown="handlePan(0,1)">
                  <use xlink:href="#rim" fill="#404040">
                        <set attributeName="fill" to="#808080" begin="arrowDown.mouseover" end="arrowDown.mouseout"/>
                  </use>
                  <path fill="none" stroke="white" stroke-width="1.5" d="M0,-3.0v7 M-2.5,-0.5L0,-3.0L2.5,-0.5"/>
                </g>
                <g id="arrowLeft" xlink:href="#dirArrow" transform="rotate(270) translate(-36 17)" onmousedown="handlePan(-1,0)">
                  <use xlink:href="#rim" fill="#404040">
                        <set attributeName="fill" to="#808080" begin="arrowLeft.mouseover" end="arrowLeft.mouseout"/>
                  </use>
                  <path fill="none" stroke="white" stroke-width="1.5" d="M0,-3.0v7 M-2.5,-0.5L0,-3.0L2.5,-0.5"/>
                </g>
        </g>
        <svg viewBox="0 0 15 15" width="100%" height="30px" preserveAspectRatio="xMaxYMin meet">
         <g id="arrow_out" transform="scale(0.3 0.3)">
          <a xlink:href="class_room_script_a1747ef3091a32115e7bdbd53f5764a31_icgraph_org.svg" target="_base">
           <rect id="button" ry="5" rx="5" y="6" x="6" height="38" width="38"
                fill="#f2f5e9" fill-opacity="0.5" stroke="#606060" stroke-width="1.0"/>
           <path id="arrow"
             d="M 11.500037,31.436501 C 11.940474,20.09759 22.043105,11.32322 32.158766,21.979434 L 37.068811,17.246167 C 37.068811,17.246167 37.088388,32 37.088388,32 L 22.160133,31.978069 C 22.160133,31.978069 26.997745,27.140456 26.997745,27.140456 C 18.528582,18.264221 13.291696,25.230495 11.500037,31.436501 z"
             style="fill:#404040;"/>
          </a>
         </g>
        </svg>
</svg>
