<?xml version="1.0" encoding="UTF-8" standalone="no"?>
<!DOCTYPE svg PUBLIC "-//W3C//DTD SVG 1.1//EN"
 "http://www.w3.org/Graphics/SVG/1.1/DTD/svg11.dtd">
<!-- Generated by graphviz version 2.47.1 (20210417.1919)
 -->
<!-- Title: NotebookScript.RefreshCharacters Pages: 1 -->
<svg width="626pt" height="30pt"
 viewBox="0.00 0.00 626.00 30.00" xmlns="http://www.w3.org/2000/svg" xmlns:xlink="http://www.w3.org/1999/xlink">
<g id="graph0" class="graph" transform="scale(1 1) rotate(0) translate(4 26)">
<title>NotebookScript.RefreshCharacters</title>
<polygon fill="white" stroke="transparent" points="-4,4 -4,-26 622,-26 622,4 -4,4"/>
<!-- Node1 -->
<g id="node1" class="node">
<title>Node1</title>
<g id="a_node1"><a xlink:title="Refresh all character button status.">
<polygon fill="#bfbfbf" stroke="black" points="418,-0.5 418,-21.5 618,-21.5 618,-0.5 418,-0.5"/>
<text text-anchor="middle" x="518" y="-7.9" font-family="Helvetica,sans-Serif" font-size="12.00">NotebookScript.RefreshCharacters</text>
</a>
</g>
</g>
<!-- Node2 -->
<g id="node2" class="node">
<title>Node2</title>
<g id="a_node2"><a xlink:href="class_notebook_script.html#a3c031d903921e95ac42253bb09f5beec" target="_top" xlink:title="Refresh the notebook UI Object">
<polygon fill="white" stroke="black" points="189,-0.5 189,-21.5 382,-21.5 382,-0.5 189,-0.5"/>
<text text-anchor="middle" x="285.5" y="-7.9" font-family="Helvetica,sans-Serif" font-size="12.00">NotebookScript.RefreshNotebook</text>
</a>
</g>
</g>
<!-- Node1&#45;&gt;Node2 -->
<g id="edge1" class="edge">
<title>Node1&#45;&gt;Node2</title>
<path fill="none" stroke="midnightblue" d="M407.88,-11C399.31,-11 390.69,-11 382.22,-11"/>
<polygon fill="midnightblue" stroke="midnightblue" points="407.91,-14.5 417.91,-11 407.91,-7.5 407.91,-14.5"/>
</g>
<!-- Node3 -->
<g id="node3" class="node">
<title>Node3</title>
<g id="a_node3"><a xlink:href="class_notebook_script.html#a68c629fcde9476555ad02cc1e884d85f" target="_top" xlink:title="Refresh notebook on enabling">
<polygon fill="white" stroke="black" points="0,-0.5 0,-21.5 153,-21.5 153,-0.5 0,-0.5"/>
<text text-anchor="middle" x="76.5" y="-7.9" font-family="Helvetica,sans-Serif" font-size="12.00">NotebookScript.OnEnable</text>
</a>
</g>
</g>
<!-- Node2&#45;&gt;Node3 -->
<g id="edge2" class="edge">
<title>Node2&#45;&gt;Node3</title>
<path fill="none" stroke="midnightblue" d="M178.76,-11C170.13,-11 161.53,-11 153.19,-11"/>
<polygon fill="midnightblue" stroke="midnightblue" points="178.88,-14.5 188.88,-11 178.88,-7.5 178.88,-14.5"/>
</g>
</g>
</svg>
