<?xml version="1.0" encoding="UTF-8" standalone="no"?>
<!DOCTYPE svg PUBLIC "-//W3C//DTD SVG 1.1//EN"
 "http://www.w3.org/Graphics/SVG/1.1/DTD/svg11.dtd">
<!-- Generated by graphviz version 2.47.1 (20210417.1919)
 -->
<!-- Title: BoardManager.ClearMovable Pages: 1 -->
<svg width="1567pt" height="190pt"
 viewBox="0.00 0.00 1567.00 190.00" xmlns="http://www.w3.org/2000/svg" xmlns:xlink="http://www.w3.org/1999/xlink">
<g id="graph0" class="graph" transform="scale(1 1) rotate(0) translate(4 186)">
<title>BoardManager.ClearMovable</title>
<polygon fill="white" stroke="transparent" points="-4,4 -4,-186 1563,-186 1563,4 -4,4"/>
<!-- Node1 -->
<g id="node1" class="node">
<title>Node1</title>
<g id="a_node1"><a xlink:title="Clear all movable tiles">
<polygon fill="#bfbfbf" stroke="black" points="1388,-80.5 1388,-101.5 1559,-101.5 1559,-80.5 1388,-80.5"/>
<text text-anchor="middle" x="1473.5" y="-87.9" font-family="Helvetica,sans-Serif" font-size="12.00">BoardManager.ClearMovable</text>
</a>
</g>
</g>
<!-- Node2 -->
<g id="node2" class="node">
<title>Node2</title>
<g id="a_node2"><a xlink:href="class_testing___movement_script.html#a8bd90f3857ba3610ef23e0a5d7e4879a" target="_top" xlink:title="give a select value for the player roll">
<polygon fill="white" stroke="black" points="1159,-160.5 1159,-181.5 1352,-181.5 1352,-160.5 1159,-160.5"/>
<text text-anchor="middle" x="1255.5" y="-167.9" font-family="Helvetica,sans-Serif" font-size="12.00">Testing_MovementScript.GiveRoll</text>
</a>
</g>
</g>
<!-- Node1&#45;&gt;Node2 -->
<g id="edge1" class="edge">
<title>Node1&#45;&gt;Node2</title>
<path fill="none" stroke="midnightblue" d="M1445.95,-106.7C1422.09,-120.2 1385.72,-139.29 1352,-151 1341.28,-154.72 1329.63,-157.87 1318.27,-160.48"/>
<polygon fill="midnightblue" stroke="midnightblue" points="1447.82,-109.66 1454.76,-101.65 1444.34,-103.59 1447.82,-109.66"/>
</g>
<!-- Node3 -->
<g id="node3" class="node">
<title>Node3</title>
<g id="a_node3"><a xlink:href="class_round_manager.html#adfd4f66436e06c12a25c9236b629f369" target="_top" xlink:title="moving the current player to the selected tile">
<polygon fill="white" stroke="black" points="1175,-120.5 1175,-141.5 1336,-141.5 1336,-120.5 1175,-120.5"/>
<text text-anchor="middle" x="1255.5" y="-127.9" font-family="Helvetica,sans-Serif" font-size="12.00">RoundManager.MovePlayer</text>
</a>
</g>
</g>
<!-- Node1&#45;&gt;Node3 -->
<g id="edge2" class="edge">
<title>Node1&#45;&gt;Node3</title>
<path fill="none" stroke="midnightblue" d="M1405.89,-103.33C1376.23,-108.83 1341.66,-115.23 1313.25,-120.49"/>
<polygon fill="midnightblue" stroke="midnightblue" points="1406.55,-106.77 1415.75,-101.51 1405.28,-99.89 1406.55,-106.77"/>
</g>
<!-- Node9 -->
<g id="node9" class="node">
<title>Node9</title>
<g id="a_node9"><a xlink:href="class_board_manager.html#a7607382dac3371733cee2f30a8ba6f25" target="_top" xlink:title="Show movable tiles">
<polygon fill="white" stroke="black" points="1169.5,-80.5 1169.5,-101.5 1341.5,-101.5 1341.5,-80.5 1169.5,-80.5"/>
<text text-anchor="middle" x="1255.5" y="-87.9" font-family="Helvetica,sans-Serif" font-size="12.00">BoardManager.ShowMovable</text>
</a>
</g>
</g>
<!-- Node1&#45;&gt;Node9 -->
<g id="edge8" class="edge">
<title>Node1&#45;&gt;Node9</title>
<path fill="none" stroke="midnightblue" d="M1377.74,-91C1365.75,-91 1353.54,-91 1341.71,-91"/>
<polygon fill="midnightblue" stroke="midnightblue" points="1377.75,-94.5 1387.75,-91 1377.75,-87.5 1377.75,-94.5"/>
</g>
<!-- Node10 -->
<g id="node10" class="node">
<title>Node10</title>
<g id="a_node10"><a xlink:href="class_round_manager.html#acf644ae21a6f9ebc2a476fc8603e18fc" target="_top" xlink:title="Method for starting the turn">
<polygon fill="white" stroke="black" points="1182,-40.5 1182,-61.5 1329,-61.5 1329,-40.5 1182,-40.5"/>
<text text-anchor="middle" x="1255.5" y="-47.9" font-family="Helvetica,sans-Serif" font-size="12.00">RoundManager.StartTurn</text>
</a>
</g>
</g>
<!-- Node1&#45;&gt;Node10 -->
<g id="edge9" class="edge">
<title>Node1&#45;&gt;Node10</title>
<path fill="none" stroke="midnightblue" d="M1405.89,-78.67C1376.23,-73.17 1341.66,-66.77 1313.25,-61.51"/>
<polygon fill="midnightblue" stroke="midnightblue" points="1405.28,-82.11 1415.75,-80.49 1406.55,-75.23 1405.28,-82.11"/>
</g>
<!-- Node17 -->
<g id="node17" class="node">
<title>Node17</title>
<g id="a_node17"><a xlink:href="class_player_token_script.html#acadae9824e11bd147d2c65cbb86ea89d" target="_top" xlink:title=" ">
<polygon fill="white" stroke="black" points="1163,-0.5 1163,-21.5 1348,-21.5 1348,-0.5 1163,-0.5"/>
<text text-anchor="middle" x="1255.5" y="-7.9" font-family="Helvetica,sans-Serif" font-size="12.00">PlayerTokenScript.TakeShortcut</text>
</a>
</g>
</g>
<!-- Node1&#45;&gt;Node17 -->
<g id="edge17" class="edge">
<title>Node1&#45;&gt;Node17</title>
<path fill="none" stroke="midnightblue" d="M1445.95,-75.3C1422.09,-61.8 1385.72,-42.71 1352,-31 1341.28,-27.28 1329.63,-24.13 1318.27,-21.52"/>
<polygon fill="midnightblue" stroke="midnightblue" points="1444.34,-78.41 1454.76,-80.35 1447.82,-72.34 1444.34,-78.41"/>
</g>
<!-- Node4 -->
<g id="node4" class="node">
<title>Node4</title>
<g id="a_node4"><a xlink:href="class_user_controller.html#af896aefe0262e0d8f07fa5f18592877d" target="_top" xlink:title="Selects a tile for player movement">
<polygon fill="white" stroke="black" points="957,-120.5 957,-141.5 1103,-141.5 1103,-120.5 957,-120.5"/>
<text text-anchor="middle" x="1030" y="-127.9" font-family="Helvetica,sans-Serif" font-size="12.00">UserController.SelectTile</text>
</a>
</g>
</g>
<!-- Node3&#45;&gt;Node4 -->
<g id="edge3" class="edge">
<title>Node3&#45;&gt;Node4</title>
<path fill="none" stroke="midnightblue" d="M1164.53,-131C1144.17,-131 1122.79,-131 1103.27,-131"/>
<polygon fill="midnightblue" stroke="midnightblue" points="1164.76,-134.5 1174.76,-131 1164.76,-127.5 1164.76,-134.5"/>
</g>
<!-- Node5 -->
<g id="node5" class="node">
<title>Node5</title>
<g id="a_node5"><a xlink:href="class_a_i_controller_script.html#af04897fa0ae4ed5e472dea79bce8d7df" target="_top" xlink:title="Decides where the AI should move to this should match the flow chart of the AI">
<polygon fill="white" stroke="black" points="425,-139.5 425,-160.5 635,-160.5 635,-139.5 425,-139.5"/>
<text text-anchor="middle" x="530" y="-146.9" font-family="Helvetica,sans-Serif" font-size="12.00">AIControllerScript.Decide_Movement</text>
</a>
</g>
</g>
<!-- Node4&#45;&gt;Node5 -->
<g id="edge4" class="edge">
<title>Node4&#45;&gt;Node5</title>
<path fill="none" stroke="midnightblue" d="M946.7,-134.14C861.42,-137.39 727.9,-142.49 635.29,-146.02"/>
<polygon fill="midnightblue" stroke="midnightblue" points="946.99,-137.63 956.85,-133.75 946.73,-130.64 946.99,-137.63"/>
</g>
<!-- Node8 -->
<g id="node8" class="node">
<title>Node8</title>
<g id="a_node8"><a xlink:href="class_user_input_control_script.html#a13be570929e27dad6d3d452ccd5f52eb" target="_top" xlink:title="move player token to the tile the cursor is on">
<polygon fill="white" stroke="black" points="671,-100.5 671,-121.5 901,-121.5 901,-100.5 671,-100.5"/>
<text text-anchor="middle" x="786" y="-107.9" font-family="Helvetica,sans-Serif" font-size="12.00">UserInputControlScript.MovePlayerToken</text>
</a>
</g>
</g>
<!-- Node4&#45;&gt;Node8 -->
<g id="edge7" class="edge">
<title>Node4&#45;&gt;Node8</title>
<path fill="none" stroke="midnightblue" d="M946.69,-124.2C931.98,-122.98 916.43,-121.7 901.02,-120.42"/>
<polygon fill="midnightblue" stroke="midnightblue" points="946.47,-127.69 956.72,-125.03 947.04,-120.71 946.47,-127.69"/>
</g>
<!-- Node6 -->
<g id="node6" class="node">
<title>Node6</title>
<g id="a_node6"><a xlink:href="class_a_i_controller_script.html#ac31d9b8dbb75696b181eff1fbef41b97" target="_top" xlink:title="dictates what the AI will do depending on what mode it is in">
<polygon fill="white" stroke="black" points="215,-119.5 215,-140.5 389,-140.5 389,-119.5 215,-119.5"/>
<text text-anchor="middle" x="302" y="-126.9" font-family="Helvetica,sans-Serif" font-size="12.00">AIControllerScript.AIBehaviour</text>
</a>
</g>
</g>
<!-- Node5&#45;&gt;Node6 -->
<g id="edge5" class="edge">
<title>Node5&#45;&gt;Node6</title>
<path fill="none" stroke="midnightblue" d="M414.84,-139.9C406.24,-139.14 397.65,-138.38 389.27,-137.63"/>
<polygon fill="midnightblue" stroke="midnightblue" points="414.66,-143.4 424.93,-140.79 415.28,-136.42 414.66,-143.4"/>
</g>
<!-- Node7 -->
<g id="node7" class="node">
<title>Node7</title>
<g id="a_node7"><a xlink:href="class_a_i_controller_script.html#a74dc0e720fafceb873d3b19c12f68d58" target="_top" xlink:title=" ">
<polygon fill="white" stroke="black" points="0,-119.5 0,-140.5 179,-140.5 179,-119.5 0,-119.5"/>
<text text-anchor="middle" x="89.5" y="-126.9" font-family="Helvetica,sans-Serif" font-size="12.00">AIControllerScript.FixedUpdate</text>
</a>
</g>
</g>
<!-- Node6&#45;&gt;Node7 -->
<g id="edge6" class="edge">
<title>Node6&#45;&gt;Node7</title>
<path fill="none" stroke="midnightblue" d="M204.57,-130C196.15,-130 187.67,-130 179.32,-130"/>
<polygon fill="midnightblue" stroke="midnightblue" points="204.77,-133.5 214.77,-130 204.77,-126.5 204.77,-133.5"/>
</g>
<!-- Node11 -->
<g id="node11" class="node">
<title>Node11</title>
<g id="a_node11"><a xlink:href="class_round_manager.html#a29177f2e27c6c4af55dfa3c48d67cfb0" target="_top" xlink:title="Ending the turn. Returns the next player">
<polygon fill="white" stroke="black" points="958.5,-59.5 958.5,-80.5 1101.5,-80.5 1101.5,-59.5 958.5,-59.5"/>
<text text-anchor="middle" x="1030" y="-66.9" font-family="Helvetica,sans-Serif" font-size="12.00">RoundManager.EndTurn</text>
</a>
</g>
</g>
<!-- Node10&#45;&gt;Node11 -->
<g id="edge10" class="edge">
<title>Node10&#45;&gt;Node11</title>
<path fill="none" stroke="midnightblue" d="M1171.83,-58.03C1148.79,-59.99 1123.97,-62.1 1101.68,-63.99"/>
<polygon fill="midnightblue" stroke="midnightblue" points="1172.27,-61.5 1181.94,-57.17 1171.68,-54.53 1172.27,-61.5"/>
</g>
<!-- Node15 -->
<g id="node15" class="node">
<title>Node15</title>
<g id="a_node15"><a xlink:href="class_game_manager_script.html#a12cbaf1ff00804887619c07c7267cf31" target="_top" xlink:title="starting and initialing the game and it&#39;s components">
<polygon fill="white" stroke="black" points="937,-19.5 937,-40.5 1123,-40.5 1123,-19.5 937,-19.5"/>
<text text-anchor="middle" x="1030" y="-26.9" font-family="Helvetica,sans-Serif" font-size="12.00">GameManagerScript.StartGame</text>
</a>
</g>
</g>
<!-- Node10&#45;&gt;Node15 -->
<g id="edge15" class="edge">
<title>Node10&#45;&gt;Node15</title>
<path fill="none" stroke="midnightblue" d="M1171.69,-43.22C1155.89,-41.73 1139.26,-40.17 1123.19,-38.66"/>
<polygon fill="midnightblue" stroke="midnightblue" points="1171.65,-46.73 1181.94,-44.18 1172.31,-39.76 1171.65,-46.73"/>
</g>
<!-- Node12 -->
<g id="node12" class="node">
<title>Node12</title>
<g id="a_node12"><a xlink:href="class_user_controller.html#ab90611f541e20c125133d09b62407f41" target="_top" xlink:title="Ends turn">
<polygon fill="white" stroke="black" points="717,-59.5 717,-80.5 855,-80.5 855,-59.5 717,-59.5"/>
<text text-anchor="middle" x="786" y="-66.9" font-family="Helvetica,sans-Serif" font-size="12.00">UserController.EndTurn</text>
</a>
</g>
</g>
<!-- Node11&#45;&gt;Node12 -->
<g id="edge11" class="edge">
<title>Node11&#45;&gt;Node12</title>
<path fill="none" stroke="midnightblue" d="M948.28,-70C918.11,-70 884.17,-70 855.23,-70"/>
<polygon fill="midnightblue" stroke="midnightblue" points="948.35,-73.5 958.35,-70 948.35,-66.5 948.35,-73.5"/>
</g>
<!-- Node13 -->
<g id="node13" class="node">
<title>Node13</title>
<g id="a_node13"><a xlink:href="class_a_i_controller_script.html#a9c386cf1258ad897c9a1068804f07ba0" target="_top" xlink:title="have AI to end turn">
<polygon fill="white" stroke="black" points="452.5,-99.5 452.5,-120.5 607.5,-120.5 607.5,-99.5 452.5,-99.5"/>
<text text-anchor="middle" x="530" y="-106.9" font-family="Helvetica,sans-Serif" font-size="12.00">AIControllerScript.EndTurn</text>
</a>
</g>
</g>
<!-- Node12&#45;&gt;Node13 -->
<g id="edge12" class="edge">
<title>Node12&#45;&gt;Node13</title>
<path fill="none" stroke="midnightblue" d="M708.04,-82.12C672.86,-87.66 631.58,-94.16 597.73,-99.49"/>
<polygon fill="midnightblue" stroke="midnightblue" points="708.93,-85.52 718.26,-80.51 707.84,-78.61 708.93,-85.52"/>
</g>
<!-- Node14 -->
<g id="node14" class="node">
<title>Node14</title>
<g id="a_node14"><a xlink:href="class_u_i_handler.html#acc06a1dab8566d9e14f7ab3ae1ffea93" target="_top" xlink:title="Ends current player&#39;s turn">
<polygon fill="white" stroke="black" points="473,-59.5 473,-80.5 587,-80.5 587,-59.5 473,-59.5"/>
<text text-anchor="middle" x="530" y="-66.9" font-family="Helvetica,sans-Serif" font-size="12.00">UIHandler.EndTurn</text>
</a>
</g>
</g>
<!-- Node12&#45;&gt;Node14 -->
<g id="edge14" class="edge">
<title>Node12&#45;&gt;Node14</title>
<path fill="none" stroke="midnightblue" d="M706.76,-70C668.12,-70 622.37,-70 587.24,-70"/>
<polygon fill="midnightblue" stroke="midnightblue" points="706.93,-73.5 716.93,-70 706.93,-66.5 706.93,-73.5"/>
</g>
<!-- Node13&#45;&gt;Node6 -->
<g id="edge13" class="edge">
<title>Node13&#45;&gt;Node6</title>
<path fill="none" stroke="midnightblue" d="M442.34,-117.67C424.9,-119.21 406.58,-120.83 389.16,-122.38"/>
<polygon fill="midnightblue" stroke="midnightblue" points="442.83,-121.14 452.49,-116.77 442.22,-114.17 442.83,-121.14"/>
</g>
<!-- Node16 -->
<g id="node16" class="node">
<title>Node16</title>
<g id="a_node16"><a xlink:href="class_suggestion_test.html#a904e4481863c3e620574eba37c993a26" target="_top" xlink:title=" ">
<polygon fill="white" stroke="black" points="723,-19.5 723,-40.5 849,-40.5 849,-19.5 723,-19.5"/>
<text text-anchor="middle" x="786" y="-26.9" font-family="Helvetica,sans-Serif" font-size="12.00">SuggestionTest.Start</text>
</a>
</g>
</g>
<!-- Node15&#45;&gt;Node16 -->
<g id="edge16" class="edge">
<title>Node15&#45;&gt;Node16</title>
<path fill="none" stroke="midnightblue" d="M926.8,-30C900.46,-30 872.91,-30 849.3,-30"/>
<polygon fill="midnightblue" stroke="midnightblue" points="926.82,-33.5 936.82,-30 926.82,-26.5 926.82,-33.5"/>
</g>
</g>
</svg>
