<?xml version="1.0" encoding="UTF-8" standalone="no"?>
<!DOCTYPE svg PUBLIC "-//W3C//DTD SVG 1.1//EN"
 "http://www.w3.org/Graphics/SVG/1.1/DTD/svg11.dtd">
<!-- Generated by graphviz version 2.47.1 (20210417.1919)
 -->
<!-- Title: CameraCloseUp.GetCameraPosition Pages: 1 -->
<svg width="502pt" height="70pt"
 viewBox="0.00 0.00 502.00 70.00" xmlns="http://www.w3.org/2000/svg" xmlns:xlink="http://www.w3.org/1999/xlink">
<g id="graph0" class="graph" transform="scale(1 1) rotate(0) translate(4 66)">
<title>CameraCloseUp.GetCameraPosition</title>
<polygon fill="white" stroke="transparent" points="-4,4 -4,-66 498,-66 498,4 -4,4"/>
<!-- Node1 -->
<g id="node1" class="node">
<title>Node1</title>
<g id="a_node1"><a xlink:title="Get the camera location target from point">
<polygon fill="#bfbfbf" stroke="black" points="0,-20.5 0,-41.5 212,-41.5 212,-20.5 0,-20.5"/>
<text text-anchor="middle" x="106" y="-27.9" font-family="Helvetica,sans-Serif" font-size="12.00">CameraCloseUp.GetCameraPosition</text>
</a>
</g>
</g>
<!-- Node2 -->
<g id="node2" class="node">
<title>Node2</title>
<g id="a_node2"><a xlink:href="class_close_up_point_script.html#ad04e4644ab071f53a3ddcd5942a748b4" target="_top" xlink:title="Get the camera position (transform position)">
<polygon fill="white" stroke="black" points="257.5,-40.5 257.5,-61.5 484.5,-61.5 484.5,-40.5 257.5,-40.5"/>
<text text-anchor="middle" x="371" y="-47.9" font-family="Helvetica,sans-Serif" font-size="12.00">CloseUpPointScript.GetCameraPosition</text>
</a>
</g>
</g>
<!-- Node1&#45;&gt;Node2 -->
<g id="edge1" class="edge">
<title>Node1&#45;&gt;Node2</title>
<path fill="none" stroke="midnightblue" d="M212.08,-38.99C223.59,-39.87 235.38,-40.76 247.08,-41.65"/>
<polygon fill="midnightblue" stroke="midnightblue" points="247.09,-45.16 257.33,-42.43 247.62,-38.18 247.09,-45.16"/>
</g>
<!-- Node3 -->
<g id="node3" class="node">
<title>Node3</title>
<g id="a_node3"><a xlink:href="class_close_up_point_script.html#adadb4a1edcd0b052fb32ef82ece4405e" target="_top" xlink:title="Get the close up point">
<polygon fill="white" stroke="black" points="248,-0.5 248,-21.5 494,-21.5 494,-0.5 248,-0.5"/>
<text text-anchor="middle" x="371" y="-7.9" font-family="Helvetica,sans-Serif" font-size="12.00">CloseUpPointScript.GetCloseUpPointName</text>
</a>
</g>
</g>
<!-- Node1&#45;&gt;Node3 -->
<g id="edge2" class="edge">
<title>Node1&#45;&gt;Node3</title>
<path fill="none" stroke="midnightblue" d="M212.08,-23.01C220.51,-22.37 229.09,-21.72 237.68,-21.06"/>
<polygon fill="midnightblue" stroke="midnightblue" points="238.05,-24.54 247.76,-20.3 237.52,-17.56 238.05,-24.54"/>
</g>
</g>
</svg>
