<?xml version="1.0" encoding="UTF-8" standalone="no"?>
<!DOCTYPE svg PUBLIC "-//W3C//DTD SVG 1.1//EN"
 "http://www.w3.org/Graphics/SVG/1.1/DTD/svg11.dtd">
<!-- Generated by graphviz version 2.47.1 (20210417.1919)
 -->
<!-- Title: CardManager Pages: 1 -->
<svg width="151pt" height="354pt"
 viewBox="0.00 0.00 151.00 354.00" xmlns="http://www.w3.org/2000/svg" xmlns:xlink="http://www.w3.org/1999/xlink">
<g id="graph0" class="graph" transform="scale(1 1) rotate(0) translate(4 350)">
<title>CardManager</title>
<polygon fill="white" stroke="transparent" points="-4,4 -4,-350 147,-350 147,4 -4,4"/>
<!-- Node1 -->
<g id="node1" class="node">
<title>Node1</title>
<g id="a_node1"><a xlink:title=" ">
<polygon fill="#bfbfbf" stroke="black" points="0,-0.5 0,-245.5 143,-245.5 143,-0.5 0,-0.5"/>
<text text-anchor="middle" x="71.5" y="-231.9" font-family="Helvetica,sans-Serif" font-size="12.00">CardManager</text>
<polyline fill="none" stroke="black" points="0,-224.5 143,-224.5 "/>
<text text-anchor="start" x="8" y="-210.9" font-family="Helvetica,sans-Serif" font-size="12.00">+ answers</text>
<text text-anchor="start" x="8" y="-197.9" font-family="Helvetica,sans-Serif" font-size="12.00">+ playableCards</text>
<text text-anchor="start" x="8" y="-184.9" font-family="Helvetica,sans-Serif" font-size="12.00">+ setOfcards</text>
<text text-anchor="start" x="8" y="-171.9" font-family="Helvetica,sans-Serif" font-size="12.00">+ test</text>
<text text-anchor="start" x="8" y="-158.9" font-family="Helvetica,sans-Serif" font-size="12.00">+ p</text>
<text text-anchor="start" x="8" y="-145.9" font-family="Helvetica,sans-Serif" font-size="12.00">&#45; weapons</text>
<text text-anchor="start" x="8" y="-132.9" font-family="Helvetica,sans-Serif" font-size="12.00">&#45; rooms</text>
<text text-anchor="start" x="8" y="-119.9" font-family="Helvetica,sans-Serif" font-size="12.00">&#45; characters</text>
<polyline fill="none" stroke="black" points="0,-112.5 143,-112.5 "/>
<text text-anchor="start" x="8" y="-98.9" font-family="Helvetica,sans-Serif" font-size="12.00">+ Initialise()</text>
<text text-anchor="start" x="8" y="-85.9" font-family="Helvetica,sans-Serif" font-size="12.00">+ GetAnswers()</text>
<text text-anchor="start" x="8" y="-72.9" font-family="Helvetica,sans-Serif" font-size="12.00">+ IsMatchAnswer()</text>
<text text-anchor="start" x="8" y="-59.9" font-family="Helvetica,sans-Serif" font-size="12.00">+ DealCardsToPlayers()</text>
<text text-anchor="start" x="8" y="-46.9" font-family="Helvetica,sans-Serif" font-size="12.00">+ FindCard()</text>
<text text-anchor="start" x="8" y="-33.9" font-family="Helvetica,sans-Serif" font-size="12.00">+ FindCard()</text>
<text text-anchor="start" x="8" y="-20.9" font-family="Helvetica,sans-Serif" font-size="12.00">+ FindCard()</text>
<text text-anchor="start" x="8" y="-7.9" font-family="Helvetica,sans-Serif" font-size="12.00">+ GetAllCards()</text>
</a>
</g>
</g>
<!-- Node2 -->
<g id="node2" class="node">
<title>Node2</title>
<g id="a_node2"><a xlink:title=" ">
<polygon fill="white" stroke="#bfbfbf" points="22.5,-282.5 22.5,-345.5 120.5,-345.5 120.5,-282.5 22.5,-282.5"/>
<text text-anchor="middle" x="71.5" y="-331.9" font-family="Helvetica,sans-Serif" font-size="12.00">MonoBehaviour</text>
<polyline fill="none" stroke="#bfbfbf" points="22.5,-324.5 120.5,-324.5 "/>
<text text-anchor="middle" x="71.5" y="-310.9" font-family="Helvetica,sans-Serif" font-size="12.00"> </text>
<polyline fill="none" stroke="#bfbfbf" points="22.5,-303.5 120.5,-303.5 "/>
<text text-anchor="middle" x="71.5" y="-289.9" font-family="Helvetica,sans-Serif" font-size="12.00"> </text>
</a>
</g>
</g>
<!-- Node2&#45;&gt;Node1 -->
<g id="edge1" class="edge">
<title>Node2&#45;&gt;Node1</title>
<path fill="none" stroke="midnightblue" d="M71.5,-272.04C71.5,-263.93 71.5,-255.03 71.5,-245.75"/>
<polygon fill="none" stroke="midnightblue" points="68,-272.21 71.5,-282.21 75,-272.21 68,-272.21"/>
</g>
</g>
</svg>
