<?xml version="1.0" encoding="UTF-8" standalone="no"?>
<!DOCTYPE svg PUBLIC "-//W3C//DTD SVG 1.1//EN"
 "http://www.w3.org/Graphics/SVG/1.1/DTD/svg11.dtd">
<!-- Generated by graphviz version 2.47.1 (20210417.1919)
 -->
<!-- Title: Suggestion.Suggest Pages: 1 -->
<svg width="629pt" height="190pt"
 viewBox="0.00 0.00 629.00 190.00" xmlns="http://www.w3.org/2000/svg" xmlns:xlink="http://www.w3.org/1999/xlink">
<g id="graph0" class="graph" transform="scale(1 1) rotate(0) translate(4 186)">
<title>Suggestion.Suggest</title>
<polygon fill="white" stroke="transparent" points="-4,4 -4,-186 625,-186 625,4 -4,4"/>
<!-- Node1 -->
<g id="node1" class="node">
<title>Node1</title>
<g id="a_node1"><a xlink:title=" ">
<polygon fill="#bfbfbf" stroke="black" points="0,-80.5 0,-101.5 122,-101.5 122,-80.5 0,-80.5"/>
<text text-anchor="middle" x="61" y="-87.9" font-family="Helvetica,sans-Serif" font-size="12.00">Suggestion.Suggest</text>
</a>
</g>
</g>
<!-- Node2 -->
<g id="node2" class="node">
<title>Node2</title>
<g id="a_node2"><a xlink:href="class_character_card.html#a700a59f812d71708bb772b7df07f08bc" target="_top" xlink:title="Returns the enum of the card">
<polygon fill="white" stroke="black" points="174,-160.5 174,-181.5 342,-181.5 342,-160.5 174,-160.5"/>
<text text-anchor="middle" x="258" y="-167.9" font-family="Helvetica,sans-Serif" font-size="12.00">CharacterCard.GetCardType</text>
</a>
</g>
</g>
<!-- Node1&#45;&gt;Node2 -->
<g id="edge1" class="edge">
<title>Node1&#45;&gt;Node2</title>
<path fill="none" stroke="midnightblue" d="M75.46,-101.63C93.3,-115.18 126.23,-138.35 158,-151 164.61,-153.63 171.61,-155.93 178.71,-157.94"/>
<polygon fill="midnightblue" stroke="midnightblue" points="177.87,-161.34 188.43,-160.5 179.65,-154.57 177.87,-161.34"/>
</g>
<!-- Node3 -->
<g id="node3" class="node">
<title>Node3</title>
<g id="a_node3"><a xlink:href="class_room_card.html#a7e77f1ec02f147b5a968305a16fe90bc" target="_top" xlink:title="Returns the enum of the card">
<polygon fill="white" stroke="black" points="184,-120.5 184,-141.5 332,-141.5 332,-120.5 184,-120.5"/>
<text text-anchor="middle" x="258" y="-127.9" font-family="Helvetica,sans-Serif" font-size="12.00">RoomCard.GetCardType</text>
</a>
</g>
</g>
<!-- Node1&#45;&gt;Node3 -->
<g id="edge2" class="edge">
<title>Node1&#45;&gt;Node3</title>
<path fill="none" stroke="midnightblue" d="M112.31,-101.54C127.03,-104.61 143.16,-107.95 158,-111 169.81,-113.42 182.42,-115.99 194.54,-118.44"/>
<polygon fill="midnightblue" stroke="midnightblue" points="194.09,-121.92 204.58,-120.47 195.47,-115.06 194.09,-121.92"/>
</g>
<!-- Node4 -->
<g id="node4" class="node">
<title>Node4</title>
<g id="a_node4"><a xlink:href="class_weapon_card.html#af3c92c9857cb9d637f36dcf6cda1282d" target="_top" xlink:title="Returns the enum of the card">
<polygon fill="white" stroke="black" points="177.5,-80.5 177.5,-101.5 338.5,-101.5 338.5,-80.5 177.5,-80.5"/>
<text text-anchor="middle" x="258" y="-87.9" font-family="Helvetica,sans-Serif" font-size="12.00">WeaponCard.GetCardType</text>
</a>
</g>
</g>
<!-- Node1&#45;&gt;Node4 -->
<g id="edge3" class="edge">
<title>Node1&#45;&gt;Node4</title>
<path fill="none" stroke="midnightblue" d="M122.1,-91C136.42,-91 152.01,-91 167.34,-91"/>
<polygon fill="midnightblue" stroke="midnightblue" points="167.36,-94.5 177.36,-91 167.36,-87.5 167.36,-94.5"/>
</g>
<!-- Node5 -->
<g id="node5" class="node">
<title>Node5</title>
<g id="a_node5"><a xlink:href="class_room_script.html#a4a19c52c114612c19ae2580768d94859" target="_top" xlink:title="Move a player to the room">
<polygon fill="white" stroke="black" points="164,-40.5 164,-61.5 352,-61.5 352,-40.5 164,-40.5"/>
<text text-anchor="middle" x="258" y="-47.9" font-family="Helvetica,sans-Serif" font-size="12.00">RoomScript.MovePlayerToRoom</text>
</a>
</g>
</g>
<!-- Node1&#45;&gt;Node5 -->
<g id="edge4" class="edge">
<title>Node1&#45;&gt;Node5</title>
<path fill="none" stroke="midnightblue" d="M112.31,-80.46C127.03,-77.39 143.16,-74.05 158,-71 169.81,-68.58 182.42,-66.01 194.54,-63.56"/>
<polygon fill="midnightblue" stroke="midnightblue" points="195.47,-66.94 204.58,-61.53 194.09,-60.08 195.47,-66.94"/>
</g>
<!-- Node8 -->
<g id="node8" class="node">
<title>Node8</title>
<g id="a_node8"><a xlink:href="class_room_script.html#ae49a5bb396aa0c894fb1686b92f879da" target="_top" xlink:title="Move a weapon to the room">
<polygon fill="white" stroke="black" points="158,-0.5 158,-21.5 358,-21.5 358,-0.5 158,-0.5"/>
<text text-anchor="middle" x="258" y="-7.9" font-family="Helvetica,sans-Serif" font-size="12.00">RoomScript.MoveWeaponToRoom</text>
</a>
</g>
</g>
<!-- Node1&#45;&gt;Node8 -->
<g id="edge7" class="edge">
<title>Node1&#45;&gt;Node8</title>
<path fill="none" stroke="midnightblue" d="M75.46,-80.37C93.3,-66.82 126.23,-43.65 158,-31 164.61,-28.37 171.61,-26.07 178.71,-24.06"/>
<polygon fill="midnightblue" stroke="midnightblue" points="179.65,-27.43 188.43,-21.5 177.87,-20.66 179.65,-27.43"/>
</g>
<!-- Node6 -->
<g id="node6" class="node">
<title>Node6</title>
<g id="a_node6"><a xlink:href="class_player_master_controller.html#a12c91851433777ae557a71d9f9a855f0" target="_top" xlink:title=" ">
<polygon fill="white" stroke="black" points="403,-60.5 403,-81.5 612,-81.5 612,-60.5 403,-60.5"/>
<text text-anchor="middle" x="507.5" y="-67.9" font-family="Helvetica,sans-Serif" font-size="12.00">PlayerMasterController.GetCharacter</text>
</a>
</g>
</g>
<!-- Node5&#45;&gt;Node6 -->
<g id="edge5" class="edge">
<title>Node5&#45;&gt;Node6</title>
<path fill="none" stroke="midnightblue" d="M352.22,-58.53C365.32,-59.59 378.91,-60.69 392.35,-61.78"/>
<polygon fill="midnightblue" stroke="midnightblue" points="392.34,-65.29 402.59,-62.6 392.9,-58.31 392.34,-65.29"/>
</g>
<!-- Node7 -->
<g id="node7" class="node">
<title>Node7</title>
<g id="a_node7"><a xlink:href="class_player_master_controller.html#a0447a8a21b5c0f2c94f9d27e0bcd0830" target="_top" xlink:title=" ">
<polygon fill="white" stroke="black" points="394,-20.5 394,-41.5 621,-41.5 621,-20.5 394,-20.5"/>
<text text-anchor="middle" x="507.5" y="-27.9" font-family="Helvetica,sans-Serif" font-size="12.00">PlayerMasterController.GetCurrentRoom</text>
</a>
</g>
</g>
<!-- Node5&#45;&gt;Node7 -->
<g id="edge6" class="edge">
<title>Node5&#45;&gt;Node7</title>
<path fill="none" stroke="midnightblue" d="M352.22,-43.47C362.5,-42.64 373.08,-41.78 383.65,-40.93"/>
<polygon fill="midnightblue" stroke="midnightblue" points="384.09,-44.4 393.77,-40.11 383.52,-37.43 384.09,-44.4"/>
</g>
</g>
</svg>
