<?xml version="1.0" encoding="UTF-8" standalone="no"?>
<!DOCTYPE svg PUBLIC "-//W3C//DTD SVG 1.1//EN"
 "http://www.w3.org/Graphics/SVG/1.1/DTD/svg11.dtd">
<!-- Generated by graphviz version 2.47.1 (20210417.1919)
 -->
<!-- Title: UIHandler.ConfirmAccusation Pages: 1 -->
<!--zoomable 190 -->
<svg id="main" version="1.1" xmlns="http://www.w3.org/2000/svg" xmlns:xlink="http://www.w3.org/1999/xlink" xml:space="preserve" onload="init(evt)">
<style type="text/css"><![CDATA[
.edge:hover path { stroke: red; }
.edge:hover polygon { stroke: red; fill: red; }
]]></style>
<script type="text/javascript"><![CDATA[
var edges = document.getElementsByTagName('g');
if (edges && edges.length) {
  for (var i=0;i<edges.length;i++) {
    if (edges[i].id.substr(0,4)=='edge') {
      edges[i].setAttribute('class','edge');
    }
  }
}
]]></script>
        <defs>
                <circle id="rim" cx="0" cy="0" r="7"/>
                <circle id="rim2" cx="0" cy="0" r="3.5"/>
                <g id="zoomPlus">
                        <use xlink:href="#rim" fill="#404040">
                                <set attributeName="fill" to="#808080" begin="zoomplus.mouseover" end="zoomplus.mouseout"/>
                        </use>
                        <path d="M-4,0h8M0,-4v8" fill="none" stroke="white" stroke-width="1.5" pointer-events="none"/>
                </g>
                <g id="zoomMin">
                        <use xlink:href="#rim" fill="#404040">
                                <set attributeName="fill" to="#808080" begin="zoomminus.mouseover" end="zoomminus.mouseout"/>
                        </use>
                        <path d="M-4,0h8" fill="none" stroke="white" stroke-width="1.5" pointer-events="none"/>
                </g>
                <g id="dirArrow">
                        <path fill="none" stroke="white" stroke-width="1.5" d="M0,-3.0v7 M-2.5,-0.5L0,-3.0L2.5,-0.5"/>
                </g>
               <g id="resetDef">
                       <use xlink:href="#rim2" fill="#404040">
                               <set attributeName="fill" to="#808080" begin="reset.mouseover" end="reset.mouseout"/>
                       </use>
               </g>
        </defs>

<script type="text/javascript">
var viewWidth = 1094;
var viewHeight = 190;
var sectionId = 'dynsection-2';
</script>
<script xlink:href="svgpan.js"/>
<svg id="graph" class="graph">
<g id="viewport">
<title>UIHandler.ConfirmAccusation</title>
<polygon fill="white" stroke="transparent" points="-4,4 -4,-186 1090,-186 1090,4 -4,4"/>
<!-- Node1 -->
<g id="node1" class="node">
<title>Node1</title>
<g id="a_node1"><a xlink:title="Hides the accusation menu">
<polygon fill="#bfbfbf" stroke="black" points="0,-100.5 0,-121.5 170,-121.5 170,-100.5 0,-100.5"/>
<text text-anchor="middle" x="85" y="-107.9" font-family="Helvetica,sans-Serif" font-size="12.00">UIHandler.ConfirmAccusation</text>
</a>
</g>
</g>
<!-- Node2 -->
<g id="node2" class="node">
<title>Node2</title>
<g id="a_node2"><a xlink:href="class_user_controller.html#aa90e4e2fed6b1d661933450f430b95ba" target="_top" xlink:title="Makes accusation">
<polygon fill="white" stroke="black" points="206,-100.5 206,-121.5 388,-121.5 388,-100.5 206,-100.5"/>
<text text-anchor="middle" x="297" y="-107.9" font-family="Helvetica,sans-Serif" font-size="12.00">UserController.MakeAccusation</text>
</a>
</g>
</g>
<!-- Node1&#45;&gt;Node2 -->
<g id="edge1" class="edge">
<title>Node1&#45;&gt;Node2</title>
<path fill="none" stroke="midnightblue" d="M170.21,-111C178.65,-111 187.29,-111 195.88,-111"/>
<polygon fill="midnightblue" stroke="midnightblue" points="195.93,-114.5 205.93,-111 195.93,-107.5 195.93,-114.5"/>
</g>
<!-- Node3 -->
<g id="node3" class="node">
<title>Node3</title>
<g id="a_node3"><a xlink:href="class_accusation.html#abba1b95fd7e759eac9efbf52819abd75" target="_top" xlink:title="Passes a list of selected cards">
<polygon fill="white" stroke="black" points="459.5,-120.5 459.5,-141.5 575.5,-141.5 575.5,-120.5 459.5,-120.5"/>
<text text-anchor="middle" x="517.5" y="-127.9" font-family="Helvetica,sans-Serif" font-size="12.00">Accusation.Accuse</text>
</a>
</g>
</g>
<!-- Node2&#45;&gt;Node3 -->
<g id="edge2" class="edge">
<title>Node2&#45;&gt;Node3</title>
<path fill="none" stroke="midnightblue" d="M388.13,-119.25C408.56,-121.12 429.91,-123.07 449.2,-124.84"/>
<polygon fill="midnightblue" stroke="midnightblue" points="449.11,-128.35 459.38,-125.77 449.74,-121.37 449.11,-128.35"/>
</g>
<!-- Node4 -->
<g id="node4" class="node">
<title>Node4</title>
<g id="a_node4"><a xlink:href="class_round_manager.html#ab691cd5cd773e23822b237834b1fcb0a" target="_top" xlink:title="to have the current player to make an accusation eliminates the player if it is wrong wins the game i...">
<polygon fill="white" stroke="black" points="424,-80.5 424,-101.5 611,-101.5 611,-80.5 424,-80.5"/>
<text text-anchor="middle" x="517.5" y="-87.9" font-family="Helvetica,sans-Serif" font-size="12.00">RoundManager.MakeAccusation</text>
</a>
</g>
</g>
<!-- Node2&#45;&gt;Node4 -->
<g id="edge3" class="edge">
<title>Node2&#45;&gt;Node4</title>
<path fill="none" stroke="midnightblue" d="M388.13,-102.75C396.58,-101.98 405.19,-101.19 413.74,-100.41"/>
<polygon fill="midnightblue" stroke="midnightblue" points="414.11,-103.89 423.75,-99.49 413.47,-96.92 414.11,-103.89"/>
</g>
<!-- Node5 -->
<g id="node5" class="node">
<title>Node5</title>
<g id="a_node5"><a xlink:href="class_u_i_handler.html#a2db6b92acd51a72b431b3eacb3884ddd" target="_top" xlink:title="Displays a screen when a player is eliminated">
<polygon fill="white" stroke="black" points="658.5,-160.5 658.5,-181.5 856.5,-181.5 856.5,-160.5 658.5,-160.5"/>
<text text-anchor="middle" x="757.5" y="-167.9" font-family="Helvetica,sans-Serif" font-size="12.00">UIHandler.DisplayPlayerEliminated</text>
</a>
</g>
</g>
<!-- Node4&#45;&gt;Node5 -->
<g id="edge4" class="edge">
<title>Node4&#45;&gt;Node5</title>
<path fill="none" stroke="midnightblue" d="M589.91,-101.64C597.29,-104.13 604.46,-107.21 611,-111 631.69,-123 626.12,-139.34 647,-151 650.95,-153.21 655.09,-155.18 659.36,-156.93"/>
<polygon fill="midnightblue" stroke="midnightblue" points="658.29,-160.27 668.88,-160.46 660.72,-153.7 658.29,-160.27"/>
</g>
<!-- Node6 -->
<g id="node6" class="node">
<title>Node6</title>
<g id="a_node6"><a xlink:href="class_player_master_controller.html#a0dae7cbe3c8b1c8bcb5ca694d9815836" target="_top" xlink:title="eliminate player">
<polygon fill="white" stroke="black" points="647,-120.5 647,-141.5 868,-141.5 868,-120.5 647,-120.5"/>
<text text-anchor="middle" x="757.5" y="-127.9" font-family="Helvetica,sans-Serif" font-size="12.00">PlayerMasterController.EliminatePlayer</text>
</a>
</g>
</g>
<!-- Node4&#45;&gt;Node6 -->
<g id="edge5" class="edge">
<title>Node4&#45;&gt;Node6</title>
<path fill="none" stroke="midnightblue" d="M581.03,-101.51C612.61,-106.82 651.09,-113.28 683.97,-118.81"/>
<polygon fill="midnightblue" stroke="midnightblue" points="683.53,-122.29 693.97,-120.49 684.69,-115.38 683.53,-122.29"/>
</g>
<!-- Node7 -->
<g id="node7" class="node">
<title>Node7</title>
<g id="a_node7"><a xlink:href="class_round_manager.html#aab3f49a5e05508a8e023a497e763c1c8" target="_top" xlink:title="Gets the player controller for the current player">
<polygon fill="white" stroke="black" points="662.5,-80.5 662.5,-101.5 852.5,-101.5 852.5,-80.5 662.5,-80.5"/>
<text text-anchor="middle" x="757.5" y="-87.9" font-family="Helvetica,sans-Serif" font-size="12.00">RoundManager.GetCurrentPlayer</text>
</a>
</g>
</g>
<!-- Node4&#45;&gt;Node7 -->
<g id="edge6" class="edge">
<title>Node4&#45;&gt;Node7</title>
<path fill="none" stroke="midnightblue" d="M611.2,-91C624.62,-91 638.5,-91 652.13,-91"/>
<polygon fill="midnightblue" stroke="midnightblue" points="652.49,-94.5 662.49,-91 652.49,-87.5 652.49,-94.5"/>
</g>
<!-- Node9 -->
<g id="node9" class="node">
<title>Node9</title>
<g id="a_node9"><a xlink:href="class_enum_to_string.html#a078a1fb16a0030544fac1b96a90b6b83" target="_top" xlink:title="Get a string value from a valid enum">
<polygon fill="white" stroke="black" points="657,-40.5 657,-61.5 858,-61.5 858,-40.5 657,-40.5"/>
<text text-anchor="middle" x="757.5" y="-47.9" font-family="Helvetica,sans-Serif" font-size="12.00">EnumToString.GetStringFromEnum</text>
</a>
</g>
</g>
<!-- Node4&#45;&gt;Node9 -->
<g id="edge8" class="edge">
<title>Node4&#45;&gt;Node9</title>
<path fill="none" stroke="midnightblue" d="M581.03,-80.49C612.61,-75.18 651.09,-68.72 683.97,-63.19"/>
<polygon fill="midnightblue" stroke="midnightblue" points="684.69,-66.62 693.97,-61.51 683.53,-59.71 684.69,-66.62"/>
</g>
<!-- Node10 -->
<g id="node10" class="node">
<title>Node10</title>
<g id="a_node10"><a xlink:href="class_card_manager.html#a3aa02d8bc476530b2e8e18019aa8a00e" target="_top" xlink:title="Check if the cards passed matches the answer">
<polygon fill="white" stroke="black" points="672,-0.5 672,-21.5 843,-21.5 843,-0.5 672,-0.5"/>
<text text-anchor="middle" x="757.5" y="-7.9" font-family="Helvetica,sans-Serif" font-size="12.00">CardManager.IsMatchAnswer</text>
</a>
</g>
</g>
<!-- Node4&#45;&gt;Node10 -->
<g id="edge9" class="edge">
<title>Node4&#45;&gt;Node10</title>
<path fill="none" stroke="midnightblue" d="M537.04,-80.48C561.49,-67.06 606.18,-44.02 647,-31 655.65,-28.24 664.82,-25.82 674.02,-23.71"/>
<polygon fill="midnightblue" stroke="midnightblue" points="674.97,-27.08 683.99,-21.53 673.48,-20.24 674.97,-27.08"/>
</g>
<!-- Node8 -->
<g id="node8" class="node">
<title>Node8</title>
<g id="a_node8"><a xlink:href="class_turn_controller.html#af16e42b7e61c5a999291327e2e556caa" target="_top" xlink:title=" ">
<polygon fill="white" stroke="black" points="904,-80.5 904,-101.5 1086,-101.5 1086,-80.5 904,-80.5"/>
<text text-anchor="middle" x="995" y="-87.9" font-family="Helvetica,sans-Serif" font-size="12.00">TurnController.GetCurrentPlayer</text>
</a>
</g>
</g>
<!-- Node7&#45;&gt;Node8 -->
<g id="edge7" class="edge">
<title>Node7&#45;&gt;Node8</title>
<path fill="none" stroke="midnightblue" d="M852.59,-91C866.07,-91 879.97,-91 893.57,-91"/>
<polygon fill="midnightblue" stroke="midnightblue" points="893.89,-94.5 903.89,-91 893.89,-87.5 893.89,-94.5"/>
</g>
<!-- Node11 -->
<g id="node11" class="node">
<title>Node11</title>
<g id="a_node11"><a xlink:href="class_card.html#a094a5e7ea98cc156ac64e578a987be85" target="_top" xlink:title=" ">
<polygon fill="white" stroke="black" points="937,-0.5 937,-21.5 1053,-21.5 1053,-0.5 937,-0.5"/>
<text text-anchor="middle" x="995" y="-7.9" font-family="Helvetica,sans-Serif" font-size="12.00">Card.GetCardType</text>
</a>
</g>
</g>
<!-- Node10&#45;&gt;Node11 -->
<g id="edge10" class="edge">
<title>Node10&#45;&gt;Node11</title>
<path fill="none" stroke="midnightblue" d="M843.19,-11C870.66,-11 900.75,-11 926.77,-11"/>
<polygon fill="midnightblue" stroke="midnightblue" points="926.91,-14.5 936.91,-11 926.91,-7.5 926.91,-14.5"/>
</g>
</g>
</svg>
        <g id="navigator" transform="translate(0 0)" fill="#404254">
                <rect fill="#f2f5e9" fill-opacity="0.5" stroke="#606060" stroke-width=".5" x="0" y="0" width="60" height="60"/>
                <use id="zoomplus" xlink:href="#zoomPlus" x="17" y="9" onmousedown="handleZoom(evt,'in')"/>
                <use id="zoomminus" xlink:href="#zoomMin" x="42" y="9" onmousedown="handleZoom(evt,'out')"/>
                <use id="reset" xlink:href="#resetDef" x="30" y="36" onmousedown="handleReset()"/>
                <g id="arrowUp" xlink:href="#dirArrow" transform="translate(30 24)" onmousedown="handlePan(0,-1)">
                  <use xlink:href="#rim" fill="#404040">
                        <set attributeName="fill" to="#808080" begin="arrowUp.mouseover" end="arrowUp.mouseout"/>
                  </use>
                  <path fill="none" stroke="white" stroke-width="1.5" d="M0,-3.0v7 M-2.5,-0.5L0,-3.0L2.5,-0.5"/>
                </g>
                <g id="arrowRight" xlink:href="#dirArrow" transform="rotate(90) translate(36 -43)" onmousedown="handlePan(1,0)">
                  <use xlink:href="#rim" fill="#404040">
                        <set attributeName="fill" to="#808080" begin="arrowRight.mouseover" end="arrowRight.mouseout"/>
                  </use>
                  <path fill="none" stroke="white" stroke-width="1.5" d="M0,-3.0v7 M-2.5,-0.5L0,-3.0L2.5,-0.5"/>
                </g>
                <g id="arrowDown" xlink:href="#dirArrow" transform="rotate(180) translate(-30 -48)" onmousedown="handlePan(0,1)">
                  <use xlink:href="#rim" fill="#404040">
                        <set attributeName="fill" to="#808080" begin="arrowDown.mouseover" end="arrowDown.mouseout"/>
                  </use>
                  <path fill="none" stroke="white" stroke-width="1.5" d="M0,-3.0v7 M-2.5,-0.5L0,-3.0L2.5,-0.5"/>
                </g>
                <g id="arrowLeft" xlink:href="#dirArrow" transform="rotate(270) translate(-36 17)" onmousedown="handlePan(-1,0)">
                  <use xlink:href="#rim" fill="#404040">
                        <set attributeName="fill" to="#808080" begin="arrowLeft.mouseover" end="arrowLeft.mouseout"/>
                  </use>
                  <path fill="none" stroke="white" stroke-width="1.5" d="M0,-3.0v7 M-2.5,-0.5L0,-3.0L2.5,-0.5"/>
                </g>
        </g>
        <svg viewBox="0 0 15 15" width="100%" height="30px" preserveAspectRatio="xMaxYMin meet">
         <g id="arrow_out" transform="scale(0.3 0.3)">
          <a xlink:href="class_u_i_handler_adc2ae7669cebeb4d9109002f0d3e8c7a_cgraph_org.svg" target="_base">
           <rect id="button" ry="5" rx="5" y="6" x="6" height="38" width="38"
                fill="#f2f5e9" fill-opacity="0.5" stroke="#606060" stroke-width="1.0"/>
           <path id="arrow"
             d="M 11.500037,31.436501 C 11.940474,20.09759 22.043105,11.32322 32.158766,21.979434 L 37.068811,17.246167 C 37.068811,17.246167 37.088388,32 37.088388,32 L 22.160133,31.978069 C 22.160133,31.978069 26.997745,27.140456 26.997745,27.140456 C 18.528582,18.264221 13.291696,25.230495 11.500037,31.436501 z"
             style="fill:#404040;"/>
          </a>
         </g>
        </svg>
</svg>
