<?xml version="1.0" encoding="UTF-8" standalone="no"?>
<!DOCTYPE svg PUBLIC "-//W3C//DTD SVG 1.1//EN"
 "http://www.w3.org/Graphics/SVG/1.1/DTD/svg11.dtd">
<!-- Generated by graphviz version 2.47.1 (20210417.1919)
 -->
<!-- Title: NotebookScript.CreateWeaponButtons Pages: 1 -->
<svg width="682pt" height="30pt"
 viewBox="0.00 0.00 682.00 30.00" xmlns="http://www.w3.org/2000/svg" xmlns:xlink="http://www.w3.org/1999/xlink">
<g id="graph0" class="graph" transform="scale(1 1) rotate(0) translate(4 26)">
<title>NotebookScript.CreateWeaponButtons</title>
<polygon fill="white" stroke="transparent" points="-4,4 -4,-26 678,-26 678,4 -4,4"/>
<!-- Node1 -->
<g id="node1" class="node">
<title>Node1</title>
<g id="a_node1"><a xlink:title="Create the Weapon buttons">
<polygon fill="#bfbfbf" stroke="black" points="0,-0.5 0,-21.5 221,-21.5 221,-0.5 0,-0.5"/>
<text text-anchor="middle" x="110.5" y="-7.9" font-family="Helvetica,sans-Serif" font-size="12.00">NotebookScript.CreateWeaponButtons</text>
</a>
</g>
</g>
<!-- Node2 -->
<g id="node2" class="node">
<title>Node2</title>
<g id="a_node2"><a xlink:href="class_notebook_button.html#a1767bf6c449e0517fa11a1ced89f6d0d" target="_top" xlink:title="Set the button type">
<polygon fill="white" stroke="black" points="257,-0.5 257,-21.5 437,-21.5 437,-0.5 257,-0.5"/>
<text text-anchor="middle" x="347" y="-7.9" font-family="Helvetica,sans-Serif" font-size="12.00">NotebookButton.SetButtonType</text>
</a>
</g>
</g>
<!-- Node1&#45;&gt;Node2 -->
<g id="edge1" class="edge">
<title>Node1&#45;&gt;Node2</title>
<path fill="none" stroke="midnightblue" d="M221.2,-11C229.67,-11 238.2,-11 246.6,-11"/>
<polygon fill="midnightblue" stroke="midnightblue" points="246.78,-14.5 256.78,-11 246.78,-7.5 246.78,-14.5"/>
</g>
<!-- Node3 -->
<g id="node3" class="node">
<title>Node3</title>
<g id="a_node3"><a xlink:href="class_enum_to_string.html#a078a1fb16a0030544fac1b96a90b6b83" target="_top" xlink:title="Get a string value from a valid enum">
<polygon fill="white" stroke="black" points="473,-0.5 473,-21.5 674,-21.5 674,-0.5 473,-0.5"/>
<text text-anchor="middle" x="573.5" y="-7.9" font-family="Helvetica,sans-Serif" font-size="12.00">EnumToString.GetStringFromEnum</text>
</a>
</g>
</g>
<!-- Node2&#45;&gt;Node3 -->
<g id="edge2" class="edge">
<title>Node2&#45;&gt;Node3</title>
<path fill="none" stroke="midnightblue" d="M437.05,-11C445.5,-11 454.13,-11 462.74,-11"/>
<polygon fill="midnightblue" stroke="midnightblue" points="462.83,-14.5 472.83,-11 462.83,-7.5 462.83,-14.5"/>
</g>
</g>
</svg>
