<?xml version="1.0" encoding="UTF-8" standalone="no"?>
<!DOCTYPE svg PUBLIC "-//W3C//DTD SVG 1.1//EN"
 "http://www.w3.org/Graphics/SVG/1.1/DTD/svg11.dtd">
<!-- Generated by graphviz version 2.47.1 (20210417.1919)
 -->
<!-- Title: RoomWeaponSlot Pages: 1 -->
<svg width="178pt" height="211pt"
 viewBox="0.00 0.00 178.00 211.00" xmlns="http://www.w3.org/2000/svg" xmlns:xlink="http://www.w3.org/1999/xlink">
<g id="graph0" class="graph" transform="scale(1 1) rotate(0) translate(4 207)">
<title>RoomWeaponSlot</title>
<polygon fill="white" stroke="transparent" points="-4,4 -4,-207 174,-207 174,4 -4,4"/>
<!-- Node1 -->
<g id="node1" class="node">
<title>Node1</title>
<g id="a_node1"><a xlink:title="Script for the Room Weapon slot GameObject">
<polygon fill="#bfbfbf" stroke="black" points="0,-0.5 0,-102.5 170,-102.5 170,-0.5 0,-0.5"/>
<text text-anchor="middle" x="85" y="-88.9" font-family="Helvetica,sans-Serif" font-size="12.00">RoomWeaponSlot</text>
<polyline fill="none" stroke="black" points="0,-81.5 170,-81.5 "/>
<text text-anchor="start" x="8" y="-67.9" font-family="Helvetica,sans-Serif" font-size="12.00">&#45; weaponInSlot</text>
<polyline fill="none" stroke="black" points="0,-60.5 170,-60.5 "/>
<text text-anchor="start" x="8" y="-46.9" font-family="Helvetica,sans-Serif" font-size="12.00">+ AddWeaponToSlot()</text>
<text text-anchor="start" x="8" y="-33.9" font-family="Helvetica,sans-Serif" font-size="12.00">+ RemoveWeaponFromSlot()</text>
<text text-anchor="start" x="8" y="-20.9" font-family="Helvetica,sans-Serif" font-size="12.00">+ SlotOccupied()</text>
<text text-anchor="start" x="8" y="-7.9" font-family="Helvetica,sans-Serif" font-size="12.00">+ GetWeaponInSlot()</text>
</a>
</g>
</g>
<!-- Node2 -->
<g id="node2" class="node">
<title>Node2</title>
<g id="a_node2"><a xlink:title=" ">
<polygon fill="white" stroke="#bfbfbf" points="36,-139.5 36,-202.5 134,-202.5 134,-139.5 36,-139.5"/>
<text text-anchor="middle" x="85" y="-188.9" font-family="Helvetica,sans-Serif" font-size="12.00">MonoBehaviour</text>
<polyline fill="none" stroke="#bfbfbf" points="36,-181.5 134,-181.5 "/>
<text text-anchor="middle" x="85" y="-167.9" font-family="Helvetica,sans-Serif" font-size="12.00"> </text>
<polyline fill="none" stroke="#bfbfbf" points="36,-160.5 134,-160.5 "/>
<text text-anchor="middle" x="85" y="-146.9" font-family="Helvetica,sans-Serif" font-size="12.00"> </text>
</a>
</g>
</g>
<!-- Node2&#45;&gt;Node1 -->
<g id="edge1" class="edge">
<title>Node2&#45;&gt;Node1</title>
<path fill="none" stroke="midnightblue" d="M85,-129.37C85,-120.85 85,-111.77 85,-102.94"/>
<polygon fill="none" stroke="midnightblue" points="81.5,-129.43 85,-139.43 88.5,-129.44 81.5,-129.43"/>
</g>
</g>
</svg>
