<?xml version="1.0" encoding="UTF-8" standalone="no"?>
<!DOCTYPE svg PUBLIC "-//W3C//DTD SVG 1.1//EN"
 "http://www.w3.org/Graphics/SVG/1.1/DTD/svg11.dtd">
<!-- Generated by graphviz version 2.47.1 (20210417.1919)
 -->
<!-- Title: RoundManager.DelayResetDice Pages: 1 -->
<svg width="795pt" height="110pt"
 viewBox="0.00 0.00 795.00 110.00" xmlns="http://www.w3.org/2000/svg" xmlns:xlink="http://www.w3.org/1999/xlink">
<g id="graph0" class="graph" transform="scale(1 1) rotate(0) translate(4 106)">
<title>RoundManager.DelayResetDice</title>
<polygon fill="white" stroke="transparent" points="-4,4 -4,-106 791,-106 791,4 -4,4"/>
<!-- Node1 -->
<g id="node1" class="node">
<title>Node1</title>
<g id="a_node1"><a xlink:title="reset the dice after a time delay">
<polygon fill="#bfbfbf" stroke="black" points="0,-40.5 0,-61.5 185,-61.5 185,-40.5 0,-40.5"/>
<text text-anchor="middle" x="92.5" y="-47.9" font-family="Helvetica,sans-Serif" font-size="12.00">RoundManager.DelayResetDice</text>
</a>
</g>
</g>
<!-- Node2 -->
<g id="node2" class="node">
<title>Node2</title>
<g id="a_node2"><a xlink:href="class_dice.html#ade1dc529eeb31f31e668c595c5748e67" target="_top" xlink:title="Reset the dice">
<polygon fill="white" stroke="black" points="221,-40.5 221,-61.5 321,-61.5 321,-40.5 221,-40.5"/>
<text text-anchor="middle" x="271" y="-47.9" font-family="Helvetica,sans-Serif" font-size="12.00">Dice.ResetDice</text>
</a>
</g>
</g>
<!-- Node1&#45;&gt;Node2 -->
<g id="edge1" class="edge">
<title>Node1&#45;&gt;Node2</title>
<path fill="none" stroke="midnightblue" d="M185.11,-51C193.73,-51 202.3,-51 210.5,-51"/>
<polygon fill="midnightblue" stroke="midnightblue" points="210.67,-54.5 220.67,-51 210.67,-47.5 210.67,-54.5"/>
</g>
<!-- Node3 -->
<g id="node3" class="node">
<title>Node3</title>
<g id="a_node3"><a xlink:href="class_dice.html#ace4c995eb73b784d1076fde140ce85af" target="_top" xlink:title="Can Dice be reset">
<polygon fill="white" stroke="black" points="399.5,-80.5 399.5,-101.5 496.5,-101.5 496.5,-80.5 399.5,-80.5"/>
<text text-anchor="middle" x="448" y="-87.9" font-family="Helvetica,sans-Serif" font-size="12.00">Dice.CanReset</text>
</a>
</g>
</g>
<!-- Node2&#45;&gt;Node3 -->
<g id="edge2" class="edge">
<title>Node2&#45;&gt;Node3</title>
<path fill="none" stroke="midnightblue" d="M316.53,-61.59C329.57,-64.66 343.85,-67.99 357,-71 367.51,-73.4 378.73,-75.93 389.54,-78.34"/>
<polygon fill="midnightblue" stroke="midnightblue" points="388.81,-81.77 399.33,-80.52 390.33,-74.93 388.81,-81.77"/>
</g>
<!-- Node5 -->
<g id="node5" class="node">
<title>Node5</title>
<g id="a_node5"><a xlink:href="class_camera_close_up.html#ad31062bdf359a453fc85ebdd71fa1bae" target="_top" xlink:title="Clear camera close up">
<polygon fill="white" stroke="black" points="357,-40.5 357,-61.5 539,-61.5 539,-40.5 357,-40.5"/>
<text text-anchor="middle" x="448" y="-47.9" font-family="Helvetica,sans-Serif" font-size="12.00">CameraCloseUp.ClearCloseUp</text>
</a>
</g>
</g>
<!-- Node2&#45;&gt;Node5 -->
<g id="edge4" class="edge">
<title>Node2&#45;&gt;Node5</title>
<path fill="none" stroke="midnightblue" d="M321.21,-51C329.21,-51 337.73,-51 346.43,-51"/>
<polygon fill="midnightblue" stroke="midnightblue" points="346.7,-54.5 356.7,-51 346.7,-47.5 346.7,-54.5"/>
</g>
<!-- Node7 -->
<g id="node7" class="node">
<title>Node7</title>
<g id="a_node7"><a xlink:href="class_die.html#abc11c3d2bf0c0fba1555093eb5a8469e" target="_top" xlink:title="Reset Die to original position">
<polygon fill="white" stroke="black" points="404,-0.5 404,-21.5 492,-21.5 492,-0.5 404,-0.5"/>
<text text-anchor="middle" x="448" y="-7.9" font-family="Helvetica,sans-Serif" font-size="12.00">Die.ResetDie</text>
</a>
</g>
</g>
<!-- Node2&#45;&gt;Node7 -->
<g id="edge6" class="edge">
<title>Node2&#45;&gt;Node7</title>
<path fill="none" stroke="midnightblue" d="M316.53,-40.41C329.57,-37.34 343.85,-34.01 357,-31 368.95,-28.27 381.8,-25.38 393.94,-22.68"/>
<polygon fill="midnightblue" stroke="midnightblue" points="394.94,-26.04 403.94,-20.45 393.42,-19.21 394.94,-26.04"/>
</g>
<!-- Node4 -->
<g id="node4" class="node">
<title>Node4</title>
<g id="a_node4"><a xlink:href="class_die.html#a390d46459637fd249926cda472255d84" target="_top" xlink:title="Can the die be reset">
<polygon fill="white" stroke="black" points="626,-80.5 626,-101.5 736,-101.5 736,-80.5 626,-80.5"/>
<text text-anchor="middle" x="681" y="-87.9" font-family="Helvetica,sans-Serif" font-size="12.00">Die.CanResetDie</text>
</a>
</g>
</g>
<!-- Node3&#45;&gt;Node4 -->
<g id="edge3" class="edge">
<title>Node3&#45;&gt;Node4</title>
<path fill="none" stroke="midnightblue" d="M496.58,-91C530.87,-91 577.54,-91 615.22,-91"/>
<polygon fill="midnightblue" stroke="midnightblue" points="615.59,-94.5 625.59,-91 615.59,-87.5 615.59,-94.5"/>
</g>
<!-- Node6 -->
<g id="node6" class="node">
<title>Node6</title>
<g id="a_node6"><a xlink:href="class_camera_close_up.html#ae902d2ccdf969212e0cb84f638f68851" target="_top" xlink:title="Delay then clear close up">
<polygon fill="white" stroke="black" points="575,-40.5 575,-61.5 787,-61.5 787,-40.5 575,-40.5"/>
<text text-anchor="middle" x="681" y="-47.9" font-family="Helvetica,sans-Serif" font-size="12.00">CameraCloseUp.ClearCloseUpDelay</text>
</a>
</g>
</g>
<!-- Node5&#45;&gt;Node6 -->
<g id="edge5" class="edge">
<title>Node5&#45;&gt;Node6</title>
<path fill="none" stroke="midnightblue" d="M539.3,-51C547.67,-51 556.22,-51 564.77,-51"/>
<polygon fill="midnightblue" stroke="midnightblue" points="564.8,-54.5 574.8,-51 564.8,-47.5 564.8,-54.5"/>
</g>
</g>
</svg>
