<?xml version="1.0" encoding="UTF-8" standalone="no"?>
<!DOCTYPE svg PUBLIC "-//W3C//DTD SVG 1.1//EN"
 "http://www.w3.org/Graphics/SVG/1.1/DTD/svg11.dtd">
<!-- Generated by graphviz version 2.47.1 (20210417.1919)
 -->
<!-- Title: BoardTileEffectHandlerScript Pages: 1 -->
<svg width="177pt" height="250pt"
 viewBox="0.00 0.00 177.00 250.00" xmlns="http://www.w3.org/2000/svg" xmlns:xlink="http://www.w3.org/1999/xlink">
<g id="graph0" class="graph" transform="scale(1 1) rotate(0) translate(4 246)">
<title>BoardTileEffectHandlerScript</title>
<polygon fill="white" stroke="transparent" points="-4,4 -4,-246 173,-246 173,4 -4,4"/>
<!-- Node1 -->
<g id="node1" class="node">
<title>Node1</title>
<g id="a_node1"><a xlink:title="This handles the effects and shader on the tile">
<polygon fill="#bfbfbf" stroke="black" points="0,-0.5 0,-141.5 169,-141.5 169,-0.5 0,-0.5"/>
<text text-anchor="middle" x="84.5" y="-127.9" font-family="Helvetica,sans-Serif" font-size="12.00">BoardTileEffectHandlerScript</text>
<polyline fill="none" stroke="black" points="0,-120.5 169,-120.5 "/>
<text text-anchor="start" x="8" y="-106.9" font-family="Helvetica,sans-Serif" font-size="12.00">&#45; tileRender</text>
<text text-anchor="start" x="8" y="-93.9" font-family="Helvetica,sans-Serif" font-size="12.00">&#45; tileMaterial</text>
<text text-anchor="start" x="8" y="-80.9" font-family="Helvetica,sans-Serif" font-size="12.00">&#45; selectEffectGroup</text>
<polyline fill="none" stroke="black" points="0,-73.5 169,-73.5 "/>
<text text-anchor="start" x="8" y="-59.9" font-family="Helvetica,sans-Serif" font-size="12.00">+ ToggleEffect_On()</text>
<text text-anchor="start" x="8" y="-46.9" font-family="Helvetica,sans-Serif" font-size="12.00">+ ToggleEffect_Off()</text>
<text text-anchor="start" x="8" y="-33.9" font-family="Helvetica,sans-Serif" font-size="12.00">+ SelectTile()</text>
<text text-anchor="start" x="8" y="-20.9" font-family="Helvetica,sans-Serif" font-size="12.00">+ DeselectTile()</text>
<text text-anchor="start" x="8" y="-7.9" font-family="Helvetica,sans-Serif" font-size="12.00">&#45; Awake()</text>
</a>
</g>
</g>
<!-- Node2 -->
<g id="node2" class="node">
<title>Node2</title>
<g id="a_node2"><a xlink:title=" ">
<polygon fill="white" stroke="#bfbfbf" points="35.5,-178.5 35.5,-241.5 133.5,-241.5 133.5,-178.5 35.5,-178.5"/>
<text text-anchor="middle" x="84.5" y="-227.9" font-family="Helvetica,sans-Serif" font-size="12.00">MonoBehaviour</text>
<polyline fill="none" stroke="#bfbfbf" points="35.5,-220.5 133.5,-220.5 "/>
<text text-anchor="middle" x="84.5" y="-206.9" font-family="Helvetica,sans-Serif" font-size="12.00"> </text>
<polyline fill="none" stroke="#bfbfbf" points="35.5,-199.5 133.5,-199.5 "/>
<text text-anchor="middle" x="84.5" y="-185.9" font-family="Helvetica,sans-Serif" font-size="12.00"> </text>
</a>
</g>
</g>
<!-- Node2&#45;&gt;Node1 -->
<g id="edge1" class="edge">
<title>Node2&#45;&gt;Node1</title>
<path fill="none" stroke="midnightblue" d="M84.5,-168.04C84.5,-159.66 84.5,-150.62 84.5,-141.55"/>
<polygon fill="none" stroke="midnightblue" points="81,-168.25 84.5,-178.25 88,-168.25 81,-168.25"/>
</g>
</g>
</svg>
