<?xml version="1.0" encoding="UTF-8" standalone="no"?>
<!DOCTYPE svg PUBLIC "-//W3C//DTD SVG 1.1//EN"
 "http://www.w3.org/Graphics/SVG/1.1/DTD/svg11.dtd">
<!-- Generated by graphviz version 2.47.1 (20210417.1919)
 -->
<!-- Title: BoardManager.CanMove Pages: 1 -->
<svg width="854pt" height="70pt"
 viewBox="0.00 0.00 854.00 70.00" xmlns="http://www.w3.org/2000/svg" xmlns:xlink="http://www.w3.org/1999/xlink">
<g id="graph0" class="graph" transform="scale(1 1) rotate(0) translate(4 66)">
<title>BoardManager.CanMove</title>
<polygon fill="white" stroke="transparent" points="-4,4 -4,-66 850,-66 850,4 -4,4"/>
<!-- Node1 -->
<g id="node1" class="node">
<title>Node1</title>
<g id="a_node1"><a xlink:title=" ">
<polygon fill="#bfbfbf" stroke="black" points="697,-20.5 697,-41.5 846,-41.5 846,-20.5 697,-20.5"/>
<text text-anchor="middle" x="771.5" y="-27.9" font-family="Helvetica,sans-Serif" font-size="12.00">BoardManager.CanMove</text>
</a>
</g>
</g>
<!-- Node2 -->
<g id="node2" class="node">
<title>Node2</title>
<g id="a_node2"><a xlink:href="class_board_tile_script.html#ac2a8e986f44ea316fb5340cdd75e02e4" target="_top" xlink:title="check if the player can move to this tile">
<polygon fill="white" stroke="black" points="490.5,-40.5 490.5,-61.5 642.5,-61.5 642.5,-40.5 490.5,-40.5"/>
<text text-anchor="middle" x="566.5" y="-47.9" font-family="Helvetica,sans-Serif" font-size="12.00">BoardTileScript.CanMove</text>
</a>
</g>
</g>
<!-- Node1&#45;&gt;Node2 -->
<g id="edge1" class="edge">
<title>Node1&#45;&gt;Node2</title>
<path fill="none" stroke="midnightblue" d="M686.85,-39.24C672.17,-40.69 656.96,-42.19 642.53,-43.61"/>
<polygon fill="midnightblue" stroke="midnightblue" points="687.32,-42.71 696.93,-38.25 686.63,-35.75 687.32,-42.71"/>
</g>
<!-- Node5 -->
<g id="node5" class="node">
<title>Node5</title>
<g id="a_node5"><a xlink:href="class_player_master_controller.html#aa777652a6197abe043a097ce3a1201b4" target="_top" xlink:title="check if the player can move to a certain tile">
<polygon fill="white" stroke="black" points="472,-0.5 472,-21.5 661,-21.5 661,-0.5 472,-0.5"/>
<text text-anchor="middle" x="566.5" y="-7.9" font-family="Helvetica,sans-Serif" font-size="12.00">PlayerMasterController.CanMove</text>
</a>
</g>
</g>
<!-- Node1&#45;&gt;Node5 -->
<g id="edge4" class="edge">
<title>Node1&#45;&gt;Node5</title>
<path fill="none" stroke="midnightblue" d="M686.77,-22.75C678.37,-21.92 669.8,-21.08 661.3,-20.24"/>
<polygon fill="midnightblue" stroke="midnightblue" points="686.63,-26.25 696.93,-23.75 687.32,-19.29 686.63,-26.25"/>
</g>
<!-- Node3 -->
<g id="node3" class="node">
<title>Node3</title>
<g id="a_node3"><a xlink:href="class_user_selection_script.html#a79fe134329afe738c1e4fb0d66c99d69" target="_top" xlink:title="Setting the current tile clears the previous tile and set the effect for the new tile">
<polygon fill="white" stroke="black" points="222,-40.5 222,-61.5 436,-61.5 436,-40.5 222,-40.5"/>
<text text-anchor="middle" x="329" y="-47.9" font-family="Helvetica,sans-Serif" font-size="12.00">UserSelectionScript.SelectCurrentTile</text>
</a>
</g>
</g>
<!-- Node2&#45;&gt;Node3 -->
<g id="edge2" class="edge">
<title>Node2&#45;&gt;Node3</title>
<path fill="none" stroke="midnightblue" d="M480.1,-51C465.84,-51 450.91,-51 436.21,-51"/>
<polygon fill="midnightblue" stroke="midnightblue" points="480.34,-54.5 490.34,-51 480.34,-47.5 480.34,-54.5"/>
</g>
<!-- Node4 -->
<g id="node4" class="node">
<title>Node4</title>
<g id="a_node4"><a xlink:href="class_user_cursor_script.html#a86dacfae5227440b7f8ca3c7042a8892" target="_top" xlink:title=" ">
<polygon fill="white" stroke="black" points="0,-40.5 0,-61.5 186,-61.5 186,-40.5 0,-40.5"/>
<text text-anchor="middle" x="93" y="-47.9" font-family="Helvetica,sans-Serif" font-size="12.00">UserCursorScript.OnTriggerStay</text>
</a>
</g>
</g>
<!-- Node3&#45;&gt;Node4 -->
<g id="edge3" class="edge">
<title>Node3&#45;&gt;Node4</title>
<path fill="none" stroke="midnightblue" d="M211.83,-51C203.19,-51 194.55,-51 186.08,-51"/>
<polygon fill="midnightblue" stroke="midnightblue" points="211.95,-54.5 221.95,-51 211.95,-47.5 211.95,-54.5"/>
</g>
</g>
</svg>
