<?xml version="1.0" encoding="UTF-8" standalone="no"?>
<!DOCTYPE svg PUBLIC "-//W3C//DTD SVG 1.1//EN"
 "http://www.w3.org/Graphics/SVG/1.1/DTD/svg11.dtd">
<!-- Generated by graphviz version 2.47.1 (20210417.1919)
 -->
<!-- Title: NotebookScript.CreateRoomButtons Pages: 1 -->
<svg width="669pt" height="30pt"
 viewBox="0.00 0.00 669.00 30.00" xmlns="http://www.w3.org/2000/svg" xmlns:xlink="http://www.w3.org/1999/xlink">
<g id="graph0" class="graph" transform="scale(1 1) rotate(0) translate(4 26)">
<title>NotebookScript.CreateRoomButtons</title>
<polygon fill="white" stroke="transparent" points="-4,4 -4,-26 665,-26 665,4 -4,4"/>
<!-- Node1 -->
<g id="node1" class="node">
<title>Node1</title>
<g id="a_node1"><a xlink:title="Create the room buttons">
<polygon fill="#bfbfbf" stroke="black" points="0,-0.5 0,-21.5 208,-21.5 208,-0.5 0,-0.5"/>
<text text-anchor="middle" x="104" y="-7.9" font-family="Helvetica,sans-Serif" font-size="12.00">NotebookScript.CreateRoomButtons</text>
</a>
</g>
</g>
<!-- Node2 -->
<g id="node2" class="node">
<title>Node2</title>
<g id="a_node2"><a xlink:href="class_notebook_button.html#a1767bf6c449e0517fa11a1ced89f6d0d" target="_top" xlink:title="Set the button type">
<polygon fill="white" stroke="black" points="244,-0.5 244,-21.5 424,-21.5 424,-0.5 244,-0.5"/>
<text text-anchor="middle" x="334" y="-7.9" font-family="Helvetica,sans-Serif" font-size="12.00">NotebookButton.SetButtonType</text>
</a>
</g>
</g>
<!-- Node1&#45;&gt;Node2 -->
<g id="edge1" class="edge">
<title>Node1&#45;&gt;Node2</title>
<path fill="none" stroke="midnightblue" d="M208.33,-11C216.79,-11 225.33,-11 233.76,-11"/>
<polygon fill="midnightblue" stroke="midnightblue" points="233.97,-14.5 243.97,-11 233.97,-7.5 233.97,-14.5"/>
</g>
<!-- Node3 -->
<g id="node3" class="node">
<title>Node3</title>
<g id="a_node3"><a xlink:href="class_enum_to_string.html#a078a1fb16a0030544fac1b96a90b6b83" target="_top" xlink:title="Get a string value from a valid enum">
<polygon fill="white" stroke="black" points="460,-0.5 460,-21.5 661,-21.5 661,-0.5 460,-0.5"/>
<text text-anchor="middle" x="560.5" y="-7.9" font-family="Helvetica,sans-Serif" font-size="12.00">EnumToString.GetStringFromEnum</text>
</a>
</g>
</g>
<!-- Node2&#45;&gt;Node3 -->
<g id="edge2" class="edge">
<title>Node2&#45;&gt;Node3</title>
<path fill="none" stroke="midnightblue" d="M424.05,-11C432.5,-11 441.13,-11 449.74,-11"/>
<polygon fill="midnightblue" stroke="midnightblue" points="449.83,-14.5 459.83,-11 449.83,-7.5 449.83,-14.5"/>
</g>
</g>
</svg>
