<?xml version="1.0" encoding="UTF-8" standalone="no"?>
<!DOCTYPE svg PUBLIC "-//W3C//DTD SVG 1.1//EN"
 "http://www.w3.org/Graphics/SVG/1.1/DTD/svg11.dtd">
<!-- Generated by graphviz version 2.47.1 (20210417.1919)
 -->
<!-- Title: CloseUpPointScript Pages: 1 -->
<svg width="165pt" height="198pt"
 viewBox="0.00 0.00 165.00 198.00" xmlns="http://www.w3.org/2000/svg" xmlns:xlink="http://www.w3.org/1999/xlink">
<g id="graph0" class="graph" transform="scale(1 1) rotate(0) translate(4 194)">
<title>CloseUpPointScript</title>
<polygon fill="white" stroke="transparent" points="-4,4 -4,-194 161,-194 161,4 -4,4"/>
<!-- Node1 -->
<g id="node1" class="node">
<title>Node1</title>
<g id="a_node1"><a xlink:title="Script for camera close up point Gameobject">
<polygon fill="#bfbfbf" stroke="black" points="0,-0.5 0,-89.5 157,-89.5 157,-0.5 0,-0.5"/>
<text text-anchor="middle" x="78.5" y="-75.9" font-family="Helvetica,sans-Serif" font-size="12.00">CloseUpPointScript</text>
<polyline fill="none" stroke="black" points="0,-68.5 157,-68.5 "/>
<text text-anchor="start" x="8" y="-54.9" font-family="Helvetica,sans-Serif" font-size="12.00">&#45; closeUpPointName</text>
<polyline fill="none" stroke="black" points="0,-47.5 157,-47.5 "/>
<text text-anchor="start" x="8" y="-33.9" font-family="Helvetica,sans-Serif" font-size="12.00">+ SetCloseUpPointName()</text>
<text text-anchor="start" x="8" y="-20.9" font-family="Helvetica,sans-Serif" font-size="12.00">+ GetCloseUpPointName()</text>
<text text-anchor="start" x="8" y="-7.9" font-family="Helvetica,sans-Serif" font-size="12.00">+ GetCameraPosition()</text>
</a>
</g>
</g>
<!-- Node2 -->
<g id="node2" class="node">
<title>Node2</title>
<g id="a_node2"><a xlink:title=" ">
<polygon fill="white" stroke="#bfbfbf" points="29.5,-126.5 29.5,-189.5 127.5,-189.5 127.5,-126.5 29.5,-126.5"/>
<text text-anchor="middle" x="78.5" y="-175.9" font-family="Helvetica,sans-Serif" font-size="12.00">MonoBehaviour</text>
<polyline fill="none" stroke="#bfbfbf" points="29.5,-168.5 127.5,-168.5 "/>
<text text-anchor="middle" x="78.5" y="-154.9" font-family="Helvetica,sans-Serif" font-size="12.00"> </text>
<polyline fill="none" stroke="#bfbfbf" points="29.5,-147.5 127.5,-147.5 "/>
<text text-anchor="middle" x="78.5" y="-133.9" font-family="Helvetica,sans-Serif" font-size="12.00"> </text>
</a>
</g>
</g>
<!-- Node2&#45;&gt;Node1 -->
<g id="edge1" class="edge">
<title>Node2&#45;&gt;Node1</title>
<path fill="none" stroke="midnightblue" d="M78.5,-116.21C78.5,-107.62 78.5,-98.52 78.5,-89.82"/>
<polygon fill="none" stroke="midnightblue" points="75,-116.37 78.5,-126.37 82,-116.37 75,-116.37"/>
</g>
</g>
</svg>
