<?xml version="1.0" encoding="UTF-8" standalone="no"?>
<!DOCTYPE svg PUBLIC "-//W3C//DTD SVG 1.1//EN"
 "http://www.w3.org/Graphics/SVG/1.1/DTD/svg11.dtd">
<!-- Generated by graphviz version 2.47.1 (20210417.1919)
 -->
<!-- Title: CardSlot Pages: 1 -->
<svg width="188pt" height="377pt"
 viewBox="0.00 0.00 187.50 377.00" xmlns="http://www.w3.org/2000/svg" xmlns:xlink="http://www.w3.org/1999/xlink">
<g id="graph0" class="graph" transform="scale(1 1) rotate(0) translate(4 373)">
<title>CardSlot</title>
<polygon fill="white" stroke="transparent" points="-4,4 -4,-373 183.5,-373 183.5,4 -4,4"/>
<!-- Node1 -->
<g id="node1" class="node">
<title>Node1</title>
<g id="a_node1"><a xlink:title=" ">
<polygon fill="#bfbfbf" stroke="black" points="0,-0.5 0,-141.5 112,-141.5 112,-0.5 0,-0.5"/>
<text text-anchor="middle" x="56" y="-127.9" font-family="Helvetica,sans-Serif" font-size="12.00">CardSlot</text>
<polyline fill="none" stroke="black" points="0,-120.5 112,-120.5 "/>
<text text-anchor="start" x="8" y="-106.9" font-family="Helvetica,sans-Serif" font-size="12.00">+ img</text>
<text text-anchor="start" x="8" y="-93.9" font-family="Helvetica,sans-Serif" font-size="12.00">+ txt</text>
<text text-anchor="start" x="8" y="-80.9" font-family="Helvetica,sans-Serif" font-size="12.00">+ isVisible</text>
<polyline fill="none" stroke="black" points="0,-73.5 112,-73.5 "/>
<text text-anchor="start" x="8" y="-59.9" font-family="Helvetica,sans-Serif" font-size="12.00">+ SetCard()</text>
<text text-anchor="start" x="8" y="-46.9" font-family="Helvetica,sans-Serif" font-size="12.00">+ SetVisible()</text>
<text text-anchor="start" x="8" y="-33.9" font-family="Helvetica,sans-Serif" font-size="12.00">&#45; Start()</text>
<text text-anchor="start" x="8" y="-20.9" font-family="Helvetica,sans-Serif" font-size="12.00">&#45; Initialise()</text>
<text text-anchor="start" x="8" y="-7.9" font-family="Helvetica,sans-Serif" font-size="12.00">&#45; SetCardDetails()</text>
</a>
</g>
</g>
<!-- Node2 -->
<g id="node2" class="node">
<title>Node2</title>
<g id="a_node2"><a xlink:title=" ">
<polygon fill="white" stroke="#bfbfbf" points="3,-305.5 3,-368.5 101,-368.5 101,-305.5 3,-305.5"/>
<text text-anchor="middle" x="52" y="-354.9" font-family="Helvetica,sans-Serif" font-size="12.00">MonoBehaviour</text>
<polyline fill="none" stroke="#bfbfbf" points="3,-347.5 101,-347.5 "/>
<text text-anchor="middle" x="52" y="-333.9" font-family="Helvetica,sans-Serif" font-size="12.00"> </text>
<polyline fill="none" stroke="#bfbfbf" points="3,-326.5 101,-326.5 "/>
<text text-anchor="middle" x="52" y="-312.9" font-family="Helvetica,sans-Serif" font-size="12.00"> </text>
</a>
</g>
</g>
<!-- Node2&#45;&gt;Node1 -->
<g id="edge1" class="edge">
<title>Node2&#45;&gt;Node1</title>
<path fill="none" stroke="midnightblue" d="M52.62,-295.33C53.24,-254.48 54.2,-190.72 54.94,-141.77"/>
<polygon fill="none" stroke="midnightblue" points="49.11,-295.41 52.46,-305.46 56.11,-295.51 49.11,-295.41"/>
</g>
<!-- Node3 -->
<g id="node3" class="node">
<title>Node3</title>
<g id="a_node3"><a xlink:href="class_card.html" target="_top" xlink:title=" ">
<polygon fill="white" stroke="black" points="68.5,-191.5 68.5,-267.5 179.5,-267.5 179.5,-191.5 68.5,-191.5"/>
<text text-anchor="middle" x="124" y="-253.9" font-family="Helvetica,sans-Serif" font-size="12.00">Card</text>
<polyline fill="none" stroke="black" points="68.5,-246.5 179.5,-246.5 "/>
<text text-anchor="start" x="76.5" y="-232.9" font-family="Helvetica,sans-Serif" font-size="12.00">+ names</text>
<polyline fill="none" stroke="black" points="68.5,-225.5 179.5,-225.5 "/>
<text text-anchor="start" x="76.5" y="-211.9" font-family="Helvetica,sans-Serif" font-size="12.00">+ GetCardType()</text>
<text text-anchor="start" x="76.5" y="-198.9" font-family="Helvetica,sans-Serif" font-size="12.00">+ GetCardImage()</text>
</a>
</g>
</g>
<!-- Node2&#45;&gt;Node3 -->
<g id="edge3" class="edge">
<title>Node2&#45;&gt;Node3</title>
<path fill="none" stroke="midnightblue" d="M78.47,-297.22C85.05,-287.57 92.09,-277.25 98.62,-267.68"/>
<polygon fill="none" stroke="midnightblue" points="75.57,-295.25 72.83,-305.49 81.35,-299.2 75.57,-295.25"/>
</g>
<!-- Node3&#45;&gt;Node1 -->
<g id="edge2" class="edge">
<title>Node3&#45;&gt;Node1</title>
<path fill="none" stroke="#404040" d="M107.88,-191.41C102.82,-179.76 97.02,-166.41 91.17,-152.95"/>
<polygon fill="none" stroke="#404040" points="91.05,-152.65 84.99,-148.75 86.26,-141.65 92.32,-145.56 91.05,-152.65"/>
<text text-anchor="middle" x="115" y="-163.4" font-family="Helvetica,sans-Serif" font-size="12.00"> +card</text>
</g>
</g>
</svg>
