<?xml version="1.0" encoding="UTF-8" standalone="no"?>
<!DOCTYPE svg PUBLIC "-//W3C//DTD SVG 1.1//EN"
 "http://www.w3.org/Graphics/SVG/1.1/DTD/svg11.dtd">
<!-- Generated by graphviz version 2.47.1 (20210417.1919)
 -->
<!-- Title: PlayerMasterController.GetCharacter Pages: 1 -->
<!--zoomable 625 -->
<svg id="main" version="1.1" xmlns="http://www.w3.org/2000/svg" xmlns:xlink="http://www.w3.org/1999/xlink" xml:space="preserve" onload="init(evt)">
<style type="text/css"><![CDATA[
.edge:hover path { stroke: red; }
.edge:hover polygon { stroke: red; fill: red; }
]]></style>
<script type="text/javascript"><![CDATA[
var edges = document.getElementsByTagName('g');
if (edges && edges.length) {
  for (var i=0;i<edges.length;i++) {
    if (edges[i].id.substr(0,4)=='edge') {
      edges[i].setAttribute('class','edge');
    }
  }
}
]]></script>
        <defs>
                <circle id="rim" cx="0" cy="0" r="7"/>
                <circle id="rim2" cx="0" cy="0" r="3.5"/>
                <g id="zoomPlus">
                        <use xlink:href="#rim" fill="#404040">
                                <set attributeName="fill" to="#808080" begin="zoomplus.mouseover" end="zoomplus.mouseout"/>
                        </use>
                        <path d="M-4,0h8M0,-4v8" fill="none" stroke="white" stroke-width="1.5" pointer-events="none"/>
                </g>
                <g id="zoomMin">
                        <use xlink:href="#rim" fill="#404040">
                                <set attributeName="fill" to="#808080" begin="zoomminus.mouseover" end="zoomminus.mouseout"/>
                        </use>
                        <path d="M-4,0h8" fill="none" stroke="white" stroke-width="1.5" pointer-events="none"/>
                </g>
                <g id="dirArrow">
                        <path fill="none" stroke="white" stroke-width="1.5" d="M0,-3.0v7 M-2.5,-0.5L0,-3.0L2.5,-0.5"/>
                </g>
               <g id="resetDef">
                       <use xlink:href="#rim2" fill="#404040">
                               <set attributeName="fill" to="#808080" begin="reset.mouseover" end="reset.mouseout"/>
                       </use>
               </g>
        </defs>

<script type="text/javascript">
var viewWidth = 1878;
var viewHeight = 625;
var sectionId = 'dynsection-11';
</script>
<script xlink:href="svgpan.js"/>
<svg id="graph" class="graph">
<g id="viewport">
<title>PlayerMasterController.GetCharacter</title>
<polygon fill="white" stroke="transparent" points="-4,4 -4,-621 1874,-621 1874,4 -4,4"/>
<!-- Node1 -->
<g id="node1" class="node">
<title>Node1</title>
<g id="a_node1"><a xlink:title=" ">
<polygon fill="#bfbfbf" stroke="black" points="1661,-298.5 1661,-319.5 1870,-319.5 1870,-298.5 1661,-298.5"/>
<text text-anchor="middle" x="1765.5" y="-305.9" font-family="Helvetica,sans-Serif" font-size="12.00">PlayerMasterController.GetCharacter</text>
</a>
</g>
</g>
<!-- Node2 -->
<g id="node2" class="node">
<title>Node2</title>
<g id="a_node2"><a xlink:href="class_player_token_script.html#ad83b16b76e1b0aefbcfe938b64fb1b7f" target="_top" xlink:title="assigns token to the correct player">
<polygon fill="white" stroke="black" points="1373.5,-595.5 1373.5,-616.5 1607.5,-616.5 1607.5,-595.5 1373.5,-595.5"/>
<text text-anchor="middle" x="1490.5" y="-602.9" font-family="Helvetica,sans-Serif" font-size="12.00">PlayerTokenScript.AssignToPlayerMaster</text>
</a>
</g>
</g>
<!-- Node1&#45;&gt;Node2 -->
<g id="edge1" class="edge">
<title>Node1&#45;&gt;Node2</title>
<path fill="none" stroke="midnightblue" d="M1760.39,-329.72C1749.01,-381.32 1711.98,-516.1 1625,-581 1616.87,-587.06 1607.71,-591.8 1598.09,-595.47"/>
<polygon fill="midnightblue" stroke="midnightblue" points="1763.86,-330.27 1762.5,-319.76 1757.01,-328.83 1763.86,-330.27"/>
</g>
<!-- Node4 -->
<g id="node4" class="node">
<title>Node4</title>
<g id="a_node4"><a xlink:href="class_u_i_handler.html#a81884a614bffa4b024ed137552033f7f" target="_top" xlink:title="Dispal a panel for a player to choose which card to show">
<polygon fill="white" stroke="black" points="1131,-517.5 1131,-538.5 1308,-538.5 1308,-517.5 1131,-517.5"/>
<text text-anchor="middle" x="1219.5" y="-524.9" font-family="Helvetica,sans-Serif" font-size="12.00">UIHandler.DisplayChoicePanel</text>
</a>
</g>
</g>
<!-- Node1&#45;&gt;Node4 -->
<g id="edge3" class="edge">
<title>Node1&#45;&gt;Node4</title>
<path fill="none" stroke="midnightblue" d="M1757.31,-329.14C1741.16,-371.02 1697.62,-466.91 1625,-507 1510.96,-569.96 1350.15,-552.8 1269.98,-538.5"/>
<polygon fill="midnightblue" stroke="midnightblue" points="1760.61,-330.32 1760.83,-319.73 1754.05,-327.87 1760.61,-330.32"/>
</g>
<!-- Node5 -->
<g id="node5" class="node">
<title>Node5</title>
<g id="a_node5"><a xlink:href="class_round_manager.html#a596fc1c822ebb74dad8d238b15b1ea3a" target="_top" xlink:title="Iterate through the rest of the players searching for if 1 or more of the cards were found">
<polygon fill="white" stroke="black" points="895,-478.5 895,-499.5 1083,-499.5 1083,-478.5 895,-478.5"/>
<text text-anchor="middle" x="989" y="-485.9" font-family="Helvetica,sans-Serif" font-size="12.00">RoundManager.MakeSuggestion</text>
</a>
</g>
</g>
<!-- Node1&#45;&gt;Node5 -->
<g id="edge25" class="edge">
<title>Node1&#45;&gt;Node5</title>
<path fill="none" stroke="midnightblue" d="M1759.58,-329.28C1746.83,-376.82 1707.78,-495.07 1625,-543 1527.68,-599.34 1228.87,-571.93 1119,-548 1076.41,-538.72 1031.05,-514.07 1007.1,-499.74"/>
<polygon fill="midnightblue" stroke="midnightblue" points="1762.99,-330.08 1762.09,-319.52 1756.21,-328.34 1762.99,-330.08"/>
</g>
<!-- Node12 -->
<g id="node12" class="node">
<title>Node12</title>
<g id="a_node12"><a xlink:href="class_room_entry_exit_test_script.html#acef5d54ed15d851447350fd66a63adad" target="_top" xlink:title="Player enter room at entry point 1">
<polygon fill="white" stroke="black" points="1382.5,-240.5 1382.5,-261.5 1598.5,-261.5 1598.5,-240.5 1382.5,-240.5"/>
<text text-anchor="middle" x="1490.5" y="-247.9" font-family="Helvetica,sans-Serif" font-size="12.00">RoomEntryExitTestScript.EnterRoom1</text>
</a>
</g>
</g>
<!-- Node1&#45;&gt;Node12 -->
<g id="edge12" class="edge">
<title>Node1&#45;&gt;Node12</title>
<path fill="none" stroke="midnightblue" d="M1712.13,-295.99C1686.01,-289.67 1653.91,-282.12 1625,-276 1600.89,-270.89 1574.22,-265.79 1551.1,-261.54"/>
<polygon fill="midnightblue" stroke="midnightblue" points="1711.64,-299.48 1722.19,-298.44 1713.3,-292.68 1711.64,-299.48"/>
</g>
<!-- Node13 -->
<g id="node13" class="node">
<title>Node13</title>
<g id="a_node13"><a xlink:href="class_room_entry_exit_test_script.html#a94091c962445d710eb5851b0eb538b3b" target="_top" xlink:title="Player enter room at entry point 2">
<polygon fill="white" stroke="black" points="1382.5,-200.5 1382.5,-221.5 1598.5,-221.5 1598.5,-200.5 1382.5,-200.5"/>
<text text-anchor="middle" x="1490.5" y="-207.9" font-family="Helvetica,sans-Serif" font-size="12.00">RoomEntryExitTestScript.EnterRoom2</text>
</a>
</g>
</g>
<!-- Node1&#45;&gt;Node13 -->
<g id="edge13" class="edge">
<title>Node1&#45;&gt;Node13</title>
<path fill="none" stroke="midnightblue" d="M1741.59,-292.74C1714.91,-274.65 1668.88,-245.99 1625,-231 1613.69,-227.14 1601.59,-224.02 1589.46,-221.5"/>
<polygon fill="midnightblue" stroke="midnightblue" points="1739.65,-295.65 1749.87,-298.44 1743.62,-289.88 1739.65,-295.65"/>
</g>
<!-- Node14 -->
<g id="node14" class="node">
<title>Node14</title>
<g id="a_node14"><a xlink:href="class_room_entry_exit_test_script.html#ae421f4c452e2ad1617ea98958045e8de" target="_top" xlink:title="Player exit room at entry point 1">
<polygon fill="white" stroke="black" points="1386.5,-160.5 1386.5,-181.5 1594.5,-181.5 1594.5,-160.5 1386.5,-160.5"/>
<text text-anchor="middle" x="1490.5" y="-167.9" font-family="Helvetica,sans-Serif" font-size="12.00">RoomEntryExitTestScript.ExitRoom1</text>
</a>
</g>
</g>
<!-- Node1&#45;&gt;Node14 -->
<g id="edge14" class="edge">
<title>Node1&#45;&gt;Node14</title>
<path fill="none" stroke="midnightblue" d="M1748.85,-290.42C1725.1,-263.58 1677.14,-214.62 1625,-191 1615.5,-186.7 1605.27,-183.28 1594.85,-180.58"/>
<polygon fill="midnightblue" stroke="midnightblue" points="1746.49,-293.03 1755.69,-298.29 1751.78,-288.44 1746.49,-293.03"/>
</g>
<!-- Node15 -->
<g id="node15" class="node">
<title>Node15</title>
<g id="a_node15"><a xlink:href="class_room_entry_exit_test_script.html#a25f805d4eea55ff282a3a2680f281f32" target="_top" xlink:title="Player exit room at entry point 2">
<polygon fill="white" stroke="black" points="1386.5,-120.5 1386.5,-141.5 1594.5,-141.5 1594.5,-120.5 1386.5,-120.5"/>
<text text-anchor="middle" x="1490.5" y="-127.9" font-family="Helvetica,sans-Serif" font-size="12.00">RoomEntryExitTestScript.ExitRoom2</text>
</a>
</g>
</g>
<!-- Node1&#45;&gt;Node15 -->
<g id="edge15" class="edge">
<title>Node1&#45;&gt;Node15</title>
<path fill="none" stroke="midnightblue" d="M1753.42,-289.16C1732.99,-254.65 1685.86,-184.1 1625,-151 1615.63,-145.91 1605.38,-141.99 1594.85,-139"/>
<polygon fill="midnightblue" stroke="midnightblue" points="1750.64,-291.35 1758.68,-298.25 1756.7,-287.84 1750.64,-291.35"/>
</g>
<!-- Node16 -->
<g id="node16" class="node">
<title>Node16</title>
<g id="a_node16"><a xlink:href="class_u_i_handler.html#ac072319b13f11e5ac215a0ed6ab11aa9" target="_top" xlink:title="Resets UI for the next player">
<polygon fill="white" stroke="black" points="1423,-358.5 1423,-379.5 1558,-379.5 1558,-358.5 1423,-358.5"/>
<text text-anchor="middle" x="1490.5" y="-365.9" font-family="Helvetica,sans-Serif" font-size="12.00">UIHandler.InitialiseTurn</text>
</a>
</g>
</g>
<!-- Node1&#45;&gt;Node16 -->
<g id="edge16" class="edge">
<title>Node1&#45;&gt;Node16</title>
<path fill="none" stroke="midnightblue" d="M1722.7,-322.53C1695.17,-331.06 1658.22,-341.78 1625,-349 1603.36,-353.7 1579.5,-357.66 1558.02,-360.78"/>
<polygon fill="midnightblue" stroke="midnightblue" points="1723.89,-325.83 1732.39,-319.5 1721.8,-319.15 1723.89,-325.83"/>
</g>
<!-- Node24 -->
<g id="node24" class="node">
<title>Node24</title>
<g id="a_node24"><a xlink:href="class_room_script.html#a4a19c52c114612c19ae2580768d94859" target="_top" xlink:title="Move a player to the room">
<polygon fill="white" stroke="black" points="1396.5,-476.5 1396.5,-497.5 1584.5,-497.5 1584.5,-476.5 1396.5,-476.5"/>
<text text-anchor="middle" x="1490.5" y="-483.9" font-family="Helvetica,sans-Serif" font-size="12.00">RoomScript.MovePlayerToRoom</text>
</a>
</g>
</g>
<!-- Node1&#45;&gt;Node24 -->
<g id="edge26" class="edge">
<title>Node1&#45;&gt;Node24</title>
<path fill="none" stroke="midnightblue" d="M1753.42,-328.84C1732.99,-363.35 1685.86,-433.9 1625,-467 1612.65,-473.72 1598.75,-478.39 1584.71,-481.59"/>
<polygon fill="midnightblue" stroke="midnightblue" points="1756.7,-330.16 1758.68,-319.75 1750.64,-326.65 1756.7,-330.16"/>
</g>
<!-- Node27 -->
<g id="node27" class="node">
<title>Node27</title>
<g id="a_node27"><a xlink:href="class_win_screen_script.html#a302ac9587462267075bd86d7c66e2ee8" target="_top" xlink:title="Update the win screen when enabled">
<polygon fill="white" stroke="black" points="1410.5,-80.5 1410.5,-101.5 1570.5,-101.5 1570.5,-80.5 1410.5,-80.5"/>
<text text-anchor="middle" x="1490.5" y="-87.9" font-family="Helvetica,sans-Serif" font-size="12.00">WinScreenScript.OnEnable</text>
</a>
</g>
</g>
<!-- Node1&#45;&gt;Node27 -->
<g id="edge30" class="edge">
<title>Node1&#45;&gt;Node27</title>
<path fill="none" stroke="midnightblue" d="M1756.65,-288.57C1739.62,-247.3 1695.12,-154.27 1625,-111 1608.85,-101.03 1589.55,-95.37 1570.71,-92.29"/>
<polygon fill="midnightblue" stroke="midnightblue" points="1753.5,-290.12 1760.47,-298.1 1760,-287.51 1753.5,-290.12"/>
</g>
<!-- Node28 -->
<g id="node28" class="node">
<title>Node28</title>
<g id="a_node28"><a xlink:href="class_a_i_controller_script.html#a606c498cbb805d816c1b06f94631a960" target="_top" xlink:title="to activate the AI or not set which player the AI is controlling">
<polygon fill="white" stroke="black" points="1410,-318.5 1410,-339.5 1571,-339.5 1571,-318.5 1410,-318.5"/>
<text text-anchor="middle" x="1490.5" y="-325.9" font-family="Helvetica,sans-Serif" font-size="12.00">AIControllerScript.SetActive</text>
</a>
</g>
</g>
<!-- Node1&#45;&gt;Node28 -->
<g id="edge31" class="edge">
<title>Node1&#45;&gt;Node28</title>
<path fill="none" stroke="midnightblue" d="M1650.73,-317.34C1624,-319.29 1596.08,-321.34 1571.22,-323.16"/>
<polygon fill="midnightblue" stroke="midnightblue" points="1651.18,-320.81 1660.9,-316.59 1650.67,-313.83 1651.18,-320.81"/>
</g>
<!-- Node29 -->
<g id="node29" class="node">
<title>Node29</title>
<g id="a_node29"><a xlink:href="class_room_entry_exit_test_script.html#a10ae072487c9377bd319cc46bca43700" target="_top" xlink:title="Set players in room text">
<polygon fill="white" stroke="black" points="1356,-40.5 1356,-61.5 1625,-61.5 1625,-40.5 1356,-40.5"/>
<text text-anchor="middle" x="1490.5" y="-47.9" font-family="Helvetica,sans-Serif" font-size="12.00">RoomEntryExitTestScript.SetPlayersInRoomText</text>
</a>
</g>
</g>
<!-- Node1&#45;&gt;Node29 -->
<g id="edge33" class="edge">
<title>Node1&#45;&gt;Node29</title>
<path fill="none" stroke="midnightblue" d="M1759.15,-288.78C1745.58,-241.8 1705.05,-125.14 1625,-71 1619.56,-67.32 1613.72,-64.21 1607.62,-61.59"/>
<polygon fill="midnightblue" stroke="midnightblue" points="1755.78,-289.74 1761.84,-298.43 1762.53,-287.86 1755.78,-289.74"/>
</g>
<!-- Node31 -->
<g id="node31" class="node">
<title>Node31</title>
<g id="a_node31"><a xlink:href="class_u_i_handler.html#a4009ca74f59111933be2a637c7835e18" target="_top" xlink:title="Displays a card from a player that has it">
<polygon fill="white" stroke="black" points="1427.5,-436.5 1427.5,-457.5 1553.5,-457.5 1553.5,-436.5 1427.5,-436.5"/>
<text text-anchor="middle" x="1490.5" y="-443.9" font-family="Helvetica,sans-Serif" font-size="12.00">UIHandler.ShowCard</text>
</a>
</g>
</g>
<!-- Node1&#45;&gt;Node31 -->
<g id="edge35" class="edge">
<title>Node1&#45;&gt;Node31</title>
<path fill="none" stroke="midnightblue" d="M1747.84,-327.31C1723.49,-352.84 1675.55,-398.64 1625,-422 1602.85,-432.24 1576.79,-438.29 1553.6,-441.86"/>
<polygon fill="midnightblue" stroke="midnightblue" points="1750.61,-329.48 1754.89,-319.79 1745.5,-324.69 1750.61,-329.48"/>
</g>
<!-- Node33 -->
<g id="node33" class="node">
<title>Node33</title>
<g id="a_node33"><a xlink:href="class_u_i_handler.html#a7e471e88a4baaa1993d0a85035c38016" target="_top" xlink:title="After pressing a card to choose pass this card to show it">
<polygon fill="white" stroke="black" points="1133,-359.5 1133,-380.5 1306,-380.5 1306,-359.5 1133,-359.5"/>
<text text-anchor="middle" x="1219.5" y="-366.9" font-family="Helvetica,sans-Serif" font-size="12.00">UIHandler.ShowSelectedCard</text>
</a>
</g>
</g>
<!-- Node1&#45;&gt;Node33 -->
<g id="edge39" class="edge">
<title>Node1&#45;&gt;Node33</title>
<path fill="none" stroke="midnightblue" d="M1743.29,-325.95C1717.22,-345.59 1670.81,-376.8 1625,-389 1509.47,-419.78 1475.27,-397.32 1356,-389 1331.83,-387.31 1305.41,-383.95 1282.37,-380.52"/>
<polygon fill="midnightblue" stroke="midnightblue" points="1745.52,-328.65 1751.31,-319.78 1741.25,-323.1 1745.52,-328.65"/>
</g>
<!-- Node34 -->
<g id="node34" class="node">
<title>Node34</title>
<g id="a_node34"><a xlink:href="class_u_i_handler.html#a94a29c2949506b7cd0de99509a6673b5" target="_top" xlink:title="Starting behaviour">
<polygon fill="white" stroke="black" points="1145.5,-279.5 1145.5,-300.5 1293.5,-300.5 1293.5,-279.5 1145.5,-279.5"/>
<text text-anchor="middle" x="1219.5" y="-286.9" font-family="Helvetica,sans-Serif" font-size="12.00">UIHandler.StartBehaviour</text>
</a>
</g>
</g>
<!-- Node1&#45;&gt;Node34 -->
<g id="edge40" class="edge">
<title>Node1&#45;&gt;Node34</title>
<path fill="none" stroke="midnightblue" d="M1650.66,-305.02C1543.21,-301.27 1385.29,-295.76 1293.68,-292.56"/>
<polygon fill="midnightblue" stroke="midnightblue" points="1650.78,-308.53 1660.9,-305.38 1651.03,-301.53 1650.78,-308.53"/>
</g>
<!-- Node35 -->
<g id="node35" class="node">
<title>Node35</title>
<g id="a_node35"><a xlink:href="class_game_set_up_script.html#a783bb4575e7a8718ea2907af860a687b" target="_top" xlink:title="assigns the players in the game based on the saved AI selection">
<polygon fill="white" stroke="black" points="1404,-0.5 1404,-21.5 1577,-21.5 1577,-0.5 1404,-0.5"/>
<text text-anchor="middle" x="1490.5" y="-7.9" font-family="Helvetica,sans-Serif" font-size="12.00">GameSetUpScript.StartGame</text>
</a>
</g>
</g>
<!-- Node1&#45;&gt;Node35 -->
<g id="edge42" class="edge">
<title>Node1&#45;&gt;Node35</title>
<path fill="none" stroke="midnightblue" d="M1760.83,-288.36C1750.31,-235.73 1714.82,-96.1 1625,-31 1611.05,-20.89 1594.11,-14.94 1577.04,-11.59"/>
<polygon fill="midnightblue" stroke="midnightblue" points="1757.45,-289.31 1762.76,-298.48 1764.33,-288 1757.45,-289.31"/>
</g>
<!-- Node3 -->
<g id="node3" class="node">
<title>Node3</title>
<g id="a_node3"><a xlink:href="class_player_token_script.html#a41bd3464349e8764ffa0d07391aaded4" target="_top" xlink:title="Setting the character this token will be">
<polygon fill="white" stroke="black" points="1127,-595.5 1127,-616.5 1312,-616.5 1312,-595.5 1127,-595.5"/>
<text text-anchor="middle" x="1219.5" y="-602.9" font-family="Helvetica,sans-Serif" font-size="12.00">PlayerTokenScript.SetCharacter</text>
</a>
</g>
</g>
<!-- Node2&#45;&gt;Node3 -->
<g id="edge2" class="edge">
<title>Node2&#45;&gt;Node3</title>
<path fill="none" stroke="midnightblue" d="M1363.35,-606C1346.12,-606 1328.7,-606 1312.24,-606"/>
<polygon fill="midnightblue" stroke="midnightblue" points="1363.47,-609.5 1373.47,-606 1363.47,-602.5 1363.47,-609.5"/>
</g>
<!-- Node4&#45;&gt;Node5 -->
<g id="edge4" class="edge">
<title>Node4&#45;&gt;Node5</title>
<path fill="none" stroke="midnightblue" d="M1146.81,-515.76C1116.27,-510.55 1080.99,-504.53 1051.64,-499.52"/>
<polygon fill="midnightblue" stroke="midnightblue" points="1146.52,-519.26 1156.97,-517.5 1147.7,-512.36 1146.52,-519.26"/>
</g>
<!-- Node6 -->
<g id="node6" class="node">
<title>Node6</title>
<g id="a_node6"><a xlink:href="class_suggestion_test.html#ac6fed8b504eb8b103cb5c38fa895edf3" target="_top" xlink:title="get test choices and make suggestion">
<polygon fill="white" stroke="black" points="437.5,-478.5 437.5,-499.5 627.5,-499.5 627.5,-478.5 437.5,-478.5"/>
<text text-anchor="middle" x="532.5" y="-485.9" font-family="Helvetica,sans-Serif" font-size="12.00">SuggestionTest.MakeSuggestion</text>
</a>
</g>
</g>
<!-- Node5&#45;&gt;Node6 -->
<g id="edge5" class="edge">
<title>Node5&#45;&gt;Node6</title>
<path fill="none" stroke="midnightblue" d="M884.69,-489C807.41,-489 702.59,-489 627.62,-489"/>
<polygon fill="midnightblue" stroke="midnightblue" points="884.93,-492.5 894.93,-489 884.93,-485.5 884.93,-492.5"/>
</g>
<!-- Node7 -->
<g id="node7" class="node">
<title>Node7</title>
<g id="a_node7"><a xlink:href="class_user_controller.html#a6230816eec4c8be9bda248a166d7b9bd" target="_top" xlink:title="Makes suggestion">
<polygon fill="white" stroke="black" points="676,-438.5 676,-459.5 859,-459.5 859,-438.5 676,-438.5"/>
<text text-anchor="middle" x="767.5" y="-445.9" font-family="Helvetica,sans-Serif" font-size="12.00">UserController.MakeSuggestion</text>
</a>
</g>
</g>
<!-- Node5&#45;&gt;Node7 -->
<g id="edge6" class="edge">
<title>Node5&#45;&gt;Node7</title>
<path fill="none" stroke="midnightblue" d="M920.31,-476.67C890.17,-471.17 855.04,-464.77 826.17,-459.51"/>
<polygon fill="midnightblue" stroke="midnightblue" points="919.86,-480.14 930.33,-478.49 921.12,-473.25 919.86,-480.14"/>
</g>
<!-- Node7&#45;&gt;Node6 -->
<g id="edge11" class="edge">
<title>Node7&#45;&gt;Node6</title>
<path fill="none" stroke="midnightblue" d="M695.07,-461.26C662.98,-466.77 625.49,-473.21 594.71,-478.49"/>
<polygon fill="midnightblue" stroke="midnightblue" points="696.02,-464.65 705.28,-459.51 694.83,-457.75 696.02,-464.65"/>
</g>
<!-- Node8 -->
<g id="node8" class="node">
<title>Node8</title>
<g id="a_node8"><a xlink:href="class_u_i_handler.html#ae6960c4c231f0e85718af2150449bb1f" target="_top" xlink:title="Hides the suggestion panel">
<polygon fill="white" stroke="black" points="447,-438.5 447,-459.5 618,-459.5 618,-438.5 447,-438.5"/>
<text text-anchor="middle" x="532.5" y="-445.9" font-family="Helvetica,sans-Serif" font-size="12.00">UIHandler.ConfirmSuggestion</text>
</a>
</g>
</g>
<!-- Node7&#45;&gt;Node8 -->
<g id="edge7" class="edge">
<title>Node7&#45;&gt;Node8</title>
<path fill="none" stroke="midnightblue" d="M665.47,-449C649.74,-449 633.62,-449 618.29,-449"/>
<polygon fill="midnightblue" stroke="midnightblue" points="665.75,-452.5 675.75,-449 665.75,-445.5 665.75,-452.5"/>
</g>
<!-- Node9 -->
<g id="node9" class="node">
<title>Node9</title>
<g id="a_node9"><a xlink:href="class_a_i_controller_script.html#affdf86fa313c46463a9a5a2b20020a17" target="_top" xlink:title="Decides what the AI should suggest this should match the flow chart of the AI">
<polygon fill="white" stroke="black" points="425,-398.5 425,-419.5 640,-419.5 640,-398.5 425,-398.5"/>
<text text-anchor="middle" x="532.5" y="-405.9" font-family="Helvetica,sans-Serif" font-size="12.00">AIControllerScript.Decide_Suggestion</text>
</a>
</g>
</g>
<!-- Node7&#45;&gt;Node9 -->
<g id="edge8" class="edge">
<title>Node7&#45;&gt;Node9</title>
<path fill="none" stroke="midnightblue" d="M695.07,-436.74C662.98,-431.23 625.49,-424.79 594.71,-419.51"/>
<polygon fill="midnightblue" stroke="midnightblue" points="694.83,-440.25 705.28,-438.49 696.02,-433.35 694.83,-440.25"/>
</g>
<!-- Node10 -->
<g id="node10" class="node">
<title>Node10</title>
<g id="a_node10"><a xlink:href="class_a_i_controller_script.html#ac31d9b8dbb75696b181eff1fbef41b97" target="_top" xlink:title="dictates what the AI will do depending on what mode it is in">
<polygon fill="white" stroke="black" points="215,-378.5 215,-399.5 389,-399.5 389,-378.5 215,-378.5"/>
<text text-anchor="middle" x="302" y="-385.9" font-family="Helvetica,sans-Serif" font-size="12.00">AIControllerScript.AIBehaviour</text>
</a>
</g>
</g>
<!-- Node9&#45;&gt;Node10 -->
<g id="edge9" class="edge">
<title>Node9&#45;&gt;Node10</title>
<path fill="none" stroke="midnightblue" d="M414.82,-398.79C406.19,-398.03 397.58,-397.28 389.18,-396.54"/>
<polygon fill="midnightblue" stroke="midnightblue" points="414.68,-402.29 424.94,-399.67 415.29,-395.31 414.68,-402.29"/>
</g>
<!-- Node11 -->
<g id="node11" class="node">
<title>Node11</title>
<g id="a_node11"><a xlink:href="class_a_i_controller_script.html#a74dc0e720fafceb873d3b19c12f68d58" target="_top" xlink:title=" ">
<polygon fill="white" stroke="black" points="0,-378.5 0,-399.5 179,-399.5 179,-378.5 0,-378.5"/>
<text text-anchor="middle" x="89.5" y="-385.9" font-family="Helvetica,sans-Serif" font-size="12.00">AIControllerScript.FixedUpdate</text>
</a>
</g>
</g>
<!-- Node10&#45;&gt;Node11 -->
<g id="edge10" class="edge">
<title>Node10&#45;&gt;Node11</title>
<path fill="none" stroke="midnightblue" d="M204.57,-389C196.15,-389 187.67,-389 179.32,-389"/>
<polygon fill="midnightblue" stroke="midnightblue" points="204.77,-392.5 214.77,-389 204.77,-385.5 204.77,-392.5"/>
</g>
<!-- Node17 -->
<g id="node17" class="node">
<title>Node17</title>
<g id="a_node17"><a xlink:href="class_round_manager.html#acf644ae21a6f9ebc2a476fc8603e18fc" target="_top" xlink:title="Method for starting the turn">
<polygon fill="white" stroke="black" points="1146,-319.5 1146,-340.5 1293,-340.5 1293,-319.5 1146,-319.5"/>
<text text-anchor="middle" x="1219.5" y="-326.9" font-family="Helvetica,sans-Serif" font-size="12.00">RoundManager.StartTurn</text>
</a>
</g>
</g>
<!-- Node16&#45;&gt;Node17 -->
<g id="edge17" class="edge">
<title>Node16&#45;&gt;Node17</title>
<path fill="none" stroke="midnightblue" d="M1412.29,-357.81C1374.8,-352.37 1330,-345.88 1293.14,-340.53"/>
<polygon fill="midnightblue" stroke="midnightblue" points="1412.26,-361.34 1422.66,-359.31 1413.27,-354.41 1412.26,-361.34"/>
</g>
<!-- Node18 -->
<g id="node18" class="node">
<title>Node18</title>
<g id="a_node18"><a xlink:href="class_round_manager.html#a29177f2e27c6c4af55dfa3c48d67cfb0" target="_top" xlink:title="Ending the turn. Returns the next player">
<polygon fill="white" stroke="black" points="917.5,-319.5 917.5,-340.5 1060.5,-340.5 1060.5,-319.5 917.5,-319.5"/>
<text text-anchor="middle" x="989" y="-326.9" font-family="Helvetica,sans-Serif" font-size="12.00">RoundManager.EndTurn</text>
</a>
</g>
</g>
<!-- Node17&#45;&gt;Node18 -->
<g id="edge18" class="edge">
<title>Node17&#45;&gt;Node18</title>
<path fill="none" stroke="midnightblue" d="M1135.87,-330C1111.3,-330 1084.61,-330 1060.86,-330"/>
<polygon fill="midnightblue" stroke="midnightblue" points="1135.89,-333.5 1145.89,-330 1135.89,-326.5 1135.89,-333.5"/>
</g>
<!-- Node22 -->
<g id="node22" class="node">
<title>Node22</title>
<g id="a_node22"><a xlink:href="class_game_manager_script.html#a12cbaf1ff00804887619c07c7267cf31" target="_top" xlink:title="starting and initialing the game and it&#39;s components">
<polygon fill="white" stroke="black" points="896,-279.5 896,-300.5 1082,-300.5 1082,-279.5 896,-279.5"/>
<text text-anchor="middle" x="989" y="-286.9" font-family="Helvetica,sans-Serif" font-size="12.00">GameManagerScript.StartGame</text>
</a>
</g>
</g>
<!-- Node17&#45;&gt;Node22 -->
<g id="edge23" class="edge">
<title>Node17&#45;&gt;Node22</title>
<path fill="none" stroke="midnightblue" d="M1148.45,-317.74C1116.98,-312.23 1080.22,-305.79 1050.03,-300.51"/>
<polygon fill="midnightblue" stroke="midnightblue" points="1148.01,-321.21 1158.46,-319.49 1149.22,-314.32 1148.01,-321.21"/>
</g>
<!-- Node19 -->
<g id="node19" class="node">
<title>Node19</title>
<g id="a_node19"><a xlink:href="class_user_controller.html#ab90611f541e20c125133d09b62407f41" target="_top" xlink:title="Ends turn">
<polygon fill="white" stroke="black" points="698.5,-319.5 698.5,-340.5 836.5,-340.5 836.5,-319.5 698.5,-319.5"/>
<text text-anchor="middle" x="767.5" y="-326.9" font-family="Helvetica,sans-Serif" font-size="12.00">UserController.EndTurn</text>
</a>
</g>
</g>
<!-- Node18&#45;&gt;Node19 -->
<g id="edge19" class="edge">
<title>Node18&#45;&gt;Node19</title>
<path fill="none" stroke="midnightblue" d="M907.21,-330C884.07,-330 859.09,-330 836.78,-330"/>
<polygon fill="midnightblue" stroke="midnightblue" points="907.34,-333.5 917.34,-330 907.34,-326.5 907.34,-333.5"/>
</g>
<!-- Node20 -->
<g id="node20" class="node">
<title>Node20</title>
<g id="a_node20"><a xlink:href="class_a_i_controller_script.html#a9c386cf1258ad897c9a1068804f07ba0" target="_top" xlink:title="have AI to end turn">
<polygon fill="white" stroke="black" points="455,-358.5 455,-379.5 610,-379.5 610,-358.5 455,-358.5"/>
<text text-anchor="middle" x="532.5" y="-365.9" font-family="Helvetica,sans-Serif" font-size="12.00">AIControllerScript.EndTurn</text>
</a>
</g>
</g>
<!-- Node19&#45;&gt;Node20 -->
<g id="edge20" class="edge">
<title>Node19&#45;&gt;Node20</title>
<path fill="none" stroke="midnightblue" d="M693.8,-342.17C662.57,-347.4 626.41,-353.45 596.36,-358.48"/>
<polygon fill="midnightblue" stroke="midnightblue" points="694.47,-345.61 703.75,-340.5 693.31,-338.7 694.47,-345.61"/>
</g>
<!-- Node21 -->
<g id="node21" class="node">
<title>Node21</title>
<g id="a_node21"><a xlink:href="class_u_i_handler.html#acc06a1dab8566d9e14f7ab3ae1ffea93" target="_top" xlink:title="Ends current player&#39;s turn">
<polygon fill="white" stroke="black" points="475.5,-318.5 475.5,-339.5 589.5,-339.5 589.5,-318.5 475.5,-318.5"/>
<text text-anchor="middle" x="532.5" y="-325.9" font-family="Helvetica,sans-Serif" font-size="12.00">UIHandler.EndTurn</text>
</a>
</g>
</g>
<!-- Node19&#45;&gt;Node21 -->
<g id="edge22" class="edge">
<title>Node19&#45;&gt;Node21</title>
<path fill="none" stroke="midnightblue" d="M688.18,-329.66C655.95,-329.53 619.33,-329.37 589.82,-329.24"/>
<polygon fill="midnightblue" stroke="midnightblue" points="688.47,-333.17 698.48,-329.71 688.5,-326.17 688.47,-333.17"/>
</g>
<!-- Node20&#45;&gt;Node10 -->
<g id="edge21" class="edge">
<title>Node20&#45;&gt;Node10</title>
<path fill="none" stroke="midnightblue" d="M444.8,-376.59C426.65,-378.18 407.51,-379.85 389.36,-381.44"/>
<polygon fill="midnightblue" stroke="midnightblue" points="445.12,-380.07 454.78,-375.72 444.51,-373.1 445.12,-380.07"/>
</g>
<!-- Node23 -->
<g id="node23" class="node">
<title>Node23</title>
<g id="a_node23"><a xlink:href="class_suggestion_test.html#a904e4481863c3e620574eba37c993a26" target="_top" xlink:title=" ">
<polygon fill="white" stroke="black" points="704.5,-279.5 704.5,-300.5 830.5,-300.5 830.5,-279.5 704.5,-279.5"/>
<text text-anchor="middle" x="767.5" y="-286.9" font-family="Helvetica,sans-Serif" font-size="12.00">SuggestionTest.Start</text>
</a>
</g>
</g>
<!-- Node22&#45;&gt;Node23 -->
<g id="edge24" class="edge">
<title>Node22&#45;&gt;Node23</title>
<path fill="none" stroke="midnightblue" d="M885.79,-290C867.01,-290 847.94,-290 830.79,-290"/>
<polygon fill="midnightblue" stroke="midnightblue" points="885.87,-293.5 895.87,-290 885.87,-286.5 885.87,-293.5"/>
</g>
<!-- Node25 -->
<g id="node25" class="node">
<title>Node25</title>
<g id="a_node25"><a xlink:href="class_move_tokens_test_script.html#a8f13bba80a272ef71d23715279a9ad89" target="_top" xlink:title="Move player token to set room">
<polygon fill="white" stroke="black" points="1119,-477.5 1119,-498.5 1320,-498.5 1320,-477.5 1119,-477.5"/>
<text text-anchor="middle" x="1219.5" y="-484.9" font-family="Helvetica,sans-Serif" font-size="12.00">MoveTokensTestScript.MovePlayer</text>
</a>
</g>
</g>
<!-- Node24&#45;&gt;Node25 -->
<g id="edge27" class="edge">
<title>Node24&#45;&gt;Node25</title>
<path fill="none" stroke="midnightblue" d="M1385.98,-487.38C1364.34,-487.47 1341.57,-487.55 1320.08,-487.63"/>
<polygon fill="midnightblue" stroke="midnightblue" points="1386.18,-490.88 1396.17,-487.35 1386.16,-483.88 1386.18,-490.88"/>
</g>
<!-- Node26 -->
<g id="node26" class="node">
<title>Node26</title>
<g id="a_node26"><a xlink:href="class_suggestion.html#ab326cb791b6707926dd69497e79d159b" target="_top" xlink:title=" ">
<polygon fill="white" stroke="black" points="928,-438.5 928,-459.5 1050,-459.5 1050,-438.5 928,-438.5"/>
<text text-anchor="middle" x="989" y="-445.9" font-family="Helvetica,sans-Serif" font-size="12.00">Suggestion.Suggest</text>
</a>
</g>
</g>
<!-- Node24&#45;&gt;Node26 -->
<g id="edge28" class="edge">
<title>Node24&#45;&gt;Node26</title>
<path fill="none" stroke="midnightblue" d="M1393.62,-475.34C1369.6,-472.67 1343.88,-470.02 1320,-468 1225.94,-460.03 1116.5,-454.45 1050.29,-451.49"/>
<polygon fill="midnightblue" stroke="midnightblue" points="1393.47,-478.84 1403.79,-476.48 1394.25,-471.89 1393.47,-478.84"/>
</g>
<!-- Node26&#45;&gt;Node7 -->
<g id="edge29" class="edge">
<title>Node26&#45;&gt;Node7</title>
<path fill="none" stroke="midnightblue" d="M917.58,-449C898.97,-449 878.61,-449 859.09,-449"/>
<polygon fill="midnightblue" stroke="midnightblue" points="917.73,-452.5 927.73,-449 917.73,-445.5 917.73,-452.5"/>
</g>
<!-- Node28&#45;&gt;Node17 -->
<g id="edge32" class="edge">
<title>Node28&#45;&gt;Node17</title>
<path fill="none" stroke="midnightblue" d="M1399.75,-329.33C1365.06,-329.46 1325.89,-329.61 1293.03,-329.73"/>
<polygon fill="midnightblue" stroke="midnightblue" points="1399.9,-332.83 1409.88,-329.3 1399.87,-325.83 1399.9,-332.83"/>
</g>
<!-- Node30 -->
<g id="node30" class="node">
<title>Node30</title>
<g id="a_node30"><a xlink:href="class_room_entry_exit_test_script.html#a08bf84fd6cd888cdca5837f227e31fd1" target="_top" xlink:title="Update players in room text and buttons interacable">
<polygon fill="white" stroke="black" points="1125.5,-40.5 1125.5,-61.5 1313.5,-61.5 1313.5,-40.5 1125.5,-40.5"/>
<text text-anchor="middle" x="1219.5" y="-47.9" font-family="Helvetica,sans-Serif" font-size="12.00">RoomEntryExitTestScript.Update</text>
</a>
</g>
</g>
<!-- Node29&#45;&gt;Node30 -->
<g id="edge34" class="edge">
<title>Node29&#45;&gt;Node30</title>
<path fill="none" stroke="midnightblue" d="M1345.78,-51C1334.9,-51 1324.1,-51 1313.67,-51"/>
<polygon fill="midnightblue" stroke="midnightblue" points="1345.79,-54.5 1355.79,-51 1345.79,-47.5 1345.79,-54.5"/>
</g>
<!-- Node32 -->
<g id="node32" class="node">
<title>Node32</title>
<g id="a_node32"><a xlink:href="class_round_manager.html#a780da336fd16dcaee0f00306578f13b4" target="_top" xlink:title=" ">
<polygon fill="white" stroke="black" points="1136.5,-399.5 1136.5,-420.5 1302.5,-420.5 1302.5,-399.5 1136.5,-399.5"/>
<text text-anchor="middle" x="1219.5" y="-406.9" font-family="Helvetica,sans-Serif" font-size="12.00">RoundManager.AIShowCard</text>
</a>
</g>
</g>
<!-- Node31&#45;&gt;Node32 -->
<g id="edge36" class="edge">
<title>Node31&#45;&gt;Node32</title>
<path fill="none" stroke="midnightblue" d="M1417.21,-437.06C1380.09,-431.95 1334.86,-425.73 1297.14,-420.54"/>
<polygon fill="midnightblue" stroke="midnightblue" points="1417.06,-440.57 1427.45,-438.46 1418.02,-433.63 1417.06,-440.57"/>
</g>
<!-- Node31&#45;&gt;Node33 -->
<g id="edge38" class="edge">
<title>Node31&#45;&gt;Node33</title>
<path fill="none" stroke="midnightblue" d="M1417.5,-440.81C1396.9,-437.13 1374.92,-431.28 1356,-422 1336.78,-412.58 1339.16,-399.55 1320,-390 1312.27,-386.15 1303.86,-383.04 1295.3,-380.53"/>
<polygon fill="midnightblue" stroke="midnightblue" points="1417.05,-444.28 1427.48,-442.44 1418.18,-437.37 1417.05,-444.28"/>
</g>
<!-- Node32&#45;&gt;Node5 -->
<g id="edge37" class="edge">
<title>Node32&#45;&gt;Node5</title>
<path fill="none" stroke="midnightblue" d="M1188.59,-425.08C1161.57,-438.21 1120.42,-456.96 1083,-469 1071.68,-472.64 1059.37,-475.82 1047.53,-478.5"/>
<polygon fill="midnightblue" stroke="midnightblue" points="1190.44,-428.07 1197.88,-420.52 1187.36,-421.79 1190.44,-428.07"/>
</g>
<!-- Node34&#45;&gt;Node22 -->
<g id="edge41" class="edge">
<title>Node34&#45;&gt;Node22</title>
<path fill="none" stroke="midnightblue" d="M1135.22,-290C1117.95,-290 1099.65,-290 1082.08,-290"/>
<polygon fill="midnightblue" stroke="midnightblue" points="1135.26,-293.5 1145.26,-290 1135.26,-286.5 1135.26,-293.5"/>
</g>
</g>
</svg>
        <g id="navigator" transform="translate(0 0)" fill="#404254">
                <rect fill="#f2f5e9" fill-opacity="0.5" stroke="#606060" stroke-width=".5" x="0" y="0" width="60" height="60"/>
                <use id="zoomplus" xlink:href="#zoomPlus" x="17" y="9" onmousedown="handleZoom(evt,'in')"/>
                <use id="zoomminus" xlink:href="#zoomMin" x="42" y="9" onmousedown="handleZoom(evt,'out')"/>
                <use id="reset" xlink:href="#resetDef" x="30" y="36" onmousedown="handleReset()"/>
                <g id="arrowUp" xlink:href="#dirArrow" transform="translate(30 24)" onmousedown="handlePan(0,-1)">
                  <use xlink:href="#rim" fill="#404040">
                        <set attributeName="fill" to="#808080" begin="arrowUp.mouseover" end="arrowUp.mouseout"/>
                  </use>
                  <path fill="none" stroke="white" stroke-width="1.5" d="M0,-3.0v7 M-2.5,-0.5L0,-3.0L2.5,-0.5"/>
                </g>
                <g id="arrowRight" xlink:href="#dirArrow" transform="rotate(90) translate(36 -43)" onmousedown="handlePan(1,0)">
                  <use xlink:href="#rim" fill="#404040">
                        <set attributeName="fill" to="#808080" begin="arrowRight.mouseover" end="arrowRight.mouseout"/>
                  </use>
                  <path fill="none" stroke="white" stroke-width="1.5" d="M0,-3.0v7 M-2.5,-0.5L0,-3.0L2.5,-0.5"/>
                </g>
                <g id="arrowDown" xlink:href="#dirArrow" transform="rotate(180) translate(-30 -48)" onmousedown="handlePan(0,1)">
                  <use xlink:href="#rim" fill="#404040">
                        <set attributeName="fill" to="#808080" begin="arrowDown.mouseover" end="arrowDown.mouseout"/>
                  </use>
                  <path fill="none" stroke="white" stroke-width="1.5" d="M0,-3.0v7 M-2.5,-0.5L0,-3.0L2.5,-0.5"/>
                </g>
                <g id="arrowLeft" xlink:href="#dirArrow" transform="rotate(270) translate(-36 17)" onmousedown="handlePan(-1,0)">
                  <use xlink:href="#rim" fill="#404040">
                        <set attributeName="fill" to="#808080" begin="arrowLeft.mouseover" end="arrowLeft.mouseout"/>
                  </use>
                  <path fill="none" stroke="white" stroke-width="1.5" d="M0,-3.0v7 M-2.5,-0.5L0,-3.0L2.5,-0.5"/>
                </g>
        </g>
        <svg viewBox="0 0 15 15" width="100%" height="30px" preserveAspectRatio="xMaxYMin meet">
         <g id="arrow_out" transform="scale(0.3 0.3)">
          <a xlink:href="class_player_master_controller_a12c91851433777ae557a71d9f9a855f0_icgraph_org.svg" target="_base">
           <rect id="button" ry="5" rx="5" y="6" x="6" height="38" width="38"
                fill="#f2f5e9" fill-opacity="0.5" stroke="#606060" stroke-width="1.0"/>
           <path id="arrow"
             d="M 11.500037,31.436501 C 11.940474,20.09759 22.043105,11.32322 32.158766,21.979434 L 37.068811,17.246167 C 37.068811,17.246167 37.088388,32 37.088388,32 L 22.160133,31.978069 C 22.160133,31.978069 26.997745,27.140456 26.997745,27.140456 C 18.528582,18.264221 13.291696,25.230495 11.500037,31.436501 z"
             style="fill:#404040;"/>
          </a>
         </g>
        </svg>
</svg>
