<?xml version="1.0" encoding="UTF-8" standalone="no"?>
<!DOCTYPE svg PUBLIC "-//W3C//DTD SVG 1.1//EN"
 "http://www.w3.org/Graphics/SVG/1.1/DTD/svg11.dtd">
<!-- Generated by graphviz version 2.47.1 (20210417.1919)
 -->
<!-- Title: PlayerMasterController.GetCurrentRoom Pages: 1 -->
<!--zoomable 461 -->
<svg id="main" version="1.1" xmlns="http://www.w3.org/2000/svg" xmlns:xlink="http://www.w3.org/1999/xlink" xml:space="preserve" onload="init(evt)">
<style type="text/css"><![CDATA[
.edge:hover path { stroke: red; }
.edge:hover polygon { stroke: red; fill: red; }
]]></style>
<script type="text/javascript"><![CDATA[
var edges = document.getElementsByTagName('g');
if (edges && edges.length) {
  for (var i=0;i<edges.length;i++) {
    if (edges[i].id.substr(0,4)=='edge') {
      edges[i].setAttribute('class','edge');
    }
  }
}
]]></script>
        <defs>
                <circle id="rim" cx="0" cy="0" r="7"/>
                <circle id="rim2" cx="0" cy="0" r="3.5"/>
                <g id="zoomPlus">
                        <use xlink:href="#rim" fill="#404040">
                                <set attributeName="fill" to="#808080" begin="zoomplus.mouseover" end="zoomplus.mouseout"/>
                        </use>
                        <path d="M-4,0h8M0,-4v8" fill="none" stroke="white" stroke-width="1.5" pointer-events="none"/>
                </g>
                <g id="zoomMin">
                        <use xlink:href="#rim" fill="#404040">
                                <set attributeName="fill" to="#808080" begin="zoomminus.mouseover" end="zoomminus.mouseout"/>
                        </use>
                        <path d="M-4,0h8" fill="none" stroke="white" stroke-width="1.5" pointer-events="none"/>
                </g>
                <g id="dirArrow">
                        <path fill="none" stroke="white" stroke-width="1.5" d="M0,-3.0v7 M-2.5,-0.5L0,-3.0L2.5,-0.5"/>
                </g>
               <g id="resetDef">
                       <use xlink:href="#rim2" fill="#404040">
                               <set attributeName="fill" to="#808080" begin="reset.mouseover" end="reset.mouseout"/>
                       </use>
               </g>
        </defs>

<script type="text/javascript">
var viewWidth = 2107;
var viewHeight = 461;
var sectionId = 'dynsection-12';
</script>
<script xlink:href="svgpan.js"/>
<svg id="graph" class="graph">
<g id="viewport">
<title>PlayerMasterController.GetCurrentRoom</title>
<polygon fill="white" stroke="transparent" points="-4,4 -4,-457.44 2103,-457.44 2103,4 -4,4"/>
<!-- Node1 -->
<g id="node1" class="node">
<title>Node1</title>
<g id="a_node1"><a xlink:title=" ">
<polygon fill="#bfbfbf" stroke="black" points="1872,-200.5 1872,-221.5 2099,-221.5 2099,-200.5 1872,-200.5"/>
<text text-anchor="middle" x="1985.5" y="-207.9" font-family="Helvetica,sans-Serif" font-size="12.00">PlayerMasterController.GetCurrentRoom</text>
</a>
</g>
</g>
<!-- Node2 -->
<g id="node2" class="node">
<title>Node2</title>
<g id="a_node2"><a xlink:href="class_a_i_controller_script.html#af04897fa0ae4ed5e472dea79bce8d7df" target="_top" xlink:title="Decides where the AI should move to this should match the flow chart of the AI">
<polygon fill="white" stroke="black" points="435,-277.5 435,-298.5 645,-298.5 645,-277.5 435,-277.5"/>
<text text-anchor="middle" x="540" y="-284.9" font-family="Helvetica,sans-Serif" font-size="12.00">AIControllerScript.Decide_Movement</text>
</a>
</g>
</g>
<!-- Node1&#45;&gt;Node2 -->
<g id="edge1" class="edge">
<title>Node1&#45;&gt;Node2</title>
<path fill="none" stroke="midnightblue" d="M1941.6,-224.6C1912.17,-233.42 1872.07,-244.45 1836,-251 1667.52,-281.6 1623.74,-288 1452.5,-288 1452.5,-288 1452.5,-288 979.5,-288 865.12,-288 733.95,-288 645.1,-288"/>
<polygon fill="midnightblue" stroke="midnightblue" points="1942.99,-227.83 1951.54,-221.58 1940.95,-221.14 1942.99,-227.83"/>
</g>
<!-- Node5 -->
<g id="node5" class="node">
<title>Node5</title>
<g id="a_node5"><a xlink:href="class_a_i_controller_script.html#affdf86fa313c46463a9a5a2b20020a17" target="_top" xlink:title="Decides what the AI should suggest this should match the flow chart of the AI">
<polygon fill="white" stroke="black" points="873,-238.5 873,-259.5 1088,-259.5 1088,-238.5 873,-238.5"/>
<text text-anchor="middle" x="980.5" y="-245.9" font-family="Helvetica,sans-Serif" font-size="12.00">AIControllerScript.Decide_Suggestion</text>
</a>
</g>
</g>
<!-- Node1&#45;&gt;Node5 -->
<g id="edge4" class="edge">
<title>Node1&#45;&gt;Node5</title>
<path fill="none" stroke="midnightblue" d="M1908.39,-222.93C1885.2,-226.11 1859.61,-229.17 1836,-231 1567.49,-251.84 1250.2,-252.18 1088.26,-250.61"/>
<polygon fill="midnightblue" stroke="midnightblue" points="1909.09,-226.36 1918.51,-221.51 1908.12,-219.43 1909.09,-226.36"/>
</g>
<!-- Node6 -->
<g id="node6" class="node">
<title>Node6</title>
<g id="a_node6"><a xlink:href="class_round_manager.html#acf674cdec523de9a0f91ab8a7bfcc2ef" target="_top" xlink:title="for waiting the dice to be rolled, get it&#39;s results and display where the player can move to">
<polygon fill="white" stroke="black" points="1627.5,-316.5 1627.5,-337.5 1804.5,-337.5 1804.5,-316.5 1627.5,-316.5"/>
<text text-anchor="middle" x="1716" y="-323.9" font-family="Helvetica,sans-Serif" font-size="12.00">RoundManager.DiceBehaviour</text>
</a>
</g>
</g>
<!-- Node1&#45;&gt;Node6 -->
<g id="edge6" class="edge">
<title>Node1&#45;&gt;Node6</title>
<path fill="none" stroke="midnightblue" d="M1962.37,-227.96C1934.43,-248.53 1884.17,-282.85 1836,-302 1820.6,-308.12 1803.46,-312.84 1787.08,-316.44"/>
<polygon fill="midnightblue" stroke="midnightblue" points="1964.7,-230.58 1970.62,-221.79 1960.52,-224.97 1964.7,-230.58"/>
</g>
<!-- Node8 -->
<g id="node8" class="node">
<title>Node8</title>
<g id="a_node8"><a xlink:href="class_u_i_handler.html#a99048b81a1303baba7efd44095c0f235" target="_top" xlink:title="Displays Suggestion menu, set the room if in a room">
<polygon fill="white" stroke="black" points="1617.5,-356.5 1617.5,-377.5 1814.5,-377.5 1814.5,-356.5 1617.5,-356.5"/>
<text text-anchor="middle" x="1716" y="-363.9" font-family="Helvetica,sans-Serif" font-size="12.00">UIHandler.DisplayMenuSuggestion</text>
</a>
</g>
</g>
<!-- Node1&#45;&gt;Node8 -->
<g id="edge8" class="edge">
<title>Node1&#45;&gt;Node8</title>
<path fill="none" stroke="midnightblue" d="M1970.24,-229.71C1946.17,-259.82 1894.33,-318.53 1836,-347 1828.19,-350.81 1819.78,-353.92 1811.18,-356.44"/>
<polygon fill="midnightblue" stroke="midnightblue" points="1973.12,-231.71 1976.54,-221.68 1967.61,-227.39 1973.12,-231.71"/>
</g>
<!-- Node11 -->
<g id="node11" class="node">
<title>Node11</title>
<g id="a_node11"><a xlink:href="class_round_manager.html#adfd4f66436e06c12a25c9236b629f369" target="_top" xlink:title="moving the current player to the selected tile">
<polygon fill="white" stroke="black" points="900,-356.5 900,-377.5 1061,-377.5 1061,-356.5 900,-356.5"/>
<text text-anchor="middle" x="980.5" y="-363.9" font-family="Helvetica,sans-Serif" font-size="12.00">RoundManager.MovePlayer</text>
</a>
</g>
</g>
<!-- Node1&#45;&gt;Node11 -->
<g id="edge19" class="edge">
<title>Node1&#45;&gt;Node11</title>
<path fill="none" stroke="midnightblue" d="M1975.15,-230.85C1955.66,-269.57 1906.56,-354.22 1836,-387 1543.64,-522.85 1132.1,-413.72 1014.21,-377.57"/>
<polygon fill="midnightblue" stroke="midnightblue" points="1978.4,-232.17 1979.66,-221.65 1972.12,-229.09 1978.4,-232.17"/>
</g>
<!-- Node14 -->
<g id="node14" class="node">
<title>Node14</title>
<g id="a_node14"><a xlink:href="class_shortcut_test_u_i.html#ada4b889c0948d9fc4895b9c581b530b7" target="_top" xlink:title="Trigger player to exit room">
<polygon fill="white" stroke="black" points="1643,-200.5 1643,-221.5 1789,-221.5 1789,-200.5 1643,-200.5"/>
<text text-anchor="middle" x="1716" y="-207.9" font-family="Helvetica,sans-Serif" font-size="12.00">ShortcutTestUI.ExitRoom</text>
</a>
</g>
</g>
<!-- Node1&#45;&gt;Node14 -->
<g id="edge15" class="edge">
<title>Node1&#45;&gt;Node14</title>
<path fill="none" stroke="midnightblue" d="M1861.62,-211C1836.82,-211 1811.52,-211 1789.15,-211"/>
<polygon fill="midnightblue" stroke="midnightblue" points="1861.83,-214.5 1871.83,-211 1861.83,-207.5 1861.83,-214.5"/>
</g>
<!-- Node15 -->
<g id="node15" class="node">
<title>Node15</title>
<g id="a_node15"><a xlink:href="class_anson_test_script.html#a445d27a921ade2f0e76054a3b7cc4245" target="_top" xlink:title=" ">
<polygon fill="white" stroke="black" points="1629.5,-160.5 1629.5,-181.5 1802.5,-181.5 1802.5,-160.5 1629.5,-160.5"/>
<text text-anchor="middle" x="1716" y="-167.9" font-family="Helvetica,sans-Serif" font-size="12.00">AnsonTestScript.FixedUpdate</text>
</a>
</g>
</g>
<!-- Node1&#45;&gt;Node15 -->
<g id="edge16" class="edge">
<title>Node1&#45;&gt;Node15</title>
<path fill="none" stroke="midnightblue" d="M1903.92,-198.95C1866.77,-193.4 1823.07,-186.86 1787.28,-181.51"/>
<polygon fill="midnightblue" stroke="midnightblue" points="1903.81,-202.47 1914.22,-200.49 1904.85,-195.55 1903.81,-202.47"/>
</g>
<!-- Node16 -->
<g id="node16" class="node">
<title>Node16</title>
<g id="a_node16"><a xlink:href="class_player_movement_test_script.html#a1c247cfdee35d3a1c1d3a81fd579b426" target="_top" xlink:title=" ">
<polygon fill="white" stroke="black" points="1602.5,-120.5 1602.5,-141.5 1829.5,-141.5 1829.5,-120.5 1602.5,-120.5"/>
<text text-anchor="middle" x="1716" y="-127.9" font-family="Helvetica,sans-Serif" font-size="12.00">PlayerMovementTestScript.FixedUpdate</text>
</a>
</g>
</g>
<!-- Node1&#45;&gt;Node16 -->
<g id="edge17" class="edge">
<title>Node1&#45;&gt;Node16</title>
<path fill="none" stroke="midnightblue" d="M1953.01,-195.93C1923.42,-182.35 1877.59,-162.75 1836,-151 1822.79,-147.27 1808.56,-144.14 1794.68,-141.55"/>
<polygon fill="midnightblue" stroke="midnightblue" points="1951.85,-199.25 1962.39,-200.29 1954.8,-192.9 1951.85,-199.25"/>
</g>
<!-- Node17 -->
<g id="node17" class="node">
<title>Node17</title>
<g id="a_node17"><a xlink:href="class_testing___movement_script.html#a8bd90f3857ba3610ef23e0a5d7e4879a" target="_top" xlink:title="give a select value for the player roll">
<polygon fill="white" stroke="black" points="1619.5,-80.5 1619.5,-101.5 1812.5,-101.5 1812.5,-80.5 1619.5,-80.5"/>
<text text-anchor="middle" x="1716" y="-87.9" font-family="Helvetica,sans-Serif" font-size="12.00">Testing_MovementScript.GiveRoll</text>
</a>
</g>
</g>
<!-- Node1&#45;&gt;Node17 -->
<g id="edge18" class="edge">
<title>Node1&#45;&gt;Node17</title>
<path fill="none" stroke="midnightblue" d="M1964.92,-193.73C1937.92,-170.91 1886.8,-131.26 1836,-111 1826.37,-107.16 1816.01,-104.05 1805.57,-101.55"/>
<polygon fill="midnightblue" stroke="midnightblue" points="1962.94,-196.64 1972.81,-200.5 1967.5,-191.33 1962.94,-196.64"/>
</g>
<!-- Node18 -->
<g id="node18" class="node">
<title>Node18</title>
<g id="a_node18"><a xlink:href="class_room_script.html#a4a19c52c114612c19ae2580768d94859" target="_top" xlink:title="Move a player to the room">
<polygon fill="white" stroke="black" points="1622,-40.5 1622,-61.5 1810,-61.5 1810,-40.5 1622,-40.5"/>
<text text-anchor="middle" x="1716" y="-47.9" font-family="Helvetica,sans-Serif" font-size="12.00">RoomScript.MovePlayerToRoom</text>
</a>
</g>
</g>
<!-- Node1&#45;&gt;Node18 -->
<g id="edge20" class="edge">
<title>Node1&#45;&gt;Node18</title>
<path fill="none" stroke="midnightblue" d="M1970.72,-192.19C1946.99,-161.32 1895.2,-100.42 1836,-71 1827.93,-66.99 1819.22,-63.76 1810.3,-61.17"/>
<polygon fill="midnightblue" stroke="midnightblue" points="1968.1,-194.52 1976.91,-200.39 1973.68,-190.3 1968.1,-194.52"/>
</g>
<!-- Node24 -->
<g id="node24" class="node">
<title>Node24</title>
<g id="a_node24"><a xlink:href="class_testing___movement_script.html#abaaeb242fee8995f1058fde65fc793ba" target="_top" xlink:title=" ">
<polygon fill="white" stroke="black" points="1596,-0.5 1596,-21.5 1836,-21.5 1836,-0.5 1596,-0.5"/>
<text text-anchor="middle" x="1716" y="-7.9" font-family="Helvetica,sans-Serif" font-size="12.00">Testing_MovementScript.UpdateBehaviour</text>
</a>
</g>
</g>
<!-- Node1&#45;&gt;Node24 -->
<g id="edge27" class="edge">
<title>Node1&#45;&gt;Node24</title>
<path fill="none" stroke="midnightblue" d="M1974.47,-191.18C1954.09,-153.15 1903.95,-70.24 1836,-31 1829.47,-27.23 1822.42,-24.12 1815.13,-21.57"/>
<polygon fill="midnightblue" stroke="midnightblue" points="1971.47,-193 1979.21,-200.23 1977.67,-189.75 1971.47,-193"/>
</g>
<!-- Node3 -->
<g id="node3" class="node">
<title>Node3</title>
<g id="a_node3"><a xlink:href="class_a_i_controller_script.html#ac31d9b8dbb75696b181eff1fbef41b97" target="_top" xlink:title="dictates what the AI will do depending on what mode it is in">
<polygon fill="white" stroke="black" points="215,-257.5 215,-278.5 389,-278.5 389,-257.5 215,-257.5"/>
<text text-anchor="middle" x="302" y="-264.9" font-family="Helvetica,sans-Serif" font-size="12.00">AIControllerScript.AIBehaviour</text>
</a>
</g>
</g>
<!-- Node2&#45;&gt;Node3 -->
<g id="edge2" class="edge">
<title>Node2&#45;&gt;Node3</title>
<path fill="none" stroke="midnightblue" d="M424.8,-278.32C412.87,-277.31 400.88,-276.3 389.33,-275.32"/>
<polygon fill="midnightblue" stroke="midnightblue" points="424.54,-281.81 434.8,-279.17 425.13,-274.84 424.54,-281.81"/>
</g>
<!-- Node4 -->
<g id="node4" class="node">
<title>Node4</title>
<g id="a_node4"><a xlink:href="class_a_i_controller_script.html#a74dc0e720fafceb873d3b19c12f68d58" target="_top" xlink:title=" ">
<polygon fill="white" stroke="black" points="0,-257.5 0,-278.5 179,-278.5 179,-257.5 0,-257.5"/>
<text text-anchor="middle" x="89.5" y="-264.9" font-family="Helvetica,sans-Serif" font-size="12.00">AIControllerScript.FixedUpdate</text>
</a>
</g>
</g>
<!-- Node3&#45;&gt;Node4 -->
<g id="edge3" class="edge">
<title>Node3&#45;&gt;Node4</title>
<path fill="none" stroke="midnightblue" d="M204.57,-268C196.15,-268 187.67,-268 179.32,-268"/>
<polygon fill="midnightblue" stroke="midnightblue" points="204.77,-271.5 214.77,-268 204.77,-264.5 204.77,-271.5"/>
</g>
<!-- Node5&#45;&gt;Node3 -->
<g id="edge5" class="edge">
<title>Node5&#45;&gt;Node3</title>
<path fill="none" stroke="midnightblue" d="M862.31,-252.29C727.48,-256.08 509.27,-262.21 389.14,-265.58"/>
<polygon fill="midnightblue" stroke="midnightblue" points="862.78,-255.78 872.68,-252 862.59,-248.78 862.78,-255.78"/>
</g>
<!-- Node7 -->
<g id="node7" class="node">
<title>Node7</title>
<g id="a_node7"><a xlink:href="class_round_manager.html#abb654bc0114fc67d455ed6449d5bda22" target="_top" xlink:title=" ">
<polygon fill="white" stroke="black" points="1368,-316.5 1368,-337.5 1535,-337.5 1535,-316.5 1368,-316.5"/>
<text text-anchor="middle" x="1451.5" y="-323.9" font-family="Helvetica,sans-Serif" font-size="12.00">RoundManager.FixedUpdate</text>
</a>
</g>
</g>
<!-- Node6&#45;&gt;Node7 -->
<g id="edge7" class="edge">
<title>Node6&#45;&gt;Node7</title>
<path fill="none" stroke="midnightblue" d="M1617.03,-327C1590.14,-327 1561.25,-327 1535.31,-327"/>
<polygon fill="midnightblue" stroke="midnightblue" points="1617.23,-330.5 1627.23,-327 1617.23,-323.5 1617.23,-330.5"/>
</g>
<!-- Node9 -->
<g id="node9" class="node">
<title>Node9</title>
<g id="a_node9"><a xlink:href="class_u_i_handler.html#a52241b6fefb8a446c2c000202216bfd2" target="_top" xlink:title="Makes suggestion when the button is pressed">
<polygon fill="white" stroke="black" points="1355.5,-356.5 1355.5,-377.5 1547.5,-377.5 1547.5,-356.5 1355.5,-356.5"/>
<text text-anchor="middle" x="1451.5" y="-363.9" font-family="Helvetica,sans-Serif" font-size="12.00">UIHandler.MakeSuggestionButton</text>
</a>
</g>
</g>
<!-- Node8&#45;&gt;Node9 -->
<g id="edge9" class="edge">
<title>Node8&#45;&gt;Node9</title>
<path fill="none" stroke="midnightblue" d="M1607.04,-367C1587.37,-367 1566.98,-367 1547.71,-367"/>
<polygon fill="midnightblue" stroke="midnightblue" points="1607.25,-370.5 1617.25,-367 1607.25,-363.5 1607.25,-370.5"/>
</g>
<!-- Node10 -->
<g id="node10" class="node">
<title>Node10</title>
<g id="a_node10"><a xlink:href="class_round_manager.html#afb3821e66d79eeb0991f620ced62940a" target="_top" xlink:title="Maek suggestion after a delay time, used for free suggestion tile">
<polygon fill="white" stroke="black" points="1140,-356.5 1140,-377.5 1291,-377.5 1291,-356.5 1140,-356.5"/>
<text text-anchor="middle" x="1215.5" y="-363.9" font-family="Helvetica,sans-Serif" font-size="12.00">RoundManager.DelaySug</text>
</a>
</g>
</g>
<!-- Node9&#45;&gt;Node10 -->
<g id="edge10" class="edge">
<title>Node9&#45;&gt;Node10</title>
<path fill="none" stroke="midnightblue" d="M1345.24,-367C1326.99,-367 1308.36,-367 1291.14,-367"/>
<polygon fill="midnightblue" stroke="midnightblue" points="1345.32,-370.5 1355.32,-367 1345.32,-363.5 1345.32,-370.5"/>
</g>
<!-- Node10&#45;&gt;Node11 -->
<g id="edge11" class="edge">
<title>Node10&#45;&gt;Node11</title>
<path fill="none" stroke="midnightblue" d="M1129.7,-367C1107.4,-367 1083.42,-367 1061.39,-367"/>
<polygon fill="midnightblue" stroke="midnightblue" points="1129.82,-370.5 1139.82,-367 1129.82,-363.5 1129.82,-370.5"/>
</g>
<!-- Node12 -->
<g id="node12" class="node">
<title>Node12</title>
<g id="a_node12"><a xlink:href="class_user_controller.html#af896aefe0262e0d8f07fa5f18592877d" target="_top" xlink:title="Selects a tile for player movement">
<polygon fill="white" stroke="black" points="691,-336.5 691,-357.5 837,-357.5 837,-336.5 691,-336.5"/>
<text text-anchor="middle" x="764" y="-343.9" font-family="Helvetica,sans-Serif" font-size="12.00">UserController.SelectTile</text>
</a>
</g>
</g>
<!-- Node11&#45;&gt;Node12 -->
<g id="edge12" class="edge">
<title>Node11&#45;&gt;Node12</title>
<path fill="none" stroke="midnightblue" d="M889.68,-358.62C872.11,-356.99 853.9,-355.29 837,-353.71"/>
<polygon fill="midnightblue" stroke="midnightblue" points="889.65,-362.14 899.93,-359.58 890.3,-355.17 889.65,-362.14"/>
</g>
<!-- Node12&#45;&gt;Node2 -->
<g id="edge13" class="edge">
<title>Node12&#45;&gt;Node2</title>
<path fill="none" stroke="midnightblue" d="M713.49,-333.84C673.47,-323.21 617.87,-308.43 580.72,-298.56"/>
<polygon fill="midnightblue" stroke="midnightblue" points="712.75,-337.27 723.31,-336.45 714.55,-330.5 712.75,-337.27"/>
</g>
<!-- Node13 -->
<g id="node13" class="node">
<title>Node13</title>
<g id="a_node13"><a xlink:href="class_user_input_control_script.html#a13be570929e27dad6d3d452ccd5f52eb" target="_top" xlink:title="move player token to the tile the cursor is on">
<polygon fill="white" stroke="black" points="425,-336.5 425,-357.5 655,-357.5 655,-336.5 425,-336.5"/>
<text text-anchor="middle" x="540" y="-343.9" font-family="Helvetica,sans-Serif" font-size="12.00">UserInputControlScript.MovePlayerToken</text>
</a>
</g>
</g>
<!-- Node12&#45;&gt;Node13 -->
<g id="edge14" class="edge">
<title>Node12&#45;&gt;Node13</title>
<path fill="none" stroke="midnightblue" d="M680.79,-347C672.37,-347 663.71,-347 655.03,-347"/>
<polygon fill="midnightblue" stroke="midnightblue" points="680.92,-350.5 690.92,-347 680.92,-343.5 680.92,-350.5"/>
</g>
<!-- Node19 -->
<g id="node19" class="node">
<title>Node19</title>
<g id="a_node19"><a xlink:href="class_move_tokens_test_script.html#a8f13bba80a272ef71d23715279a9ad89" target="_top" xlink:title="Move player token to set room">
<polygon fill="white" stroke="black" points="1351,-80.5 1351,-101.5 1552,-101.5 1552,-80.5 1351,-80.5"/>
<text text-anchor="middle" x="1451.5" y="-87.9" font-family="Helvetica,sans-Serif" font-size="12.00">MoveTokensTestScript.MovePlayer</text>
</a>
</g>
</g>
<!-- Node18&#45;&gt;Node19 -->
<g id="edge21" class="edge">
<title>Node18&#45;&gt;Node19</title>
<path fill="none" stroke="midnightblue" d="M1635.93,-63.05C1599.47,-68.6 1556.59,-75.14 1521.46,-80.49"/>
<polygon fill="midnightblue" stroke="midnightblue" points="1636.67,-66.48 1646.03,-61.51 1635.62,-59.56 1636.67,-66.48"/>
</g>
<!-- Node20 -->
<g id="node20" class="node">
<title>Node20</title>
<g id="a_node20"><a xlink:href="class_suggestion.html#ab326cb791b6707926dd69497e79d159b" target="_top" xlink:title=" ">
<polygon fill="white" stroke="black" points="1390.5,-40.5 1390.5,-61.5 1512.5,-61.5 1512.5,-40.5 1390.5,-40.5"/>
<text text-anchor="middle" x="1451.5" y="-47.9" font-family="Helvetica,sans-Serif" font-size="12.00">Suggestion.Suggest</text>
</a>
</g>
</g>
<!-- Node18&#45;&gt;Node20 -->
<g id="edge22" class="edge">
<title>Node18&#45;&gt;Node20</title>
<path fill="none" stroke="midnightblue" d="M1611.42,-51C1577.94,-51 1541.96,-51 1512.71,-51"/>
<polygon fill="midnightblue" stroke="midnightblue" points="1611.71,-54.5 1621.71,-51 1611.71,-47.5 1611.71,-54.5"/>
</g>
<!-- Node21 -->
<g id="node21" class="node">
<title>Node21</title>
<g id="a_node21"><a xlink:href="class_user_controller.html#a6230816eec4c8be9bda248a166d7b9bd" target="_top" xlink:title="Makes suggestion">
<polygon fill="white" stroke="black" points="1124,-109.5 1124,-130.5 1307,-130.5 1307,-109.5 1124,-109.5"/>
<text text-anchor="middle" x="1215.5" y="-116.9" font-family="Helvetica,sans-Serif" font-size="12.00">UserController.MakeSuggestion</text>
</a>
</g>
</g>
<!-- Node20&#45;&gt;Node21 -->
<g id="edge23" class="edge">
<title>Node20&#45;&gt;Node21</title>
<path fill="none" stroke="midnightblue" d="M1380.38,-62.1C1367.84,-64.64 1354.96,-67.6 1343,-71 1306.07,-81.49 1264.88,-98.49 1239.83,-109.45"/>
<polygon fill="midnightblue" stroke="midnightblue" points="1381.19,-65.51 1390.34,-60.16 1379.85,-58.64 1381.19,-65.51"/>
</g>
<!-- Node21&#45;&gt;Node5 -->
<g id="edge25" class="edge">
<title>Node21&#45;&gt;Node5</title>
<path fill="none" stroke="midnightblue" d="M1186.51,-135.5C1138.46,-162.1 1041.51,-215.78 1000.5,-238.48"/>
<polygon fill="midnightblue" stroke="midnightblue" points="1188.38,-138.46 1195.43,-130.56 1184.99,-132.34 1188.38,-138.46"/>
</g>
<!-- Node22 -->
<g id="node22" class="node">
<title>Node22</title>
<g id="a_node22"><a xlink:href="class_u_i_handler.html#ae6960c4c231f0e85718af2150449bb1f" target="_top" xlink:title="Hides the suggestion panel">
<polygon fill="white" stroke="black" points="895,-89.5 895,-110.5 1066,-110.5 1066,-89.5 895,-89.5"/>
<text text-anchor="middle" x="980.5" y="-96.9" font-family="Helvetica,sans-Serif" font-size="12.00">UIHandler.ConfirmSuggestion</text>
</a>
</g>
</g>
<!-- Node21&#45;&gt;Node22 -->
<g id="edge24" class="edge">
<title>Node21&#45;&gt;Node22</title>
<path fill="none" stroke="midnightblue" d="M1113.47,-111.33C1097.74,-109.98 1081.62,-108.59 1066.29,-107.28"/>
<polygon fill="midnightblue" stroke="midnightblue" points="1113.49,-114.84 1123.75,-112.21 1114.08,-107.87 1113.49,-114.84"/>
</g>
<!-- Node23 -->
<g id="node23" class="node">
<title>Node23</title>
<g id="a_node23"><a xlink:href="class_suggestion_test.html#ac6fed8b504eb8b103cb5c38fa895edf3" target="_top" xlink:title="get test choices and make suggestion">
<polygon fill="white" stroke="black" points="885.5,-129.5 885.5,-150.5 1075.5,-150.5 1075.5,-129.5 885.5,-129.5"/>
<text text-anchor="middle" x="980.5" y="-136.9" font-family="Helvetica,sans-Serif" font-size="12.00">SuggestionTest.MakeSuggestion</text>
</a>
</g>
</g>
<!-- Node21&#45;&gt;Node23 -->
<g id="edge26" class="edge">
<title>Node21&#45;&gt;Node23</title>
<path fill="none" stroke="midnightblue" d="M1113.73,-128.65C1101.15,-129.73 1088.32,-130.83 1075.85,-131.9"/>
<polygon fill="midnightblue" stroke="midnightblue" points="1114.08,-132.13 1123.75,-127.79 1113.49,-125.16 1114.08,-132.13"/>
</g>
<!-- Node25 -->
<g id="node25" class="node">
<title>Node25</title>
<g id="a_node25"><a xlink:href="class_testing___movement_script.html#ae339e23abbecd335a3325f7c5cd886c5" target="_top" xlink:title=" ">
<polygon fill="white" stroke="black" points="1343,-0.5 1343,-21.5 1560,-21.5 1560,-0.5 1343,-0.5"/>
<text text-anchor="middle" x="1451.5" y="-7.9" font-family="Helvetica,sans-Serif" font-size="12.00">Testing_MovementScript.FixedUpdate</text>
</a>
</g>
</g>
<!-- Node24&#45;&gt;Node25 -->
<g id="edge28" class="edge">
<title>Node24&#45;&gt;Node25</title>
<path fill="none" stroke="midnightblue" d="M1585.41,-11C1577.01,-11 1568.59,-11 1560.3,-11"/>
<polygon fill="midnightblue" stroke="midnightblue" points="1585.66,-14.5 1595.66,-11 1585.66,-7.5 1585.66,-14.5"/>
</g>
</g>
</svg>
        <g id="navigator" transform="translate(0 0)" fill="#404254">
                <rect fill="#f2f5e9" fill-opacity="0.5" stroke="#606060" stroke-width=".5" x="0" y="0" width="60" height="60"/>
                <use id="zoomplus" xlink:href="#zoomPlus" x="17" y="9" onmousedown="handleZoom(evt,'in')"/>
                <use id="zoomminus" xlink:href="#zoomMin" x="42" y="9" onmousedown="handleZoom(evt,'out')"/>
                <use id="reset" xlink:href="#resetDef" x="30" y="36" onmousedown="handleReset()"/>
                <g id="arrowUp" xlink:href="#dirArrow" transform="translate(30 24)" onmousedown="handlePan(0,-1)">
                  <use xlink:href="#rim" fill="#404040">
                        <set attributeName="fill" to="#808080" begin="arrowUp.mouseover" end="arrowUp.mouseout"/>
                  </use>
                  <path fill="none" stroke="white" stroke-width="1.5" d="M0,-3.0v7 M-2.5,-0.5L0,-3.0L2.5,-0.5"/>
                </g>
                <g id="arrowRight" xlink:href="#dirArrow" transform="rotate(90) translate(36 -43)" onmousedown="handlePan(1,0)">
                  <use xlink:href="#rim" fill="#404040">
                        <set attributeName="fill" to="#808080" begin="arrowRight.mouseover" end="arrowRight.mouseout"/>
                  </use>
                  <path fill="none" stroke="white" stroke-width="1.5" d="M0,-3.0v7 M-2.5,-0.5L0,-3.0L2.5,-0.5"/>
                </g>
                <g id="arrowDown" xlink:href="#dirArrow" transform="rotate(180) translate(-30 -48)" onmousedown="handlePan(0,1)">
                  <use xlink:href="#rim" fill="#404040">
                        <set attributeName="fill" to="#808080" begin="arrowDown.mouseover" end="arrowDown.mouseout"/>
                  </use>
                  <path fill="none" stroke="white" stroke-width="1.5" d="M0,-3.0v7 M-2.5,-0.5L0,-3.0L2.5,-0.5"/>
                </g>
                <g id="arrowLeft" xlink:href="#dirArrow" transform="rotate(270) translate(-36 17)" onmousedown="handlePan(-1,0)">
                  <use xlink:href="#rim" fill="#404040">
                        <set attributeName="fill" to="#808080" begin="arrowLeft.mouseover" end="arrowLeft.mouseout"/>
                  </use>
                  <path fill="none" stroke="white" stroke-width="1.5" d="M0,-3.0v7 M-2.5,-0.5L0,-3.0L2.5,-0.5"/>
                </g>
        </g>
        <svg viewBox="0 0 15 15" width="100%" height="30px" preserveAspectRatio="xMaxYMin meet">
         <g id="arrow_out" transform="scale(0.3 0.3)">
          <a xlink:href="class_player_master_controller_a0447a8a21b5c0f2c94f9d27e0bcd0830_icgraph_org.svg" target="_base">
           <rect id="button" ry="5" rx="5" y="6" x="6" height="38" width="38"
                fill="#f2f5e9" fill-opacity="0.5" stroke="#606060" stroke-width="1.0"/>
           <path id="arrow"
             d="M 11.500037,31.436501 C 11.940474,20.09759 22.043105,11.32322 32.158766,21.979434 L 37.068811,17.246167 C 37.068811,17.246167 37.088388,32 37.088388,32 L 22.160133,31.978069 C 22.160133,31.978069 26.997745,27.140456 26.997745,27.140456 C 18.528582,18.264221 13.291696,25.230495 11.500037,31.436501 z"
             style="fill:#404040;"/>
          </a>
         </g>
        </svg>
</svg>
