<?xml version="1.0" encoding="UTF-8" standalone="no"?>
<!DOCTYPE svg PUBLIC "-//W3C//DTD SVG 1.1//EN"
 "http://www.w3.org/Graphics/SVG/1.1/DTD/svg11.dtd">
<!-- Generated by graphviz version 2.47.1 (20210417.1919)
 -->
<!-- Title: UnityTemplateProjects.SimpleCameraController.Update Pages: 1 -->
<svg width="786pt" height="150pt"
 viewBox="0.00 0.00 786.00 150.00" xmlns="http://www.w3.org/2000/svg" xmlns:xlink="http://www.w3.org/1999/xlink">
<g id="graph0" class="graph" transform="scale(1 1) rotate(0) translate(4 146)">
<title>UnityTemplateProjects.SimpleCameraController.Update</title>
<polygon fill="white" stroke="transparent" points="-4,4 -4,-146 782,-146 782,4 -4,4"/>
<!-- Node1 -->
<g id="node1" class="node">
<title>Node1</title>
<g id="a_node1"><a xlink:title=" ">
<polygon fill="#bfbfbf" stroke="black" points="0,-60.5 0,-81.5 308,-81.5 308,-60.5 0,-60.5"/>
<text text-anchor="middle" x="154" y="-67.9" font-family="Helvetica,sans-Serif" font-size="12.00">UnityTemplateProjects.SimpleCameraController.Update</text>
</a>
</g>
</g>
<!-- Node2 -->
<g id="node2" class="node">
<title>Node2</title>
<g id="a_node2"><a xlink:href="class_unity_template_projects_1_1_simple_camera_controller.html#ae2b6609babb235be936175d7455d2750" target="_top" xlink:title=" ">
<polygon fill="white" stroke="black" points="353,-120.5 353,-141.5 769,-141.5 769,-120.5 353,-120.5"/>
<text text-anchor="middle" x="561" y="-127.9" font-family="Helvetica,sans-Serif" font-size="12.00">UnityTemplateProjects.SimpleCameraController.GetInputTranslationDirection</text>
</a>
</g>
</g>
<!-- Node1&#45;&gt;Node2 -->
<g id="edge1" class="edge">
<title>Node1&#45;&gt;Node2</title>
<path fill="none" stroke="midnightblue" d="M197.9,-81.57C236.04,-90.61 293.43,-103.33 344,-111 365.39,-114.24 388.06,-117.04 410.36,-119.42"/>
<polygon fill="midnightblue" stroke="midnightblue" points="410.26,-122.93 420.57,-120.49 410.99,-115.97 410.26,-122.93"/>
</g>
<!-- Node3 -->
<g id="node3" class="node">
<title>Node3</title>
<g id="a_node3"><a xlink:href="class_unity_template_projects_1_1_simple_camera_controller_1_1_camera_state.html#a43c44b09172e63d2c28a5ac0034e5d43" target="_top" xlink:title=" ">
<polygon fill="white" stroke="black" points="355,-80.5 355,-101.5 767,-101.5 767,-80.5 355,-80.5"/>
<text text-anchor="middle" x="561" y="-87.9" font-family="Helvetica,sans-Serif" font-size="12.00">UnityTemplateProjects.SimpleCameraController.CameraState.LerpTowards</text>
</a>
</g>
</g>
<!-- Node1&#45;&gt;Node3 -->
<g id="edge2" class="edge">
<title>Node1&#45;&gt;Node3</title>
<path fill="none" stroke="midnightblue" d="M308.11,-78.56C320.1,-79.15 332.33,-79.76 344.63,-80.36"/>
<polygon fill="midnightblue" stroke="midnightblue" points="344.81,-83.88 354.97,-80.88 345.16,-76.89 344.81,-83.88"/>
</g>
<!-- Node4 -->
<g id="node4" class="node">
<title>Node4</title>
<g id="a_node4"><a xlink:href="class_unity_template_projects_1_1_simple_camera_controller_1_1_camera_state.html#af09a1ed9339d0221870048eade23c8d5" target="_top" xlink:title=" ">
<polygon fill="white" stroke="black" points="365.5,-40.5 365.5,-61.5 756.5,-61.5 756.5,-40.5 365.5,-40.5"/>
<text text-anchor="middle" x="561" y="-47.9" font-family="Helvetica,sans-Serif" font-size="12.00">UnityTemplateProjects.SimpleCameraController.CameraState.Translate</text>
</a>
</g>
</g>
<!-- Node1&#45;&gt;Node4 -->
<g id="edge3" class="edge">
<title>Node1&#45;&gt;Node4</title>
<path fill="none" stroke="midnightblue" d="M308.11,-63.44C323.46,-62.68 339.2,-61.9 354.97,-61.12"/>
<polygon fill="midnightblue" stroke="midnightblue" points="355.51,-64.6 365.33,-60.61 355.17,-57.61 355.51,-64.6"/>
</g>
<!-- Node5 -->
<g id="node5" class="node">
<title>Node5</title>
<g id="a_node5"><a xlink:href="class_unity_template_projects_1_1_simple_camera_controller_1_1_camera_state.html#abd88f273e1448fa66f1e99341180f423" target="_top" xlink:title=" ">
<polygon fill="white" stroke="black" points="344,-0.5 344,-21.5 778,-21.5 778,-0.5 344,-0.5"/>
<text text-anchor="middle" x="561" y="-7.9" font-family="Helvetica,sans-Serif" font-size="12.00">UnityTemplateProjects.SimpleCameraController.CameraState.UpdateTransform</text>
</a>
</g>
</g>
<!-- Node1&#45;&gt;Node5 -->
<g id="edge4" class="edge">
<title>Node1&#45;&gt;Node5</title>
<path fill="none" stroke="midnightblue" d="M197.9,-60.43C236.04,-51.39 293.43,-38.67 344,-31 365.39,-27.76 388.06,-24.96 410.36,-22.58"/>
<polygon fill="midnightblue" stroke="midnightblue" points="410.99,-26.03 420.57,-21.51 410.26,-19.07 410.99,-26.03"/>
</g>
</g>
</svg>
