<?xml version="1.0" encoding="UTF-8" standalone="no"?>
<!DOCTYPE svg PUBLIC "-//W3C//DTD SVG 1.1//EN"
 "http://www.w3.org/Graphics/SVG/1.1/DTD/svg11.dtd">
<!-- Generated by graphviz version 2.47.1 (20210417.1919)
 -->
<!-- Title: PlayerTokenScript.MoveToken Pages: 1 -->
<svg width="652pt" height="70pt"
 viewBox="0.00 0.00 652.00 70.00" xmlns="http://www.w3.org/2000/svg" xmlns:xlink="http://www.w3.org/1999/xlink">
<g id="graph0" class="graph" transform="scale(1 1) rotate(0) translate(4 66)">
<title>PlayerTokenScript.MoveToken</title>
<polygon fill="white" stroke="transparent" points="-4,4 -4,-66 648,-66 648,4 -4,4"/>
<!-- Node1 -->
<g id="node1" class="node">
<title>Node1</title>
<g id="a_node1"><a xlink:title=" ">
<polygon fill="#bfbfbf" stroke="black" points="0,-20.5 0,-41.5 176,-41.5 176,-20.5 0,-20.5"/>
<text text-anchor="middle" x="88" y="-27.9" font-family="Helvetica,sans-Serif" font-size="12.00">PlayerTokenScript.MoveToken</text>
</a>
</g>
</g>
<!-- Node2 -->
<g id="node2" class="node">
<title>Node2</title>
<g id="a_node2"><a xlink:href="class_camera_close_up.html#aee634e08987ea079413fd67b737b2c5d" target="_top" xlink:title="Set camera close up to character">
<polygon fill="white" stroke="black" points="212,-40.5 212,-61.5 436,-61.5 436,-40.5 212,-40.5"/>
<text text-anchor="middle" x="324" y="-47.9" font-family="Helvetica,sans-Serif" font-size="12.00">CameraCloseUp.SetCharacterCloseUp</text>
</a>
</g>
</g>
<!-- Node1&#45;&gt;Node2 -->
<g id="edge1" class="edge">
<title>Node1&#45;&gt;Node2</title>
<path fill="none" stroke="midnightblue" d="M176.13,-38.45C184.54,-39.17 193.16,-39.9 201.82,-40.64"/>
<polygon fill="midnightblue" stroke="midnightblue" points="201.72,-44.15 211.99,-41.51 202.32,-37.17 201.72,-44.15"/>
</g>
<!-- Node4 -->
<g id="node4" class="node">
<title>Node4</title>
<g id="a_node4"><a xlink:href="class_board_tile_script.html#a6257d1f00b3732f6d61a4d98b445890c" target="_top" xlink:title="setting the player token that is currently on this tile">
<polygon fill="white" stroke="black" points="248,-0.5 248,-21.5 400,-21.5 400,-0.5 248,-0.5"/>
<text text-anchor="middle" x="324" y="-7.9" font-family="Helvetica,sans-Serif" font-size="12.00">BoardTileScript.SetToken</text>
</a>
</g>
</g>
<!-- Node1&#45;&gt;Node4 -->
<g id="edge3" class="edge">
<title>Node1&#45;&gt;Node4</title>
<path fill="none" stroke="midnightblue" d="M176.13,-23.55C196.25,-21.83 217.64,-20.01 237.68,-18.29"/>
<polygon fill="midnightblue" stroke="midnightblue" points="238.04,-21.77 247.71,-17.44 237.45,-14.8 238.04,-21.77"/>
</g>
<!-- Node3 -->
<g id="node3" class="node">
<title>Node3</title>
<g id="a_node3"><a xlink:href="class_camera_close_up.html#a1d70afa00d6f67abee342c029af88fcf" target="_top" xlink:title="Set close up point">
<polygon fill="white" stroke="black" points="472,-40.5 472,-61.5 644,-61.5 644,-40.5 472,-40.5"/>
<text text-anchor="middle" x="558" y="-47.9" font-family="Helvetica,sans-Serif" font-size="12.00">CameraCloseUp.SetCloseUp</text>
</a>
</g>
</g>
<!-- Node2&#45;&gt;Node3 -->
<g id="edge2" class="edge">
<title>Node2&#45;&gt;Node3</title>
<path fill="none" stroke="midnightblue" d="M436.24,-51C444.76,-51 453.31,-51 461.71,-51"/>
<polygon fill="midnightblue" stroke="midnightblue" points="461.87,-54.5 471.87,-51 461.87,-47.5 461.87,-54.5"/>
</g>
</g>
</svg>
