<?xml version="1.0" encoding="UTF-8" standalone="no"?>
<!DOCTYPE svg PUBLIC "-//W3C//DTD SVG 1.1//EN"
 "http://www.w3.org/Graphics/SVG/1.1/DTD/svg11.dtd">
<!-- Generated by graphviz version 2.47.1 (20210417.1919)
 -->
<!-- Title: PlayerTokenScript.UpdateTokenMovement Pages: 1 -->
<svg width="714pt" height="30pt"
 viewBox="0.00 0.00 714.00 30.00" xmlns="http://www.w3.org/2000/svg" xmlns:xlink="http://www.w3.org/1999/xlink">
<g id="graph0" class="graph" transform="scale(1 1) rotate(0) translate(4 26)">
<title>PlayerTokenScript.UpdateTokenMovement</title>
<polygon fill="white" stroke="transparent" points="-4,4 -4,-26 710,-26 710,4 -4,4"/>
<!-- Node1 -->
<g id="node1" class="node">
<title>Node1</title>
<g id="a_node1"><a xlink:title=" ">
<polygon fill="#bfbfbf" stroke="black" points="0,-0.5 0,-21.5 240,-21.5 240,-0.5 0,-0.5"/>
<text text-anchor="middle" x="120" y="-7.9" font-family="Helvetica,sans-Serif" font-size="12.00">PlayerTokenScript.UpdateTokenMovement</text>
</a>
</g>
</g>
<!-- Node2 -->
<g id="node2" class="node">
<title>Node2</title>
<g id="a_node2"><a xlink:href="class_camera_close_up.html#ad31062bdf359a453fc85ebdd71fa1bae" target="_top" xlink:title="Clear camera close up">
<polygon fill="white" stroke="black" points="276,-0.5 276,-21.5 458,-21.5 458,-0.5 276,-0.5"/>
<text text-anchor="middle" x="367" y="-7.9" font-family="Helvetica,sans-Serif" font-size="12.00">CameraCloseUp.ClearCloseUp</text>
</a>
</g>
</g>
<!-- Node1&#45;&gt;Node2 -->
<g id="edge1" class="edge">
<title>Node1&#45;&gt;Node2</title>
<path fill="none" stroke="midnightblue" d="M240.27,-11C248.75,-11 257.25,-11 265.61,-11"/>
<polygon fill="midnightblue" stroke="midnightblue" points="265.72,-14.5 275.72,-11 265.72,-7.5 265.72,-14.5"/>
</g>
<!-- Node3 -->
<g id="node3" class="node">
<title>Node3</title>
<g id="a_node3"><a xlink:href="class_camera_close_up.html#ae902d2ccdf969212e0cb84f638f68851" target="_top" xlink:title="Delay then clear close up">
<polygon fill="white" stroke="black" points="494,-0.5 494,-21.5 706,-21.5 706,-0.5 494,-0.5"/>
<text text-anchor="middle" x="600" y="-7.9" font-family="Helvetica,sans-Serif" font-size="12.00">CameraCloseUp.ClearCloseUpDelay</text>
</a>
</g>
</g>
<!-- Node2&#45;&gt;Node3 -->
<g id="edge2" class="edge">
<title>Node2&#45;&gt;Node3</title>
<path fill="none" stroke="midnightblue" d="M458.3,-11C466.67,-11 475.22,-11 483.77,-11"/>
<polygon fill="midnightblue" stroke="midnightblue" points="483.8,-14.5 493.8,-11 483.8,-7.5 483.8,-14.5"/>
</g>
</g>
</svg>
