<?xml version="1.0" encoding="UTF-8" standalone="no"?>
<!DOCTYPE svg PUBLIC "-//W3C//DTD SVG 1.1//EN"
 "http://www.w3.org/Graphics/SVG/1.1/DTD/svg11.dtd">
<!-- Generated by graphviz version 2.47.1 (20210417.1919)
 -->
<!-- Title: UIHandler.StartBehaviour Pages: 1 -->
<svg width="845pt" height="150pt"
 viewBox="0.00 0.00 845.00 150.00" xmlns="http://www.w3.org/2000/svg" xmlns:xlink="http://www.w3.org/1999/xlink">
<g id="graph0" class="graph" transform="scale(1 1) rotate(0) translate(4 146)">
<title>UIHandler.StartBehaviour</title>
<polygon fill="white" stroke="transparent" points="-4,4 -4,-146 841,-146 841,4 -4,4"/>
<!-- Node1 -->
<g id="node1" class="node">
<title>Node1</title>
<g id="a_node1"><a xlink:title="Starting behaviour">
<polygon fill="#bfbfbf" stroke="black" points="0,-60.5 0,-81.5 148,-81.5 148,-60.5 0,-60.5"/>
<text text-anchor="middle" x="74" y="-67.9" font-family="Helvetica,sans-Serif" font-size="12.00">UIHandler.StartBehaviour</text>
</a>
</g>
</g>
<!-- Node2 -->
<g id="node2" class="node">
<title>Node2</title>
<g id="a_node2"><a xlink:href="class_u_i_handler.html#abe1710aca2abe4dbb489f0c49a3af879" target="_top" xlink:title="To display the View Blocker can include the name of the player that needs it&#39;s attention">
<polygon fill="white" stroke="black" points="200.5,-120.5 200.5,-141.5 376.5,-141.5 376.5,-120.5 200.5,-120.5"/>
<text text-anchor="middle" x="288.5" y="-127.9" font-family="Helvetica,sans-Serif" font-size="12.00">UIHandler.DisplayViewBlocker</text>
</a>
</g>
</g>
<!-- Node1&#45;&gt;Node2 -->
<g id="edge1" class="edge">
<title>Node1&#45;&gt;Node2</title>
<path fill="none" stroke="midnightblue" d="M100.17,-81.55C122.02,-90.39 154.68,-102.84 184,-111 193.82,-113.73 204.27,-116.22 214.6,-118.45"/>
<polygon fill="midnightblue" stroke="midnightblue" points="213.95,-121.88 224.45,-120.5 215.38,-115.03 213.95,-121.88"/>
</g>
<!-- Node3 -->
<g id="node3" class="node">
<title>Node3</title>
<g id="a_node3"><a xlink:href="class_player_master_controller.html#a12c91851433777ae557a71d9f9a855f0" target="_top" xlink:title=" ">
<polygon fill="white" stroke="black" points="184,-80.5 184,-101.5 393,-101.5 393,-80.5 184,-80.5"/>
<text text-anchor="middle" x="288.5" y="-87.9" font-family="Helvetica,sans-Serif" font-size="12.00">PlayerMasterController.GetCharacter</text>
</a>
</g>
</g>
<!-- Node1&#45;&gt;Node3 -->
<g id="edge2" class="edge">
<title>Node1&#45;&gt;Node3</title>
<path fill="none" stroke="midnightblue" d="M148.13,-77.88C156.41,-78.66 165,-79.47 173.65,-80.28"/>
<polygon fill="midnightblue" stroke="midnightblue" points="173.53,-83.79 183.82,-81.24 174.19,-76.82 173.53,-83.79"/>
</g>
<!-- Node4 -->
<g id="node4" class="node">
<title>Node4</title>
<g id="a_node4"><a xlink:href="class_user_controller.html#a587c55687141d18f375e0504ea4649fa" target="_top" xlink:title="Gets the player controller for the current player">
<polygon fill="white" stroke="black" points="196,-40.5 196,-61.5 381,-61.5 381,-40.5 196,-40.5"/>
<text text-anchor="middle" x="288.5" y="-47.9" font-family="Helvetica,sans-Serif" font-size="12.00">UserController.GetCurrentPlayer</text>
</a>
</g>
</g>
<!-- Node1&#45;&gt;Node4 -->
<g id="edge3" class="edge">
<title>Node1&#45;&gt;Node4</title>
<path fill="none" stroke="midnightblue" d="M148.13,-64.12C160.26,-62.98 173.02,-61.77 185.7,-60.58"/>
<polygon fill="midnightblue" stroke="midnightblue" points="186.21,-64.05 195.84,-59.63 185.56,-57.08 186.21,-64.05"/>
</g>
<!-- Node7 -->
<g id="node7" class="node">
<title>Node7</title>
<g id="a_node7"><a xlink:href="class_enum_to_string.html#a078a1fb16a0030544fac1b96a90b6b83" target="_top" xlink:title="Get a string value from a valid enum">
<polygon fill="white" stroke="black" points="188,-0.5 188,-21.5 389,-21.5 389,-0.5 188,-0.5"/>
<text text-anchor="middle" x="288.5" y="-7.9" font-family="Helvetica,sans-Serif" font-size="12.00">EnumToString.GetStringFromEnum</text>
</a>
</g>
</g>
<!-- Node1&#45;&gt;Node7 -->
<g id="edge6" class="edge">
<title>Node1&#45;&gt;Node7</title>
<path fill="none" stroke="midnightblue" d="M100.17,-60.45C122.02,-51.61 154.68,-39.16 184,-31 193.82,-28.27 204.27,-25.78 214.6,-23.55"/>
<polygon fill="midnightblue" stroke="midnightblue" points="215.38,-26.97 224.45,-21.5 213.95,-20.12 215.38,-26.97"/>
</g>
<!-- Node5 -->
<g id="node5" class="node">
<title>Node5</title>
<g id="a_node5"><a xlink:href="class_round_manager.html#aab3f49a5e05508a8e023a497e763c1c8" target="_top" xlink:title="Gets the player controller for the current player">
<polygon fill="white" stroke="black" points="429,-40.5 429,-61.5 619,-61.5 619,-40.5 429,-40.5"/>
<text text-anchor="middle" x="524" y="-47.9" font-family="Helvetica,sans-Serif" font-size="12.00">RoundManager.GetCurrentPlayer</text>
</a>
</g>
</g>
<!-- Node4&#45;&gt;Node5 -->
<g id="edge4" class="edge">
<title>Node4&#45;&gt;Node5</title>
<path fill="none" stroke="midnightblue" d="M381.12,-51C393.52,-51 406.31,-51 418.91,-51"/>
<polygon fill="midnightblue" stroke="midnightblue" points="418.96,-54.5 428.96,-51 418.96,-47.5 418.96,-54.5"/>
</g>
<!-- Node6 -->
<g id="node6" class="node">
<title>Node6</title>
<g id="a_node6"><a xlink:href="class_turn_controller.html#af16e42b7e61c5a999291327e2e556caa" target="_top" xlink:title=" ">
<polygon fill="white" stroke="black" points="655,-40.5 655,-61.5 837,-61.5 837,-40.5 655,-40.5"/>
<text text-anchor="middle" x="746" y="-47.9" font-family="Helvetica,sans-Serif" font-size="12.00">TurnController.GetCurrentPlayer</text>
</a>
</g>
</g>
<!-- Node5&#45;&gt;Node6 -->
<g id="edge5" class="edge">
<title>Node5&#45;&gt;Node6</title>
<path fill="none" stroke="midnightblue" d="M619.26,-51C627.63,-51 636.13,-51 644.55,-51"/>
<polygon fill="midnightblue" stroke="midnightblue" points="644.78,-54.5 654.78,-51 644.78,-47.5 644.78,-54.5"/>
</g>
</g>
</svg>
