<?xml version="1.0" encoding="UTF-8" standalone="no"?>
<!DOCTYPE svg PUBLIC "-//W3C//DTD SVG 1.1//EN"
 "http://www.w3.org/Graphics/SVG/1.1/DTD/svg11.dtd">
<!-- Generated by graphviz version 2.47.1 (20210417.1919)
 -->
<!-- Title: GameSetUpScript Pages: 1 -->
<svg width="121pt" height="224pt"
 viewBox="0.00 0.00 121.00 224.00" xmlns="http://www.w3.org/2000/svg" xmlns:xlink="http://www.w3.org/1999/xlink">
<g id="graph0" class="graph" transform="scale(1 1) rotate(0) translate(4 220)">
<title>GameSetUpScript</title>
<polygon fill="white" stroke="transparent" points="-4,4 -4,-220 117,-220 117,4 -4,4"/>
<!-- Node1 -->
<g id="node1" class="node">
<title>Node1</title>
<g id="a_node1"><a xlink:title="for passing the selection of which player is human or AI from the main menu">
<polygon fill="#bfbfbf" stroke="black" points="0,-0.5 0,-115.5 113,-115.5 113,-0.5 0,-0.5"/>
<text text-anchor="middle" x="56.5" y="-101.9" font-family="Helvetica,sans-Serif" font-size="12.00">GameSetUpScript</text>
<polyline fill="none" stroke="black" points="0,-94.5 113,-94.5 "/>
<text text-anchor="start" x="8" y="-80.9" font-family="Helvetica,sans-Serif" font-size="12.00">+ ToggleResults</text>
<text text-anchor="start" x="8" y="-67.9" font-family="Helvetica,sans-Serif" font-size="12.00">&#45; toggles</text>
<text text-anchor="start" x="8" y="-54.9" font-family="Helvetica,sans-Serif" font-size="12.00">&#45; toggleResults</text>
<polyline fill="none" stroke="black" points="0,-47.5 113,-47.5 "/>
<text text-anchor="start" x="8" y="-33.9" font-family="Helvetica,sans-Serif" font-size="12.00">+ SaveChoices()</text>
<text text-anchor="start" x="8" y="-20.9" font-family="Helvetica,sans-Serif" font-size="12.00">+ StartGame()</text>
<text text-anchor="start" x="8" y="-7.9" font-family="Helvetica,sans-Serif" font-size="12.00">&#45; Awake()</text>
</a>
</g>
</g>
<!-- Node2 -->
<g id="node2" class="node">
<title>Node2</title>
<g id="a_node2"><a xlink:title=" ">
<polygon fill="white" stroke="#bfbfbf" points="7.5,-152.5 7.5,-215.5 105.5,-215.5 105.5,-152.5 7.5,-152.5"/>
<text text-anchor="middle" x="56.5" y="-201.9" font-family="Helvetica,sans-Serif" font-size="12.00">MonoBehaviour</text>
<polyline fill="none" stroke="#bfbfbf" points="7.5,-194.5 105.5,-194.5 "/>
<text text-anchor="middle" x="56.5" y="-180.9" font-family="Helvetica,sans-Serif" font-size="12.00"> </text>
<polyline fill="none" stroke="#bfbfbf" points="7.5,-173.5 105.5,-173.5 "/>
<text text-anchor="middle" x="56.5" y="-159.9" font-family="Helvetica,sans-Serif" font-size="12.00"> </text>
</a>
</g>
</g>
<!-- Node2&#45;&gt;Node1 -->
<g id="edge1" class="edge">
<title>Node2&#45;&gt;Node1</title>
<path fill="none" stroke="midnightblue" d="M56.5,-142.09C56.5,-133.7 56.5,-124.73 56.5,-115.89"/>
<polygon fill="none" stroke="midnightblue" points="53,-142.35 56.5,-152.35 60,-142.35 53,-142.35"/>
</g>
</g>
</svg>
