<?xml version="1.0" encoding="UTF-8" standalone="no"?>
<!DOCTYPE svg PUBLIC "-//W3C//DTD SVG 1.1//EN"
 "http://www.w3.org/Graphics/SVG/1.1/DTD/svg11.dtd">
<!-- Generated by graphviz version 2.47.1 (20210417.1919)
 -->
<!-- Title: UserController.SetCharacter Pages: 1 -->
<svg width="378pt" height="110pt"
 viewBox="0.00 0.00 378.00 110.00" xmlns="http://www.w3.org/2000/svg" xmlns:xlink="http://www.w3.org/1999/xlink">
<g id="graph0" class="graph" transform="scale(1 1) rotate(0) translate(4 106)">
<title>UserController.SetCharacter</title>
<polygon fill="white" stroke="transparent" points="-4,4 -4,-106 374,-106 374,4 -4,4"/>
<!-- Node1 -->
<g id="node1" class="node">
<title>Node1</title>
<g id="a_node1"><a xlink:title="Sets character for suggestions and accusation">
<polygon fill="#bfbfbf" stroke="black" points="0,-40.5 0,-61.5 164,-61.5 164,-40.5 0,-40.5"/>
<text text-anchor="middle" x="82" y="-47.9" font-family="Helvetica,sans-Serif" font-size="12.00">UserController.SetCharacter</text>
</a>
</g>
</g>
<!-- Node2 -->
<g id="node2" class="node">
<title>Node2</title>
<g id="a_node2"><a xlink:href="class_card_manager.html#a124d7d9ab3a0e7c22ca64c15da76d4b1" target="_top" xlink:title="Looks for the specified weapon card">
<polygon fill="white" stroke="black" points="214,-80.5 214,-101.5 356,-101.5 356,-80.5 214,-80.5"/>
<text text-anchor="middle" x="285" y="-87.9" font-family="Helvetica,sans-Serif" font-size="12.00">CardManager.FindCard</text>
</a>
</g>
</g>
<!-- Node1&#45;&gt;Node2 -->
<g id="edge1" class="edge">
<title>Node1&#45;&gt;Node2</title>
<path fill="none" stroke="midnightblue" d="M135.81,-61.51C162.02,-66.73 193.86,-73.06 221.3,-78.52"/>
<polygon fill="midnightblue" stroke="midnightblue" points="220.7,-81.97 231.19,-80.49 222.07,-75.11 220.7,-81.97"/>
</g>
<!-- Node3 -->
<g id="node3" class="node">
<title>Node3</title>
<g id="a_node3"><a xlink:href="class_accusation.html#ac3146e7ac1d8844109100dc748bba140" target="_top" xlink:title="Set the current character for accusing">
<polygon fill="white" stroke="black" points="211.5,-40.5 211.5,-61.5 358.5,-61.5 358.5,-40.5 211.5,-40.5"/>
<text text-anchor="middle" x="285" y="-47.9" font-family="Helvetica,sans-Serif" font-size="12.00">Accusation.SetCharacter</text>
</a>
</g>
</g>
<!-- Node1&#45;&gt;Node3 -->
<g id="edge2" class="edge">
<title>Node1&#45;&gt;Node3</title>
<path fill="none" stroke="midnightblue" d="M164.18,-51C176.35,-51 188.91,-51 201.12,-51"/>
<polygon fill="midnightblue" stroke="midnightblue" points="201.27,-54.5 211.27,-51 201.27,-47.5 201.27,-54.5"/>
</g>
<!-- Node4 -->
<g id="node4" class="node">
<title>Node4</title>
<g id="a_node4"><a xlink:href="class_suggestion.html#ae03e87f844af513f0b46a5447a2cd427" target="_top" xlink:title=" ">
<polygon fill="white" stroke="black" points="200,-0.5 200,-21.5 370,-21.5 370,-0.5 200,-0.5"/>
<text text-anchor="middle" x="285" y="-7.9" font-family="Helvetica,sans-Serif" font-size="12.00">Suggestion.SetSugCharacter</text>
</a>
</g>
</g>
<!-- Node1&#45;&gt;Node4 -->
<g id="edge3" class="edge">
<title>Node1&#45;&gt;Node4</title>
<path fill="none" stroke="midnightblue" d="M135.81,-40.49C162.02,-35.27 193.86,-28.94 221.3,-23.48"/>
<polygon fill="midnightblue" stroke="midnightblue" points="222.07,-26.89 231.19,-21.51 220.7,-20.03 222.07,-26.89"/>
</g>
</g>
</svg>
