<?xml version="1.0" encoding="UTF-8" standalone="no"?>
<!DOCTYPE svg PUBLIC "-//W3C//DTD SVG 1.1//EN"
 "http://www.w3.org/Graphics/SVG/1.1/DTD/svg11.dtd">
<!-- Generated by graphviz version 2.47.1 (20210417.1919)
 -->
<!-- Title: NotebookButton Pages: 1 -->
<svg width="124pt" height="250pt"
 viewBox="0.00 0.00 124.00 250.00" xmlns="http://www.w3.org/2000/svg" xmlns:xlink="http://www.w3.org/1999/xlink">
<g id="graph0" class="graph" transform="scale(1 1) rotate(0) translate(4 246)">
<title>NotebookButton</title>
<polygon fill="white" stroke="transparent" points="-4,4 -4,-246 120,-246 120,4 -4,4"/>
<!-- Node1 -->
<g id="node1" class="node">
<title>Node1</title>
<g id="a_node1"><a xlink:title="Script for the notebook button Gameobject">
<polygon fill="#bfbfbf" stroke="black" points="0,-0.5 0,-141.5 116,-141.5 116,-0.5 0,-0.5"/>
<text text-anchor="middle" x="58" y="-127.9" font-family="Helvetica,sans-Serif" font-size="12.00">NotebookButton</text>
<polyline fill="none" stroke="black" points="0,-120.5 116,-120.5 "/>
<text text-anchor="start" x="8" y="-106.9" font-family="Helvetica,sans-Serif" font-size="12.00">+ ButtonType</text>
<text text-anchor="start" x="8" y="-93.9" font-family="Helvetica,sans-Serif" font-size="12.00">&#45; buttonType</text>
<text text-anchor="start" x="8" y="-80.9" font-family="Helvetica,sans-Serif" font-size="12.00">&#45; buttonText</text>
<text text-anchor="start" x="8" y="-67.9" font-family="Helvetica,sans-Serif" font-size="12.00">&#45; crossedOutImage</text>
<text text-anchor="start" x="8" y="-54.9" font-family="Helvetica,sans-Serif" font-size="12.00">&#45; notebookScript</text>
<polyline fill="none" stroke="black" points="0,-47.5 116,-47.5 "/>
<text text-anchor="start" x="8" y="-33.9" font-family="Helvetica,sans-Serif" font-size="12.00">+ SetButtonType()</text>
<text text-anchor="start" x="8" y="-20.9" font-family="Helvetica,sans-Serif" font-size="12.00">+ setCrossedOut()</text>
<text text-anchor="start" x="8" y="-7.9" font-family="Helvetica,sans-Serif" font-size="12.00">+ ClickButton()</text>
</a>
</g>
</g>
<!-- Node2 -->
<g id="node2" class="node">
<title>Node2</title>
<g id="a_node2"><a xlink:title=" ">
<polygon fill="white" stroke="#bfbfbf" points="9,-178.5 9,-241.5 107,-241.5 107,-178.5 9,-178.5"/>
<text text-anchor="middle" x="58" y="-227.9" font-family="Helvetica,sans-Serif" font-size="12.00">MonoBehaviour</text>
<polyline fill="none" stroke="#bfbfbf" points="9,-220.5 107,-220.5 "/>
<text text-anchor="middle" x="58" y="-206.9" font-family="Helvetica,sans-Serif" font-size="12.00"> </text>
<polyline fill="none" stroke="#bfbfbf" points="9,-199.5 107,-199.5 "/>
<text text-anchor="middle" x="58" y="-185.9" font-family="Helvetica,sans-Serif" font-size="12.00"> </text>
</a>
</g>
</g>
<!-- Node2&#45;&gt;Node1 -->
<g id="edge1" class="edge">
<title>Node2&#45;&gt;Node1</title>
<path fill="none" stroke="midnightblue" d="M58,-168.04C58,-159.66 58,-150.62 58,-141.55"/>
<polygon fill="none" stroke="midnightblue" points="54.5,-168.25 58,-178.25 61.5,-168.25 54.5,-168.25"/>
</g>
</g>
</svg>
