<?xml version="1.0" encoding="UTF-8" standalone="no"?>
<!DOCTYPE svg PUBLIC "-//W3C//DTD SVG 1.1//EN"
 "http://www.w3.org/Graphics/SVG/1.1/DTD/svg11.dtd">
<!-- Generated by graphviz version 2.47.1 (20210417.1919)
 -->
<!-- Title: Card.GetCardType Pages: 1 -->
<svg width="2210pt" height="324pt"
 viewBox="0.00 0.00 2210.00 323.52" xmlns="http://www.w3.org/2000/svg" xmlns:xlink="http://www.w3.org/1999/xlink">
<g id="graph0" class="graph" transform="scale(1 1) rotate(0) translate(4 319.52)">
<title>Card.GetCardType</title>
<polygon fill="white" stroke="transparent" points="-4,4 -4,-319.52 2206,-319.52 2206,4 -4,4"/>
<!-- Node1 -->
<g id="node1" class="node">
<title>Node1</title>
<g id="a_node1"><a xlink:title=" ">
<polygon fill="#bfbfbf" stroke="black" points="2086,-140.5 2086,-161.5 2202,-161.5 2202,-140.5 2086,-140.5"/>
<text text-anchor="middle" x="2144" y="-147.9" font-family="Helvetica,sans-Serif" font-size="12.00">Card.GetCardType</text>
</a>
</g>
</g>
<!-- Node2 -->
<g id="node2" class="node">
<title>Node2</title>
<g id="a_node2"><a xlink:href="class_a_i_controller_script.html#af8ec3d63334b6e9973a077d6ad401f59" target="_top" xlink:title="to decide a random character from the To Guess List">
<polygon fill="white" stroke="black" points="1369,-239.5 1369,-260.5 1577,-260.5 1577,-239.5 1369,-239.5"/>
<text text-anchor="middle" x="1473" y="-246.9" font-family="Helvetica,sans-Serif" font-size="12.00">AIControllerScript.Decide_Character</text>
</a>
</g>
</g>
<!-- Node1&#45;&gt;Node2 -->
<g id="edge1" class="edge">
<title>Node1&#45;&gt;Node2</title>
<path fill="none" stroke="midnightblue" d="M2124.74,-169.03C2107.2,-185.07 2079.14,-207.56 2050,-218 1886.77,-276.5 1680.89,-270.51 1564.69,-260.5"/>
<polygon fill="midnightblue" stroke="midnightblue" points="2127.58,-171.16 2132.46,-161.75 2122.78,-166.06 2127.58,-171.16"/>
</g>
<!-- Node7 -->
<g id="node7" class="node">
<title>Node7</title>
<g id="a_node7"><a xlink:href="class_a_i_controller_script.html#a585a72fce6ad8b1d60160b2ae0762769" target="_top" xlink:title="to decide a random Room from the To Guess List">
<polygon fill="white" stroke="black" points="1379,-199.5 1379,-220.5 1567,-220.5 1567,-199.5 1379,-199.5"/>
<text text-anchor="middle" x="1473" y="-206.9" font-family="Helvetica,sans-Serif" font-size="12.00">AIControllerScript.Decide_Room</text>
</a>
</g>
</g>
<!-- Node1&#45;&gt;Node7 -->
<g id="edge7" class="edge">
<title>Node1&#45;&gt;Node7</title>
<path fill="none" stroke="midnightblue" d="M2114.81,-166.41C2096.83,-175.4 2072.72,-185.93 2050,-191 1883.02,-228.27 1682.11,-224.23 1567.11,-217.43"/>
<polygon fill="midnightblue" stroke="midnightblue" points="2116.82,-169.31 2124.12,-161.62 2113.62,-163.08 2116.82,-169.31"/>
</g>
<!-- Node8 -->
<g id="node8" class="node">
<title>Node8</title>
<g id="a_node8"><a xlink:href="class_a_i_controller_script.html#a739618354871d708a1e898c8b9a46dc8" target="_top" xlink:title="to decide a random weapon from the To Guess List">
<polygon fill="white" stroke="black" points="1373,-279.5 1373,-300.5 1573,-300.5 1573,-279.5 1373,-279.5"/>
<text text-anchor="middle" x="1473" y="-286.9" font-family="Helvetica,sans-Serif" font-size="12.00">AIControllerScript.Decide_Weapon</text>
</a>
</g>
</g>
<!-- Node1&#45;&gt;Node8 -->
<g id="edge10" class="edge">
<title>Node1&#45;&gt;Node8</title>
<path fill="none" stroke="midnightblue" d="M2131.74,-170.4C2116.57,-194.48 2087.16,-234.6 2050,-253 1878.7,-337.8 1642.88,-316.77 1533.8,-300.54"/>
<polygon fill="midnightblue" stroke="midnightblue" points="2134.79,-172.11 2137.01,-161.75 2128.81,-168.47 2134.79,-172.11"/>
</g>
<!-- Node9 -->
<g id="node9" class="node">
<title>Node9</title>
<g id="a_node9"><a xlink:href="class_suggestion_test.html#a8847864d96dc6762c7559e9579138897" target="_top" xlink:title="set the text for every players&#39; hand in the test UI">
<polygon fill="white" stroke="black" points="1836,-80.5 1836,-101.5 2050,-101.5 2050,-80.5 1836,-80.5"/>
<text text-anchor="middle" x="1943" y="-87.9" font-family="Helvetica,sans-Serif" font-size="12.00">SuggestionTest.GetPlayerCardsForUI</text>
</a>
</g>
</g>
<!-- Node1&#45;&gt;Node9 -->
<g id="edge13" class="edge">
<title>Node1&#45;&gt;Node9</title>
<path fill="none" stroke="midnightblue" d="M2112.74,-135.98C2094.86,-127.61 2071.56,-117.58 2050,-111 2037.91,-107.31 2024.83,-104.17 2012.11,-101.56"/>
<polygon fill="midnightblue" stroke="midnightblue" points="2111.54,-139.28 2122.08,-140.42 2114.55,-132.96 2111.54,-139.28"/>
</g>
<!-- Node11 -->
<g id="node11" class="node">
<title>Node11</title>
<g id="a_node11"><a xlink:href="class_player_stats_script.html#a54cae1c61ecf8a4af6ae97724b0dc725" target="_top" xlink:title="Initialise the notebook">
<polygon fill="white" stroke="black" points="1841.5,-40.5 1841.5,-61.5 2044.5,-61.5 2044.5,-40.5 1841.5,-40.5"/>
<text text-anchor="middle" x="1943" y="-47.9" font-family="Helvetica,sans-Serif" font-size="12.00">PlayerStatsScript.InitializeNotebook</text>
</a>
</g>
</g>
<!-- Node1&#45;&gt;Node11 -->
<g id="edge15" class="edge">
<title>Node1&#45;&gt;Node11</title>
<path fill="none" stroke="midnightblue" d="M2127.45,-132.92C2110.39,-114.33 2081.26,-86.04 2050,-71 2041.98,-67.14 2033.29,-64.03 2024.45,-61.51"/>
<polygon fill="midnightblue" stroke="midnightblue" points="2124.92,-135.34 2134.2,-140.46 2130.14,-130.67 2124.92,-135.34"/>
</g>
<!-- Node12 -->
<g id="node12" class="node">
<title>Node12</title>
<g id="a_node12"><a xlink:href="class_card_manager.html#a3aa02d8bc476530b2e8e18019aa8a00e" target="_top" xlink:title="Check if the cards passed matches the answer">
<polygon fill="white" stroke="black" points="1857.5,-160.5 1857.5,-181.5 2028.5,-181.5 2028.5,-160.5 1857.5,-160.5"/>
<text text-anchor="middle" x="1943" y="-167.9" font-family="Helvetica,sans-Serif" font-size="12.00">CardManager.IsMatchAnswer</text>
</a>
</g>
</g>
<!-- Node1&#45;&gt;Node12 -->
<g id="edge16" class="edge">
<title>Node1&#45;&gt;Node12</title>
<path fill="none" stroke="midnightblue" d="M2075.75,-157.76C2060.69,-159.27 2044.52,-160.9 2028.85,-162.47"/>
<polygon fill="midnightblue" stroke="midnightblue" points="2076.37,-161.21 2085.97,-156.73 2075.67,-154.25 2076.37,-161.21"/>
</g>
<!-- Node16 -->
<g id="node16" class="node">
<title>Node16</title>
<g id="a_node16"><a xlink:href="class_accusation_card_slot.html#a595d786e6f5d41e16b8ddcfb1a815010" target="_top" xlink:title=" ">
<polygon fill="white" stroke="black" points="1840.5,-0.5 1840.5,-21.5 2045.5,-21.5 2045.5,-0.5 1840.5,-0.5"/>
<text text-anchor="middle" x="1943" y="-7.9" font-family="Helvetica,sans-Serif" font-size="12.00">AccusationCardSlot.SetCardDetails</text>
</a>
</g>
</g>
<!-- Node1&#45;&gt;Node16 -->
<g id="edge21" class="edge">
<title>Node1&#45;&gt;Node16</title>
<path fill="none" stroke="midnightblue" d="M2133.54,-131.24C2119.39,-104 2090.05,-55.5 2050,-31 2043.77,-27.19 2036.98,-24.07 2029.94,-21.53"/>
<polygon fill="midnightblue" stroke="midnightblue" points="2130.44,-132.87 2138.05,-140.23 2136.69,-129.73 2130.44,-132.87"/>
</g>
<!-- Node18 -->
<g id="node18" class="node">
<title>Node18</title>
<g id="a_node18"><a xlink:href="class_card_slot.html#a4690c0753db45ada6b02681269ecfbb1" target="_top" xlink:title=" ">
<polygon fill="white" stroke="black" points="1869.5,-120.5 1869.5,-141.5 2016.5,-141.5 2016.5,-120.5 1869.5,-120.5"/>
<text text-anchor="middle" x="1943" y="-127.9" font-family="Helvetica,sans-Serif" font-size="12.00">CardSlot.SetCardDetails</text>
</a>
</g>
</g>
<!-- Node1&#45;&gt;Node18 -->
<g id="edge23" class="edge">
<title>Node1&#45;&gt;Node18</title>
<path fill="none" stroke="midnightblue" d="M2075.9,-144.26C2056.85,-142.34 2036.03,-140.25 2016.67,-138.3"/>
<polygon fill="midnightblue" stroke="midnightblue" points="2075.67,-147.75 2085.97,-145.27 2076.37,-140.79 2075.67,-147.75"/>
</g>
<!-- Node3 -->
<g id="node3" class="node">
<title>Node3</title>
<g id="a_node3"><a xlink:href="class_a_i_controller_script.html#a7be5eb284c6258672e70af128f8638df" target="_top" xlink:title="Decides that cards to accuse based on the To Guess List">
<polygon fill="white" stroke="black" points="1119,-237.5 1119,-258.5 1333,-258.5 1333,-237.5 1119,-237.5"/>
<text text-anchor="middle" x="1226" y="-244.9" font-family="Helvetica,sans-Serif" font-size="12.00">AIControllerScript.Decide_Accusation</text>
</a>
</g>
</g>
<!-- Node2&#45;&gt;Node3 -->
<g id="edge2" class="edge">
<title>Node2&#45;&gt;Node3</title>
<path fill="none" stroke="midnightblue" d="M1358.55,-249.07C1350.11,-249 1341.61,-248.94 1333.22,-248.87"/>
<polygon fill="midnightblue" stroke="midnightblue" points="1358.78,-252.58 1368.81,-249.16 1358.84,-245.58 1358.78,-252.58"/>
</g>
<!-- Node6 -->
<g id="node6" class="node">
<title>Node6</title>
<g id="a_node6"><a xlink:href="class_a_i_controller_script.html#affdf86fa313c46463a9a5a2b20020a17" target="_top" xlink:title="Decides what the AI should suggest this should match the flow chart of the AI">
<polygon fill="white" stroke="black" points="425,-276.5 425,-297.5 640,-297.5 640,-276.5 425,-276.5"/>
<text text-anchor="middle" x="532.5" y="-283.9" font-family="Helvetica,sans-Serif" font-size="12.00">AIControllerScript.Decide_Suggestion</text>
</a>
</g>
</g>
<!-- Node2&#45;&gt;Node6 -->
<g id="edge5" class="edge">
<title>Node2&#45;&gt;Node6</title>
<path fill="none" stroke="midnightblue" d="M1392.17,-261.8C1372.84,-264.25 1352.21,-266.53 1333,-268 1085.37,-286.92 793.46,-288.68 640.05,-288.02"/>
<polygon fill="midnightblue" stroke="midnightblue" points="1392.68,-265.26 1402.15,-260.5 1391.78,-258.32 1392.68,-265.26"/>
</g>
<!-- Node4 -->
<g id="node4" class="node">
<title>Node4</title>
<g id="a_node4"><a xlink:href="class_a_i_controller_script.html#ac31d9b8dbb75696b181eff1fbef41b97" target="_top" xlink:title="dictates what the AI will do depending on what mode it is in">
<polygon fill="white" stroke="black" points="215,-256.5 215,-277.5 389,-277.5 389,-256.5 215,-256.5"/>
<text text-anchor="middle" x="302" y="-263.9" font-family="Helvetica,sans-Serif" font-size="12.00">AIControllerScript.AIBehaviour</text>
</a>
</g>
</g>
<!-- Node3&#45;&gt;Node4 -->
<g id="edge3" class="edge">
<title>Node3&#45;&gt;Node4</title>
<path fill="none" stroke="midnightblue" d="M1108.6,-250.4C920.83,-254.27 555.35,-261.8 389.08,-265.23"/>
<polygon fill="midnightblue" stroke="midnightblue" points="1108.86,-253.89 1118.78,-250.19 1108.71,-246.9 1108.86,-253.89"/>
</g>
<!-- Node5 -->
<g id="node5" class="node">
<title>Node5</title>
<g id="a_node5"><a xlink:href="class_a_i_controller_script.html#a74dc0e720fafceb873d3b19c12f68d58" target="_top" xlink:title=" ">
<polygon fill="white" stroke="black" points="0,-256.5 0,-277.5 179,-277.5 179,-256.5 0,-256.5"/>
<text text-anchor="middle" x="89.5" y="-263.9" font-family="Helvetica,sans-Serif" font-size="12.00">AIControllerScript.FixedUpdate</text>
</a>
</g>
</g>
<!-- Node4&#45;&gt;Node5 -->
<g id="edge4" class="edge">
<title>Node4&#45;&gt;Node5</title>
<path fill="none" stroke="midnightblue" d="M204.57,-267C196.15,-267 187.67,-267 179.32,-267"/>
<polygon fill="midnightblue" stroke="midnightblue" points="204.77,-270.5 214.77,-267 204.77,-263.5 204.77,-270.5"/>
</g>
<!-- Node6&#45;&gt;Node4 -->
<g id="edge6" class="edge">
<title>Node6&#45;&gt;Node4</title>
<path fill="none" stroke="midnightblue" d="M414.82,-276.79C406.19,-276.03 397.58,-275.28 389.18,-274.54"/>
<polygon fill="midnightblue" stroke="midnightblue" points="414.68,-280.29 424.94,-277.67 415.29,-273.31 414.68,-280.29"/>
</g>
<!-- Node7&#45;&gt;Node3 -->
<g id="edge8" class="edge">
<title>Node7&#45;&gt;Node3</title>
<path fill="none" stroke="midnightblue" d="M1393.93,-222.11C1362.14,-227.04 1325.74,-232.69 1295.05,-237.44"/>
<polygon fill="midnightblue" stroke="midnightblue" points="1394.73,-225.53 1404.08,-220.53 1393.66,-218.61 1394.73,-225.53"/>
</g>
<!-- Node7&#45;&gt;Node6 -->
<g id="edge9" class="edge">
<title>Node7&#45;&gt;Node6</title>
<path fill="none" stroke="midnightblue" d="M1368.44,-213.93C1298.05,-216.93 1202.84,-221.64 1119,-228 943.4,-241.32 738.82,-263.45 623.9,-276.49"/>
<polygon fill="midnightblue" stroke="midnightblue" points="1368.8,-217.42 1378.65,-213.5 1368.51,-210.43 1368.8,-217.42"/>
</g>
<!-- Node8&#45;&gt;Node3 -->
<g id="edge11" class="edge">
<title>Node8&#45;&gt;Node3</title>
<path fill="none" stroke="midnightblue" d="M1400.21,-277.69C1364.78,-271.62 1322.47,-264.37 1288.53,-258.55"/>
<polygon fill="midnightblue" stroke="midnightblue" points="1400.04,-281.22 1410.49,-279.46 1401.23,-274.32 1400.04,-281.22"/>
</g>
<!-- Node8&#45;&gt;Node6 -->
<g id="edge12" class="edge">
<title>Node8&#45;&gt;Node6</title>
<path fill="none" stroke="midnightblue" d="M1362.88,-299.46C1352.78,-300.08 1342.71,-300.62 1333,-301 1041.23,-312.53 967.65,-315.29 676,-301 660.23,-300.23 643.52,-298.98 627.3,-297.53"/>
<polygon fill="midnightblue" stroke="midnightblue" points="1363.21,-302.94 1372.97,-298.8 1362.76,-295.96 1363.21,-302.94"/>
</g>
<!-- Node10 -->
<g id="node10" class="node">
<title>Node10</title>
<g id="a_node10"><a xlink:href="class_suggestion_test.html#a904e4481863c3e620574eba37c993a26" target="_top" xlink:title=" ">
<polygon fill="white" stroke="black" points="1643.5,-40.5 1643.5,-61.5 1769.5,-61.5 1769.5,-40.5 1643.5,-40.5"/>
<text text-anchor="middle" x="1706.5" y="-47.9" font-family="Helvetica,sans-Serif" font-size="12.00">SuggestionTest.Start</text>
</a>
</g>
</g>
<!-- Node9&#45;&gt;Node10 -->
<g id="edge14" class="edge">
<title>Node9&#45;&gt;Node10</title>
<path fill="none" stroke="midnightblue" d="M1870.53,-78.81C1838.14,-73.28 1800.22,-66.82 1769.11,-61.51"/>
<polygon fill="midnightblue" stroke="midnightblue" points="1869.94,-82.26 1880.39,-80.49 1871.12,-75.36 1869.94,-82.26"/>
</g>
<!-- Node13 -->
<g id="node13" class="node">
<title>Node13</title>
<g id="a_node13"><a xlink:href="class_round_manager.html#ab691cd5cd773e23822b237834b1fcb0a" target="_top" xlink:title="to have the current player to make an accusation eliminates the player if it is wrong wins the game i...">
<polygon fill="white" stroke="black" points="1613,-160.5 1613,-181.5 1800,-181.5 1800,-160.5 1613,-160.5"/>
<text text-anchor="middle" x="1706.5" y="-167.9" font-family="Helvetica,sans-Serif" font-size="12.00">RoundManager.MakeAccusation</text>
</a>
</g>
</g>
<!-- Node12&#45;&gt;Node13 -->
<g id="edge17" class="edge">
<title>Node12&#45;&gt;Node13</title>
<path fill="none" stroke="midnightblue" d="M1847.27,-171C1831.8,-171 1815.79,-171 1800.37,-171"/>
<polygon fill="midnightblue" stroke="midnightblue" points="1847.34,-174.5 1857.34,-171 1847.34,-167.5 1847.34,-174.5"/>
</g>
<!-- Node14 -->
<g id="node14" class="node">
<title>Node14</title>
<g id="a_node14"><a xlink:href="class_user_controller.html#aa90e4e2fed6b1d661933450f430b95ba" target="_top" xlink:title="Makes accusation">
<polygon fill="white" stroke="black" points="1382,-159.5 1382,-180.5 1564,-180.5 1564,-159.5 1382,-159.5"/>
<text text-anchor="middle" x="1473" y="-166.9" font-family="Helvetica,sans-Serif" font-size="12.00">UserController.MakeAccusation</text>
</a>
</g>
</g>
<!-- Node13&#45;&gt;Node14 -->
<g id="edge18" class="edge">
<title>Node13&#45;&gt;Node14</title>
<path fill="none" stroke="midnightblue" d="M1602.5,-170.56C1589.73,-170.5 1576.76,-170.44 1564.21,-170.39"/>
<polygon fill="midnightblue" stroke="midnightblue" points="1602.66,-174.06 1612.67,-170.6 1602.69,-167.06 1602.66,-174.06"/>
</g>
<!-- Node14&#45;&gt;Node3 -->
<g id="edge20" class="edge">
<title>Node14&#45;&gt;Node3</title>
<path fill="none" stroke="midnightblue" d="M1397.49,-182.66C1387.84,-184.83 1378.13,-187.28 1369,-190 1325.36,-203.01 1276.66,-224.52 1249.14,-237.37"/>
<polygon fill="midnightblue" stroke="midnightblue" points="1398.48,-186.03 1407.52,-180.5 1397,-179.19 1398.48,-186.03"/>
</g>
<!-- Node15 -->
<g id="node15" class="node">
<title>Node15</title>
<g id="a_node15"><a xlink:href="class_u_i_handler.html#adc2ae7669cebeb4d9109002f0d3e8c7a" target="_top" xlink:title="Hides the accusation menu">
<polygon fill="white" stroke="black" points="1141,-159.5 1141,-180.5 1311,-180.5 1311,-159.5 1141,-159.5"/>
<text text-anchor="middle" x="1226" y="-166.9" font-family="Helvetica,sans-Serif" font-size="12.00">UIHandler.ConfirmAccusation</text>
</a>
</g>
</g>
<!-- Node14&#45;&gt;Node15 -->
<g id="edge19" class="edge">
<title>Node14&#45;&gt;Node15</title>
<path fill="none" stroke="midnightblue" d="M1371.72,-170C1351.66,-170 1330.76,-170 1311.3,-170"/>
<polygon fill="midnightblue" stroke="midnightblue" points="1371.81,-173.5 1381.81,-170 1371.81,-166.5 1371.81,-173.5"/>
</g>
<!-- Node17 -->
<g id="node17" class="node">
<title>Node17</title>
<g id="a_node17"><a xlink:href="class_accusation_card_slot.html#a3baa56168b0122b356b29c4341ed0edd" target="_top" xlink:title=" ">
<polygon fill="white" stroke="black" points="1622.5,-0.5 1622.5,-21.5 1790.5,-21.5 1790.5,-0.5 1622.5,-0.5"/>
<text text-anchor="middle" x="1706.5" y="-7.9" font-family="Helvetica,sans-Serif" font-size="12.00">AccusationCardSlot.SetCard</text>
</a>
</g>
</g>
<!-- Node16&#45;&gt;Node17 -->
<g id="edge22" class="edge">
<title>Node16&#45;&gt;Node17</title>
<path fill="none" stroke="midnightblue" d="M1830.03,-11C1816.75,-11 1803.37,-11 1790.58,-11"/>
<polygon fill="midnightblue" stroke="midnightblue" points="1830.17,-14.5 1840.17,-11 1830.17,-7.5 1830.17,-14.5"/>
</g>
<!-- Node19 -->
<g id="node19" class="node">
<title>Node19</title>
<g id="a_node19"><a xlink:href="class_card_slot.html#a9049dedcebbbc4b2185a2a01d76d4ed5" target="_top" xlink:title=" ">
<polygon fill="white" stroke="black" points="1651.5,-120.5 1651.5,-141.5 1761.5,-141.5 1761.5,-120.5 1651.5,-120.5"/>
<text text-anchor="middle" x="1706.5" y="-127.9" font-family="Helvetica,sans-Serif" font-size="12.00">CardSlot.SetCard</text>
</a>
</g>
</g>
<!-- Node18&#45;&gt;Node19 -->
<g id="edge24" class="edge">
<title>Node18&#45;&gt;Node19</title>
<path fill="none" stroke="midnightblue" d="M1859.04,-131C1826.64,-131 1790.42,-131 1761.51,-131"/>
<polygon fill="midnightblue" stroke="midnightblue" points="1859.41,-134.5 1869.41,-131 1859.41,-127.5 1859.41,-134.5"/>
</g>
<!-- Node28 -->
<g id="node28" class="node">
<title>Node28</title>
<g id="a_node28"><a xlink:href="class_card_slot.html#ae310a62480f76e3854115d32beb1af00" target="_top" xlink:title=" ">
<polygon fill="white" stroke="black" points="1661,-80.5 1661,-101.5 1752,-101.5 1752,-80.5 1661,-80.5"/>
<text text-anchor="middle" x="1706.5" y="-87.9" font-family="Helvetica,sans-Serif" font-size="12.00">CardSlot.Start</text>
</a>
</g>
</g>
<!-- Node18&#45;&gt;Node28 -->
<g id="edge35" class="edge">
<title>Node18&#45;&gt;Node28</title>
<path fill="none" stroke="midnightblue" d="M1870.25,-118.76C1831.7,-112.19 1785.38,-104.29 1752.03,-98.6"/>
<polygon fill="midnightblue" stroke="midnightblue" points="1869.94,-122.26 1880.39,-120.49 1871.12,-115.36 1869.94,-122.26"/>
</g>
<!-- Node20 -->
<g id="node20" class="node">
<title>Node20</title>
<g id="a_node20"><a xlink:href="class_win_screen_script.html#a302ac9587462267075bd86d7c66e2ee8" target="_top" xlink:title="Update the win screen when enabled">
<polygon fill="white" stroke="black" points="1393,-79.5 1393,-100.5 1553,-100.5 1553,-79.5 1393,-79.5"/>
<text text-anchor="middle" x="1473" y="-86.9" font-family="Helvetica,sans-Serif" font-size="12.00">WinScreenScript.OnEnable</text>
</a>
</g>
</g>
<!-- Node19&#45;&gt;Node20 -->
<g id="edge25" class="edge">
<title>Node19&#45;&gt;Node20</title>
<path fill="none" stroke="midnightblue" d="M1641.03,-119.58C1607.4,-113.63 1566.52,-106.39 1533.63,-100.56"/>
<polygon fill="midnightblue" stroke="midnightblue" points="1640.77,-123.09 1651.22,-121.39 1641.99,-116.2 1640.77,-123.09"/>
</g>
<!-- Node21 -->
<g id="node21" class="node">
<title>Node21</title>
<g id="a_node21"><a xlink:href="class_u_i_handler.html#a4009ca74f59111933be2a637c7835e18" target="_top" xlink:title="Displays a card from a player that has it">
<polygon fill="white" stroke="black" points="1410,-119.5 1410,-140.5 1536,-140.5 1536,-119.5 1410,-119.5"/>
<text text-anchor="middle" x="1473" y="-126.9" font-family="Helvetica,sans-Serif" font-size="12.00">UIHandler.ShowCard</text>
</a>
</g>
</g>
<!-- Node19&#45;&gt;Node21 -->
<g id="edge26" class="edge">
<title>Node19&#45;&gt;Node21</title>
<path fill="none" stroke="midnightblue" d="M1640.85,-130.72C1608.09,-130.58 1568.51,-130.41 1536.12,-130.27"/>
<polygon fill="midnightblue" stroke="midnightblue" points="1641.21,-134.22 1651.22,-130.77 1641.24,-127.22 1641.21,-134.22"/>
</g>
<!-- Node22 -->
<g id="node22" class="node">
<title>Node22</title>
<g id="a_node22"><a xlink:href="class_round_manager.html#a780da336fd16dcaee0f00306578f13b4" target="_top" xlink:title=" ">
<polygon fill="white" stroke="black" points="1143,-79.5 1143,-100.5 1309,-100.5 1309,-79.5 1143,-79.5"/>
<text text-anchor="middle" x="1226" y="-86.9" font-family="Helvetica,sans-Serif" font-size="12.00">RoundManager.AIShowCard</text>
</a>
</g>
</g>
<!-- Node21&#45;&gt;Node22 -->
<g id="edge27" class="edge">
<title>Node21&#45;&gt;Node22</title>
<path fill="none" stroke="midnightblue" d="M1399.9,-118.23C1365.61,-112.63 1324.92,-105.99 1291.64,-100.55"/>
<polygon fill="midnightblue" stroke="midnightblue" points="1399.43,-121.7 1409.86,-119.85 1400.55,-114.79 1399.43,-121.7"/>
</g>
<!-- Node27 -->
<g id="node27" class="node">
<title>Node27</title>
<g id="a_node27"><a xlink:href="class_u_i_handler.html#a7e471e88a4baaa1993d0a85035c38016" target="_top" xlink:title="After pressing a card to choose pass this card to show it">
<polygon fill="white" stroke="black" points="1139.5,-119.5 1139.5,-140.5 1312.5,-140.5 1312.5,-119.5 1139.5,-119.5"/>
<text text-anchor="middle" x="1226" y="-126.9" font-family="Helvetica,sans-Serif" font-size="12.00">UIHandler.ShowSelectedCard</text>
</a>
</g>
</g>
<!-- Node21&#45;&gt;Node27 -->
<g id="edge34" class="edge">
<title>Node21&#45;&gt;Node27</title>
<path fill="none" stroke="midnightblue" d="M1399.61,-130C1372.33,-130 1341.04,-130 1312.66,-130"/>
<polygon fill="midnightblue" stroke="midnightblue" points="1399.86,-133.5 1409.86,-130 1399.86,-126.5 1399.86,-133.5"/>
</g>
<!-- Node23 -->
<g id="node23" class="node">
<title>Node23</title>
<g id="a_node23"><a xlink:href="class_round_manager.html#a596fc1c822ebb74dad8d238b15b1ea3a" target="_top" xlink:title="Iterate through the rest of the players searching for if 1 or more of the cards were found">
<polygon fill="white" stroke="black" points="895,-100.5 895,-121.5 1083,-121.5 1083,-100.5 895,-100.5"/>
<text text-anchor="middle" x="989" y="-107.9" font-family="Helvetica,sans-Serif" font-size="12.00">RoundManager.MakeSuggestion</text>
</a>
</g>
</g>
<!-- Node22&#45;&gt;Node23 -->
<g id="edge28" class="edge">
<title>Node22&#45;&gt;Node23</title>
<path fill="none" stroke="midnightblue" d="M1132.8,-98.24C1116.57,-99.69 1099.66,-101.2 1083.4,-102.65"/>
<polygon fill="midnightblue" stroke="midnightblue" points="1133.16,-101.72 1142.81,-97.34 1132.54,-94.75 1133.16,-101.72"/>
</g>
<!-- Node24 -->
<g id="node24" class="node">
<title>Node24</title>
<g id="a_node24"><a xlink:href="class_suggestion_test.html#ac6fed8b504eb8b103cb5c38fa895edf3" target="_top" xlink:title="get test choices and make suggestion">
<polygon fill="white" stroke="black" points="437.5,-100.5 437.5,-121.5 627.5,-121.5 627.5,-100.5 437.5,-100.5"/>
<text text-anchor="middle" x="532.5" y="-107.9" font-family="Helvetica,sans-Serif" font-size="12.00">SuggestionTest.MakeSuggestion</text>
</a>
</g>
</g>
<!-- Node23&#45;&gt;Node24 -->
<g id="edge29" class="edge">
<title>Node23&#45;&gt;Node24</title>
<path fill="none" stroke="midnightblue" d="M884.69,-111C807.41,-111 702.59,-111 627.62,-111"/>
<polygon fill="midnightblue" stroke="midnightblue" points="884.93,-114.5 894.93,-111 884.93,-107.5 884.93,-114.5"/>
</g>
<!-- Node25 -->
<g id="node25" class="node">
<title>Node25</title>
<g id="a_node25"><a xlink:href="class_user_controller.html#a6230816eec4c8be9bda248a166d7b9bd" target="_top" xlink:title="Makes suggestion">
<polygon fill="white" stroke="black" points="676,-139.5 676,-160.5 859,-160.5 859,-139.5 676,-139.5"/>
<text text-anchor="middle" x="767.5" y="-146.9" font-family="Helvetica,sans-Serif" font-size="12.00">UserController.MakeSuggestion</text>
</a>
</g>
</g>
<!-- Node23&#45;&gt;Node25 -->
<g id="edge30" class="edge">
<title>Node23&#45;&gt;Node25</title>
<path fill="none" stroke="midnightblue" d="M918.75,-123.3C889.5,-128.5 855.79,-134.49 827.72,-139.48"/>
<polygon fill="midnightblue" stroke="midnightblue" points="919.66,-126.7 928.89,-121.5 918.43,-119.81 919.66,-126.7"/>
</g>
<!-- Node25&#45;&gt;Node6 -->
<g id="edge32" class="edge">
<title>Node25&#45;&gt;Node6</title>
<path fill="none" stroke="midnightblue" d="M734.23,-164.96C716.75,-173.34 694.92,-184.24 676,-195 628.14,-222.24 574.16,-258.77 548.55,-276.49"/>
<polygon fill="midnightblue" stroke="midnightblue" points="735.91,-168.04 743.44,-160.59 732.91,-161.72 735.91,-168.04"/>
</g>
<!-- Node25&#45;&gt;Node24 -->
<g id="edge33" class="edge">
<title>Node25&#45;&gt;Node24</title>
<path fill="none" stroke="midnightblue" d="M693.8,-137.83C662.57,-132.6 626.41,-126.55 596.36,-121.52"/>
<polygon fill="midnightblue" stroke="midnightblue" points="693.31,-141.3 703.75,-139.5 694.47,-134.39 693.31,-141.3"/>
</g>
<!-- Node26 -->
<g id="node26" class="node">
<title>Node26</title>
<g id="a_node26"><a xlink:href="class_u_i_handler.html#ae6960c4c231f0e85718af2150449bb1f" target="_top" xlink:title="Hides the suggestion panel">
<polygon fill="white" stroke="black" points="447,-140.5 447,-161.5 618,-161.5 618,-140.5 447,-140.5"/>
<text text-anchor="middle" x="532.5" y="-147.9" font-family="Helvetica,sans-Serif" font-size="12.00">UIHandler.ConfirmSuggestion</text>
</a>
</g>
</g>
<!-- Node25&#45;&gt;Node26 -->
<g id="edge31" class="edge">
<title>Node25&#45;&gt;Node26</title>
<path fill="none" stroke="midnightblue" d="M665.47,-150.43C649.74,-150.5 633.62,-150.57 618.29,-150.64"/>
<polygon fill="midnightblue" stroke="midnightblue" points="665.76,-153.93 675.75,-150.39 665.73,-146.93 665.76,-153.93"/>
</g>
</g>
</svg>
