<?xml version="1.0" encoding="UTF-8" standalone="no"?>
<!DOCTYPE svg PUBLIC "-//W3C//DTD SVG 1.1//EN"
 "http://www.w3.org/Graphics/SVG/1.1/DTD/svg11.dtd">
<!-- Generated by graphviz version 2.47.1 (20210417.1919)
 -->
<!-- Title: TurnController Pages: 1 -->
<svg width="174pt" height="315pt"
 viewBox="0.00 0.00 174.00 315.00" xmlns="http://www.w3.org/2000/svg" xmlns:xlink="http://www.w3.org/1999/xlink">
<g id="graph0" class="graph" transform="scale(1 1) rotate(0) translate(4 311)">
<title>TurnController</title>
<polygon fill="white" stroke="transparent" points="-4,4 -4,-311 170,-311 170,4 -4,4"/>
<!-- Node1 -->
<g id="node1" class="node">
<title>Node1</title>
<g id="a_node1"><a xlink:title="This handles the turn between the players">
<polygon fill="#bfbfbf" stroke="black" points="0,-0.5 0,-206.5 166,-206.5 166,-0.5 0,-0.5"/>
<text text-anchor="middle" x="83" y="-192.9" font-family="Helvetica,sans-Serif" font-size="12.00">TurnController</text>
<polyline fill="none" stroke="black" points="0,-185.5 166,-185.5 "/>
<text text-anchor="start" x="8" y="-171.9" font-family="Helvetica,sans-Serif" font-size="12.00">+ currentPlayerIndex</text>
<text text-anchor="start" x="8" y="-158.9" font-family="Helvetica,sans-Serif" font-size="12.00">+ CurrentPlayers</text>
<text text-anchor="start" x="8" y="-145.9" font-family="Helvetica,sans-Serif" font-size="12.00">&#45; currentPlayers</text>
<text text-anchor="start" x="8" y="-132.9" font-family="Helvetica,sans-Serif" font-size="12.00">&#45; initialisePlayers</text>
<polyline fill="none" stroke="black" points="0,-125.5 166,-125.5 "/>
<text text-anchor="start" x="8" y="-111.9" font-family="Helvetica,sans-Serif" font-size="12.00">+ StartGame()</text>
<text text-anchor="start" x="8" y="-98.9" font-family="Helvetica,sans-Serif" font-size="12.00">+ GetRestOfPlayersInOrder()</text>
<text text-anchor="start" x="8" y="-85.9" font-family="Helvetica,sans-Serif" font-size="12.00">+ GetNextPlayer()</text>
<text text-anchor="start" x="8" y="-72.9" font-family="Helvetica,sans-Serif" font-size="12.00">+ SetCurrentPlayerToNext()</text>
<text text-anchor="start" x="8" y="-59.9" font-family="Helvetica,sans-Serif" font-size="12.00">+ GetCurrentPlayer()</text>
<text text-anchor="start" x="8" y="-46.9" font-family="Helvetica,sans-Serif" font-size="12.00">+ RemovePlayer()</text>
<text text-anchor="start" x="8" y="-33.9" font-family="Helvetica,sans-Serif" font-size="12.00">+ Win()</text>
<text text-anchor="start" x="8" y="-20.9" font-family="Helvetica,sans-Serif" font-size="12.00">&#45; Awake()</text>
<text text-anchor="start" x="8" y="-7.9" font-family="Helvetica,sans-Serif" font-size="12.00">&#45; InitialisePlayers()</text>
</a>
</g>
</g>
<!-- Node2 -->
<g id="node2" class="node">
<title>Node2</title>
<g id="a_node2"><a xlink:title=" ">
<polygon fill="white" stroke="#bfbfbf" points="34,-243.5 34,-306.5 132,-306.5 132,-243.5 34,-243.5"/>
<text text-anchor="middle" x="83" y="-292.9" font-family="Helvetica,sans-Serif" font-size="12.00">MonoBehaviour</text>
<polyline fill="none" stroke="#bfbfbf" points="34,-285.5 132,-285.5 "/>
<text text-anchor="middle" x="83" y="-271.9" font-family="Helvetica,sans-Serif" font-size="12.00"> </text>
<polyline fill="none" stroke="#bfbfbf" points="34,-264.5 132,-264.5 "/>
<text text-anchor="middle" x="83" y="-250.9" font-family="Helvetica,sans-Serif" font-size="12.00"> </text>
</a>
</g>
</g>
<!-- Node2&#45;&gt;Node1 -->
<g id="edge1" class="edge">
<title>Node2&#45;&gt;Node1</title>
<path fill="none" stroke="midnightblue" d="M83,-233.3C83,-225.06 83,-216.03 83,-206.72"/>
<polygon fill="none" stroke="midnightblue" points="79.5,-233.3 83,-243.3 86.5,-233.3 79.5,-233.3"/>
</g>
</g>
</svg>
