<?xml version="1.0" encoding="UTF-8" standalone="no"?>
<!DOCTYPE svg PUBLIC "-//W3C//DTD SVG 1.1//EN"
 "http://www.w3.org/Graphics/SVG/1.1/DTD/svg11.dtd">
<!-- Generated by graphviz version 2.47.1 (20210417.1919)
 -->
<!-- Title: CardSlot.SetCard Pages: 1 -->
<svg width="538pt" height="110pt"
 viewBox="0.00 0.00 538.00 110.00" xmlns="http://www.w3.org/2000/svg" xmlns:xlink="http://www.w3.org/1999/xlink">
<g id="graph0" class="graph" transform="scale(1 1) rotate(0) translate(4 106)">
<title>CardSlot.SetCard</title>
<polygon fill="white" stroke="transparent" points="-4,4 -4,-106 534,-106 534,4 -4,4"/>
<!-- Node1 -->
<g id="node1" class="node">
<title>Node1</title>
<g id="a_node1"><a xlink:title=" ">
<polygon fill="#bfbfbf" stroke="black" points="0,-40.5 0,-61.5 110,-61.5 110,-40.5 0,-40.5"/>
<text text-anchor="middle" x="55" y="-47.9" font-family="Helvetica,sans-Serif" font-size="12.00">CardSlot.SetCard</text>
</a>
</g>
</g>
<!-- Node2 -->
<g id="node2" class="node">
<title>Node2</title>
<g id="a_node2"><a xlink:href="class_card_slot.html#a4690c0753db45ada6b02681269ecfbb1" target="_top" xlink:title=" ">
<polygon fill="white" stroke="black" points="146,-40.5 146,-61.5 293,-61.5 293,-40.5 146,-40.5"/>
<text text-anchor="middle" x="219.5" y="-47.9" font-family="Helvetica,sans-Serif" font-size="12.00">CardSlot.SetCardDetails</text>
</a>
</g>
</g>
<!-- Node1&#45;&gt;Node2 -->
<g id="edge1" class="edge">
<title>Node1&#45;&gt;Node2</title>
<path fill="none" stroke="midnightblue" d="M110.11,-51C118.34,-51 126.99,-51 135.66,-51"/>
<polygon fill="midnightblue" stroke="midnightblue" points="135.83,-54.5 145.83,-51 135.83,-47.5 135.83,-54.5"/>
</g>
<!-- Node3 -->
<g id="node3" class="node">
<title>Node3</title>
<g id="a_node3"><a xlink:href="class_card.html#a25e8366933b176fae41e4d2373be7815" target="_top" xlink:title=" ">
<polygon fill="white" stroke="black" points="368,-80.5 368,-101.5 491,-101.5 491,-80.5 368,-80.5"/>
<text text-anchor="middle" x="429.5" y="-87.9" font-family="Helvetica,sans-Serif" font-size="12.00">Card.GetCardImage</text>
</a>
</g>
</g>
<!-- Node2&#45;&gt;Node3 -->
<g id="edge2" class="edge">
<title>Node2&#45;&gt;Node3</title>
<path fill="none" stroke="midnightblue" d="M275.15,-61.51C302.39,-66.75 335.51,-73.12 363.99,-78.59"/>
<polygon fill="midnightblue" stroke="midnightblue" points="363.37,-82.04 373.85,-80.49 364.7,-75.17 363.37,-82.04"/>
</g>
<!-- Node4 -->
<g id="node4" class="node">
<title>Node4</title>
<g id="a_node4"><a xlink:href="class_card.html#a094a5e7ea98cc156ac64e578a987be85" target="_top" xlink:title=" ">
<polygon fill="white" stroke="black" points="371.5,-40.5 371.5,-61.5 487.5,-61.5 487.5,-40.5 371.5,-40.5"/>
<text text-anchor="middle" x="429.5" y="-47.9" font-family="Helvetica,sans-Serif" font-size="12.00">Card.GetCardType</text>
</a>
</g>
</g>
<!-- Node2&#45;&gt;Node4 -->
<g id="edge3" class="edge">
<title>Node2&#45;&gt;Node4</title>
<path fill="none" stroke="midnightblue" d="M293.25,-51C315.3,-51 339.41,-51 361.09,-51"/>
<polygon fill="midnightblue" stroke="midnightblue" points="361.19,-54.5 371.19,-51 361.19,-47.5 361.19,-54.5"/>
</g>
<!-- Node5 -->
<g id="node5" class="node">
<title>Node5</title>
<g id="a_node5"><a xlink:href="class_enum_to_string.html#a078a1fb16a0030544fac1b96a90b6b83" target="_top" xlink:title="Get a string value from a valid enum">
<polygon fill="white" stroke="black" points="329,-0.5 329,-21.5 530,-21.5 530,-0.5 329,-0.5"/>
<text text-anchor="middle" x="429.5" y="-7.9" font-family="Helvetica,sans-Serif" font-size="12.00">EnumToString.GetStringFromEnum</text>
</a>
</g>
</g>
<!-- Node2&#45;&gt;Node5 -->
<g id="edge4" class="edge">
<title>Node2&#45;&gt;Node5</title>
<path fill="none" stroke="midnightblue" d="M275.15,-40.49C302.39,-35.25 335.51,-28.88 363.99,-23.41"/>
<polygon fill="midnightblue" stroke="midnightblue" points="364.7,-26.83 373.85,-21.51 363.37,-19.96 364.7,-26.83"/>
</g>
</g>
</svg>
