<?xml version="1.0" encoding="UTF-8" standalone="no"?>
<!DOCTYPE svg PUBLIC "-//W3C//DTD SVG 1.1//EN"
 "http://www.w3.org/Graphics/SVG/1.1/DTD/svg11.dtd">
<!-- Generated by graphviz version 2.47.1 (20210417.1919)
 -->
<!-- Title: UIHandler.MakeSuggestionButton Pages: 1 -->
<svg width="1140pt" height="150pt"
 viewBox="0.00 0.00 1140.00 150.00" xmlns="http://www.w3.org/2000/svg" xmlns:xlink="http://www.w3.org/1999/xlink">
<g id="graph0" class="graph" transform="scale(1 1) rotate(0) translate(4 146)">
<title>UIHandler.MakeSuggestionButton</title>
<polygon fill="white" stroke="transparent" points="-4,4 -4,-146 1136,-146 1136,4 -4,4"/>
<!-- Node1 -->
<g id="node1" class="node">
<title>Node1</title>
<g id="a_node1"><a xlink:title="Makes suggestion when the button is pressed">
<polygon fill="#bfbfbf" stroke="black" points="0,-60.5 0,-81.5 192,-81.5 192,-60.5 0,-60.5"/>
<text text-anchor="middle" x="96" y="-67.9" font-family="Helvetica,sans-Serif" font-size="12.00">UIHandler.MakeSuggestionButton</text>
</a>
</g>
</g>
<!-- Node2 -->
<g id="node2" class="node">
<title>Node2</title>
<g id="a_node2"><a xlink:href="class_u_i_handler.html#a99048b81a1303baba7efd44095c0f235" target="_top" xlink:title="Displays Suggestion menu, set the room if in a room">
<polygon fill="white" stroke="black" points="228,-60.5 228,-81.5 425,-81.5 425,-60.5 228,-60.5"/>
<text text-anchor="middle" x="326.5" y="-67.9" font-family="Helvetica,sans-Serif" font-size="12.00">UIHandler.DisplayMenuSuggestion</text>
</a>
</g>
</g>
<!-- Node1&#45;&gt;Node2 -->
<g id="edge1" class="edge">
<title>Node1&#45;&gt;Node2</title>
<path fill="none" stroke="midnightblue" d="M192.25,-71C200.61,-71 209.1,-71 217.56,-71"/>
<polygon fill="midnightblue" stroke="midnightblue" points="217.83,-74.5 227.83,-71 217.83,-67.5 217.83,-74.5"/>
</g>
<!-- Node3 -->
<g id="node3" class="node">
<title>Node3</title>
<g id="a_node3"><a xlink:href="class_card_manager.html#a124d7d9ab3a0e7c22ca64c15da76d4b1" target="_top" xlink:title="Looks for the specified weapon card">
<polygon fill="white" stroke="black" points="503.5,-120.5 503.5,-141.5 645.5,-141.5 645.5,-120.5 503.5,-120.5"/>
<text text-anchor="middle" x="574.5" y="-127.9" font-family="Helvetica,sans-Serif" font-size="12.00">CardManager.FindCard</text>
</a>
</g>
</g>
<!-- Node2&#45;&gt;Node3 -->
<g id="edge2" class="edge">
<title>Node2&#45;&gt;Node3</title>
<path fill="none" stroke="midnightblue" d="M359.05,-81.57C385.93,-90.31 425.69,-102.6 461,-111 472.53,-113.74 484.81,-116.3 496.86,-118.6"/>
<polygon fill="midnightblue" stroke="midnightblue" points="496.44,-122.08 506.91,-120.47 497.72,-115.2 496.44,-122.08"/>
</g>
<!-- Node4 -->
<g id="node4" class="node">
<title>Node4</title>
<g id="a_node4"><a xlink:href="class_user_controller.html#a587c55687141d18f375e0504ea4649fa" target="_top" xlink:title="Gets the player controller for the current player">
<polygon fill="white" stroke="black" points="482,-80.5 482,-101.5 667,-101.5 667,-80.5 482,-80.5"/>
<text text-anchor="middle" x="574.5" y="-87.9" font-family="Helvetica,sans-Serif" font-size="12.00">UserController.GetCurrentPlayer</text>
</a>
</g>
</g>
<!-- Node2&#45;&gt;Node4 -->
<g id="edge3" class="edge">
<title>Node2&#45;&gt;Node4</title>
<path fill="none" stroke="midnightblue" d="M425.08,-78.93C440.37,-80.18 456.22,-81.46 471.61,-82.72"/>
<polygon fill="midnightblue" stroke="midnightblue" points="471.39,-86.21 481.65,-83.53 471.96,-79.23 471.39,-86.21"/>
</g>
<!-- Node7 -->
<g id="node7" class="node">
<title>Node7</title>
<g id="a_node7"><a xlink:href="class_player_master_controller.html#a0447a8a21b5c0f2c94f9d27e0bcd0830" target="_top" xlink:title=" ">
<polygon fill="white" stroke="black" points="461,-40.5 461,-61.5 688,-61.5 688,-40.5 461,-40.5"/>
<text text-anchor="middle" x="574.5" y="-47.9" font-family="Helvetica,sans-Serif" font-size="12.00">PlayerMasterController.GetCurrentRoom</text>
</a>
</g>
</g>
<!-- Node2&#45;&gt;Node7 -->
<g id="edge6" class="edge">
<title>Node2&#45;&gt;Node7</title>
<path fill="none" stroke="midnightblue" d="M425.08,-63.07C433.47,-62.38 442.02,-61.69 450.57,-60.99"/>
<polygon fill="midnightblue" stroke="midnightblue" points="450.92,-64.48 460.6,-60.18 450.35,-57.5 450.92,-64.48"/>
</g>
<!-- Node8 -->
<g id="node8" class="node">
<title>Node8</title>
<g id="a_node8"><a xlink:href="class_suggestion.html#aec2e9ce82ae5f51cea7570bc6dafa43a" target="_top" xlink:title=" ">
<polygon fill="white" stroke="black" points="500,-0.5 500,-21.5 649,-21.5 649,-0.5 500,-0.5"/>
<text text-anchor="middle" x="574.5" y="-7.9" font-family="Helvetica,sans-Serif" font-size="12.00">Suggestion.SetSugRoom</text>
</a>
</g>
</g>
<!-- Node2&#45;&gt;Node8 -->
<g id="edge7" class="edge">
<title>Node2&#45;&gt;Node8</title>
<path fill="none" stroke="midnightblue" d="M359.05,-60.43C385.93,-51.69 425.69,-39.4 461,-31 472.53,-28.26 484.81,-25.7 496.86,-23.4"/>
<polygon fill="midnightblue" stroke="midnightblue" points="497.72,-26.8 506.91,-21.53 496.44,-19.92 497.72,-26.8"/>
</g>
<!-- Node5 -->
<g id="node5" class="node">
<title>Node5</title>
<g id="a_node5"><a xlink:href="class_round_manager.html#aab3f49a5e05508a8e023a497e763c1c8" target="_top" xlink:title="Gets the player controller for the current player">
<polygon fill="white" stroke="black" points="724,-80.5 724,-101.5 914,-101.5 914,-80.5 724,-80.5"/>
<text text-anchor="middle" x="819" y="-87.9" font-family="Helvetica,sans-Serif" font-size="12.00">RoundManager.GetCurrentPlayer</text>
</a>
</g>
</g>
<!-- Node4&#45;&gt;Node5 -->
<g id="edge4" class="edge">
<title>Node4&#45;&gt;Node5</title>
<path fill="none" stroke="midnightblue" d="M667.18,-91C682.36,-91 698.2,-91 713.67,-91"/>
<polygon fill="midnightblue" stroke="midnightblue" points="713.77,-94.5 723.77,-91 713.77,-87.5 713.77,-94.5"/>
</g>
<!-- Node6 -->
<g id="node6" class="node">
<title>Node6</title>
<g id="a_node6"><a xlink:href="class_turn_controller.html#af16e42b7e61c5a999291327e2e556caa" target="_top" xlink:title=" ">
<polygon fill="white" stroke="black" points="950,-80.5 950,-101.5 1132,-101.5 1132,-80.5 950,-80.5"/>
<text text-anchor="middle" x="1041" y="-87.9" font-family="Helvetica,sans-Serif" font-size="12.00">TurnController.GetCurrentPlayer</text>
</a>
</g>
</g>
<!-- Node5&#45;&gt;Node6 -->
<g id="edge5" class="edge">
<title>Node5&#45;&gt;Node6</title>
<path fill="none" stroke="midnightblue" d="M914.26,-91C922.63,-91 931.13,-91 939.55,-91"/>
<polygon fill="midnightblue" stroke="midnightblue" points="939.78,-94.5 949.78,-91 939.78,-87.5 939.78,-94.5"/>
</g>
</g>
</svg>
