<?xml version="1.0" encoding="UTF-8" standalone="no"?>
<!DOCTYPE svg PUBLIC "-//W3C//DTD SVG 1.1//EN"
 "http://www.w3.org/Graphics/SVG/1.1/DTD/svg11.dtd">
<!-- Generated by graphviz version 2.47.1 (20210417.1919)
 -->
<!-- Title: AIControllerScript.Decide_Movement Pages: 1 -->
<svg width="2234pt" height="585pt"
 viewBox="0.00 0.00 2234.00 585.36" xmlns="http://www.w3.org/2000/svg" xmlns:xlink="http://www.w3.org/1999/xlink">
<g id="graph0" class="graph" transform="scale(1 1) rotate(0) translate(4 581.36)">
<title>AIControllerScript.Decide_Movement</title>
<polygon fill="white" stroke="transparent" points="-4,4 -4,-581.36 2230,-581.36 2230,4 -4,4"/>
<!-- Node1 -->
<g id="node1" class="node">
<title>Node1</title>
<g id="a_node1"><a xlink:title="Decides where the AI should move to this should match the flow chart of the AI">
<polygon fill="#bfbfbf" stroke="black" points="0,-394.5 0,-415.5 210,-415.5 210,-394.5 0,-394.5"/>
<text text-anchor="middle" x="105" y="-401.9" font-family="Helvetica,sans-Serif" font-size="12.00">AIControllerScript.Decide_Movement</text>
</a>
</g>
</g>
<!-- Node2 -->
<g id="node2" class="node">
<title>Node2</title>
<g id="a_node2"><a xlink:href="class_a_i_controller_script.html#afcb2875a5501f07a7f44d0fa720266f3" target="_top" xlink:title="to delay the time for the next time the AI does something in the Update">
<polygon fill="white" stroke="black" points="541,-548.5 541,-569.5 729,-569.5 729,-548.5 541,-548.5"/>
<text text-anchor="middle" x="635" y="-555.9" font-family="Helvetica,sans-Serif" font-size="12.00">AIControllerScript.DelayDecision</text>
</a>
</g>
</g>
<!-- Node1&#45;&gt;Node2 -->
<g id="edge1" class="edge">
<title>Node1&#45;&gt;Node2</title>
<path fill="none" stroke="midnightblue" d="M112.87,-415.76C130.83,-442.79 182.25,-513.4 246,-541 347.48,-584.94 478.16,-579.97 558.99,-570.73"/>
<polygon fill="midnightblue" stroke="midnightblue" points="559.56,-574.18 569.08,-569.52 558.73,-567.23 559.56,-574.18"/>
</g>
<!-- Node3 -->
<g id="node3" class="node">
<title>Node3</title>
<g id="a_node3"><a xlink:href="class_a_i_controller_script.html#ab124aec8211aa7b8f00c6ef5db6bc96a" target="_top" xlink:title="for out putting the debug stack if outputDebugText is true, it will out put the the console as well">
<polygon fill="white" stroke="black" points="775,-509.5 775,-530.5 955,-530.5 955,-509.5 775,-509.5"/>
<text text-anchor="middle" x="865" y="-516.9" font-family="Helvetica,sans-Serif" font-size="12.00">AIControllerScript.OutputDebug</text>
</a>
</g>
</g>
<!-- Node1&#45;&gt;Node3 -->
<g id="edge7" class="edge">
<title>Node1&#45;&gt;Node3</title>
<path fill="none" stroke="midnightblue" d="M128.22,-415.5C155.37,-427.83 202.99,-447.89 246,-458 341.94,-480.56 615.97,-502.51 764.84,-513.22"/>
<polygon fill="midnightblue" stroke="midnightblue" points="764.68,-516.72 774.9,-513.95 765.18,-509.74 764.68,-516.72"/>
</g>
<!-- Node4 -->
<g id="node4" class="node">
<title>Node4</title>
<g id="a_node4"><a xlink:href="class_player_master_controller.html#a0447a8a21b5c0f2c94f9d27e0bcd0830" target="_top" xlink:title=" ">
<polygon fill="white" stroke="black" points="1525,-376.5 1525,-397.5 1752,-397.5 1752,-376.5 1525,-376.5"/>
<text text-anchor="middle" x="1638.5" y="-383.9" font-family="Helvetica,sans-Serif" font-size="12.00">PlayerMasterController.GetCurrentRoom</text>
</a>
</g>
</g>
<!-- Node1&#45;&gt;Node4 -->
<g id="edge3" class="edge">
<title>Node1&#45;&gt;Node4</title>
<path fill="none" stroke="midnightblue" d="M170.67,-415.52C194.32,-419.03 221.31,-422.64 246,-425 417.87,-441.45 461.35,-444 634,-444 634,-444 634,-444 1098,-444 1271.98,-444 1320.69,-469.07 1489,-425 1506.31,-420.47 1508.02,-412.62 1525,-407 1533.35,-404.24 1542.17,-401.83 1551.07,-399.74"/>
<polygon fill="midnightblue" stroke="midnightblue" points="1552.11,-403.09 1561.11,-397.51 1550.59,-396.26 1552.11,-403.09"/>
</g>
<!-- Node5 -->
<g id="node5" class="node">
<title>Node5</title>
<g id="a_node5"><a xlink:href="class_board_manager.html#a093d89d0ff0fce055b78ba2aa83ed837" target="_top" xlink:title="Get a free roll tile from movable tiles">
<polygon fill="white" stroke="black" points="259,-354.5 259,-375.5 492,-375.5 492,-354.5 259,-354.5"/>
<text text-anchor="middle" x="375.5" y="-361.9" font-family="Helvetica,sans-Serif" font-size="12.00">BoardManager.GetFreeRollTileInMovable</text>
</a>
</g>
</g>
<!-- Node1&#45;&gt;Node5 -->
<g id="edge4" class="edge">
<title>Node1&#45;&gt;Node5</title>
<path fill="none" stroke="midnightblue" d="M176.55,-394.49C212.48,-389.14 256.33,-382.6 293.63,-377.05"/>
<polygon fill="midnightblue" stroke="midnightblue" points="294.59,-380.44 303.96,-375.51 293.55,-373.52 294.59,-380.44"/>
</g>
<!-- Node6 -->
<g id="node6" class="node">
<title>Node6</title>
<g id="a_node6"><a xlink:href="class_board_manager.html#a2b62ba5630ce7fa0b424024065ef4823" target="_top" xlink:title="Gets an free suggestion tile from Movable list">
<polygon fill="white" stroke="black" points="248.5,-314.5 248.5,-335.5 502.5,-335.5 502.5,-314.5 248.5,-314.5"/>
<text text-anchor="middle" x="375.5" y="-321.9" font-family="Helvetica,sans-Serif" font-size="12.00">BoardManager.GetFreeSuggesTileInMovable</text>
</a>
</g>
</g>
<!-- Node1&#45;&gt;Node6 -->
<g id="edge5" class="edge">
<title>Node1&#45;&gt;Node6</title>
<path fill="none" stroke="midnightblue" d="M126.28,-394.38C152.99,-380.85 201.78,-357.7 246,-345 256.13,-342.09 266.85,-339.58 277.59,-337.41"/>
<polygon fill="midnightblue" stroke="midnightblue" points="278.29,-340.84 287.45,-335.52 276.97,-333.97 278.29,-340.84"/>
</g>
<!-- Node7 -->
<g id="node7" class="node">
<title>Node7</title>
<g id="a_node7"><a xlink:href="class_board_manager.html#a5eb67ec83794138860f40af509e4820c" target="_top" xlink:title="Gets a random list of entry tile from Movable list return null if none found">
<polygon fill="white" stroke="black" points="246,-274.5 246,-295.5 505,-295.5 505,-274.5 246,-274.5"/>
<text text-anchor="middle" x="375.5" y="-281.9" font-family="Helvetica,sans-Serif" font-size="12.00">BoardManager.GetRandomEntryTileInMovable</text>
</a>
</g>
</g>
<!-- Node1&#45;&gt;Node7 -->
<g id="edge6" class="edge">
<title>Node1&#45;&gt;Node7</title>
<path fill="none" stroke="midnightblue" d="M116.87,-394.42C139.07,-373.51 192.07,-327 246,-305 252.32,-302.42 258.94,-300.17 265.7,-298.21"/>
<polygon fill="midnightblue" stroke="midnightblue" points="266.93,-301.51 275.69,-295.54 265.12,-294.74 266.93,-301.51"/>
</g>
<!-- Node8 -->
<g id="node8" class="node">
<title>Node8</title>
<g id="a_node8"><a xlink:href="class_user_controller.html#af896aefe0262e0d8f07fa5f18592877d" target="_top" xlink:title="Selects a tile for player movement">
<polygon fill="white" stroke="black" points="302.5,-394.5 302.5,-415.5 448.5,-415.5 448.5,-394.5 302.5,-394.5"/>
<text text-anchor="middle" x="375.5" y="-401.9" font-family="Helvetica,sans-Serif" font-size="12.00">UserController.SelectTile</text>
</a>
</g>
</g>
<!-- Node1&#45;&gt;Node8 -->
<g id="edge8" class="edge">
<title>Node1&#45;&gt;Node8</title>
<path fill="none" stroke="midnightblue" d="M210.19,-405C237.39,-405 266.32,-405 292.21,-405"/>
<polygon fill="midnightblue" stroke="midnightblue" points="292.35,-408.5 302.35,-405 292.35,-401.5 292.35,-408.5"/>
</g>
<!-- Node39 -->
<g id="node39" class="node">
<title>Node39</title>
<g id="a_node39"><a xlink:href="class_a_i_controller_script.html#aaee909cd0f0ffdedd8d8425607d7ccb5" target="_top" xlink:title="to set the AI&#39;s mode">
<polygon fill="white" stroke="black" points="290.5,-510.5 290.5,-531.5 460.5,-531.5 460.5,-510.5 290.5,-510.5"/>
<text text-anchor="middle" x="375.5" y="-517.9" font-family="Helvetica,sans-Serif" font-size="12.00">AIControllerScript.SetAIMode</text>
</a>
</g>
</g>
<!-- Node1&#45;&gt;Node39 -->
<g id="edge44" class="edge">
<title>Node1&#45;&gt;Node39</title>
<path fill="none" stroke="midnightblue" d="M118.57,-415.61C142,-434.8 194.67,-475.24 246,-496 258.26,-500.96 271.58,-504.95 284.85,-508.17"/>
<polygon fill="midnightblue" stroke="midnightblue" points="284.44,-511.66 294.97,-510.47 286,-504.84 284.44,-511.66"/>
</g>
<!-- Node40 -->
<g id="node40" class="node">
<title>Node40</title>
<g id="a_node40"><a xlink:href="class_board_tile_script.html#a01015e05f9a294256fdd69ab98f3b136" target="_top" xlink:title=" ">
<polygon fill="white" stroke="black" points="302.5,-234.5 302.5,-255.5 448.5,-255.5 448.5,-234.5 302.5,-234.5"/>
<text text-anchor="middle" x="375.5" y="-241.9" font-family="Helvetica,sans-Serif" font-size="12.00">BoardTileScript.ToString</text>
</a>
</g>
</g>
<!-- Node1&#45;&gt;Node40 -->
<g id="edge47" class="edge">
<title>Node1&#45;&gt;Node40</title>
<path fill="none" stroke="midnightblue" d="M112.97,-394.34C131.19,-367.49 183.17,-296.91 246,-265 260.25,-257.76 276.45,-253 292.43,-249.89"/>
<polygon fill="midnightblue" stroke="midnightblue" points="293.08,-253.33 302.33,-248.17 291.88,-246.44 293.08,-253.33"/>
</g>
<!-- Node2&#45;&gt;Node3 -->
<g id="edge2" class="edge">
<title>Node2&#45;&gt;Node3</title>
<path fill="none" stroke="midnightblue" d="M697.4,-548.5C726.67,-543.49 761.86,-537.47 792.35,-532.26"/>
<polygon fill="midnightblue" stroke="midnightblue" points="793.22,-535.66 802.49,-530.52 792.04,-528.76 793.22,-535.66"/>
</g>
<!-- Node9 -->
<g id="node9" class="node">
<title>Node9</title>
<g id="a_node9"><a xlink:href="class_round_manager.html#adfd4f66436e06c12a25c9236b629f369" target="_top" xlink:title="moving the current player to the selected tile">
<polygon fill="white" stroke="black" points="554.5,-296.5 554.5,-317.5 715.5,-317.5 715.5,-296.5 554.5,-296.5"/>
<text text-anchor="middle" x="635" y="-303.9" font-family="Helvetica,sans-Serif" font-size="12.00">RoundManager.MovePlayer</text>
</a>
</g>
</g>
<!-- Node8&#45;&gt;Node9 -->
<g id="edge9" class="edge">
<title>Node8&#45;&gt;Node9</title>
<path fill="none" stroke="midnightblue" d="M448.78,-398.78C467.46,-395.82 487.28,-391.45 505,-385 545.74,-370.17 587.77,-341.87 612.36,-323.75"/>
<polygon fill="midnightblue" stroke="midnightblue" points="614.7,-326.37 620.6,-317.57 610.5,-320.77 614.7,-326.37"/>
</g>
<!-- Node9&#45;&gt;Node4 -->
<g id="edge37" class="edge">
<title>Node9&#45;&gt;Node4</title>
<path fill="none" stroke="midnightblue" d="M715.78,-308.29C913.68,-311.8 1416.39,-322.81 1489,-345 1506.93,-350.48 1507.47,-360.36 1525,-367 1532.03,-369.66 1539.44,-371.98 1546.97,-373.99"/>
<polygon fill="midnightblue" stroke="midnightblue" points="1546.37,-377.44 1556.92,-376.45 1548.05,-370.65 1546.37,-377.44"/>
</g>
<!-- Node10 -->
<g id="node10" class="node">
<title>Node10</title>
<g id="a_node10"><a xlink:href="class_board_manager.html#a653d38723d03f890d38a1b68a855c569" target="_top" xlink:title="Clear all movable tiles">
<polygon fill="white" stroke="black" points="779.5,-217.5 779.5,-238.5 950.5,-238.5 950.5,-217.5 779.5,-217.5"/>
<text text-anchor="middle" x="865" y="-224.9" font-family="Helvetica,sans-Serif" font-size="12.00">BoardManager.ClearMovable</text>
</a>
</g>
</g>
<!-- Node9&#45;&gt;Node10 -->
<g id="edge10" class="edge">
<title>Node9&#45;&gt;Node10</title>
<path fill="none" stroke="midnightblue" d="M666.75,-296.35C707.32,-282.29 778.81,-257.52 823.68,-241.97"/>
<polygon fill="midnightblue" stroke="midnightblue" points="825.07,-245.19 833.37,-238.61 822.78,-238.58 825.07,-245.19"/>
</g>
<!-- Node14 -->
<g id="node14" class="node">
<title>Node14</title>
<g id="a_node14"><a xlink:href="class_round_manager.html#a8d52738f26bc5b5eea98f8e3dd213744" target="_top" xlink:title="roll dice after a delay time, used for free roll tile">
<polygon fill="white" stroke="black" points="790.5,-60.5 790.5,-81.5 939.5,-81.5 939.5,-60.5 790.5,-60.5"/>
<text text-anchor="middle" x="865" y="-67.9" font-family="Helvetica,sans-Serif" font-size="12.00">RoundManager.DelayRoll</text>
</a>
</g>
</g>
<!-- Node9&#45;&gt;Node14 -->
<g id="edge14" class="edge">
<title>Node9&#45;&gt;Node14</title>
<path fill="none" stroke="midnightblue" d="M640.58,-296.42C654.7,-264.91 700.52,-170.5 765,-116 780.77,-102.67 801.13,-92.52 819.28,-85.26"/>
<polygon fill="midnightblue" stroke="midnightblue" points="820.72,-88.46 828.81,-81.63 818.22,-81.92 820.72,-88.46"/>
</g>
<!-- Node25 -->
<g id="node25" class="node">
<title>Node25</title>
<g id="a_node25"><a xlink:href="class_round_manager.html#afb3821e66d79eeb0991f620ced62940a" target="_top" xlink:title="Maek suggestion after a delay time, used for free suggestion tile">
<polygon fill="white" stroke="black" points="789.5,-276.5 789.5,-297.5 940.5,-297.5 940.5,-276.5 789.5,-276.5"/>
<text text-anchor="middle" x="865" y="-283.9" font-family="Helvetica,sans-Serif" font-size="12.00">RoundManager.DelaySug</text>
</a>
</g>
</g>
<!-- Node9&#45;&gt;Node25 -->
<g id="edge26" class="edge">
<title>Node9&#45;&gt;Node25</title>
<path fill="none" stroke="midnightblue" d="M715.74,-300C736.27,-298.2 758.43,-296.26 779.2,-294.44"/>
<polygon fill="midnightblue" stroke="midnightblue" points="779.62,-297.92 789.28,-293.55 779.01,-290.94 779.62,-297.92"/>
</g>
<!-- Node27 -->
<g id="node27" class="node">
<title>Node27</title>
<g id="a_node27"><a xlink:href="class_turn_controller.html#af16e42b7e61c5a999291327e2e556caa" target="_top" xlink:title=" ">
<polygon fill="white" stroke="black" points="2029,-168.5 2029,-189.5 2211,-189.5 2211,-168.5 2029,-168.5"/>
<text text-anchor="middle" x="2120" y="-175.9" font-family="Helvetica,sans-Serif" font-size="12.00">TurnController.GetCurrentPlayer</text>
</a>
</g>
</g>
<!-- Node9&#45;&gt;Node27 -->
<g id="edge36" class="edge">
<title>Node9&#45;&gt;Node27</title>
<path fill="none" stroke="midnightblue" d="M646.65,-296.21C667.45,-275.76 715.77,-231.36 765,-208 901.55,-143.21 944.86,-130 1096,-130 1096,-130 1096,-130 1639.5,-130 1784.43,-130 1952.72,-152.43 2046.43,-166.94"/>
<polygon fill="midnightblue" stroke="midnightblue" points="2045.95,-170.4 2056.37,-168.49 2047.03,-163.49 2045.95,-170.4"/>
</g>
<!-- Node33 -->
<g id="node33" class="node">
<title>Node33</title>
<g id="a_node33"><a xlink:href="class_player_token_script.html#a98d00a98b6bf03a74b59a9127e951cfe" target="_top" xlink:title=" ">
<polygon fill="white" stroke="black" points="783,-354.5 783,-375.5 947,-375.5 947,-354.5 783,-354.5"/>
<text text-anchor="middle" x="865" y="-361.9" font-family="Helvetica,sans-Serif" font-size="12.00">PlayerTokenScript.IsInRoom</text>
</a>
</g>
</g>
<!-- Node9&#45;&gt;Node33 -->
<g id="edge38" class="edge">
<title>Node9&#45;&gt;Node33</title>
<path fill="none" stroke="midnightblue" d="M676.95,-317.51C702.31,-324.01 735.54,-332.51 765,-340 780.36,-343.9 797.07,-348.13 812.31,-351.98"/>
<polygon fill="midnightblue" stroke="midnightblue" points="811.53,-355.39 822.08,-354.45 813.24,-348.61 811.53,-355.39"/>
</g>
<!-- Node34 -->
<g id="node34" class="node">
<title>Node34</title>
<g id="a_node34"><a xlink:href="class_player_master_controller.html#a9b23c4d50fabbc44dbba2b0db542efce" target="_top" xlink:title="moving the player to a certain tile">
<polygon fill="white" stroke="black" points="765,-394.5 765,-415.5 965,-415.5 965,-394.5 765,-394.5"/>
<text text-anchor="middle" x="865" y="-401.9" font-family="Helvetica,sans-Serif" font-size="12.00">PlayerMasterController.MovePlayer</text>
</a>
</g>
</g>
<!-- Node9&#45;&gt;Node34 -->
<g id="edge39" class="edge">
<title>Node9&#45;&gt;Node34</title>
<path fill="none" stroke="midnightblue" d="M649.85,-317.61C672.61,-334.51 719.89,-367.42 765,-385 771.74,-387.63 778.88,-389.93 786.11,-391.93"/>
<polygon fill="midnightblue" stroke="midnightblue" points="785.45,-395.38 796,-394.5 787.2,-388.6 785.45,-395.38"/>
</g>
<!-- Node11 -->
<g id="node11" class="node">
<title>Node11</title>
<g id="a_node11"><a xlink:href="class_board_tile_script.html#a3ff1d3c491fe4d7e421a624ac0b5be6f" target="_top" xlink:title="setting the glow on the tile">
<polygon fill="white" stroke="black" points="1024,-198.5 1024,-219.5 1170,-219.5 1170,-198.5 1024,-198.5"/>
<text text-anchor="middle" x="1097" y="-205.9" font-family="Helvetica,sans-Serif" font-size="12.00">BoardTileScript.GlowTile</text>
</a>
</g>
</g>
<!-- Node10&#45;&gt;Node11 -->
<g id="edge11" class="edge">
<title>Node10&#45;&gt;Node11</title>
<path fill="none" stroke="midnightblue" d="M950.66,-221.01C971.26,-219.3 993.26,-217.49 1013.75,-215.79"/>
<polygon fill="midnightblue" stroke="midnightblue" points="1014.31,-219.26 1023.99,-214.95 1013.73,-212.28 1014.31,-219.26"/>
</g>
<!-- Node12 -->
<g id="node12" class="node">
<title>Node12</title>
<g id="a_node12"><a xlink:href="class_board_tile_effect_handler_script.html#a93e813816ff40b3602de22f87a694766" target="_top" xlink:title="turn off the effect for when player can move to that tile">
<polygon fill="white" stroke="black" points="1229,-198.5 1229,-219.5 1489,-219.5 1489,-198.5 1229,-198.5"/>
<text text-anchor="middle" x="1359" y="-205.9" font-family="Helvetica,sans-Serif" font-size="12.00">BoardTileEffectHandlerScript.ToggleEffect_Off</text>
</a>
</g>
</g>
<!-- Node11&#45;&gt;Node12 -->
<g id="edge12" class="edge">
<title>Node11&#45;&gt;Node12</title>
<path fill="none" stroke="midnightblue" d="M1170.08,-209C1185.26,-209 1201.77,-209 1218.49,-209"/>
<polygon fill="midnightblue" stroke="midnightblue" points="1218.92,-212.5 1228.92,-209 1218.92,-205.5 1218.92,-212.5"/>
</g>
<!-- Node13 -->
<g id="node13" class="node">
<title>Node13</title>
<g id="a_node13"><a xlink:href="class_board_tile_effect_handler_script.html#a7bf5b2a819cb44463464d5c951bf3143" target="_top" xlink:title="turn on the effect for when player can move to that tile">
<polygon fill="white" stroke="black" points="1229,-158.5 1229,-179.5 1489,-179.5 1489,-158.5 1229,-158.5"/>
<text text-anchor="middle" x="1359" y="-165.9" font-family="Helvetica,sans-Serif" font-size="12.00">BoardTileEffectHandlerScript.ToggleEffect_On</text>
</a>
</g>
</g>
<!-- Node11&#45;&gt;Node13 -->
<g id="edge13" class="edge">
<title>Node11&#45;&gt;Node13</title>
<path fill="none" stroke="midnightblue" d="M1166.31,-198.49C1201.11,-193.14 1243.58,-186.6 1279.69,-181.05"/>
<polygon fill="midnightblue" stroke="midnightblue" points="1280.34,-184.49 1289.69,-179.51 1279.28,-177.57 1280.34,-184.49"/>
</g>
<!-- Node15 -->
<g id="node15" class="node">
<title>Node15</title>
<g id="a_node15"><a xlink:href="class_round_manager.html#ab795c17242b95ab2cef508da5daa2593" target="_top" xlink:title="Rolls dice, will not roll if the player has rolled aready. Pass true to forcfully roll it">
<polygon fill="white" stroke="black" points="1025,-40.5 1025,-61.5 1169,-61.5 1169,-40.5 1025,-40.5"/>
<text text-anchor="middle" x="1097" y="-47.9" font-family="Helvetica,sans-Serif" font-size="12.00">RoundManager.RollDice</text>
</a>
</g>
</g>
<!-- Node14&#45;&gt;Node15 -->
<g id="edge15" class="edge">
<title>Node14&#45;&gt;Node15</title>
<path fill="none" stroke="midnightblue" d="M939.72,-64.59C963.52,-62.52 990.04,-60.21 1014.37,-58.1"/>
<polygon fill="midnightblue" stroke="midnightblue" points="1015,-61.56 1024.66,-57.2 1014.39,-54.58 1015,-61.56"/>
</g>
<!-- Node16 -->
<g id="node16" class="node">
<title>Node16</title>
<g id="a_node16"><a xlink:href="class_round_manager.html#a5cfea3b56a7576ad02c82c27bb0c6ba7" target="_top" xlink:title="reset the dice after a time delay">
<polygon fill="white" stroke="black" points="1266.5,-40.5 1266.5,-61.5 1451.5,-61.5 1451.5,-40.5 1266.5,-40.5"/>
<text text-anchor="middle" x="1359" y="-47.9" font-family="Helvetica,sans-Serif" font-size="12.00">RoundManager.DelayResetDice</text>
</a>
</g>
</g>
<!-- Node15&#45;&gt;Node16 -->
<g id="edge16" class="edge">
<title>Node15&#45;&gt;Node16</title>
<path fill="none" stroke="midnightblue" d="M1169.05,-51C1195.81,-51 1226.81,-51 1255.85,-51"/>
<polygon fill="midnightblue" stroke="midnightblue" points="1256.04,-54.5 1266.04,-51 1256.04,-47.5 1256.04,-54.5"/>
</g>
<!-- Node23 -->
<g id="node23" class="node">
<title>Node23</title>
<g id="a_node23"><a xlink:href="class_dice.html#a333ed52f536c0e7748fafe9422b179b5" target="_top" xlink:title="Roll the Dice">
<polygon fill="white" stroke="black" points="1314.5,-0.5 1314.5,-21.5 1403.5,-21.5 1403.5,-0.5 1314.5,-0.5"/>
<text text-anchor="middle" x="1359" y="-7.9" font-family="Helvetica,sans-Serif" font-size="12.00">Dice.RollDice</text>
</a>
</g>
</g>
<!-- Node15&#45;&gt;Node23 -->
<g id="edge23" class="edge">
<title>Node15&#45;&gt;Node23</title>
<path fill="none" stroke="midnightblue" d="M1166.31,-40.49C1209.36,-33.87 1264.15,-25.44 1304.12,-19.29"/>
<polygon fill="midnightblue" stroke="midnightblue" points="1304.85,-22.72 1314.2,-17.74 1303.79,-15.8 1304.85,-22.72"/>
</g>
<!-- Node17 -->
<g id="node17" class="node">
<title>Node17</title>
<g id="a_node17"><a xlink:href="class_dice.html#ade1dc529eeb31f31e668c595c5748e67" target="_top" xlink:title="Reset the dice">
<polygon fill="white" stroke="black" points="1588.5,-40.5 1588.5,-61.5 1688.5,-61.5 1688.5,-40.5 1588.5,-40.5"/>
<text text-anchor="middle" x="1638.5" y="-47.9" font-family="Helvetica,sans-Serif" font-size="12.00">Dice.ResetDice</text>
</a>
</g>
</g>
<!-- Node16&#45;&gt;Node17 -->
<g id="edge17" class="edge">
<title>Node16&#45;&gt;Node17</title>
<path fill="none" stroke="midnightblue" d="M1451.63,-51C1493.34,-51 1541.48,-51 1578.33,-51"/>
<polygon fill="midnightblue" stroke="midnightblue" points="1578.4,-54.5 1588.4,-51 1578.4,-47.5 1578.4,-54.5"/>
</g>
<!-- Node18 -->
<g id="node18" class="node">
<title>Node18</title>
<g id="a_node18"><a xlink:href="class_dice.html#ace4c995eb73b784d1076fde140ce85af" target="_top" xlink:title="Can Dice be reset">
<polygon fill="white" stroke="black" points="1834.5,-80.5 1834.5,-101.5 1931.5,-101.5 1931.5,-80.5 1834.5,-80.5"/>
<text text-anchor="middle" x="1883" y="-87.9" font-family="Helvetica,sans-Serif" font-size="12.00">Dice.CanReset</text>
</a>
</g>
</g>
<!-- Node17&#45;&gt;Node18 -->
<g id="edge18" class="edge">
<title>Node17&#45;&gt;Node18</title>
<path fill="none" stroke="midnightblue" d="M1688.57,-59.09C1727.82,-65.57 1782.94,-74.66 1824.3,-81.48"/>
<polygon fill="midnightblue" stroke="midnightblue" points="1823.8,-84.95 1834.24,-83.12 1824.94,-78.04 1823.8,-84.95"/>
</g>
<!-- Node20 -->
<g id="node20" class="node">
<title>Node20</title>
<g id="a_node20"><a xlink:href="class_camera_close_up.html#ad31062bdf359a453fc85ebdd71fa1bae" target="_top" xlink:title="Clear camera close up">
<polygon fill="white" stroke="black" points="1792,-40.5 1792,-61.5 1974,-61.5 1974,-40.5 1792,-40.5"/>
<text text-anchor="middle" x="1883" y="-47.9" font-family="Helvetica,sans-Serif" font-size="12.00">CameraCloseUp.ClearCloseUp</text>
</a>
</g>
</g>
<!-- Node17&#45;&gt;Node20 -->
<g id="edge20" class="edge">
<title>Node17&#45;&gt;Node20</title>
<path fill="none" stroke="midnightblue" d="M1688.57,-51C1715.3,-51 1749.38,-51 1781.46,-51"/>
<polygon fill="midnightblue" stroke="midnightblue" points="1781.8,-54.5 1791.8,-51 1781.8,-47.5 1781.8,-54.5"/>
</g>
<!-- Node22 -->
<g id="node22" class="node">
<title>Node22</title>
<g id="a_node22"><a xlink:href="class_die.html#abc11c3d2bf0c0fba1555093eb5a8469e" target="_top" xlink:title="Reset Die to original position">
<polygon fill="white" stroke="black" points="1839,-0.5 1839,-21.5 1927,-21.5 1927,-0.5 1839,-0.5"/>
<text text-anchor="middle" x="1883" y="-7.9" font-family="Helvetica,sans-Serif" font-size="12.00">Die.ResetDie</text>
</a>
</g>
</g>
<!-- Node17&#45;&gt;Node22 -->
<g id="edge22" class="edge">
<title>Node17&#45;&gt;Node22</title>
<path fill="none" stroke="midnightblue" d="M1688.57,-42.91C1729.23,-36.2 1786.91,-26.68 1828.7,-19.79"/>
<polygon fill="midnightblue" stroke="midnightblue" points="1829.39,-23.22 1838.69,-18.14 1828.25,-16.32 1829.39,-23.22"/>
</g>
<!-- Node19 -->
<g id="node19" class="node">
<title>Node19</title>
<g id="a_node19"><a xlink:href="class_die.html#a390d46459637fd249926cda472255d84" target="_top" xlink:title="Can the die be reset">
<polygon fill="white" stroke="black" points="2065,-80.5 2065,-101.5 2175,-101.5 2175,-80.5 2065,-80.5"/>
<text text-anchor="middle" x="2120" y="-87.9" font-family="Helvetica,sans-Serif" font-size="12.00">Die.CanResetDie</text>
</a>
</g>
</g>
<!-- Node18&#45;&gt;Node19 -->
<g id="edge19" class="edge">
<title>Node18&#45;&gt;Node19</title>
<path fill="none" stroke="midnightblue" d="M1931.56,-91C1967.01,-91 2015.83,-91 2054.76,-91"/>
<polygon fill="midnightblue" stroke="midnightblue" points="2054.94,-94.5 2064.94,-91 2054.94,-87.5 2054.94,-94.5"/>
</g>
<!-- Node21 -->
<g id="node21" class="node">
<title>Node21</title>
<g id="a_node21"><a xlink:href="class_camera_close_up.html#ae902d2ccdf969212e0cb84f638f68851" target="_top" xlink:title="Delay then clear close up">
<polygon fill="white" stroke="black" points="2014,-40.5 2014,-61.5 2226,-61.5 2226,-40.5 2014,-40.5"/>
<text text-anchor="middle" x="2120" y="-47.9" font-family="Helvetica,sans-Serif" font-size="12.00">CameraCloseUp.ClearCloseUpDelay</text>
</a>
</g>
</g>
<!-- Node20&#45;&gt;Node21 -->
<g id="edge21" class="edge">
<title>Node20&#45;&gt;Node21</title>
<path fill="none" stroke="midnightblue" d="M1974.19,-51C1983.79,-51 1993.66,-51 2003.5,-51"/>
<polygon fill="midnightblue" stroke="midnightblue" points="2003.74,-54.5 2013.74,-51 2003.74,-47.5 2003.74,-54.5"/>
</g>
<!-- Node24 -->
<g id="node24" class="node">
<title>Node24</title>
<g id="a_node24"><a xlink:href="class_die.html#a4995ecb1a88aa7f1043ae71ba8aa3ef5" target="_top" xlink:title="Roll the die">
<polygon fill="white" stroke="black" points="1600,-0.5 1600,-21.5 1677,-21.5 1677,-0.5 1600,-0.5"/>
<text text-anchor="middle" x="1638.5" y="-7.9" font-family="Helvetica,sans-Serif" font-size="12.00">Die.RollDie</text>
</a>
</g>
</g>
<!-- Node23&#45;&gt;Node24 -->
<g id="edge24" class="edge">
<title>Node23&#45;&gt;Node24</title>
<path fill="none" stroke="midnightblue" d="M1403.66,-11C1454.32,-11 1537.55,-11 1589.85,-11"/>
<polygon fill="midnightblue" stroke="midnightblue" points="1589.88,-14.5 1599.88,-11 1589.88,-7.5 1589.88,-14.5"/>
</g>
<!-- Node24&#45;&gt;Node22 -->
<g id="edge25" class="edge">
<title>Node24&#45;&gt;Node22</title>
<path fill="none" stroke="midnightblue" d="M1677.12,-11C1717.82,-11 1783.01,-11 1828.9,-11"/>
<polygon fill="midnightblue" stroke="midnightblue" points="1828.97,-14.5 1838.97,-11 1828.97,-7.5 1828.97,-14.5"/>
</g>
<!-- Node26 -->
<g id="node26" class="node">
<title>Node26</title>
<g id="a_node26"><a xlink:href="class_round_manager.html#aab3f49a5e05508a8e023a497e763c1c8" target="_top" xlink:title="Gets the player controller for the current player">
<polygon fill="white" stroke="black" points="1788,-217.5 1788,-238.5 1978,-238.5 1978,-217.5 1788,-217.5"/>
<text text-anchor="middle" x="1883" y="-224.9" font-family="Helvetica,sans-Serif" font-size="12.00">RoundManager.GetCurrentPlayer</text>
</a>
</g>
</g>
<!-- Node25&#45;&gt;Node26 -->
<g id="edge27" class="edge">
<title>Node25&#45;&gt;Node26</title>
<path fill="none" stroke="midnightblue" d="M928,-276.45C950.88,-272.92 977.06,-269.3 1001,-267 1280.89,-240.14 1612.61,-231.75 1777.75,-229.15"/>
<polygon fill="midnightblue" stroke="midnightblue" points="1777.96,-232.65 1787.9,-228.99 1777.85,-225.65 1777.96,-232.65"/>
</g>
<!-- Node28 -->
<g id="node28" class="node">
<title>Node28</title>
<g id="a_node28"><a xlink:href="class_u_i_handler.html#a52241b6fefb8a446c2c000202216bfd2" target="_top" xlink:title="Makes suggestion when the button is pressed">
<polygon fill="white" stroke="black" points="1001,-276.5 1001,-297.5 1193,-297.5 1193,-276.5 1001,-276.5"/>
<text text-anchor="middle" x="1097" y="-283.9" font-family="Helvetica,sans-Serif" font-size="12.00">UIHandler.MakeSuggestionButton</text>
</a>
</g>
</g>
<!-- Node25&#45;&gt;Node28 -->
<g id="edge29" class="edge">
<title>Node25&#45;&gt;Node28</title>
<path fill="none" stroke="midnightblue" d="M940.67,-287C956.53,-287 973.56,-287 990.33,-287"/>
<polygon fill="midnightblue" stroke="midnightblue" points="990.72,-290.5 1000.72,-287 990.72,-283.5 990.72,-290.5"/>
</g>
<!-- Node26&#45;&gt;Node27 -->
<g id="edge28" class="edge">
<title>Node26&#45;&gt;Node27</title>
<path fill="none" stroke="midnightblue" d="M1934.41,-217.49C1970.69,-209.92 2019.79,-199.69 2058.23,-191.67"/>
<polygon fill="midnightblue" stroke="midnightblue" points="2059.19,-195.05 2068.27,-189.58 2057.76,-188.19 2059.19,-195.05"/>
</g>
<!-- Node29 -->
<g id="node29" class="node">
<title>Node29</title>
<g id="a_node29"><a xlink:href="class_u_i_handler.html#a99048b81a1303baba7efd44095c0f235" target="_top" xlink:title="Displays Suggestion menu, set the room if in a room">
<polygon fill="white" stroke="black" points="1260.5,-276.5 1260.5,-297.5 1457.5,-297.5 1457.5,-276.5 1260.5,-276.5"/>
<text text-anchor="middle" x="1359" y="-283.9" font-family="Helvetica,sans-Serif" font-size="12.00">UIHandler.DisplayMenuSuggestion</text>
</a>
</g>
</g>
<!-- Node28&#45;&gt;Node29 -->
<g id="edge30" class="edge">
<title>Node28&#45;&gt;Node29</title>
<path fill="none" stroke="midnightblue" d="M1193.34,-287C1211.89,-287 1231.45,-287 1250.37,-287"/>
<polygon fill="midnightblue" stroke="midnightblue" points="1250.5,-290.5 1260.5,-287 1250.49,-283.5 1250.5,-290.5"/>
</g>
<!-- Node29&#45;&gt;Node4 -->
<g id="edge34" class="edge">
<title>Node29&#45;&gt;Node4</title>
<path fill="none" stroke="midnightblue" d="M1457.76,-297.16C1468.84,-300.81 1479.53,-305.64 1489,-312 1513.25,-328.29 1500.62,-350.9 1525,-367 1527.94,-368.94 1531.02,-370.72 1534.2,-372.33"/>
<polygon fill="midnightblue" stroke="midnightblue" points="1532.85,-375.56 1543.41,-376.46 1535.72,-369.17 1532.85,-375.56"/>
</g>
<!-- Node30 -->
<g id="node30" class="node">
<title>Node30</title>
<g id="a_node30"><a xlink:href="class_card_manager.html#a124d7d9ab3a0e7c22ca64c15da76d4b1" target="_top" xlink:title="Looks for the specified weapon card">
<polygon fill="white" stroke="black" points="1567.5,-256.5 1567.5,-277.5 1709.5,-277.5 1709.5,-256.5 1567.5,-256.5"/>
<text text-anchor="middle" x="1638.5" y="-263.9" font-family="Helvetica,sans-Serif" font-size="12.00">CardManager.FindCard</text>
</a>
</g>
</g>
<!-- Node29&#45;&gt;Node30 -->
<g id="edge31" class="edge">
<title>Node29&#45;&gt;Node30</title>
<path fill="none" stroke="midnightblue" d="M1457.84,-279.95C1490.22,-277.61 1525.87,-275.05 1556.82,-272.81"/>
<polygon fill="midnightblue" stroke="midnightblue" points="1557.4,-276.28 1567.12,-272.07 1556.9,-269.3 1557.4,-276.28"/>
</g>
<!-- Node31 -->
<g id="node31" class="node">
<title>Node31</title>
<g id="a_node31"><a xlink:href="class_user_controller.html#a587c55687141d18f375e0504ea4649fa" target="_top" xlink:title="Gets the player controller for the current player">
<polygon fill="white" stroke="black" points="1546,-336.5 1546,-357.5 1731,-357.5 1731,-336.5 1546,-336.5"/>
<text text-anchor="middle" x="1638.5" y="-343.9" font-family="Helvetica,sans-Serif" font-size="12.00">UserController.GetCurrentPlayer</text>
</a>
</g>
</g>
<!-- Node29&#45;&gt;Node31 -->
<g id="edge32" class="edge">
<title>Node29&#45;&gt;Node31</title>
<path fill="none" stroke="midnightblue" d="M1428.25,-297.55C1448.05,-301.32 1469.56,-306.13 1489,-312 1505.59,-317.01 1508.37,-322.12 1525,-327 1534.49,-329.79 1544.56,-332.24 1554.61,-334.4"/>
<polygon fill="midnightblue" stroke="midnightblue" points="1554.14,-337.87 1564.64,-336.45 1555.54,-331.02 1554.14,-337.87"/>
</g>
<!-- Node32 -->
<g id="node32" class="node">
<title>Node32</title>
<g id="a_node32"><a xlink:href="class_suggestion.html#aec2e9ce82ae5f51cea7570bc6dafa43a" target="_top" xlink:title=" ">
<polygon fill="white" stroke="black" points="1564,-296.5 1564,-317.5 1713,-317.5 1713,-296.5 1564,-296.5"/>
<text text-anchor="middle" x="1638.5" y="-303.9" font-family="Helvetica,sans-Serif" font-size="12.00">Suggestion.SetSugRoom</text>
</a>
</g>
</g>
<!-- Node29&#45;&gt;Node32 -->
<g id="edge35" class="edge">
<title>Node29&#45;&gt;Node32</title>
<path fill="none" stroke="midnightblue" d="M1457.84,-294.05C1489.1,-296.3 1523.41,-298.78 1553.59,-300.95"/>
<polygon fill="midnightblue" stroke="midnightblue" points="1553.43,-304.45 1563.65,-301.68 1553.93,-297.47 1553.43,-304.45"/>
</g>
<!-- Node31&#45;&gt;Node26 -->
<g id="edge33" class="edge">
<title>Node31&#45;&gt;Node26</title>
<path fill="none" stroke="midnightblue" d="M1724.05,-336.5C1733.68,-333.98 1743.19,-330.87 1752,-327 1797.28,-307.14 1841.16,-268.43 1864.56,-245.75"/>
<polygon fill="midnightblue" stroke="midnightblue" points="1867.03,-248.23 1871.69,-238.72 1862.11,-243.25 1867.03,-248.23"/>
</g>
<!-- Node35 -->
<g id="node35" class="node">
<title>Node35</title>
<g id="a_node35"><a xlink:href="class_player_token_script.html#af62557bd1edf071efadf23c84f0db1ad" target="_top" xlink:title=" ">
<polygon fill="white" stroke="black" points="1009,-394.5 1009,-415.5 1185,-415.5 1185,-394.5 1009,-394.5"/>
<text text-anchor="middle" x="1097" y="-401.9" font-family="Helvetica,sans-Serif" font-size="12.00">PlayerTokenScript.MoveToken</text>
</a>
</g>
</g>
<!-- Node34&#45;&gt;Node35 -->
<g id="edge40" class="edge">
<title>Node34&#45;&gt;Node35</title>
<path fill="none" stroke="midnightblue" d="M965.21,-405C976.29,-405 987.56,-405 998.62,-405"/>
<polygon fill="midnightblue" stroke="midnightblue" points="998.69,-408.5 1008.69,-405 998.69,-401.5 998.69,-408.5"/>
</g>
<!-- Node36 -->
<g id="node36" class="node">
<title>Node36</title>
<g id="a_node36"><a xlink:href="class_camera_close_up.html#aee634e08987ea079413fd67b737b2c5d" target="_top" xlink:title="Set camera close up to character">
<polygon fill="white" stroke="black" points="1247,-394.5 1247,-415.5 1471,-415.5 1471,-394.5 1247,-394.5"/>
<text text-anchor="middle" x="1359" y="-401.9" font-family="Helvetica,sans-Serif" font-size="12.00">CameraCloseUp.SetCharacterCloseUp</text>
</a>
</g>
</g>
<!-- Node35&#45;&gt;Node36 -->
<g id="edge41" class="edge">
<title>Node35&#45;&gt;Node36</title>
<path fill="none" stroke="midnightblue" d="M1185.3,-405C1201.82,-405 1219.39,-405 1236.74,-405"/>
<polygon fill="midnightblue" stroke="midnightblue" points="1236.92,-408.5 1246.92,-405 1236.92,-401.5 1236.92,-408.5"/>
</g>
<!-- Node38 -->
<g id="node38" class="node">
<title>Node38</title>
<g id="a_node38"><a xlink:href="class_board_tile_script.html#a6257d1f00b3732f6d61a4d98b445890c" target="_top" xlink:title="setting the player token that is currently on this tile">
<polygon fill="white" stroke="black" points="1283,-354.5 1283,-375.5 1435,-375.5 1435,-354.5 1283,-354.5"/>
<text text-anchor="middle" x="1359" y="-361.9" font-family="Helvetica,sans-Serif" font-size="12.00">BoardTileScript.SetToken</text>
</a>
</g>
</g>
<!-- Node35&#45;&gt;Node38 -->
<g id="edge43" class="edge">
<title>Node35&#45;&gt;Node38</title>
<path fill="none" stroke="midnightblue" d="M1166.31,-394.49C1201.11,-389.14 1243.58,-382.6 1279.69,-377.05"/>
<polygon fill="midnightblue" stroke="midnightblue" points="1280.34,-380.49 1289.69,-375.51 1279.28,-373.57 1280.34,-380.49"/>
</g>
<!-- Node37 -->
<g id="node37" class="node">
<title>Node37</title>
<g id="a_node37"><a xlink:href="class_camera_close_up.html#a1d70afa00d6f67abee342c029af88fcf" target="_top" xlink:title="Set close up point">
<polygon fill="white" stroke="black" points="1552.5,-416.5 1552.5,-437.5 1724.5,-437.5 1724.5,-416.5 1552.5,-416.5"/>
<text text-anchor="middle" x="1638.5" y="-423.9" font-family="Helvetica,sans-Serif" font-size="12.00">CameraCloseUp.SetCloseUp</text>
</a>
</g>
</g>
<!-- Node36&#45;&gt;Node37 -->
<g id="edge42" class="edge">
<title>Node36&#45;&gt;Node37</title>
<path fill="none" stroke="midnightblue" d="M1471.27,-413.82C1494.78,-415.69 1519.39,-417.64 1542.25,-419.45"/>
<polygon fill="midnightblue" stroke="midnightblue" points="1542.02,-422.94 1552.27,-420.24 1542.58,-415.96 1542.02,-422.94"/>
</g>
<!-- Node39&#45;&gt;Node2 -->
<g id="edge45" class="edge">
<title>Node39&#45;&gt;Node2</title>
<path fill="none" stroke="midnightblue" d="M447.89,-531.53C480.26,-536.31 518.71,-541.99 552.24,-546.93"/>
<polygon fill="midnightblue" stroke="midnightblue" points="552.07,-550.45 562.47,-548.44 553.09,-543.52 552.07,-550.45"/>
</g>
<!-- Node39&#45;&gt;Node3 -->
<g id="edge46" class="edge">
<title>Node39&#45;&gt;Node3</title>
<path fill="none" stroke="midnightblue" d="M460.58,-520.83C545.03,-520.65 675.14,-520.39 764.64,-520.2"/>
<polygon fill="midnightblue" stroke="midnightblue" points="764.81,-523.7 774.8,-520.18 764.79,-516.7 764.81,-523.7"/>
</g>
</g>
</svg>
