<?xml version="1.0" encoding="UTF-8" standalone="no"?>
<!DOCTYPE svg PUBLIC "-//W3C//DTD SVG 1.1//EN"
 "http://www.w3.org/Graphics/SVG/1.1/DTD/svg11.dtd">
<!-- Generated by graphviz version 2.47.1 (20210417.1919)
 -->
<!-- Title: BoardBuilder.CreateShortcutTile Pages: 1 -->
<svg width="472pt" height="70pt"
 viewBox="0.00 0.00 472.00 70.00" xmlns="http://www.w3.org/2000/svg" xmlns:xlink="http://www.w3.org/1999/xlink">
<g id="graph0" class="graph" transform="scale(1 1) rotate(0) translate(4 66)">
<title>BoardBuilder.CreateShortcutTile</title>
<polygon fill="white" stroke="transparent" points="-4,4 -4,-66 468,-66 468,4 -4,4"/>
<!-- Node1 -->
<g id="node1" class="node">
<title>Node1</title>
<g id="a_node1"><a xlink:title="Instantiate a shortcut tile and set its parameters">
<polygon fill="#bfbfbf" stroke="black" points="0,-20.5 0,-41.5 186,-41.5 186,-20.5 0,-20.5"/>
<text text-anchor="middle" x="93" y="-27.9" font-family="Helvetica,sans-Serif" font-size="12.00">BoardBuilder.CreateShortcutTile</text>
</a>
</g>
</g>
<!-- Node2 -->
<g id="node2" class="node">
<title>Node2</title>
<g id="a_node2"><a xlink:href="class_room_script.html#a1747ef3091a32115e7bdbd53f5764a31" target="_top" xlink:title="Get Room Enum from string">
<polygon fill="white" stroke="black" points="247.5,-40.5 247.5,-61.5 438.5,-61.5 438.5,-40.5 247.5,-40.5"/>
<text text-anchor="middle" x="343" y="-47.9" font-family="Helvetica,sans-Serif" font-size="12.00">RoomScript.GetRoomFromString</text>
</a>
</g>
</g>
<!-- Node1&#45;&gt;Node2 -->
<g id="edge1" class="edge">
<title>Node1&#45;&gt;Node2</title>
<path fill="none" stroke="midnightblue" d="M186.35,-38.45C202.77,-39.77 219.98,-41.16 236.73,-42.51"/>
<polygon fill="midnightblue" stroke="midnightblue" points="236.84,-46.03 247.09,-43.35 237.41,-39.05 236.84,-46.03"/>
</g>
<!-- Node3 -->
<g id="node3" class="node">
<title>Node3</title>
<g id="a_node3"><a xlink:href="class_shortcut_board_tile_script.html#a6d476b580271ad3b4ad963c152823d22" target="_top" xlink:title="Set shortcut rooms">
<polygon fill="white" stroke="black" points="222,-0.5 222,-21.5 464,-21.5 464,-0.5 222,-0.5"/>
<text text-anchor="middle" x="343" y="-7.9" font-family="Helvetica,sans-Serif" font-size="12.00">ShortcutBoardTileScript.SetShortcutRooms</text>
</a>
</g>
</g>
<!-- Node1&#45;&gt;Node3 -->
<g id="edge2" class="edge">
<title>Node1&#45;&gt;Node3</title>
<path fill="none" stroke="midnightblue" d="M186.35,-23.55C194.66,-22.88 203.18,-22.2 211.74,-21.51"/>
<polygon fill="midnightblue" stroke="midnightblue" points="212.1,-24.99 221.79,-20.69 211.54,-18.01 212.1,-24.99"/>
</g>
</g>
</svg>
