<?xml version="1.0" encoding="UTF-8" standalone="no"?>
<!DOCTYPE svg PUBLIC "-//W3C//DTD SVG 1.1//EN"
 "http://www.w3.org/Graphics/SVG/1.1/DTD/svg11.dtd">
<!-- Generated by graphviz version 2.47.1 (20210417.1919)
 -->
<!-- Title: RoomPlayerSlot Pages: 1 -->
<svg width="166pt" height="211pt"
 viewBox="0.00 0.00 166.00 211.00" xmlns="http://www.w3.org/2000/svg" xmlns:xlink="http://www.w3.org/1999/xlink">
<g id="graph0" class="graph" transform="scale(1 1) rotate(0) translate(4 207)">
<title>RoomPlayerSlot</title>
<polygon fill="white" stroke="transparent" points="-4,4 -4,-207 162,-207 162,4 -4,4"/>
<!-- Node1 -->
<g id="node1" class="node">
<title>Node1</title>
<g id="a_node1"><a xlink:title="Class for the Room player slot GameObject">
<polygon fill="#bfbfbf" stroke="black" points="0,-0.5 0,-102.5 158,-102.5 158,-0.5 0,-0.5"/>
<text text-anchor="middle" x="79" y="-88.9" font-family="Helvetica,sans-Serif" font-size="12.00">RoomPlayerSlot</text>
<polyline fill="none" stroke="black" points="0,-81.5 158,-81.5 "/>
<text text-anchor="start" x="8" y="-67.9" font-family="Helvetica,sans-Serif" font-size="12.00">&#45; playerInSlot</text>
<polyline fill="none" stroke="black" points="0,-60.5 158,-60.5 "/>
<text text-anchor="start" x="8" y="-46.9" font-family="Helvetica,sans-Serif" font-size="12.00">+ AddPlayerToSlot()</text>
<text text-anchor="start" x="8" y="-33.9" font-family="Helvetica,sans-Serif" font-size="12.00">+ RemovePlayerFromSlot()</text>
<text text-anchor="start" x="8" y="-20.9" font-family="Helvetica,sans-Serif" font-size="12.00">+ SlotOccupied()</text>
<text text-anchor="start" x="8" y="-7.9" font-family="Helvetica,sans-Serif" font-size="12.00">+ GetCharacterInSlot()</text>
</a>
</g>
</g>
<!-- Node2 -->
<g id="node2" class="node">
<title>Node2</title>
<g id="a_node2"><a xlink:title=" ">
<polygon fill="white" stroke="#bfbfbf" points="30,-139.5 30,-202.5 128,-202.5 128,-139.5 30,-139.5"/>
<text text-anchor="middle" x="79" y="-188.9" font-family="Helvetica,sans-Serif" font-size="12.00">MonoBehaviour</text>
<polyline fill="none" stroke="#bfbfbf" points="30,-181.5 128,-181.5 "/>
<text text-anchor="middle" x="79" y="-167.9" font-family="Helvetica,sans-Serif" font-size="12.00"> </text>
<polyline fill="none" stroke="#bfbfbf" points="30,-160.5 128,-160.5 "/>
<text text-anchor="middle" x="79" y="-146.9" font-family="Helvetica,sans-Serif" font-size="12.00"> </text>
</a>
</g>
</g>
<!-- Node2&#45;&gt;Node1 -->
<g id="edge1" class="edge">
<title>Node2&#45;&gt;Node1</title>
<path fill="none" stroke="midnightblue" d="M79,-129.37C79,-120.85 79,-111.77 79,-102.94"/>
<polygon fill="none" stroke="midnightblue" points="75.5,-129.43 79,-139.43 82.5,-129.44 75.5,-129.43"/>
</g>
</g>
</svg>
