<?xml version="1.0" encoding="UTF-8" standalone="no"?>
<!DOCTYPE svg PUBLIC "-//W3C//DTD SVG 1.1//EN"
 "http://www.w3.org/Graphics/SVG/1.1/DTD/svg11.dtd">
<!-- Generated by graphviz version 2.47.1 (20210417.1919)
 -->
<!-- Title: DoorScript.CloseDoor Pages: 1 -->
<svg width="449pt" height="70pt"
 viewBox="0.00 0.00 449.00 70.00" xmlns="http://www.w3.org/2000/svg" xmlns:xlink="http://www.w3.org/1999/xlink">
<g id="graph0" class="graph" transform="scale(1 1) rotate(0) translate(4 66)">
<title>DoorScript.CloseDoor</title>
<polygon fill="white" stroke="transparent" points="-4,4 -4,-66 445,-66 445,4 -4,4"/>
<!-- Node1 -->
<g id="node1" class="node">
<title>Node1</title>
<g id="a_node1"><a xlink:title="Close the door">
<polygon fill="#bfbfbf" stroke="black" points="307,-20.5 307,-41.5 441,-41.5 441,-20.5 307,-20.5"/>
<text text-anchor="middle" x="374" y="-27.9" font-family="Helvetica,sans-Serif" font-size="12.00">DoorScript.CloseDoor</text>
</a>
</g>
</g>
<!-- Node2 -->
<g id="node2" class="node">
<title>Node2</title>
<g id="a_node2"><a xlink:href="class_room_entry_board_tile_script.html#a72d3a7835dcd42fc00e6c6caf0d1e174" target="_top" xlink:title="Open door, pause start player entry, pause then close door">
<polygon fill="white" stroke="black" points="0,-40.5 0,-61.5 271,-61.5 271,-40.5 0,-40.5"/>
<text text-anchor="middle" x="135.5" y="-47.9" font-family="Helvetica,sans-Serif" font-size="12.00">RoomEntryBoardTileScript.EnterRoomAnimation</text>
</a>
</g>
</g>
<!-- Node1&#45;&gt;Node2 -->
<g id="edge1" class="edge">
<title>Node1&#45;&gt;Node2</title>
<path fill="none" stroke="midnightblue" d="M296.52,-37.47C285.13,-38.43 273.14,-39.45 261.06,-40.47"/>
<polygon fill="midnightblue" stroke="midnightblue" points="297.14,-40.93 306.81,-36.6 296.55,-33.95 297.14,-40.93"/>
</g>
<!-- Node3 -->
<g id="node3" class="node">
<title>Node3</title>
<g id="a_node3"><a xlink:href="class_room_entry_board_tile_script.html#a89563c1c09bdf5bb73347dd676a10f2d" target="_top" xlink:title="Move player to exit point, open door, exit player, close door, set player moving to target tile.">
<polygon fill="white" stroke="black" points="15.5,-0.5 15.5,-21.5 255.5,-21.5 255.5,-0.5 15.5,-0.5"/>
<text text-anchor="middle" x="135.5" y="-7.9" font-family="Helvetica,sans-Serif" font-size="12.00">RoomEntryBoardTileScript.ExitRoomDelay</text>
</a>
</g>
</g>
<!-- Node1&#45;&gt;Node3 -->
<g id="edge2" class="edge">
<title>Node1&#45;&gt;Node3</title>
<path fill="none" stroke="midnightblue" d="M296.49,-24.53C283.4,-23.42 269.53,-22.25 255.64,-21.08"/>
<polygon fill="midnightblue" stroke="midnightblue" points="296.55,-28.05 306.81,-25.4 297.14,-21.07 296.55,-28.05"/>
</g>
</g>
</svg>
