<?xml version="1.0" encoding="UTF-8" standalone="no"?>
<!DOCTYPE svg PUBLIC "-//W3C//DTD SVG 1.1//EN"
 "http://www.w3.org/Graphics/SVG/1.1/DTD/svg11.dtd">
<!-- Generated by graphviz version 2.47.1 (20210417.1919)
 -->
<!-- Title: UnityTemplateProjects.SimpleCameraController.Update Pages: 1 -->
<!--zoomable 150 -->
<svg id="main" version="1.1" xmlns="http://www.w3.org/2000/svg" xmlns:xlink="http://www.w3.org/1999/xlink" xml:space="preserve" onload="init(evt)">
<style type="text/css"><![CDATA[
.edge:hover path { stroke: red; }
.edge:hover polygon { stroke: red; fill: red; }
]]></style>
<script type="text/javascript"><![CDATA[
var edges = document.getElementsByTagName('g');
if (edges && edges.length) {
  for (var i=0;i<edges.length;i++) {
    if (edges[i].id.substr(0,4)=='edge') {
      edges[i].setAttribute('class','edge');
    }
  }
}
]]></script>
        <defs>
                <circle id="rim" cx="0" cy="0" r="7"/>
                <circle id="rim2" cx="0" cy="0" r="3.5"/>
                <g id="zoomPlus">
                        <use xlink:href="#rim" fill="#404040">
                                <set attributeName="fill" to="#808080" begin="zoomplus.mouseover" end="zoomplus.mouseout"/>
                        </use>
                        <path d="M-4,0h8M0,-4v8" fill="none" stroke="white" stroke-width="1.5" pointer-events="none"/>
                </g>
                <g id="zoomMin">
                        <use xlink:href="#rim" fill="#404040">
                                <set attributeName="fill" to="#808080" begin="zoomminus.mouseover" end="zoomminus.mouseout"/>
                        </use>
                        <path d="M-4,0h8" fill="none" stroke="white" stroke-width="1.5" pointer-events="none"/>
                </g>
                <g id="dirArrow">
                        <path fill="none" stroke="white" stroke-width="1.5" d="M0,-3.0v7 M-2.5,-0.5L0,-3.0L2.5,-0.5"/>
                </g>
               <g id="resetDef">
                       <use xlink:href="#rim2" fill="#404040">
                               <set attributeName="fill" to="#808080" begin="reset.mouseover" end="reset.mouseout"/>
                       </use>
               </g>
        </defs>

<script type="text/javascript">
var viewWidth = 786;
var viewHeight = 150;
var sectionId = 'dynsection-4';
</script>
<script xlink:href="svgpan.js"/>
<svg id="graph" class="graph">
<g id="viewport">
<title>UnityTemplateProjects.SimpleCameraController.Update</title>
<polygon fill="white" stroke="transparent" points="-4,4 -4,-146 782,-146 782,4 -4,4"/>
<!-- Node1 -->
<g id="node1" class="node">
<title>Node1</title>
<g id="a_node1"><a xlink:title=" ">
<polygon fill="#bfbfbf" stroke="black" points="0,-60.5 0,-81.5 308,-81.5 308,-60.5 0,-60.5"/>
<text text-anchor="middle" x="154" y="-67.9" font-family="Helvetica,sans-Serif" font-size="12.00">UnityTemplateProjects.SimpleCameraController.Update</text>
</a>
</g>
</g>
<!-- Node2 -->
<g id="node2" class="node">
<title>Node2</title>
<g id="a_node2"><a xlink:href="class_unity_template_projects_1_1_simple_camera_controller.html#ae2b6609babb235be936175d7455d2750" target="_top" xlink:title=" ">
<polygon fill="white" stroke="black" points="353,-120.5 353,-141.5 769,-141.5 769,-120.5 353,-120.5"/>
<text text-anchor="middle" x="561" y="-127.9" font-family="Helvetica,sans-Serif" font-size="12.00">UnityTemplateProjects.SimpleCameraController.GetInputTranslationDirection</text>
</a>
</g>
</g>
<!-- Node1&#45;&gt;Node2 -->
<g id="edge1" class="edge">
<title>Node1&#45;&gt;Node2</title>
<path fill="none" stroke="midnightblue" d="M197.9,-81.57C236.04,-90.61 293.43,-103.33 344,-111 365.39,-114.24 388.06,-117.04 410.36,-119.42"/>
<polygon fill="midnightblue" stroke="midnightblue" points="410.26,-122.93 420.57,-120.49 410.99,-115.97 410.26,-122.93"/>
</g>
<!-- Node3 -->
<g id="node3" class="node">
<title>Node3</title>
<g id="a_node3"><a xlink:href="class_unity_template_projects_1_1_simple_camera_controller_1_1_camera_state.html#a43c44b09172e63d2c28a5ac0034e5d43" target="_top" xlink:title=" ">
<polygon fill="white" stroke="black" points="355,-80.5 355,-101.5 767,-101.5 767,-80.5 355,-80.5"/>
<text text-anchor="middle" x="561" y="-87.9" font-family="Helvetica,sans-Serif" font-size="12.00">UnityTemplateProjects.SimpleCameraController.CameraState.LerpTowards</text>
</a>
</g>
</g>
<!-- Node1&#45;&gt;Node3 -->
<g id="edge2" class="edge">
<title>Node1&#45;&gt;Node3</title>
<path fill="none" stroke="midnightblue" d="M308.11,-78.56C320.1,-79.15 332.33,-79.76 344.63,-80.36"/>
<polygon fill="midnightblue" stroke="midnightblue" points="344.81,-83.88 354.97,-80.88 345.16,-76.89 344.81,-83.88"/>
</g>
<!-- Node4 -->
<g id="node4" class="node">
<title>Node4</title>
<g id="a_node4"><a xlink:href="class_unity_template_projects_1_1_simple_camera_controller_1_1_camera_state.html#af09a1ed9339d0221870048eade23c8d5" target="_top" xlink:title=" ">
<polygon fill="white" stroke="black" points="365.5,-40.5 365.5,-61.5 756.5,-61.5 756.5,-40.5 365.5,-40.5"/>
<text text-anchor="middle" x="561" y="-47.9" font-family="Helvetica,sans-Serif" font-size="12.00">UnityTemplateProjects.SimpleCameraController.CameraState.Translate</text>
</a>
</g>
</g>
<!-- Node1&#45;&gt;Node4 -->
<g id="edge3" class="edge">
<title>Node1&#45;&gt;Node4</title>
<path fill="none" stroke="midnightblue" d="M308.11,-63.44C323.46,-62.68 339.2,-61.9 354.97,-61.12"/>
<polygon fill="midnightblue" stroke="midnightblue" points="355.51,-64.6 365.33,-60.61 355.17,-57.61 355.51,-64.6"/>
</g>
<!-- Node5 -->
<g id="node5" class="node">
<title>Node5</title>
<g id="a_node5"><a xlink:href="class_unity_template_projects_1_1_simple_camera_controller_1_1_camera_state.html#abd88f273e1448fa66f1e99341180f423" target="_top" xlink:title=" ">
<polygon fill="white" stroke="black" points="344,-0.5 344,-21.5 778,-21.5 778,-0.5 344,-0.5"/>
<text text-anchor="middle" x="561" y="-7.9" font-family="Helvetica,sans-Serif" font-size="12.00">UnityTemplateProjects.SimpleCameraController.CameraState.UpdateTransform</text>
</a>
</g>
</g>
<!-- Node1&#45;&gt;Node5 -->
<g id="edge4" class="edge">
<title>Node1&#45;&gt;Node5</title>
<path fill="none" stroke="midnightblue" d="M197.9,-60.43C236.04,-51.39 293.43,-38.67 344,-31 365.39,-27.76 388.06,-24.96 410.36,-22.58"/>
<polygon fill="midnightblue" stroke="midnightblue" points="410.99,-26.03 420.57,-21.51 410.26,-19.07 410.99,-26.03"/>
</g>
</g>
</svg>
        <g id="navigator" transform="translate(0 0)" fill="#404254">
                <rect fill="#f2f5e9" fill-opacity="0.5" stroke="#606060" stroke-width=".5" x="0" y="0" width="60" height="60"/>
                <use id="zoomplus" xlink:href="#zoomPlus" x="17" y="9" onmousedown="handleZoom(evt,'in')"/>
                <use id="zoomminus" xlink:href="#zoomMin" x="42" y="9" onmousedown="handleZoom(evt,'out')"/>
                <use id="reset" xlink:href="#resetDef" x="30" y="36" onmousedown="handleReset()"/>
                <g id="arrowUp" xlink:href="#dirArrow" transform="translate(30 24)" onmousedown="handlePan(0,-1)">
                  <use xlink:href="#rim" fill="#404040">
                        <set attributeName="fill" to="#808080" begin="arrowUp.mouseover" end="arrowUp.mouseout"/>
                  </use>
                  <path fill="none" stroke="white" stroke-width="1.5" d="M0,-3.0v7 M-2.5,-0.5L0,-3.0L2.5,-0.5"/>
                </g>
                <g id="arrowRight" xlink:href="#dirArrow" transform="rotate(90) translate(36 -43)" onmousedown="handlePan(1,0)">
                  <use xlink:href="#rim" fill="#404040">
                        <set attributeName="fill" to="#808080" begin="arrowRight.mouseover" end="arrowRight.mouseout"/>
                  </use>
                  <path fill="none" stroke="white" stroke-width="1.5" d="M0,-3.0v7 M-2.5,-0.5L0,-3.0L2.5,-0.5"/>
                </g>
                <g id="arrowDown" xlink:href="#dirArrow" transform="rotate(180) translate(-30 -48)" onmousedown="handlePan(0,1)">
                  <use xlink:href="#rim" fill="#404040">
                        <set attributeName="fill" to="#808080" begin="arrowDown.mouseover" end="arrowDown.mouseout"/>
                  </use>
                  <path fill="none" stroke="white" stroke-width="1.5" d="M0,-3.0v7 M-2.5,-0.5L0,-3.0L2.5,-0.5"/>
                </g>
                <g id="arrowLeft" xlink:href="#dirArrow" transform="rotate(270) translate(-36 17)" onmousedown="handlePan(-1,0)">
                  <use xlink:href="#rim" fill="#404040">
                        <set attributeName="fill" to="#808080" begin="arrowLeft.mouseover" end="arrowLeft.mouseout"/>
                  </use>
                  <path fill="none" stroke="white" stroke-width="1.5" d="M0,-3.0v7 M-2.5,-0.5L0,-3.0L2.5,-0.5"/>
                </g>
        </g>
        <svg viewBox="0 0 15 15" width="100%" height="30px" preserveAspectRatio="xMaxYMin meet">
         <g id="arrow_out" transform="scale(0.3 0.3)">
          <a xlink:href="class_unity_template_projects_1_1_simple_camera_controller_ac686087af321da8af616128bfa748d39_cgraph_org.svg" target="_base">
           <rect id="button" ry="5" rx="5" y="6" x="6" height="38" width="38"
                fill="#f2f5e9" fill-opacity="0.5" stroke="#606060" stroke-width="1.0"/>
           <path id="arrow"
             d="M 11.500037,31.436501 C 11.940474,20.09759 22.043105,11.32322 32.158766,21.979434 L 37.068811,17.246167 C 37.068811,17.246167 37.088388,32 37.088388,32 L 22.160133,31.978069 C 22.160133,31.978069 26.997745,27.140456 26.997745,27.140456 C 18.528582,18.264221 13.291696,25.230495 11.500037,31.436501 z"
             style="fill:#404040;"/>
          </a>
         </g>
        </svg>
</svg>
