<?xml version="1.0" encoding="UTF-8" standalone="no"?>
<!DOCTYPE svg PUBLIC "-//W3C//DTD SVG 1.1//EN"
 "http://www.w3.org/Graphics/SVG/1.1/DTD/svg11.dtd">
<!-- Generated by graphviz version 2.47.1 (20210417.1919)
 -->
<!-- Title: WinScreenScript Pages: 1 -->
<svg width="113pt" height="250pt"
 viewBox="0.00 0.00 113.00 250.00" xmlns="http://www.w3.org/2000/svg" xmlns:xlink="http://www.w3.org/1999/xlink">
<g id="graph0" class="graph" transform="scale(1 1) rotate(0) translate(4 246)">
<title>WinScreenScript</title>
<polygon fill="white" stroke="transparent" points="-4,4 -4,-246 109,-246 109,4 -4,4"/>
<!-- Node1 -->
<g id="node1" class="node">
<title>Node1</title>
<g id="a_node1"><a xlink:title="Script to create the win screnn">
<polygon fill="#bfbfbf" stroke="black" points="0,-0.5 0,-141.5 105,-141.5 105,-0.5 0,-0.5"/>
<text text-anchor="middle" x="52.5" y="-127.9" font-family="Helvetica,sans-Serif" font-size="12.00">WinScreenScript</text>
<polyline fill="none" stroke="black" points="0,-120.5 105,-120.5 "/>
<text text-anchor="start" x="8" y="-106.9" font-family="Helvetica,sans-Serif" font-size="12.00">&#45; murdererCard</text>
<text text-anchor="start" x="8" y="-93.9" font-family="Helvetica,sans-Serif" font-size="12.00">&#45; roomCard</text>
<text text-anchor="start" x="8" y="-80.9" font-family="Helvetica,sans-Serif" font-size="12.00">&#45; weaponCard</text>
<text text-anchor="start" x="8" y="-67.9" font-family="Helvetica,sans-Serif" font-size="12.00">&#45; winText</text>
<text text-anchor="start" x="8" y="-54.9" font-family="Helvetica,sans-Serif" font-size="12.00">&#45; cardManager</text>
<text text-anchor="start" x="8" y="-41.9" font-family="Helvetica,sans-Serif" font-size="12.00">&#45; roundManager</text>
<polyline fill="none" stroke="black" points="0,-34.5 105,-34.5 "/>
<text text-anchor="start" x="8" y="-20.9" font-family="Helvetica,sans-Serif" font-size="12.00">&#45; Awake()</text>
<text text-anchor="start" x="8" y="-7.9" font-family="Helvetica,sans-Serif" font-size="12.00">&#45; OnEnable()</text>
</a>
</g>
</g>
<!-- Node2 -->
<g id="node2" class="node">
<title>Node2</title>
<g id="a_node2"><a xlink:title=" ">
<polygon fill="white" stroke="#bfbfbf" points="3.5,-178.5 3.5,-241.5 101.5,-241.5 101.5,-178.5 3.5,-178.5"/>
<text text-anchor="middle" x="52.5" y="-227.9" font-family="Helvetica,sans-Serif" font-size="12.00">MonoBehaviour</text>
<polyline fill="none" stroke="#bfbfbf" points="3.5,-220.5 101.5,-220.5 "/>
<text text-anchor="middle" x="52.5" y="-206.9" font-family="Helvetica,sans-Serif" font-size="12.00"> </text>
<polyline fill="none" stroke="#bfbfbf" points="3.5,-199.5 101.5,-199.5 "/>
<text text-anchor="middle" x="52.5" y="-185.9" font-family="Helvetica,sans-Serif" font-size="12.00"> </text>
</a>
</g>
</g>
<!-- Node2&#45;&gt;Node1 -->
<g id="edge1" class="edge">
<title>Node2&#45;&gt;Node1</title>
<path fill="none" stroke="midnightblue" d="M52.5,-168.04C52.5,-159.66 52.5,-150.62 52.5,-141.55"/>
<polygon fill="none" stroke="midnightblue" points="49,-168.25 52.5,-178.25 56,-168.25 49,-168.25"/>
</g>
</g>
</svg>
