<?xml version="1.0" encoding="UTF-8" standalone="no"?>
<!DOCTYPE svg PUBLIC "-//W3C//DTD SVG 1.1//EN"
 "http://www.w3.org/Graphics/SVG/1.1/DTD/svg11.dtd">
<!-- Generated by graphviz version 2.47.1 (20210417.1919)
 -->
<!-- Title: CameraCloseUp.ClearCloseUpDelay Pages: 1 -->
<!--zoomable 369 -->
<svg id="main" version="1.1" xmlns="http://www.w3.org/2000/svg" xmlns:xlink="http://www.w3.org/1999/xlink" xml:space="preserve" onload="init(evt)">
<style type="text/css"><![CDATA[
.edge:hover path { stroke: red; }
.edge:hover polygon { stroke: red; fill: red; }
]]></style>
<script type="text/javascript"><![CDATA[
var edges = document.getElementsByTagName('g');
if (edges && edges.length) {
  for (var i=0;i<edges.length;i++) {
    if (edges[i].id.substr(0,4)=='edge') {
      edges[i].setAttribute('class','edge');
    }
  }
}
]]></script>
        <defs>
                <circle id="rim" cx="0" cy="0" r="7"/>
                <circle id="rim2" cx="0" cy="0" r="3.5"/>
                <g id="zoomPlus">
                        <use xlink:href="#rim" fill="#404040">
                                <set attributeName="fill" to="#808080" begin="zoomplus.mouseover" end="zoomplus.mouseout"/>
                        </use>
                        <path d="M-4,0h8M0,-4v8" fill="none" stroke="white" stroke-width="1.5" pointer-events="none"/>
                </g>
                <g id="zoomMin">
                        <use xlink:href="#rim" fill="#404040">
                                <set attributeName="fill" to="#808080" begin="zoomminus.mouseover" end="zoomminus.mouseout"/>
                        </use>
                        <path d="M-4,0h8" fill="none" stroke="white" stroke-width="1.5" pointer-events="none"/>
                </g>
                <g id="dirArrow">
                        <path fill="none" stroke="white" stroke-width="1.5" d="M0,-3.0v7 M-2.5,-0.5L0,-3.0L2.5,-0.5"/>
                </g>
               <g id="resetDef">
                       <use xlink:href="#rim2" fill="#404040">
                               <set attributeName="fill" to="#808080" begin="reset.mouseover" end="reset.mouseout"/>
                       </use>
               </g>
        </defs>

<script type="text/javascript">
var viewWidth = 2444;
var viewHeight = 369;
var sectionId = 'dynsection-4';
</script>
<script xlink:href="svgpan.js"/>
<svg id="graph" class="graph">
<g id="viewport">
<title>CameraCloseUp.ClearCloseUpDelay</title>
<polygon fill="white" stroke="transparent" points="-4,4 -4,-365 2440,-365 2440,4 -4,4"/>
<!-- Node1 -->
<g id="node1" class="node">
<title>Node1</title>
<g id="a_node1"><a xlink:title="Delay then clear close up">
<polygon fill="#bfbfbf" stroke="black" points="2224,-160.5 2224,-181.5 2436,-181.5 2436,-160.5 2224,-160.5"/>
<text text-anchor="middle" x="2330" y="-167.9" font-family="Helvetica,sans-Serif" font-size="12.00">CameraCloseUp.ClearCloseUpDelay</text>
</a>
</g>
</g>
<!-- Node2 -->
<g id="node2" class="node">
<title>Node2</title>
<g id="a_node2"><a xlink:href="class_camera_close_up.html#ad31062bdf359a453fc85ebdd71fa1bae" target="_top" xlink:title="Clear camera close up">
<polygon fill="white" stroke="black" points="2006,-160.5 2006,-181.5 2188,-181.5 2188,-160.5 2006,-160.5"/>
<text text-anchor="middle" x="2097" y="-167.9" font-family="Helvetica,sans-Serif" font-size="12.00">CameraCloseUp.ClearCloseUp</text>
</a>
</g>
</g>
<!-- Node1&#45;&gt;Node2 -->
<g id="edge1" class="edge">
<title>Node1&#45;&gt;Node2</title>
<path fill="none" stroke="midnightblue" d="M2213.9,-171C2205.3,-171 2196.7,-171 2188.28,-171"/>
<polygon fill="midnightblue" stroke="midnightblue" points="2213.98,-174.5 2223.98,-171 2213.98,-167.5 2213.98,-174.5"/>
</g>
<!-- Node3 -->
<g id="node3" class="node">
<title>Node3</title>
<g id="a_node3"><a xlink:href="class_round_manager.html#a29177f2e27c6c4af55dfa3c48d67cfb0" target="_top" xlink:title="Ending the turn. Returns the next player">
<polygon fill="white" stroke="black" points="1509,-280.5 1509,-301.5 1652,-301.5 1652,-280.5 1509,-280.5"/>
<text text-anchor="middle" x="1580.5" y="-287.9" font-family="Helvetica,sans-Serif" font-size="12.00">RoundManager.EndTurn</text>
</a>
</g>
</g>
<!-- Node2&#45;&gt;Node3 -->
<g id="edge2" class="edge">
<title>Node2&#45;&gt;Node3</title>
<path fill="none" stroke="midnightblue" d="M2047.72,-184.14C1972.5,-204.35 1822.58,-243.61 1694,-271 1678.19,-274.37 1661.04,-277.62 1645.01,-280.49"/>
<polygon fill="midnightblue" stroke="midnightblue" points="2048.65,-187.51 2057.4,-181.53 2046.83,-180.75 2048.65,-187.51"/>
</g>
<!-- Node9 -->
<g id="node9" class="node">
<title>Node9</title>
<g id="a_node9"><a xlink:href="class_dice.html#ade1dc529eeb31f31e668c595c5748e67" target="_top" xlink:title="Reset the dice">
<polygon fill="white" stroke="black" points="1800,-160.5 1800,-181.5 1900,-181.5 1900,-160.5 1800,-160.5"/>
<text text-anchor="middle" x="1850" y="-167.9" font-family="Helvetica,sans-Serif" font-size="12.00">Dice.ResetDice</text>
</a>
</g>
</g>
<!-- Node2&#45;&gt;Node9 -->
<g id="edge8" class="edge">
<title>Node2&#45;&gt;Node9</title>
<path fill="none" stroke="midnightblue" d="M1995.67,-171C1962.71,-171 1927.53,-171 1900.12,-171"/>
<polygon fill="midnightblue" stroke="midnightblue" points="1995.81,-174.5 2005.81,-171 1995.81,-167.5 1995.81,-174.5"/>
</g>
<!-- Node28 -->
<g id="node28" class="node">
<title>Node28</title>
<g id="a_node28"><a xlink:href="class_player_token_script.html#ab5c5b11cccd8bac2a7243238f808929e" target="_top" xlink:title=" ">
<polygon fill="white" stroke="black" points="1730,-60.5 1730,-81.5 1970,-81.5 1970,-60.5 1730,-60.5"/>
<text text-anchor="middle" x="1850" y="-67.9" font-family="Helvetica,sans-Serif" font-size="12.00">PlayerTokenScript.UpdateTokenMovement</text>
</a>
</g>
</g>
<!-- Node2&#45;&gt;Node28 -->
<g id="edge30" class="edge">
<title>Node2&#45;&gt;Node28</title>
<path fill="none" stroke="midnightblue" d="M2060.83,-156.65C2010.98,-136.3 1920.91,-99.53 1876.78,-81.52"/>
<polygon fill="midnightblue" stroke="midnightblue" points="2059.66,-159.95 2070.24,-160.49 2062.31,-153.47 2059.66,-159.95"/>
</g>
<!-- Node4 -->
<g id="node4" class="node">
<title>Node4</title>
<g id="a_node4"><a xlink:href="class_user_controller.html#ab90611f541e20c125133d09b62407f41" target="_top" xlink:title="Ends turn">
<polygon fill="white" stroke="black" points="1278.5,-300.5 1278.5,-321.5 1416.5,-321.5 1416.5,-300.5 1278.5,-300.5"/>
<text text-anchor="middle" x="1347.5" y="-307.9" font-family="Helvetica,sans-Serif" font-size="12.00">UserController.EndTurn</text>
</a>
</g>
</g>
<!-- Node3&#45;&gt;Node4 -->
<g id="edge3" class="edge">
<title>Node3&#45;&gt;Node4</title>
<path fill="none" stroke="midnightblue" d="M1498.81,-297.99C1472,-300.31 1442.42,-302.87 1416.65,-305.1"/>
<polygon fill="midnightblue" stroke="midnightblue" points="1499.28,-301.46 1508.94,-297.11 1498.67,-294.49 1499.28,-301.46"/>
</g>
<!-- Node5 -->
<g id="node5" class="node">
<title>Node5</title>
<g id="a_node5"><a xlink:href="class_a_i_controller_script.html#a9c386cf1258ad897c9a1068804f07ba0" target="_top" xlink:title="have AI to end turn">
<polygon fill="white" stroke="black" points="691,-339.5 691,-360.5 846,-360.5 846,-339.5 691,-339.5"/>
<text text-anchor="middle" x="768.5" y="-346.9" font-family="Helvetica,sans-Serif" font-size="12.00">AIControllerScript.EndTurn</text>
</a>
</g>
</g>
<!-- Node4&#45;&gt;Node5 -->
<g id="edge4" class="edge">
<title>Node4&#45;&gt;Node5</title>
<path fill="none" stroke="midnightblue" d="M1282.55,-323.31C1264.93,-326.28 1245.78,-329.14 1228,-331 1094.29,-345 937.63,-348.8 846.38,-349.76"/>
<polygon fill="midnightblue" stroke="midnightblue" points="1283.46,-326.7 1292.72,-321.55 1282.27,-319.8 1283.46,-326.7"/>
</g>
<!-- Node8 -->
<g id="node8" class="node">
<title>Node8</title>
<g id="a_node8"><a xlink:href="class_u_i_handler.html#acc06a1dab8566d9e14f7ab3ae1ffea93" target="_top" xlink:title="Ends current player&#39;s turn">
<polygon fill="white" stroke="black" points="1096.5,-300.5 1096.5,-321.5 1210.5,-321.5 1210.5,-300.5 1096.5,-300.5"/>
<text text-anchor="middle" x="1153.5" y="-307.9" font-family="Helvetica,sans-Serif" font-size="12.00">UIHandler.EndTurn</text>
</a>
</g>
</g>
<!-- Node4&#45;&gt;Node8 -->
<g id="edge7" class="edge">
<title>Node4&#45;&gt;Node8</title>
<path fill="none" stroke="midnightblue" d="M1268.04,-311C1248.86,-311 1228.71,-311 1210.8,-311"/>
<polygon fill="midnightblue" stroke="midnightblue" points="1268.27,-314.5 1278.27,-311 1268.27,-307.5 1268.27,-314.5"/>
</g>
<!-- Node6 -->
<g id="node6" class="node">
<title>Node6</title>
<g id="a_node6"><a xlink:href="class_a_i_controller_script.html#ac31d9b8dbb75696b181eff1fbef41b97" target="_top" xlink:title="dictates what the AI will do depending on what mode it is in">
<polygon fill="white" stroke="black" points="215,-300.5 215,-321.5 389,-321.5 389,-300.5 215,-300.5"/>
<text text-anchor="middle" x="302" y="-307.9" font-family="Helvetica,sans-Serif" font-size="12.00">AIControllerScript.AIBehaviour</text>
</a>
</g>
</g>
<!-- Node5&#45;&gt;Node6 -->
<g id="edge5" class="edge">
<title>Node5&#45;&gt;Node6</title>
<path fill="none" stroke="midnightblue" d="M680.78,-347.75C611.42,-345.34 511.75,-340.49 425,-331 403.45,-328.64 379.92,-325.03 359.32,-321.52"/>
<polygon fill="midnightblue" stroke="midnightblue" points="680.68,-351.25 690.79,-348.09 680.91,-344.26 680.68,-351.25"/>
</g>
<!-- Node7 -->
<g id="node7" class="node">
<title>Node7</title>
<g id="a_node7"><a xlink:href="class_a_i_controller_script.html#a74dc0e720fafceb873d3b19c12f68d58" target="_top" xlink:title=" ">
<polygon fill="white" stroke="black" points="0,-300.5 0,-321.5 179,-321.5 179,-300.5 0,-300.5"/>
<text text-anchor="middle" x="89.5" y="-307.9" font-family="Helvetica,sans-Serif" font-size="12.00">AIControllerScript.FixedUpdate</text>
</a>
</g>
</g>
<!-- Node6&#45;&gt;Node7 -->
<g id="edge6" class="edge">
<title>Node6&#45;&gt;Node7</title>
<path fill="none" stroke="midnightblue" d="M204.57,-311C196.15,-311 187.67,-311 179.32,-311"/>
<polygon fill="midnightblue" stroke="midnightblue" points="204.77,-314.5 214.77,-311 204.77,-307.5 204.77,-314.5"/>
</g>
<!-- Node9&#45;&gt;Node3 -->
<g id="edge26" class="edge">
<title>Node9&#45;&gt;Node3</title>
<path fill="none" stroke="midnightblue" d="M1815.75,-186.13C1791.05,-198.07 1757.09,-216.01 1730,-236 1712.04,-249.25 1713.86,-260.82 1694,-271 1681.11,-277.61 1666.43,-282.07 1652.02,-285.08"/>
<polygon fill="midnightblue" stroke="midnightblue" points="1817.54,-189.16 1825.06,-181.7 1814.53,-182.83 1817.54,-189.16"/>
</g>
<!-- Node10 -->
<g id="node10" class="node">
<title>Node10</title>
<g id="a_node10"><a xlink:href="class_round_manager.html#a5cfea3b56a7576ad02c82c27bb0c6ba7" target="_top" xlink:title="reset the dice after a time delay">
<polygon fill="white" stroke="black" points="1488,-240.5 1488,-261.5 1673,-261.5 1673,-240.5 1488,-240.5"/>
<text text-anchor="middle" x="1580.5" y="-247.9" font-family="Helvetica,sans-Serif" font-size="12.00">RoundManager.DelayResetDice</text>
</a>
</g>
</g>
<!-- Node9&#45;&gt;Node10 -->
<g id="edge9" class="edge">
<title>Node9&#45;&gt;Node10</title>
<path fill="none" stroke="midnightblue" d="M1816.43,-185.74C1785.49,-199.22 1737.38,-218.87 1694,-231 1680.82,-234.69 1666.57,-237.84 1652.79,-240.48"/>
<polygon fill="midnightblue" stroke="midnightblue" points="1818.1,-188.83 1825.85,-181.59 1815.28,-182.42 1818.1,-188.83"/>
</g>
<!-- Node20 -->
<g id="node20" class="node">
<title>Node20</title>
<g id="a_node20"><a xlink:href="class_anson_test_script.html#a2e10fa1d66e999b57d36fd2525ad03e5" target="_top" xlink:title=" ">
<polygon fill="white" stroke="black" points="1485,-200.5 1485,-221.5 1676,-221.5 1676,-200.5 1485,-200.5"/>
<text text-anchor="middle" x="1580.5" y="-207.9" font-family="Helvetica,sans-Serif" font-size="12.00">AnsonTestScript.DelayResetDice</text>
</a>
</g>
</g>
<!-- Node9&#45;&gt;Node20 -->
<g id="edge21" class="edge">
<title>Node9&#45;&gt;Node20</title>
<path fill="none" stroke="midnightblue" d="M1789.89,-179.84C1749.17,-185.93 1694.88,-194.05 1651.92,-200.47"/>
<polygon fill="midnightblue" stroke="midnightblue" points="1790.56,-183.28 1799.94,-178.34 1789.53,-176.35 1790.56,-183.28"/>
</g>
<!-- Node23 -->
<g id="node23" class="node">
<title>Node23</title>
<g id="a_node23"><a xlink:href="class_round_manager.html#acf674cdec523de9a0f91ab8a7bfcc2ef" target="_top" xlink:title="for waiting the dice to be rolled, get it&#39;s results and display where the player can move to">
<polygon fill="white" stroke="black" points="1492,-160.5 1492,-181.5 1669,-181.5 1669,-160.5 1492,-160.5"/>
<text text-anchor="middle" x="1580.5" y="-167.9" font-family="Helvetica,sans-Serif" font-size="12.00">RoundManager.DiceBehaviour</text>
</a>
</g>
</g>
<!-- Node9&#45;&gt;Node23 -->
<g id="edge24" class="edge">
<title>Node9&#45;&gt;Node23</title>
<path fill="none" stroke="midnightblue" d="M1789.77,-171C1754.37,-171 1708.74,-171 1669.22,-171"/>
<polygon fill="midnightblue" stroke="midnightblue" points="1789.94,-174.5 1799.94,-171 1789.94,-167.5 1789.94,-174.5"/>
</g>
<!-- Node25 -->
<g id="node25" class="node">
<title>Node25</title>
<g id="a_node25"><a xlink:href="class_anson_test_script.html#a445d27a921ade2f0e76054a3b7cc4245" target="_top" xlink:title=" ">
<polygon fill="white" stroke="black" points="1494,-120.5 1494,-141.5 1667,-141.5 1667,-120.5 1494,-120.5"/>
<text text-anchor="middle" x="1580.5" y="-127.9" font-family="Helvetica,sans-Serif" font-size="12.00">AnsonTestScript.FixedUpdate</text>
</a>
</g>
</g>
<!-- Node9&#45;&gt;Node25 -->
<g id="edge27" class="edge">
<title>Node9&#45;&gt;Node25</title>
<path fill="none" stroke="midnightblue" d="M1789.89,-162.16C1749.17,-156.07 1694.88,-147.95 1651.92,-141.53"/>
<polygon fill="midnightblue" stroke="midnightblue" points="1789.53,-165.65 1799.94,-163.66 1790.56,-158.72 1789.53,-165.65"/>
</g>
<!-- Node26 -->
<g id="node26" class="node">
<title>Node26</title>
<g id="a_node26"><a xlink:href="class_player_movement_test_script.html#a1c247cfdee35d3a1c1d3a81fd579b426" target="_top" xlink:title=" ">
<polygon fill="white" stroke="black" points="1467,-80.5 1467,-101.5 1694,-101.5 1694,-80.5 1467,-80.5"/>
<text text-anchor="middle" x="1580.5" y="-87.9" font-family="Helvetica,sans-Serif" font-size="12.00">PlayerMovementTestScript.FixedUpdate</text>
</a>
</g>
</g>
<!-- Node9&#45;&gt;Node26 -->
<g id="edge28" class="edge">
<title>Node9&#45;&gt;Node26</title>
<path fill="none" stroke="midnightblue" d="M1816.43,-156.26C1785.49,-142.78 1737.38,-123.13 1694,-111 1680.82,-107.31 1666.57,-104.16 1652.79,-101.52"/>
<polygon fill="midnightblue" stroke="midnightblue" points="1815.28,-159.58 1825.85,-160.41 1818.1,-153.17 1815.28,-159.58"/>
</g>
<!-- Node27 -->
<g id="node27" class="node">
<title>Node27</title>
<g id="a_node27"><a xlink:href="class_player_movement_test_script.html#a1f9e6f5902a9ba827538f3325227917c" target="_top" xlink:title=" ">
<polygon fill="white" stroke="black" points="1473,-40.5 1473,-61.5 1688,-61.5 1688,-40.5 1473,-40.5"/>
<text text-anchor="middle" x="1580.5" y="-47.9" font-family="Helvetica,sans-Serif" font-size="12.00">PlayerMovementTestScript.ResetDice</text>
</a>
</g>
</g>
<!-- Node9&#45;&gt;Node27 -->
<g id="edge29" class="edge">
<title>Node9&#45;&gt;Node27</title>
<path fill="none" stroke="midnightblue" d="M1824.84,-154.66C1784.87,-127.74 1707.99,-76.5 1694,-71 1684.21,-67.15 1673.66,-64.04 1663.07,-61.53"/>
<polygon fill="midnightblue" stroke="midnightblue" points="1822.98,-157.63 1833.23,-160.32 1826.89,-151.83 1822.98,-157.63"/>
</g>
<!-- Node11 -->
<g id="node11" class="node">
<title>Node11</title>
<g id="a_node11"><a xlink:href="class_round_manager.html#ab795c17242b95ab2cef508da5daa2593" target="_top" xlink:title="Rolls dice, will not roll if the player has rolled aready. Pass true to forcfully roll it">
<polygon fill="white" stroke="black" points="1275.5,-240.5 1275.5,-261.5 1419.5,-261.5 1419.5,-240.5 1275.5,-240.5"/>
<text text-anchor="middle" x="1347.5" y="-247.9" font-family="Helvetica,sans-Serif" font-size="12.00">RoundManager.RollDice</text>
</a>
</g>
</g>
<!-- Node10&#45;&gt;Node11 -->
<g id="edge10" class="edge">
<title>Node10&#45;&gt;Node11</title>
<path fill="none" stroke="midnightblue" d="M1477.7,-251C1458.14,-251 1438.04,-251 1419.7,-251"/>
<polygon fill="midnightblue" stroke="midnightblue" points="1477.87,-254.5 1487.87,-251 1477.87,-247.5 1477.87,-254.5"/>
</g>
<!-- Node12 -->
<g id="node12" class="node">
<title>Node12</title>
<g id="a_node12"><a xlink:href="class_round_manager.html#a8d52738f26bc5b5eea98f8e3dd213744" target="_top" xlink:title="roll dice after a delay time, used for free roll tile">
<polygon fill="white" stroke="black" points="1079,-260.5 1079,-281.5 1228,-281.5 1228,-260.5 1079,-260.5"/>
<text text-anchor="middle" x="1153.5" y="-267.9" font-family="Helvetica,sans-Serif" font-size="12.00">RoundManager.DelayRoll</text>
</a>
</g>
</g>
<!-- Node11&#45;&gt;Node12 -->
<g id="edge11" class="edge">
<title>Node11&#45;&gt;Node12</title>
<path fill="none" stroke="midnightblue" d="M1265.08,-259.48C1252.83,-260.76 1240.25,-262.07 1228.17,-263.33"/>
<polygon fill="midnightblue" stroke="midnightblue" points="1265.7,-262.94 1275.28,-258.42 1264.97,-255.97 1265.7,-262.94"/>
</g>
<!-- Node17 -->
<g id="node17" class="node">
<title>Node17</title>
<g id="a_node17"><a xlink:href="class_user_controller.html#aee97f82bdda647a5e3761666a3d46552" target="_top" xlink:title="Rolls the dice">
<polygon fill="white" stroke="black" points="1084,-220.5 1084,-241.5 1223,-241.5 1223,-220.5 1084,-220.5"/>
<text text-anchor="middle" x="1153.5" y="-227.9" font-family="Helvetica,sans-Serif" font-size="12.00">UserController.RollDice</text>
</a>
</g>
</g>
<!-- Node11&#45;&gt;Node17 -->
<g id="edge17" class="edge">
<title>Node11&#45;&gt;Node17</title>
<path fill="none" stroke="midnightblue" d="M1265.16,-242.53C1251.14,-241.07 1236.69,-239.56 1223.05,-238.14"/>
<polygon fill="midnightblue" stroke="midnightblue" points="1264.97,-246.03 1275.28,-243.58 1265.7,-239.06 1264.97,-246.03"/>
</g>
<!-- Node13 -->
<g id="node13" class="node">
<title>Node13</title>
<g id="a_node13"><a xlink:href="class_round_manager.html#adfd4f66436e06c12a25c9236b629f369" target="_top" xlink:title="moving the current player to the selected tile">
<polygon fill="white" stroke="black" points="882,-260.5 882,-281.5 1043,-281.5 1043,-260.5 882,-260.5"/>
<text text-anchor="middle" x="962.5" y="-267.9" font-family="Helvetica,sans-Serif" font-size="12.00">RoundManager.MovePlayer</text>
</a>
</g>
</g>
<!-- Node12&#45;&gt;Node13 -->
<g id="edge12" class="edge">
<title>Node12&#45;&gt;Node13</title>
<path fill="none" stroke="midnightblue" d="M1068.64,-271C1060.17,-271 1051.59,-271 1043.17,-271"/>
<polygon fill="midnightblue" stroke="midnightblue" points="1068.89,-274.5 1078.89,-271 1068.89,-267.5 1068.89,-274.5"/>
</g>
<!-- Node14 -->
<g id="node14" class="node">
<title>Node14</title>
<g id="a_node14"><a xlink:href="class_user_controller.html#af896aefe0262e0d8f07fa5f18592877d" target="_top" xlink:title="Selects a tile for player movement">
<polygon fill="white" stroke="black" points="695.5,-260.5 695.5,-281.5 841.5,-281.5 841.5,-260.5 695.5,-260.5"/>
<text text-anchor="middle" x="768.5" y="-267.9" font-family="Helvetica,sans-Serif" font-size="12.00">UserController.SelectTile</text>
</a>
</g>
</g>
<!-- Node13&#45;&gt;Node14 -->
<g id="edge13" class="edge">
<title>Node13&#45;&gt;Node14</title>
<path fill="none" stroke="midnightblue" d="M871.71,-271C861.63,-271 851.46,-271 841.65,-271"/>
<polygon fill="midnightblue" stroke="midnightblue" points="871.74,-274.5 881.74,-271 871.74,-267.5 871.74,-274.5"/>
</g>
<!-- Node15 -->
<g id="node15" class="node">
<title>Node15</title>
<g id="a_node15"><a xlink:href="class_a_i_controller_script.html#af04897fa0ae4ed5e472dea79bce8d7df" target="_top" xlink:title="Decides where the AI should move to this should match the flow chart of the AI">
<polygon fill="white" stroke="black" points="435,-300.5 435,-321.5 645,-321.5 645,-300.5 435,-300.5"/>
<text text-anchor="middle" x="540" y="-307.9" font-family="Helvetica,sans-Serif" font-size="12.00">AIControllerScript.Decide_Movement</text>
</a>
</g>
</g>
<!-- Node14&#45;&gt;Node15 -->
<g id="edge14" class="edge">
<title>Node14&#45;&gt;Node15</title>
<path fill="none" stroke="midnightblue" d="M698.68,-283.26C684.25,-285.82 669.13,-288.51 655,-291 637.49,-294.09 618.46,-297.44 601.06,-300.49"/>
<polygon fill="midnightblue" stroke="midnightblue" points="699.3,-286.7 708.53,-281.51 698.08,-279.81 699.3,-286.7"/>
</g>
<!-- Node16 -->
<g id="node16" class="node">
<title>Node16</title>
<g id="a_node16"><a xlink:href="class_user_input_control_script.html#a13be570929e27dad6d3d452ccd5f52eb" target="_top" xlink:title="move player token to the tile the cursor is on">
<polygon fill="white" stroke="black" points="425,-260.5 425,-281.5 655,-281.5 655,-260.5 425,-260.5"/>
<text text-anchor="middle" x="540" y="-267.9" font-family="Helvetica,sans-Serif" font-size="12.00">UserInputControlScript.MovePlayerToken</text>
</a>
</g>
</g>
<!-- Node14&#45;&gt;Node16 -->
<g id="edge16" class="edge">
<title>Node14&#45;&gt;Node16</title>
<path fill="none" stroke="midnightblue" d="M685.15,-271C675.37,-271 665.25,-271 655.12,-271"/>
<polygon fill="midnightblue" stroke="midnightblue" points="685.21,-274.5 695.21,-271 685.21,-267.5 685.21,-274.5"/>
</g>
<!-- Node15&#45;&gt;Node6 -->
<g id="edge15" class="edge">
<title>Node15&#45;&gt;Node6</title>
<path fill="none" stroke="midnightblue" d="M424.8,-311C412.87,-311 400.88,-311 389.33,-311"/>
<polygon fill="midnightblue" stroke="midnightblue" points="424.8,-314.5 434.8,-311 424.8,-307.5 424.8,-314.5"/>
</g>
<!-- Node18 -->
<g id="node18" class="node">
<title>Node18</title>
<g id="a_node18"><a xlink:href="class_a_i_controller_script.html#a1584ffc08f2ea88236ad6df47319636b" target="_top" xlink:title="have AI to roll">
<polygon fill="white" stroke="black" points="691,-220.5 691,-241.5 846,-241.5 846,-220.5 691,-220.5"/>
<text text-anchor="middle" x="768.5" y="-227.9" font-family="Helvetica,sans-Serif" font-size="12.00">AIControllerScript.RollDice</text>
</a>
</g>
</g>
<!-- Node17&#45;&gt;Node18 -->
<g id="edge18" class="edge">
<title>Node17&#45;&gt;Node18</title>
<path fill="none" stroke="midnightblue" d="M1073.55,-231C1006.9,-231 912.05,-231 846.08,-231"/>
<polygon fill="midnightblue" stroke="midnightblue" points="1073.58,-234.5 1083.58,-231 1073.58,-227.5 1073.58,-234.5"/>
</g>
<!-- Node19 -->
<g id="node19" class="node">
<title>Node19</title>
<g id="a_node19"><a xlink:href="class_u_i_handler.html#ac40571820fefd3233236883c01522fa1" target="_top" xlink:title="Rolls dice when the button is pressed">
<polygon fill="white" stroke="black" points="888.5,-181.5 888.5,-202.5 1036.5,-202.5 1036.5,-181.5 888.5,-181.5"/>
<text text-anchor="middle" x="962.5" y="-188.9" font-family="Helvetica,sans-Serif" font-size="12.00">UIHandler.RollDiceButton</text>
</a>
</g>
</g>
<!-- Node17&#45;&gt;Node19 -->
<g id="edge20" class="edge">
<title>Node17&#45;&gt;Node19</title>
<path fill="none" stroke="midnightblue" d="M1091.34,-218.38C1066.59,-213.27 1038.33,-207.44 1014.69,-202.56"/>
<polygon fill="midnightblue" stroke="midnightblue" points="1090.85,-221.85 1101.35,-220.45 1092.27,-215 1090.85,-221.85"/>
</g>
<!-- Node18&#45;&gt;Node6 -->
<g id="edge19" class="edge">
<title>Node18&#45;&gt;Node6</title>
<path fill="none" stroke="midnightblue" d="M680.86,-226.67C610.71,-225.38 509.95,-228.61 425,-251 384.6,-261.65 341.75,-286.25 319.14,-300.43"/>
<polygon fill="midnightblue" stroke="midnightblue" points="680.9,-230.17 690.98,-226.89 681.06,-223.17 680.9,-230.17"/>
</g>
<!-- Node21 -->
<g id="node21" class="node">
<title>Node21</title>
<g id="a_node21"><a xlink:href="class_anson_test_script.html#a88d84c041cb91d2f739270581d59d7e9" target="_top" xlink:title=" ">
<polygon fill="white" stroke="black" points="1275.5,-200.5 1275.5,-221.5 1419.5,-221.5 1419.5,-200.5 1275.5,-200.5"/>
<text text-anchor="middle" x="1347.5" y="-207.9" font-family="Helvetica,sans-Serif" font-size="12.00">AnsonTestScript.RollDie</text>
</a>
</g>
</g>
<!-- Node20&#45;&gt;Node21 -->
<g id="edge22" class="edge">
<title>Node20&#45;&gt;Node21</title>
<path fill="none" stroke="midnightblue" d="M1474.85,-211C1456.17,-211 1437.1,-211 1419.63,-211"/>
<polygon fill="midnightblue" stroke="midnightblue" points="1474.88,-214.5 1484.88,-211 1474.88,-207.5 1474.88,-214.5"/>
</g>
<!-- Node22 -->
<g id="node22" class="node">
<title>Node22</title>
<g id="a_node22"><a xlink:href="class_anson_test_script.html#a89ed8bb63ce2a8c4631e2dc3d9301e38" target="_top" xlink:title=" ">
<polygon fill="white" stroke="black" points="1081.5,-180.5 1081.5,-201.5 1225.5,-201.5 1225.5,-180.5 1081.5,-180.5"/>
<text text-anchor="middle" x="1153.5" y="-187.9" font-family="Helvetica,sans-Serif" font-size="12.00">AnsonTestScript.RollDie</text>
</a>
</g>
</g>
<!-- Node21&#45;&gt;Node22 -->
<g id="edge23" class="edge">
<title>Node21&#45;&gt;Node22</title>
<path fill="none" stroke="midnightblue" d="M1265.29,-202.54C1252.1,-201.17 1238.53,-199.75 1225.61,-198.41"/>
<polygon fill="midnightblue" stroke="midnightblue" points="1264.97,-206.03 1275.28,-203.58 1265.7,-199.06 1264.97,-206.03"/>
</g>
<!-- Node24 -->
<g id="node24" class="node">
<title>Node24</title>
<g id="a_node24"><a xlink:href="class_round_manager.html#abb654bc0114fc67d455ed6449d5bda22" target="_top" xlink:title=" ">
<polygon fill="white" stroke="black" points="1264,-160.5 1264,-181.5 1431,-181.5 1431,-160.5 1264,-160.5"/>
<text text-anchor="middle" x="1347.5" y="-167.9" font-family="Helvetica,sans-Serif" font-size="12.00">RoundManager.FixedUpdate</text>
</a>
</g>
</g>
<!-- Node23&#45;&gt;Node24 -->
<g id="edge25" class="edge">
<title>Node23&#45;&gt;Node24</title>
<path fill="none" stroke="midnightblue" d="M1481.48,-171C1464.72,-171 1447.46,-171 1431.15,-171"/>
<polygon fill="midnightblue" stroke="midnightblue" points="1481.84,-174.5 1491.84,-171 1481.84,-167.5 1481.84,-174.5"/>
</g>
<!-- Node29 -->
<g id="node29" class="node">
<title>Node29</title>
<g id="a_node29"><a xlink:href="class_player_token_script.html#aabf6e085b41ef90234c5580c48389200" target="_top" xlink:title=" ">
<polygon fill="white" stroke="black" points="1503.5,-0.5 1503.5,-21.5 1657.5,-21.5 1657.5,-0.5 1503.5,-0.5"/>
<text text-anchor="middle" x="1580.5" y="-7.9" font-family="Helvetica,sans-Serif" font-size="12.00">PlayerTokenScript.Update</text>
</a>
</g>
</g>
<!-- Node28&#45;&gt;Node29 -->
<g id="edge31" class="edge">
<title>Node28&#45;&gt;Node29</title>
<path fill="none" stroke="midnightblue" d="M1801.65,-57.78C1771.07,-49.49 1730.35,-38.91 1694,-31 1678.4,-27.6 1661.48,-24.37 1645.62,-21.52"/>
<polygon fill="midnightblue" stroke="midnightblue" points="1801.04,-61.24 1811.61,-60.49 1802.88,-54.48 1801.04,-61.24"/>
</g>
</g>
</svg>
        <g id="navigator" transform="translate(0 0)" fill="#404254">
                <rect fill="#f2f5e9" fill-opacity="0.5" stroke="#606060" stroke-width=".5" x="0" y="0" width="60" height="60"/>
                <use id="zoomplus" xlink:href="#zoomPlus" x="17" y="9" onmousedown="handleZoom(evt,'in')"/>
                <use id="zoomminus" xlink:href="#zoomMin" x="42" y="9" onmousedown="handleZoom(evt,'out')"/>
                <use id="reset" xlink:href="#resetDef" x="30" y="36" onmousedown="handleReset()"/>
                <g id="arrowUp" xlink:href="#dirArrow" transform="translate(30 24)" onmousedown="handlePan(0,-1)">
                  <use xlink:href="#rim" fill="#404040">
                        <set attributeName="fill" to="#808080" begin="arrowUp.mouseover" end="arrowUp.mouseout"/>
                  </use>
                  <path fill="none" stroke="white" stroke-width="1.5" d="M0,-3.0v7 M-2.5,-0.5L0,-3.0L2.5,-0.5"/>
                </g>
                <g id="arrowRight" xlink:href="#dirArrow" transform="rotate(90) translate(36 -43)" onmousedown="handlePan(1,0)">
                  <use xlink:href="#rim" fill="#404040">
                        <set attributeName="fill" to="#808080" begin="arrowRight.mouseover" end="arrowRight.mouseout"/>
                  </use>
                  <path fill="none" stroke="white" stroke-width="1.5" d="M0,-3.0v7 M-2.5,-0.5L0,-3.0L2.5,-0.5"/>
                </g>
                <g id="arrowDown" xlink:href="#dirArrow" transform="rotate(180) translate(-30 -48)" onmousedown="handlePan(0,1)">
                  <use xlink:href="#rim" fill="#404040">
                        <set attributeName="fill" to="#808080" begin="arrowDown.mouseover" end="arrowDown.mouseout"/>
                  </use>
                  <path fill="none" stroke="white" stroke-width="1.5" d="M0,-3.0v7 M-2.5,-0.5L0,-3.0L2.5,-0.5"/>
                </g>
                <g id="arrowLeft" xlink:href="#dirArrow" transform="rotate(270) translate(-36 17)" onmousedown="handlePan(-1,0)">
                  <use xlink:href="#rim" fill="#404040">
                        <set attributeName="fill" to="#808080" begin="arrowLeft.mouseover" end="arrowLeft.mouseout"/>
                  </use>
                  <path fill="none" stroke="white" stroke-width="1.5" d="M0,-3.0v7 M-2.5,-0.5L0,-3.0L2.5,-0.5"/>
                </g>
        </g>
        <svg viewBox="0 0 15 15" width="100%" height="30px" preserveAspectRatio="xMaxYMin meet">
         <g id="arrow_out" transform="scale(0.3 0.3)">
          <a xlink:href="class_camera_close_up_ae902d2ccdf969212e0cb84f638f68851_icgraph_org.svg" target="_base">
           <rect id="button" ry="5" rx="5" y="6" x="6" height="38" width="38"
                fill="#f2f5e9" fill-opacity="0.5" stroke="#606060" stroke-width="1.0"/>
           <path id="arrow"
             d="M 11.500037,31.436501 C 11.940474,20.09759 22.043105,11.32322 32.158766,21.979434 L 37.068811,17.246167 C 37.068811,17.246167 37.088388,32 37.088388,32 L 22.160133,31.978069 C 22.160133,31.978069 26.997745,27.140456 26.997745,27.140456 C 18.528582,18.264221 13.291696,25.230495 11.500037,31.436501 z"
             style="fill:#404040;"/>
          </a>
         </g>
        </svg>
</svg>
