<?xml version="1.0" encoding="UTF-8" standalone="no"?>
<!DOCTYPE svg PUBLIC "-//W3C//DTD SVG 1.1//EN"
 "http://www.w3.org/Graphics/SVG/1.1/DTD/svg11.dtd">
<!-- Generated by graphviz version 2.47.1 (20210417.1919)
 -->
<!-- Title: UIHandler.RollDiceButton Pages: 1 -->
<!--zoomable 110 -->
<svg id="main" version="1.1" xmlns="http://www.w3.org/2000/svg" xmlns:xlink="http://www.w3.org/1999/xlink" xml:space="preserve" onload="init(evt)">
<style type="text/css"><![CDATA[
.edge:hover path { stroke: red; }
.edge:hover polygon { stroke: red; fill: red; }
]]></style>
<script type="text/javascript"><![CDATA[
var edges = document.getElementsByTagName('g');
if (edges && edges.length) {
  for (var i=0;i<edges.length;i++) {
    if (edges[i].id.substr(0,4)=='edge') {
      edges[i].setAttribute('class','edge');
    }
  }
}
]]></script>
        <defs>
                <circle id="rim" cx="0" cy="0" r="7"/>
                <circle id="rim2" cx="0" cy="0" r="3.5"/>
                <g id="zoomPlus">
                        <use xlink:href="#rim" fill="#404040">
                                <set attributeName="fill" to="#808080" begin="zoomplus.mouseover" end="zoomplus.mouseout"/>
                        </use>
                        <path d="M-4,0h8M0,-4v8" fill="none" stroke="white" stroke-width="1.5" pointer-events="none"/>
                </g>
                <g id="zoomMin">
                        <use xlink:href="#rim" fill="#404040">
                                <set attributeName="fill" to="#808080" begin="zoomminus.mouseover" end="zoomminus.mouseout"/>
                        </use>
                        <path d="M-4,0h8" fill="none" stroke="white" stroke-width="1.5" pointer-events="none"/>
                </g>
                <g id="dirArrow">
                        <path fill="none" stroke="white" stroke-width="1.5" d="M0,-3.0v7 M-2.5,-0.5L0,-3.0L2.5,-0.5"/>
                </g>
               <g id="resetDef">
                       <use xlink:href="#rim2" fill="#404040">
                               <set attributeName="fill" to="#808080" begin="reset.mouseover" end="reset.mouseout"/>
                       </use>
               </g>
        </defs>

<script type="text/javascript">
var viewWidth = 1334;
var viewHeight = 110;
var sectionId = 'dynsection-24';
</script>
<script xlink:href="svgpan.js"/>
<svg id="graph" class="graph">
<g id="viewport">
<title>UIHandler.RollDiceButton</title>
<polygon fill="white" stroke="transparent" points="-4,4 -4,-106 1330,-106 1330,4 -4,4"/>
<!-- Node1 -->
<g id="node1" class="node">
<title>Node1</title>
<g id="a_node1"><a xlink:title="Rolls dice when the button is pressed">
<polygon fill="#bfbfbf" stroke="black" points="0,-20.5 0,-41.5 148,-41.5 148,-20.5 0,-20.5"/>
<text text-anchor="middle" x="74" y="-27.9" font-family="Helvetica,sans-Serif" font-size="12.00">UIHandler.RollDiceButton</text>
</a>
</g>
</g>
<!-- Node2 -->
<g id="node2" class="node">
<title>Node2</title>
<g id="a_node2"><a xlink:href="class_user_controller.html#aee97f82bdda647a5e3761666a3d46552" target="_top" xlink:title="Rolls the dice">
<polygon fill="white" stroke="black" points="184,-20.5 184,-41.5 323,-41.5 323,-20.5 184,-20.5"/>
<text text-anchor="middle" x="253.5" y="-27.9" font-family="Helvetica,sans-Serif" font-size="12.00">UserController.RollDice</text>
</a>
</g>
</g>
<!-- Node1&#45;&gt;Node2 -->
<g id="edge1" class="edge">
<title>Node1&#45;&gt;Node2</title>
<path fill="none" stroke="midnightblue" d="M148.22,-31C156.57,-31 165.11,-31 173.53,-31"/>
<polygon fill="midnightblue" stroke="midnightblue" points="173.73,-34.5 183.73,-31 173.72,-27.5 173.73,-34.5"/>
</g>
<!-- Node3 -->
<g id="node3" class="node">
<title>Node3</title>
<g id="a_node3"><a xlink:href="class_round_manager.html#ab795c17242b95ab2cef508da5daa2593" target="_top" xlink:title="Rolls dice, will not roll if the player has rolled aready. Pass true to forcfully roll it">
<polygon fill="white" stroke="black" points="359,-20.5 359,-41.5 503,-41.5 503,-20.5 359,-20.5"/>
<text text-anchor="middle" x="431" y="-27.9" font-family="Helvetica,sans-Serif" font-size="12.00">RoundManager.RollDice</text>
</a>
</g>
</g>
<!-- Node2&#45;&gt;Node3 -->
<g id="edge2" class="edge">
<title>Node2&#45;&gt;Node3</title>
<path fill="none" stroke="midnightblue" d="M323.11,-31C331.54,-31 340.21,-31 348.81,-31"/>
<polygon fill="midnightblue" stroke="midnightblue" points="348.84,-34.5 358.84,-31 348.84,-27.5 348.84,-34.5"/>
</g>
<!-- Node4 -->
<g id="node4" class="node">
<title>Node4</title>
<g id="a_node4"><a xlink:href="class_round_manager.html#a5cfea3b56a7576ad02c82c27bb0c6ba7" target="_top" xlink:title="reset the dice after a time delay">
<polygon fill="white" stroke="black" points="539,-40.5 539,-61.5 724,-61.5 724,-40.5 539,-40.5"/>
<text text-anchor="middle" x="631.5" y="-47.9" font-family="Helvetica,sans-Serif" font-size="12.00">RoundManager.DelayResetDice</text>
</a>
</g>
</g>
<!-- Node3&#45;&gt;Node4 -->
<g id="edge3" class="edge">
<title>Node3&#45;&gt;Node4</title>
<path fill="none" stroke="midnightblue" d="M503.1,-38.16C511.42,-39 520.02,-39.87 528.65,-40.74"/>
<polygon fill="midnightblue" stroke="midnightblue" points="528.48,-44.24 538.78,-41.76 529.18,-37.27 528.48,-44.24"/>
</g>
<!-- Node11 -->
<g id="node11" class="node">
<title>Node11</title>
<g id="a_node11"><a xlink:href="class_dice.html#a333ed52f536c0e7748fafe9422b179b5" target="_top" xlink:title="Roll the Dice">
<polygon fill="white" stroke="black" points="587,-0.5 587,-21.5 676,-21.5 676,-0.5 587,-0.5"/>
<text text-anchor="middle" x="631.5" y="-7.9" font-family="Helvetica,sans-Serif" font-size="12.00">Dice.RollDice</text>
</a>
</g>
</g>
<!-- Node3&#45;&gt;Node11 -->
<g id="edge10" class="edge">
<title>Node3&#45;&gt;Node11</title>
<path fill="none" stroke="midnightblue" d="M503.1,-23.84C527.41,-21.39 554.18,-18.69 576.88,-16.4"/>
<polygon fill="midnightblue" stroke="midnightblue" points="577.4,-19.87 587,-15.38 576.7,-12.9 577.4,-19.87"/>
</g>
<!-- Node5 -->
<g id="node5" class="node">
<title>Node5</title>
<g id="a_node5"><a xlink:href="class_dice.html#ade1dc529eeb31f31e668c595c5748e67" target="_top" xlink:title="Reset the dice">
<polygon fill="white" stroke="black" points="760,-40.5 760,-61.5 860,-61.5 860,-40.5 760,-40.5"/>
<text text-anchor="middle" x="810" y="-47.9" font-family="Helvetica,sans-Serif" font-size="12.00">Dice.ResetDice</text>
</a>
</g>
</g>
<!-- Node4&#45;&gt;Node5 -->
<g id="edge4" class="edge">
<title>Node4&#45;&gt;Node5</title>
<path fill="none" stroke="midnightblue" d="M724.11,-51C732.73,-51 741.3,-51 749.5,-51"/>
<polygon fill="midnightblue" stroke="midnightblue" points="749.67,-54.5 759.67,-51 749.67,-47.5 749.67,-54.5"/>
</g>
<!-- Node6 -->
<g id="node6" class="node">
<title>Node6</title>
<g id="a_node6"><a xlink:href="class_dice.html#ace4c995eb73b784d1076fde140ce85af" target="_top" xlink:title="Can Dice be reset">
<polygon fill="white" stroke="black" points="938.5,-80.5 938.5,-101.5 1035.5,-101.5 1035.5,-80.5 938.5,-80.5"/>
<text text-anchor="middle" x="987" y="-87.9" font-family="Helvetica,sans-Serif" font-size="12.00">Dice.CanReset</text>
</a>
</g>
</g>
<!-- Node5&#45;&gt;Node6 -->
<g id="edge5" class="edge">
<title>Node5&#45;&gt;Node6</title>
<path fill="none" stroke="midnightblue" d="M855.53,-61.59C868.57,-64.66 882.85,-67.99 896,-71 906.51,-73.4 917.73,-75.93 928.54,-78.34"/>
<polygon fill="midnightblue" stroke="midnightblue" points="927.81,-81.77 938.33,-80.52 929.33,-74.93 927.81,-81.77"/>
</g>
<!-- Node8 -->
<g id="node8" class="node">
<title>Node8</title>
<g id="a_node8"><a xlink:href="class_camera_close_up.html#ad31062bdf359a453fc85ebdd71fa1bae" target="_top" xlink:title="Clear camera close up">
<polygon fill="white" stroke="black" points="896,-40.5 896,-61.5 1078,-61.5 1078,-40.5 896,-40.5"/>
<text text-anchor="middle" x="987" y="-47.9" font-family="Helvetica,sans-Serif" font-size="12.00">CameraCloseUp.ClearCloseUp</text>
</a>
</g>
</g>
<!-- Node5&#45;&gt;Node8 -->
<g id="edge7" class="edge">
<title>Node5&#45;&gt;Node8</title>
<path fill="none" stroke="midnightblue" d="M860.21,-51C868.21,-51 876.73,-51 885.43,-51"/>
<polygon fill="midnightblue" stroke="midnightblue" points="885.7,-54.5 895.7,-51 885.7,-47.5 885.7,-54.5"/>
</g>
<!-- Node10 -->
<g id="node10" class="node">
<title>Node10</title>
<g id="a_node10"><a xlink:href="class_die.html#abc11c3d2bf0c0fba1555093eb5a8469e" target="_top" xlink:title="Reset Die to original position">
<polygon fill="white" stroke="black" points="943,-0.5 943,-21.5 1031,-21.5 1031,-0.5 943,-0.5"/>
<text text-anchor="middle" x="987" y="-7.9" font-family="Helvetica,sans-Serif" font-size="12.00">Die.ResetDie</text>
</a>
</g>
</g>
<!-- Node5&#45;&gt;Node10 -->
<g id="edge9" class="edge">
<title>Node5&#45;&gt;Node10</title>
<path fill="none" stroke="midnightblue" d="M855.53,-40.41C868.57,-37.34 882.85,-34.01 896,-31 907.95,-28.27 920.8,-25.38 932.94,-22.68"/>
<polygon fill="midnightblue" stroke="midnightblue" points="933.94,-26.04 942.94,-20.45 932.42,-19.21 933.94,-26.04"/>
</g>
<!-- Node7 -->
<g id="node7" class="node">
<title>Node7</title>
<g id="a_node7"><a xlink:href="class_die.html#a390d46459637fd249926cda472255d84" target="_top" xlink:title="Can the die be reset">
<polygon fill="white" stroke="black" points="1165,-80.5 1165,-101.5 1275,-101.5 1275,-80.5 1165,-80.5"/>
<text text-anchor="middle" x="1220" y="-87.9" font-family="Helvetica,sans-Serif" font-size="12.00">Die.CanResetDie</text>
</a>
</g>
</g>
<!-- Node6&#45;&gt;Node7 -->
<g id="edge6" class="edge">
<title>Node6&#45;&gt;Node7</title>
<path fill="none" stroke="midnightblue" d="M1035.58,-91C1069.87,-91 1116.54,-91 1154.22,-91"/>
<polygon fill="midnightblue" stroke="midnightblue" points="1154.59,-94.5 1164.59,-91 1154.59,-87.5 1154.59,-94.5"/>
</g>
<!-- Node9 -->
<g id="node9" class="node">
<title>Node9</title>
<g id="a_node9"><a xlink:href="class_camera_close_up.html#ae902d2ccdf969212e0cb84f638f68851" target="_top" xlink:title="Delay then clear close up">
<polygon fill="white" stroke="black" points="1114,-40.5 1114,-61.5 1326,-61.5 1326,-40.5 1114,-40.5"/>
<text text-anchor="middle" x="1220" y="-47.9" font-family="Helvetica,sans-Serif" font-size="12.00">CameraCloseUp.ClearCloseUpDelay</text>
</a>
</g>
</g>
<!-- Node8&#45;&gt;Node9 -->
<g id="edge8" class="edge">
<title>Node8&#45;&gt;Node9</title>
<path fill="none" stroke="midnightblue" d="M1078.3,-51C1086.67,-51 1095.22,-51 1103.77,-51"/>
<polygon fill="midnightblue" stroke="midnightblue" points="1103.8,-54.5 1113.8,-51 1103.8,-47.5 1103.8,-54.5"/>
</g>
<!-- Node12 -->
<g id="node12" class="node">
<title>Node12</title>
<g id="a_node12"><a xlink:href="class_die.html#a4995ecb1a88aa7f1043ae71ba8aa3ef5" target="_top" xlink:title="Roll the die">
<polygon fill="white" stroke="black" points="771.5,-0.5 771.5,-21.5 848.5,-21.5 848.5,-0.5 771.5,-0.5"/>
<text text-anchor="middle" x="810" y="-7.9" font-family="Helvetica,sans-Serif" font-size="12.00">Die.RollDie</text>
</a>
</g>
</g>
<!-- Node11&#45;&gt;Node12 -->
<g id="edge11" class="edge">
<title>Node11&#45;&gt;Node12</title>
<path fill="none" stroke="midnightblue" d="M676.13,-11C701.9,-11 734.57,-11 761.06,-11"/>
<polygon fill="midnightblue" stroke="midnightblue" points="761.25,-14.5 771.25,-11 761.25,-7.5 761.25,-14.5"/>
</g>
<!-- Node12&#45;&gt;Node10 -->
<g id="edge12" class="edge">
<title>Node12&#45;&gt;Node10</title>
<path fill="none" stroke="midnightblue" d="M848.54,-11C873.12,-11 905.61,-11 932.83,-11"/>
<polygon fill="midnightblue" stroke="midnightblue" points="932.98,-14.5 942.98,-11 932.98,-7.5 932.98,-14.5"/>
</g>
</g>
</svg>
        <g id="navigator" transform="translate(0 0)" fill="#404254">
                <rect fill="#f2f5e9" fill-opacity="0.5" stroke="#606060" stroke-width=".5" x="0" y="0" width="60" height="60"/>
                <use id="zoomplus" xlink:href="#zoomPlus" x="17" y="9" onmousedown="handleZoom(evt,'in')"/>
                <use id="zoomminus" xlink:href="#zoomMin" x="42" y="9" onmousedown="handleZoom(evt,'out')"/>
                <use id="reset" xlink:href="#resetDef" x="30" y="36" onmousedown="handleReset()"/>
                <g id="arrowUp" xlink:href="#dirArrow" transform="translate(30 24)" onmousedown="handlePan(0,-1)">
                  <use xlink:href="#rim" fill="#404040">
                        <set attributeName="fill" to="#808080" begin="arrowUp.mouseover" end="arrowUp.mouseout"/>
                  </use>
                  <path fill="none" stroke="white" stroke-width="1.5" d="M0,-3.0v7 M-2.5,-0.5L0,-3.0L2.5,-0.5"/>
                </g>
                <g id="arrowRight" xlink:href="#dirArrow" transform="rotate(90) translate(36 -43)" onmousedown="handlePan(1,0)">
                  <use xlink:href="#rim" fill="#404040">
                        <set attributeName="fill" to="#808080" begin="arrowRight.mouseover" end="arrowRight.mouseout"/>
                  </use>
                  <path fill="none" stroke="white" stroke-width="1.5" d="M0,-3.0v7 M-2.5,-0.5L0,-3.0L2.5,-0.5"/>
                </g>
                <g id="arrowDown" xlink:href="#dirArrow" transform="rotate(180) translate(-30 -48)" onmousedown="handlePan(0,1)">
                  <use xlink:href="#rim" fill="#404040">
                        <set attributeName="fill" to="#808080" begin="arrowDown.mouseover" end="arrowDown.mouseout"/>
                  </use>
                  <path fill="none" stroke="white" stroke-width="1.5" d="M0,-3.0v7 M-2.5,-0.5L0,-3.0L2.5,-0.5"/>
                </g>
                <g id="arrowLeft" xlink:href="#dirArrow" transform="rotate(270) translate(-36 17)" onmousedown="handlePan(-1,0)">
                  <use xlink:href="#rim" fill="#404040">
                        <set attributeName="fill" to="#808080" begin="arrowLeft.mouseover" end="arrowLeft.mouseout"/>
                  </use>
                  <path fill="none" stroke="white" stroke-width="1.5" d="M0,-3.0v7 M-2.5,-0.5L0,-3.0L2.5,-0.5"/>
                </g>
        </g>
        <svg viewBox="0 0 15 15" width="100%" height="30px" preserveAspectRatio="xMaxYMin meet">
         <g id="arrow_out" transform="scale(0.3 0.3)">
          <a xlink:href="class_u_i_handler_ac40571820fefd3233236883c01522fa1_cgraph_org.svg" target="_base">
           <rect id="button" ry="5" rx="5" y="6" x="6" height="38" width="38"
                fill="#f2f5e9" fill-opacity="0.5" stroke="#606060" stroke-width="1.0"/>
           <path id="arrow"
             d="M 11.500037,31.436501 C 11.940474,20.09759 22.043105,11.32322 32.158766,21.979434 L 37.068811,17.246167 C 37.068811,17.246167 37.088388,32 37.088388,32 L 22.160133,31.978069 C 22.160133,31.978069 26.997745,27.140456 26.997745,27.140456 C 18.528582,18.264221 13.291696,25.230495 11.500037,31.436501 z"
             style="fill:#404040;"/>
          </a>
         </g>
        </svg>
</svg>
