<?xml version="1.0" encoding="UTF-8" standalone="no"?>
<!DOCTYPE svg PUBLIC "-//W3C//DTD SVG 1.1//EN"
 "http://www.w3.org/Graphics/SVG/1.1/DTD/svg11.dtd">
<!-- Generated by graphviz version 2.47.1 (20210417.1919)
 -->
<!-- Title: CloseUpPointScript.GetCloseUpPointName Pages: 1 -->
<svg width="684pt" height="30pt"
 viewBox="0.00 0.00 684.00 30.00" xmlns="http://www.w3.org/2000/svg" xmlns:xlink="http://www.w3.org/1999/xlink">
<g id="graph0" class="graph" transform="scale(1 1) rotate(0) translate(4 26)">
<title>CloseUpPointScript.GetCloseUpPointName</title>
<polygon fill="white" stroke="transparent" points="-4,4 -4,-26 680,-26 680,4 -4,4"/>
<!-- Node1 -->
<g id="node1" class="node">
<title>Node1</title>
<g id="a_node1"><a xlink:title="Get the close up point">
<polygon fill="#bfbfbf" stroke="black" points="430,-0.5 430,-21.5 676,-21.5 676,-0.5 430,-0.5"/>
<text text-anchor="middle" x="553" y="-7.9" font-family="Helvetica,sans-Serif" font-size="12.00">CloseUpPointScript.GetCloseUpPointName</text>
</a>
</g>
</g>
<!-- Node2 -->
<g id="node2" class="node">
<title>Node2</title>
<g id="a_node2"><a xlink:href="class_camera_close_up.html#a684c25133060e7ff6e1d462b0504c590" target="_top" xlink:title="Get the camera location target from point">
<polygon fill="white" stroke="black" points="182,-0.5 182,-21.5 394,-21.5 394,-0.5 182,-0.5"/>
<text text-anchor="middle" x="288" y="-7.9" font-family="Helvetica,sans-Serif" font-size="12.00">CameraCloseUp.GetCameraPosition</text>
</a>
</g>
</g>
<!-- Node1&#45;&gt;Node2 -->
<g id="edge1" class="edge">
<title>Node1&#45;&gt;Node2</title>
<path fill="none" stroke="midnightblue" d="M419.65,-11C411.05,-11 402.46,-11 394.01,-11"/>
<polygon fill="midnightblue" stroke="midnightblue" points="419.74,-14.5 429.74,-11 419.74,-7.5 419.74,-14.5"/>
</g>
<!-- Node3 -->
<g id="node3" class="node">
<title>Node3</title>
<g id="a_node3"><a xlink:href="class_camera_close_up.html#ab267d3e10045453ca402ae9c82069a01" target="_top" xlink:title="If test keys = true &#45; numpad / numbers control close ups lerp camera position towards close up point ...">
<polygon fill="white" stroke="black" points="0,-0.5 0,-21.5 146,-21.5 146,-0.5 0,-0.5"/>
<text text-anchor="middle" x="73" y="-7.9" font-family="Helvetica,sans-Serif" font-size="12.00">CameraCloseUp.Update</text>
</a>
</g>
</g>
<!-- Node2&#45;&gt;Node3 -->
<g id="edge2" class="edge">
<title>Node2&#45;&gt;Node3</title>
<path fill="none" stroke="midnightblue" d="M171.59,-11C162.95,-11 154.39,-11 146.14,-11"/>
<polygon fill="midnightblue" stroke="midnightblue" points="171.75,-14.5 181.75,-11 171.75,-7.5 171.75,-14.5"/>
</g>
</g>
</svg>
