<?xml version="1.0" encoding="UTF-8" standalone="no"?>
<!DOCTYPE svg PUBLIC "-//W3C//DTD SVG 1.1//EN"
 "http://www.w3.org/Graphics/SVG/1.1/DTD/svg11.dtd">
<!-- Generated by graphviz version 2.47.1 (20210417.1919)
 -->
<!-- Title: UIHandler.DisplayChoicePanel Pages: 1 -->
<svg width="648pt" height="150pt"
 viewBox="0.00 0.00 648.00 150.00" xmlns="http://www.w3.org/2000/svg" xmlns:xlink="http://www.w3.org/1999/xlink">
<g id="graph0" class="graph" transform="scale(1 1) rotate(0) translate(4 146)">
<title>UIHandler.DisplayChoicePanel</title>
<polygon fill="white" stroke="transparent" points="-4,4 -4,-146 644,-146 644,4 -4,4"/>
<!-- Node1 -->
<g id="node1" class="node">
<title>Node1</title>
<g id="a_node1"><a xlink:title="Dispal a panel for a player to choose which card to show">
<polygon fill="#bfbfbf" stroke="black" points="0,-60.5 0,-81.5 177,-81.5 177,-60.5 0,-60.5"/>
<text text-anchor="middle" x="88.5" y="-67.9" font-family="Helvetica,sans-Serif" font-size="12.00">UIHandler.DisplayChoicePanel</text>
</a>
</g>
</g>
<!-- Node2 -->
<g id="node2" class="node">
<title>Node2</title>
<g id="a_node2"><a xlink:href="class_player_master_controller.html#a12c91851433777ae557a71d9f9a855f0" target="_top" xlink:title=" ">
<polygon fill="white" stroke="black" points="213,-120.5 213,-141.5 422,-141.5 422,-120.5 213,-120.5"/>
<text text-anchor="middle" x="317.5" y="-127.9" font-family="Helvetica,sans-Serif" font-size="12.00">PlayerMasterController.GetCharacter</text>
</a>
</g>
</g>
<!-- Node1&#45;&gt;Node2 -->
<g id="edge1" class="edge">
<title>Node1&#45;&gt;Node2</title>
<path fill="none" stroke="midnightblue" d="M118.65,-81.56C143.49,-90.29 180.26,-102.57 213,-111 223.45,-113.69 234.57,-116.2 245.51,-118.48"/>
<polygon fill="midnightblue" stroke="midnightblue" points="244.98,-121.94 255.47,-120.49 246.37,-115.08 244.98,-121.94"/>
</g>
<!-- Node3 -->
<g id="node3" class="node">
<title>Node3</title>
<g id="a_node3"><a xlink:href="class_round_manager.html#aab3f49a5e05508a8e023a497e763c1c8" target="_top" xlink:title="Gets the player controller for the current player">
<polygon fill="white" stroke="black" points="222.5,-80.5 222.5,-101.5 412.5,-101.5 412.5,-80.5 222.5,-80.5"/>
<text text-anchor="middle" x="317.5" y="-87.9" font-family="Helvetica,sans-Serif" font-size="12.00">RoundManager.GetCurrentPlayer</text>
</a>
</g>
</g>
<!-- Node1&#45;&gt;Node3 -->
<g id="edge2" class="edge">
<title>Node1&#45;&gt;Node3</title>
<path fill="none" stroke="midnightblue" d="M177.26,-78.73C188.65,-79.74 200.4,-80.77 212.03,-81.8"/>
<polygon fill="midnightblue" stroke="midnightblue" points="211.93,-85.3 222.2,-82.69 212.54,-78.33 211.93,-85.3"/>
</g>
<!-- Node5 -->
<g id="node5" class="node">
<title>Node5</title>
<g id="a_node5"><a xlink:href="class_enum_to_string.html#a078a1fb16a0030544fac1b96a90b6b83" target="_top" xlink:title="Get a string value from a valid enum">
<polygon fill="white" stroke="black" points="217,-40.5 217,-61.5 418,-61.5 418,-40.5 217,-40.5"/>
<text text-anchor="middle" x="317.5" y="-47.9" font-family="Helvetica,sans-Serif" font-size="12.00">EnumToString.GetStringFromEnum</text>
</a>
</g>
</g>
<!-- Node1&#45;&gt;Node5 -->
<g id="edge4" class="edge">
<title>Node1&#45;&gt;Node5</title>
<path fill="none" stroke="midnightblue" d="M177.26,-63.27C186.89,-62.42 196.79,-61.55 206.64,-60.68"/>
<polygon fill="midnightblue" stroke="midnightblue" points="207.23,-64.14 216.88,-59.78 206.61,-57.17 207.23,-64.14"/>
</g>
<!-- Node6 -->
<g id="node6" class="node">
<title>Node6</title>
<g id="a_node6"><a xlink:href="class_card_slot.html#af678d8249e4d52bb791b47d4ed75e7f3" target="_top" xlink:title="Makes the card slot visible and its game object active">
<polygon fill="white" stroke="black" points="257.5,-0.5 257.5,-21.5 377.5,-21.5 377.5,-0.5 257.5,-0.5"/>
<text text-anchor="middle" x="317.5" y="-7.9" font-family="Helvetica,sans-Serif" font-size="12.00">CardSlot.SetVisible</text>
</a>
</g>
</g>
<!-- Node1&#45;&gt;Node6 -->
<g id="edge5" class="edge">
<title>Node1&#45;&gt;Node6</title>
<path fill="none" stroke="midnightblue" d="M118.65,-60.44C143.49,-51.71 180.26,-39.43 213,-31 224.03,-28.16 235.82,-25.52 247.35,-23.14"/>
<polygon fill="midnightblue" stroke="midnightblue" points="248.27,-26.53 257.38,-21.13 246.89,-19.67 248.27,-26.53"/>
</g>
<!-- Node4 -->
<g id="node4" class="node">
<title>Node4</title>
<g id="a_node4"><a xlink:href="class_turn_controller.html#af16e42b7e61c5a999291327e2e556caa" target="_top" xlink:title=" ">
<polygon fill="white" stroke="black" points="458,-80.5 458,-101.5 640,-101.5 640,-80.5 458,-80.5"/>
<text text-anchor="middle" x="549" y="-87.9" font-family="Helvetica,sans-Serif" font-size="12.00">TurnController.GetCurrentPlayer</text>
</a>
</g>
</g>
<!-- Node3&#45;&gt;Node4 -->
<g id="edge3" class="edge">
<title>Node3&#45;&gt;Node4</title>
<path fill="none" stroke="midnightblue" d="M412.51,-91C424.09,-91 435.97,-91 447.64,-91"/>
<polygon fill="midnightblue" stroke="midnightblue" points="447.84,-94.5 457.84,-91 447.84,-87.5 447.84,-94.5"/>
</g>
</g>
</svg>
