<?xml version="1.0" encoding="UTF-8" standalone="no"?>
<!DOCTYPE svg PUBLIC "-//W3C//DTD SVG 1.1//EN"
 "http://www.w3.org/Graphics/SVG/1.1/DTD/svg11.dtd">
<!-- Generated by graphviz version 2.47.1 (20210417.1919)
 -->
<!-- Title: GameControls Pages: 1 -->
<svg width="502pt" height="497pt"
 viewBox="0.00 0.00 502.00 497.00" xmlns="http://www.w3.org/2000/svg" xmlns:xlink="http://www.w3.org/1999/xlink">
<g id="graph0" class="graph" transform="scale(1 1) rotate(0) translate(4 493)">
<title>GameControls</title>
<polygon fill="white" stroke="transparent" points="-4,4 -4,-493 498,-493 498,4 -4,4"/>
<!-- Node1 -->
<g id="node1" class="node">
<title>Node1</title>
<g id="a_node1"><a xlink:title=" ">
<polygon fill="#bfbfbf" stroke="black" points="90.5,-0.5 90.5,-297.5 281.5,-297.5 281.5,-0.5 90.5,-0.5"/>
<text text-anchor="middle" x="186" y="-283.9" font-family="Helvetica,sans-Serif" font-size="12.00">GameControls</text>
<polyline fill="none" stroke="black" points="90.5,-276.5 281.5,-276.5 "/>
<text text-anchor="start" x="98.5" y="-262.9" font-family="Helvetica,sans-Serif" font-size="12.00">+ asset</text>
<text text-anchor="start" x="98.5" y="-249.9" font-family="Helvetica,sans-Serif" font-size="12.00">+ bindingMask</text>
<text text-anchor="start" x="98.5" y="-236.9" font-family="Helvetica,sans-Serif" font-size="12.00">+ devices</text>
<text text-anchor="start" x="98.5" y="-223.9" font-family="Helvetica,sans-Serif" font-size="12.00">+ controlSchemes</text>
<text text-anchor="start" x="98.5" y="-210.9" font-family="Helvetica,sans-Serif" font-size="12.00">+ PlayerMap</text>
<text text-anchor="start" x="98.5" y="-197.9" font-family="Helvetica,sans-Serif" font-size="12.00">&#45; m_PlayerMap</text>
<text text-anchor="start" x="98.5" y="-184.9" font-family="Helvetica,sans-Serif" font-size="12.00">&#45; m_PlayerMap_MouseMoving</text>
<text text-anchor="start" x="98.5" y="-171.9" font-family="Helvetica,sans-Serif" font-size="12.00">&#45; m_PlayerMap_ControllerMoving</text>
<text text-anchor="start" x="98.5" y="-158.9" font-family="Helvetica,sans-Serif" font-size="12.00">&#45; m_PlayerMap_MoveToken</text>
<text text-anchor="start" x="98.5" y="-145.9" font-family="Helvetica,sans-Serif" font-size="12.00">&#45; m_PlayerMap_TestButton1</text>
<text text-anchor="start" x="98.5" y="-132.9" font-family="Helvetica,sans-Serif" font-size="12.00">&#45; m_PlayerMap_TestButton2</text>
<text text-anchor="start" x="98.5" y="-119.9" font-family="Helvetica,sans-Serif" font-size="12.00">&#45; m_PlayerMap_TestButton3</text>
<text text-anchor="start" x="98.5" y="-106.9" font-family="Helvetica,sans-Serif" font-size="12.00">&#45; m_PlayerMap_TestButton4</text>
<polyline fill="none" stroke="black" points="90.5,-99.5 281.5,-99.5 "/>
<text text-anchor="start" x="98.5" y="-85.9" font-family="Helvetica,sans-Serif" font-size="12.00">+ GameControls()</text>
<text text-anchor="start" x="98.5" y="-72.9" font-family="Helvetica,sans-Serif" font-size="12.00">+ Dispose()</text>
<text text-anchor="start" x="98.5" y="-59.9" font-family="Helvetica,sans-Serif" font-size="12.00">+ Contains()</text>
<text text-anchor="start" x="98.5" y="-46.9" font-family="Helvetica,sans-Serif" font-size="12.00">+ GetEnumerator()</text>
<text text-anchor="start" x="98.5" y="-33.9" font-family="Helvetica,sans-Serif" font-size="12.00">+ Enable()</text>
<text text-anchor="start" x="98.5" y="-20.9" font-family="Helvetica,sans-Serif" font-size="12.00">+ Disable()</text>
<text text-anchor="start" x="98.5" y="-7.9" font-family="Helvetica,sans-Serif" font-size="12.00">&#45; GetEnumerator()</text>
</a>
</g>
</g>
<!-- Node2 -->
<g id="node2" class="node">
<title>Node2</title>
<g id="a_node2"><a xlink:title=" ">
<polygon fill="white" stroke="#bfbfbf" points="0,-386.5 0,-449.5 128,-449.5 128,-386.5 0,-386.5"/>
<text text-anchor="middle" x="64" y="-435.9" font-family="Helvetica,sans-Serif" font-size="12.00">IInputActionCollection</text>
<polyline fill="none" stroke="#bfbfbf" points="0,-428.5 128,-428.5 "/>
<text text-anchor="middle" x="64" y="-414.9" font-family="Helvetica,sans-Serif" font-size="12.00"> </text>
<polyline fill="none" stroke="#bfbfbf" points="0,-407.5 128,-407.5 "/>
<text text-anchor="middle" x="64" y="-393.9" font-family="Helvetica,sans-Serif" font-size="12.00"> </text>
</a>
</g>
</g>
<!-- Node2&#45;&gt;Node1 -->
<g id="edge1" class="edge">
<title>Node2&#45;&gt;Node1</title>
<path fill="none" stroke="midnightblue" d="M82.19,-377.18C92.12,-355.45 105.1,-327.04 118.51,-297.71"/>
<polygon fill="none" stroke="midnightblue" points="78.97,-375.82 77.99,-386.37 85.33,-378.73 78.97,-375.82"/>
</g>
<!-- Node3 -->
<g id="node3" class="node">
<title>Node3</title>
<g id="a_node3"><a xlink:title=" ">
<polygon fill="white" stroke="#bfbfbf" points="146.5,-386.5 146.5,-449.5 225.5,-449.5 225.5,-386.5 146.5,-386.5"/>
<text text-anchor="middle" x="186" y="-435.9" font-family="Helvetica,sans-Serif" font-size="12.00">IDisposable</text>
<polyline fill="none" stroke="#bfbfbf" points="146.5,-428.5 225.5,-428.5 "/>
<text text-anchor="middle" x="186" y="-414.9" font-family="Helvetica,sans-Serif" font-size="12.00"> </text>
<polyline fill="none" stroke="#bfbfbf" points="146.5,-407.5 225.5,-407.5 "/>
<text text-anchor="middle" x="186" y="-393.9" font-family="Helvetica,sans-Serif" font-size="12.00"> </text>
</a>
</g>
</g>
<!-- Node3&#45;&gt;Node1 -->
<g id="edge2" class="edge">
<title>Node3&#45;&gt;Node1</title>
<path fill="none" stroke="midnightblue" d="M186,-376.3C186,-354.69 186,-326.65 186,-297.71"/>
<polygon fill="none" stroke="midnightblue" points="182.5,-376.37 186,-386.37 189.5,-376.37 182.5,-376.37"/>
</g>
<!-- Node4 -->
<g id="node4" class="node">
<title>Node4</title>
<g id="a_node4"><a xlink:href="interface_game_controls_1_1_i_player_map_actions.html" target="_top" xlink:title=" ">
<polygon fill="white" stroke="black" points="243.5,-347.5 243.5,-488.5 436.5,-488.5 436.5,-347.5 243.5,-347.5"/>
<text text-anchor="middle" x="340" y="-474.9" font-family="Helvetica,sans-Serif" font-size="12.00">GameControls.IPlayerMapActions</text>
<polyline fill="none" stroke="black" points="243.5,-467.5 436.5,-467.5 "/>
<text text-anchor="middle" x="340" y="-453.9" font-family="Helvetica,sans-Serif" font-size="12.00"> </text>
<polyline fill="none" stroke="black" points="243.5,-446.5 436.5,-446.5 "/>
<text text-anchor="start" x="251.5" y="-432.9" font-family="Helvetica,sans-Serif" font-size="12.00">+ OnMouseMoving()</text>
<text text-anchor="start" x="251.5" y="-419.9" font-family="Helvetica,sans-Serif" font-size="12.00">+ OnControllerMoving()</text>
<text text-anchor="start" x="251.5" y="-406.9" font-family="Helvetica,sans-Serif" font-size="12.00">+ OnMoveToken()</text>
<text text-anchor="start" x="251.5" y="-393.9" font-family="Helvetica,sans-Serif" font-size="12.00">+ OnTestButton1()</text>
<text text-anchor="start" x="251.5" y="-380.9" font-family="Helvetica,sans-Serif" font-size="12.00">+ OnTestButton2()</text>
<text text-anchor="start" x="251.5" y="-367.9" font-family="Helvetica,sans-Serif" font-size="12.00">+ OnTestButton3()</text>
<text text-anchor="start" x="251.5" y="-354.9" font-family="Helvetica,sans-Serif" font-size="12.00">+ OnTestButton4()</text>
</a>
</g>
</g>
<!-- Node4&#45;&gt;Node1 -->
<g id="edge3" class="edge">
<title>Node4&#45;&gt;Node1</title>
<path fill="none" stroke="#404040" d="M299.74,-347.2C292.64,-334.89 284.99,-321.63 277.14,-308.02"/>
<polygon fill="none" stroke="#404040" points="277.1,-307.95 270.64,-304.75 271.11,-297.55 277.57,-300.75 277.1,-307.95"/>
<text text-anchor="middle" x="389.5" y="-319.4" font-family="Helvetica,sans-Serif" font-size="12.00"> &#45;m_PlayerMapActionsCallbackInterface</text>
</g>
</g>
</svg>
