<?xml version="1.0" encoding="UTF-8" standalone="no"?>
<!DOCTYPE svg PUBLIC "-//W3C//DTD SVG 1.1//EN"
 "http://www.w3.org/Graphics/SVG/1.1/DTD/svg11.dtd">
<!-- Generated by graphviz version 2.47.1 (20210417.1919)
 -->
<!-- Title: UnityTemplateProjects.SimpleCameraController Pages: 1 -->
<svg width="464pt" height="380pt"
 viewBox="0.00 0.00 464.00 380.00" xmlns="http://www.w3.org/2000/svg" xmlns:xlink="http://www.w3.org/1999/xlink">
<g id="graph0" class="graph" transform="scale(1 1) rotate(0) translate(4 376)">
<title>UnityTemplateProjects.SimpleCameraController</title>
<polygon fill="white" stroke="transparent" points="-4,4 -4,-376 460,-376 460,4 -4,4"/>
<!-- Node1 -->
<g id="node1" class="node">
<title>Node1</title>
<g id="a_node1"><a xlink:title=" ">
<polygon fill="#bfbfbf" stroke="black" points="34,-0.5 34,-141.5 300,-141.5 300,-0.5 34,-0.5"/>
<text text-anchor="middle" x="167" y="-127.9" font-family="Helvetica,sans-Serif" font-size="12.00">UnityTemplateProjects.SimpleCameraController</text>
<polyline fill="none" stroke="black" points="34,-120.5 300,-120.5 "/>
<text text-anchor="start" x="42" y="-106.9" font-family="Helvetica,sans-Serif" font-size="12.00">+ boost</text>
<text text-anchor="start" x="42" y="-93.9" font-family="Helvetica,sans-Serif" font-size="12.00">+ positionLerpTime</text>
<text text-anchor="start" x="42" y="-80.9" font-family="Helvetica,sans-Serif" font-size="12.00">+ mouseSensitivityCurve</text>
<text text-anchor="start" x="42" y="-67.9" font-family="Helvetica,sans-Serif" font-size="12.00">+ rotationLerpTime</text>
<text text-anchor="start" x="42" y="-54.9" font-family="Helvetica,sans-Serif" font-size="12.00">+ invertY</text>
<polyline fill="none" stroke="black" points="34,-47.5 300,-47.5 "/>
<text text-anchor="start" x="42" y="-33.9" font-family="Helvetica,sans-Serif" font-size="12.00">&#45; OnEnable()</text>
<text text-anchor="start" x="42" y="-20.9" font-family="Helvetica,sans-Serif" font-size="12.00">&#45; GetInputTranslationDirection()</text>
<text text-anchor="start" x="42" y="-7.9" font-family="Helvetica,sans-Serif" font-size="12.00">&#45; Update()</text>
</a>
</g>
</g>
<!-- Node2 -->
<g id="node2" class="node">
<title>Node2</title>
<g id="a_node2"><a xlink:title=" ">
<polygon fill="white" stroke="#bfbfbf" points="0,-256.5 0,-319.5 98,-319.5 98,-256.5 0,-256.5"/>
<text text-anchor="middle" x="49" y="-305.9" font-family="Helvetica,sans-Serif" font-size="12.00">MonoBehaviour</text>
<polyline fill="none" stroke="#bfbfbf" points="0,-298.5 98,-298.5 "/>
<text text-anchor="middle" x="49" y="-284.9" font-family="Helvetica,sans-Serif" font-size="12.00"> </text>
<polyline fill="none" stroke="#bfbfbf" points="0,-277.5 98,-277.5 "/>
<text text-anchor="middle" x="49" y="-263.9" font-family="Helvetica,sans-Serif" font-size="12.00"> </text>
</a>
</g>
</g>
<!-- Node2&#45;&gt;Node1 -->
<g id="edge1" class="edge">
<title>Node2&#45;&gt;Node1</title>
<path fill="none" stroke="midnightblue" d="M70.72,-247.42C86.92,-217.9 109.48,-176.8 128.69,-141.8"/>
<polygon fill="none" stroke="midnightblue" points="67.65,-245.75 65.91,-256.2 73.79,-249.11 67.65,-245.75"/>
</g>
<!-- Node3 -->
<g id="node3" class="node">
<title>Node3</title>
<g id="a_node3"><a xlink:href="class_unity_template_projects_1_1_simple_camera_controller_1_1_camera_state.html" target="_top" xlink:title=" ">
<polygon fill="white" stroke="black" points="116,-204.5 116,-371.5 456,-371.5 456,-204.5 116,-204.5"/>
<text text-anchor="middle" x="286" y="-357.9" font-family="Helvetica,sans-Serif" font-size="12.00">UnityTemplateProjects.SimpleCameraController.CameraState</text>
<polyline fill="none" stroke="black" points="116,-350.5 456,-350.5 "/>
<text text-anchor="start" x="124" y="-336.9" font-family="Helvetica,sans-Serif" font-size="12.00">+ yaw</text>
<text text-anchor="start" x="124" y="-323.9" font-family="Helvetica,sans-Serif" font-size="12.00">+ pitch</text>
<text text-anchor="start" x="124" y="-310.9" font-family="Helvetica,sans-Serif" font-size="12.00">+ roll</text>
<text text-anchor="start" x="124" y="-297.9" font-family="Helvetica,sans-Serif" font-size="12.00">+ x</text>
<text text-anchor="start" x="124" y="-284.9" font-family="Helvetica,sans-Serif" font-size="12.00">+ y</text>
<text text-anchor="start" x="124" y="-271.9" font-family="Helvetica,sans-Serif" font-size="12.00">+ z</text>
<polyline fill="none" stroke="black" points="116,-264.5 456,-264.5 "/>
<text text-anchor="start" x="124" y="-250.9" font-family="Helvetica,sans-Serif" font-size="12.00">+ SetFromTransform()</text>
<text text-anchor="start" x="124" y="-237.9" font-family="Helvetica,sans-Serif" font-size="12.00">+ Translate()</text>
<text text-anchor="start" x="124" y="-224.9" font-family="Helvetica,sans-Serif" font-size="12.00">+ LerpTowards()</text>
<text text-anchor="start" x="124" y="-211.9" font-family="Helvetica,sans-Serif" font-size="12.00">+ UpdateTransform()</text>
</a>
</g>
</g>
<!-- Node3&#45;&gt;Node1 -->
<g id="edge2" class="edge">
<title>Node3&#45;&gt;Node1</title>
<path fill="none" stroke="#404040" d="M240.33,-204.49C230.92,-187.49 221.02,-169.61 211.65,-152.67"/>
<polygon fill="none" stroke="#404040" points="211.39,-152.2 204.99,-148.89 205.58,-141.7 211.98,-145.01 211.39,-152.2"/>
<text text-anchor="middle" x="309.5" y="-176.4" font-family="Helvetica,sans-Serif" font-size="12.00"> &#45;m_InterpolatingCameraState</text>
<text text-anchor="middle" x="309.5" y="-163.4" font-family="Helvetica,sans-Serif" font-size="12.00">&#45;m_TargetCameraState</text>
</g>
</g>
</svg>
