<?xml version="1.0" encoding="UTF-8" standalone="no"?>
<!DOCTYPE svg PUBLIC "-//W3C//DTD SVG 1.1//EN"
 "http://www.w3.org/Graphics/SVG/1.1/DTD/svg11.dtd">
<!-- Generated by graphviz version 2.47.1 (20210417.1919)
 -->
<!-- Title: Die.GetValueDie Pages: 1 -->
<svg width="868pt" height="150pt"
 viewBox="0.00 0.00 868.00 150.00" xmlns="http://www.w3.org/2000/svg" xmlns:xlink="http://www.w3.org/1999/xlink">
<g id="graph0" class="graph" transform="scale(1 1) rotate(0) translate(4 146)">
<title>Die.GetValueDie</title>
<polygon fill="white" stroke="transparent" points="-4,4 -4,-146 864,-146 864,4 -4,4"/>
<!-- Node1 -->
<g id="node1" class="node">
<title>Node1</title>
<g id="a_node1"><a xlink:title="Get the value of the die">
<polygon fill="#bfbfbf" stroke="black" points="754,-60.5 754,-81.5 860,-81.5 860,-60.5 754,-60.5"/>
<text text-anchor="middle" x="807" y="-67.9" font-family="Helvetica,sans-Serif" font-size="12.00">Die.GetValueDie</text>
</a>
</g>
</g>
<!-- Node2 -->
<g id="node2" class="node">
<title>Node2</title>
<g id="a_node2"><a xlink:href="class_dice.html#a84cd116dad344495cac8589afc974140" target="_top" xlink:title="Calculate total value of all dice">
<polygon fill="white" stroke="black" points="595,-60.5 595,-81.5 718,-81.5 718,-60.5 595,-60.5"/>
<text text-anchor="middle" x="656.5" y="-67.9" font-family="Helvetica,sans-Serif" font-size="12.00">Dice.CalculateValue</text>
</a>
</g>
</g>
<!-- Node1&#45;&gt;Node2 -->
<g id="edge1" class="edge">
<title>Node1&#45;&gt;Node2</title>
<path fill="none" stroke="midnightblue" d="M743.49,-71C735.05,-71 726.41,-71 718.01,-71"/>
<polygon fill="midnightblue" stroke="midnightblue" points="743.64,-74.5 753.64,-71 743.64,-67.5 743.64,-74.5"/>
</g>
<!-- Node3 -->
<g id="node3" class="node">
<title>Node3</title>
<g id="a_node3"><a xlink:href="class_dice.html#a91e31e11d7028270bebdc80719c64c19" target="_top" xlink:title="Get value of all dice">
<polygon fill="white" stroke="black" points="466,-60.5 466,-81.5 559,-81.5 559,-60.5 466,-60.5"/>
<text text-anchor="middle" x="512.5" y="-67.9" font-family="Helvetica,sans-Serif" font-size="12.00">Dice.GetValue</text>
</a>
</g>
</g>
<!-- Node2&#45;&gt;Node3 -->
<g id="edge2" class="edge">
<title>Node2&#45;&gt;Node3</title>
<path fill="none" stroke="midnightblue" d="M584.75,-71C576.11,-71 567.46,-71 559.32,-71"/>
<polygon fill="midnightblue" stroke="midnightblue" points="584.87,-74.5 594.87,-71 584.87,-67.5 584.87,-74.5"/>
</g>
<!-- Node4 -->
<g id="node4" class="node">
<title>Node4</title>
<g id="a_node4"><a xlink:href="class_round_manager.html#acf674cdec523de9a0f91ab8a7bfcc2ef" target="_top" xlink:title="for waiting the dice to be rolled, get it&#39;s results and display where the player can move to">
<polygon fill="white" stroke="black" points="228,-120.5 228,-141.5 405,-141.5 405,-120.5 228,-120.5"/>
<text text-anchor="middle" x="316.5" y="-127.9" font-family="Helvetica,sans-Serif" font-size="12.00">RoundManager.DiceBehaviour</text>
</a>
</g>
</g>
<!-- Node3&#45;&gt;Node4 -->
<g id="edge3" class="edge">
<title>Node3&#45;&gt;Node4</title>
<path fill="none" stroke="midnightblue" d="M484.66,-86.55C469.14,-94.93 448.98,-104.79 430,-111 418.4,-114.79 405.89,-117.92 393.56,-120.48"/>
<polygon fill="midnightblue" stroke="midnightblue" points="486.61,-89.47 493.67,-81.57 483.22,-83.35 486.61,-89.47"/>
</g>
<!-- Node6 -->
<g id="node6" class="node">
<title>Node6</title>
<g id="a_node6"><a xlink:href="class_anson_test_script.html#a445d27a921ade2f0e76054a3b7cc4245" target="_top" xlink:title=" ">
<polygon fill="white" stroke="black" points="230,-80.5 230,-101.5 403,-101.5 403,-80.5 230,-80.5"/>
<text text-anchor="middle" x="316.5" y="-87.9" font-family="Helvetica,sans-Serif" font-size="12.00">AnsonTestScript.FixedUpdate</text>
</a>
</g>
</g>
<!-- Node3&#45;&gt;Node6 -->
<g id="edge5" class="edge">
<title>Node3&#45;&gt;Node6</title>
<path fill="none" stroke="midnightblue" d="M455.12,-76.81C438.84,-78.49 420.7,-80.36 403.07,-82.18"/>
<polygon fill="midnightblue" stroke="midnightblue" points="455.94,-80.25 465.52,-75.74 455.22,-73.28 455.94,-80.25"/>
</g>
<!-- Node7 -->
<g id="node7" class="node">
<title>Node7</title>
<g id="a_node7"><a xlink:href="class_player_movement_test_script.html#a1c247cfdee35d3a1c1d3a81fd579b426" target="_top" xlink:title=" ">
<polygon fill="white" stroke="black" points="203,-40.5 203,-61.5 430,-61.5 430,-40.5 203,-40.5"/>
<text text-anchor="middle" x="316.5" y="-47.9" font-family="Helvetica,sans-Serif" font-size="12.00">PlayerMovementTestScript.FixedUpdate</text>
</a>
</g>
</g>
<!-- Node3&#45;&gt;Node7 -->
<g id="edge6" class="edge">
<title>Node3&#45;&gt;Node7</title>
<path fill="none" stroke="midnightblue" d="M455.37,-65.21C444.01,-64.04 431.74,-62.78 419.36,-61.5"/>
<polygon fill="midnightblue" stroke="midnightblue" points="455.22,-68.72 465.52,-66.26 455.94,-61.75 455.22,-68.72"/>
</g>
<!-- Node8 -->
<g id="node8" class="node">
<title>Node8</title>
<g id="a_node8"><a xlink:href="class_display_dice_value.html#a0f0f2e5d5a2ecc6e8530c82f897f5dba" target="_top" xlink:title="Set button interactable and update dice value text">
<polygon fill="white" stroke="black" points="240.5,-0.5 240.5,-21.5 392.5,-21.5 392.5,-0.5 240.5,-0.5"/>
<text text-anchor="middle" x="316.5" y="-7.9" font-family="Helvetica,sans-Serif" font-size="12.00">DisplayDiceValue.Update</text>
</a>
</g>
</g>
<!-- Node3&#45;&gt;Node8 -->
<g id="edge7" class="edge">
<title>Node3&#45;&gt;Node8</title>
<path fill="none" stroke="midnightblue" d="M484.66,-55.45C469.14,-47.07 448.98,-37.21 430,-31 418.12,-27.11 405.28,-23.93 392.66,-21.34"/>
<polygon fill="midnightblue" stroke="midnightblue" points="483.22,-58.65 493.67,-60.43 486.61,-52.53 483.22,-58.65"/>
</g>
<!-- Node5 -->
<g id="node5" class="node">
<title>Node5</title>
<g id="a_node5"><a xlink:href="class_round_manager.html#abb654bc0114fc67d455ed6449d5bda22" target="_top" xlink:title=" ">
<polygon fill="white" stroke="black" points="0,-120.5 0,-141.5 167,-141.5 167,-120.5 0,-120.5"/>
<text text-anchor="middle" x="83.5" y="-127.9" font-family="Helvetica,sans-Serif" font-size="12.00">RoundManager.FixedUpdate</text>
</a>
</g>
</g>
<!-- Node4&#45;&gt;Node5 -->
<g id="edge4" class="edge">
<title>Node4&#45;&gt;Node5</title>
<path fill="none" stroke="midnightblue" d="M217.48,-131C200.72,-131 183.46,-131 167.15,-131"/>
<polygon fill="midnightblue" stroke="midnightblue" points="217.84,-134.5 227.84,-131 217.84,-127.5 217.84,-134.5"/>
</g>
</g>
</svg>
