<?xml version="1.0" encoding="UTF-8" standalone="no"?>
<!DOCTYPE svg PUBLIC "-//W3C//DTD SVG 1.1//EN"
 "http://www.w3.org/Graphics/SVG/1.1/DTD/svg11.dtd">
<!-- Generated by graphviz version 2.47.1 (20210417.1919)
 -->
<!-- Title: UserController.SetWeapon Pages: 1 -->
<svg width="363pt" height="110pt"
 viewBox="0.00 0.00 363.00 110.00" xmlns="http://www.w3.org/2000/svg" xmlns:xlink="http://www.w3.org/1999/xlink">
<g id="graph0" class="graph" transform="scale(1 1) rotate(0) translate(4 106)">
<title>UserController.SetWeapon</title>
<polygon fill="white" stroke="transparent" points="-4,4 -4,-106 359,-106 359,4 -4,4"/>
<!-- Node1 -->
<g id="node1" class="node">
<title>Node1</title>
<g id="a_node1"><a xlink:title="Sets weapon for suggestions and accusation">
<polygon fill="#bfbfbf" stroke="black" points="0,-40.5 0,-61.5 157,-61.5 157,-40.5 0,-40.5"/>
<text text-anchor="middle" x="78.5" y="-47.9" font-family="Helvetica,sans-Serif" font-size="12.00">UserController.SetWeapon</text>
</a>
</g>
</g>
<!-- Node2 -->
<g id="node2" class="node">
<title>Node2</title>
<g id="a_node2"><a xlink:href="class_card_manager.html#a124d7d9ab3a0e7c22ca64c15da76d4b1" target="_top" xlink:title="Looks for the specified weapon card">
<polygon fill="white" stroke="black" points="203,-80.5 203,-101.5 345,-101.5 345,-80.5 203,-80.5"/>
<text text-anchor="middle" x="274" y="-87.9" font-family="Helvetica,sans-Serif" font-size="12.00">CardManager.FindCard</text>
</a>
</g>
</g>
<!-- Node1&#45;&gt;Node2 -->
<g id="edge1" class="edge">
<title>Node1&#45;&gt;Node2</title>
<path fill="none" stroke="midnightblue" d="M130.34,-61.51C155.46,-66.7 185.96,-73.01 212.29,-78.45"/>
<polygon fill="midnightblue" stroke="midnightblue" points="211.66,-81.89 222.16,-80.49 213.08,-75.04 211.66,-81.89"/>
</g>
<!-- Node3 -->
<g id="node3" class="node">
<title>Node3</title>
<g id="a_node3"><a xlink:href="class_suggestion.html#a1e1c18344f7cb7b0bde20ad7fa59286c" target="_top" xlink:title=" ">
<polygon fill="white" stroke="black" points="193,-40.5 193,-61.5 355,-61.5 355,-40.5 193,-40.5"/>
<text text-anchor="middle" x="274" y="-47.9" font-family="Helvetica,sans-Serif" font-size="12.00">Suggestion.SetSugWeapon</text>
</a>
</g>
</g>
<!-- Node1&#45;&gt;Node3 -->
<g id="edge2" class="edge">
<title>Node1&#45;&gt;Node3</title>
<path fill="none" stroke="midnightblue" d="M157.09,-51C165.55,-51 174.22,-51 182.82,-51"/>
<polygon fill="midnightblue" stroke="midnightblue" points="182.86,-54.5 192.86,-51 182.86,-47.5 182.86,-54.5"/>
</g>
<!-- Node4 -->
<g id="node4" class="node">
<title>Node4</title>
<g id="a_node4"><a xlink:href="class_accusation.html#a8ec681e44a6b354d986656ea54b6dd36" target="_top" xlink:title="Set the current weapon for accusing">
<polygon fill="white" stroke="black" points="204,-0.5 204,-21.5 344,-21.5 344,-0.5 204,-0.5"/>
<text text-anchor="middle" x="274" y="-7.9" font-family="Helvetica,sans-Serif" font-size="12.00">Accusation.SetWeapon</text>
</a>
</g>
</g>
<!-- Node1&#45;&gt;Node4 -->
<g id="edge3" class="edge">
<title>Node1&#45;&gt;Node4</title>
<path fill="none" stroke="midnightblue" d="M130.34,-40.49C155.46,-35.3 185.96,-28.99 212.29,-23.55"/>
<polygon fill="midnightblue" stroke="midnightblue" points="213.08,-26.96 222.16,-21.51 211.66,-20.11 213.08,-26.96"/>
</g>
</g>
</svg>
