<?xml version="1.0" encoding="UTF-8" standalone="no"?>
<!DOCTYPE svg PUBLIC "-//W3C//DTD SVG 1.1//EN"
 "http://www.w3.org/Graphics/SVG/1.1/DTD/svg11.dtd">
<!-- Generated by graphviz version 2.47.1 (20210417.1919)
 -->
<!-- Title: RoomEntryBoardTileScript Pages: 1 -->
<svg width="164pt" height="688pt"
 viewBox="0.00 0.00 164.00 688.00" xmlns="http://www.w3.org/2000/svg" xmlns:xlink="http://www.w3.org/1999/xlink">
<g id="graph0" class="graph" transform="scale(1 1) rotate(0) translate(4 684)">
<title>RoomEntryBoardTileScript</title>
<polygon fill="white" stroke="transparent" points="-4,4 -4,-684 160,-684 160,4 -4,4"/>
<!-- Node1 -->
<g id="node1" class="node">
<title>Node1</title>
<g id="a_node1"><a xlink:title="Script for the room entry board tile GameObject">
<polygon fill="#bfbfbf" stroke="black" points="0,-0.5 0,-258.5 156,-258.5 156,-0.5 0,-0.5"/>
<text text-anchor="middle" x="78" y="-244.9" font-family="Helvetica,sans-Serif" font-size="12.00">RoomEntryBoardTileScript</text>
<polyline fill="none" stroke="black" points="0,-237.5 156,-237.5 "/>
<text text-anchor="start" x="8" y="-223.9" font-family="Helvetica,sans-Serif" font-size="12.00">+ Room</text>
<text text-anchor="start" x="8" y="-210.9" font-family="Helvetica,sans-Serif" font-size="12.00">+ RoomScript</text>
<text text-anchor="start" x="8" y="-197.9" font-family="Helvetica,sans-Serif" font-size="12.00">+ EntryPoint</text>
<text text-anchor="start" x="8" y="-184.9" font-family="Helvetica,sans-Serif" font-size="12.00">&#45; room</text>
<text text-anchor="start" x="8" y="-171.9" font-family="Helvetica,sans-Serif" font-size="12.00">&#45; entryPoint</text>
<text text-anchor="start" x="8" y="-158.9" font-family="Helvetica,sans-Serif" font-size="12.00">&#45; roomScript</text>
<text text-anchor="start" x="8" y="-145.9" font-family="Helvetica,sans-Serif" font-size="12.00">&#45; door</text>
<text text-anchor="start" x="8" y="-132.9" font-family="Helvetica,sans-Serif" font-size="12.00">&#45; exitTarget</text>
<polyline fill="none" stroke="black" points="0,-125.5 156,-125.5 "/>
<text text-anchor="start" x="8" y="-111.9" font-family="Helvetica,sans-Serif" font-size="12.00">+ ToString()</text>
<text text-anchor="start" x="8" y="-98.9" font-family="Helvetica,sans-Serif" font-size="12.00">+ ExitRoomDelay()</text>
<text text-anchor="start" x="8" y="-85.9" font-family="Helvetica,sans-Serif" font-size="12.00">~ EnterRoom()</text>
<text text-anchor="start" x="8" y="-72.9" font-family="Helvetica,sans-Serif" font-size="12.00">~ ExitRoom()</text>
<text text-anchor="start" x="8" y="-59.9" font-family="Helvetica,sans-Serif" font-size="12.00">&#45; Start()</text>
<text text-anchor="start" x="8" y="-46.9" font-family="Helvetica,sans-Serif" font-size="12.00">&#45; GetDoor()</text>
<text text-anchor="start" x="8" y="-33.9" font-family="Helvetica,sans-Serif" font-size="12.00">&#45; GetRoomScript()</text>
<text text-anchor="start" x="8" y="-20.9" font-family="Helvetica,sans-Serif" font-size="12.00">&#45; GetEntryPoint()</text>
<text text-anchor="start" x="8" y="-7.9" font-family="Helvetica,sans-Serif" font-size="12.00">&#45; EnterRoomAnimation()</text>
</a>
</g>
</g>
<!-- Node2 -->
<g id="node2" class="node">
<title>Node2</title>
<g id="a_node2"><a xlink:href="class_board_tile_script.html" target="_top" xlink:title="Super class for all tiles">
<polygon fill="white" stroke="black" points="6.5,-295.5 6.5,-579.5 149.5,-579.5 149.5,-295.5 6.5,-295.5"/>
<text text-anchor="middle" x="78" y="-565.9" font-family="Helvetica,sans-Serif" font-size="12.00">BoardTileScript</text>
<polyline fill="none" stroke="black" points="6.5,-558.5 149.5,-558.5 "/>
<text text-anchor="start" x="14.5" y="-544.9" font-family="Helvetica,sans-Serif" font-size="12.00">+ GridPosition</text>
<text text-anchor="start" x="14.5" y="-531.9" font-family="Helvetica,sans-Serif" font-size="12.00">+ TileType</text>
<text text-anchor="start" x="14.5" y="-518.9" font-family="Helvetica,sans-Serif" font-size="12.00">+ PlayerToken</text>
<text text-anchor="start" x="14.5" y="-505.9" font-family="Helvetica,sans-Serif" font-size="12.00">+ BoardManager</text>
<text text-anchor="start" x="14.5" y="-492.9" font-family="Helvetica,sans-Serif" font-size="12.00">&#45; gridPosition</text>
<text text-anchor="start" x="14.5" y="-479.9" font-family="Helvetica,sans-Serif" font-size="12.00">&#45; tileType</text>
<text text-anchor="start" x="14.5" y="-466.9" font-family="Helvetica,sans-Serif" font-size="12.00">&#45; boardTileEffectHandler</text>
<text text-anchor="start" x="14.5" y="-453.9" font-family="Helvetica,sans-Serif" font-size="12.00">&#45; playerToken</text>
<text text-anchor="start" x="14.5" y="-440.9" font-family="Helvetica,sans-Serif" font-size="12.00">&#45; boardManager</text>
<polyline fill="none" stroke="black" points="6.5,-433.5 149.5,-433.5 "/>
<text text-anchor="start" x="14.5" y="-419.9" font-family="Helvetica,sans-Serif" font-size="12.00">+ ClearTile()</text>
<text text-anchor="start" x="14.5" y="-406.9" font-family="Helvetica,sans-Serif" font-size="12.00">+ SelectTile()</text>
<text text-anchor="start" x="14.5" y="-393.9" font-family="Helvetica,sans-Serif" font-size="12.00">+ GlowTile()</text>
<text text-anchor="start" x="14.5" y="-380.9" font-family="Helvetica,sans-Serif" font-size="12.00">+ SetToken()</text>
<text text-anchor="start" x="14.5" y="-367.9" font-family="Helvetica,sans-Serif" font-size="12.00">+ IsEmpty()</text>
<text text-anchor="start" x="14.5" y="-354.9" font-family="Helvetica,sans-Serif" font-size="12.00">+ GetTileNeighbours()</text>
<text text-anchor="start" x="14.5" y="-341.9" font-family="Helvetica,sans-Serif" font-size="12.00">+ CanMove()</text>
<text text-anchor="start" x="14.5" y="-328.9" font-family="Helvetica,sans-Serif" font-size="12.00">+ ToString()</text>
<text text-anchor="start" x="14.5" y="-315.9" font-family="Helvetica,sans-Serif" font-size="12.00"># Init()</text>
<text text-anchor="start" x="14.5" y="-302.9" font-family="Helvetica,sans-Serif" font-size="12.00">&#45; Start()</text>
</a>
</g>
</g>
<!-- Node2&#45;&gt;Node1 -->
<g id="edge1" class="edge">
<title>Node2&#45;&gt;Node1</title>
<path fill="none" stroke="midnightblue" d="M78,-285.11C78,-276.21 78,-267.31 78,-258.52"/>
<polygon fill="none" stroke="midnightblue" points="74.5,-285.14 78,-295.14 81.5,-285.14 74.5,-285.14"/>
</g>
<!-- Node3 -->
<g id="node3" class="node">
<title>Node3</title>
<g id="a_node3"><a xlink:title=" ">
<polygon fill="white" stroke="#bfbfbf" points="29,-616.5 29,-679.5 127,-679.5 127,-616.5 29,-616.5"/>
<text text-anchor="middle" x="78" y="-665.9" font-family="Helvetica,sans-Serif" font-size="12.00">MonoBehaviour</text>
<polyline fill="none" stroke="#bfbfbf" points="29,-658.5 127,-658.5 "/>
<text text-anchor="middle" x="78" y="-644.9" font-family="Helvetica,sans-Serif" font-size="12.00"> </text>
<polyline fill="none" stroke="#bfbfbf" points="29,-637.5 127,-637.5 "/>
<text text-anchor="middle" x="78" y="-623.9" font-family="Helvetica,sans-Serif" font-size="12.00"> </text>
</a>
</g>
</g>
<!-- Node3&#45;&gt;Node2 -->
<g id="edge2" class="edge">
<title>Node3&#45;&gt;Node2</title>
<path fill="none" stroke="midnightblue" d="M78,-606.07C78,-597.95 78,-589.01 78,-579.61"/>
<polygon fill="none" stroke="midnightblue" points="74.5,-606.24 78,-616.24 81.5,-606.24 74.5,-606.24"/>
</g>
</g>
</svg>
