<?xml version="1.0" encoding="UTF-8" standalone="no"?>
<!DOCTYPE svg PUBLIC "-//W3C//DTD SVG 1.1//EN"
 "http://www.w3.org/Graphics/SVG/1.1/DTD/svg11.dtd">
<!-- Generated by graphviz version 2.47.1 (20210417.1919)
 -->
<!-- Title: UIHandler.DisplayPlayerEliminated Pages: 1 -->
<svg width="1735pt" height="139pt"
 viewBox="0.00 0.00 1735.00 139.00" xmlns="http://www.w3.org/2000/svg" xmlns:xlink="http://www.w3.org/1999/xlink">
<g id="graph0" class="graph" transform="scale(1 1) rotate(0) translate(4 135)">
<title>UIHandler.DisplayPlayerEliminated</title>
<polygon fill="white" stroke="transparent" points="-4,4 -4,-135 1731,-135 1731,4 -4,4"/>
<!-- Node1 -->
<g id="node1" class="node">
<title>Node1</title>
<g id="a_node1"><a xlink:title="Displays a screen when a player is eliminated">
<polygon fill="#bfbfbf" stroke="black" points="1529,-49.5 1529,-70.5 1727,-70.5 1727,-49.5 1529,-49.5"/>
<text text-anchor="middle" x="1628" y="-56.9" font-family="Helvetica,sans-Serif" font-size="12.00">UIHandler.DisplayPlayerEliminated</text>
</a>
</g>
</g>
<!-- Node2 -->
<g id="node2" class="node">
<title>Node2</title>
<g id="a_node2"><a xlink:href="class_u_i_handler.html#ac072319b13f11e5ac215a0ed6ab11aa9" target="_top" xlink:title="Resets UI for the next player">
<polygon fill="white" stroke="black" points="1332,-69.5 1332,-90.5 1467,-90.5 1467,-69.5 1332,-69.5"/>
<text text-anchor="middle" x="1399.5" y="-76.9" font-family="Helvetica,sans-Serif" font-size="12.00">UIHandler.InitialiseTurn</text>
</a>
</g>
</g>
<!-- Node1&#45;&gt;Node2 -->
<g id="edge1" class="edge">
<title>Node1&#45;&gt;Node2</title>
<path fill="none" stroke="midnightblue" d="M1518.63,-69.57C1501.01,-71.12 1483.24,-72.69 1467.01,-74.13"/>
<polygon fill="midnightblue" stroke="midnightblue" points="1519.32,-73.02 1528.97,-68.66 1518.7,-66.05 1519.32,-73.02"/>
</g>
<!-- Node12 -->
<g id="node12" class="node">
<title>Node12</title>
<g id="a_node12"><a xlink:href="class_round_manager.html#ab691cd5cd773e23822b237834b1fcb0a" target="_top" xlink:title="to have the current player to make an accusation eliminates the player if it is wrong wins the game i...">
<polygon fill="white" stroke="black" points="1306,-29.5 1306,-50.5 1493,-50.5 1493,-29.5 1306,-29.5"/>
<text text-anchor="middle" x="1399.5" y="-36.9" font-family="Helvetica,sans-Serif" font-size="12.00">RoundManager.MakeAccusation</text>
</a>
</g>
</g>
<!-- Node1&#45;&gt;Node12 -->
<g id="edge11" class="edge">
<title>Node1&#45;&gt;Node12</title>
<path fill="none" stroke="midnightblue" d="M1518.94,-50.46C1510.37,-49.7 1501.77,-48.94 1493.31,-48.2"/>
<polygon fill="midnightblue" stroke="midnightblue" points="1518.7,-53.95 1528.97,-51.34 1519.32,-46.98 1518.7,-53.95"/>
</g>
<!-- Node3 -->
<g id="node3" class="node">
<title>Node3</title>
<g id="a_node3"><a xlink:href="class_round_manager.html#acf644ae21a6f9ebc2a476fc8603e18fc" target="_top" xlink:title="Method for starting the turn">
<polygon fill="white" stroke="black" points="1105.5,-69.5 1105.5,-90.5 1252.5,-90.5 1252.5,-69.5 1105.5,-69.5"/>
<text text-anchor="middle" x="1179" y="-76.9" font-family="Helvetica,sans-Serif" font-size="12.00">RoundManager.StartTurn</text>
</a>
</g>
</g>
<!-- Node2&#45;&gt;Node3 -->
<g id="edge2" class="edge">
<title>Node2&#45;&gt;Node3</title>
<path fill="none" stroke="midnightblue" d="M1321.63,-80C1299.27,-80 1274.91,-80 1252.8,-80"/>
<polygon fill="midnightblue" stroke="midnightblue" points="1321.76,-83.5 1331.76,-80 1321.76,-76.5 1321.76,-83.5"/>
</g>
<!-- Node4 -->
<g id="node4" class="node">
<title>Node4</title>
<g id="a_node4"><a xlink:href="class_round_manager.html#a29177f2e27c6c4af55dfa3c48d67cfb0" target="_top" xlink:title="Ending the turn. Returns the next player">
<polygon fill="white" stroke="black" points="887.5,-109.5 887.5,-130.5 1030.5,-130.5 1030.5,-109.5 887.5,-109.5"/>
<text text-anchor="middle" x="959" y="-116.9" font-family="Helvetica,sans-Serif" font-size="12.00">RoundManager.EndTurn</text>
</a>
</g>
</g>
<!-- Node3&#45;&gt;Node4 -->
<g id="edge3" class="edge">
<title>Node3&#45;&gt;Node4</title>
<path fill="none" stroke="midnightblue" d="M1110.78,-92.33C1080.84,-97.83 1045.95,-104.23 1017.27,-109.49"/>
<polygon fill="midnightblue" stroke="midnightblue" points="1111.52,-95.76 1120.72,-90.51 1110.26,-88.87 1111.52,-95.76"/>
</g>
<!-- Node10 -->
<g id="node10" class="node">
<title>Node10</title>
<g id="a_node10"><a xlink:href="class_game_manager_script.html#a12cbaf1ff00804887619c07c7267cf31" target="_top" xlink:title="starting and initialing the game and it&#39;s components">
<polygon fill="white" stroke="black" points="866,-69.5 866,-90.5 1052,-90.5 1052,-69.5 866,-69.5"/>
<text text-anchor="middle" x="959" y="-76.9" font-family="Helvetica,sans-Serif" font-size="12.00">GameManagerScript.StartGame</text>
</a>
</g>
</g>
<!-- Node3&#45;&gt;Node10 -->
<g id="edge9" class="edge">
<title>Node3&#45;&gt;Node10</title>
<path fill="none" stroke="midnightblue" d="M1095.25,-80C1081.14,-80 1066.39,-80 1052.05,-80"/>
<polygon fill="midnightblue" stroke="midnightblue" points="1095.41,-83.5 1105.41,-80 1095.41,-76.5 1095.41,-83.5"/>
</g>
<!-- Node5 -->
<g id="node5" class="node">
<title>Node5</title>
<g id="a_node5"><a xlink:href="class_user_controller.html#ab90611f541e20c125133d09b62407f41" target="_top" xlink:title="Ends turn">
<polygon fill="white" stroke="black" points="654,-109.5 654,-130.5 792,-130.5 792,-109.5 654,-109.5"/>
<text text-anchor="middle" x="723" y="-116.9" font-family="Helvetica,sans-Serif" font-size="12.00">UserController.EndTurn</text>
</a>
</g>
</g>
<!-- Node4&#45;&gt;Node5 -->
<g id="edge4" class="edge">
<title>Node4&#45;&gt;Node5</title>
<path fill="none" stroke="midnightblue" d="M877.42,-120C849.72,-120 819,-120 792.37,-120"/>
<polygon fill="midnightblue" stroke="midnightblue" points="877.47,-123.5 887.47,-120 877.47,-116.5 877.47,-123.5"/>
</g>
<!-- Node6 -->
<g id="node6" class="node">
<title>Node6</title>
<g id="a_node6"><a xlink:href="class_a_i_controller_script.html#a9c386cf1258ad897c9a1068804f07ba0" target="_top" xlink:title="have AI to end turn">
<polygon fill="white" stroke="black" points="425,-109.5 425,-130.5 580,-130.5 580,-109.5 425,-109.5"/>
<text text-anchor="middle" x="502.5" y="-116.9" font-family="Helvetica,sans-Serif" font-size="12.00">AIControllerScript.EndTurn</text>
</a>
</g>
</g>
<!-- Node5&#45;&gt;Node6 -->
<g id="edge5" class="edge">
<title>Node5&#45;&gt;Node6</title>
<path fill="none" stroke="midnightblue" d="M643.5,-120C622.95,-120 600.82,-120 580.35,-120"/>
<polygon fill="midnightblue" stroke="midnightblue" points="643.76,-123.5 653.76,-120 643.76,-116.5 643.76,-123.5"/>
</g>
<!-- Node9 -->
<g id="node9" class="node">
<title>Node9</title>
<g id="a_node9"><a xlink:href="class_u_i_handler.html#acc06a1dab8566d9e14f7ab3ae1ffea93" target="_top" xlink:title="Ends current player&#39;s turn">
<polygon fill="white" stroke="black" points="445.5,-69.5 445.5,-90.5 559.5,-90.5 559.5,-69.5 445.5,-69.5"/>
<text text-anchor="middle" x="502.5" y="-76.9" font-family="Helvetica,sans-Serif" font-size="12.00">UIHandler.EndTurn</text>
</a>
</g>
</g>
<!-- Node5&#45;&gt;Node9 -->
<g id="edge8" class="edge">
<title>Node5&#45;&gt;Node9</title>
<path fill="none" stroke="midnightblue" d="M654.5,-107.64C624.13,-102.08 588.68,-95.59 559.77,-90.3"/>
<polygon fill="midnightblue" stroke="midnightblue" points="654.12,-111.13 664.59,-109.49 655.39,-104.25 654.12,-111.13"/>
</g>
<!-- Node7 -->
<g id="node7" class="node">
<title>Node7</title>
<g id="a_node7"><a xlink:href="class_a_i_controller_script.html#ac31d9b8dbb75696b181eff1fbef41b97" target="_top" xlink:title="dictates what the AI will do depending on what mode it is in">
<polygon fill="white" stroke="black" points="215,-49.5 215,-70.5 389,-70.5 389,-49.5 215,-49.5"/>
<text text-anchor="middle" x="302" y="-56.9" font-family="Helvetica,sans-Serif" font-size="12.00">AIControllerScript.AIBehaviour</text>
</a>
</g>
</g>
<!-- Node6&#45;&gt;Node7 -->
<g id="edge6" class="edge">
<title>Node6&#45;&gt;Node7</title>
<path fill="none" stroke="midnightblue" d="M449.42,-106.84C441.22,-104.64 432.86,-102.31 425,-100 393.57,-90.75 358.01,-78.93 333.42,-70.55"/>
<polygon fill="midnightblue" stroke="midnightblue" points="448.72,-110.28 459.28,-109.46 450.52,-103.51 448.72,-110.28"/>
</g>
<!-- Node8 -->
<g id="node8" class="node">
<title>Node8</title>
<g id="a_node8"><a xlink:href="class_a_i_controller_script.html#a74dc0e720fafceb873d3b19c12f68d58" target="_top" xlink:title=" ">
<polygon fill="white" stroke="black" points="0,-49.5 0,-70.5 179,-70.5 179,-49.5 0,-49.5"/>
<text text-anchor="middle" x="89.5" y="-56.9" font-family="Helvetica,sans-Serif" font-size="12.00">AIControllerScript.FixedUpdate</text>
</a>
</g>
</g>
<!-- Node7&#45;&gt;Node8 -->
<g id="edge7" class="edge">
<title>Node7&#45;&gt;Node8</title>
<path fill="none" stroke="midnightblue" d="M204.57,-60C196.15,-60 187.67,-60 179.32,-60"/>
<polygon fill="midnightblue" stroke="midnightblue" points="204.77,-63.5 214.77,-60 204.77,-56.5 204.77,-63.5"/>
</g>
<!-- Node11 -->
<g id="node11" class="node">
<title>Node11</title>
<g id="a_node11"><a xlink:href="class_suggestion_test.html#a904e4481863c3e620574eba37c993a26" target="_top" xlink:title=" ">
<polygon fill="white" stroke="black" points="660,-69.5 660,-90.5 786,-90.5 786,-69.5 660,-69.5"/>
<text text-anchor="middle" x="723" y="-76.9" font-family="Helvetica,sans-Serif" font-size="12.00">SuggestionTest.Start</text>
</a>
</g>
</g>
<!-- Node10&#45;&gt;Node11 -->
<g id="edge10" class="edge">
<title>Node10&#45;&gt;Node11</title>
<path fill="none" stroke="midnightblue" d="M855.76,-80C832.05,-80 807.53,-80 786.16,-80"/>
<polygon fill="midnightblue" stroke="midnightblue" points="855.85,-83.5 865.85,-80 855.85,-76.5 855.85,-83.5"/>
</g>
<!-- Node13 -->
<g id="node13" class="node">
<title>Node13</title>
<g id="a_node13"><a xlink:href="class_user_controller.html#aa90e4e2fed6b1d661933450f430b95ba" target="_top" xlink:title="Makes accusation">
<polygon fill="white" stroke="black" points="1088,-29.5 1088,-50.5 1270,-50.5 1270,-29.5 1088,-29.5"/>
<text text-anchor="middle" x="1179" y="-36.9" font-family="Helvetica,sans-Serif" font-size="12.00">UserController.MakeAccusation</text>
</a>
</g>
</g>
<!-- Node12&#45;&gt;Node13 -->
<g id="edge12" class="edge">
<title>Node12&#45;&gt;Node13</title>
<path fill="none" stroke="midnightblue" d="M1295.78,-40C1287.17,-40 1278.52,-40 1270.02,-40"/>
<polygon fill="midnightblue" stroke="midnightblue" points="1295.84,-43.5 1305.84,-40 1295.84,-36.5 1295.84,-43.5"/>
</g>
<!-- Node14 -->
<g id="node14" class="node">
<title>Node14</title>
<g id="a_node14"><a xlink:href="class_u_i_handler.html#adc2ae7669cebeb4d9109002f0d3e8c7a" target="_top" xlink:title="Hides the accusation menu">
<polygon fill="white" stroke="black" points="874,-29.5 874,-50.5 1044,-50.5 1044,-29.5 874,-29.5"/>
<text text-anchor="middle" x="959" y="-36.9" font-family="Helvetica,sans-Serif" font-size="12.00">UIHandler.ConfirmAccusation</text>
</a>
</g>
</g>
<!-- Node13&#45;&gt;Node14 -->
<g id="edge13" class="edge">
<title>Node13&#45;&gt;Node14</title>
<path fill="none" stroke="midnightblue" d="M1077.57,-40C1066.42,-40 1055.15,-40 1044.23,-40"/>
<polygon fill="midnightblue" stroke="midnightblue" points="1077.76,-43.5 1087.76,-40 1077.76,-36.5 1077.76,-43.5"/>
</g>
<!-- Node15 -->
<g id="node15" class="node">
<title>Node15</title>
<g id="a_node15"><a xlink:href="class_a_i_controller_script.html#a7be5eb284c6258672e70af128f8638df" target="_top" xlink:title="Decides that cards to accuse based on the To Guess List">
<polygon fill="white" stroke="black" points="616,-0.5 616,-21.5 830,-21.5 830,-0.5 616,-0.5"/>
<text text-anchor="middle" x="723" y="-7.9" font-family="Helvetica,sans-Serif" font-size="12.00">AIControllerScript.Decide_Accusation</text>
</a>
</g>
</g>
<!-- Node13&#45;&gt;Node15 -->
<g id="edge14" class="edge">
<title>Node13&#45;&gt;Node15</title>
<path fill="none" stroke="midnightblue" d="M1111.87,-27.85C1092.63,-24.76 1071.53,-21.81 1052,-20 978.12,-13.15 894.51,-10.94 830.2,-10.42"/>
<polygon fill="midnightblue" stroke="midnightblue" points="1111.31,-31.3 1121.75,-29.47 1112.45,-24.4 1111.31,-31.3"/>
</g>
<!-- Node15&#45;&gt;Node7 -->
<g id="edge15" class="edge">
<title>Node15&#45;&gt;Node7</title>
<path fill="none" stroke="midnightblue" d="M621.82,-22.72C550.89,-31.01 456.73,-42.02 389.16,-49.92"/>
<polygon fill="midnightblue" stroke="midnightblue" points="622.59,-26.15 632.11,-21.51 621.78,-19.2 622.59,-26.15"/>
</g>
</g>
</svg>
