<?xml version="1.0" encoding="UTF-8" standalone="no"?>
<!DOCTYPE svg PUBLIC "-//W3C//DTD SVG 1.1//EN"
 "http://www.w3.org/Graphics/SVG/1.1/DTD/svg11.dtd">
<!-- Generated by graphviz version 2.47.1 (20210417.1919)
 -->
<!-- Title: GameControls Pages: 1 -->
<svg width="246pt" height="419pt"
 viewBox="0.00 0.00 245.50 419.00" xmlns="http://www.w3.org/2000/svg" xmlns:xlink="http://www.w3.org/1999/xlink">
<g id="graph0" class="graph" transform="scale(1 1) rotate(0) translate(4 415)">
<title>GameControls</title>
<polygon fill="white" stroke="transparent" points="-4,4 -4,-415 241.5,-415 241.5,4 -4,4"/>
<!-- Node1 -->
<g id="node1" class="node">
<title>Node1</title>
<g id="a_node1"><a xlink:title=" ">
<polygon fill="#bfbfbf" stroke="black" points="12.5,-0.5 12.5,-310.5 237.5,-310.5 237.5,-0.5 12.5,-0.5"/>
<text text-anchor="middle" x="125" y="-296.9" font-family="Helvetica,sans-Serif" font-size="12.00">GameControls</text>
<polyline fill="none" stroke="black" points="12.5,-289.5 237.5,-289.5 "/>
<text text-anchor="start" x="20.5" y="-275.9" font-family="Helvetica,sans-Serif" font-size="12.00">+ asset</text>
<text text-anchor="start" x="20.5" y="-262.9" font-family="Helvetica,sans-Serif" font-size="12.00">+ bindingMask</text>
<text text-anchor="start" x="20.5" y="-249.9" font-family="Helvetica,sans-Serif" font-size="12.00">+ devices</text>
<text text-anchor="start" x="20.5" y="-236.9" font-family="Helvetica,sans-Serif" font-size="12.00">+ controlSchemes</text>
<text text-anchor="start" x="20.5" y="-223.9" font-family="Helvetica,sans-Serif" font-size="12.00">+ PlayerMap</text>
<text text-anchor="start" x="20.5" y="-210.9" font-family="Helvetica,sans-Serif" font-size="12.00">&#45; m_PlayerMap</text>
<text text-anchor="start" x="20.5" y="-197.9" font-family="Helvetica,sans-Serif" font-size="12.00">&#45; m_PlayerMapActionsCallbackInterface</text>
<text text-anchor="start" x="20.5" y="-184.9" font-family="Helvetica,sans-Serif" font-size="12.00">&#45; m_PlayerMap_MouseMoving</text>
<text text-anchor="start" x="20.5" y="-171.9" font-family="Helvetica,sans-Serif" font-size="12.00">&#45; m_PlayerMap_ControllerMoving</text>
<text text-anchor="start" x="20.5" y="-158.9" font-family="Helvetica,sans-Serif" font-size="12.00">&#45; m_PlayerMap_MoveToken</text>
<text text-anchor="start" x="20.5" y="-145.9" font-family="Helvetica,sans-Serif" font-size="12.00">&#45; m_PlayerMap_TestButton1</text>
<text text-anchor="start" x="20.5" y="-132.9" font-family="Helvetica,sans-Serif" font-size="12.00">&#45; m_PlayerMap_TestButton2</text>
<text text-anchor="start" x="20.5" y="-119.9" font-family="Helvetica,sans-Serif" font-size="12.00">&#45; m_PlayerMap_TestButton3</text>
<text text-anchor="start" x="20.5" y="-106.9" font-family="Helvetica,sans-Serif" font-size="12.00">&#45; m_PlayerMap_TestButton4</text>
<polyline fill="none" stroke="black" points="12.5,-99.5 237.5,-99.5 "/>
<text text-anchor="start" x="20.5" y="-85.9" font-family="Helvetica,sans-Serif" font-size="12.00">+ GameControls()</text>
<text text-anchor="start" x="20.5" y="-72.9" font-family="Helvetica,sans-Serif" font-size="12.00">+ Dispose()</text>
<text text-anchor="start" x="20.5" y="-59.9" font-family="Helvetica,sans-Serif" font-size="12.00">+ Contains()</text>
<text text-anchor="start" x="20.5" y="-46.9" font-family="Helvetica,sans-Serif" font-size="12.00">+ GetEnumerator()</text>
<text text-anchor="start" x="20.5" y="-33.9" font-family="Helvetica,sans-Serif" font-size="12.00">+ Enable()</text>
<text text-anchor="start" x="20.5" y="-20.9" font-family="Helvetica,sans-Serif" font-size="12.00">+ Disable()</text>
<text text-anchor="start" x="20.5" y="-7.9" font-family="Helvetica,sans-Serif" font-size="12.00">&#45; GetEnumerator()</text>
</a>
</g>
</g>
<!-- Node2 -->
<g id="node2" class="node">
<title>Node2</title>
<g id="a_node2"><a xlink:title=" ">
<polygon fill="white" stroke="#bfbfbf" points="0,-347.5 0,-410.5 128,-410.5 128,-347.5 0,-347.5"/>
<text text-anchor="middle" x="64" y="-396.9" font-family="Helvetica,sans-Serif" font-size="12.00">IInputActionCollection</text>
<polyline fill="none" stroke="#bfbfbf" points="0,-389.5 128,-389.5 "/>
<text text-anchor="middle" x="64" y="-375.9" font-family="Helvetica,sans-Serif" font-size="12.00"> </text>
<polyline fill="none" stroke="#bfbfbf" points="0,-368.5 128,-368.5 "/>
<text text-anchor="middle" x="64" y="-354.9" font-family="Helvetica,sans-Serif" font-size="12.00"> </text>
</a>
</g>
</g>
<!-- Node2&#45;&gt;Node1 -->
<g id="edge1" class="edge">
<title>Node2&#45;&gt;Node1</title>
<path fill="none" stroke="midnightblue" d="M75.19,-337.37C77.43,-329.23 79.91,-320.23 82.53,-310.72"/>
<polygon fill="none" stroke="midnightblue" points="71.76,-336.63 72.48,-347.2 78.51,-338.49 71.76,-336.63"/>
</g>
<!-- Node3 -->
<g id="node3" class="node">
<title>Node3</title>
<g id="a_node3"><a xlink:title=" ">
<polygon fill="white" stroke="#bfbfbf" points="146.5,-347.5 146.5,-410.5 225.5,-410.5 225.5,-347.5 146.5,-347.5"/>
<text text-anchor="middle" x="186" y="-396.9" font-family="Helvetica,sans-Serif" font-size="12.00">IDisposable</text>
<polyline fill="none" stroke="#bfbfbf" points="146.5,-389.5 225.5,-389.5 "/>
<text text-anchor="middle" x="186" y="-375.9" font-family="Helvetica,sans-Serif" font-size="12.00"> </text>
<polyline fill="none" stroke="#bfbfbf" points="146.5,-368.5 225.5,-368.5 "/>
<text text-anchor="middle" x="186" y="-354.9" font-family="Helvetica,sans-Serif" font-size="12.00"> </text>
</a>
</g>
</g>
<!-- Node3&#45;&gt;Node1 -->
<g id="edge2" class="edge">
<title>Node3&#45;&gt;Node1</title>
<path fill="none" stroke="midnightblue" d="M174.81,-337.37C172.57,-329.23 170.09,-320.23 167.47,-310.72"/>
<polygon fill="none" stroke="midnightblue" points="171.49,-338.49 177.52,-347.2 178.24,-336.63 171.49,-338.49"/>
</g>
</g>
</svg>
