<?xml version="1.0" encoding="UTF-8" standalone="no"?>
<!DOCTYPE svg PUBLIC "-//W3C//DTD SVG 1.1//EN"
 "http://www.w3.org/Graphics/SVG/1.1/DTD/svg11.dtd">
<!-- Generated by graphviz version 2.47.1 (20210417.1919)
 -->
<!-- Title: UserSelectionScript.SelectCurrentTile Pages: 1 -->
<!--zoomable 110 -->
<svg id="main" version="1.1" xmlns="http://www.w3.org/2000/svg" xmlns:xlink="http://www.w3.org/1999/xlink" xml:space="preserve" onload="init(evt)">
<style type="text/css"><![CDATA[
.edge:hover path { stroke: red; }
.edge:hover polygon { stroke: red; fill: red; }
]]></style>
<script type="text/javascript"><![CDATA[
var edges = document.getElementsByTagName('g');
if (edges && edges.length) {
  for (var i=0;i<edges.length;i++) {
    if (edges[i].id.substr(0,4)=='edge') {
      edges[i].setAttribute('class','edge');
    }
  }
}
]]></script>
        <defs>
                <circle id="rim" cx="0" cy="0" r="7"/>
                <circle id="rim2" cx="0" cy="0" r="3.5"/>
                <g id="zoomPlus">
                        <use xlink:href="#rim" fill="#404040">
                                <set attributeName="fill" to="#808080" begin="zoomplus.mouseover" end="zoomplus.mouseout"/>
                        </use>
                        <path d="M-4,0h8M0,-4v8" fill="none" stroke="white" stroke-width="1.5" pointer-events="none"/>
                </g>
                <g id="zoomMin">
                        <use xlink:href="#rim" fill="#404040">
                                <set attributeName="fill" to="#808080" begin="zoomminus.mouseover" end="zoomminus.mouseout"/>
                        </use>
                        <path d="M-4,0h8" fill="none" stroke="white" stroke-width="1.5" pointer-events="none"/>
                </g>
                <g id="dirArrow">
                        <path fill="none" stroke="white" stroke-width="1.5" d="M0,-3.0v7 M-2.5,-0.5L0,-3.0L2.5,-0.5"/>
                </g>
               <g id="resetDef">
                       <use xlink:href="#rim2" fill="#404040">
                               <set attributeName="fill" to="#808080" begin="reset.mouseover" end="reset.mouseout"/>
                       </use>
               </g>
        </defs>

<script type="text/javascript">
var viewWidth = 1000;
var viewHeight = 110;
var sectionId = 'dynsection-5';
</script>
<script xlink:href="svgpan.js"/>
<svg id="graph" class="graph">
<g id="viewport">
<title>UserSelectionScript.SelectCurrentTile</title>
<polygon fill="white" stroke="transparent" points="-4,4 -4,-106 996,-106 996,4 -4,4"/>
<!-- Node1 -->
<g id="node1" class="node">
<title>Node1</title>
<g id="a_node1"><a xlink:title="Setting the current tile clears the previous tile and set the effect for the new tile">
<polygon fill="#bfbfbf" stroke="black" points="0,-40.5 0,-61.5 214,-61.5 214,-40.5 0,-40.5"/>
<text text-anchor="middle" x="107" y="-47.9" font-family="Helvetica,sans-Serif" font-size="12.00">UserSelectionScript.SelectCurrentTile</text>
</a>
</g>
</g>
<!-- Node2 -->
<g id="node2" class="node">
<title>Node2</title>
<g id="a_node2"><a xlink:href="class_board_tile_script.html#ac2a8e986f44ea316fb5340cdd75e02e4" target="_top" xlink:title="check if the player can move to this tile">
<polygon fill="white" stroke="black" points="278.5,-80.5 278.5,-101.5 430.5,-101.5 430.5,-80.5 278.5,-80.5"/>
<text text-anchor="middle" x="354.5" y="-87.9" font-family="Helvetica,sans-Serif" font-size="12.00">BoardTileScript.CanMove</text>
</a>
</g>
</g>
<!-- Node1&#45;&gt;Node2 -->
<g id="edge1" class="edge">
<title>Node1&#45;&gt;Node2</title>
<path fill="none" stroke="midnightblue" d="M172.5,-61.51C205.22,-66.84 245.11,-73.34 279.12,-78.88"/>
<polygon fill="midnightblue" stroke="midnightblue" points="278.57,-82.34 289,-80.49 279.7,-75.43 278.57,-82.34"/>
</g>
<!-- Node4 -->
<g id="node4" class="node">
<title>Node4</title>
<g id="a_node4"><a xlink:href="class_user_selection_script.html#a011d55536bb7550a00a7029cb7b6a6b5" target="_top" xlink:title="reset the effects on the current tile">
<polygon fill="white" stroke="black" points="250,-40.5 250,-61.5 459,-61.5 459,-40.5 250,-40.5"/>
<text text-anchor="middle" x="354.5" y="-47.9" font-family="Helvetica,sans-Serif" font-size="12.00">UserSelectionScript.ClearCurrentTile</text>
</a>
</g>
</g>
<!-- Node1&#45;&gt;Node4 -->
<g id="edge3" class="edge">
<title>Node1&#45;&gt;Node4</title>
<path fill="none" stroke="midnightblue" d="M214.25,-51C222.64,-51 231.12,-51 239.56,-51"/>
<polygon fill="midnightblue" stroke="midnightblue" points="239.8,-54.5 249.8,-51 239.8,-47.5 239.8,-54.5"/>
</g>
<!-- Node7 -->
<g id="node7" class="node">
<title>Node7</title>
<g id="a_node7"><a xlink:href="class_board_tile_script.html#a8fe04841788e895cfe9a60e1d513f9c7" target="_top" xlink:title="enable the select effect on the tile">
<polygon fill="white" stroke="black" points="278,-0.5 278,-21.5 431,-21.5 431,-0.5 278,-0.5"/>
<text text-anchor="middle" x="354.5" y="-7.9" font-family="Helvetica,sans-Serif" font-size="12.00">BoardTileScript.SelectTile</text>
</a>
</g>
</g>
<!-- Node1&#45;&gt;Node7 -->
<g id="edge6" class="edge">
<title>Node1&#45;&gt;Node7</title>
<path fill="none" stroke="midnightblue" d="M172.5,-40.49C205.22,-35.16 245.11,-28.66 279.12,-23.12"/>
<polygon fill="midnightblue" stroke="midnightblue" points="279.7,-26.57 289,-21.51 278.57,-19.66 279.7,-26.57"/>
</g>
<!-- Node3 -->
<g id="node3" class="node">
<title>Node3</title>
<g id="a_node3"><a xlink:href="class_board_manager.html#a9d5697839fa7daf9c40e75bdebc8bf82" target="_top" xlink:title=" ">
<polygon fill="white" stroke="black" points="532.5,-80.5 532.5,-101.5 681.5,-101.5 681.5,-80.5 532.5,-80.5"/>
<text text-anchor="middle" x="607" y="-87.9" font-family="Helvetica,sans-Serif" font-size="12.00">BoardManager.CanMove</text>
</a>
</g>
</g>
<!-- Node2&#45;&gt;Node3 -->
<g id="edge2" class="edge">
<title>Node2&#45;&gt;Node3</title>
<path fill="none" stroke="midnightblue" d="M430.66,-91C459.41,-91 492.37,-91 521.9,-91"/>
<polygon fill="midnightblue" stroke="midnightblue" points="522.19,-94.5 532.19,-91 522.19,-87.5 522.19,-94.5"/>
</g>
<!-- Node5 -->
<g id="node5" class="node">
<title>Node5</title>
<g id="a_node5"><a xlink:href="class_board_tile_script.html#a58615feb64c22a128cc22b7e0276ad5f" target="_top" xlink:title="disable the select effect on the tile">
<polygon fill="white" stroke="black" points="532.5,-40.5 532.5,-61.5 681.5,-61.5 681.5,-40.5 532.5,-40.5"/>
<text text-anchor="middle" x="607" y="-47.9" font-family="Helvetica,sans-Serif" font-size="12.00">BoardTileScript.ClearTile</text>
</a>
</g>
</g>
<!-- Node4&#45;&gt;Node5 -->
<g id="edge4" class="edge">
<title>Node4&#45;&gt;Node5</title>
<path fill="none" stroke="midnightblue" d="M459.2,-51C480.15,-51 501.94,-51 522.11,-51"/>
<polygon fill="midnightblue" stroke="midnightblue" points="522.19,-54.5 532.19,-51 522.19,-47.5 522.19,-54.5"/>
</g>
<!-- Node6 -->
<g id="node6" class="node">
<title>Node6</title>
<g id="a_node6"><a xlink:href="class_board_tile_effect_handler_script.html#a6c3a5ab97fa7a4abb76cd58d8df67964" target="_top" xlink:title="disable the glow box effect for when the cursor hovering on it">
<polygon fill="white" stroke="black" points="755,-40.5 755,-61.5 992,-61.5 992,-40.5 755,-40.5"/>
<text text-anchor="middle" x="873.5" y="-47.9" font-family="Helvetica,sans-Serif" font-size="12.00">BoardTileEffectHandlerScript.DeselectTile</text>
</a>
</g>
</g>
<!-- Node5&#45;&gt;Node6 -->
<g id="edge5" class="edge">
<title>Node5&#45;&gt;Node6</title>
<path fill="none" stroke="midnightblue" d="M681.68,-51C701.27,-51 723.02,-51 744.61,-51"/>
<polygon fill="midnightblue" stroke="midnightblue" points="744.85,-54.5 754.85,-51 744.85,-47.5 744.85,-54.5"/>
</g>
<!-- Node8 -->
<g id="node8" class="node">
<title>Node8</title>
<g id="a_node8"><a xlink:href="class_board_tile_effect_handler_script.html#a1ea26493f3277f4bc1f8f16a506cf29f" target="_top" xlink:title="display the glow box effect for when the cursor hovering on it">
<polygon fill="white" stroke="black" points="495,-0.5 495,-21.5 719,-21.5 719,-0.5 495,-0.5"/>
<text text-anchor="middle" x="607" y="-7.9" font-family="Helvetica,sans-Serif" font-size="12.00">BoardTileEffectHandlerScript.SelectTile</text>
</a>
</g>
</g>
<!-- Node7&#45;&gt;Node8 -->
<g id="edge7" class="edge">
<title>Node7&#45;&gt;Node8</title>
<path fill="none" stroke="midnightblue" d="M431.34,-11C448.23,-11 466.54,-11 484.75,-11"/>
<polygon fill="midnightblue" stroke="midnightblue" points="484.84,-14.5 494.84,-11 484.84,-7.5 484.84,-14.5"/>
</g>
</g>
</svg>
        <g id="navigator" transform="translate(0 0)" fill="#404254">
                <rect fill="#f2f5e9" fill-opacity="0.5" stroke="#606060" stroke-width=".5" x="0" y="0" width="60" height="60"/>
                <use id="zoomplus" xlink:href="#zoomPlus" x="17" y="9" onmousedown="handleZoom(evt,'in')"/>
                <use id="zoomminus" xlink:href="#zoomMin" x="42" y="9" onmousedown="handleZoom(evt,'out')"/>
                <use id="reset" xlink:href="#resetDef" x="30" y="36" onmousedown="handleReset()"/>
                <g id="arrowUp" xlink:href="#dirArrow" transform="translate(30 24)" onmousedown="handlePan(0,-1)">
                  <use xlink:href="#rim" fill="#404040">
                        <set attributeName="fill" to="#808080" begin="arrowUp.mouseover" end="arrowUp.mouseout"/>
                  </use>
                  <path fill="none" stroke="white" stroke-width="1.5" d="M0,-3.0v7 M-2.5,-0.5L0,-3.0L2.5,-0.5"/>
                </g>
                <g id="arrowRight" xlink:href="#dirArrow" transform="rotate(90) translate(36 -43)" onmousedown="handlePan(1,0)">
                  <use xlink:href="#rim" fill="#404040">
                        <set attributeName="fill" to="#808080" begin="arrowRight.mouseover" end="arrowRight.mouseout"/>
                  </use>
                  <path fill="none" stroke="white" stroke-width="1.5" d="M0,-3.0v7 M-2.5,-0.5L0,-3.0L2.5,-0.5"/>
                </g>
                <g id="arrowDown" xlink:href="#dirArrow" transform="rotate(180) translate(-30 -48)" onmousedown="handlePan(0,1)">
                  <use xlink:href="#rim" fill="#404040">
                        <set attributeName="fill" to="#808080" begin="arrowDown.mouseover" end="arrowDown.mouseout"/>
                  </use>
                  <path fill="none" stroke="white" stroke-width="1.5" d="M0,-3.0v7 M-2.5,-0.5L0,-3.0L2.5,-0.5"/>
                </g>
                <g id="arrowLeft" xlink:href="#dirArrow" transform="rotate(270) translate(-36 17)" onmousedown="handlePan(-1,0)">
                  <use xlink:href="#rim" fill="#404040">
                        <set attributeName="fill" to="#808080" begin="arrowLeft.mouseover" end="arrowLeft.mouseout"/>
                  </use>
                  <path fill="none" stroke="white" stroke-width="1.5" d="M0,-3.0v7 M-2.5,-0.5L0,-3.0L2.5,-0.5"/>
                </g>
        </g>
        <svg viewBox="0 0 15 15" width="100%" height="30px" preserveAspectRatio="xMaxYMin meet">
         <g id="arrow_out" transform="scale(0.3 0.3)">
          <a xlink:href="class_user_selection_script_a79fe134329afe738c1e4fb0d66c99d69_cgraph_org.svg" target="_base">
           <rect id="button" ry="5" rx="5" y="6" x="6" height="38" width="38"
                fill="#f2f5e9" fill-opacity="0.5" stroke="#606060" stroke-width="1.0"/>
           <path id="arrow"
             d="M 11.500037,31.436501 C 11.940474,20.09759 22.043105,11.32322 32.158766,21.979434 L 37.068811,17.246167 C 37.068811,17.246167 37.088388,32 37.088388,32 L 22.160133,31.978069 C 22.160133,31.978069 26.997745,27.140456 26.997745,27.140456 C 18.528582,18.264221 13.291696,25.230495 11.500037,31.436501 z"
             style="fill:#404040;"/>
          </a>
         </g>
        </svg>
</svg>
