<?xml version="1.0" encoding="UTF-8" standalone="no"?>
<!DOCTYPE svg PUBLIC "-//W3C//DTD SVG 1.1//EN"
 "http://www.w3.org/Graphics/SVG/1.1/DTD/svg11.dtd">
<!-- Generated by graphviz version 2.47.1 (20210417.1919)
 -->
<!-- Title: AccusationCardSlot.SetCard Pages: 1 -->
<svg width="654pt" height="110pt"
 viewBox="0.00 0.00 654.00 110.00" xmlns="http://www.w3.org/2000/svg" xmlns:xlink="http://www.w3.org/1999/xlink">
<g id="graph0" class="graph" transform="scale(1 1) rotate(0) translate(4 106)">
<title>AccusationCardSlot.SetCard</title>
<polygon fill="white" stroke="transparent" points="-4,4 -4,-106 650,-106 650,4 -4,4"/>
<!-- Node1 -->
<g id="node1" class="node">
<title>Node1</title>
<g id="a_node1"><a xlink:title=" ">
<polygon fill="#bfbfbf" stroke="black" points="0,-40.5 0,-61.5 168,-61.5 168,-40.5 0,-40.5"/>
<text text-anchor="middle" x="84" y="-47.9" font-family="Helvetica,sans-Serif" font-size="12.00">AccusationCardSlot.SetCard</text>
</a>
</g>
</g>
<!-- Node2 -->
<g id="node2" class="node">
<title>Node2</title>
<g id="a_node2"><a xlink:href="class_accusation_card_slot.html#a595d786e6f5d41e16b8ddcfb1a815010" target="_top" xlink:title=" ">
<polygon fill="white" stroke="black" points="204,-40.5 204,-61.5 409,-61.5 409,-40.5 204,-40.5"/>
<text text-anchor="middle" x="306.5" y="-47.9" font-family="Helvetica,sans-Serif" font-size="12.00">AccusationCardSlot.SetCardDetails</text>
</a>
</g>
</g>
<!-- Node1&#45;&gt;Node2 -->
<g id="edge1" class="edge">
<title>Node1&#45;&gt;Node2</title>
<path fill="none" stroke="midnightblue" d="M168.05,-51C176.47,-51 185.12,-51 193.78,-51"/>
<polygon fill="midnightblue" stroke="midnightblue" points="193.94,-54.5 203.94,-51 193.94,-47.5 193.94,-54.5"/>
</g>
<!-- Node3 -->
<g id="node3" class="node">
<title>Node3</title>
<g id="a_node3"><a xlink:href="class_card.html#a25e8366933b176fae41e4d2373be7815" target="_top" xlink:title=" ">
<polygon fill="white" stroke="black" points="484,-80.5 484,-101.5 607,-101.5 607,-80.5 484,-80.5"/>
<text text-anchor="middle" x="545.5" y="-87.9" font-family="Helvetica,sans-Serif" font-size="12.00">Card.GetCardImage</text>
</a>
</g>
</g>
<!-- Node2&#45;&gt;Node3 -->
<g id="edge2" class="edge">
<title>Node2&#45;&gt;Node3</title>
<path fill="none" stroke="midnightblue" d="M369.77,-61.51C401.71,-66.9 440.75,-73.49 473.82,-79.07"/>
<polygon fill="midnightblue" stroke="midnightblue" points="473.43,-82.55 483.88,-80.77 474.6,-75.65 473.43,-82.55"/>
</g>
<!-- Node4 -->
<g id="node4" class="node">
<title>Node4</title>
<g id="a_node4"><a xlink:href="class_card.html#a094a5e7ea98cc156ac64e578a987be85" target="_top" xlink:title=" ">
<polygon fill="white" stroke="black" points="487.5,-40.5 487.5,-61.5 603.5,-61.5 603.5,-40.5 487.5,-40.5"/>
<text text-anchor="middle" x="545.5" y="-47.9" font-family="Helvetica,sans-Serif" font-size="12.00">Card.GetCardType</text>
</a>
</g>
</g>
<!-- Node2&#45;&gt;Node4 -->
<g id="edge3" class="edge">
<title>Node2&#45;&gt;Node4</title>
<path fill="none" stroke="midnightblue" d="M409.04,-51C432.04,-51 455.91,-51 477.08,-51"/>
<polygon fill="midnightblue" stroke="midnightblue" points="477.25,-54.5 487.25,-51 477.25,-47.5 477.25,-54.5"/>
</g>
<!-- Node5 -->
<g id="node5" class="node">
<title>Node5</title>
<g id="a_node5"><a xlink:href="class_enum_to_string.html#a078a1fb16a0030544fac1b96a90b6b83" target="_top" xlink:title="Get a string value from a valid enum">
<polygon fill="white" stroke="black" points="445,-0.5 445,-21.5 646,-21.5 646,-0.5 445,-0.5"/>
<text text-anchor="middle" x="545.5" y="-7.9" font-family="Helvetica,sans-Serif" font-size="12.00">EnumToString.GetStringFromEnum</text>
</a>
</g>
</g>
<!-- Node2&#45;&gt;Node5 -->
<g id="edge4" class="edge">
<title>Node2&#45;&gt;Node5</title>
<path fill="none" stroke="midnightblue" d="M369.77,-40.49C401.21,-35.18 439.54,-28.72 472.27,-23.19"/>
<polygon fill="midnightblue" stroke="midnightblue" points="472.96,-26.62 482.24,-21.51 471.79,-19.72 472.96,-26.62"/>
</g>
</g>
</svg>
