<?xml version="1.0" encoding="UTF-8" standalone="no"?>
<!DOCTYPE svg PUBLIC "-//W3C//DTD SVG 1.1//EN"
 "http://www.w3.org/Graphics/SVG/1.1/DTD/svg11.dtd">
<!-- Generated by graphviz version 2.47.1 (20210417.1919)
 -->
<!-- Title: UserController.RollDice Pages: 1 -->
<svg width="1150pt" height="110pt"
 viewBox="0.00 0.00 1150.00 110.00" xmlns="http://www.w3.org/2000/svg" xmlns:xlink="http://www.w3.org/1999/xlink">
<g id="graph0" class="graph" transform="scale(1 1) rotate(0) translate(4 106)">
<title>UserController.RollDice</title>
<polygon fill="white" stroke="transparent" points="-4,4 -4,-106 1146,-106 1146,4 -4,4"/>
<!-- Node1 -->
<g id="node1" class="node">
<title>Node1</title>
<g id="a_node1"><a xlink:title="Rolls the dice">
<polygon fill="#bfbfbf" stroke="black" points="0,-20.5 0,-41.5 139,-41.5 139,-20.5 0,-20.5"/>
<text text-anchor="middle" x="69.5" y="-27.9" font-family="Helvetica,sans-Serif" font-size="12.00">UserController.RollDice</text>
</a>
</g>
</g>
<!-- Node2 -->
<g id="node2" class="node">
<title>Node2</title>
<g id="a_node2"><a xlink:href="class_round_manager.html#ab795c17242b95ab2cef508da5daa2593" target="_top" xlink:title="Rolls dice, will not roll if the player has rolled aready. Pass true to forcfully roll it">
<polygon fill="white" stroke="black" points="175,-20.5 175,-41.5 319,-41.5 319,-20.5 175,-20.5"/>
<text text-anchor="middle" x="247" y="-27.9" font-family="Helvetica,sans-Serif" font-size="12.00">RoundManager.RollDice</text>
</a>
</g>
</g>
<!-- Node1&#45;&gt;Node2 -->
<g id="edge1" class="edge">
<title>Node1&#45;&gt;Node2</title>
<path fill="none" stroke="midnightblue" d="M139.11,-31C147.54,-31 156.21,-31 164.81,-31"/>
<polygon fill="midnightblue" stroke="midnightblue" points="164.84,-34.5 174.84,-31 164.84,-27.5 164.84,-34.5"/>
</g>
<!-- Node3 -->
<g id="node3" class="node">
<title>Node3</title>
<g id="a_node3"><a xlink:href="class_round_manager.html#a5cfea3b56a7576ad02c82c27bb0c6ba7" target="_top" xlink:title="reset the dice after a time delay">
<polygon fill="white" stroke="black" points="355,-40.5 355,-61.5 540,-61.5 540,-40.5 355,-40.5"/>
<text text-anchor="middle" x="447.5" y="-47.9" font-family="Helvetica,sans-Serif" font-size="12.00">RoundManager.DelayResetDice</text>
</a>
</g>
</g>
<!-- Node2&#45;&gt;Node3 -->
<g id="edge2" class="edge">
<title>Node2&#45;&gt;Node3</title>
<path fill="none" stroke="midnightblue" d="M319.1,-38.16C327.42,-39 336.02,-39.87 344.65,-40.74"/>
<polygon fill="midnightblue" stroke="midnightblue" points="344.48,-44.24 354.78,-41.76 345.18,-37.27 344.48,-44.24"/>
</g>
<!-- Node10 -->
<g id="node10" class="node">
<title>Node10</title>
<g id="a_node10"><a xlink:href="class_dice.html#a333ed52f536c0e7748fafe9422b179b5" target="_top" xlink:title="Roll the Dice">
<polygon fill="white" stroke="black" points="403,-0.5 403,-21.5 492,-21.5 492,-0.5 403,-0.5"/>
<text text-anchor="middle" x="447.5" y="-7.9" font-family="Helvetica,sans-Serif" font-size="12.00">Dice.RollDice</text>
</a>
</g>
</g>
<!-- Node2&#45;&gt;Node10 -->
<g id="edge9" class="edge">
<title>Node2&#45;&gt;Node10</title>
<path fill="none" stroke="midnightblue" d="M319.1,-23.84C343.41,-21.39 370.18,-18.69 392.88,-16.4"/>
<polygon fill="midnightblue" stroke="midnightblue" points="393.4,-19.87 403,-15.38 392.7,-12.9 393.4,-19.87"/>
</g>
<!-- Node4 -->
<g id="node4" class="node">
<title>Node4</title>
<g id="a_node4"><a xlink:href="class_dice.html#ade1dc529eeb31f31e668c595c5748e67" target="_top" xlink:title="Reset the dice">
<polygon fill="white" stroke="black" points="576,-40.5 576,-61.5 676,-61.5 676,-40.5 576,-40.5"/>
<text text-anchor="middle" x="626" y="-47.9" font-family="Helvetica,sans-Serif" font-size="12.00">Dice.ResetDice</text>
</a>
</g>
</g>
<!-- Node3&#45;&gt;Node4 -->
<g id="edge3" class="edge">
<title>Node3&#45;&gt;Node4</title>
<path fill="none" stroke="midnightblue" d="M540.11,-51C548.73,-51 557.3,-51 565.5,-51"/>
<polygon fill="midnightblue" stroke="midnightblue" points="565.67,-54.5 575.67,-51 565.67,-47.5 565.67,-54.5"/>
</g>
<!-- Node5 -->
<g id="node5" class="node">
<title>Node5</title>
<g id="a_node5"><a xlink:href="class_dice.html#ace4c995eb73b784d1076fde140ce85af" target="_top" xlink:title="Can Dice be reset">
<polygon fill="white" stroke="black" points="754.5,-80.5 754.5,-101.5 851.5,-101.5 851.5,-80.5 754.5,-80.5"/>
<text text-anchor="middle" x="803" y="-87.9" font-family="Helvetica,sans-Serif" font-size="12.00">Dice.CanReset</text>
</a>
</g>
</g>
<!-- Node4&#45;&gt;Node5 -->
<g id="edge4" class="edge">
<title>Node4&#45;&gt;Node5</title>
<path fill="none" stroke="midnightblue" d="M671.53,-61.59C684.57,-64.66 698.85,-67.99 712,-71 722.51,-73.4 733.73,-75.93 744.54,-78.34"/>
<polygon fill="midnightblue" stroke="midnightblue" points="743.81,-81.77 754.33,-80.52 745.33,-74.93 743.81,-81.77"/>
</g>
<!-- Node7 -->
<g id="node7" class="node">
<title>Node7</title>
<g id="a_node7"><a xlink:href="class_camera_close_up.html#ad31062bdf359a453fc85ebdd71fa1bae" target="_top" xlink:title="Clear camera close up">
<polygon fill="white" stroke="black" points="712,-40.5 712,-61.5 894,-61.5 894,-40.5 712,-40.5"/>
<text text-anchor="middle" x="803" y="-47.9" font-family="Helvetica,sans-Serif" font-size="12.00">CameraCloseUp.ClearCloseUp</text>
</a>
</g>
</g>
<!-- Node4&#45;&gt;Node7 -->
<g id="edge6" class="edge">
<title>Node4&#45;&gt;Node7</title>
<path fill="none" stroke="midnightblue" d="M676.21,-51C684.21,-51 692.73,-51 701.43,-51"/>
<polygon fill="midnightblue" stroke="midnightblue" points="701.7,-54.5 711.7,-51 701.7,-47.5 701.7,-54.5"/>
</g>
<!-- Node9 -->
<g id="node9" class="node">
<title>Node9</title>
<g id="a_node9"><a xlink:href="class_die.html#abc11c3d2bf0c0fba1555093eb5a8469e" target="_top" xlink:title="Reset Die to original position">
<polygon fill="white" stroke="black" points="759,-0.5 759,-21.5 847,-21.5 847,-0.5 759,-0.5"/>
<text text-anchor="middle" x="803" y="-7.9" font-family="Helvetica,sans-Serif" font-size="12.00">Die.ResetDie</text>
</a>
</g>
</g>
<!-- Node4&#45;&gt;Node9 -->
<g id="edge8" class="edge">
<title>Node4&#45;&gt;Node9</title>
<path fill="none" stroke="midnightblue" d="M671.53,-40.41C684.57,-37.34 698.85,-34.01 712,-31 723.95,-28.27 736.8,-25.38 748.94,-22.68"/>
<polygon fill="midnightblue" stroke="midnightblue" points="749.94,-26.04 758.94,-20.45 748.42,-19.21 749.94,-26.04"/>
</g>
<!-- Node6 -->
<g id="node6" class="node">
<title>Node6</title>
<g id="a_node6"><a xlink:href="class_die.html#a390d46459637fd249926cda472255d84" target="_top" xlink:title="Can the die be reset">
<polygon fill="white" stroke="black" points="981,-80.5 981,-101.5 1091,-101.5 1091,-80.5 981,-80.5"/>
<text text-anchor="middle" x="1036" y="-87.9" font-family="Helvetica,sans-Serif" font-size="12.00">Die.CanResetDie</text>
</a>
</g>
</g>
<!-- Node5&#45;&gt;Node6 -->
<g id="edge5" class="edge">
<title>Node5&#45;&gt;Node6</title>
<path fill="none" stroke="midnightblue" d="M851.58,-91C885.87,-91 932.54,-91 970.22,-91"/>
<polygon fill="midnightblue" stroke="midnightblue" points="970.59,-94.5 980.59,-91 970.59,-87.5 970.59,-94.5"/>
</g>
<!-- Node8 -->
<g id="node8" class="node">
<title>Node8</title>
<g id="a_node8"><a xlink:href="class_camera_close_up.html#ae902d2ccdf969212e0cb84f638f68851" target="_top" xlink:title="Delay then clear close up">
<polygon fill="white" stroke="black" points="930,-40.5 930,-61.5 1142,-61.5 1142,-40.5 930,-40.5"/>
<text text-anchor="middle" x="1036" y="-47.9" font-family="Helvetica,sans-Serif" font-size="12.00">CameraCloseUp.ClearCloseUpDelay</text>
</a>
</g>
</g>
<!-- Node7&#45;&gt;Node8 -->
<g id="edge7" class="edge">
<title>Node7&#45;&gt;Node8</title>
<path fill="none" stroke="midnightblue" d="M894.3,-51C902.67,-51 911.22,-51 919.77,-51"/>
<polygon fill="midnightblue" stroke="midnightblue" points="919.8,-54.5 929.8,-51 919.8,-47.5 919.8,-54.5"/>
</g>
<!-- Node11 -->
<g id="node11" class="node">
<title>Node11</title>
<g id="a_node11"><a xlink:href="class_die.html#a4995ecb1a88aa7f1043ae71ba8aa3ef5" target="_top" xlink:title="Roll the die">
<polygon fill="white" stroke="black" points="587.5,-0.5 587.5,-21.5 664.5,-21.5 664.5,-0.5 587.5,-0.5"/>
<text text-anchor="middle" x="626" y="-7.9" font-family="Helvetica,sans-Serif" font-size="12.00">Die.RollDie</text>
</a>
</g>
</g>
<!-- Node10&#45;&gt;Node11 -->
<g id="edge10" class="edge">
<title>Node10&#45;&gt;Node11</title>
<path fill="none" stroke="midnightblue" d="M492.13,-11C517.9,-11 550.57,-11 577.06,-11"/>
<polygon fill="midnightblue" stroke="midnightblue" points="577.25,-14.5 587.25,-11 577.25,-7.5 577.25,-14.5"/>
</g>
<!-- Node11&#45;&gt;Node9 -->
<g id="edge11" class="edge">
<title>Node11&#45;&gt;Node9</title>
<path fill="none" stroke="midnightblue" d="M664.54,-11C689.12,-11 721.61,-11 748.83,-11"/>
<polygon fill="midnightblue" stroke="midnightblue" points="748.98,-14.5 758.98,-11 748.98,-7.5 748.98,-14.5"/>
</g>
</g>
</svg>
