<?xml version="1.0" encoding="UTF-8" standalone="no"?>
<!DOCTYPE svg PUBLIC "-//W3C//DTD SVG 1.1//EN"
 "http://www.w3.org/Graphics/SVG/1.1/DTD/svg11.dtd">
<!-- Generated by graphviz version 2.47.1 (20210417.1919)
 -->
<!-- Title: Graphical Class Hierarchy Pages: 1 -->
<svg width="264pt" height="70pt"
 viewBox="0.00 0.00 264.00 70.00" xmlns="http://www.w3.org/2000/svg" xmlns:xlink="http://www.w3.org/1999/xlink">
<g id="graph0" class="graph" transform="scale(1 1) rotate(0) translate(4 66)">
<title>Graphical Class Hierarchy</title>
<polygon fill="white" stroke="transparent" points="-4,4 -4,-66 260,-66 260,4 -4,4"/>
<!-- Node3 -->
<g id="node1" class="node">
<title>Node3</title>
<g id="a_node1"><a xlink:title=" ">
<polygon fill="white" stroke="#bfbfbf" points="24.5,-40.5 24.5,-61.5 103.5,-61.5 103.5,-40.5 24.5,-40.5"/>
<text text-anchor="middle" x="64" y="-47.9" font-family="Helvetica,sans-Serif" font-size="12.00">IDisposable</text>
</a>
</g>
</g>
<!-- Node0 -->
<g id="node2" class="node">
<title>Node0</title>
<g id="a_node2"><a xlink:href="class_game_controls.html" target="_top" xlink:title=" ">
<polygon fill="white" stroke="black" points="164,-20.5 164,-41.5 256,-41.5 256,-20.5 164,-20.5"/>
<text text-anchor="middle" x="210" y="-27.9" font-family="Helvetica,sans-Serif" font-size="12.00">GameControls</text>
</a>
</g>
</g>
<!-- Node3&#45;&gt;Node0 -->
<g id="edge1" class="edge">
<title>Node3&#45;&gt;Node0</title>
<path fill="none" stroke="midnightblue" d="M113.93,-44.2C130.12,-41.96 148.04,-39.47 163.92,-37.26"/>
<polygon fill="midnightblue" stroke="midnightblue" points="113.01,-40.8 103.59,-45.64 113.98,-47.73 113.01,-40.8"/>
</g>
<!-- Node5 -->
<g id="node3" class="node">
<title>Node5</title>
<g id="a_node3"><a xlink:title=" ">
<polygon fill="white" stroke="#bfbfbf" points="0,-0.5 0,-21.5 128,-21.5 128,-0.5 0,-0.5"/>
<text text-anchor="middle" x="64" y="-7.9" font-family="Helvetica,sans-Serif" font-size="12.00">IInputActionCollection</text>
</a>
</g>
</g>
<!-- Node5&#45;&gt;Node0 -->
<g id="edge2" class="edge">
<title>Node5&#45;&gt;Node0</title>
<path fill="none" stroke="midnightblue" d="M138.28,-21.18C146.92,-22.38 155.54,-23.57 163.63,-24.7"/>
<polygon fill="midnightblue" stroke="midnightblue" points="138.55,-17.68 128.16,-19.77 137.58,-24.61 138.55,-17.68"/>
</g>
</g>
</svg>
