<?xml version="1.0" encoding="UTF-8" standalone="no"?>
<!DOCTYPE svg PUBLIC "-//W3C//DTD SVG 1.1//EN"
 "http://www.w3.org/Graphics/SVG/1.1/DTD/svg11.dtd">
<!-- Generated by graphviz version 2.47.1 (20210417.1919)
 -->
<!-- Title: GameControls.PlayerMapActions.Get Pages: 1 -->
<svg width="490pt" height="70pt"
 viewBox="0.00 0.00 490.00 70.00" xmlns="http://www.w3.org/2000/svg" xmlns:xlink="http://www.w3.org/1999/xlink">
<g id="graph0" class="graph" transform="scale(1 1) rotate(0) translate(4 66)">
<title>GameControls.PlayerMapActions.Get</title>
<polygon fill="white" stroke="transparent" points="-4,4 -4,-66 486,-66 486,4 -4,4"/>
<!-- Node1 -->
<g id="node1" class="node">
<title>Node1</title>
<g id="a_node1"><a xlink:title=" ">
<polygon fill="#bfbfbf" stroke="black" points="270,-20.5 270,-41.5 482,-41.5 482,-20.5 270,-20.5"/>
<text text-anchor="middle" x="376" y="-27.9" font-family="Helvetica,sans-Serif" font-size="12.00">GameControls.PlayerMapActions.Get</text>
</a>
</g>
</g>
<!-- Node2 -->
<g id="node2" class="node">
<title>Node2</title>
<g id="a_node2"><a xlink:href="struct_game_controls_1_1_player_map_actions.html#aba3987bf103710ac7d006c1ed4bd7ad6" target="_top" xlink:title=" ">
<polygon fill="white" stroke="black" points="0,-40.5 0,-61.5 234,-61.5 234,-40.5 0,-40.5"/>
<text text-anchor="middle" x="117" y="-47.9" font-family="Helvetica,sans-Serif" font-size="12.00">GameControls.PlayerMapActions.Disable</text>
</a>
</g>
</g>
<!-- Node1&#45;&gt;Node2 -->
<g id="edge1" class="edge">
<title>Node1&#45;&gt;Node2</title>
<path fill="none" stroke="midnightblue" d="M259.57,-39.98C251.21,-40.63 242.77,-41.29 234.4,-41.94"/>
<polygon fill="midnightblue" stroke="midnightblue" points="260.03,-43.46 269.73,-39.19 259.49,-36.48 260.03,-43.46"/>
</g>
<!-- Node3 -->
<g id="node3" class="node">
<title>Node3</title>
<g id="a_node3"><a xlink:href="struct_game_controls_1_1_player_map_actions.html#a0b34910d7e21cd33b002bd63f7e24d3d" target="_top" xlink:title=" ">
<polygon fill="white" stroke="black" points="2,-0.5 2,-21.5 232,-21.5 232,-0.5 2,-0.5"/>
<text text-anchor="middle" x="117" y="-7.9" font-family="Helvetica,sans-Serif" font-size="12.00">GameControls.PlayerMapActions.Enable</text>
</a>
</g>
</g>
<!-- Node1&#45;&gt;Node3 -->
<g id="edge2" class="edge">
<title>Node1&#45;&gt;Node3</title>
<path fill="none" stroke="midnightblue" d="M259.55,-22.02C250.49,-21.31 241.35,-20.6 232.3,-19.9"/>
<polygon fill="midnightblue" stroke="midnightblue" points="259.49,-25.52 269.73,-22.81 260.03,-18.54 259.49,-25.52"/>
</g>
</g>
</svg>
