<?xml version="1.0" encoding="UTF-8" standalone="no"?>
<!DOCTYPE svg PUBLIC "-//W3C//DTD SVG 1.1//EN"
 "http://www.w3.org/Graphics/SVG/1.1/DTD/svg11.dtd">
<!-- Generated by graphviz version 2.47.1 (20210417.1919)
 -->
<!-- Title: GameControls.PlayerMapActions.SetCallbacks Pages: 1 -->
<svg width="606pt" height="270pt"
 viewBox="0.00 0.00 606.00 270.00" xmlns="http://www.w3.org/2000/svg" xmlns:xlink="http://www.w3.org/1999/xlink">
<g id="graph0" class="graph" transform="scale(1 1) rotate(0) translate(4 266)">
<title>GameControls.PlayerMapActions.SetCallbacks</title>
<polygon fill="white" stroke="transparent" points="-4,4 -4,-266 602,-266 602,4 -4,4"/>
<!-- Node1 -->
<g id="node1" class="node">
<title>Node1</title>
<g id="a_node1"><a xlink:title=" ">
<polygon fill="#bfbfbf" stroke="black" points="0,-120.5 0,-141.5 263,-141.5 263,-120.5 0,-120.5"/>
<text text-anchor="middle" x="131.5" y="-127.9" font-family="Helvetica,sans-Serif" font-size="12.00">GameControls.PlayerMapActions.SetCallbacks</text>
</a>
</g>
</g>
<!-- Node2 -->
<g id="node2" class="node">
<title>Node2</title>
<g id="a_node2"><a xlink:href="interface_game_controls_1_1_i_player_map_actions.html#a95523954805dfd2168f700bffb742eaf" target="_top" xlink:title=" ">
<polygon fill="white" stroke="black" points="299,-240.5 299,-261.5 598,-261.5 598,-240.5 299,-240.5"/>
<text text-anchor="middle" x="448.5" y="-247.9" font-family="Helvetica,sans-Serif" font-size="12.00">GameControls.IPlayerMapActions.OnControllerMoving</text>
</a>
</g>
</g>
<!-- Node1&#45;&gt;Node2 -->
<g id="edge1" class="edge">
<title>Node1&#45;&gt;Node2</title>
<path fill="none" stroke="midnightblue" d="M145.79,-141.62C172.83,-162.61 236.95,-209.24 299,-231 306.85,-233.75 315.06,-236.13 323.41,-238.19"/>
<polygon fill="midnightblue" stroke="midnightblue" points="322.74,-241.62 333.27,-240.45 324.31,-234.8 322.74,-241.62"/>
</g>
<!-- Node3 -->
<g id="node3" class="node">
<title>Node3</title>
<g id="a_node3"><a xlink:href="interface_game_controls_1_1_i_player_map_actions.html#a5a87beab2a9c01198794843922ec29d8" target="_top" xlink:title=" ">
<polygon fill="white" stroke="black" points="306.5,-200.5 306.5,-221.5 590.5,-221.5 590.5,-200.5 306.5,-200.5"/>
<text text-anchor="middle" x="448.5" y="-207.9" font-family="Helvetica,sans-Serif" font-size="12.00">GameControls.IPlayerMapActions.OnMouseMoving</text>
</a>
</g>
</g>
<!-- Node1&#45;&gt;Node3 -->
<g id="edge2" class="edge">
<title>Node1&#45;&gt;Node3</title>
<path fill="none" stroke="midnightblue" d="M156.82,-141.61C188.81,-155.14 247.07,-178.3 299,-191 311.38,-194.03 324.47,-196.63 337.53,-198.86"/>
<polygon fill="midnightblue" stroke="midnightblue" points="337.07,-202.33 347.51,-200.49 338.2,-195.42 337.07,-202.33"/>
</g>
<!-- Node4 -->
<g id="node4" class="node">
<title>Node4</title>
<g id="a_node4"><a xlink:href="interface_game_controls_1_1_i_player_map_actions.html#a017908cc408f258b7fa804e7850f99a8" target="_top" xlink:title=" ">
<polygon fill="white" stroke="black" points="312.5,-160.5 312.5,-181.5 584.5,-181.5 584.5,-160.5 312.5,-160.5"/>
<text text-anchor="middle" x="448.5" y="-167.9" font-family="Helvetica,sans-Serif" font-size="12.00">GameControls.IPlayerMapActions.OnMoveToken</text>
</a>
</g>
</g>
<!-- Node1&#45;&gt;Node4 -->
<g id="edge3" class="edge">
<title>Node1&#45;&gt;Node4</title>
<path fill="none" stroke="midnightblue" d="M215.26,-141.51C258.05,-146.94 310.41,-153.59 354.58,-159.2"/>
<polygon fill="midnightblue" stroke="midnightblue" points="354.38,-162.7 364.74,-160.49 355.26,-155.76 354.38,-162.7"/>
</g>
<!-- Node5 -->
<g id="node5" class="node">
<title>Node5</title>
<g id="a_node5"><a xlink:href="interface_game_controls_1_1_i_player_map_actions.html#a706e6bad3bb60d92f2d24b4b741ca0eb" target="_top" xlink:title=" ">
<polygon fill="white" stroke="black" points="312,-120.5 312,-141.5 585,-141.5 585,-120.5 312,-120.5"/>
<text text-anchor="middle" x="448.5" y="-127.9" font-family="Helvetica,sans-Serif" font-size="12.00">GameControls.IPlayerMapActions.OnTestButton1</text>
</a>
</g>
</g>
<!-- Node1&#45;&gt;Node5 -->
<g id="edge4" class="edge">
<title>Node1&#45;&gt;Node5</title>
<path fill="none" stroke="midnightblue" d="M263.35,-131C276.02,-131 288.93,-131 301.73,-131"/>
<polygon fill="midnightblue" stroke="midnightblue" points="301.97,-134.5 311.97,-131 301.97,-127.5 301.97,-134.5"/>
</g>
<!-- Node6 -->
<g id="node6" class="node">
<title>Node6</title>
<g id="a_node6"><a xlink:href="interface_game_controls_1_1_i_player_map_actions.html#aaf31f3bc66339817d293539f860d7532" target="_top" xlink:title=" ">
<polygon fill="white" stroke="black" points="312,-80.5 312,-101.5 585,-101.5 585,-80.5 312,-80.5"/>
<text text-anchor="middle" x="448.5" y="-87.9" font-family="Helvetica,sans-Serif" font-size="12.00">GameControls.IPlayerMapActions.OnTestButton2</text>
</a>
</g>
</g>
<!-- Node1&#45;&gt;Node6 -->
<g id="edge5" class="edge">
<title>Node1&#45;&gt;Node6</title>
<path fill="none" stroke="midnightblue" d="M215.26,-120.49C258.05,-115.06 310.41,-108.41 354.58,-102.8"/>
<polygon fill="midnightblue" stroke="midnightblue" points="355.26,-106.24 364.74,-101.51 354.38,-99.3 355.26,-106.24"/>
</g>
<!-- Node7 -->
<g id="node7" class="node">
<title>Node7</title>
<g id="a_node7"><a xlink:href="interface_game_controls_1_1_i_player_map_actions.html#a4811ca0fd8221afe8fdcca1b543c16e6" target="_top" xlink:title=" ">
<polygon fill="white" stroke="black" points="312,-40.5 312,-61.5 585,-61.5 585,-40.5 312,-40.5"/>
<text text-anchor="middle" x="448.5" y="-47.9" font-family="Helvetica,sans-Serif" font-size="12.00">GameControls.IPlayerMapActions.OnTestButton3</text>
</a>
</g>
</g>
<!-- Node1&#45;&gt;Node7 -->
<g id="edge6" class="edge">
<title>Node1&#45;&gt;Node7</title>
<path fill="none" stroke="midnightblue" d="M156.82,-120.39C188.81,-106.86 247.07,-83.7 299,-71 311.38,-67.97 324.47,-65.37 337.53,-63.14"/>
<polygon fill="midnightblue" stroke="midnightblue" points="338.2,-66.58 347.51,-61.51 337.07,-59.67 338.2,-66.58"/>
</g>
<!-- Node8 -->
<g id="node8" class="node">
<title>Node8</title>
<g id="a_node8"><a xlink:href="interface_game_controls_1_1_i_player_map_actions.html#a779944a25275db1ff1b3e0c2f20d3841" target="_top" xlink:title=" ">
<polygon fill="white" stroke="black" points="312,-0.5 312,-21.5 585,-21.5 585,-0.5 312,-0.5"/>
<text text-anchor="middle" x="448.5" y="-7.9" font-family="Helvetica,sans-Serif" font-size="12.00">GameControls.IPlayerMapActions.OnTestButton4</text>
</a>
</g>
</g>
<!-- Node1&#45;&gt;Node8 -->
<g id="edge7" class="edge">
<title>Node1&#45;&gt;Node8</title>
<path fill="none" stroke="midnightblue" d="M145.79,-120.38C172.83,-99.39 236.95,-52.76 299,-31 306.85,-28.25 315.06,-25.87 323.41,-23.81"/>
<polygon fill="midnightblue" stroke="midnightblue" points="324.31,-27.2 333.27,-21.55 322.74,-20.38 324.31,-27.2"/>
</g>
</g>
</svg>
