<?xml version="1.0" encoding="UTF-8" standalone="no"?>
<!DOCTYPE svg PUBLIC "-//W3C//DTD SVG 1.1//EN"
 "http://www.w3.org/Graphics/SVG/1.1/DTD/svg11.dtd">
<!-- Generated by graphviz version 2.47.1 (20210417.1919)
 -->
<!-- Title: GameControls.PlayerMapActions Pages: 1 -->
<svg width="502pt" height="766pt"
 viewBox="0.00 0.00 502.00 766.00" xmlns="http://www.w3.org/2000/svg" xmlns:xlink="http://www.w3.org/1999/xlink">
<g id="graph0" class="graph" transform="scale(1 1) rotate(0) translate(4 762)">
<title>GameControls.PlayerMapActions</title>
<polygon fill="white" stroke="transparent" points="-4,4 -4,-762 498,-762 498,4 -4,4"/>
<!-- Node1 -->
<g id="node1" class="node">
<title>Node1</title>
<g id="a_node1"><a xlink:title=" ">
<polygon fill="#bfbfbf" stroke="black" points="90.5,-0.5 90.5,-219.5 281.5,-219.5 281.5,-0.5 90.5,-0.5"/>
<text text-anchor="middle" x="186" y="-205.9" font-family="Helvetica,sans-Serif" font-size="12.00">GameControls.PlayerMapActions</text>
<polyline fill="none" stroke="black" points="90.5,-198.5 281.5,-198.5 "/>
<text text-anchor="start" x="98.5" y="-184.9" font-family="Helvetica,sans-Serif" font-size="12.00">+ MouseMoving</text>
<text text-anchor="start" x="98.5" y="-171.9" font-family="Helvetica,sans-Serif" font-size="12.00">+ ControllerMoving</text>
<text text-anchor="start" x="98.5" y="-158.9" font-family="Helvetica,sans-Serif" font-size="12.00">+ MoveToken</text>
<text text-anchor="start" x="98.5" y="-145.9" font-family="Helvetica,sans-Serif" font-size="12.00">+ TestButton1</text>
<text text-anchor="start" x="98.5" y="-132.9" font-family="Helvetica,sans-Serif" font-size="12.00">+ TestButton2</text>
<text text-anchor="start" x="98.5" y="-119.9" font-family="Helvetica,sans-Serif" font-size="12.00">+ TestButton3</text>
<text text-anchor="start" x="98.5" y="-106.9" font-family="Helvetica,sans-Serif" font-size="12.00">+ TestButton4</text>
<text text-anchor="start" x="98.5" y="-93.9" font-family="Helvetica,sans-Serif" font-size="12.00">+ enabled</text>
<polyline fill="none" stroke="black" points="90.5,-86.5 281.5,-86.5 "/>
<text text-anchor="start" x="98.5" y="-72.9" font-family="Helvetica,sans-Serif" font-size="12.00">+ PlayerMapActions()</text>
<text text-anchor="start" x="98.5" y="-59.9" font-family="Helvetica,sans-Serif" font-size="12.00">+ Get()</text>
<text text-anchor="start" x="98.5" y="-46.9" font-family="Helvetica,sans-Serif" font-size="12.00">+ Enable()</text>
<text text-anchor="start" x="98.5" y="-33.9" font-family="Helvetica,sans-Serif" font-size="12.00">+ Disable()</text>
<text text-anchor="start" x="98.5" y="-20.9" font-family="Helvetica,sans-Serif" font-size="12.00">+ SetCallbacks()</text>
<text text-anchor="start" x="98.5" y="-7.9" font-family="Helvetica,sans-Serif" font-size="12.00">+ operator InputActionMap()</text>
</a>
</g>
</g>
<!-- Node2 -->
<g id="node2" class="node">
<title>Node2</title>
<g id="a_node2"><a xlink:href="class_game_controls.html" target="_top" xlink:title=" ">
<polygon fill="white" stroke="black" points="90.5,-269.5 90.5,-566.5 281.5,-566.5 281.5,-269.5 90.5,-269.5"/>
<text text-anchor="middle" x="186" y="-552.9" font-family="Helvetica,sans-Serif" font-size="12.00">GameControls</text>
<polyline fill="none" stroke="black" points="90.5,-545.5 281.5,-545.5 "/>
<text text-anchor="start" x="98.5" y="-531.9" font-family="Helvetica,sans-Serif" font-size="12.00">+ asset</text>
<text text-anchor="start" x="98.5" y="-518.9" font-family="Helvetica,sans-Serif" font-size="12.00">+ bindingMask</text>
<text text-anchor="start" x="98.5" y="-505.9" font-family="Helvetica,sans-Serif" font-size="12.00">+ devices</text>
<text text-anchor="start" x="98.5" y="-492.9" font-family="Helvetica,sans-Serif" font-size="12.00">+ controlSchemes</text>
<text text-anchor="start" x="98.5" y="-479.9" font-family="Helvetica,sans-Serif" font-size="12.00">+ PlayerMap</text>
<text text-anchor="start" x="98.5" y="-466.9" font-family="Helvetica,sans-Serif" font-size="12.00">&#45; m_PlayerMap</text>
<text text-anchor="start" x="98.5" y="-453.9" font-family="Helvetica,sans-Serif" font-size="12.00">&#45; m_PlayerMap_MouseMoving</text>
<text text-anchor="start" x="98.5" y="-440.9" font-family="Helvetica,sans-Serif" font-size="12.00">&#45; m_PlayerMap_ControllerMoving</text>
<text text-anchor="start" x="98.5" y="-427.9" font-family="Helvetica,sans-Serif" font-size="12.00">&#45; m_PlayerMap_MoveToken</text>
<text text-anchor="start" x="98.5" y="-414.9" font-family="Helvetica,sans-Serif" font-size="12.00">&#45; m_PlayerMap_TestButton1</text>
<text text-anchor="start" x="98.5" y="-401.9" font-family="Helvetica,sans-Serif" font-size="12.00">&#45; m_PlayerMap_TestButton2</text>
<text text-anchor="start" x="98.5" y="-388.9" font-family="Helvetica,sans-Serif" font-size="12.00">&#45; m_PlayerMap_TestButton3</text>
<text text-anchor="start" x="98.5" y="-375.9" font-family="Helvetica,sans-Serif" font-size="12.00">&#45; m_PlayerMap_TestButton4</text>
<polyline fill="none" stroke="black" points="90.5,-368.5 281.5,-368.5 "/>
<text text-anchor="start" x="98.5" y="-354.9" font-family="Helvetica,sans-Serif" font-size="12.00">+ GameControls()</text>
<text text-anchor="start" x="98.5" y="-341.9" font-family="Helvetica,sans-Serif" font-size="12.00">+ Dispose()</text>
<text text-anchor="start" x="98.5" y="-328.9" font-family="Helvetica,sans-Serif" font-size="12.00">+ Contains()</text>
<text text-anchor="start" x="98.5" y="-315.9" font-family="Helvetica,sans-Serif" font-size="12.00">+ GetEnumerator()</text>
<text text-anchor="start" x="98.5" y="-302.9" font-family="Helvetica,sans-Serif" font-size="12.00">+ Enable()</text>
<text text-anchor="start" x="98.5" y="-289.9" font-family="Helvetica,sans-Serif" font-size="12.00">+ Disable()</text>
<text text-anchor="start" x="98.5" y="-276.9" font-family="Helvetica,sans-Serif" font-size="12.00">&#45; GetEnumerator()</text>
</a>
</g>
</g>
<!-- Node2&#45;&gt;Node1 -->
<g id="edge1" class="edge">
<title>Node2&#45;&gt;Node1</title>
<path fill="none" stroke="#404040" d="M186,-269.38C186,-256.88 186,-244.34 186,-232.09"/>
<polygon fill="none" stroke="#404040" points="186,-231.94 182,-225.94 186,-219.94 190,-225.94 186,-231.94"/>
<text text-anchor="middle" x="221" y="-241.4" font-family="Helvetica,sans-Serif" font-size="12.00"> &#45;m_Wrapper</text>
</g>
<!-- Node3 -->
<g id="node3" class="node">
<title>Node3</title>
<g id="a_node3"><a xlink:title=" ">
<polygon fill="white" stroke="#bfbfbf" points="0,-655.5 0,-718.5 128,-718.5 128,-655.5 0,-655.5"/>
<text text-anchor="middle" x="64" y="-704.9" font-family="Helvetica,sans-Serif" font-size="12.00">IInputActionCollection</text>
<polyline fill="none" stroke="#bfbfbf" points="0,-697.5 128,-697.5 "/>
<text text-anchor="middle" x="64" y="-683.9" font-family="Helvetica,sans-Serif" font-size="12.00"> </text>
<polyline fill="none" stroke="#bfbfbf" points="0,-676.5 128,-676.5 "/>
<text text-anchor="middle" x="64" y="-662.9" font-family="Helvetica,sans-Serif" font-size="12.00"> </text>
</a>
</g>
</g>
<!-- Node3&#45;&gt;Node2 -->
<g id="edge2" class="edge">
<title>Node3&#45;&gt;Node2</title>
<path fill="none" stroke="midnightblue" d="M82.19,-646.18C92.12,-624.45 105.1,-596.04 118.51,-566.71"/>
<polygon fill="none" stroke="midnightblue" points="78.97,-644.82 77.99,-655.37 85.33,-647.73 78.97,-644.82"/>
</g>
<!-- Node4 -->
<g id="node4" class="node">
<title>Node4</title>
<g id="a_node4"><a xlink:title=" ">
<polygon fill="white" stroke="#bfbfbf" points="146.5,-655.5 146.5,-718.5 225.5,-718.5 225.5,-655.5 146.5,-655.5"/>
<text text-anchor="middle" x="186" y="-704.9" font-family="Helvetica,sans-Serif" font-size="12.00">IDisposable</text>
<polyline fill="none" stroke="#bfbfbf" points="146.5,-697.5 225.5,-697.5 "/>
<text text-anchor="middle" x="186" y="-683.9" font-family="Helvetica,sans-Serif" font-size="12.00"> </text>
<polyline fill="none" stroke="#bfbfbf" points="146.5,-676.5 225.5,-676.5 "/>
<text text-anchor="middle" x="186" y="-662.9" font-family="Helvetica,sans-Serif" font-size="12.00"> </text>
</a>
</g>
</g>
<!-- Node4&#45;&gt;Node2 -->
<g id="edge3" class="edge">
<title>Node4&#45;&gt;Node2</title>
<path fill="none" stroke="midnightblue" d="M186,-645.3C186,-623.69 186,-595.65 186,-566.71"/>
<polygon fill="none" stroke="midnightblue" points="182.5,-645.37 186,-655.37 189.5,-645.37 182.5,-645.37"/>
</g>
<!-- Node5 -->
<g id="node5" class="node">
<title>Node5</title>
<g id="a_node5"><a xlink:href="interface_game_controls_1_1_i_player_map_actions.html" target="_top" xlink:title=" ">
<polygon fill="white" stroke="black" points="243.5,-616.5 243.5,-757.5 436.5,-757.5 436.5,-616.5 243.5,-616.5"/>
<text text-anchor="middle" x="340" y="-743.9" font-family="Helvetica,sans-Serif" font-size="12.00">GameControls.IPlayerMapActions</text>
<polyline fill="none" stroke="black" points="243.5,-736.5 436.5,-736.5 "/>
<text text-anchor="middle" x="340" y="-722.9" font-family="Helvetica,sans-Serif" font-size="12.00"> </text>
<polyline fill="none" stroke="black" points="243.5,-715.5 436.5,-715.5 "/>
<text text-anchor="start" x="251.5" y="-701.9" font-family="Helvetica,sans-Serif" font-size="12.00">+ OnMouseMoving()</text>
<text text-anchor="start" x="251.5" y="-688.9" font-family="Helvetica,sans-Serif" font-size="12.00">+ OnControllerMoving()</text>
<text text-anchor="start" x="251.5" y="-675.9" font-family="Helvetica,sans-Serif" font-size="12.00">+ OnMoveToken()</text>
<text text-anchor="start" x="251.5" y="-662.9" font-family="Helvetica,sans-Serif" font-size="12.00">+ OnTestButton1()</text>
<text text-anchor="start" x="251.5" y="-649.9" font-family="Helvetica,sans-Serif" font-size="12.00">+ OnTestButton2()</text>
<text text-anchor="start" x="251.5" y="-636.9" font-family="Helvetica,sans-Serif" font-size="12.00">+ OnTestButton3()</text>
<text text-anchor="start" x="251.5" y="-623.9" font-family="Helvetica,sans-Serif" font-size="12.00">+ OnTestButton4()</text>
</a>
</g>
</g>
<!-- Node5&#45;&gt;Node2 -->
<g id="edge4" class="edge">
<title>Node5&#45;&gt;Node2</title>
<path fill="none" stroke="#404040" d="M299.74,-616.2C292.64,-603.89 284.99,-590.63 277.14,-577.02"/>
<polygon fill="none" stroke="#404040" points="277.1,-576.95 270.64,-573.75 271.11,-566.55 277.57,-569.75 277.1,-576.95"/>
<text text-anchor="middle" x="389.5" y="-588.4" font-family="Helvetica,sans-Serif" font-size="12.00"> &#45;m_PlayerMapActionsCallbackInterface</text>
</g>
</g>
</svg>
